<svg xmlns="http://www.w3.org/2000/svg" version="1.1" xmlns:xlink="http://www.w3.org/1999/xlink" width="512" height="512" x="0" y="0" viewBox="0 0 1600 1600" style="enable-background:new 0 0 512 512" xml:space="preserve" class=""><defs><linearGradient xlink:href="#a" id="b" x1="-182.643" x2="1846.982" y1="1816.473" y2="-213.152" gradientTransform="matrix(1 0 0 -1 0 1597.89)" gradientUnits="userSpaceOnUse"></linearGradient><linearGradient xlink:href="#a" id="c" x1="210.138" x2="2247.435" y1="2208.417" y2="171.12" gradientTransform="matrix(1 0 0 -1 0 1597.89)" gradientUnits="userSpaceOnUse"></linearGradient><linearGradient xlink:href="#a" id="d" x1="-331.436" x2="1712.55" y1="1686.551" y2="-357.435" gradientTransform="matrix(1 0 0 -1 0 1597.89)" gradientUnits="userSpaceOnUse"></linearGradient><linearGradient xlink:href="#a" id="e" x1="-377.169" x2="1649.054" y1="1622.139" y2="-404.084" gradientTransform="matrix(1 0 0 -1 0 1597.89)" gradientUnits="userSpaceOnUse"></linearGradient><linearGradient xlink:href="#a" id="f" x1="-514.2" x2="1499.313" y1="1472.435" y2="-541.078" gradientTransform="matrix(1 0 0 -1 0 1597.89)" gradientUnits="userSpaceOnUse"></linearGradient><linearGradient xlink:href="#a" id="g" x1="-406.592" x2="1606.92" y1="1576.807" y2="-436.706" gradientTransform="matrix(1 0 0 -1 0 1597.89)" gradientUnits="userSpaceOnUse"></linearGradient><linearGradient xlink:href="#a" id="h" x1="-569.362" x2="1470.029" y1="1450.54" y2="-588.851" gradientTransform="matrix(1 0 0 -1 0 1597.89)" gradientUnits="userSpaceOnUse"></linearGradient><linearGradient xlink:href="#a" id="i" x1="-116.413" x2="1907.724" y1="1876.09" y2="-148.047" gradientTransform="matrix(1 0 0 -1 0 1597.89)" gradientUnits="userSpaceOnUse"></linearGradient><linearGradient xlink:href="#a" id="j" x1="200.407" x2="2226.254" y1="2188.613" y2="162.766" gradientTransform="matrix(1 0 0 -1 0 1597.89)" gradientUnits="userSpaceOnUse"></linearGradient><linearGradient xlink:href="#a" id="k" x1="229.614" x2="2267.191" y1="2228.581" y2="191.004" gradientTransform="matrix(1 0 0 -1 0 1597.89)" gradientUnits="userSpaceOnUse"></linearGradient><linearGradient xlink:href="#a" id="l" x1="168.283" x2="2183.135" y1="2146.439" y2="131.587" gradientTransform="matrix(1 0 0 -1 0 1597.89)" gradientUnits="userSpaceOnUse"></linearGradient><linearGradient xlink:href="#a" id="m" x1="37.079" x2="2057.898" y1="2023.371" y2="2.552" gradientTransform="matrix(1 0 0 -1 0 1597.89)" gradientUnits="userSpaceOnUse"></linearGradient><linearGradient xlink:href="#a" id="n" x1="-44.625" x2="1981.123" y1="1948.515" y2="-77.233" gradientTransform="matrix(1 0 0 -1 0 1597.89)" gradientUnits="userSpaceOnUse"></linearGradient><linearGradient xlink:href="#a" id="o" x1="-53.622" x2="1988.99" y1="1952.052" y2="-90.56" gradientTransform="matrix(1 0 0 -1 0 1597.89)" gradientUnits="userSpaceOnUse"></linearGradient><linearGradient xlink:href="#a" id="p" x1="-141.994" x2="1899.376" y1="1864.219" y2="-177.151" gradientTransform="matrix(1 0 0 -1 0 1597.89)" gradientUnits="userSpaceOnUse"></linearGradient><linearGradient xlink:href="#a" id="q" x1="-7.357" x2="2031.401" y1="1996.152" y2="-42.606" gradientTransform="matrix(1 0 0 -1 0 1597.89)" gradientUnits="userSpaceOnUse"></linearGradient><linearGradient xlink:href="#a" id="r" x1="-134.057" x2="1908.556" y1="1874.327" y2="-168.286" gradientTransform="matrix(1 0 0 -1 0 1597.89)" gradientUnits="userSpaceOnUse"></linearGradient><linearGradient xlink:href="#a" id="s" x1="98.331" x2="2137.671" y1="2097.729" y2="58.389" gradientTransform="matrix(1 0 0 -1 0 1597.89)" gradientUnits="userSpaceOnUse"></linearGradient><linearGradient xlink:href="#a" id="t" x1="82.368" x2="2123.457" y1="2084.122" y2="43.033" gradientTransform="matrix(1 0 0 -1 0 1597.89)" gradientUnits="userSpaceOnUse"></linearGradient><linearGradient xlink:href="#a" id="u" x1="42.181" x2="2083.27" y1="2045.229" y2="4.14" gradientTransform="matrix(1 0 0 -1 0 1597.89)" gradientUnits="userSpaceOnUse"></linearGradient><linearGradient xlink:href="#a" id="v" x1="-253.876" x2="1785.342" y1="1753.366" y2="-285.852" gradientTransform="matrix(1 0 0 -1 0 1597.89)" gradientUnits="userSpaceOnUse"></linearGradient><linearGradient xlink:href="#a" id="w" x1="-121.412" x2="1919.805" y1="1886.942" y2="-154.275" gradientTransform="matrix(1 0 0 -1 0 1597.89)" gradientUnits="userSpaceOnUse"></linearGradient><linearGradient xlink:href="#a" id="x" x1="-214.491" x2="1828.121" y1="1796.601" y2="-246.011" gradientTransform="matrix(1 0 0 -1 0 1597.89)" gradientUnits="userSpaceOnUse"></linearGradient><linearGradient xlink:href="#a" id="y" x1="-299.675" x2="1741.818" y1="1711.86" y2="-329.633" gradientTransform="matrix(1 0 0 -1 0 1597.89)" gradientUnits="userSpaceOnUse"></linearGradient><linearGradient xlink:href="#a" id="z" x1="-166.386" x2="1872.182" y1="1841.731" y2="-196.837" gradientTransform="matrix(1 0 0 -1 0 1597.89)" gradientUnits="userSpaceOnUse"></linearGradient></defs><g><linearGradient id="a"><stop offset="0" stop-color="#00dbde"></stop><stop offset="1" stop-color="#fc00ff"></stop></linearGradient><linearGradient xlink:href="#a" id="b" x1="-182.643" x2="1846.982" y1="1816.473" y2="-213.152" gradientTransform="matrix(1 0 0 -1 0 1597.89)" gradientUnits="userSpaceOnUse"></linearGradient><linearGradient xlink:href="#a" id="c" x1="210.138" x2="2247.435" y1="2208.417" y2="171.12" gradientTransform="matrix(1 0 0 -1 0 1597.89)" gradientUnits="userSpaceOnUse"></linearGradient><linearGradient xlink:href="#a" id="d" x1="-331.436" x2="1712.55" y1="1686.551" y2="-357.435" gradientTransform="matrix(1 0 0 -1 0 1597.89)" gradientUnits="userSpaceOnUse"></linearGradient><linearGradient xlink:href="#a" id="e" x1="-377.169" x2="1649.054" y1="1622.139" y2="-404.084" gradientTransform="matrix(1 0 0 -1 0 1597.89)" gradientUnits="userSpaceOnUse"></linearGradient><linearGradient xlink:href="#a" id="f" x1="-514.2" x2="1499.313" y1="1472.435" y2="-541.078" gradientTransform="matrix(1 0 0 -1 0 1597.89)" gradientUnits="userSpaceOnUse"></linearGradient><linearGradient xlink:href="#a" id="g" x1="-406.592" x2="1606.92" y1="1576.807" y2="-436.706" gradientTransform="matrix(1 0 0 -1 0 1597.89)" gradientUnits="userSpaceOnUse"></linearGradient><linearGradient xlink:href="#a" id="h" x1="-569.362" x2="1470.029" y1="1450.54" y2="-588.851" gradientTransform="matrix(1 0 0 -1 0 1597.89)" gradientUnits="userSpaceOnUse"></linearGradient><linearGradient xlink:href="#a" id="i" x1="-116.413" x2="1907.724" y1="1876.09" y2="-148.047" gradientTransform="matrix(1 0 0 -1 0 1597.89)" gradientUnits="userSpaceOnUse"></linearGradient><linearGradient xlink:href="#a" id="j" x1="200.407" x2="2226.254" y1="2188.613" y2="162.766" gradientTransform="matrix(1 0 0 -1 0 1597.89)" gradientUnits="userSpaceOnUse"></linearGradient><linearGradient xlink:href="#a" id="k" x1="229.614" x2="2267.191" y1="2228.581" y2="191.004" gradientTransform="matrix(1 0 0 -1 0 1597.89)" gradientUnits="userSpaceOnUse"></linearGradient><linearGradient xlink:href="#a" id="l" x1="168.283" x2="2183.135" y1="2146.439" y2="131.587" gradientTransform="matrix(1 0 0 -1 0 1597.89)" gradientUnits="userSpaceOnUse"></linearGradient><linearGradient xlink:href="#a" id="m" x1="37.079" x2="2057.898" y1="2023.371" y2="2.552" gradientTransform="matrix(1 0 0 -1 0 1597.89)" gradientUnits="userSpaceOnUse"></linearGradient><linearGradient xlink:href="#a" id="n" x1="-44.625" x2="1981.123" y1="1948.515" y2="-77.233" gradientTransform="matrix(1 0 0 -1 0 1597.89)" gradientUnits="userSpaceOnUse"></linearGradient><linearGradient xlink:href="#a" id="o" x1="-53.622" x2="1988.99" y1="1952.052" y2="-90.56" gradientTransform="matrix(1 0 0 -1 0 1597.89)" gradientUnits="userSpaceOnUse"></linearGradient><linearGradient xlink:href="#a" id="p" x1="-141.994" x2="1899.376" y1="1864.219" y2="-177.151" gradientTransform="matrix(1 0 0 -1 0 1597.89)" gradientUnits="userSpaceOnUse"></linearGradient><linearGradient xlink:href="#a" id="q" x1="-7.357" x2="2031.401" y1="1996.152" y2="-42.606" gradientTransform="matrix(1 0 0 -1 0 1597.89)" gradientUnits="userSpaceOnUse"></linearGradient><linearGradient xlink:href="#a" id="r" x1="-134.057" x2="1908.556" y1="1874.327" y2="-168.286" gradientTransform="matrix(1 0 0 -1 0 1597.89)" gradientUnits="userSpaceOnUse"></linearGradient><linearGradient xlink:href="#a" id="s" x1="98.331" x2="2137.671" y1="2097.729" y2="58.389" gradientTransform="matrix(1 0 0 -1 0 1597.89)" gradientUnits="userSpaceOnUse"></linearGradient><linearGradient xlink:href="#a" id="t" x1="82.368" x2="2123.457" y1="2084.122" y2="43.033" gradientTransform="matrix(1 0 0 -1 0 1597.89)" gradientUnits="userSpaceOnUse"></linearGradient><linearGradient xlink:href="#a" id="u" x1="42.181" x2="2083.27" y1="2045.229" y2="4.14" gradientTransform="matrix(1 0 0 -1 0 1597.89)" gradientUnits="userSpaceOnUse"></linearGradient><linearGradient xlink:href="#a" id="v" x1="-253.876" x2="1785.342" y1="1753.366" y2="-285.852" gradientTransform="matrix(1 0 0 -1 0 1597.89)" gradientUnits="userSpaceOnUse"></linearGradient><linearGradient xlink:href="#a" id="w" x1="-121.412" x2="1919.805" y1="1886.942" y2="-154.275" gradientTransform="matrix(1 0 0 -1 0 1597.89)" gradientUnits="userSpaceOnUse"></linearGradient><linearGradient xlink:href="#a" id="x" x1="-214.491" x2="1828.121" y1="1796.601" y2="-246.011" gradientTransform="matrix(1 0 0 -1 0 1597.89)" gradientUnits="userSpaceOnUse"></linearGradient><linearGradient xlink:href="#a" id="y" x1="-299.675" x2="1741.818" y1="1711.86" y2="-329.633" gradientTransform="matrix(1 0 0 -1 0 1597.89)" gradientUnits="userSpaceOnUse"></linearGradient><linearGradient xlink:href="#a" id="z" x1="-166.386" x2="1872.182" y1="1841.731" y2="-196.837" gradientTransform="matrix(1 0 0 -1 0 1597.89)" gradientUnits="userSpaceOnUse"></linearGradient><path fill="url(&quot;#b&quot;)" d="M1453.02 1284.07H146.98c-47.98 0-87.01-39.03-87.01-87.01v-866c0-47.98 39.03-87.01 87.01-87.01H374.4c11.6 0 21 9.4 21 21s-9.4 21-21 21H146.98c-24.82 0-45.01 20.19-45.01 45.01v866c0 24.82 20.19 45.01 45.01 45.01h1306.04c24.82 0 45.01-20.19 45.01-45.01v-866c0-24.82-20.19-45.01-45.01-45.01H1225.6c-11.6 0-21-9.4-21-21s9.4-21 21-21h227.42c47.98 0 87.01 39.03 87.01 87.01v866c0 47.98-39.03 87.01-87.01 87.01z" opacity="1" data-original="url(#b)" class=""></path><path fill="url(&quot;#c&quot;)" d="M1130.39 286.05h-89.35c-11.6 0-21-9.4-21-21s9.4-21 21-21h89.35c11.6 0 21 9.4 21 21s-9.41 21-21 21z" opacity="1" data-original="url(#c)" class=""></path><path fill="url(&quot;#d&quot;)" d="M1519.03 1063.77H80.97c-11.6 0-21-9.4-21-21s9.4-21 21-21h1438.05c11.6 0 21 9.4 21 21s-9.39 21-20.99 21z" opacity="1" data-original="url(#d)"></path><circle cx="800" cy="1152.92" r="31.89" fill="url(&quot;#e&quot;)" opacity="1" data-original="url(#e)"></circle><path fill="url(&quot;#f&quot;)" d="M694.01 1425.26c-11.6 0-21-9.4-21-21v-141.19c0-11.6 9.4-21 21-21s21 9.4 21 21v141.19c0 11.6-9.4 21-21 21z" opacity="1" data-original="url(#f)"></path><path fill="url(&quot;#g&quot;)" d="M905.99 1425.26c-11.6 0-21-9.4-21-21v-141.19c0-11.6 9.4-21 21-21s21 9.4 21 21v141.19c0 11.6-9.4 21-21 21z" opacity="1" data-original="url(#g)"></path><path fill="url(&quot;#h&quot;)" d="M1172.32 1565H427.68c-11.6 0-21-9.4-21-21 0-84.37 68.64-153.01 153.01-153.01h480.62c84.37 0 153.01 68.64 153.01 153.01 0 11.6-9.4 21-21 21zm-721.65-42h698.65c-9.84-51.21-54.98-90.01-109.02-90.01H559.69c-54.03 0-99.17 38.8-109.02 90.01z" opacity="1" data-original="url(#h)"></path><path fill="url(&quot;#i&quot;)" d="M1041.08 931.33H374.41c-11.6 0-21-9.4-21-21V56c0-11.6 9.4-21 21-21H915.5c5.8 0 11.34 2.4 15.31 6.63l125.54 133.73c3.66 3.89 5.69 9.03 5.69 14.37l.04 720.59c0 5.57-2.21 10.91-6.15 14.85s-9.28 6.16-14.85 6.16zm-645.67-42h624.67l-.04-691.28L906.41 77h-511z" opacity="1" data-original="url(#i)"></path><path fill="url(&quot;#j&quot;)" d="M1038.63 210.73H915.5c-11.6 0-21-9.4-21-21V59.01c0-11.6 9.4-21 21-21s21 9.4 21 21v109.72h102.13c11.6 0 21 9.4 21 21s-9.4 21-21 21z" opacity="1" data-original="url(#j)"></path><path fill="url(&quot;#k&quot;)" d="M1225.59 338.68h-95.21c-11.6 0-21-9.4-21-21s9.4-21 21-21h95.21c11.6 0 21 9.4 21 21s-9.4 21-21 21z" opacity="1" data-original="url(#k)"></path><path fill="url(&quot;#l&quot;)" d="M1225.59 703.27c-11.6 0-21-9.4-21-21V260.82c0-7.63-2.85-14.78-8.03-20.12-4.99-5.15-11.59-7.99-18.58-7.99-14.67 0-26.6 12.61-26.6 28.12v421.45c0 11.6-9.4 21-21 21s-21-9.4-21-21V260.82c0-38.66 30.78-70.12 68.6-70.12 18.46 0 35.78 7.38 48.75 20.78 12.8 13.22 19.85 30.74 19.85 49.34v421.45c.01 11.6-9.39 21-20.99 21z" opacity="1" data-original="url(#l)"></path><path fill="url(&quot;#m&quot;)" d="M1177.99 817.19c-8.47 0-16.11-5.09-19.38-12.9l-47.6-113.91c-2.71-6.48-2-13.89 1.9-19.74a20.984 20.984 0 0 1 17.48-9.36h95.21c7.03 0 13.58 3.51 17.48 9.36a21.013 21.013 0 0 1 1.9 19.74l-47.6 113.91a21.038 21.038 0 0 1-19.39 12.9zm-16.07-113.92 16.07 38.45 16.07-38.45z" opacity="1" data-original="url(#m)"></path><path fill="url(&quot;#n&quot;)" d="M628.5 349.12H475.35c-11.6 0-21-9.4-21-21V163.73c0-11.6 9.4-21 21-21H628.5c11.6 0 21 9.4 21 21v164.39c0 11.6-9.41 21-21 21zm-132.15-42H607.5V184.73H496.35z" opacity="1" data-original="url(#n)"></path><path fill="url(&quot;#o&quot;)" d="M940.13 428.2H475.35c-11.6 0-21-9.4-21-21s9.4-21 21-21h464.78c11.6 0 21 9.4 21 21s-9.4 21-21 21z" opacity="1" data-original="url(#o)"></path><path fill="url(&quot;#p&quot;)" d="M745.88 507.28H475.35c-11.6 0-21-9.4-21-21s9.4-21 21-21h270.53c11.6 0 21 9.4 21 21s-9.4 21-21 21z" opacity="1" data-original="url(#p)" class=""></path><path fill="url(&quot;#q&quot;)" d="M940.13 507.28H814.24c-11.6 0-21-9.4-21-21s9.4-21 21-21h125.89c11.6 0 21 9.4 21 21s-9.4 21-21 21z" opacity="1" data-original="url(#q)"></path><path fill="url(&quot;#r&quot;)" d="M940.13 586.36H475.35c-11.6 0-21-9.4-21-21s9.4-21 21-21h464.78c11.6 0 21 9.4 21 21s-9.4 21-21 21z" opacity="1" data-original="url(#r)"></path><path fill="url(&quot;#s&quot;)" d="M841.14 190.97H695.15c-11.6 0-21-9.4-21-21s9.4-21 21-21h145.98c11.6 0 21 9.4 21 21s-9.39 21-20.99 21z" opacity="1" data-original="url(#s)"></path><path fill="url(&quot;#t&quot;)" d="M940.13 270.04H695.15c-11.6 0-21-9.4-21-21s9.4-21 21-21h244.98c11.6 0 21 9.4 21 21s-9.4 21-21 21z" opacity="1" data-original="url(#t)"></path><path fill="url(&quot;#u&quot;)" d="M940.13 349.12H695.15c-11.6 0-21-9.4-21-21s9.4-21 21-21h244.98c11.6 0 21 9.4 21 21s-9.4 21-21 21z" opacity="1" data-original="url(#u)" class=""></path><path fill="url(&quot;#v&quot;)" d="M616.73 665.44H475.35c-11.6 0-21-9.4-21-21s9.4-21 21-21h141.38c11.6 0 21 9.4 21 21s-9.4 21-21 21z" opacity="1" data-original="url(#v)"></path><path fill="url(&quot;#w&quot;)" d="M940.13 665.44h-256.1c-11.6 0-21-9.4-21-21s9.4-21 21-21h256.1c11.6 0 21 9.4 21 21s-9.4 21-21 21z" opacity="1" data-original="url(#w)"></path><path fill="url(&quot;#x&quot;)" d="M940.13 744.52H475.35c-11.6 0-21-9.4-21-21s9.4-21 21-21h464.78c11.6 0 21 9.4 21 21s-9.4 21-21 21z" opacity="1" data-original="url(#x)"></path><path fill="url(&quot;#y&quot;)" d="M758.44 823.6H475.35c-11.6 0-21-9.4-21-21s9.4-21 21-21h283.09c11.6 0 21 9.4 21 21s-9.4 21-21 21z" opacity="1" data-original="url(#y)"></path><path fill="url(&quot;#z&quot;)" d="M940.13 823.6H819.98c-11.6 0-21-9.4-21-21s9.4-21 21-21h120.15c11.6 0 21 9.4 21 21s-9.4 21-21 21z" opacity="1" data-original="url(#z)"></path></g></svg>