<svg xmlns="http://www.w3.org/2000/svg" version="1.1" xmlns:xlink="http://www.w3.org/1999/xlink" width="512" height="512" x="0" y="0" viewBox="0 0 512 512" style="enable-background:new 0 0 512 512" xml:space="preserve"><defs><linearGradient id="a" x1="24.866" x2="487.133" y1="255.988" y2="255.988" gradientUnits="userSpaceOnUse"><stop offset="0" stop-color="#00c2f3"></stop><stop offset="1" stop-color="#4764af"></stop></linearGradient></defs><g><linearGradient id="a" x1="24.866" x2="487.133" y1="255.988" y2="255.988" gradientUnits="userSpaceOnUse"><stop offset="0" stop-color="#00c2f3"></stop><stop offset="1" stop-color="#4764af"></stop></linearGradient><path fill="url(&quot;#a&quot;)" fill-rule="evenodd" d="M256 110.1a66.837 66.837 0 1 1-66.86 66.87A66.9 66.9 0 0 1 256 110.1zm0 143.676a76.839 76.839 0 1 0-76.859-76.8A76.907 76.907 0 0 0 256 253.773zM238.791 406.88h34.419a3.965 3.965 0 0 1 0 7.93h-34.419a3.965 3.965 0 0 1 0-7.93zm0 17.933h34.419a13.968 13.968 0 0 0 0-27.936h-34.419a13.968 13.968 0 0 0 0 27.936zM34.869 390.019v14.217A27.451 27.451 0 0 0 62.3 431.671h387.4a27.454 27.454 0 0 0 27.433-27.435v-14.217zM62.3 108.525a27.451 27.451 0 0 0-27.431 27.435v244.056h442.264V135.96a27.454 27.454 0 0 0-27.433-27.435h-69.095a140.371 140.371 0 0 1 13.342 34.075l34.86 6.145a5.006 5.006 0 0 1 4.128 4.929v46.511a5.008 5.008 0 0 1-4.128 4.93l-34.86 6.144a141.444 141.444 0 0 1-16.125 38.941l20.289 29.007a5.038 5.038 0 0 1-.561 6.429L364.677 318.5a5.044 5.044 0 0 1-6.4.572l-29.027-20.289a140.134 140.134 0 0 1-38.906 16.076l-6.177 34.865a4.974 4.974 0 0 1-4.922 4.144h-46.49a4.974 4.974 0 0 1-4.923-4.144l-6.176-34.865a139.978 139.978 0 0 1-38.907-16.076l-29.025 20.291a5.039 5.039 0 0 1-6.4-.572l-32.876-32.865a5.038 5.038 0 0 1-.561-6.429l20.29-29.008a141.382 141.382 0 0 1-16.125-38.938l-34.861-6.144a5.008 5.008 0 0 1-4.127-4.93v-46.51a5.006 5.006 0 0 1 4.127-4.929l34.861-6.145a140.455 140.455 0 0 1 13.348-34.079zm89.13-63.086-26.945 26.935 19.773 28.292a4.928 4.928 0 0 1 .122 5.5 131.882 131.882 0 0 0-17.336 41.867 5 5 0 0 1-4.008 3.858l-33.972 6v38.08l33.972 6a5.09 5.09 0 0 1 4.008 3.858A131.726 131.726 0 0 0 144.38 247.7a4.928 4.928 0 0 1-.122 5.5l-19.773 28.293 26.945 26.934 28.288-19.719a4.916 4.916 0 0 1 5.546-.142 131.041 131.041 0 0 0 41.836 17.29 5.143 5.143 0 0 1 3.832 4.073l6.019 33.936h38.106l6.02-33.936a5.142 5.142 0 0 1 3.835-4.073 131.218 131.218 0 0 0 41.829-17.289 4.914 4.914 0 0 1 5.545.142l28.288 19.719 26.946-26.934-19.779-28.294a4.93 4.93 0 0 1-.122-5.5 131.863 131.863 0 0 0 17.336-41.867 5.09 5.09 0 0 1 4.008-3.858l33.973-6v-38.076l-33.973-6a4.991 4.991 0 0 1-4.008-3.858 131.745 131.745 0 0 0-17.336-41.867 4.93 4.93 0 0 1 .122-5.5l19.774-28.292-26.946-26.943-28.288 19.79a5.044 5.044 0 0 1-5.545.072 131.164 131.164 0 0 0-41.829-17.29 5.141 5.141 0 0 1-3.835-4.072L275.052 10h-38.106l-6.019 33.937a5.141 5.141 0 0 1-3.835 4.072A131.159 131.159 0 0 0 185.264 65.3a5.046 5.046 0 0 1-5.546-.072zm122.846 422.884h-36.551v-26.65h36.551zm45.829 21.862v11.788H191.9v-11.788a11.845 11.845 0 0 1 11.847-11.86h104.508a11.847 11.847 0 0 1 11.85 11.86zM62.3 441.673h165.425v26.65h-23.978a21.868 21.868 0 0 0-21.847 21.862v16.789a4.987 4.987 0 0 0 5 5h138.2a4.985 4.985 0 0 0 5-5v-16.789a21.868 21.868 0 0 0-21.849-21.862h-23.975v-26.65H449.7a37.474 37.474 0 0 0 37.433-37.437V135.96A37.474 37.474 0 0 0 449.7 98.523h-68.264l16.675-23.863a5.039 5.039 0 0 0-.561-6.43l-32.873-32.865a5.043 5.043 0 0 0-6.4-.571l-29.027 20.29a140.161 140.161 0 0 0-38.906-16.075l-6.177-34.865A4.974 4.974 0 0 0 279.245 0h-46.49a4.974 4.974 0 0 0-4.923 4.144l-6.176 34.865a140.192 140.192 0 0 0-38.907 16.075l-29.025-20.29a5.039 5.039 0 0 0-6.4.571L114.449 68.23a5.039 5.039 0 0 0-.561 6.43l16.675 23.863H62.3a37.475 37.475 0 0 0-37.434 37.437v268.276A37.475 37.475 0 0 0 62.3 441.673z" opacity="1" data-original="url(#a)"></path></g></svg>