<svg xmlns="http://www.w3.org/2000/svg" version="1.1" xmlns:xlink="http://www.w3.org/1999/xlink" width="512" height="512" x="0" y="0" viewBox="0 0 450 450" style="enable-background:new 0 0 512 512" xml:space="preserve"><defs><linearGradient id="a" x1="31.975" x2="403.581" y1="433.775" y2="62.169" gradientTransform="matrix(1 0 0 -1 0 450)" gradientUnits="userSpaceOnUse"><stop offset="0" stop-color="#00dbde"></stop><stop offset="1" stop-color="#fc00ff"></stop></linearGradient></defs><g><linearGradient id="a" x1="31.975" x2="403.581" y1="433.775" y2="62.169" gradientTransform="matrix(1 0 0 -1 0 450)" gradientUnits="userSpaceOnUse"><stop offset="0" stop-color="#00dbde"></stop><stop offset="1" stop-color="#fc00ff"></stop></linearGradient><path fill="url(&quot;#a&quot;)" d="M412.4 50.4h-43.8L371 40c.3-1.5 0-3-1-4.2s-2.4-1.9-3.9-1.9H87.6L79.3 8.4c-.7-2-2.6-3.4-4.8-3.4H45.3c-2.8 0-5 2.2-5 5s2.2 5 5 5h25.5L79 40l1.4 10.4H37.6c-14.6 0-26.4 11.8-26.4 26.4v264.9c0 14.6 11.8 26.4 26.4 26.4h146.1l-16.3 36.5h-17.5c-2.8 0-5 2.2-5 5V440c0 2.8 2.2 5 5 5h150.2c2.8 0 5-2.2 5-5v-30.4c0-2.8-2.2-5-5-5h-17.5l-16.3-36.5h146.1c14.6 0 26.4-11.9 26.4-26.4V76.8c0-14.6-11.8-26.4-26.4-26.4zm-166.8 144 1.8-22.1h36.7l-3.4 22.1zm-45.2 0 .2-22.1h36.8l-1.8 22.1zm-45.2 0-1.4-22.1h36.8l-.2 22.1zm-31.3 35.2c2.9 2.9 6.7 4.5 10.7 4.5h190.2v8.7H134.7c-6.4 0-12.3-2.5-16.9-7-4.5-4.5-7-10.5-7-16.9v-14.5h8.7v14.5c-.1 4.1 1.5 7.9 4.4 10.7zm166.6 40.7c6 0 11 4.9 11 11s-4.9 11-11 11-11-4.9-11-11 4.9-11 11-11zm5.2-9.4c-1.7-.4-3.4-.7-5.2-.7s-3.5.3-5.2.7v-8.1h10.4zm-121.8 9.4c6.1 0 11 4.9 11 11s-4.9 11-11 11-11-4.9-11-11 4.9-11 11-11zm5.2-9.4c-1.7-.4-3.4-.7-5.2-.7s-3.5.3-5.2.7v-8.1h10.4zm63.5-152.8-1.8 22.1H201l.2-22.1zm-41.4-10 .2-22.1h43.7l-1.8 22.1zm-98.5 42.1h39l1.4 22.1h-37.4zm49.1 0h39.1l-.2 22.1h-37.5zm49.1 0H240l-1.8 22.1h-37.5zm49.1 0h39l-3.4 22.1h-37.4zm.8-10 1.8-22.1h41.3l-3.4 22.1zm-59.8 0h-39.8l-1.4-22.1h41.4zm-49.9 0h-39.8l-3-22.1h41.4zm-31 64.2-3-22.1h36.7l1.4 22.1zm184.1-22.1h36.6l-5 22.1h-35zm38.8-10h-37.3l3.4-22.1H338zm7.3-32.1h-39.6l3.4-22.1h41.2zm7.2-32.1h-42L309 76h43.6zm-52 0h-42.1l1.8-22.1h43.7zM256 66l1.8-22.1h46L300.4 66zm-10 0h-44.5l.2-22.1h46.1zm-54.5 0h-44.4l-1.4-22.1h46zm-.1 10-.2 22.1h-42.1L147.7 76zm-52.3 22.1H97L94 76h43.7zm-38.4 101.7v19.1c0 9 3.5 17.5 9.9 23.9s14.9 9.9 23.9 9.9h24.1v14c-3.6 3.8-5.8 8.8-5.8 14.4 0 11.6 9.4 21 21 21s21-9.4 21-21c0-5.6-2.2-10.7-5.8-14.4v-14h86.1v14c-3.6 3.8-5.8 8.8-5.8 14.4 0 11.6 9.4 21 21 21s21-9.4 21-21c0-5.6-2.2-10.6-5.8-14.4v-14h24.1c2.8 0 5-2.2 5-5V229c0-2.8-2.2-5-5-5h-195c-1.3 0-2.6-.5-3.6-1.5s-1.5-2.3-1.5-3.6v-14.5h200.4c2.3 0 4.4-1.6 4.9-3.9L360 89.2h40v240.2H50V89.2h35.7zM354.8 66h-44.3l3.4-22.1h45.9zM135.7 43.8l1.4 22.1H92.7l-3-22.1zm139.1 367.9c.8 1.8 2.6 3 4.6 3h15.7V435H154.9v-20.4h15.7c2 0 3.8-1.2 4.6-3l19.5-43.6h60.7zm154-70c0 9.1-7.4 16.4-16.4 16.4H37.6c-9 0-16.4-7.4-16.4-16.4V76.8c0-9.1 7.4-16.4 16.4-16.4h44.2l2.5 18.8H45c-2.8 0-5 2.2-5 5v250.2c0 2.8 2.2 5 5 5h360c2.8 0 5-2.2 5-5V84.2c0-2.8-2.2-5-5-5h-42.9l4.2-18.8h46c9.1 0 16.4 7.4 16.4 16.4zM225 419.9c10.1 0 18.3-8.2 18.3-18.3s-8.2-18.3-18.3-18.3-18.3 8.2-18.3 18.3 8.2 18.3 18.3 18.3zm0-26.6c4.6 0 8.3 3.7 8.3 8.3s-3.7 8.3-8.3 8.3-8.3-3.7-8.3-8.3 3.7-8.3 8.3-8.3z" opacity="1" data-original="url(#a)"></path></g></svg>