<?xml version="1.0" encoding="utf-8"?>
<!-- Generator: Adobe Illustrator 24.2.1, SVG Export Plug-In . SVG Version: 6.00 Build 0)  -->
<svg version="1.1" id="Layer_1" xmlns="http://www.w3.org/2000/svg" xmlns:xlink="http://www.w3.org/1999/xlink" x="0px" y="0px"
	 viewBox="0 0 39.6 39.6" style="enable-background:new 0 0 39.6 39.6;" xml:space="preserve">
<style type="text/css">
	.st0{fill-rule:evenodd;clip-rule:evenodd;fill:#FF2D20;}
</style>
<path class="st0" d="M38.8,9c0,0.1,0,0.1,0,0.2v8.4c0,0.2-0.1,0.4-0.3,0.5l-7.1,4.1v8.1c0,0.2-0.1,0.4-0.3,0.5l-14.8,8.5
	c0,0-0.1,0-0.1,0c0,0,0,0,0,0c-0.1,0-0.2,0-0.3,0c0,0,0,0,0,0c0,0-0.1,0-0.1,0L1,30.8c-0.2-0.1-0.3-0.3-0.3-0.5V5c0-0.1,0-0.1,0-0.2
	c0,0,0,0,0-0.1c0,0,0-0.1,0-0.1c0,0,0,0,0-0.1c0,0,0,0,0.1-0.1c0,0,0,0,0.1,0c0,0,0,0,0.1-0.1h0l7.4-4.2c0.2-0.1,0.4-0.1,0.6,0
	l7.4,4.2h0c0,0,0,0,0.1,0.1c0,0,0,0,0.1,0c0,0,0,0,0.1,0.1c0,0,0,0,0,0.1c0,0,0,0.1,0,0.1c0,0,0,0,0,0.1c0,0.1,0,0.1,0,0.2v15.8
	l6.1-3.5V9.2c0-0.1,0-0.1,0-0.2c0,0,0,0,0-0.1c0,0,0-0.1,0-0.1c0,0,0,0,0-0.1c0,0,0,0,0.1-0.1c0,0,0,0,0.1,0c0,0,0,0,0.1-0.1h0
	l7.4-4.2c0.2-0.1,0.4-0.1,0.6,0l7.4,4.2c0,0,0,0,0.1,0.1c0,0,0,0,0.1,0c0,0,0,0,0.1,0.1c0,0,0,0,0,0.1C38.8,8.9,38.8,9,38.8,9
	C38.8,9,38.8,9,38.8,9z M37.6,17.3v-7L35,11.8l-3.6,2.1v7L37.6,17.3L37.6,17.3z M30.2,29.9v-7l-3.5,2l-10,5.7v7.1
	C16.7,37.7,30.2,29.9,30.2,29.9z M2,6.1v23.8l13.5,7.8v-7.1l-7.1-4l0,0l0,0c0,0,0,0-0.1-0.1c0,0,0,0-0.1,0l0,0c0,0,0,0-0.1-0.1
	c0,0,0,0,0-0.1l0,0c0,0,0-0.1,0-0.1c0,0,0,0,0-0.1v0c0,0,0-0.1,0-0.1c0,0,0,0,0-0.1v0V9.6L4.5,7.6L2,6.1L2,6.1z M8.7,1.5L2.6,5
	l6.1,3.5L14.9,5L8.7,1.5L8.7,1.5z M11.9,23.6l3.6-2.1V6.1l-2.6,1.5L9.3,9.6v15.4C9.3,25.1,11.9,23.6,11.9,23.6z M30.9,5.7l-6.1,3.5
	l6.1,3.5L37,9.2C37,9.2,30.9,5.7,30.9,5.7z M30.2,13.8l-3.6-2.1l-2.6-1.5v7l3.6,2.1l2.6,1.5C30.2,20.8,30.2,13.8,30.2,13.8z
	 M16.1,29.6l9-5.1l4.5-2.6l-6.1-3.5l-7.1,4.1L10,26.1C10,26.1,16.1,29.6,16.1,29.6z"/>
</svg>
