<?xml version="1.0" encoding="utf-8"?>
<!-- Generator: Adobe Illustrator 24.2.1, SVG Export Plug-In . SVG Version: 6.00 Build 0)  -->
<svg version="1.1" id="nopcommerce_full_logo" xmlns="http://www.w3.org/2000/svg" xmlns:xlink="http://www.w3.org/1999/xlink"
	 x="0px" y="0px" viewBox="0 0 680.2 500" style="enable-background:new 0 0 680.2 500;" xml:space="preserve">
<style type="text/css">
	.st0{fill:#40BDD7;}
</style>
<path class="st0" d="M590.9,498c-43-0.2-77.3-33.7-77.3-75.7c0-46,40.1-85.2,87.3-85.4c41.6-0.1,79.3,36.2,79.4,76.4
	C680.3,459,639,498.2,590.9,498z"/>
<path class="st0" d="M307,433.9c0.6-45.3,39-84.7,82.5-84.7c28.8,0,53.6,19.4,60.4,47.4c11.9,48.8-29,101.9-79.4,102.9
	C334.8,500.2,306.5,471,307,433.9z"/>
<path class="st0" d="M672.3,241.1c9.8-27.6,0.2-53.8-24.3-70.2c-30.8-20.6-79.3-11.8-104.9,19c-12,14.5-19.7,30.8-17.7,49.9
	c3.8,35.9,32.7,58.1,71.4,55.6C635.2,290.8,662.2,269.6,672.3,241.1z"/>
<path class="st0" d="M390.1,309.5c-37.6,0-61.6-30-53.6-66.9c7.6-35.1,42.1-63.3,77.7-63.7c37.8-0.4,63,30.4,54.9,67.3
	C461.3,281.5,426.5,309.5,390.1,309.5z"/>
<path class="st0" d="M146.9,437.6c3.1-29.6,19.6-56.6,52.9-71c39.6-17.2,77.9,11,74.3,54c-2.8,33.1-19.5,57.8-49.1,72.5
	C185.1,513,146.1,487.8,146.9,437.6z"/>
<path class="st0" d="M623.8,0.1c7.2-0.7,18.4,2.1,28.8,8.5c23.6,14.6,30.5,40.5,17.6,66.1c-15.7,31.2-57.5,50.4-91.7,42.2
	c-37.8-9.2-53.2-46.2-31.7-78.5C563.7,12.9,588.1,0.3,623.8,0.1z"/>
<path class="st0" d="M0,439.1c1.1-21.1,17.1-46.3,46.7-62c33.8-17.9,69.1,4.2,66.8,41.8c-2,32.3-17.7,57.5-46.6,73
	C32.1,510.7,0,491,0,439.1z"/>
<path class="st0" d="M407.9,142.9c-33.8-0.1-54.8-27.7-45.4-59.8c10.1-34.7,53.6-61.3,87.4-53.4c27.7,6.5,41.8,30.5,33.8,57.9
	C474.7,118.2,440.9,142.9,407.9,142.9z"/>
<path class="st0" d="M257.5,202.2c28.5,0.1,47.9,24.6,42.9,54.1c-5.3,30.9-33,57.9-64.1,62.6c-28.2,4.2-51.3-15.2-51.6-43.5
	C184.4,238.6,220.7,202.1,257.5,202.2z"/>
<path class="st0" d="M213.3,125.6c1.2-39.5,48.3-77.3,85.7-68.8c17.6,4,30,18,31.6,35.6c3.6,39.5-46.2,82.7-85.2,74
	C225.1,162,212.6,146,213.3,125.6z"/>
<path class="st0" d="M84,331.7c-22.4-0.1-38.1-16.9-37.8-40.5c0.4-34.2,30.1-68.5,64-73.9c24.1-3.8,43.4,11.2,45.9,35.6
	C159.7,289.9,121.4,331.9,84,331.7z"/>
<path class="st0" d="M86.6,148.6C87,118,119,85.1,150.2,83.3c24.1-1.4,40,16.3,36.4,40.5c-4.1,27.9-33.5,56.1-61.7,59
	C102.4,185.1,86.3,170.8,86.6,148.6z"/>
<path class="st0" d="M590.9,498c-43-0.2-77.3-33.7-77.3-75.7c0-46,40.1-85.2,87.3-85.4c41.6-0.1,79.3,36.2,79.4,76.4
	C680.3,459,639,498.2,590.9,498z"/>
<path class="st0" d="M307,433.9c0.6-45.3,39-84.7,82.5-84.7c28.8,0,53.6,19.4,60.4,47.4c11.9,48.8-29,101.9-79.4,102.9
	C334.8,500.2,306.5,471,307,433.9z"/>
<path class="st0" d="M672.3,241.1c9.8-27.6,0.2-53.8-24.3-70.2c-30.8-20.6-79.3-11.8-104.9,19c-12,14.5-19.7,30.8-17.7,49.9
	c3.8,35.9,32.7,58.1,71.4,55.6C635.2,290.8,662.2,269.6,672.3,241.1z"/>
<path class="st0" d="M390.1,309.5c-37.6,0-61.6-30-53.6-66.9c7.6-35.1,42.1-63.3,77.7-63.7c37.8-0.4,63,30.4,54.9,67.3
	C461.3,281.5,426.5,309.5,390.1,309.5z"/>
<path class="st0" d="M146.9,437.6c3.1-29.6,19.6-56.6,52.9-71c39.6-17.2,77.9,11,74.3,54c-2.8,33.1-19.5,57.8-49.1,72.5
	C185.1,513,146.1,487.8,146.9,437.6z"/>
<path class="st0" d="M623.8,0.1c7.2-0.7,18.4,2.1,28.8,8.5c23.6,14.6,30.5,40.5,17.6,66.1c-15.7,31.2-57.5,50.4-91.7,42.2
	c-37.8-9.2-53.2-46.2-31.7-78.5C563.7,12.9,588.1,0.3,623.8,0.1z"/>
<path class="st0" d="M0,439.1c1.1-21.1,17.1-46.3,46.7-62c33.8-17.9,69.1,4.2,66.8,41.8c-2,32.3-17.7,57.5-46.6,73
	C32.1,510.7,0,491,0,439.1z"/>
<path class="st0" d="M407.9,142.9c-33.8-0.1-54.8-27.7-45.4-59.8c10.1-34.7,53.6-61.3,87.4-53.4c27.7,6.5,41.8,30.5,33.8,57.9
	C474.7,118.2,440.9,142.9,407.9,142.9z"/>
<path class="st0" d="M257.5,202.2c28.5,0.1,47.9,24.6,42.9,54.1c-5.3,30.9-33,57.9-64.1,62.6c-28.2,4.2-51.3-15.2-51.6-43.5
	C184.4,238.6,220.7,202.1,257.5,202.2z"/>
<path class="st0" d="M213.3,125.6c1.2-39.5,48.3-77.3,85.7-68.8c17.6,4,30,18,31.6,35.6c3.6,39.5-46.2,82.7-85.2,74
	C225.1,162,212.6,146,213.3,125.6z"/>
<path class="st0" d="M84,331.7c-22.4-0.1-38.1-16.9-37.8-40.5c0.4-34.2,30.1-68.5,64-73.9c24.1-3.8,43.4,11.2,45.9,35.6
	C159.7,289.9,121.4,331.9,84,331.7z"/>
<path class="st0" d="M86.6,148.6C87,118,119,85.1,150.2,83.3c24.1-1.4,40,16.3,36.4,40.5c-4.1,27.9-33.5,56.1-61.7,59
	C102.4,185.1,86.3,170.8,86.6,148.6z"/>
</svg>
