<svg xmlns="http://www.w3.org/2000/svg" version="1.1" xmlns:xlink="http://www.w3.org/1999/xlink" width="512" height="512" x="0" y="0" viewBox="0 0 512 512" style="enable-background:new 0 0 512 512" xml:space="preserve" fill-rule="evenodd"><defs><linearGradient xlink:href="#a" id="b" x1="85.21" x2="426.79" y1="256" y2="256" gradientUnits="userSpaceOnUse"></linearGradient><linearGradient xlink:href="#a" id="c" x1="85.2" x2="426.8" y1="256" y2="256" gradientUnits="userSpaceOnUse"></linearGradient><linearGradient id="a" x1="85.21" x2="426.79" y1="256" y2="256" gradientUnits="userSpaceOnUse"><stop offset="0" stop-color="#f071ab"></stop><stop offset="1" stop-color="#22abe2"></stop></linearGradient><linearGradient xlink:href="#a" id="b" x1="85.21" x2="426.79" y1="256" y2="256" gradientUnits="userSpaceOnUse"></linearGradient><linearGradient xlink:href="#a" id="b" x1="85.21" x2="426.79" y1="256" y2="256" gradientUnits="userSpaceOnUse"></linearGradient><linearGradient xlink:href="#a" id="b" x1="85.21" x2="426.79" y1="256" y2="256" gradientUnits="userSpaceOnUse"></linearGradient></defs><g><linearGradient id="a" x1="85.21" x2="426.79" y1="256" y2="256" gradientUnits="userSpaceOnUse"><stop offset="0" stop-color="#f071ab"></stop><stop offset="1" stop-color="#22abe2"></stop></linearGradient><linearGradient xlink:href="#a" id="b" x1="85.21" x2="426.79" y1="256" y2="256" gradientUnits="userSpaceOnUse"></linearGradient><linearGradient xlink:href="#a" id="c" x1="85.2" x2="426.8" y1="256" y2="256" gradientUnits="userSpaceOnUse"></linearGradient><path fill="url(&quot;#b&quot;)" d="M452.17 399.36H59.83c-26.23 0-47.57-21.34-47.57-47.56V47.56C12.26 21.34 33.6 0 59.83 0h392.34c26.23 0 47.56 21.34 47.56 47.56V351.8c0 26.22-21.33 47.56-47.56 47.56zM24.26 342.3v9.5c0 19.61 15.96 35.56 35.57 35.56h392.34c19.61 0 35.56-15.95 35.56-35.56v-9.5H24.26zm0-12h463.47V47.56c0-19.6-15.95-35.56-35.56-35.56H59.83c-19.61 0-35.57 15.96-35.57 35.56V330.3z" opacity="1" data-original="url(#b)"></path><path fill="url(&quot;#c&quot;)" d="M290.43 456.72h-68.86c-3.32 0-6-2.69-6-6v-57.36c0-3.31 2.68-6 6-6h68.86c3.31 0 6 2.69 6 6v57.36c0 3.31-2.69 6-6 6zm-62.86-12h56.86v-45.36h-56.86z" opacity="1" data-original="url(#c)"></path><path fill="url(&quot;#a&quot;)" d="M342.87 512H169.13c-3.32 0-6-2.69-6-6v-27.64c0-18.55 15.09-33.64 33.64-33.64h118.46c18.55 0 33.64 15.09 33.64 33.64V506c0 3.31-2.69 6-6 6zm-167.74-12h161.74v-21.64c0-11.94-9.71-21.64-21.64-21.64H196.77c-11.94 0-21.64 9.7-21.64 21.64z" opacity="1" data-original="url(#a)"></path><path fill="url(&quot;#b&quot;)" d="M313.81 371.36H198.19c-3.32 0-6-2.69-6-6s2.68-6 6-6h115.62c3.31 0 6 2.69 6 6s-2.69 6-6 6zM263.63 257.48c-1.22 0-2.46-.38-3.53-1.15l-70.35-51.25c-1.55-1.13-2.47-2.93-2.47-4.85s.92-3.72 2.47-4.85l70.35-51.24a6.009 6.009 0 0 1 8.39 1.32c1.95 2.67 1.36 6.43-1.32 8.38l-63.7 46.39 63.7 46.4a5.997 5.997 0 0 1 1.32 8.38 6.022 6.022 0 0 1-4.86 2.47zM348.58 257.48c-1.86 0-3.68-.86-4.86-2.47a6.01 6.01 0 0 1 1.32-8.39l63.69-46.39-63.69-46.39a6.009 6.009 0 0 1-1.32-8.39c1.95-2.67 5.71-3.26 8.39-1.31l70.35 51.24c1.55 1.13 2.47 2.93 2.47 4.85s-.92 3.72-2.47 4.85l-70.35 51.24a5.987 5.987 0 0 1-3.53 1.16zM289.66 261.58c-.51 0-1.03-.06-1.55-.2-3.2-.86-5.11-4.15-4.25-7.35l32.85-122.57c.86-3.2 4.16-5.1 7.35-4.24 3.2.85 5.1 4.14 4.24 7.34l-32.85 122.58c-.71 2.67-3.14 4.44-5.79 4.44zM159.25 276.12c-.15 0-.3-.01-.46-.02l-22.42-1.7c-1.73-.13-3.31-1-4.35-2.38a6.084 6.084 0 0 1-1.15-2.86l-3.75-29.97a70.28 70.28 0 0 1-7.47-3.73l-25.56 15.72c-2.52 1.54-5.78 1.04-7.7-1.2l-15.37-17.9a5.998 5.998 0 0 1-.19-7.59l18.55-23.84a68.144 68.144 0 0 1-2.65-7.92l-29.19-6.96a5.997 5.997 0 0 1-4.59-6.29l1.78-23.53a6 6 0 0 1 5.24-5.5l29.97-3.74c1.09-2.56 2.34-5.06 3.73-7.48l-15.72-25.56a6.007 6.007 0 0 1 1.2-7.69l17.9-15.38a6.012 6.012 0 0 1 7.6-.19l23.84 18.55c2.58-1.04 5.23-1.92 7.92-2.65l6.96-29.19a5.99 5.99 0 0 1 6.29-4.59l9.98.76a6 6 0 0 1 5.53 6.43 5.99 5.99 0 0 1-6.44 5.53l-4.88-.37-6.62 27.79c-.54 2.26-2.33 4-4.6 4.48-4.3.91-8.5 2.31-12.49 4.17a5.99 5.99 0 0 1-6.21-.7l-22.78-17.72-10.29 8.84 14.96 24.34a6.005 6.005 0 0 1-.08 6.42 57.65 57.65 0 0 0-5.89 11.78 6.009 6.009 0 0 1-4.9 3.89l-28.62 3.58-1.03 13.54 27.79 6.62c2.25.54 4 2.33 4.48 4.6.9 4.28 2.31 8.48 4.17 12.49.95 2.04.67 4.43-.71 6.21l-17.71 22.77 8.84 10.3 24.34-14.97a6.005 6.005 0 0 1 6.42.09c3.69 2.4 7.65 4.38 11.78 5.89 1.8.66 3.18 2.14 3.71 3.99.08.29.15.6.19.91l3.57 28.62 17.53 1.33c3.31.25 5.78 3.13 5.53 6.43a6.006 6.006 0 0 1-5.98 5.55z" opacity="1" data-original="url(#b)"></path><path fill="url(&quot;#b&quot;)" d="M154.71 216.75c-10.32 0-20.17-3.71-27.98-10.6-8.49-7.49-13.56-17.84-14.27-29.14-.7-11.3 3.03-22.2 10.52-30.7 7.49-8.49 17.84-13.56 29.14-14.26 2.58-.16 5.18-.09 7.74.21 3.29.39 5.63 3.38 5.24 6.67s-3.37 5.64-6.67 5.25c-1.83-.22-3.7-.28-5.56-.16-8.1.51-15.52 4.14-20.89 10.23s-8.05 13.91-7.54 22.01c.5 8.1 4.14 15.52 10.23 20.89s13.9 8.05 22 7.54c.6-.04 1.18-.09 1.76-.16a6.01 6.01 0 0 1 6.67 5.25 6.01 6.01 0 0 1-5.25 6.67c-.82.09-1.64.17-2.43.22-.9.06-1.81.08-2.71.08z" opacity="1" data-original="url(#b)"></path><path fill="url(&quot;#b&quot;)" d="M433.86 293.35H178.35c-13.9 0-25.21-11.31-25.21-25.21V80.57c0-13.9 11.31-25.2 25.21-25.2h106.34c1.63 0 3.19.66 4.32 1.84l36.64 38.05 108.24.55c13.88.06 25.18 11.37 25.18 25.2v147.13c-.01 13.9-11.31 25.21-25.21 25.21zM178.35 67.37c-7.28 0-13.21 5.92-13.21 13.2v187.57c0 7.28 5.93 13.2 13.21 13.2h255.51c7.16 0 13.2-6.04 13.2-13.2V121.01c0-7.25-5.93-13.17-13.23-13.21l-110.77-.55a6.027 6.027 0 0 1-4.29-1.84l-36.63-38.04z" opacity="1" data-original="url(#b)"></path></g></svg>