<svg xmlns="http://www.w3.org/2000/svg" version="1.1" xmlns:xlink="http://www.w3.org/1999/xlink" width="512" height="512" x="0" y="0" viewBox="0 0 450 450" style="enable-background:new 0 0 512 512" xml:space="preserve" class=""><defs><linearGradient id="a" x1="47.363" x2="402.64" y1="437.293" y2="82.017" gradientTransform="matrix(1 0 0 -1 0 450)" gradientUnits="userSpaceOnUse"><stop offset="0" stop-color="#00dbde"></stop><stop offset="1" stop-color="#fc00ff"></stop></linearGradient></defs><g><linearGradient id="a" x1="47.363" x2="402.64" y1="437.293" y2="82.017" gradientTransform="matrix(1 0 0 -1 0 450)" gradientUnits="userSpaceOnUse"><stop offset="0" stop-color="#00dbde"></stop><stop offset="1" stop-color="#fc00ff"></stop></linearGradient><path fill="url(&quot;#a&quot;)" d="M412.71 36.13H37.29C19.49 36.13 5 50.62 5 68.42v243.85c0 17.8 14.49 32.29 32.29 32.29h128.98v59.32h-42.31c-2.76 0-5 2.24-5 5s2.24 5 5 5h202.08c2.76 0 5-2.24 5-5s-2.24-5-5-5h-42.31v-59.32h128.98c17.8 0 32.29-14.48 32.29-32.29V68.42c0-17.8-14.48-32.29-32.29-32.29zm-375.42 10h375.42c12.29 0 22.29 10 22.29 22.29v212.37H15V68.42c0-12.29 10-22.29 22.29-22.29zm236.44 357.74h-97.46v-59.32h97.46zm138.98-69.32H37.29c-12.29 0-22.29-10-22.29-22.29v-21.48h420v21.48c0 12.29-10 22.29-22.29 22.29zM47.2 163.46c0-1.55.72-3.01 1.95-3.96l37.95-29.27a4.997 4.997 0 1 1 6.11 7.91l-32.82 25.31 32.82 25.31a4.99 4.99 0 0 1 .9 7.01 4.998 4.998 0 0 1-7.01.91l-37.95-29.27a4.969 4.969 0 0 1-1.95-3.95zm112.67-32.33a4.99 4.99 0 0 1 7.01-.9l37.95 29.27c1.23.95 1.95 2.41 1.95 3.96s-.72 3.01-1.95 3.96l-37.95 29.27a4.98 4.98 0 0 1-3.05 1.04c-1.5 0-2.98-.67-3.96-1.95a4.997 4.997 0 0 1 .9-7.01l32.82-25.31-32.82-25.31a5.01 5.01 0 0 1-.9-7.02zm-51.53 82.61 27.64-103.15c.72-2.67 3.45-4.25 6.12-3.54s4.25 3.46 3.54 6.12L118 216.33a5.012 5.012 0 0 1-4.83 3.71c-.43 0-.86-.06-1.3-.17a5.014 5.014 0 0 1-3.53-6.13zm206.45-101.86c0-2.76 2.24-5 5-5h78.01c2.76 0 5 2.24 5 5s-2.24 5-5 5h-78.01c-2.76 0-5-2.24-5-5zm0 34.39c0-2.76 2.24-5 5-5h78.01c2.76 0 5 2.24 5 5s-2.24 5-5 5h-78.01c-2.76 0-5-2.24-5-5zm-78 34.38c0-2.76 2.24-5 5-5H397.8c2.76 0 5 2.24 5 5s-2.24 5-5 5H241.79c-2.77 0-5-2.24-5-5zm0 34.39c0-2.76 2.24-5 5-5H397.8c2.76 0 5 2.24 5 5s-2.24 5-5 5H241.79c-2.77 0-5-2.24-5-5zm5-63.77h39c2.76 0 5-2.24 5-5v-34.39c0-2.76-2.24-5-5-5h-39c-2.76 0-5 2.24-5 5v34.39c0 2.76 2.23 5 5 5zm5-34.39h29v24.39h-29z" opacity="1" data-original="url(#a)" class=""></path></g></svg>