<svg xmlns="http://www.w3.org/2000/svg" version="1.1" xmlns:xlink="http://www.w3.org/1999/xlink" width="512" height="512" x="0" y="0" viewBox="0 0 512 512" style="enable-background:new 0 0 512 512" xml:space="preserve"><g><path fill="#0CA3D1" fill-rule="evenodd" d="m198.627 398.169-83.444-250.333c8.616-.453 17.232-1.359 25.396-2.266 8.616-1.359 9.522-7.71 9.069-10.881-.453-2.726-3.172-8.616-10.429-7.71-22.216 1.813-42.175 2.719-60.767 2.719h-7.257c40.363-58.955 107.934-97.95 185.035-97.95 55.775 0 106.567 20.404 146.016 54.416-12.248 2.265-24.935 10.882-28.575 23.13-10.873 35.372 10.437 58.502 20.42 73.914 10.874 17.232 14.968 35.832 16.779 55.33 2.266 27.208-9.077 61.673-16.326 87.983l-23.591 70.289-82.991-248.974c8.624-.453 17.232-1.359 25.403-2.266 9.062-1.359 9.515-7.71 9.062-10.881 0-2.726-2.719-8.163-10.421-7.71-22.231 2.266-41.729 2.719-60.321 2.719s-38.543-.453-60.768-2.719c-7.257-.453-9.975 4.984-10.428 7.71 0 3.171.453 9.522 9.069 10.881 7.71.906 15.874 1.813 23.583 2.266l36.277 98.864zM480.254 256.23c0 80.257-42.637 151-106.583 190.464l52.167-148.749c10.421-28.122 22.216-56.689 29.012-86.163 3.625-16.326 5.453-32.652 5-49.432 13.139 28.567 20.404 60.314 20.404 93.88zM256.23 480.254c-22.231 0-43.089-3.172-63.04-9.077l65.759-197.261 71.195 193.636c-23.59 8.155-48.073 12.702-73.914 12.702zM152.375 454.85C80.718 417.214 31.747 342.394 31.747 256.23c0-30.395 5.89-58.962 16.771-85.264zM256.23 0C114.73 0 0 114.73 0 256.23 0 397.263 114.73 512 256.23 512 397.263 512 512 397.263 512 256.23 512 114.73 397.263 0 256.23 0z" clip-rule="evenodd" opacity="1" data-original="#0ca3d1"></path></g></svg>