<svg xmlns="http://www.w3.org/2000/svg" viewBox="0 0 500 500"><defs><style>.cls-1{fill:#fff;}.cls-2{fill:#f1f1f1;}.cls-3{fill:#3db54a;}.cls-4{fill:#29b233;}.cls-5{fill:#4c5f7b;}.cls-6{fill:#1c1c1b;}</style></defs><g id="BACKGROUND"><rect class="cls-1" width="500" height="500"/><path class="cls-2" d="M340.53,171.75a42,42,0,0,1-45.47-31.58,17.45,17.45,0,0,1-.45-8,8.18,8.18,0,0,1,4.89-6c3.32-1.16,7,.62,9.55,3s4.42,5.5,7.06,7.82c4.33,3.81,10.22,5.21,15.89,6.29s11.55,2.06,16.33,5.29,8.1,9.45,6.05,14.84S346.17,171.11,340.53,171.75Z"/><path class="cls-2" d="M356.75,181.34c-1.92,3.19-3.87,6.6-3.89,10.32s2.67,7.73,6.4,7.76c4.27,0,6.84-4.6,8.39-8.58,1.15-2.93,2.28-6.08,1.63-9.16S359.72,180.3,356.75,181.34Z"/><path class="cls-2" d="M362.22,68.05c2.29-3.25,2.52-7.64,1.32-11.43a25.87,25.87,0,0,0-6.42-9.92A51.34,51.34,0,0,0,336,33.51c-6.61-2.13-14.09-2.81-20.3.29S305.29,44.68,308,51.07c2.09,4.92,7.29,7.63,12.11,9.94l15.37,7.38c4.39,2.11,8.9,4.25,13.75,4.72S359.42,72,362.22,68.05Z"/><path class="cls-2" d="M241.25,122.93c8.45-1,17.78,2.34,25.13-2,3-1.77,5.37-5.91,3.27-8.72s-6.39-1.86-9.86-1.31a25.69,25.69,0,0,1-15.42-2.43c-5.71-2.89-11-8.08-17.34-7.32-5.87.71-10.12,7.21-9,13s6.9,10.13,12.81,10.25C234.37,124.54,237.77,123.35,241.25,122.93Z"/><path class="cls-2" d="M185.27,45.37c3.79-.4,7.44,2,9.62,5.11s3.18,6.9,4.14,10.59q1.92,7.4,3.85,14.78a16.16,16.16,0,0,1,.77,5.67,5.46,5.46,0,0,1-3,4.57c-2.88,1.2-5.92-1.17-8.07-3.43A119.06,119.06,0,0,1,183,71.19c-3.11-4.25-6-9-6.24-14.26S180,45.92,185.27,45.37Z"/><path class="cls-2" d="M111.28,296.22c-7-.78-11.41-8.72-10.94-15.77s4.41-13.33,8.15-19.33,7.5-12.44,7.56-19.51c0-2.35-.37-4.71-.1-7,.82-7,8.57-12.36,15.42-10.63s11.12,10.12,8.5,16.68c-1.75,4.39-5.81,7.41-8.33,11.41-3.17,5-3.7,11.25-3.92,17.2s-.24,12.09-2.61,17.55S117.2,296.88,111.28,296.22Z"/><path class="cls-2" d="M105.9,210.25a9.67,9.67,0,0,0,3.72,7.34c2.33,1.63,5.83,1.67,7.83-.34,2.56-2.57,1.76-6.9.23-10.18-1-2.21-2.57-4.5-5-5a5.51,5.51,0,0,0-5.37,2.3A9,9,0,0,0,105.9,210.25Z"/><path class="cls-2" d="M55.75,177.69c3,1.18,6,4.16,5.14,7.31-1,3.63-5.79,4.16-9.31,5.49-5.76,2.17-9.42,7.91-11.56,13.68s-3.19,12-5.93,17.48c-4.79-1.28-8.23-5.81-9.29-10.65s-.06-9.92,1.63-14.58c2.21-6.08,5.73-11.86,11-15.68S49.71,175.34,55.75,177.69Z"/><path class="cls-2" d="M175,363.58c-11.8-3.93-20-16.71-18.59-29.07.26-2.27,1.05-4.82,3.15-5.69,2.82-1.17,5.68,1.39,7.66,3.7l14.46,16.94a21,21,0,0,1,3.93,5.81A7.07,7.07,0,0,1,185,362C182.84,364.89,178.42,364.72,175,363.58Z"/><path class="cls-2" d="M241.6,308.1q-.4,6.13-.82,12.26a14.38,14.38,0,0,0,.46,6.1c.73,1.92,2.58,3.58,4.63,3.41,3.31-.28,4.47-4.53,4.55-7.85a72.08,72.08,0,0,0-.69-11.74,9.72,9.72,0,0,0-1.9-5.23c-1.25-1.41-3.64-2-5-.67C241.84,305.3,241.69,306.77,241.6,308.1Z"/><path class="cls-2" d="M215.63,441.66a57,57,0,0,1,2-12.44c1-3.77,3.17-8,7-8.44s6.76,3.19,8,6.74,1.66,7.52,3.84,10.59c1.61,2.28,4,3.82,6.11,5.67s3.94,4.37,3.76,7.15-2.59,5.24-5.29,6.27-5.68,1-8.57.93c-4.71-.09-9.91-.37-13.29-3.65S215.41,446.23,215.63,441.66Z"/><path class="cls-2" d="M359.34,440.89A48.86,48.86,0,0,1,349,447.44c-3.77,1.6-8.09,2.25-12,1-6.12-2-9.79-8.23-12.12-14.24a14.65,14.65,0,0,1-1.33-7c.31-2.4,2-4.77,4.41-5.09,3.25-.45,5.72,2.75,8.67,4.19,4.69,2.29,10.39-.12,14.36-3.51s7.12-7.78,11.59-10.47c3.25-2,7.69-2.79,10.69-.46,3.3,2.56,3.23,7.66,1.73,11.56C372.18,430.77,365.66,436.06,359.34,440.89Z"/><path class="cls-2" d="M430.19,339.65c-3.93-1-7.89-2.83-10.19-6.18s-2.24-8.53,1-11c4-3.05,9.68-.47,14.71-.12,5.73.39,7.92-5.51,12.88-6.78,6.5-1.67,10.38,5.64,8.76,12.14-1.18,5.4-5.64,9.74-10.82,11.66S435.54,341.06,430.19,339.65Z"/><path class="cls-2" d="M326.51,307.46a20.65,20.65,0,0,1,32.58.32c1.06,1.4,2,3.1,1.69,4.83-.34,2.09-2.35,3.51-4.35,4.2s-4.18.91-6.09,1.82c-3.32,1.59-5.33,5-8.13,7.39-6.37,5.4-17.18,4.24-22.26-2.37S321.31,314,326.51,307.46Z"/><path class="cls-2" d="M362.86,215.74c-4.55-.37-8.89,2.83-10.83,7s-1.82,9-.74,13.41,3.06,8.6,4.77,12.83c.94,2.36,1.86,4.83,3.65,6.63s4.74,2.75,6.92,1.44a7.83,7.83,0,0,0,2.65-3.32A44.9,44.9,0,0,0,374.17,233a23,23,0,0,0-2.4-11C369.93,218.72,366.63,216.05,362.86,215.74Z"/><path class="cls-2" d="M405.22,119.62c-.79,4.42.16,9.7,4,12,2.9,1.71,6.75,1.2,9.54-.68a16,16,0,0,0,5.77-8.06c1.6-4.42,1.7-10-1.77-13.17-3-2.76-8-2.63-11.43-.36S406,115.58,405.22,119.62Z"/><path class="cls-2" d="M441.78,207.15c-1.67-5.43,2.35-11.86,8-12.73s11.4,4,11.45,9.71-5.65,10.69-11.28,9.91A10.15,10.15,0,0,1,441.78,207.15Z"/><path class="cls-2" d="M53.89,297.45a10.62,10.62,0,0,1,4.78,10,14.44,14.44,0,0,1-5.7,9.82,18.07,18.07,0,0,1-21.2.28c-5.2-3.83-7.89-10.21-9.39-16.5a65.35,65.35,0,0,1,1.28-34.84,12.85,12.85,0,0,1,2.68-5.2,5.09,5.09,0,0,1,5.36-1.5c2.71,1.1,3.21,4.71,3,7.63-.31,4.87-1.35,9.73-1,14.59s2.54,10,6.89,12.19C44.74,296,49.93,295.11,53.89,297.45Z"/><path class="cls-2" d="M94.14,82.36a17.91,17.91,0,0,0-5.4,7.76c-.93,3-.5,6.65,1.68,9,5.55,5.89,9-1.33,12.77-4.19C108,91.22,115,90.19,120.46,93c4.35,2.2,8.2,6.58,13.35,6.3,3.55-9.2-3.64-20.26-12.31-23.4C112.24,72.5,101.43,75.73,94.14,82.36Z"/><path class="cls-2" d="M150.47,127.18a9.69,9.69,0,0,0,8.35-8.05,10.72,10.72,0,0,0-5.21-10.55,12,12,0,0,0-11.92.17c-1.53,5.17-2.31,11.36,1.24,15.42A9.11,9.11,0,0,0,150.47,127.18Z"/><path class="cls-2" d="M189.92,381.6c-2.8.4-5.56-1.67-6.51-4.33a10.24,10.24,0,0,1,1-8.16c1.78-3.31,6.08-6,9.19-3.89,2.16,1.45,2.58,4.45,2.44,7.06C195.78,376.3,193.91,381,189.92,381.6Z"/><path class="cls-2" d="M76.29,399.44c-1.92-3.57-3.33-7.83-1.94-11.63a9,9,0,0,1,11.06-5.17c3.83,1.37,6.17,5.17,9.35,7.71,4.19,3.34,9.72,4.4,15,5.16s10.81,1.39,15.43,4.11,8.11,8.23,6.65,13.39c-1.65,5.89-8.58,8.52-14.68,9A44,44,0,0,1,76.29,399.44Z"/><path class="cls-2" d="M242.35,368.31c.53-3.54-.34-7.82-3.58-9.38-3.54-1.69-7.77.92-9.91,4.21a12,12,0,0,0-2.07,8.38,7.61,7.61,0,0,0,5.54,6.21,7.7,7.7,0,0,0,7-2.46A12.86,12.86,0,0,0,242.35,368.31Z"/><path class="cls-2" d="M200.06,169c-1-3.51-2.93-6.67-4.43-10S193,152,193.84,148.42s4-6.76,7.67-6.45c3.29.29,5.71,3.16,7.41,6a43.29,43.29,0,0,1,5.2,30.79c-.83,4-2.33,8-5.3,10.79s-7.69,4-11.24,2-4.75-7.61-1.68-10.29C200.33,179.58,201.37,173.58,200.06,169Z"/></g><g id="OBJECTS"><path class="cls-3" d="M43.53,244.35a73.73,73.73,0,0,0,5.86,11.85c1.65,2.91,3.36,5.88,5.92,8,5.08,4.29,12.74,4.5,18.86,1.88s10.91-7.6,14.9-12.93a84.94,84.94,0,0,0,10.68-18.94c2.82-6.95,4.56-15.34.42-21.59-2.92-4.42-8.12-6.7-13.17-8.29-8.12-2.57-17-4-25.11-1.38A29.62,29.62,0,0,0,44,219.67,34.48,34.48,0,0,0,43.53,244.35Z"/><path class="cls-4" d="M68.33,252a34.56,34.56,0,0,1-22-1.41c1,1.9,2,3.77,3.11,5.63,1.65,2.91,3.36,5.88,5.92,8,5.08,4.29,12.74,4.5,18.86,1.88s10.91-7.6,14.9-12.93a84.94,84.94,0,0,0,10.68-18.94c2.08-5.13,3.57-11,2.54-16.3a74.48,74.48,0,0,1-7.84,14.65C88.1,241.66,79,249.13,68.33,252Z"/><path class="cls-2" d="M52.8,264.91a12.11,12.11,0,0,0,6.71,13.66,7.9,7.9,0,0,1,2,1,1.89,1.89,0,0,1,.74,2,2.42,2.42,0,0,1-1.33,1.24,11.32,11.32,0,0,1-13.77-3.45C44.15,275.14,49.16,268.54,52.8,264.91Z"/><path class="cls-3" d="M36,248.06c-1.83.17-4-.17-5.61.84a1.22,1.22,0,0,0-.25,1.9c2,1.61,4.43.46,6.43-.63A1.14,1.14,0,0,0,36,248.06Z"/><path class="cls-3" d="M31.5,224.79c-1.26-.09-2.49-.29-3.75-.37a1.28,1.28,0,0,0-.9,2.17c1.43,1.34,3.21,1.34,5,1C33.51,227.2,33,224.9,31.5,224.79Z"/><path class="cls-3" d="M39.7,204.47c-.41-.47-1.07-1.13-1.5-1.73a1.4,1.4,0,0,0-2.59.7,3.76,3.76,0,0,0,1.71,3.26c.76.47,2.14,1.21,3,.86a1,1,0,0,0,.73-1C41,205.68,40.27,205.11,39.7,204.47Z"/><path class="cls-3" d="M59.16,189.56a1.47,1.47,0,0,0-2.82,0,4.94,4.94,0,0,0,0,2.56,12.15,12.15,0,0,0,.77,2.51c.53,1.15,2.17.71,2.5-.32A8.22,8.22,0,0,0,59.16,189.56Z"/><path class="cls-3" d="M83.41,190.35c-1.14,1.23-2.31,3.37-1.87,5.11a1,1,0,0,0,1.66.44c.5-.62.79-1.39,1.23-2.06a6.56,6.56,0,0,0,1-2.33C85.62,190.41,84.27,189.42,83.41,190.35Z"/><path class="cls-3" d="M110.25,207.83a5,5,0,0,0-2.44.58,4.67,4.67,0,0,0-1.81,1,.73.73,0,0,0,0,1,2.39,2.39,0,0,0,2.28.44,5.84,5.84,0,0,0,2.53-1A1.13,1.13,0,0,0,110.25,207.83Z"/><path class="cls-3" d="M114.27,234.67a10.66,10.66,0,0,0-4.5-1.7c-1.08-.23-1.86,1.31-.78,1.85,1.41.71,2.9,1.67,4.51,1.72C114.39,236.57,115,235.28,114.27,234.67Z"/><path class="cls-3" d="M107.15,257.08c-1.49-1.06-3.41-1.32-5-2.25s-2.61,1.26-1.3,2.23a10.76,10.76,0,0,0,5.65,2.42C107.88,259.53,108.12,257.78,107.15,257.08Z"/><path class="cls-3" d="M93.65,272.38a5.62,5.62,0,0,0-1.53-2.14,4.24,4.24,0,0,1-1.28-1.85,1.14,1.14,0,0,0-2.22.3,5.77,5.77,0,0,0,3.56,5.15A1.19,1.19,0,0,0,93.65,272.38Z"/><path class="cls-5" d="M52.71,288.34c2.17,0,4-1.5,5.22-3a16.89,16.89,0,0,0,4.16.77h.29c1.21-.07,2.54-1.13,3.95-3.13,2.62-3.74,4.9-10,4.33-11.89a1.55,1.55,0,0,0-.27-.5c1.88-2.23,5.24-5.72,8.3-6.43,5.46-1.28,15.22-11,20.49-22.88,2.87-6.46,5.37-15.82,1-23.68-5.26-9.49-17.85-16.38-29.92-16.38-11.24,0-20.39,5.7-25.76,16.06-4,7.62-7.54,19-2.11,29.66a30.18,30.18,0,0,0,3.39,5c.58.72,1.15,1.45,1.7,2.21,1.3,1.81,1.49,3.34,1.66,5.65,0,.12,0,.46,0,.9,0,1.22,0,2.12,0,2.79a2.35,2.35,0,0,0-.25.19c-2.1,2-5,12.55-4.12,15,.26.73,1.49,1.67,3.2,2.64a6.79,6.79,0,0,0,.09,4.08,4.78,4.78,0,0,0,2.86,2.7,4.9,4.9,0,0,0,1.79.34Zm-3.83-6.62a53.19,53.19,0,0,0,8,3.28,5.91,5.91,0,0,1-4.17,2.34,3.87,3.87,0,0,1-1.43-.28A3.78,3.78,0,0,1,49,284.94,5.73,5.73,0,0,1,48.88,281.72Zm.71-17.4a3,3,0,0,1,2.09-.56c5.92,0,17.55,6,18,7.58.4,1.34-1.49,7.19-4.19,11-1.19,1.69-2.32,2.65-3.2,2.7h-.22c-4.24,0-15.76-5.1-16.38-6.84C45,276.21,47.81,266.05,49.59,264.32Zm.55-3.68c0-.48,0-.85,0-1-.17-2.42-.39-4.15-1.85-6.16-.56-.78-1.14-1.52-1.72-2.25a28.32,28.32,0,0,1-3.28-4.78c-5.25-10.32-1.76-21.33,2.1-28.75,5.19-10,14-15.52,24.87-15.52,11.73,0,24,6.67,29.05,15.86,4.16,7.5,1.72,16.54-1,22.79-5,11.29-14.59,21.1-19.81,22.32-3.32.77-6.81,4.35-8.78,6.67-3.19-2.75-13.12-7.07-18-7.07a5.86,5.86,0,0,0-1.55.19C50.11,262.1,50.13,261.15,50.14,260.64Z"/><path class="cls-5" d="M64.14,273.17A40.29,40.29,0,0,1,57.71,272a20.55,20.55,0,0,1-6.11-3.51c-.17-.12-.38.11-.28.28,2.39,3.79,8.41,5.73,12.68,5.43C64.57,274.19,64.78,273.26,64.14,273.17Z"/><path class="cls-5" d="M62.25,279c-5-.48-8.52-2.77-12.89-5a.22.22,0,0,0-.22.39c3.69,2.78,8.26,5.93,13.11,5.52A.47.47,0,0,0,62.25,279Z"/><path class="cls-5" d="M69.5,264.37a7.91,7.91,0,0,0-1.58.32A11.22,11.22,0,0,1,66,265a.25.25,0,0,0,0,.49,6.85,6.85,0,0,0,3.67-.46A.33.33,0,0,0,69.5,264.37Z"/><path class="cls-5" d="M70,266.39c-.67,0-1.33.13-2,.21-.43,0-.46.72,0,.69a9.67,9.67,0,0,0,2.08-.3A.31.31,0,0,0,70,266.39Z"/><path class="cls-1" d="M55.18,257.28a42.56,42.56,0,0,1-.47-5c-.15-3.28.36-6.55.2-9.81a.66.66,0,0,0-1.3-.17c-1,3.09-.66,6.78-.45,10,.13,2,.06,6.64,2,7.87a.2.2,0,0,0,.3-.12A6.49,6.49,0,0,0,55.18,257.28Z"/><path class="cls-1" d="M79.08,250c-3.42,3.59-7.56,7.15-10.32,11.29a.28.28,0,0,0,.17.4c1.44.38,3.16-2.42,4-3.3,2.39-2.48,5.51-4.52,7.09-7.66C80.31,250.16,79.57,249.51,79.08,250Z"/><path class="cls-1" d="M75.63,247.53c0-.42-.37-.93-.88-.87A9.05,9.05,0,0,0,71.66,248a7.16,7.16,0,0,0,.14-3.48.87.87,0,0,0-1.06-.6c-1.66.49-3,1.56-4.57,2.26A9.16,9.16,0,0,0,66,242a.76.76,0,0,0-1.1-.45c-2.15,1.07-3.1,3.41-5.1,4.62-.5-1.39-.27-2.91-.7-4.32a.33.33,0,0,0-.64.17c.25,1.77-.18,3.44.5,5.12a.6.6,0,0,0,.72.41c2.26-.7,3.27-2.86,5.05-4.15a11.46,11.46,0,0,1-.4,3.84.85.85,0,0,0,1,1c1.82-.43,3.25-1.6,4.92-2.32a14.08,14.08,0,0,1-.7,3.25.9.9,0,0,0,1.08,1.09c1.26-.23,2.2-1.19,3.32-1.65,0,.52,0,1,0,1.55,0,.88,1.39,1.11,1.55.21A10.2,10.2,0,0,0,75.63,247.53Z"/><path class="cls-1" d="M50.53,235.92A3.12,3.12,0,0,0,49,235.2a5.06,5.06,0,0,0-1.76-.31c-.43,0-.8.61-.39,1a3,3,0,0,0,1.6.58,6.71,6.71,0,0,0,1.89.15C50.67,236.53,50.71,236.11,50.53,235.92Z"/><path class="cls-1" d="M52.1,227.57a5.58,5.58,0,0,1-2.91-2.63.51.51,0,0,0-.95.25c.09,1.75,2.11,3.14,3.76,3.14A.39.39,0,0,0,52.1,227.57Z"/><path class="cls-1" d="M56,217.63a22.09,22.09,0,0,1-.2-2.44.52.52,0,0,0-1-.13c-.54,1.29-.11,3.82,1.08,4.67.22.16.48-.06.5-.29A6.76,6.76,0,0,0,56,217.63Z"/><path class="cls-1" d="M64.82,210.94a11,11,0,0,0-.63,2.33,4.75,4.75,0,0,0,0,2.51.35.35,0,0,0,.66,0c.24-.7.3-1.47.48-2.2a8.14,8.14,0,0,0,.44-2.39C65.72,210.75,65,210.46,64.82,210.94Z"/><path class="cls-1" d="M77.46,211.45c-1.33.68-2.11,2.48-2.41,3.87-.1.5.59.84.85.36s.64-1.16,1-1.71,1-1.1,1.33-1.74A.57.57,0,0,0,77.46,211.45Z"/><path class="cls-1" d="M89.63,218.72c-1.44-.37-3.22.51-4.37,1.32a.47.47,0,0,0,.48.81,9.22,9.22,0,0,1,2.11-.72,6.85,6.85,0,0,0,1.9-.51A.5.5,0,0,0,89.63,218.72Z"/><path class="cls-1" d="M94,230.65c-.88-1.16-2.68-1-4-.91a.46.46,0,0,0-.23.85,4.75,4.75,0,0,0,1.67.44c.65.1,1.26.32,1.91.48C93.79,231.61,94.33,231.09,94,230.65Z"/><path class="cls-1" d="M91.66,242a2.68,2.68,0,0,0-1.24-.44A5.36,5.36,0,0,1,89,241a.47.47,0,0,0-.56.73,4.7,4.7,0,0,0,1.34,1,2.18,2.18,0,0,0,1.64.28C91.76,242.86,92.05,242.33,91.66,242Z"/><path class="cls-1" d="M87.22,252.06a8.19,8.19,0,0,0-2.08-2.51c-.43-.45-1.23.15-.87.67.61.91,1.28,2.06,2.35,2.45A.5.5,0,0,0,87.22,252.06Z"/><path class="cls-1" d="M82.4,254.69c0-.43-.71-.57-.79-.1a2.23,2.23,0,0,0,.36,1.88.39.39,0,0,0,.67-.28C82.6,255.68,82.42,255.21,82.4,254.69Z"/><path class="cls-2" d="M157.14,190l15.47-42.09L143.21,187c-3,4-6.12,8.51-5.4,13.41,2.23,4.09,8.51,4.18,12.22,1.37S155.53,194.39,157.14,190Z"/><path class="cls-3" d="M164.62,195.52q4.55-21.66,9.1-43.34-9.39,19-18.79,38c-2.47,5-5,10.13-5.73,15.66s.57,11.67,4.74,15.39C160.48,214.48,162.68,204.74,164.62,195.52Z"/><path class="cls-4" d="M153.94,221.25c6.54-6.77,8.74-16.51,10.68-25.73q4.55-21.66,9.1-43.34l-4.08,8.26q-9.22,28.67-18.46,57.33A13.25,13.25,0,0,0,153.94,221.25Z"/><path class="cls-2" d="M162.53,198.79q7.25-24.27,14.51-48.53a280.3,280.3,0,0,1-8.93,56.33c-.94,2.28-4.74,1.61-5.86-.59S161.82,201.15,162.53,198.79Z"/><path class="cls-5" d="M177.52,143.11l0-.08a0,0,0,0,1,0,0s0,0,0,0h0l0,0,0-.06-.06-.05a0,0,0,0,0,0,0l0,0h0l-.08,0h0s0,0,0,0H177c-5.64,0-50.7,42.45-53.35,47.2a2.3,2.3,0,0,0,.2,2.37c2.53,4.3,16.92,10.7,24.06,10.7h0a6.74,6.74,0,0,0,2.44-.39c0,3.94.3,18.34,2.71,20.27a1.13,1.13,0,0,0,.7.25c2.73,0,7-12.75,8.48-17.57,2.82,1.29,13,3.31,19.77,3.31,4.9,0,7.66-1,8.19-2.91,1.53-5.62-12-60.51-12.62-62.85Zm11.66,62.6c-.38,1.4-3,2.17-7.22,2.17-8,0-18.54-2.56-19.65-3.36-.52-2.63,8.3-36.12,14.71-59.3C182,165.36,190.32,201.54,189.18,205.71ZM153.63,222.1c-1.68-1.34-2.32-12.93-2.34-20.08,3.82-3.7,16.76-35.06,22.92-50.35-1.56,5.75-3.71,13.71-5.79,21.67-6.77,25.89-7.3,30.47-7,31.51-2.58,8.35-6.23,17.29-7.66,17.29ZM147.86,202h0c-6.75,0-20.84-6.2-23.2-10.2-.49-.84-.26-1.24-.18-1.38,2.86-5.15,44.19-43.47,51.75-46.5-7.6,19.21-22.29,54.79-25.74,57.47A4.42,4.42,0,0,1,147.86,202Z"/><path class="cls-5" d="M167,201.19a4,4,0,0,0-2.65,1.11c-.18.16.05.42.25.32.4-.19.77-.4,1.18-.55s.87-.22,1.29-.38A.26.26,0,0,0,167,201.19Z"/><path class="cls-5" d="M168.19,202.46a5.57,5.57,0,0,0-1.87,1c-.22.19.07.57.31.4a16.75,16.75,0,0,1,1.74-1A.24.24,0,0,0,168.19,202.46Z"/><path class="cls-5" d="M149,196.17a10.69,10.69,0,0,0-3.12,1.07c-.26.12-.06.47.18.43a10.47,10.47,0,0,0,3.08-1C149.36,196.55,149.27,196.15,149,196.17Z"/><path class="cls-5" d="M149.75,197.74c-.44.06-.87.16-1.31.22-.27,0-.21.5.06.48a4.16,4.16,0,0,0,1.35-.32C150,198,150,197.71,149.75,197.74Z"/><path class="cls-5" d="M155.28,213.22a3.81,3.81,0,0,0-.51.73,3.86,3.86,0,0,1-.75.76c-.3.23.09.74.4.52.55-.39,1.37-1,1.39-1.79A.32.32,0,0,0,155.28,213.22Z"/><path class="cls-5" d="M155.35,215.94a11.42,11.42,0,0,0-1.35,1.25.36.36,0,0,0,.5.51,10.72,10.72,0,0,0,1.25-1.36C155.92,216.11,155.59,215.78,155.35,215.94Z"/><path class="cls-3" d="M297.19,54c-.54-2-2.79-3-4.77-3.69-22.69-7.92-45.86-15.93-69.89-16.24C226.8,45.18,233.81,55,240.74,64.6,244,69.18,247.68,74,253,75.77c5.8,1.9,12.08-.32,17.63-2.84a151.25,151.25,0,0,0,22.66-12.72C295.47,58.75,297.86,56.54,297.19,54Z"/><path class="cls-4" d="M287.94,63.71a40.71,40.71,0,0,1-51.46-28.6,122.45,122.45,0,0,0-13.95-1C226.8,45.18,233.81,55,240.74,64.6,244,69.18,247.68,74,253,75.77c5.8,1.9,12.08-.32,17.63-2.84A153,153,0,0,0,287.94,63.71Z"/><path class="cls-2" d="M239,65.87c-1,4.83-9,4.48-11.12,8.93-1.07,2.25-.11,5.06,1.67,6.81A16.1,16.1,0,0,0,236.12,85,89,89,0,0,0,260,89.23a21.67,21.67,0,0,0,9.1-1.14c2.85-1.19,5.32-3.72,5.6-6.79,3.14,1.43,6.93.67,9.88-1.11s5.25-4.44,7.49-7.06c.6,5.16,1.2,10.44.16,15.53s-4,10.09-8.76,12.2c-3.72,1.66-8,1.38-12,1a209.92,209.92,0,0,1-37.16-7.42c-6.75-2-13.93-4.74-17.59-10.75-4.12-6.75-2.49-15.46,0-23A22.66,22.66,0,0,0,239,65.87Z"/><path class="cls-5" d="M213.91,83.25v0a1.33,1.33,0,0,0,.41.77c4.85,4.89,62.63,18.65,71.14,18.65h0a5,5,0,0,0,1-.07,1.49,1.49,0,0,0,1.17-1.54,4.44,4.44,0,0,0-.14-1.29l11.73-44a3,3,0,0,0,.25-.94v0s0,0,0,0a.36.36,0,0,0,0-.1s0,0,0,0v0a2.28,2.28,0,0,0-.78-1.46c-6.91-7-62.37-20.34-72.11-20.34a5.43,5.43,0,0,0-1.38.13l-.11,0L225,33a2.64,2.64,0,0,0-1.52,2.76,5.29,5.29,0,0,0,.05.67c-3,10.16-8.36,39.81-9.58,46.61v.06s0,0,0,0S213.91,83.23,213.91,83.25Zm72.31,18.4a4.53,4.53,0,0,1-.75,0h0c-4.41,0-21-3.4-38.54-7.9-21.51-5.52-31.68-9.39-32-10.62.21-1.61,14.62-10.64,27-16.57,4.22,4.78,8.29,8.48,11.13,9.63a9.35,9.35,0,0,0,3.38.54h0c3.46,0,8.34-1.23,13.57-3.12,8,10.11,16.83,23.4,16.59,27.37C286.57,101.57,286.34,101.62,286.22,101.65ZM271,73.29c10.46-3.93,22.05-10.38,26.54-15.15L286.91,98C284.73,92.16,277.66,81.7,271,73.29Zm27.47-18.57c-.06,5.38-29.3,21.06-42,21.06a8.23,8.23,0,0,1-3-.47c-8.38-3.38-29-31.44-29-39.52,0-1.46.68-1.73.9-1.82a3.56,3.56,0,0,1,1.22-.13c10.83,0,65.28,13.85,71.4,20A1.39,1.39,0,0,1,298.46,54.72ZM241.3,65.88c-10.42,5-22.19,12-26.07,15.52,2.58-14.26,6.43-34.12,8.67-43C225.84,45.14,233.72,57.12,241.3,65.88Z"/><path class="cls-5" d="M236,63.12a3.44,3.44,0,0,0-1.45.58,3.81,3.81,0,0,0-.94.64c-.13.13,0,.29.16.26h0a6.45,6.45,0,0,0,1-.32,7.38,7.38,0,0,0,1.36-.57A.32.32,0,0,0,236,63.12Z"/><path class="cls-5" d="M237.38,64c-.51.32-1,.67-1.51,1-.3.17,0,.6.26.45a5.1,5.1,0,0,0,1.54-1.06C237.85,64.17,237.61,63.84,237.38,64Z"/><path class="cls-5" d="M278.93,72.94A18.68,18.68,0,0,0,275.88,74c-.22.09-.09.42.12.42a5.67,5.67,0,0,0,3.13-1A.26.26,0,0,0,278.93,72.94Z"/><path class="cls-5" d="M280,74.35a1.67,1.67,0,0,0-1.36.88c-.3.46.42.86.72.43a2.33,2.33,0,0,1,.82-.67A.35.35,0,0,0,280,74.35Z"/><path class="cls-5" d="M280.25,96.65a18.5,18.5,0,0,0-2.32.52c-.31.07-.25.59.07.56a7,7,0,0,0,2.4-.53A.3.3,0,0,0,280.25,96.65Z"/><path class="cls-5" d="M281.57,98.42a2.49,2.49,0,0,0-.82-.06.34.34,0,0,0,0,.67,2.49,2.49,0,0,0,.82-.06A.29.29,0,0,0,281.57,98.42Z"/><path class="cls-5" d="M256.83,72.42c-2.24-.41-4.47-.72-6.18-2.38a.22.22,0,0,0-.3.31,8.84,8.84,0,0,0,6.4,2.63C257.06,73,257.15,72.48,256.83,72.42Z"/><path class="cls-5" d="M260.34,72a1.92,1.92,0,0,0-1.09-.31.22.22,0,0,0,0,.43,2.18,2.18,0,0,1,.91.19A.18.18,0,0,0,260.34,72Z"/><path class="cls-3" d="M266.64,387.33c-8.88,3.94-14.69,13-16.81,22.5a37.28,37.28,0,0,0,2.36,24.2c3.59,7.45,10.34,13.47,18.35,15.47,7.35,1.83,15.25.24,22-3.15,9.12-4.58,16.64-12.67,19.55-22.46s.79-21.15-6.22-28.57c-5.47-5.81-13.37-8.86-21.28-9.93C278.56,384.58,272.22,384.86,266.64,387.33Z"/><path class="cls-4" d="M305.51,425.27c-12.18,4.87-26.61,5-38-1.44a34.36,34.36,0,0,1-15.81-19.91,38.5,38.5,0,0,0-1.84,5.91,37.28,37.28,0,0,0,2.36,24.2c3.59,7.45,10.34,13.47,18.35,15.47,7.35,1.83,15.25.24,22-3.15,9.12-4.58,16.64-12.67,19.55-22.46.19-.62.35-1.26.49-1.89C310.27,423.17,307.92,424.31,305.51,425.27Z"/><path class="cls-5" d="M280.5,381.19a36.5,36.5,0,1,0,36.5,36.5A36.54,36.54,0,0,0,280.5,381.19Zm0,72a35.5,35.5,0,1,1,35.5-35.5A35.53,35.53,0,0,1,280.5,453.19Z"/><path class="cls-5" d="M280.5,388.83a28.87,28.87,0,1,0,28.86,28.86A28.89,28.89,0,0,0,280.5,388.83Zm0,56.73a27.87,27.87,0,1,1,27.86-27.87A27.9,27.9,0,0,1,280.5,445.56Z"/><path class="cls-5" d="M280.5,392.65a25,25,0,1,0,25.05,25A25.07,25.07,0,0,0,280.5,392.65Zm0,49.09a24,24,0,1,1,24.05-24.05A24.08,24.08,0,0,1,280.5,441.74Z"/><path class="cls-1" d="M285.55,415.94c-.11-3.56-.32-7.12-.56-10.67a8,8,0,0,1,2.2,2.25.66.66,0,0,0,1.12,0c1.33-2.69-.85-4.55-3.54-5.65-.07-1.06-.14-2.12-.2-3.18a.82.82,0,0,0-1.64,0c0,.85,0,1.7-.06,2.54a16.16,16.16,0,0,0-3.59-.58l-.59,0c0-1,0-2,0-3,0-.72-1.15-.93-1.3-.17-.24,1.18-.43,2.36-.61,3.56-4.11,1.33-8.29,5.65-6.39,9.86a9,9,0,0,0,5.18,4.48v0c-.28,4.67-.9,9.42-1.14,14.14a16.13,16.13,0,0,1-4.6-1.5c-1.55-.8-3.28,1.21-1.92,2.48a12.8,12.8,0,0,0,6.42,3.06c0,.53,0,1.05,0,1.57a1.43,1.43,0,0,0,2.8.38c.14-.55.25-1.1.35-1.66a17.82,17.82,0,0,0,3.93-.47c-.13,1.5-.24,3-.29,4.5s2.22,1.79,2.73.37a29.81,29.81,0,0,0,1.42-6.33,10,10,0,0,0,5.38-7.57C291.13,420.44,288.63,417.77,285.55,415.94Zm-9.77-4.47c-2.51-1.58-3.79-3.71.09-6.58.15-.11.3-.19.45-.28C276.08,406.89,275.92,409.18,275.78,411.47Zm2.9-7.76a8.22,8.22,0,0,1,4.13.43c-.05,3.46-.06,6.91-.08,10.37-.6-.26-1.2-.49-1.77-.71-.75-.28-1.61-.6-2.46-1C278.57,409.8,278.65,406.75,278.68,403.71Zm1,26a14.89,14.89,0,0,1-1.64.11c.38-4.12.28-8.34.35-12.42,0-.32,0-.64,0-1a35.15,35.15,0,0,1,4.28,1.58c-.07,3.77-.48,7.49-.88,11.21A11.85,11.85,0,0,1,279.68,429.73Zm5.94-2.42c.08-2.45.05-4.91,0-7.28a7.91,7.91,0,0,1,1.05,1.24C288.38,423.81,287.43,425.86,285.62,427.31Z"/><path class="cls-1" d="M265,415.91a2.48,2.48,0,0,0-1.72-.6,6.47,6.47,0,0,0-.76-.05,2.32,2.32,0,0,0-1.2.34,1.28,1.28,0,0,0-.26,2,2.55,2.55,0,0,0,2.43.68,2.09,2.09,0,0,0,1.79-1.28A1.11,1.11,0,0,0,265,415.91Z"/><path class="cls-1" d="M265,409.48a3.94,3.94,0,0,0-1.94-1.3,1.07,1.07,0,0,0-1.3,1.29,4,4,0,0,0,1.3,1.94A1.37,1.37,0,0,0,265,409.48Z"/><path class="cls-1" d="M265.44,424.23c-1,.58-2.1,1.07-2.58,2.22a.92.92,0,0,0,.89,1.16,5.44,5.44,0,0,0,2.81-1.45A1.12,1.12,0,0,0,265.44,424.23Z"/><path class="cls-1" d="M298.05,414.58c-.88-1.42-2.86-.79-4.15-.4s-1.17,2.7.35,2.57c1.28-.11,3,.31,3.8-.94A1.25,1.25,0,0,0,298.05,414.58Z"/><path class="cls-1" d="M294,407a2,2,0,0,0-1.32,1.38c-.49,1.17,1.47,2,2,.86a5.23,5.23,0,0,0,.46-1.06A1,1,0,0,0,294,407Z"/><path class="cls-1" d="M296.64,422.17a2,2,0,0,0-1.57-1.14,1.21,1.21,0,0,0-.64,2.33c.35.1.68.25,1,.33A1,1,0,0,0,296.64,422.17Z"/><path class="cls-5" d="M254.42,401.2a1.76,1.76,0,0,0-.67-.71,4.76,4.76,0,0,0-.84-.31.31.31,0,0,0-.38.48c.21.22.31.5.52.73a2.11,2.11,0,0,0,.82.53C254.31,402.08,254.6,401.55,254.42,401.2Z"/><path class="cls-5" d="M249.6,412.06a3.22,3.22,0,0,1-1.2-.37.3.3,0,0,0-.44.25,1.18,1.18,0,0,0,1.74.85A.4.4,0,0,0,249.6,412.06Z"/><path class="cls-5" d="M251.16,427.61l-1.23.34a.26.26,0,0,0-.06.46,1.27,1.27,0,0,0,1.63-.22A.35.35,0,0,0,251.16,427.61Z"/><path class="cls-5" d="M262.55,443.1c-.33.19-.47.53-.7.82a10.45,10.45,0,0,1-.81.82.3.3,0,0,0,.29.49c.72-.17,1.84-1,1.82-1.79A.4.4,0,0,0,262.55,443.1Z"/><path class="cls-5" d="M271,447.81c-.33.64-.59,1.36-.86,2-.13.33.38.61.6.35a3,3,0,0,0,.77-2.26C271.49,447.7,271.15,447.54,271,447.81Z"/><path class="cls-5" d="M293.16,447.56a7.15,7.15,0,0,1-.52-1.47.41.41,0,0,0-.8.1c-.08.93.36,2.53,1.3,2.9a.41.41,0,0,0,.52-.4A2.79,2.79,0,0,0,293.16,447.56Z"/><path class="cls-5" d="M305.1,436.09a.37.37,0,0,0-.42.54c.13.2.28.36.4.56s.14.41.34.58a.47.47,0,0,0,.78-.2A1.44,1.44,0,0,0,305.1,436.09Z"/><path class="cls-5" d="M313.46,422.09a4.66,4.66,0,0,0-2.46,0,.38.38,0,0,0,0,.75,4.66,4.66,0,0,0,2.46,0A.41.41,0,0,0,313.46,422.09Z"/><path class="cls-5" d="M314.08,417.9a3.5,3.5,0,0,0-1.33,0,.33.33,0,0,0,0,.65,3.71,3.71,0,0,0,1.33,0A.31.31,0,0,0,314.08,417.9Z"/><path class="cls-5" d="M308,398.67c-.2.18-.4.38-.61.54s-.53.29-.79.45a.33.33,0,0,0,.17.61,2,2,0,0,0,1.83-1.13A.39.39,0,0,0,308,398.67Z"/><path class="cls-5" d="M266.64,387.45a.28.28,0,0,0-.38.38A4.7,4.7,0,0,0,267,389a.37.37,0,0,0,.61-.35A1.89,1.89,0,0,0,266.64,387.45Z"/><path class="cls-5" d="M280.46,384.57c-.12-.17-.49-.15-.46.12s.11.57.13.86a5.22,5.22,0,0,0,.08,1,.3.3,0,0,0,.55.08A2.07,2.07,0,0,0,280.46,384.57Z"/><path class="cls-5" d="M293,387a.31.31,0,0,0-.57.07,9.94,9.94,0,0,0-.58,2.33.38.38,0,0,0,.65.27C293.08,389.14,293.57,387.76,293,387Z"/><path class="cls-5" d="M295.15,389.34c-.08-.48-.8-.34-.81.1s-.17,1-.22,1.5a.38.38,0,0,0,.65.27A2.29,2.29,0,0,0,295.15,389.34Z"/><path class="cls-3" d="M441.1,235.05a5,5,0,0,0,3.26,2.87,14.85,14.85,0,0,0,4.46.51c1.62,0,3.51-.11,4.4-1.45a4.36,4.36,0,0,0,.42-2.88A17.7,17.7,0,0,0,444,220.49q-1.49,5.19-2.72,10.43A7.37,7.37,0,0,0,441.1,235.05Z"/><path class="cls-2" d="M376.16,298.83c3.26,4,8.93,5,14.08,5.7l31.56,4.23c2.85.38,5.88.74,8.47-.49s4.34-4.69,2.73-7.07c-17.7-4.3-32.05-20-34.77-38-1-6.4-.63-13.11-3.12-19.08-1.09-2.6-3.58-5.33-6.26-4.45-2,.64-2.84,2.86-3.47,4.82q-5.72,18-10.37,36.26C373.47,286.84,372.21,294,376.16,298.83Z"/><path class="cls-5" d="M450,225.46c-2.29-4-4.05-6.1-5.25-6.38-2.66-2.71-29-7.46-42.11-7.46-6.18,0-10.06.87-11.53,2.58-2,2.34-9.25,33.24-11.42,42.65-3.79,16.44-9,40.42-8.69,42.26.59,3.55,53.89,15.12,61.71,15.12a2.61,2.61,0,0,0,1.59-.31c1.7-1.36,8.64-26.2,11.55-36.82,3.58-13.11,8.7-32.68,9.11-36.57a.9.9,0,0,0,.55-.43C456.62,238.19,452.2,229.25,450,225.46ZM372,299c-.21-1.38,3.77-20.57,8.69-41.91,5.59-24.21,10-40.77,11.2-42.19.87-1,3.45-2.23,10.77-2.23,14.92,0,37.74,4.93,41,6.74a2.51,2.51,0,0,0-.29.28c-2.22,2.56-3.28,13.94-2.85,17,.4,2.78,5.11,3.09,9.26,3.37a32.09,32.09,0,0,1,4.25.45c-.31,6-18.4,70.93-20.31,72.71a2.69,2.69,0,0,1-1,.1C423.49,313.23,373.53,301.43,372,299Zm82.73-58.9v-.49h-.08a25.68,25.68,0,0,0-4.82-.58c-3.58-.24-8-.53-8.32-2.51-.45-3.11.73-14,2.61-16.17a.64.64,0,0,1,.39-.26c.6,0,2.71,2.19,5.83,8.06,3.3,6.22,4.74,10.89,4.39,11.47v.49Z"/><path class="cls-5" d="M395.58,215.42c-1.11-.27-2.25.66-3,1.33-.25.21.06.58.33.43.42-.23.82-.5,1.26-.71a11.51,11.51,0,0,1,1.43-.5C395.82,215.88,395.87,215.49,395.58,215.42Z"/><path class="cls-5" d="M396.69,216.21a3,3,0,0,1-1.44.23c-.28,0-.34.43-.07.5a1.91,1.91,0,0,0,1.69-.29C397.07,216.5,397,216.1,396.69,216.21Z"/><path class="cls-5" d="M431,306.59a12.9,12.9,0,0,0-5.37,2.4c-.21.14-.09.53.18.43.95-.35,1.85-.82,2.78-1.21s1.76-.55,2.59-1A.36.36,0,0,0,431,306.59Z"/><path class="cls-5" d="M432.32,308a5.73,5.73,0,0,1-1.91,1.11.34.34,0,0,0,.18.65,3.59,3.59,0,0,0,2.13-1.45C432.9,308.07,432.53,307.83,432.32,308Z"/><path class="cls-5" d="M450.43,236a7.18,7.18,0,0,0-1.19.47c-.18.08-1,.53-1.17.4s-.27.11-.17.23.67.15.93.09a4.51,4.51,0,0,0,1.8-.73A.25.25,0,0,0,450.43,236Z"/><path class="cls-5" d="M452.5,237.44a6.65,6.65,0,0,0-1.08.21.3.3,0,0,0,.16.58,5.89,5.89,0,0,0,1-.29C452.8,237.84,452.81,237.41,452.5,237.44Z"/><path class="cls-5" d="M376.81,296a2.88,2.88,0,0,0-2.72.82c-.21.2.1.48.32.31a3.54,3.54,0,0,1,2.34-.67A.24.24,0,0,0,376.81,296Z"/><path class="cls-5" d="M376.68,297.94a13.24,13.24,0,0,1-1.51.48c-.32.05-.24.59.08.56a2.78,2.78,0,0,0,1.69-.6A.27.27,0,0,0,376.68,297.94Z"/><path class="cls-5" d="M432,238.86c-2.75.18-5.33.7-8.1.33a19.48,19.48,0,0,1-7.41-3,21.68,21.68,0,0,0-6.57-2.94c-2.27-.5-4.41.47-6.67.53a.12.12,0,0,0-.06.23c1.79,1,4.5-.29,6.5.07,3.12.57,5.67,2.79,8.35,4.32A17.9,17.9,0,0,0,432.15,240C432.76,239.81,432.68,238.82,432,238.86Z"/><path class="cls-5" d="M438.21,248c-6.46,2.94-15.66,2.12-21.92-.73-3.38-1.55-6.52-3.55-10-4.95-4.16-1.68-8.19-1.23-12.56-1.06a.24.24,0,0,0,0,.47c2.2.13,4.4-.05,6.6,0a20.58,20.58,0,0,1,7.88,2.48c3.84,1.89,7.35,4.31,11.42,5.72,3.41,1.18,7.2,1.17,10.76,1.07,2.9-.08,6.13-.32,8.5-2.15C439.46,248.42,438.76,247.7,438.21,248Z"/><path class="cls-5" d="M437.34,255.88c-4.28,1.17-8.21,3.08-12.68,3.56-4.71.51-9-1.48-13-3.63a45.59,45.59,0,0,0-10.35-4.4c-4.21-1.07-8.12,0-12.33.3a.24.24,0,0,0,0,.47,52.37,52.37,0,0,0,6.12-.48,20.08,20.08,0,0,1,7.6,1.07c4.29,1.33,8,4,12,6,7.51,3.66,15.87,2,23.05-1.77A.59.59,0,0,0,437.34,255.88Z"/><path class="cls-5" d="M432.09,271.36c-8.64,1.92-16.89,1.35-24.84-2.77a39.14,39.14,0,0,0-9.88-4c-3.85-.8-7.32.54-10.92,1.7a.2.2,0,0,0,.1.39c2.23-.49,4.34-1.31,6.62-1.58a15.13,15.13,0,0,1,6.32.9c3.89,1.27,7.21,3.82,11,5.36,6.74,2.75,15,3.95,21.94,1.2A.6.6,0,0,0,432.09,271.36Z"/><path class="cls-5" d="M427.25,283.6c-4.28.51-8.27.94-12.56.21-3.74-.64-7.18-2.18-10.66-3.64-5.58-2.34-12.67-4.85-18.41-1.7-.3.16,0,.6.26.45,6.79-3.29,14.75.81,21,3.61s13.79,4.28,20.55,2.24C428,284.58,427.94,283.52,427.25,283.6Z"/><path class="cls-5" d="M423.61,299.19c-4.89.75-8.86-3.4-13.7-2.57-.38.07-.27.65.09.66,4.76.08,9.12,4.55,13.89,2.92A.52.52,0,0,0,423.61,299.19Z"/><path class="cls-3" d="M219.74,412.45c-5.6,7.88-11.67,15.63-19.52,21.27s-17.8,9-27.3,7.14c-5.46-1.06-10.48-3.76-15-6.94-8.33-5.79-15.6-13.56-19.09-23.08s-2.71-20.94,3.54-28.93l14,5.57a8.88,8.88,0,0,1,3.78,2.3c2.28,2.78.52,6.84-.14,10.38-1.21,6.54,2.23,13.53,7.86,17.09A20.83,20.83,0,0,0,187,418.34a26.54,26.54,0,0,0,13.43-14.12Z"/><path class="cls-4" d="M200.41,404.22A26.54,26.54,0,0,1,187,418.34a20.83,20.83,0,0,1-19.15-1.09c-5.63-3.56-9.07-10.55-7.86-17.1.66-3.53,2.42-7.59.14-10.37a8.88,8.88,0,0,0-3.78-2.3l-2.76-1.1c-2.52,10.13-2.51,21.13,3.08,29.76s16.64,13.53,27,12.34,19.73-8,24.64-17.2c.53-1,1-2,1.44-3.1Z"/><path class="cls-2" d="M154.86,381.78q2.43-3.46,5-6.78c1.63-2.06,3.84-4.29,6.42-3.82.63,3.48.74,7.19-.62,10.46s-4.44,6-8,6.13c-1.78.07-3.84-.83-4.12-2.58A4.87,4.87,0,0,1,154.86,381.78Z"/><path class="cls-2" d="M211.55,384.4a4.09,4.09,0,0,1,2.44,3.85,11.86,11.86,0,0,1-1.15,4.68l-3.75,9.48a4.28,4.28,0,0,1-1.29,2c-1.12.79-2.72.33-3.79-.53s-1.83-2.05-2.88-2.93l4.11-11.13a12.31,12.31,0,0,1,2.14-4.09A4.11,4.11,0,0,1,211.55,384.4Z"/><path class="cls-5" d="M216.24,381.15c-4.42,0-9.63,1.6-11,4.67-.36.81-.8,2.17-1.36,3.9a100,100,0,0,1-4.31,11.55s0,0,0,0c-3.74,8.12-9.63,16.23-19.21,16.23a21.41,21.41,0,0,1-7.48-1.48c-5.1-1.92-8.52-4.94-10.15-9-2.27-5.67-.84-12.61,1.34-18.67.06-.15.12-.31.17-.47.15-.4.3-.8.46-1.19l.21-.54.45-1.1c.1-.25.21-.5.32-.75l.48-1.11c.14-.3.27-.6.4-.89s.15-.32.22-.47l.43-.94.11-.23.95-2a41.73,41.73,0,0,0,1.74-3.89,3.5,3.5,0,0,0,.19-.74,2.49,2.49,0,0,0,0-.55c-.11-1.35-1.13-3.22-2.83-5.14l-.5-.55c-2.62-2.75-6.85-5.73-10.93-5.73a7.13,7.13,0,0,0-5.09,2.05c-.37.35-.75.74-1.12,1.15l-.22.23c-.34.38-.69.77-1,1.19l-.35.42c-.27.34-.55.69-.82,1l-.56.76-.55.78a58.85,58.85,0,0,0-4.85,8.4s0,.06,0,.09c-4.1,8.75-6.79,19.73-4.89,30.2,2.49,13.69,11.93,24.14,28.05,31.05a44.28,44.28,0,0,0,17.38,3.88c10.33,0,19.61-4.48,27.57-13.32,12.86-14.29,18.34-35.89,17.74-41.58C226.59,383.07,221.15,381.15,216.24,381.15Zm-51.38,57.42c-15.79-6.77-25-17-27.45-30.31-1.82-10,.66-20.54,4.53-29,3.78,4,9.51,7.1,16.27,8.8,1.37.34,2.87.66,4.54,1-2.05,6-3.26,12.78-1,18.43,1.73,4.32,5.34,7.54,10.72,9.56a22.47,22.47,0,0,0,7.83,1.54c9.93,0,16-8.1,19.89-16.31l.62.41q1.88,1.28,3.76,2.51c4,2.61,9.26,5.77,14.93,7.48a69.23,69.23,0,0,1-10.84,16.75c-7.77,8.62-16.79,13-26.83,13A43.42,43.42,0,0,1,164.86,438.57Zm-7.44-75.3c3.54.65,7.05,3.4,9.17,5.79,1.7,1.93,2.71,3.85,2.58,4.91a24.56,24.56,0,0,1-1.84,4.32,103.69,103.69,0,0,0-4.24,9.77c-1.73-.32-3.24-.64-4.63-1-6.75-1.7-12.44-4.82-16.09-8.8a48.27,48.27,0,0,1,9.14-13.38,6.18,6.18,0,0,1,4.4-1.77A7.73,7.73,0,0,1,157.42,363.27Zm48.7,23c1.06-2.33,5.41-4.08,10.12-4.08,4.47,0,9.43,1.69,9.93,6.43.33,3.1-1.44,12.56-6.25,23.14-5.59-1.66-10.82-4.82-14.78-7.41-1.26-.82-2.51-1.66-3.76-2.5l-.75-.51A106,106,0,0,0,204.8,390C205.35,388.33,205.78,387,206.12,386.23Z"/><path class="cls-5" d="M203.57,408.18a5.27,5.27,0,0,0-3.38.31.21.21,0,0,0,.06.41,11.23,11.23,0,0,0,1.63-.15c.54-.05,1.08,0,1.62,0A.28.28,0,0,0,203.57,408.18Z"/><path class="cls-5" d="M203.92,409.91c-.43.13-.83.34-1.26.46a.34.34,0,0,0,.18.65,3.28,3.28,0,0,0,1.37-.62A.3.3,0,0,0,203.92,409.91Z"/><path class="cls-5" d="M157.07,390.92a3.09,3.09,0,0,0-2.74.86.24.24,0,0,0,.23.39c.42-.12.81-.32,1.23-.44s.86-.17,1.28-.26A.29.29,0,0,0,157.07,390.92Z"/><path class="cls-5" d="M157,393.94a2.66,2.66,0,0,0-1.95,1.06c-.22.27.15.65.4.39a3.91,3.91,0,0,1,1.62-.95C157.33,394.34,157.31,393.93,157,393.94Z"/><path class="cls-1" d="M148.62,395.47a9.37,9.37,0,0,0-2.05-.09c-.71,0-1.4,0-2.11.06s-.71.93-.35,1.31a4.49,4.49,0,0,0,4.78.72A1.1,1.1,0,0,0,148.62,395.47Z"/><path class="cls-1" d="M149.45,410.76a9.61,9.61,0,0,1-1.78.09,1,1,0,0,0-.27,2,3,3,0,0,0,2.83-.75C150.87,411.5,150.19,410.63,149.45,410.76Z"/><path class="cls-1" d="M158,427.8c-.81,0-1.27.85-1.45,1.51a.81.81,0,0,0,1,1,1.76,1.76,0,0,0,1.29-1.09A1.05,1.05,0,0,0,158,427.8Z"/><path class="cls-1" d="M180.14,431.39a1,1,0,0,0-1.62,0c-.6,1.23-.92,3.14-.15,4.37a1.12,1.12,0,0,0,1.92,0C181.07,434.53,180.74,432.62,180.14,431.39Z"/><path class="cls-1" d="M202.39,428.07c-.1-.31-.19-.62-.29-.94a1.48,1.48,0,0,0-2.86.79l.18,1a1.92,1.92,0,0,0,.92,1.1,1.3,1.3,0,0,0,1.79-.47A2,2,0,0,0,202.39,428.07Z"/><path class="cls-1" d="M211.61,419a3.23,3.23,0,0,0-1.23-1.86,1.48,1.48,0,1,0-2.1,2.1c.3.32.57.75,1,1.13A1.42,1.42,0,0,0,211.61,419Z"/><path class="cls-3" d="M92.28,316.27c2.55,1.35,3.59,4.6,3.2,7.46s-1.89,5.42-3.37,7.9l-6,10.1c-1.86,3.11-4.13,6.52-7.69,7.18a7.09,7.09,0,0,1-6.28-2.14,8.45,8.45,0,0,1-2.19-6.34,15.44,15.44,0,0,1,1-4.27,44.6,44.6,0,0,1,10.69-16.45,15.71,15.71,0,0,1,4.83-3.48A6.94,6.94,0,0,1,92.28,316.27Z"/><path class="cls-3" d="M118.55,319.92c3.14,1.63,4.43,5.57,4,9s-2.33,6.56-4.16,9.55l-7.45,12.23c-2.29,3.76-5.09,7.89-9.48,8.69a8.83,8.83,0,0,1-7.74-2.58,10.15,10.15,0,0,1-2.7-7.68,18.27,18.27,0,0,1,1.3-5.17,53.88,53.88,0,0,1,13.17-19.91,19.28,19.28,0,0,1,6-4.21A8.69,8.69,0,0,1,118.55,319.92Z"/><path class="cls-3" d="M147.58,319.24c2.33,2.76,2.41,8.33,1.07,12.94s-3.8,8.49-6.2,12.24l-9.81,15.29c-3,4.71-6.58,9.82-10.65,10.15-2.59.21-4.93-1.76-6.12-4.83a19.21,19.21,0,0,1-.33-10.89,36.63,36.63,0,0,1,2.52-6.78,85.55,85.55,0,0,1,16.88-24.74A19.87,19.87,0,0,1,141.3,318,5.35,5.35,0,0,1,147.58,319.24Z"/><path class="cls-4" d="M103.21,326.35A53.88,53.88,0,0,0,92.27,344a18.27,18.27,0,0,0-1.3,5.17,10.15,10.15,0,0,0,2.7,7.68,8.83,8.83,0,0,0,7.74,2.58,9.42,9.42,0,0,0,4.37-2.15A61.21,61.21,0,0,1,103.21,326.35Z"/><path class="cls-4" d="M131.85,360.93a58.82,58.82,0,0,1-.56-34.36,88.87,88.87,0,0,0-13.23,20.79,36.63,36.63,0,0,0-2.52,6.78,19.21,19.21,0,0,0,.33,10.89c1.19,3.07,3.53,5,6.12,4.83C125.71,369.56,129,365.26,131.85,360.93Z"/><path class="cls-4" d="M81.64,319.71A44.6,44.6,0,0,0,71,336.16a15.44,15.44,0,0,0-1,4.27,8.45,8.45,0,0,0,2.19,6.34,7.09,7.09,0,0,0,6.28,2.14,6.8,6.8,0,0,0,1.19-.35,46.49,46.49,0,0,1,2.78-29.51C82.1,319.27,81.86,319.48,81.64,319.71Z"/><path class="cls-5" d="M119.75,382.14c-3.12-2.3-55.87-32.52-61.47-35.73,2-4.24,18.88-39.34,26.51-48.08,5.86-6.71,5-10.12,4.6-11a2.16,2.16,0,0,0-2-1.34,4,4,0,0,0-2.55,1.15c-1.64,1.49-11.25,16.32-19.2,30-11,19-15.6,29.78-13.61,32,4,4.45,59.64,37.7,64.66,38.67a8.12,8.12,0,0,0,1.57.16h0c1.75,0,3-.7,3.41-1.88S121.34,383.31,119.75,382.14Zm.94,3.66c-.25.74-1.17,1.19-2.46,1.19h0a7.78,7.78,0,0,1-1.38-.14c-5-1-60.1-34-64.1-38.36-3.8-4.19,29.48-57.65,32.73-60.61a3,3,0,0,1,1.88-.89,1.17,1.17,0,0,1,1.12.75c.67,1.47-.1,4.95-4.45,9.93C75.86,307,57.94,344.8,57.18,346.4a.51.51,0,0,0,.2.65c.59.34,58.6,33.55,61.78,35.9C120.38,383.85,121,384.94,120.69,385.8Z"/><path class="cls-5" d="M95.2,318.77c-2.35-2.81-6.66-5.37-9-5.37a2.06,2.06,0,0,0-1.31.39c-1.65,1.31-19,22.53-18.47,28.51a1.84,1.84,0,0,0,.9,1.57c1.49.84,4.17,2.54,6.76,4.19,2.28,1.46,4.44,2.83,5.5,3.43a.85.85,0,0,0,.44.11c3.42,0,16.35-24.35,17-28.05C97.25,322.13,96.63,320.48,95.2,318.77Zm.81,4.6c-.89,5-13.84,27-16,27.23-1.05-.6-3.17-2-5.42-3.38-2.6-1.66-5.3-3.37-6.81-4.23-.15-.08-.35-.25-.39-.77-.43-5.29,15.86-25.87,18.09-27.65a1.15,1.15,0,0,1,.69-.17c1.88,0,5.9,2.19,8.27,5C95.29,320.44,96.27,322,96,323.37Z"/><path class="cls-5" d="M88.49,355.58c1.49.84,4.14,2.59,6.7,4.28,2.26,1.49,4.4,2.9,5.47,3.51a.68.68,0,0,0,.4.1c3.23,0,20.39-31.1,21.73-36.34.48-1.91-.11-4-1.73-6.09-2.16-2.78-5.78-5-8.24-5a2.58,2.58,0,0,0-1.83.63c-2.11,2-24,31.31-23.28,37.57A1.6,1.6,0,0,0,88.49,355.58Zm24.33-38.5c2.15,0,5.49,2.05,7.45,4.57,1,1.28,2.06,3.22,1.55,5.23-1.6,6.28-18.3,34.91-20.73,35.58-1.06-.61-3.15-2-5.35-3.44-2.58-1.7-5.24-3.46-6.76-4.31-.06,0-.23-.13-.28-.55-.67-5.57,20.13-34.05,23-36.72A1.59,1.59,0,0,1,112.82,317.08Z"/><path class="cls-5" d="M149,319.31c-1.88-2.59-4.86-4.39-7.25-4.39a3.32,3.32,0,0,0-2.52,1c-2.74,3-31.2,43.57-30.15,50.23a1.37,1.37,0,0,0,.67,1.06c1.48.84,4.09,2.65,6.62,4.4,2.23,1.55,4.34,3,5.42,3.62a.65.65,0,0,0,.36.1h0c3.67,0,26.69-42.83,28.38-48.07A8.77,8.77,0,0,0,149,319.31Zm.57,7.66c-2.75,8.55-24.5,46.11-27.38,47.35-1.07-.62-3.1-2-5.25-3.52-2.55-1.76-5.18-3.59-6.7-4.45-.08,0-.14-.16-.17-.34-.93-5.93,27-46.21,29.9-49.4a2.3,2.3,0,0,1,1.78-.69c2.06,0,4.77,1.67,6.45,4A7.78,7.78,0,0,1,149.55,327Z"/><path class="cls-5" d="M70.49,339.56c-.17-.25-.6-.1-.5.21a16,16,0,0,0,.72,2.84.34.34,0,0,0,.63-.17A6,6,0,0,0,70.49,339.56Z"/><path class="cls-5" d="M72.85,340.71a1.49,1.49,0,0,0,.12,2c.29.22.78,0,.66-.38s-.26-.72,0-1.16S73.17,340.21,72.85,340.71Z"/><path class="cls-5" d="M92.77,349.62a.28.28,0,0,0-.54,0,12.63,12.63,0,0,0-.06,4.42.35.35,0,0,0,.66,0A12.63,12.63,0,0,0,92.77,349.62Z"/><path class="cls-5" d="M94.24,352.3a4.91,4.91,0,0,0-.15,2.76c.11.37.76.44.82,0a23.12,23.12,0,0,1,.35-2.48A.53.53,0,0,0,94.24,352.3Z"/><path class="cls-5" d="M115,364.21a4.5,4.5,0,0,1-.14-1.27c0-.29-.44-.47-.6-.16-.39.79-.36,2.49.68,2.78a.38.38,0,0,0,.47-.47A5.85,5.85,0,0,0,115,364.21Z"/><path class="cls-5" d="M117.14,363.88c-.14-1.09-.16-2.19-.34-3.27-.06-.37-.58-.24-.61.08-.17,1.95-.27,4.69.75,6.44a.36.36,0,0,0,.67-.19C117.53,365.91,117.28,364.9,117.14,363.88Z"/><path class="cls-1" d="M91.86,320.5c-1.43-.57-3.37-.11-4.86,0a.67.67,0,0,0,0,1.33c1.49.14,3.43.6,4.86,0A.73.73,0,0,0,91.86,320.5Z"/><path class="cls-1" d="M90.85,323.52a5,5,0,0,0-1.85-.18.86.86,0,0,0,0,1.71,5.21,5.21,0,0,0,1.85-.18A.7.7,0,0,0,90.85,323.52Z"/><path class="cls-1" d="M114.88,325.42c-1.27-.31-2.78.27-4,.52-.69.14-.5,1.18.16,1.19,1.32,0,2.85.3,4.07-.24A.81.81,0,0,0,114.88,325.42Z"/><path class="cls-1" d="M115.8,329.15a15.67,15.67,0,0,1-3.13.24c-1.06-.05-1,1.48,0,1.61a6.7,6.7,0,0,0,3.7-.5C117.21,330.13,116.56,329,115.8,329.15Z"/><path class="cls-1" d="M143.89,324.05A6.86,6.86,0,0,0,141,324a.88.88,0,0,0,0,1.76,6.7,6.7,0,0,0,2.89-.07A.85.85,0,0,0,143.89,324.05Z"/><path class="cls-1" d="M144.24,327.33a6.77,6.77,0,0,0-2.57-.33,1.2,1.2,0,0,0,0,2.39,6.77,6.77,0,0,0,2.57-.33A.91.91,0,0,0,144.24,327.33Z"/><path class="cls-3" d="M258.83,144.84a851,851,0,0,0-63.27,84,100.37,100.37,0,0,1,26.13,48.83c.69,3.24,1.32,6.72,3.63,9.11s5.45,3.06,8.54,3.66c31.78,6.14,64.58,1.44,96.36-4.66,1.2-.23,2.58-.62,3-1.76a3.64,3.64,0,0,0-.32-2.45c-4.6-12-9.24-24.1-15.88-35.12-5.6-9.29-8.77-20.23-14-29.75-6.89-12.57-14.31-24.13-19.54-37.47S270.87,152.61,258.83,144.84Z"/><path class="cls-3" d="M144.78,271.32q5.35,17.16,11.83,33.95a16.45,16.45,0,0,1-15.28-4.6,18.66,18.66,0,0,1-4.86-15.37A21.64,21.64,0,0,1,144.78,271.32Z"/><path class="cls-3" d="M196.71,355.34c3.4,2.46,8,2.59,12.11,1.91a36.5,36.5,0,0,0,16.11-6.95c2.79-2.13,5.37-4.83,6.31-8.22,1.16-4.16-.33-8.57-2.15-12.48a72.07,72.07,0,0,0-10.48-16.3c-2.33-2.73-5-5.37-8.44-6.4-4.48-1.34-9.29.35-13.5,2.39s-8.4,4.53-13.07,4.87q2.81,14.82,6.73,29.4C191.51,348,193,352.68,196.71,355.34Z"/><path class="cls-3" d="M328.5,211.36a3.76,3.76,0,0,0,1.86,2c1.49.47,2.88-1,3.54-2.39,1.75-3.73,1.58-8.06.92-12.11-1-6.41-3.35-12.84-7.92-17.49s-11.74-7.18-17.95-5.05Z"/><path class="cls-4" d="M210.17,306.9c-4.48-1.34-9.29.35-13.5,2.39s-8.4,4.53-13.07,4.87q2.81,14.82,6.73,29.4c1.18,4.4,2.67,9.12,6.38,11.78a12.43,12.43,0,0,0,6,2.15q-1.34-12-2.66-23.94c-.59-5.35-1.13-11,1.27-15.85s6.82-7.46,11.79-9.43A12.51,12.51,0,0,0,210.17,306.9Z"/><path class="cls-4" d="M330.22,285.75c1.2-.23,2.58-.62,3-1.76a3.64,3.64,0,0,0-.32-2.45c-4.29-11.19-8.63-22.44-14.57-32.84-7.66,2.53-15.36,4.93-23.21,6.8a179.33,179.33,0,0,1-80.79.43,99.78,99.78,0,0,1,7.36,21.71c.69,3.24,1.32,6.72,3.63,9.11s5.45,3.06,8.54,3.66C265.64,296.55,298.45,291.85,330.22,285.75Z"/><path class="cls-4" d="M322.35,200.33l6.15,11a3.76,3.76,0,0,0,1.86,2c1.49.47,2.88-1,3.54-2.39,1.75-3.73,1.58-8.06.92-12.11a39.64,39.64,0,0,0-2.88-9.92A63.56,63.56,0,0,1,322.35,200.33Z"/><path class="cls-4" d="M137.44,294.39a17.72,17.72,0,0,0,3.89,6.28,16.45,16.45,0,0,0,15.28,4.6q-2.91-7.57-5.6-15.22c-.41.21-.82.43-1.25.62A42.38,42.38,0,0,1,137.44,294.39Z"/><path class="cls-2" d="M163,306.46c-4.91-3-8.19-8.11-10.76-13.29a81.86,81.86,0,0,1-8.26-30c-.45-5.89.07-12.58,4.54-16.45A58.25,58.25,0,0,0,217,292.19c2.07-.41,4.82-.61,5.67,1.32s-1.08,3.76-2.8,4.87A74.55,74.55,0,0,1,179,310.19C173.42,310.14,167.67,309.39,163,306.46Z"/><path class="cls-2" d="M218.39,309.7a2.15,2.15,0,0,1-2.49.66,6.19,6.19,0,0,1-2.24-1.61c-1.18-1.15-2.47-2.73-1.86-4.26a3.86,3.86,0,0,1,1.43-1.57,19.86,19.86,0,0,1,6.1-3l-.57,8.24A3.13,3.13,0,0,1,218.39,309.7Z"/><path class="cls-2" d="M345.63,286.14a4.82,4.82,0,0,1-5.16-.19,13.29,13.29,0,0,1-3.7-4,142.72,142.72,0,0,1-16.52-32c6.15.18,10.77-7.59,16.82-6.49a8.37,8.37,0,0,1,5.57,4.48,24.9,24.9,0,0,1,2.16,7c1.7,8.48,3.41,17.07,3,25.7C347.65,282.72,347.29,285,345.63,286.14Z"/><path class="cls-5" d="M230.79,312.4a2.25,2.25,0,0,0,.18-2.09c-1-3.26-6.8-8.83-11.14-12.37a25,25,0,0,0,2.07-2c1.7-1.88,2.44-4.6,2.62-7.63,16.61.74,50.57,2.09,77.64,2.09,17.65,0,27.65-.56,33.33-1.29.07.12.13.22.18.29a8.21,8.21,0,0,0,6.76,3.17,9.89,9.89,0,0,0,8.24-4.36c3.34-5-.94-30.19-20-71.35,4.92-6.2,9.65-16.4,2.87-29-6.15-11.38-15.36-13.77-22-13.77a32.07,32.07,0,0,0-3.32.19c-15.66-26.12-29.93-43.55-35.08-46.83a8.13,8.13,0,0,0-4.42-1.24c-3.82,0-8,2.46-9.59,5.59a4.77,4.77,0,0,0,.35,5.24c.16.2.31.41.47.62-15.84,16.25-54.55,70.27-68,89.16a17.37,17.37,0,0,0-4-.42c-15,0-40.41,15.17-43.76,24.11-1.44,3.83-1.47,10.42-.41,17.9-3.18,4.31-6.26,9.13-7.2,12.74-1.28,4.86-.08,11.64,3,16.85,2.28,3.91,5.38,6.53,8.72,7.4a16.07,16.07,0,0,0,4.11.47h0a30.46,30.46,0,0,0,4.87-.43c2.25,3,4.9,5.46,7.89,6.54a31.24,31.24,0,0,0,10.42,1.54h0c1.8,0,3.68-.11,5.6-.3,3,11.91,11.92,42.39,16.45,47.24,1.08,1.16,2.82,1.75,5.18,1.75h0c9,0,25.85-8.81,30.63-16,3-4.57-3.82-16.86-11.57-27.93C225.5,316.46,229.5,314.12,230.79,312.4Zm-27.86,48.81c-2.07,0-3.56-.48-4.45-1.43-4.4-4.71-13.16-35-16.16-46.67a84.21,84.21,0,0,0,27.88-8.7c9.59,11.34,26.65,35.07,22.53,41.26S212.13,361.21,202.93,361.21Zm-54.27-56.77c-3.09-.81-6-3.27-8.12-6.94-2.93-5-4.09-11.47-2.88-16.1.85-3.22,3.55-7.54,6.46-11.56A103.93,103.93,0,0,0,151.89,296a54.77,54.77,0,0,0,4.82,8.51,29.2,29.2,0,0,1-4.2.34A15.36,15.36,0,0,1,148.66,304.44Zm4.14-8.84c-6.91-14.93-10.58-36.67-7.56-44.73,2.91-7.76,27.52-23.47,42.83-23.47a15.2,15.2,0,0,1,5,.73c8.9,3.1,23.74,27.51,28.88,47.49,2.46,9.55,2.2,16.34-.75,19.61-8.29,9.21-29.54,17.29-45.47,17.29A30.24,30.24,0,0,1,165.61,311C161.16,309.43,156.73,304.1,152.8,295.6ZM260.05,132.25c1.4-2.83,5.22-5,8.7-5a7.11,7.11,0,0,1,3.88,1.09c5.75,3.66,29.95,32.86,53,80.1,22.44,46.06,27.69,74,24.24,79.21a8.83,8.83,0,0,1-7.4,3.92,7.21,7.21,0,0,1-5.94-2.75c-.71-1-4.47-9.36-9.68-20.94-15.68-34.87-48.3-107.44-66.5-131.41A3.81,3.81,0,0,1,260.05,132.25Zm72.64,56.09c6.48,12,2.24,21.61-2.42,27.56-1.2-2.59-2.46-5.23-3.78-7.94C320.68,196,314.66,185,308.81,175.23c.89-.08,1.81-.14,2.76-.14C320.83,175.09,327.94,179.55,332.69,188.34Zm-6.79,79.91c4.59,10.21,7.69,17.11,9.09,19.88-5.59.68-15.47,1.23-32.83,1.23-27.06,0-61-1.35-77.61-2.09a46.83,46.83,0,0,0-1.67-11.9c-4.72-18.35-19.57-44.72-29.53-48.18l-.29-.09c13.51-19,52-72.6,67.51-88.63C278.89,163.69,310.53,234.08,325.9,268.25ZM230,311.8c-1.2,1.59-5.13,3.87-8.58,5.67-3.63-5.11-7.38-9.91-10.39-13.5a48.89,48.89,0,0,0,8.08-5.39c4.22,3.44,10,9,10.92,12A1.35,1.35,0,0,1,230,311.8Z"/><path class="cls-5" d="M188.54,316.11A.31.31,0,0,0,188,316a7.07,7.07,0,0,0-.81,2c-.2.61-.76,1.78-.31,2.38a.41.41,0,0,0,.62.08c.49-.47.52-1.55.68-2.18A4.14,4.14,0,0,0,188.54,316.11Z"/><path class="cls-5" d="M188.79,319.19c0,.43-.18.83-.19,1.25a.41.41,0,0,0,.75.21,2.54,2.54,0,0,0,.36-1.46C189.73,318.59,188.86,318.62,188.79,319.19Z"/><path class="cls-5" d="M227,339.36a.3.3,0,0,0-.58,0c-.08.53-.11,1.06-.17,1.59a7.13,7.13,0,0,0-.12,1.84.35.35,0,0,0,.63.08A6.44,6.44,0,0,0,227,339.36Z"/><path class="cls-5" d="M228.7,341.36a1.09,1.09,0,0,1-.4.64.28.28,0,0,0,.2.48c.55-.06.75-.54.81-1C229.35,341.1,228.77,341,228.7,341.36Z"/><path class="cls-5" d="M216.21,305.13a8,8,0,0,1,0-2.19.17.17,0,0,0-.29-.11,2.2,2.2,0,0,0-.45,1.66,8.33,8.33,0,0,0,.28,2.28.3.3,0,0,0,.58,0A4.13,4.13,0,0,0,216.21,305.13Z"/><path class="cls-5" d="M217.73,305.87a6.27,6.27,0,0,0-.23,1.82.25.25,0,0,0,.49.07,9.28,9.28,0,0,0,.28-1.74C218.33,305.67,217.8,305.5,217.73,305.87Z"/><path class="cls-5" d="M143.36,282.44c-.37.06-.55.31-.79.58s-.6.57-.85.89,0,.81.39.67a4.3,4.3,0,0,0,1-.55c.38-.24.79-.47.89-.95A.53.53,0,0,0,143.36,282.44Z"/><path class="cls-5" d="M145.12,291.48a6.6,6.6,0,0,0-1.92.81,8.17,8.17,0,0,0-1.73,1.13c-.28.25,0,.79.38.65.68-.26,1.34-.57,2-.84a5.13,5.13,0,0,0,1.73-1C146,291.93,145.56,291.4,145.12,291.48Z"/><path class="cls-5" d="M148.13,298.77a5,5,0,0,1-1.38.21c-.53-.05-.63.8-.12.91a1.92,1.92,0,0,0,1.93-.38A.44.44,0,0,0,148.13,298.77Z"/><path class="cls-5" d="M147.41,250.54c-.87.47-1.07,1.64-1.27,2.54a10,10,0,0,0-.32,3.73.45.45,0,0,0,.86,0,17.85,17.85,0,0,0,.27-3c.07-.83.1-2.28.68-3A.18.18,0,0,0,147.41,250.54Z"/><path class="cls-5" d="M149,255.94a.29.29,0,0,0-.58,0,10.72,10.72,0,0,0,0,2.83.27.27,0,0,0,.52,0A10.72,10.72,0,0,0,149,255.94Z"/><path class="cls-5" d="M216.87,287.34c-.09-.34-.67-.38-.74,0a34,34,0,0,0-.84,5.35.47.47,0,0,0,.91.13A9.83,9.83,0,0,0,216.87,287.34Z"/><path class="cls-5" d="M219.09,291.1a.35.35,0,0,0-.68,0c-.09.53-.22,1.06-.28,1.59s.51.48.69.19A2.36,2.36,0,0,0,219.09,291.1Z"/><path class="cls-5" d="M229.64,280.29a3.88,3.88,0,0,0-1.36,1l-.51.5a.48.48,0,0,0-.12.22v.09s0,.05,0,.06a.13.13,0,0,0,.06.19.91.91,0,0,0,.88-.21,5.15,5.15,0,0,0,1.52-1.21A.42.42,0,0,0,229.64,280.29Z"/><path class="cls-5" d="M234.51,280a14.19,14.19,0,0,0-2.6,2.24c-1,1-1.95,1.94-2.88,3a.31.31,0,0,0,.44.43c.91-.84,1.85-1.65,2.8-2.45a20.44,20.44,0,0,0,2.82-2.42C235.43,280.38,235,279.73,234.51,280Z"/><path class="cls-5" d="M235.21,283.52a7.21,7.21,0,0,1-1,1.39.41.41,0,0,0,.58.57,3.28,3.28,0,0,0,1-1.7A.34.34,0,0,0,235.21,283.52Z"/><path class="cls-5" d="M318.54,281.58a10.67,10.67,0,0,0-1.76,1.73c-.57.66-1.18,1.26-1.8,1.87a.38.38,0,0,0,.46.59,11.84,11.84,0,0,0,3.68-3.61C319.37,281.82,318.87,281.33,318.54,281.58Z"/><path class="cls-5" d="M323.79,280.58c-2.32,1.05-4,3.67-5.6,5.56-.36.42.22,1,.62.61.91-.92,1.81-1.87,2.73-2.78a30.93,30.93,0,0,0,2.76-2.73A.42.42,0,0,0,323.79,280.58Z"/><path class="cls-5" d="M325.48,283.42a6.73,6.73,0,0,0-1.37,1.68,26.69,26.69,0,0,1-1.66,2.29c-.34.42.22,1,.6.61a13.82,13.82,0,0,0,3.07-4.2C326.27,283.39,325.75,283.22,325.48,283.42Z"/><path class="cls-5" d="M327.19,286.77a6.1,6.1,0,0,1-.72.89c-.38.37.18.91.56.57a2.7,2.7,0,0,0,.81-1.19C328,286.64,327.41,286.45,327.19,286.77Z"/><path class="cls-5" d="M345.88,284.74c-1.86.64-3.36,1.94-5.38,2.15a.31.31,0,0,0,0,.61,9.4,9.4,0,0,0,5.74-1.9C346.64,285.31,346.42,284.56,345.88,284.74Z"/><path class="cls-5" d="M269.8,130.35a20.69,20.69,0,0,0-2.66,1.93,9,9,0,0,0-2.4,2.51.3.3,0,0,0,.47.37,20.47,20.47,0,0,1,2.46-2.2,15.87,15.87,0,0,0,2.61-2A.4.4,0,0,0,269.8,130.35Z"/><path class="cls-5" d="M280.53,141.06a23.3,23.3,0,0,0-6.75,5.66.31.31,0,0,0,.44.45c2.18-2,4.6-3.55,6.84-5.41C281.46,141.42,281,140.83,280.53,141.06Z"/><path class="cls-5" d="M292.88,161c-2.69.73-4.87,2.67-7.45,3.68-.22.08-.28.45,0,.51a5.24,5.24,0,0,0,3.16-.84c1.59-.77,3.09-1.69,4.64-2.52A.46.46,0,0,0,292.88,161Z"/><path class="cls-5" d="M303.37,183.23c-1.16.43-2.18,1.15-3.35,1.59a23.45,23.45,0,0,1-3.58.9c-.29.06-.18.43.06.46,2.17.28,5.85-.42,7.34-2.14C304.13,183.7,303.86,183,303.37,183.23Z"/><path class="cls-5" d="M317.37,205.47a9.89,9.89,0,0,0-2.88,1.78c-1.16.9-2.33,1.79-3.49,2.7-.33.26.09.71.43.55a29,29,0,0,0,3.41-2.08,19.25,19.25,0,0,0,3-2.13A.5.5,0,0,0,317.37,205.47Z"/><path class="cls-5" d="M327.77,225.05c-2.71,1.68-5.31,3.46-8.17,4.89a.29.29,0,0,0,.23.53,20.62,20.62,0,0,0,8.49-4.71A.45.45,0,0,0,327.77,225.05Z"/><path class="cls-5" d="M338.36,254.19c-2.18.52-4.11,1.85-6.23,2.58a.44.44,0,0,0,.24.85,25.94,25.94,0,0,0,6.4-2.47A.53.53,0,0,0,338.36,254.19Z"/><path class="cls-5" d="M330.52,205.62a.28.28,0,0,0-.54,0c-.13.7-.18,1.42-.33,2.12s-.39,1.39-.49,2.11c0,.36.44.65.64.27A7.61,7.61,0,0,0,330.52,205.62Z"/><path class="cls-5" d="M331.63,207.09a8.93,8.93,0,0,0-.45,2.6.32.32,0,0,0,.63.09c.25-.81.35-1.66.56-2.48A.38.38,0,0,0,331.63,207.09Z"/><path class="cls-1" d="M199.39,333a50.76,50.76,0,0,1-1.63-5.12,1.14,1.14,0,0,0-2.19.61c.45,1.94,1,3.86,1.62,5.75.5,1.49,1,3.2,2.32,4.12a1,1,0,0,0,1.47-.84C201,336,199.93,334.45,199.39,333Z"/><path class="cls-1" d="M213,342.29c-4.34-8.13-8.35-16.17-12.17-24.57-.44-1-2.11-.26-1.71.72,3.28,8.24,5.74,18.73,12.1,25.22A1.14,1.14,0,0,0,213,342.29Z"/><path class="cls-1" d="M215.57,329a62.9,62.9,0,0,1-2.89-7.37,1.05,1.05,0,0,0-2,.56,17.79,17.79,0,0,0,3.35,7.72C214.59,330.55,215.92,329.81,215.57,329Z"/><path class="cls-1" d="M261.89,157.75c-1,.89-2,1.79-3,2.75s-2.46,2.18-2.26,3.69a1.41,1.41,0,0,0,1.73,1.32c1.39-.24,2.06-1.69,2.78-2.75.83-1.23,1.67-2.43,2.47-3.68S262.79,157,261.89,157.75Z"/><path class="cls-1" d="M269.69,170.43c-1.89,1.15-4.77,2.22-5.6,4.42a1.29,1.29,0,0,0,1.24,1.63c2.35.08,4.37-2.56,5.9-4A1.28,1.28,0,0,0,269.69,170.43Z"/><path class="cls-1" d="M277.21,190.51c-2.27,1.24-5.48,2.24-6.79,4.62-.48.86.1,2.32,1.25,2.18,2.8-.35,5.35-2.55,7.43-4.34C280.49,191.77,278.72,189.69,277.21,190.51Z"/><path class="cls-1" d="M306,243.38a19,19,0,0,0-6.75,1c-1.38.5-1.64,2.66,0,3,2.47.57,4.77-.5,7.14-1.1A1.49,1.49,0,0,0,306,243.38Z"/><path class="cls-1" d="M315.6,264.09a1.69,1.69,0,0,0-2-1.16c-1.43.19-2.83.34-4.25.65a1.34,1.34,0,0,0,0,2.56,10.25,10.25,0,0,0,5.13,0A1.66,1.66,0,0,0,315.6,264.09Z"/><path class="cls-2" d="M142.76,137.75c3.06,2.6,3.56,7.35,2.11,11.1s-4.45,6.67-7.57,9.21c-13.61,11.07-30.66,16.94-47.58,21.57-4.71,1.29-9.81,2.49-14.36.73s-7.43-6-9.86-10.09a117.11,117.11,0,0,1-9.12-19.44,24.09,24.09,0,0,1-1.8-8.28A9.37,9.37,0,0,1,58,135.06c3.86,4,9.14,6.26,14.41,8A94.54,94.54,0,0,0,142.76,137.75Z"/><path class="cls-3" d="M93.55,158.46c1.82.27,3.61-.65,5.14-1.67a31.93,31.93,0,0,0,11.1-12.92c1.49-3.16,2.41-7,.73-10.07a9.18,9.18,0,0,0-6.33-4.2,27.24,27.24,0,0,0-7.81-.06l-13.52,1.2c-1.45.13-3.18.45-3.76,1.79a4,4,0,0,0,.38,3.08,151.1,151.1,0,0,0,8.79,18C89.5,155.75,91.1,158.09,93.55,158.46Z"/><path class="cls-4" d="M98.08,143.09a28,28,0,0,1-15.32-12.34c-1.43.14-3.09.47-3.66,1.78a4,4,0,0,0,.38,3.08,151.1,151.1,0,0,0,8.79,18c1.23,2.15,2.83,4.49,5.28,4.86,1.82.27,3.61-.65,5.14-1.67a31.92,31.92,0,0,0,10.93-12.57A27.67,27.67,0,0,1,98.08,143.09Z"/><path class="cls-5" d="M78.33,183.69a2.69,2.69,0,0,0,1.3.26h0c9.43,0,57-21.93,64.75-32.59,1.57-2.16,2-5.21,1.18-9.07-3.05-15-22.28-37.24-26.37-39.69a3.3,3.3,0,0,0-1.68-.34c-10.41,0-57.16,21.78-61.36,30.19C50.83,143.09,73.35,180.92,78.33,183.69Zm40.35-80.23c3.88,2.33,23,24.62,25.9,39,.73,3.57.39,6.36-1,8.28C136.06,161.09,88.41,183,79.63,183a1.75,1.75,0,0,1-.82-.13c-4.74-2.64-26.73-40-21.76-49.93,4.12-8.25,50.19-29.63,60.46-29.63A2.41,2.41,0,0,1,118.68,103.46Z"/><path class="cls-5" d="M94.72,159.7a2,2,0,0,0,.82.16h0c3.67,0,10.6-9,14.34-15.32,1.64-2.78,5.3-9.54,3.87-12.11s-9.08-3.12-13.47-3.12c-7.86,0-17.12,1.33-19,3.54-.94,1.1-1.13,2.89-.58,5.33C82.37,145.67,90.84,158,94.72,159.7Zm5.56-29.39c6.88,0,11.71,1,12.6,2.6.79,1.43-.72,5.8-3.86,11.12-4.73,8-10.91,14.83-13.48,14.83h0a.93.93,0,0,1-.42-.08c-3.3-1.47-11.76-13.23-13.47-20.82-.47-2.09-.34-3.63.37-4.46C83.5,131.77,91.86,130.31,100.28,130.31Z"/><path class="cls-5" d="M81.7,174.9A9.13,9.13,0,0,0,79,180.11a.31.31,0,0,0,.6.17,10.61,10.61,0,0,1,1.3-2.61,16.78,16.78,0,0,0,1.51-2.26A.42.42,0,0,0,81.7,174.9Z"/><path class="cls-5" d="M82.79,178.07a3.66,3.66,0,0,0-.58,1.29.3.3,0,0,0,.58.17c.13-.43.27-.86.44-1.27S82.94,177.87,82.79,178.07Z"/><path class="cls-5" d="M142,149.32c-1.31-.74-3.26-.32-4.72-.46-.39,0-.43.54-.09.65a8.71,8.71,0,0,0,2,.34c.85.08,1.71.27,2.56.28A.44.44,0,0,0,142,149.32Z"/><path class="cls-5" d="M142.21,147.48a3.1,3.1,0,0,0-1.37-.61.33.33,0,0,0-.18.64c.43.14.83.35,1.26.47A.3.3,0,0,0,142.21,147.48Z"/><path class="cls-5" d="M61.84,135.14c-.54-.09-1.06-.14-1.59-.28a4.54,4.54,0,0,0-1.83-.21.31.31,0,0,0,0,.59,15.55,15.55,0,0,1,2,.54,1.6,1.6,0,0,0,1.49-.06C62.1,135.58,62.14,135.19,61.84,135.14Z"/><path class="cls-5" d="M60.87,132.24a4.06,4.06,0,0,0-1.55-.55.26.26,0,0,0-.14.51c.5.15,1,.37,1.51.48A.24.24,0,0,0,60.87,132.24Z"/><path class="cls-5" d="M117.74,105.88a.25.25,0,0,0-.49.06,7.85,7.85,0,0,1-.21,2,6.72,6.72,0,0,0-.37,1.7.33.33,0,0,0,.61.17A5.27,5.27,0,0,0,117.74,105.88Z"/><path class="cls-5" d="M119.92,106.69a2.12,2.12,0,0,0,.09.57.25.25,0,0,0,.48,0,2.12,2.12,0,0,0,.09-.57A.33.33,0,0,0,119.92,106.69Z"/><path class="cls-5" d="M77.33,133.65A2.81,2.81,0,0,1,76,133a.31.31,0,0,0-.48.37,1.61,1.61,0,0,0,1.84.88A.3.3,0,0,0,77.33,133.65Z"/><path class="cls-5" d="M95.08,162.1a.35.35,0,0,0-.66,0c-.09.34-.12.68-.22,1a4.62,4.62,0,0,0-.32,1.08.38.38,0,0,0,.56.33A2.62,2.62,0,0,0,95.08,162.1Z"/><path class="cls-5" d="M117.42,130.65a2.44,2.44,0,0,0-1.22.87.35.35,0,0,0,.39.51,2.3,2.3,0,0,0,1.13-.87C117.89,131,117.74,130.51,117.42,130.65Z"/><path class="cls-5" d="M95.3,154.12c-.08,0-.18,0-.13.12s-.18.59-.19.63a6.67,6.67,0,0,0-.26,1.07.28.28,0,0,0,.48.2,2.49,2.49,0,0,0,.48-1.31A.57.57,0,0,0,95.3,154.12Z"/><path class="cls-5" d="M96.46,154.69a7,7,0,0,1-.47,1.68.27.27,0,0,0,.45.26,3,3,0,0,0,.6-1.94C97,154.32,96.49,154.33,96.46,154.69Z"/><path class="cls-1" d="M99.28,138.5a27.21,27.21,0,0,1-5.18.23,1.06,1.06,0,0,0-1.06.83.62.62,0,0,0-.4.83,11.63,11.63,0,0,0,2.93,4.26,1.09,1.09,0,0,0,1.52,0c1.18-1.32,1.69-3.08,2.94-4.33C100.64,139.71,100.24,138.41,99.28,138.5Z"/><path class="cls-3" d="M153.41,60.7a2.59,2.59,0,0,1,.8,1.72c-.08.85-1,1.37-1.73,1.75a40.8,40.8,0,0,0-10.06,6.55,19.73,19.73,0,0,0-6.09,10.18,18.37,18.37,0,0,0-6-6.56,35.29,35.29,0,0,1,12.46-16.45A7.93,7.93,0,0,1,146,56.33C149,55.86,151.47,58.4,153.41,60.7Z"/><path class="cls-3" d="M190.39,132.41c.61-9.8,9.36-18.43,19.17-18.9-11.91-15.11-27-27.36-41.94-39.47A7.18,7.18,0,0,0,164,72.1c-1.78-.16-3.38,1-4.79,2.08l-9.6,7.41c-1.37,1.06-2.85,2.32-3,4s.92,3.05,1.93,4.3A308.16,308.16,0,0,0,190.39,132.41Z"/><path class="cls-3" d="M213,130.06a7.81,7.81,0,0,0-6.53,6.3l6.79.17A7.56,7.56,0,0,0,213,130.06Z"/><path class="cls-4" d="M139.9,73.49A27.65,27.65,0,0,1,133.38,68a35.31,35.31,0,0,0-3.09,6.33,18.37,18.37,0,0,1,6,6.56A18.17,18.17,0,0,1,139.9,73.49Z"/><path class="cls-4" d="M194.19,122.17a148,148,0,0,1-44.62-40.59h0c-1.37,1.06-2.85,2.32-3,4s.92,3.05,1.93,4.3a308.16,308.16,0,0,0,41.91,42.48A19.67,19.67,0,0,1,194.19,122.17Z"/><path class="cls-2" d="M193.85,122.67a18.15,18.15,0,0,0,13.4,5.79c.43,2.36.73,5.19-1.06,6.8-1.33,1.2-3.32,1.22-5.11,1.17-3.41-.09-7.36-.46-9.27-3.29C190.23,130.8,193.32,125.43,193.85,122.67Z"/><path class="cls-2" d="M141.78,73.6a11.25,11.25,0,0,0,8.27,7.57,6.84,6.84,0,0,1-5,6.43,7.12,7.12,0,0,1-7.59-3.13C135.89,82,140,75.9,141.78,73.6Z"/><path class="cls-5" d="M137.27,81.31l-.21.83,0,.19c-.59,2.35,6.23,7,8,7.92a1.18,1.18,0,0,0,.52.13,1.14,1.14,0,0,0,.8-.35c3.08,3.64,12.83,13.54,41.09,40.6l3.09,3,0,0h0l.29.23.06,0c.05,0,.13.07.19.11l.36.2.36.16.3.13.6.24.15.05.84.28h0l1,.3h0l1,.27.29.08.8.19.95.21.19.05a55.11,55.11,0,0,0,10.75,1.31h0c.71,0,1.36,0,1.94-.08a7.37,7.37,0,0,0,2.68-.68,2.35,2.35,0,0,0,.74-.59,1.85,1.85,0,0,0,.27-.43,5.09,5.09,0,0,0,.38-2.05h0c0-.22,0-.45,0-.68s0-.21,0-.32,0-.28,0-.43,0-.48-.07-.75v-.06q-.66-5.62-4.71-17.16l-.15-.43c-.68-2-40.54-39.29-44.86-43.27a1.36,1.36,0,0,0,.13-.86c-.38-2.39-6.16-6.86-7.5-7.29a1.51,1.51,0,0,0-.5-.07,4,4,0,0,0-1.18.23c-3.24-3-6.71-6.19-8-6.91a2.21,2.21,0,0,0-1.08-.25c-4,0-13.69,7.29-15.93,16.09C130.21,74,133.57,77.91,137.27,81.31Zm-5.46-9.56c2.22-8.7,11.76-15.34,15-15.34a1.21,1.21,0,0,1,.59.12A68.89,68.89,0,0,1,154.82,63c-2.68,1.2-6.73,4.09-10.79,8.21-4.34,4.41-5.73,6.92-6.44,9C134.17,77,131.32,73.67,131.81,71.75Zm81.54,63.76c-.3.36-1.29,1-4.59,1-.68,0-1.44,0-2.24-.09a12.42,12.42,0,0,1,6.82-6.78C214.12,133.78,213.69,135.09,213.35,135.51Zm-.21-6.88a13.41,13.41,0,0,0-7.64,7.69c-5.62-.51-12.35-2.1-14.08-3.27l0,0c.18-3,.68-7.56,1.34-8.56,1-1.51,5.42-6.47,7.29-7.42,1.65-.84,7.35-2.11,9-2.45h0q.27.8.54,1.56A110.69,110.69,0,0,1,213.14,128.63Zm-13.6-12.49c-2.11,1.08-6.63,6.18-7.67,7.77-.83,1.27-1.28,6-1.44,8.22l-2.32-2.22c-29-27.78-38.85-37.82-41.37-40.82.6-2,3.5-7.64,17.48-17.84,4,3.42,40,37.59,44.22,42.42C206.46,114.1,201.22,115.28,199.54,116.14Zm-35.6-45.92c-15.15,11-17.82,17-18.27,19a.16.16,0,0,1-.15.13l-.07,0c-2.76-1.39-7.77-5.55-7.46-6.79l0-.19c.65-2.64,1.21-4.91,6.72-10.5s10.66-8.54,12.29-8.54a.66.66,0,0,1,.19,0c1.22.39,6.53,4.68,6.82,6.5C164.08,70.09,164,70.16,163.94,70.22Z"/><path class="cls-5" d="M136.28,76c0-.34-.06-.68-.08-1,0-.18-.28-.29-.38-.1a3,3,0,0,0-.17,1,2.63,2.63,0,0,0,.12,1.5.27.27,0,0,0,.49-.06A3.6,3.6,0,0,0,136.28,76Z"/><path class="cls-5" d="M138.29,74.19a.29.29,0,0,0-.58,0,10.26,10.26,0,0,0,0,1.57.25.25,0,0,0,.48,0A10.26,10.26,0,0,0,138.29,74.19Z"/><path class="cls-5" d="M143.64,83.2a15.75,15.75,0,0,1-2-1.19.26.26,0,0,0-.36.37,4.07,4.07,0,0,0,2.11,1.34A.28.28,0,0,0,143.64,83.2Z"/><path class="cls-5" d="M147.23,80.21a26.59,26.59,0,0,0-4.33-3.27c-.32-.2-.6.29-.3.5,1.45,1,2.68,2.47,4.23,3.29A.33.33,0,0,0,147.23,80.21Z"/><path class="cls-5" d="M149.21,76.32a3.55,3.55,0,0,0-1-1.09.31.31,0,0,0-.44.43,3.88,3.88,0,0,0,1.1,1A.25.25,0,0,0,149.21,76.32Z"/><path class="cls-5" d="M152.54,74.52c-.39-.63-.95-1.17-1.38-1.78s-.95-1.46-1.42-2.19a.28.28,0,0,0-.48.29c.38.78.77,1.55,1.21,2.3A4.45,4.45,0,0,0,152.08,75,.34.34,0,0,0,152.54,74.52Z"/><path class="cls-5" d="M155,71.24c-.45-.39-1-.62-1.5-1-.28-.22-.67.14-.4.41a3.5,3.5,0,0,0,1.62,1.07C154.93,71.76,155.19,71.45,155,71.24Z"/><path class="cls-5" d="M160,69.47c-.62-.64-1.33-1.18-1.95-1.82a28.15,28.15,0,0,0-2.1-2.13.25.25,0,0,0-.36.35c1.23,1.3,2.28,3.59,4.09,4.13A.32.32,0,0,0,160,69.47Z"/><path class="cls-5" d="M188.73,118.71c-1.94-2-4.57-3.12-6.3-5.37-.16-.21-.5,0-.36.21,1.35,2.39,4.06,4.14,6.26,5.68C188.65,119.45,189,119,188.73,118.71Z"/><path class="cls-5" d="M178.23,109.56a2.21,2.21,0,0,0-1.66-1.13.27.27,0,0,0-.14.52,3.59,3.59,0,0,1,1.38.93A.27.27,0,0,0,178.23,109.56Z"/><path class="cls-5" d="M174.26,94c-3.4-4.68-7.94-8.56-12.38-12.23-.18-.14-.44.1-.26.26a170.71,170.71,0,0,1,12.17,12.34C174,94.66,174.46,94.32,174.26,94Z"/><path class="cls-5" d="M180.93,101c-.81-.77-1.68-1.48-2.49-2.26-.25-.24-.63.14-.38.38a24,24,0,0,0,2.56,2.28C180.85,101.59,181.13,101.21,180.93,101Z"/><path class="cls-5" d="M203.18,132.93a9.35,9.35,0,0,0-1.26.43c-.48.17-1,.23-1.48.36-.27.07-.19.43.06.46a3.88,3.88,0,0,0,2.94-.79A.28.28,0,0,0,203.18,132.93Z"/><path class="cls-5" d="M203.89,134.51a1.32,1.32,0,0,1-.89.17c-.3,0-.36.47-.07.52a1.26,1.26,0,0,0,1.22-.36A.21.21,0,0,0,203.89,134.51Z"/><path class="cls-1" d="M181.79,111.07c-8.6-7-16.32-15.26-25.29-21.83-.3-.22-.69.28-.4.52,8.48,7.12,15.54,16.33,24.91,22.32C181.62,112.47,182.36,111.54,181.79,111.07Z"/><path class="cls-1" d="M192.48,110.71c-3.91-4.44-9-7.63-12.79-12.21-.36-.44-1.14.16-.8.62,3.57,4.74,8.14,8.72,12.63,12.56A.68.68,0,0,0,192.48,110.71Z"/><path class="cls-3" d="M309,105.45c-1.28,3.72-2.37,7.74-1.32,11.52,1.36,4.88,6.28,8.3,11.33,8.69s10.07-1.84,13.84-5.24,6.39-7.88,8.5-12.49c2.75-6,4.71-12.67,3.73-19.21s-5.52-12.88-12-14.33a10,10,0,0,0-7.43,1,15,15,0,0,0-4.31,4.78A114.33,114.33,0,0,0,309,105.45Z"/><path class="cls-4" d="M320.11,107.38a29.76,29.76,0,0,1-4.71-16.9,115.36,115.36,0,0,0-6.4,15c-1.28,3.72-2.37,7.74-1.32,11.52,1.36,4.88,6.28,8.3,11.33,8.69s10.07-1.84,13.84-5.24c.58-.53,1.13-1.1,1.67-1.68A29.82,29.82,0,0,1,320.11,107.38Z"/><path class="cls-2" d="M343.64,135c-3.44-1.89-7.18-4.31-7.94-8.16-.84-4.3,2.4-8.22,5.42-11.41,5.56,6.6,14.63,9.4,23.26,9.33s17-2.65,25.27-5.2a5.94,5.94,0,0,1-5.06,10.2c1.81,3.88-1.6,9.1-5.88,9,.33,3.83-3.45,7-7.27,7.44s-7.54-1.14-11-2.75Q351.88,139.56,343.64,135Z"/><path class="cls-5" d="M326,126.07a5.58,5.58,0,0,0,3.67-1.12c11.22,10,35,20.18,42.49,20.18a5.92,5.92,0,0,0,.76,0c6.29-.81,7.09-5.06,7.19-6.38,5.44-1.85,7-7.22,7.25-8.42,7.82-4.56,7-11.57,6.58-13.49a7.48,7.48,0,0,0,4.14-3.14,7.36,7.36,0,0,0,.35-6.06c-2.08-6.68-21.69-10.34-26.42-11.13,2.5-2.5,10.48-11.06,10.16-18.26-.21-4.9-2.92-5.93-5.17-5.93-3.49,0-8.65,2.52-14.92,7.27a28.08,28.08,0,0,1-15.37,5.78,6.91,6.91,0,0,0,0-2.3c-1.22-4.86-13.59-10.57-19.2-10.57a4.09,4.09,0,0,0-2.72.76c-6.73,5.88-18.66,35.09-18.29,40.57C306.77,118.5,318.8,126.07,326,126.07Zm19.73-42.79c1.31,5.26-12,36.56-16.57,40.81a4.5,4.5,0,0,1-3.16,1c-6.47,0-18.23-7.21-18.51-11.35-.36-5.36,11.34-34,17.95-39.75a3.24,3.24,0,0,1,2.06-.51C333.17,73.46,344.65,79.13,345.69,83.28Zm31.27-10c2.67,0,4,1.63,4.17,5,.35,7.89-10.45,18.09-10.56,18.19a.52.52,0,0,0-.14.52.51.51,0,0,0,.41.34c.24,0,24.46,3.75,26.59,10.6a6.38,6.38,0,0,1-.25,5.25,6.81,6.81,0,0,1-4,2.81.51.51,0,0,0-.37.64c0,.08,2.43,8-6.19,12.93a.51.51,0,0,0-.25.35c0,.06-1.22,6.24-6.94,8a.5.5,0,0,0-.36.5c0,.2.16,4.9-6.33,5.74a6.05,6.05,0,0,1-.63,0c-7.2,0-30.78-10.16-41.78-19.89,4.51-5.32,14.49-28.33,16.17-37.88a29,29,0,0,0,16.14-6C368.74,75.73,373.69,73.28,377,73.28Z"/><path class="cls-5" d="M328.25,119.62a12.64,12.64,0,0,0-5.61,1.64.22.22,0,0,0,.17.4c1-.21,2-.52,2.95-.73a12.64,12.64,0,0,0,2.65-.71C328.71,120.09,328.56,119.6,328.25,119.62Z"/><path class="cls-5" d="M327.13,122a1.36,1.36,0,0,1-.88.18c-.3,0-.37.49-.07.53a1.34,1.34,0,0,0,1.24-.33A.24.24,0,0,0,327.13,122Z"/><path class="cls-5" d="M338.75,122.09a8,8,0,0,0-2.18.22c-.8.14-1.6.22-2.39.36-.35.06-.21.52.07.56a9.9,9.9,0,0,0,2.43-.1,13,13,0,0,0,2.16-.34A.36.36,0,0,0,338.75,122.09Z"/><path class="cls-5" d="M338.83,124.66a3.31,3.31,0,0,0-1.33,0,.34.34,0,0,0,0,.67,3.31,3.31,0,0,0,1.33,0A.3.3,0,0,0,338.83,124.66Z"/><path class="cls-5" d="M370.25,92.67a3.53,3.53,0,0,0-2.47,1.9c-.13.24.2.52.4.3a6.49,6.49,0,0,1,1-1c.36-.27.78-.46,1.17-.7C370.6,93.05,370.54,92.64,370.25,92.67Z"/><path class="cls-5" d="M372.87,90a6.77,6.77,0,0,0-.6.49c-.31.27.18.76.46.45s.33-.39.49-.6S373.07,89.83,372.87,90Z"/><path class="cls-1" d="M323.71,109.63a3.48,3.48,0,1,0,3.48,3.48A3.52,3.52,0,0,0,323.71,109.63Z"/><path class="cls-3" d="M445.58,173.38q.42-8.69.85-17.39c.16-3.25.16-6.94-2.19-9.2-2-1.92-5-2.14-7.81-2.24q-19.14-.66-38.29-.54c-5,0-10.44.29-14.11,3.65-2.54,2.33-3.75,5.76-4.57,9.11a59.85,59.85,0,0,0-1.56,18.43c.27,3.89,1,8,3.44,11s7,4.73,10.38,2.85c-.41,2.43-.23,5.78,2.18,6.29a5.12,5.12,0,0,0,3.31-.9A57,57,0,0,1,425.74,188c5.82.22,12.59,1,16.56-3.27C445,181.78,445.38,177.4,445.58,173.38Z"/><path class="cls-4" d="M407.82,177.65c-12.6-2.68-24.7-11.65-28.39-23.58a32.19,32.19,0,0,0-1.22,4,59.85,59.85,0,0,0-1.56,18.43c.27,3.89,1,8,3.44,11s7,4.73,10.38,2.85c-.41,2.43-.23,5.78,2.18,6.29a5.12,5.12,0,0,0,3.31-.9,57,57,0,0,1,28.53-6.45c5.82.22,12.59,1,16.56-3.27,2.49-2.68,3-6.54,3.21-10.23C432.17,178.39,419.83,180.2,407.82,177.65Z"/><path class="cls-5" d="M379,163.23c.08,10.76,1.47,25,3,26.26s4,1.44,6,1.66a10.79,10.79,0,0,1,2.58.44c.37.26.18,2.56.08,3.8-.19,2.29-.38,4.45.48,5.3a1,1,0,0,0,.74.28h0c1.74,0,6.35-3.24,11.32-6.85,1.38-1,2.82-2.05,3.06-2.15s2.32-.07,4.67-.08c9.87,0,30.42-.13,34-3.44,4.31-4,4.86-40.06,2.08-43.24-1.89-2.16-26.7-2.22-29.52-2.22-5.36,0-32.31.15-35.86,3.19C379.34,148.13,378.91,156.53,379,163.23Zm3.3-16.29c2-1.74,16.51-2.95,35.21-2.95,16.9,0,27.9.95,28.76,1.88,2,2.23,2.45,37.74-2,41.85-3.29,3-24.34,3.13-33.33,3.17A38,38,0,0,0,406,191a25.79,25.79,0,0,0-3.36,2.3c-3.21,2.32-9.17,6.66-10.73,6.66h0c-.52-.52-.33-2.83-.19-4.51.2-2.39.36-4.28-.62-4.77a10,10,0,0,0-2.92-.55c-1.93-.2-4.33-.46-5.49-1.43s-3-16.92-2.59-29.88C380.28,149.94,381.54,147.56,382.26,146.94Z"/><path class="cls-5" d="M386.6,184.44a4.39,4.39,0,0,0-2.36,2.18c-.12.29.33.45.49.21A11.18,11.18,0,0,1,387,184.9C387.23,184.66,386.89,184.31,386.6,184.44Z"/><path class="cls-5" d="M387.88,185.73a6.94,6.94,0,0,0-1.1,1,.31.31,0,0,0,.44.45,7.94,7.94,0,0,0,1-1.1C388.36,185.87,388.07,185.59,387.88,185.73Z"/><path class="cls-5" d="M440.66,184.61a4.15,4.15,0,0,0-2.38,2,.23.23,0,0,0,.33.26,13.08,13.08,0,0,0,1.12-.84c.39-.28.81-.51,1.2-.81S441.06,184.46,440.66,184.61Z"/><path class="cls-5" d="M441.86,187a3.18,3.18,0,0,0-.58.52.31.31,0,0,0,.44.43,3.59,3.59,0,0,0,.52-.58C442.39,187.11,442.08,186.8,441.86,187Z"/><path class="cls-5" d="M385.11,148.21a9.93,9.93,0,0,0-3.07,2.27c-.26.28.15.69.42.42.9-.89,2.08-1.39,3-2.27C385.68,148.41,385.38,148.1,385.11,148.21Z"/><path class="cls-5" d="M386.22,149.12a.81.81,0,0,1-.21.34c-.31.3.16.76.48.47a.81.81,0,0,0,.3-.74A.29.29,0,0,0,386.22,149.12Z"/><path class="cls-5" d="M443,147.38a3.23,3.23,0,0,0-2.49,1.32c-.28.33.16.79.48.48a4.8,4.8,0,0,1,1-.72c.37-.21.79-.3,1.17-.49S443.28,147.41,443,147.38Z"/><path class="cls-5" d="M443.34,149.61c-.45-.14-.74.14-.75.58a.41.41,0,0,0,.81,0A.33.33,0,0,0,443.34,149.61Z"/><path class="cls-1" d="M397.16,173l-.14-.07a2.9,2.9,0,0,0-4,4l.07.14a3,3,0,1,0,4-4Z"/><path class="cls-1" d="M413.47,172.54a3.65,3.65,0,1,0,3.64,3.65A3.68,3.68,0,0,0,413.47,172.54Z"/><circle class="cls-1" cx="429" cy="175.36" r="3.41" transform="translate(-34.44 178.89) rotate(-22.67)"/><path class="cls-3" d="M354.09,391.48a6.54,6.54,0,0,0-1.41-3,5.66,5.66,0,0,0-3.23-1.33,21.24,21.24,0,0,0-23.54,14.56,11.64,11.64,0,0,0,6.17,1,19.76,19.76,0,0,1,6.29.25c2,.56,4,2.12,4.22,4.22.16,1.28-.32,2.56-.34,3.85s.75,2.81,2,2.83a3.26,3.26,0,0,0,2.12-1.21c4.23-4.15,8.75-8.95,8.81-14.88A22.27,22.27,0,0,0,354.09,391.48Z"/><path class="cls-3" d="M356.69,394.3c-1.2-3.84,2.06-7.89,5.87-9.17s8-.6,11.95-.16c7.46.82,15.18.73,22.22-1.86s13.32-8,15.52-15.17c2.27-7.36-.1-15.67-5-21.6s-12.09-9.67-19.53-11.66c-7.69-2.05-16.4-2.23-23.09,2.08-8.39,5.4-11.36,16.16-12.65,26.06a26.23,26.23,0,0,0-.07,8.75,10,10,0,0,0,4.86,7,16.35,16.35,0,0,1-2.92,5.78C352.37,386,350,387,348,386.17s-3.13-3.09-4-5.17c-4.42-11.05-8.93-23-6-34.57,2.84-11.36,12.81-20.13,24.07-23.36s23.52-1.46,34.34,3c8.86,3.66,17.16,9.26,22.57,17.17s7.6,18.34,4.34,27.35c-3.68,10.16-13.28,16.85-22.74,22.06-6.9,3.79-14.19,7.21-22,8.15S362.25,399.88,356.69,394.3Z"/><path class="cls-3" d="M390.91,372.28a46.77,46.77,0,0,1-11.36,4.43c-2.05.5-4.67.66-5.81-1.12-.89-1.38-.32-3.29.76-4.52a20.39,20.39,0,0,1,3.95-2.92,9.05,9.05,0,0,0,3.7-4.57,4.7,4.7,0,0,0-1.71-5.3c-2.2-1.35-5.06-.07-7.09,1.51a24.81,24.81,0,0,0-6,6.82c-2.88-3.9-2.83-9.55-.36-13.72a16.65,16.65,0,0,1,11.85-7.58A24.46,24.46,0,0,1,393,347.77c3.41,1.64,6.7,4.13,7.9,7.72A11.6,11.6,0,0,1,399,365.55,23.18,23.18,0,0,1,390.91,372.28Z"/><path class="cls-4" d="M406.15,377.38a28.4,28.4,0,0,1-9.42,5.73c-7,2.59-14.76,2.68-22.22,1.86-4-.44-8.14-1.12-11.95.16s-7.07,5.33-5.87,9.17c5.56,5.58,14,7.45,21.86,6.51s15.1-4.36,22-8.15c7.57-4.17,15.22-9.29,19.86-16.38A103.26,103.26,0,0,1,406.15,377.38Z"/><path class="cls-4" d="M348,386.17c2,.78,4.4-.22,5.85-1.83a16.35,16.35,0,0,0,2.92-5.78,10,10,0,0,1-4.86-7,26.23,26.23,0,0,1,.07-8.75,57.6,57.6,0,0,1,3.57-14.48,56.51,56.51,0,0,1-3.42-20.75c-6.82,4.41-12.17,11-14.13,18.84C335.07,358,339.58,370,344,381,344.84,383.08,345.88,385.38,348,386.17Z"/><path class="cls-4" d="M383.48,363c-.38-.24-.76-.51-1.13-.78a5,5,0,0,1-.2,1.4,9.05,9.05,0,0,1-3.7,4.57,20.39,20.39,0,0,0-3.95,2.92c-1.08,1.23-1.65,3.14-.76,4.52,1.14,1.78,3.76,1.62,5.81,1.12a46.77,46.77,0,0,0,11.36-4.43,24.62,24.62,0,0,0,7.31-5.71A24.4,24.4,0,0,1,383.48,363Z"/><path class="cls-4" d="M373.35,359.79a9.47,9.47,0,0,1,4.39-2,25.08,25.08,0,0,1-4.91-10.38,15.29,15.29,0,0,0-5.85,5.52c-2.47,4.17-2.52,9.82.36,13.72A24.81,24.81,0,0,1,373.35,359.79Z"/><path class="cls-4" d="M327.9,397.36a20.75,20.75,0,0,0-2,4.37,11.64,11.64,0,0,0,6.17,1,19.76,19.76,0,0,1,6.29.25c2,.56,4,2.12,4.22,4.22.16,1.28-.32,2.56-.34,3.85s.75,2.81,2,2.83a3.26,3.26,0,0,0,2.12-1.21c4.23-4.15,8.75-8.95,8.81-14.88a21.38,21.38,0,0,0-1.05-6,45.24,45.24,0,0,1-6.54,3.7C341.48,398.26,334.33,399.38,327.9,397.36Z"/><path class="cls-2" d="M403.77,352c3.79,6.45,2.09,15.15-2.7,20.89s-12.11,8.88-19.46,10.28c-2.88.54-6,.82-8.62-.51s-4.3-4.83-2.76-7.33c8.33,1.08,17.8,1.85,24.14-3.66,6.58-5.69,6.56-17.11.39-23.25s-17-6.38-23.87-1-9.42,15.32-6.6,23.55c-1.2,1.41-3.47-.12-4.42-1.72a19.53,19.53,0,0,1,9.1-27.95c7.28-3.11,15.78-1.52,23,1.62C396.66,344.84,401.22,347.62,403.77,352Z"/><path class="cls-2" d="M381.64,362.62A120.4,120.4,0,0,1,355.69,395a5.81,5.81,0,0,1-.25-5.34,16.94,16.94,0,0,1,3.16-4.56L371.77,370C374.5,366.8,377.55,363.46,381.64,362.62Z"/><path class="cls-5" d="M396.23,324.56a45.51,45.51,0,0,0-19.51-4.49,44.33,44.33,0,0,0-25.65,8.35c-18.35,12.93-14.75,40.92-5.09,56.16.22.35.44.68.67,1-1.31.09-2.63.22-3.87.35-1.69.17-3.15.32-4.09.32a3,3,0,0,1-.74-.06.78.78,0,0,0-.22,0c-2.74,0-12.4,15.21-12.4,17,0,1.38,2.59,1.63,7.69,1.63h3.63a25.49,25.49,0,0,1,4.25.23c.09.12.19.23.29.34a18.69,18.69,0,0,1-.06,3.92c-.27,3.36-.57,7.16,1.54,7.87a1.77,1.77,0,0,0,.52.08h0c2.36,0,6.27-4.84,10.75-10.68,1.38-1.79,2.56-3.34,3.25-4s1.1-2.42.87-4.78c-.06-.59-.16-1.23-.28-1.9a36.87,36.87,0,0,0,17.86,4.31h0c13.13,0,27.52-5.82,37.55-15.19a44.39,44.39,0,0,0,7.61-9.3c4.59-7.6,5.73-15.35,3.41-23.05C420.93,341.77,410.47,331.27,396.23,324.56Zm-20.59,74.62a35.6,35.6,0,0,1-18.14-4.62c-.12-.54-.26-1.09-.41-1.63q4.16-4.65,7.61-8.54a25.16,25.16,0,0,0,12.85,3.29h0a39.43,39.43,0,0,0,25.79-10.43,30.26,30.26,0,0,0,5.23-6.4c3.17-5.23,4-10.58,2.35-15.89-2.25-7.48-9.44-14.69-19.22-19.31a31.27,31.27,0,0,0-13.41-3.08,30.53,30.53,0,0,0-17.64,5.74c-12.63,8.9-10.16,28.15-3.52,38.62.31.5.64,1,1,1.41-2.15,2.43-4.29,4.88-6.32,7.23a18.47,18.47,0,0,0-2.1-.1c-.6,0-1.22,0-1.86,0-.34-.48-.67-1-1-1.48-9.44-14.9-13-42.23,4.82-54.81a43.45,43.45,0,0,1,25.08-8.16,44.61,44.61,0,0,1,19.08,4.39c14,6.6,24.25,16.87,27.45,27.46,2.24,7.42,1.13,14.91-3.31,22.25a42.67,42.67,0,0,1-7.43,9.09c-9.86,9.2-24,14.92-36.87,14.92Zm-18.58-1.31c.2,2,0,3.4-.58,4a52.72,52.72,0,0,0-3.33,4.12c-3,3.85-7.9,10.29-10,10.29a.64.64,0,0,1-.2,0c-1.38-.46-1.08-4.15-.87-6.84.23-2.89.32-4.55-.51-5.1-.53-.36-1.78-.47-5-.47H333c-5.18,0-6.5-.36-6.69-.63,0-2.24,9.8-16,11.38-16a23.27,23.27,0,0,0,5.17-.24c2.2-.22,4.69-.47,6.8-.47a7.83,7.83,0,0,1,3.88.64C354.38,387.66,356.62,393.38,357.06,397.87Zm15.54-22.53c7.44-8.65,10.73-13,10.73-14.15a3.31,3.31,0,0,0-3.44-3.54,6,6,0,0,0-3.33,1.13c-1.29.86-5.32,5-10.28,10.45-3.53-6.5-4.53-17.16,2.62-22.2a18.42,18.42,0,0,1,10.64-3.46,18.91,18.91,0,0,1,8.11,1.86c6,2.82,10.33,7.18,11.69,11.67a11.24,11.24,0,0,1-1.4,9.36,18,18,0,0,1-3.16,3.86,24,24,0,0,1-15.7,6.36h0A15.56,15.56,0,0,1,372.6,375.34Zm-.66.77a16.27,16.27,0,0,0,7.14,1.57h0a25,25,0,0,0,16.38-6.63,18.52,18.52,0,0,0,3.33-4.07,12.17,12.17,0,0,0,1.5-10.17c-1.43-4.76-6-9.35-12.21-12.28a19.44,19.44,0,0,0-19.76,1.69c-7.74,5.45-6.59,17-2.75,23.78-2.15,2.37-4.46,4.94-6.79,7.57-.28-.38-.55-.76-.81-1.17-6.42-10.14-8.86-28.73,3.26-37.28a29.55,29.55,0,0,1,17.06-5.55,30.21,30.21,0,0,1,13,3c9.53,4.49,16.52,11.48,18.69,18.68,1.52,5,.77,10.11-2.24,15.09a29.73,29.73,0,0,1-5.06,6.19,38.4,38.4,0,0,1-25.11,10.16h0a24.27,24.27,0,0,1-12.17-3.06C367.84,380.83,370,378.34,371.94,376.11Zm5.17-16.5a5.09,5.09,0,0,1,2.78-1,2.31,2.31,0,0,1,2.44,2.54c-.12,1.94-15.15,19-25.58,30.62-.83-2.69-1.88-5-2.64-5.53a3.82,3.82,0,0,0-1.11-.48C362.53,374.7,374.39,361.42,377.11,359.61Z"/><path class="cls-5" d="M349,393.22a38.48,38.48,0,0,0-7.18,7.63c-.12.17.16.39.29.23,2.2-2.76,5-4.85,7.35-7.41A.32.32,0,0,0,349,393.22Z"/><path class="cls-5" d="M344.56,393.22a21.14,21.14,0,0,0-5.87.49c-.27,0-.21.49.06.47,1.92-.13,3.83-.37,5.75-.51C344.74,393.66,344.83,393.26,344.56,393.22Z"/><path class="cls-5" d="M341,396.47a16.86,16.86,0,0,0-5.06,1.26c-.26.09-.15.51.12.43a37.3,37.3,0,0,1,5-1.25C341.32,396.87,341.25,396.46,341,396.47Z"/><path class="cls-5" d="M338.25,400.73a9.93,9.93,0,0,0-3.06.48c-.3.09-.18.56.12.47a13.94,13.94,0,0,1,2.94-.52A.22.22,0,0,0,338.25,400.73Z"/><path class="cls-5" d="M345.8,403.44a.3.3,0,0,0-.6,0c0,2-.33,4-.22,6,0,.3.47.39.53.08A25.75,25.75,0,0,0,345.8,403.44Z"/><path class="cls-5" d="M349,400.87c-.11-.28-.61-.28-.57.07.06.54.15,1.07.18,1.62s0,1.14.09,1.71c0,.29.47.24.54,0A5.51,5.51,0,0,0,349,400.87Z"/><path class="cls-5" d="M352.63,396.34a.39.39,0,0,0-.76.21c.29,1.15.29,2.33.55,3.48.09.41.62.26.67-.09A9,9,0,0,0,352.63,396.34Z"/><path class="cls-5" d="M377.18,357.09a1.43,1.43,0,0,0-1.75-.65.27.27,0,0,0,.07.52,2.66,2.66,0,0,1,1.4.41C377.08,357.5,377.26,357.26,377.18,357.09Z"/><path class="cls-5" d="M384.68,362.49a.19.19,0,0,0-.31-.18,2.25,2.25,0,0,0-.14,2.54c.18.33.63.09.57-.24A5.06,5.06,0,0,1,384.68,362.49Z"/><path class="cls-5" d="M374.19,358.46c-.33.12-.67.16-1,.27s-.23.38,0,.43a1.7,1.7,0,0,0,1.18-.26C374.6,358.77,374.44,358.37,374.19,358.46Z"/><path class="cls-5" d="M380.3,354.44c0-.25-.42-.45-.56-.15a1.4,1.4,0,0,0,.34,1.58c.16.16.49,0,.41-.24A4.77,4.77,0,0,1,380.3,354.44Z"/><path class="cls-5" d="M384.86,358.2a10.61,10.61,0,0,1-1.23.78c-.27.14-.07.49.19.45a2.1,2.1,0,0,0,1.42-.85C385.41,358.36,385.08,358.05,384.86,358.2Z"/><path class="cls-5" d="M382.05,365.94a.3.3,0,0,0-.6,0,5.22,5.22,0,0,0,0,1.58.27.27,0,0,0,.52,0A5.22,5.22,0,0,0,382.05,365.94Z"/><path class="cls-5" d="M353.17,377.89a14.51,14.51,0,0,0-3.06,1.81.28.28,0,0,0,.28.49,24.6,24.6,0,0,0,3.08-1.77A.32.32,0,0,0,353.17,377.89Z"/><path class="cls-5" d="M353.94,379.22a7,7,0,0,0-1.09.47c-.33.19,0,.65.3.5a6.14,6.14,0,0,0,1-.54C354.33,379.5,354.2,379.13,353.94,379.22Z"/><path class="cls-5" d="M365.25,389.16a6,6,0,0,0-3.17,1.62c-.21.17.06.51.29.37,1-.61,2-.94,3-1.46A.29.29,0,0,0,365.25,389.16Z"/><path class="cls-5" d="M366.67,390.9a4.22,4.22,0,0,0-1.68,1.28c-.3.37.22.89.52.52a7.54,7.54,0,0,1,1.4-1.24C367.16,391.27,367,390.75,366.67,390.9Z"/><path class="cls-1" d="M358,331.78c-.61-.86-2.05,0-1.41.83.3.4.49.86.78,1.26a.69.69,0,0,0,1.27-.34A2.81,2.81,0,0,0,358,331.78Z"/><path class="cls-1" d="M346.54,349a2.35,2.35,0,0,0-1.87-.65.86.86,0,0,0,0,1.71,5.49,5.49,0,0,1,1.13.21A.76.76,0,0,0,346.54,349Z"/><path class="cls-1" d="M347.07,364.27a2.71,2.71,0,0,1-1.4.46,1.13,1.13,0,0,0,0,2.26,2.65,2.65,0,0,0,2.72-1.7A.84.84,0,0,0,347.07,364.27Z"/><path class="cls-1" d="M385.22,327.16c-.59-.29-1,.14-1.27.6a2.22,2.22,0,0,0-.29,1.95.7.7,0,0,0,1.35,0c.11-.45.16-.93.29-1.38S385.7,327.39,385.22,327.16Z"/><path class="cls-1" d="M408.67,338a7.88,7.88,0,0,0-2.6.29c-.85.25-1,1.75,0,1.89a4.81,4.81,0,0,0,3.05-.5A.91.91,0,0,0,408.67,338Z"/><path class="cls-1" d="M417.77,362.79a10.11,10.11,0,0,1-1.5-.87.86.86,0,0,0-1.35,1,2.35,2.35,0,0,0,2.64,1.4A.87.87,0,0,0,417.77,362.79Z"/><path class="cls-1" d="M409.34,382.34a3.92,3.92,0,0,0-1-1.77c-.81-.81-2.1.51-1.24,1.25a7.58,7.58,0,0,1,1.12,1.21C408.62,383.61,409.52,383,409.34,382.34Z"/><path class="cls-1" d="M387.67,391.94a.94.94,0,0,0-.89,1.17l.15.62a.77.77,0,0,0,1.47,0l.15-.62A.93.93,0,0,0,387.67,391.94Z"/><path class="cls-1" d="M371.22,356.64a1.7,1.7,0,0,0-1.77-.57.84.84,0,0,0-.49,1.21,1.74,1.74,0,0,0,1.91.67A.79.79,0,0,0,371.22,356.64Z"/><path class="cls-1" d="M378.51,350a14.39,14.39,0,0,0-1.25-1.76.85.85,0,0,0-1.43.59,2.75,2.75,0,0,0,1.15,2.36,1,1,0,0,0,1.53-1.19Z"/><path class="cls-1" d="M390.17,353.59c-1.05.22-2,.55-3,.87a.76.76,0,0,0,.41,1.47,12.92,12.92,0,0,0,3.11-1.2A.63.63,0,0,0,390.17,353.59Z"/><path class="cls-1" d="M392.94,365.17a3.75,3.75,0,0,0-2.05-1.45.84.84,0,0,0-1,.58.87.87,0,0,0,.58,1c.6.24,1.1.63,1.71.87S393.23,365.67,392.94,365.17Z"/><path class="cls-1" d="M388.92,370.52a7.63,7.63,0,0,0-2.87-2.65c-.83-.54-1.56.76-.77,1.32,1,.68,1.72,1.63,2.71,2.26C388.61,371.85,389.2,371.09,388.92,370.52Z"/><path class="cls-3" d="M252.13,368.27c.58,3,2,6.18,4.71,7.59a7.45,7.45,0,0,0,6.56-.09A10.11,10.11,0,0,0,268,370.9c1.92-4.17,1.1-9.65-2.42-12.6s-9.57-2.52-12.19,1.25C251.64,362,251.57,365.31,252.13,368.27Z"/><path class="cls-3" d="M324.86,348.37a9,9,0,0,0-1.05-9.45,9.47,9.47,0,0,0-9-3.25,10.46,10.46,0,0,0-8,8,8.16,8.16,0,0,0,1.55,7.14,8.69,8.69,0,0,0,4.9,2.54C317.71,354.19,322.82,352.39,324.86,348.37Z"/><path class="cls-3" d="M277.58,304.62a8.36,8.36,0,0,0-2.55-4.21,9,9,0,0,0-7.69-1.28,10.72,10.72,0,0,0-6,4.31,8.46,8.46,0,0,0,.63,10.79c2.91,3,8.83,4,12.57,1.65C278.49,313.41,278.79,308.58,277.58,304.62Z"/><path class="cls-4" d="M318.42,346.65a19.17,19.17,0,0,1-10.71-5.43,9.93,9.93,0,0,0-.87,2.43,8.16,8.16,0,0,0,1.55,7.14,8.69,8.69,0,0,0,4.9,2.54c4.42.86,9.53-.94,11.57-5a8.31,8.31,0,0,0,.7-2.11A18.87,18.87,0,0,1,318.42,346.65Z"/><path class="cls-4" d="M267.6,309.94a14.51,14.51,0,0,1-6.87-5.55,8.34,8.34,0,0,0,1.19,9.84c2.91,3,8.83,4,12.57,1.65a7.8,7.8,0,0,0,3.66-6.14A14.76,14.76,0,0,1,267.6,309.94Z"/><path class="cls-4" d="M267.81,371.21a14.17,14.17,0,0,1-15.4-9.79,13.34,13.34,0,0,0-.28,6.85c.58,3,2,6.18,4.71,7.59a7.45,7.45,0,0,0,6.56-.09A10,10,0,0,0,267.81,371.21Z"/><path class="cls-2" d="M266.86,348.13a1.85,1.85,0,0,1,1.36.39,2.3,2.3,0,0,1,.45,1.79c0,1.41-.09,2.82-.13,4.23a3.3,3.3,0,0,1-4.4.56,3.78,3.78,0,0,1-1.15-4.4A4.44,4.44,0,0,1,266.86,348.13Z"/><path class="cls-2" d="M281,317.8a2.81,2.81,0,0,0-2-5.17,2.81,2.81,0,1,0,2,5.17Z"/><path class="cls-2" d="M304.76,347a5.78,5.78,0,0,0-3.46,6.39,3.67,3.67,0,0,0,3.46-6.39Z"/><path class="cls-5" d="M327.28,341.81a11,11,0,0,0-16.75-7c-9.11-7.48-22.36-18.26-30.2-24.19a10.8,10.8,0,0,0,.17-5.12,11,11,0,0,0-10.76-8.79,11.26,11.26,0,0,0-2.23.23,11,11,0,0,0-8.56,13,11.07,11.07,0,0,0,6.74,8c-1.58,10-3.91,25-5.3,35.63-.21,0-.41.05-.62.1a11,11,0,1,0,11.4,16.82,10.88,10.88,0,0,0,1.76-7.22c9.89-3.1,25.39-8,35.69-11.57a11,11,0,0,0,18.66-9.87ZM306.71,346a10,10,0,0,1,7.78-11.81,10.56,10.56,0,0,1,2-.2,10,10,0,0,1,2,19.79,9.83,9.83,0,0,1-2,.21A10,10,0,0,1,306.71,346Zm-36.37,23.88a10,10,0,0,1-6.34,4.3,10.64,10.64,0,0,1-2,.2,10,10,0,0,1-2-19.79,9.83,9.83,0,0,1,2-.21,10,10,0,0,1,9.78,8A9.91,9.91,0,0,1,270.34,369.92Zm-9-67.72a10,10,0,0,1,8.36-4.5,10,10,0,0,1,9.78,8,10,10,0,0,1-7.78,11.81,10.64,10.64,0,0,1-2,.2,10,10,0,0,1-8.34-15.5Zm7.08,53.35c1.4-10.78,3.43-26.95,4.44-37.32a11,11,0,0,0,2.43-1.07c7.62,5.93,21.19,16.43,30.72,23.46a10.92,10.92,0,0,0-.5,4.39c-11,3.12-27.05,7.75-36.66,10.86A4.35,4.35,0,0,0,268.46,355.55Zm38-15.9c-8.57-6.33-20.71-15.67-30.21-23.07a10.87,10.87,0,0,0,2.7-2.83,10.23,10.23,0,0,0,1.1-2.16c7,5.37,18.86,14.93,29.68,23.82A11,11,0,0,0,306.42,339.65Zm-36.7-20.95a11.29,11.29,0,0,0,2.16-.21c-.95,9.51-2.75,24.12-4.34,36.45a10.87,10.87,0,0,0-5.54-1.52l-.6,0c1.27-9.5,3.32-23,5.25-35.2A10.8,10.8,0,0,0,269.72,318.7Zm3,43.51a10.85,10.85,0,0,0-3-5.58c8.7-2.78,22.92-6.92,36-10.62l0,.23a10.91,10.91,0,0,0,2.19,4.63c-9.47,3.25-23.55,7.75-35.14,11.38A.06.06,0,0,0,272.76,362.21Z"/><path class="cls-5" d="M260.13,368.74a7.07,7.07,0,0,0-2.58,2.84c-.16.26.23.47.4.23a23.31,23.31,0,0,1,2.47-2.69A.24.24,0,0,0,260.13,368.74Z"/><path class="cls-5" d="M260.53,370.07a9.27,9.27,0,0,0-.53,1c-.15.33.32.62.5.29a8.73,8.73,0,0,0,.49-1.08C261.1,370,260.68,369.84,260.53,370.07Z"/><path class="cls-5" d="M317.06,348.76a4.45,4.45,0,0,0-1.48,2.14.18.18,0,0,0,.29.17,18.18,18.18,0,0,0,1.61-2C317.67,348.82,317.28,348.58,317.06,348.76Z"/><path class="cls-5" d="M319,349.32a9.35,9.35,0,0,0-.54,1c-.17.33.33.63.5.29s.34-.71.49-1.08S319.18,349.09,319,349.32Z"/><path class="cls-5" d="M267.41,312.53a3.43,3.43,0,0,0-1.36,2.11.21.21,0,0,0,.4.11,6.15,6.15,0,0,1,1.18-1.92C267.76,312.67,267.59,312.41,267.41,312.53Z"/><path class="cls-5" d="M269.06,314c-.37.38-.67.82-1,1.23s.16.69.42.41a6.56,6.56,0,0,0,1-1.32A.27.27,0,0,0,269.06,314Z"/><path class="cls-1" d="M269,305c-2.87,0-2.87,4.45,0,4.45S271.87,305,269,305Z"/><path class="cls-1" d="M260.33,363.13c-3.1,0-3.1,4.8,0,4.8S263.43,363.13,260.33,363.13Z"/><path class="cls-1" d="M316.33,342.09c-3.15,0-3.15,4.88,0,4.88S319.48,342.09,316.33,342.09Z"/><path class="cls-3" d="M185.25,68.49a9.52,9.52,0,0,0-2.59,2.77,11.46,11.46,0,0,0-1.84,3.7.88.88,0,0,0,1.69.47,10.81,10.81,0,0,1,1.86-3.35,18.87,18.87,0,0,0,2-2.47A.83.83,0,0,0,185.25,68.49Z"/><path class="cls-3" d="M198,59.47a21.84,21.84,0,0,0-5.72,3.23c-1.38,1-.07,3.34,1.36,2.32,1.72-1.21,3.54-2.27,5.21-3.55C199.79,60.78,199.32,59,198,59.47Z"/><path class="cls-3" d="M199.79,144.06c-.49-.95-1.91-.27-1.68.71.47,2,.79,4,1.28,6a1,1,0,0,0,1.92-.26A12.13,12.13,0,0,0,199.79,144.06Z"/><path class="cls-3" d="M199.18,161.19a47.31,47.31,0,0,1-1.05,7.1.91.91,0,0,0,1.65.69,14.78,14.78,0,0,0,1.71-7.79A1.16,1.16,0,0,0,199.18,161.19Z"/><path class="cls-3" d="M196.13,176.29a15.9,15.9,0,0,1-2.44,4.53c-.54.73.57,1.39,1.17.9a9,9,0,0,0,3-4.95A.9.9,0,0,0,196.13,176.29Z"/><path class="cls-3" d="M55,164.82c-.66.92-1,2.05-1.63,3a20.07,20.07,0,0,1-2.26,2.85c-.57.6.17,1.63.9,1.17a9.49,9.49,0,0,0,2.89-2.68,7,7,0,0,0,1.48-4A.75.75,0,0,0,55,164.82Z"/><path class="cls-3" d="M46.52,182.88a11.69,11.69,0,0,1-.81,1.89c-.33.63-.5,1.32-.85,1.95a.94.94,0,0,0,1.47,1.14A6.54,6.54,0,0,0,48,186.08a11.13,11.13,0,0,0,.87-2.57A1.19,1.19,0,0,0,46.52,182.88Z"/><path class="cls-3" d="M45.77,203a14.34,14.34,0,0,1-.6-5.12c.11-.94-1.47-1.15-1.65-.22a8,8,0,0,0,.79,6A.8.8,0,0,0,45.77,203Z"/><path class="cls-3" d="M136.87,213.32c-.53-.67-1.37.09-1.27.74a28.63,28.63,0,0,1,.58,4.69c0,1.48-.13,3-.22,4.44a1,1,0,0,0,2,.28C138.94,220.25,139.06,216.08,136.87,213.32Z"/><path class="cls-3" d="M132.08,242.27c-.69,3.51-2.38,6.59-3.82,9.82-.37.82.68,1.86,1.35,1A20.49,20.49,0,0,0,134,242.53C134.1,241.46,132.28,241.22,132.08,242.27Z"/><path class="cls-3" d="M124,262.63c-2.06,2.93-4.35,6.17-5.39,9.62-.37,1.24,1.25,1.69,1.93.81,2.16-2.81,3.47-6.31,5.38-9.3C126.74,262.53,124.85,261.48,124,262.63Z"/><path class="cls-3" d="M113.57,280.75c-1.15,2.61-2.43,5.54-2.14,8.44.1.94,1.57,1.31,1.77.24a45.19,45.19,0,0,1,2-8C115.54,280.5,114,279.84,113.57,280.75Z"/><path class="cls-3" d="M112.5,297c-.21-.94-1.82-.74-1.69.22a26.63,26.63,0,0,0,.81,4.87.75.75,0,0,0,1.46-.2A16.18,16.18,0,0,0,112.5,297Z"/><path class="cls-3" d="M216.75,443.15c-2-1.15-4.1-2-6-3.36-.81-.57-1.75.69-1,1.35a11.81,11.81,0,0,0,6.39,3.51C217,444.77,217.61,443.66,216.75,443.15Z"/><path class="cls-3" d="M229.49,447a44.51,44.51,0,0,0-4.87-1.55c-1.16-.39-2,1.51-.84,2a11.47,11.47,0,0,0,5.22,1.37C229.89,448.78,230.44,447.47,229.49,447Z"/><path class="cls-3" d="M241.44,447a8,8,0,0,1-4.19-.09c-1-.36-1.73,1.32-.73,1.75,1.85.8,4.11,1.22,5.75-.22C243,447.84,242.2,446.92,241.44,447Z"/><path class="cls-3" d="M323.68,317.48a22,22,0,0,1-2.42,2.59c-.8.78-1.9,1.26-2.62,2.1a.52.52,0,0,0,.36.87c1.26.12,2.72-.8,3.67-1.56a8.2,8.2,0,0,0,2.4-3.42C325.43,317.2,324.15,316.85,323.68,317.48Z"/><path class="cls-3" d="M337.45,313.74a39.2,39.2,0,0,1-5.78,1.07c-1.33.12-1.38,2.16,0,2.11a13.91,13.91,0,0,0,6.41-1.68A.82.82,0,0,0,337.45,313.74Z"/><path class="cls-3" d="M353.25,311.62a25.42,25.42,0,0,0-5.58-.26,1.17,1.17,0,0,0,0,2.34,24.82,24.82,0,0,0,5.58-.27A.94.94,0,0,0,353.25,311.62Z"/><path class="cls-3" d="M368.58,308.47a9.42,9.42,0,0,1-4.25,1.75,1,1,0,0,0,0,1.95,6.18,6.18,0,0,0,5.4-2.55C370.21,308.93,369.26,308,368.58,308.47Z"/><path class="cls-3" d="M439.52,349.39c-.81,1.22-1.51,2.51-2.31,3.73-.95,1.45-2.28,2.29-3.47,3.48a.84.84,0,0,0,.82,1.4c3.29-.66,5.89-4.91,6.68-7.89A.94.94,0,0,0,439.52,349.39Z"/><path class="cls-3" d="M445.63,330.78a37,37,0,0,0-2.22,4.83c-.42,1,1.31,1.72,1.75.73a36.66,36.66,0,0,0,2-4.93A.82.82,0,0,0,445.63,330.78Z"/><path class="cls-3" d="M451.39,308.93c-.66,2.4-1,4.86-1.52,7.29-.32,1.47,1.89,2.09,2.26.62a30.11,30.11,0,0,0,1.18-7.65A1,1,0,0,0,451.39,308.93Z"/><path class="cls-3" d="M453.22,286.22a17.59,17.59,0,0,0-1,6.31,1.43,1.43,0,0,0,2.85,0c.07-.92.3-1.87.31-2.78,0-1.08,0-2.15.09-3.22C455.58,285.17,453.62,285,453.22,286.22Z"/><path class="cls-3" d="M369.29,184.81a9.41,9.41,0,0,1-5.26-3.55c-.74-1-2.62-.45-2.18.92a6.61,6.61,0,0,0,7.44,4.74A1.1,1.1,0,0,0,369.29,184.81Z"/><path class="cls-3" d="M355.94,170a10.15,10.15,0,0,0-3.09-3.66c-.87-.58-1.9.54-1.39,1.39a38.27,38.27,0,0,0,2.6,3.37,1.11,1.11,0,0,0,1.49.39A1.09,1.09,0,0,0,355.94,170Z"/><path class="cls-3" d="M349.14,149c-.33-.79-1.76-.81-1.65.22.31,2.69.93,5.31,1.16,8,.11,1.29,2.09,1.33,2,0A23.05,23.05,0,0,0,349.14,149Z"/><path class="cls-3" d="M347.88,144.42a4.06,4.06,0,0,0-1.55-.2,1,1,0,0,0,0,1.95,4.06,4.06,0,0,0,1.55-.2A.81.81,0,0,0,347.88,144.42Z"/><path class="cls-3" d="M317.45,57.09c-3.09.95-6.27,1.59-9.36,2.57a.9.9,0,0,0,.48,1.73,39.57,39.57,0,0,0,9.5-2.84C318.89,58.14,318.31,56.83,317.45,57.09Z"/><path class="cls-3" d="M338.56,56.38a33.22,33.22,0,0,0-6.89-.85c-1.32-.06-1.24,1.84,0,2a42.5,42.5,0,0,0,6.66.51A.84.84,0,0,0,338.56,56.38Z"/><path class="cls-3" d="M350.43,61.1a25.33,25.33,0,0,0-3.49-3c-1.08-.84-2.52,1-1.46,1.9a24.76,24.76,0,0,0,3.64,2.74A1.08,1.08,0,0,0,350.43,61.1Z"/><path class="cls-3" d="M359.84,70.7a14.78,14.78,0,0,0-1.66-2.14,10.48,10.48,0,0,1-1.5-2.62c-.52-1.22-2.62-.34-2.14.9.79,2.06,2,4.45,4.2,5.3C359.58,72.47,360.23,71.39,359.84,70.7Z"/><path class="cls-3" d="M249.67,118.9a13.67,13.67,0,0,0-8.09,4.11,3.56,3.56,0,0,0-.72,2.32c-.21,2.65-.07,4.24-2.77,5.27-1.72.66-3.51.89-4.76,2.37-1.48,1.76-.93,4.44-.42,6.43.22.84,1.61.69,1.54-.21-.21-2.69-.46-5.08,2.54-6a12.16,12.16,0,0,0,4.49-1.86,4.62,4.62,0,0,0,1.92-4.27c-.2-4.5,3.7-4.3,6.75-6.41C250.84,120.21,250.7,118.76,249.67,118.9Z"/><path class="cls-3" d="M247.14,107.43a13.72,13.72,0,0,0-8.08,4.1,3.62,3.62,0,0,0-.73,2.33c-.2,2.64-.06,4.24-2.76,5.27-1.72.66-3.51.89-4.76,2.37-1.48,1.76-.93,4.44-.42,6.43.22.84,1.6.68,1.54-.21-.21-2.69-.47-5.08,2.54-6A12.16,12.16,0,0,0,239,119.9a4.64,4.64,0,0,0,1.92-4.28c-.2-4.49,3.7-4.29,6.75-6.4C248.32,108.74,248.18,107.29,247.14,107.43Z"/><path class="cls-3" d="M57.19,306.73a13.71,13.71,0,0,0-8.09,4.1,3.59,3.59,0,0,0-.72,2.33c-.2,2.64-.06,4.24-2.76,5.27-1.73.65-3.52.89-4.77,2.37-1.48,1.75-.93,4.43-.42,6.43.22.84,1.61.68,1.54-.21-.21-2.7-.46-5.09,2.54-6A11.93,11.93,0,0,0,49,319.19a4.59,4.59,0,0,0,1.92-4.27c-.2-4.5,3.7-4.3,6.75-6.41C58.36,308,58.22,306.59,57.19,306.73Z"/><path class="cls-3" d="M54.67,295.26a13.71,13.71,0,0,0-8.09,4.1,3.59,3.59,0,0,0-.73,2.32c-.2,2.65-.06,4.25-2.76,5.27-1.72.66-3.51.9-4.76,2.38-1.48,1.75-.93,4.43-.42,6.42.22.84,1.6.69,1.54-.2-.21-2.7-.47-5.09,2.54-6a12.16,12.16,0,0,0,4.49-1.86,4.61,4.61,0,0,0,1.92-4.27c-.2-4.5,3.7-4.3,6.75-6.41C55.84,296.56,55.7,295.12,54.67,295.26Z"/><path class="cls-3" d="M343.27,435a13.71,13.71,0,0,0-8.09,4.1,3.62,3.62,0,0,0-.73,2.33c-.2,2.64-.06,4.24-2.76,5.27-1.72.66-3.51.89-4.76,2.37-1.48,1.76-.93,4.44-.42,6.43.22.84,1.61.68,1.54-.21-.21-2.69-.47-5.08,2.54-6a12.16,12.16,0,0,0,4.49-1.86,4.64,4.64,0,0,0,1.92-4.28c-.2-4.49,3.7-4.29,6.75-6.4C344.44,436.31,344.3,434.86,343.27,435Z"/><path class="cls-3" d="M340.74,423.53a13.69,13.69,0,0,0-8.08,4.1,3.62,3.62,0,0,0-.73,2.33c-.2,2.64-.06,4.24-2.76,5.27-1.72.66-3.51.89-4.76,2.37-1.49,1.76-.93,4.44-.42,6.43.22.84,1.6.68,1.53-.21-.2-2.7-.46-5.08,2.55-6a12.34,12.34,0,0,0,4.49-1.86,4.64,4.64,0,0,0,1.92-4.28c-.2-4.49,3.7-4.29,6.75-6.4C341.92,424.84,341.78,423.39,340.74,423.53Z"/><path class="cls-3" d="M422.57,114.16a13.66,13.66,0,0,0-8.08,4.1,3.56,3.56,0,0,0-.73,2.33c-.2,2.64-.06,4.24-2.76,5.27-1.72.66-3.51.89-4.76,2.37-1.49,1.76-.93,4.44-.42,6.43.21.84,1.6.68,1.53-.21-.2-2.69-.46-5.08,2.54-6a12.09,12.09,0,0,0,4.49-1.86,4.63,4.63,0,0,0,1.93-4.28c-.2-4.49,3.69-4.29,6.75-6.4C423.74,115.47,423.61,114,422.57,114.16Z"/><path class="cls-3" d="M420.05,102.69a13.71,13.71,0,0,0-8.09,4.1,3.61,3.61,0,0,0-.72,2.33c-.2,2.64-.06,4.24-2.76,5.27-1.72.66-3.52.89-4.77,2.37-1.48,1.76-.92,4.44-.41,6.43.21.84,1.6.68,1.53-.21-.21-2.7-.46-5.08,2.54-6a12.26,12.26,0,0,0,4.49-1.86,4.62,4.62,0,0,0,1.92-4.28c-.19-4.49,3.7-4.3,6.75-6.41C421.22,104,421.09,102.55,420.05,102.69Z"/><path class="cls-5" d="M148.36,112.37a1.46,1.46,0,0,0-2-.52c-1,.52-1.62,1.92-2.27,2.81a3.54,3.54,0,0,1-.27.32l-.9-.39c-1-.46-2.12-1.14-3.25-1a1.81,1.81,0,0,0-1.34,1.76,5,5,0,0,0,1.32,2.47l.63.88a3.13,3.13,0,0,0,2.68,1.41,2.32,2.32,0,0,0,1.73-.73,3.3,3.3,0,0,0,1.39-.37,4.14,4.14,0,0,0,1.51-2C148.24,115.65,149.09,113.83,148.36,112.37Z"/><path class="cls-5" d="M317,140.08a1.45,1.45,0,0,0-2-.52c-1,.53-1.63,1.92-2.27,2.82a3.54,3.54,0,0,1-.28.32l-.89-.4c-1-.45-2.13-1.14-3.26-1A1.79,1.79,0,0,0,307,143.1a5,5,0,0,0,1.31,2.48l.63.88a3.15,3.15,0,0,0,2.69,1.4,2.26,2.26,0,0,0,1.72-.72,3.5,3.5,0,0,0,1.4-.37,4.18,4.18,0,0,0,1.51-2C316.93,143.37,317.77,141.54,317,140.08Z"/><path class="cls-5" d="M173.75,339a1.45,1.45,0,0,0-2-.52c-1,.52-1.62,1.92-2.26,2.81a2.56,2.56,0,0,1-.28.32l-.9-.4c-1-.45-2.12-1.13-3.25-.95a1.81,1.81,0,0,0-1.34,1.76,5,5,0,0,0,1.32,2.47l.63.88a3.13,3.13,0,0,0,2.68,1.41,2.32,2.32,0,0,0,1.73-.73,3.26,3.26,0,0,0,1.39-.37,4.14,4.14,0,0,0,1.51-2C173.63,342.26,174.48,340.44,173.75,339Z"/><path class="cls-5" d="M320.59,371.84a1.46,1.46,0,0,0-2-.51c-1,.52-1.62,1.91-2.27,2.81a3.54,3.54,0,0,1-.27.32l-.9-.4c-1-.45-2.12-1.14-3.25-.95a1.81,1.81,0,0,0-1.34,1.76,5,5,0,0,0,1.32,2.47l.63.88a3.1,3.1,0,0,0,2.68,1.4,2.27,2.27,0,0,0,1.73-.72,3.46,3.46,0,0,0,1.39-.37,4.12,4.12,0,0,0,1.51-2C320.47,375.13,321.32,373.31,320.59,371.84Z"/><path class="cls-5" d="M51,150.71a5.47,5.47,0,0,0-4.67-1.52,4.6,4.6,0,0,0-3.38,2.87c-1.72,1.38-1.89,4.09-.69,6.1,1.62,2.73,5.26,4,8,2A6.19,6.19,0,0,0,51,150.71Zm-2.08,7.8c-1.63,1.25-3.75.35-4.87-1.13a3.72,3.72,0,0,1-.79-2.46,1.91,1.91,0,0,1,.23-.8.72.72,0,0,0,.68-.12c.93-.71,1.41-1.92,2.59-2.31a2.74,2.74,0,0,1,2.54.73A3.91,3.91,0,0,1,48.89,158.51Z"/><path class="cls-5" d="M228.42,150.06a5.44,5.44,0,0,0-4.67-1.52,4.61,4.61,0,0,0-3.39,2.87c-1.71,1.38-1.88,4.09-.69,6.1,1.63,2.73,5.27,4,8,2A6.19,6.19,0,0,0,228.42,150.06Zm-2.09,7.8c-1.62,1.24-3.74.34-4.86-1.13a3.68,3.68,0,0,1-.79-2.47,1.91,1.91,0,0,1,.23-.79.72.72,0,0,0,.68-.12c.93-.71,1.4-1.92,2.58-2.31a2.78,2.78,0,0,1,2.55.72A3.91,3.91,0,0,1,226.33,157.86Z"/><path class="cls-5" d="M397.09,83.39a5.44,5.44,0,0,0-4.68-1.51A4.58,4.58,0,0,0,389,84.74c-1.71,1.38-1.89,4.09-.69,6.1,1.63,2.73,5.27,4,8,2A6.2,6.2,0,0,0,397.09,83.39ZM395,91.19c-1.62,1.25-3.74.35-4.86-1.13a3.62,3.62,0,0,1-.79-2.46,1.9,1.9,0,0,1,.22-.8.72.72,0,0,0,.68-.12c.94-.71,1.41-1.92,2.59-2.31a2.76,2.76,0,0,1,2.54.73A3.89,3.89,0,0,1,395,91.19Z"/><path class="cls-5" d="M368.42,241.39a5.43,5.43,0,0,0-4.67-1.51,4.6,4.6,0,0,0-3.39,2.86c-1.71,1.38-1.88,4.09-.69,6.1,1.63,2.73,5.27,4,8,2A6.19,6.19,0,0,0,368.42,241.39Zm-2.09,7.8c-1.62,1.25-3.74.35-4.86-1.13a3.67,3.67,0,0,1-.79-2.46,1.91,1.91,0,0,1,.23-.8.72.72,0,0,0,.68-.12c.93-.71,1.4-1.92,2.58-2.31a2.78,2.78,0,0,1,2.55.73A3.9,3.9,0,0,1,366.33,249.19Z"/><path class="cls-5" d="M236.42,366.06a5.44,5.44,0,0,0-4.67-1.52,4.61,4.61,0,0,0-3.39,2.87c-1.71,1.38-1.88,4.09-.69,6.1,1.63,2.73,5.27,4,8,2A6.19,6.19,0,0,0,236.42,366.06Zm-2.09,7.8c-1.62,1.24-3.74.34-4.86-1.13a3.68,3.68,0,0,1-.79-2.47,1.91,1.91,0,0,1,.23-.79.72.72,0,0,0,.68-.12c.93-.71,1.4-1.92,2.58-2.31a2.78,2.78,0,0,1,2.55.72A3.91,3.91,0,0,1,234.33,373.86Z"/><path class="cls-5" d="M119.09,396.06a5.45,5.45,0,0,0-4.68-1.52,4.6,4.6,0,0,0-3.38,2.87c-1.71,1.38-1.89,4.09-.69,6.1,1.63,2.73,5.27,4,8,2A6.2,6.2,0,0,0,119.09,396.06Zm-2.09,7.8c-1.62,1.24-3.74.34-4.86-1.13a3.63,3.63,0,0,1-.79-2.47,1.9,1.9,0,0,1,.22-.79.72.72,0,0,0,.68-.12c.94-.71,1.41-1.92,2.59-2.31a2.76,2.76,0,0,1,2.54.72A3.9,3.9,0,0,1,117,403.86Z"/><path class="cls-5" d="M33.38,288.15a2.48,2.48,0,0,0-3.43,0,2.94,2.94,0,0,0-.87,2.21,2.59,2.59,0,1,0,5.17,0A2.9,2.9,0,0,0,33.38,288.15Z"/><path class="cls-5" d="M177,216.46c-3.53,0-3.53,5.47,0,5.47S180.53,216.46,177,216.46Z"/><path class="cls-5" d="M201,44.89c-3.83,0-3.83,5.94,0,5.94S204.83,44.89,201,44.89Z"/><circle class="cls-5" cx="455.51" cy="200.97" r="3.24"/><path class="cls-5" d="M313.47,302.78a3.58,3.58,0,0,0-2.75-.37A3.43,3.43,0,0,0,308.6,304a2.57,2.57,0,0,0,.07,3.71,3.5,3.5,0,0,0,3,1.7,3.58,3.58,0,0,0,1.8-6.66Z"/><path class="cls-5" d="M232.89,430.3a2.51,2.51,0,0,0-2.5-.66,2.3,2.3,0,0,0,0,4.44,2.51,2.51,0,0,0,2.5-.66A2.25,2.25,0,0,0,232.89,430.3Z"/><path class="cls-5" d="M424.33,327.73c-2.74,0-2.74,4.26,0,4.26S427.08,327.73,424.33,327.73Z"/><path class="cls-1" d="M244,209.58a11.39,11.39,0,0,0-.92-2.46,4.55,4.55,0,0,0-2-2.24,1.54,1.54,0,0,0-2.24,1.72,6,6,0,0,0,1.3,2.47,19.83,19.83,0,0,0,1.55,1.88A1.42,1.42,0,0,0,244,209.58Z"/><path class="cls-1" d="M232,215.27c-.51-.13-1-.12-1.56-.27-.22-.06-.56-.25-.77-.28a4,4,0,0,1-.9-.17,1,1,0,0,0-1.41,1.42,2.69,2.69,0,0,0,2.31,1.69,3.79,3.79,0,0,0,2.76-.79A1,1,0,0,0,232,215.27Z"/><path class="cls-1" d="M252.78,202c-.24.28-.46.57-.68.87a3.77,3.77,0,0,0-.34,1.56,6.56,6.56,0,0,0,.27,2.37,1.26,1.26,0,0,0,1.22.93,1.29,1.29,0,0,0,1.27-1.27,14.86,14.86,0,0,1,.34-1.61,9.89,9.89,0,0,0,.26-1.89A1.38,1.38,0,0,0,252.78,202Z"/><path class="cls-1" d="M273,269a11.84,11.84,0,0,0-1.82-3.64,8,8,0,0,0-2.41-3.13,1.46,1.46,0,0,0-2.18,1.24,14.81,14.81,0,0,0,1.24,3.74c.58,1.5,1.06,3,2.56,3.8A1.8,1.8,0,0,0,273,269Z"/><path class="cls-1" d="M259.72,264.74c-.58.93-1.67,2.32-1.2,3.47a1,1,0,0,0,1.49.61c1.14-.62,1.15-2.26,1.36-3.39A.91.91,0,0,0,259.72,264.74Z"/><path class="cls-1" d="M279.73,259.87a2.86,2.86,0,0,0-.72-.79,6.26,6.26,0,0,0-1.19-.43,18.21,18.21,0,0,0-2-.53,1.12,1.12,0,0,0-.6,2.15,15.74,15.74,0,0,1,1.63.71,3.75,3.75,0,0,0,1.92.6C279.53,261.54,280.27,260.61,279.73,259.87Z"/></g><g id="DESIGNED_BY_FREEPIK" data-name="DESIGNED BY FREEPIK"><path class="cls-6" d="M265.59,463.16l-.51,0-.07-.63a.69.69,0,0,0,.26-.64.72.72,0,1,0-1.42.17.71.71,0,0,0,.41.56l.07.63a7.57,7.57,0,0,0-2.06.64l.33.68a7,7,0,0,1,3-.67,6.71,6.71,0,0,1,1.48.16l.16-.74A7.56,7.56,0,0,0,265.59,463.16Z"/></g></svg>