<?xml version="1.0" encoding="utf-8"?>
<!-- Generator: Adobe Illustrator 24.0.0, SVG Export Plug-In . SVG Version: 6.00 Build 0)  -->
<svg version="1.1" id="Layer_1" xmlns="http://www.w3.org/2000/svg" xmlns:xlink="http://www.w3.org/1999/xlink" x="0px" y="0px"
	 viewBox="0 0 300 160" style="enable-background:new 0 0 300 160;" xml:space="preserve">
<style type="text/css">
	.st0{fill:#FFFFFF;}
	.st1{fill:#2564AF;}
</style>
<path class="st0" d="M288.9,160H11.1C5,160,0,155,0,148.9V11.1C0,5,5,0,11.1,0h277.8C295,0,300,5,300,11.1v137.8
	C300,155,295,160,288.9,160z"/>
<g id="Layer_2_1_">
	<path class="st1" d="M16.7,59.6v42.8h23V84.2h11v18.1h5.9V59.6H16.7z M22.6,66h11v11.8H22.7L22.6,66z M22.6,84.2h11V96H22.7
		L22.6,84.2z M50.6,77.8H39.7V66h11L50.6,77.8z"/>
	<path class="st1" d="M81.8,78.2V67.4h2c3.2,0,4.9,1.9,4.9,5.4c0,3.5-1.7,5.4-5,5.4C83.7,78.2,81.8,78.2,81.8,78.2z M75.3,102.4
		h11.2c6.9,0,11.2-4.4,11.2-11.7c0-5.6-2.3-9.2-6.7-10.4c2.6-1.9,3.6-4.3,3.6-8.4c0.2-3-0.9-6-3-8.5c-2.1-1.8-5.1-2.7-8.1-2.5h-8.1
		L75.3,102.4z M81.8,95.9V84.5h2.4c4.8,0,6.8,1.7,6.8,5.9c0,3.7-2,5.6-6.4,5.6L81.8,95.9z"/>
	<path class="st1" d="M113.9,80.5c3.3,0,6.1,3.4,6.1,7.6c0,4.2-2.7,7.5-6.1,7.5c-3.4,0-6.1-3.4-6.1-7.6
		C107.8,83.9,110.5,80.5,113.9,80.5z M119.3,74.6v3.5c-2-3-4.2-4.3-7.1-4.3c-5.9,0-10.5,6.1-10.5,14.2s4.5,14.4,10.6,14.4
		c2.9,0,5.1-1.5,7-4.3v3.5h6.1v-27L119.3,74.6z"/>
	<path class="st1" d="M137,75.4v3.3c2-3,3.9-4.2,6.8-4.2c2.7,0.1,5,1.3,6.2,3.3c1.4,2.3,1.9,4.9,1.7,7.4v17.1h-6.1V87.5
		c0-4.6-1.2-6.5-4-6.5c-2.9,0-4.6,2.4-4.6,7.5v13.9H131V75.4H137z"/>
	<path class="st1" d="M163.5,85.3l8.1-9.8h8.1l-10.1,11.8l10.9,15.1h-8.3l-8.1-11.5l-0.6,0.8v10.8h-6.1v-45h6.1L163.5,85.3z"/>
	<path class="st1" d="M214.2,87.1h-9.4l4.8-14.9L214.2,87.1z M216.2,93.6l2.8,8.8h6.9L212,60h-4.9l-14.2,42.4h6.7l3-8.8H216.2z"/>
	<path class="st1" d="M240.7,80.9c-1.3-1.2-2.4-1.8-3.6-1.8c-1.4,0.1-2.4,1.1-2.4,2.2c0,1.3,0.6,1.8,3.5,3c5.1,2.2,6.5,4.2,6.5,8.4
		c0,5.7-3.7,9.6-9,9.6c-3.5-0.2-6.6-1.9-8.1-4.5l3.1-4.6c1.7,2.2,3.3,3.2,5.1,3.2s2.8-1.2,2.8-3s-0.6-2.1-3.3-3.4
		c-1.5-0.6-2.9-1.4-4-2.4c-1.6-1.6-2.3-3.5-2.1-5.5c0-5,3.2-8.6,7.6-8.6c2.8,0,5.5,1.1,7.1,2.9L240.7,80.9z"/>
	<path class="st1" d="M255,102.4h-6.1v-27h6.1V102.4z M255.7,64.7c0,2.2-1.6,4-3.6,4c-2,0-3.6-1.8-3.6-4c0-2.2,1.6-3.9,3.6-3.9
		C254,60.8,255.7,62.4,255.7,64.7z"/>
	<path class="st1" d="M271.8,80.5c3.3,0,6.1,3.4,6.1,7.6c0,4.2-2.7,7.5-6.1,7.5c-3.4,0-6.1-3.4-6.1-7.6
		C265.8,83.9,268.4,80.5,271.8,80.5z M277.2,74.6v3.5c-2-3-4.2-4.3-7.1-4.3c-6,0-10.6,6.1-10.6,14.2s4.5,14.4,10.7,14.4
		c2.9,0,5.1-1.5,7-4.3v3.5h6.1v-27L277.2,74.6z"/>
</g>
</svg>
