<?xml version="1.0" encoding="utf-8"?>
<!-- Generator: Adobe Illustrator 24.0.0, SVG Export Plug-In . SVG Version: 6.00 Build 0)  -->
<svg version="1.1" id="Layer_1" xmlns="http://www.w3.org/2000/svg" xmlns:xlink="http://www.w3.org/1999/xlink" x="0px" y="0px"
	 viewBox="0 0 300 160" style="enable-background:new 0 0 300 160;" xml:space="preserve">
<style type="text/css">
	.st0{fill:#FFFFFF;}
	.st1{fill:#D31D55;}
	.st2{fill:#E1136E;}
	.st3{fill:#A01C3D;}
	.st4{fill:#EB0D8C;}
	.st5{fill:#231F20;}
</style>
<path class="st0" d="M288.9,160H11.1C5,160,0,155,0,148.9V11.1C0,5,5,0,11.1,0h277.8C295,0,300,5,300,11.1v137.8
	C300,155,295,160,288.9,160z"/>
<g>
	<path class="st1" d="M187.3,77l-48.6-62.1l0.2-0.5l63.6,7.6C197.5,40.4,192.5,58.5,187.3,77z"/>
	<path class="st2" d="M189.8,77.5l15.3-55.3l46.4,64.4l-0.2,0.5L189.8,77.5z"/>
	<path class="st1" d="M190,80.2l58.8,9.4v0.6l-50.7,25.3C195.4,103.7,192.8,92.2,190,80.2z"/>
	<path class="st3" d="M168,147.1c6.3-22.2,12.6-44.4,19.1-67c0.3,0.5,0.5,1,0.7,1.5c3,13.6,6.1,27.1,9.1,40.6c0.4,1.1-0.1,2.4-1.1,3
		c-8.7,7-17.4,14-26.1,21.1c-0.4,0.3-0.8,0.6-1.3,0.9L168,147.1z"/>
	<path class="st1" d="M235.8,60.9l30.5-5.5L254.7,87C248.3,78.2,242.2,69.8,235.8,60.9z"/>
	<path class="st2" d="M206.2,114.2l45.6-23.1l0.4,0.3c-0.6,1.7-1.1,3.5-1.7,5.2c-0.1,0.4-0.7,0.7-1.1,0.8l-42.5,17
		c-0.1,0-0.2,0-0.3,0L206.2,114.2z"/>
	<path class="st2" d="M280.8,68.7h-16.9c1.6-4.4,3.2-8.5,4.5-12.2L281,68.2L280.8,68.7z"/>
	<path class="st3" d="M162.7,50.2l-25.9-24.4l0.2-0.5c2.2,0,4.4,0,6.6,0c0.3,0,0.7,0.4,1,0.7l18.2,23.3c0.1,0.2,0.2,0.4,0.3,0.6
		L162.7,50.2z"/>
	<path class="st4" d="M22.3,99.4c0-1.9,0.2-4.7,0.2-7.2V58.6h5v17.5h0.1c2-3.4,5.7-5.3,9.6-5.1c6.9,0,11.8,5.7,11.8,14.2
		c0,10-6.3,14.9-12.5,14.9c-3.9,0.2-7.5-1.8-9.4-5.2h-0.2l-0.2,4.6L22.3,99.4z M27.6,88.4c0,0.6,0.1,1.2,0.2,1.8
		c0.9,3.5,4,5.9,7.6,5.9c5.3,0,8.5-4.3,8.5-10.7c0-5.6-2.9-10.4-8.3-10.4c-3.7,0.1-6.8,2.6-7.7,6.1c-0.2,0.7-0.3,1.4-0.3,2
		L27.6,88.4z"/>
	<path class="st5" d="M55.6,60.7h5v18.7h0.2c1-1.5,2-2.9,3.1-4.1l11.9-14.5h6.2L67.9,77.2l15.2,22.4h-6l-12.9-19l-3.7,4.3v14.8h-5
		L55.6,60.7L55.6,60.7z"/>
	<path class="st5" d="M103.2,99.4l-0.4-3.5h-0.2c-2,2.6-5.2,4.1-8.6,4.1c-4.4,0.3-8.2-3-8.5-7.3c0-0.2,0-0.4,0-0.6
		c0-6.7,6-10.4,16.8-10.3v-0.6c0.4-3.1-1.8-6-5-6.4c-0.5-0.1-0.9-0.1-1.4,0c-2.6,0-5.1,0.7-7.3,2l-1.1-3.3c2.8-1.7,6-2.5,9.2-2.5
		c8.6,0,10.6,5.8,10.6,11.4v10.4c0,2.2,0.1,4.5,0.5,6.7L103.2,99.4L103.2,99.4z M102.4,85.2c-5.5-0.1-11.8,0.9-11.8,6.3
		c-0.2,2.5,1.6,4.6,4.1,4.8c0.2,0,0.5,0,0.7,0c3,0.1,5.8-1.8,6.8-4.6c0.2-0.5,0.3-1.1,0.3-1.6C102.4,90,102.4,85.2,102.4,85.2z"/>
	<path class="st5" d="M114.8,94.3c2,1.3,4.3,2,6.7,2c3.7,0,5.4-1.9,5.4-4.1s-1.5-3.7-5.2-5.1c-5-1.8-7.4-4.5-7.4-7.9
		c0-4.5,3.6-8.1,9.7-8.1c2.4,0,4.8,0.6,6.9,1.7l-1.3,3.7c-1.7-1.1-3.7-1.6-5.7-1.6c-3,0-4.7,1.7-4.7,3.8s1.7,3.3,5.3,4.7
		c4.8,1.9,7.3,4.3,7.3,8.4c0,4.9-3.8,8.3-10.5,8.3c-2.7,0.1-5.4-0.6-7.9-1.9L114.8,94.3z"/>
	<path class="st5" d="M138.4,58.6h5.1V76l0,0c0.9-1.5,2.1-2.7,3.6-3.6c1.6-0.9,3.4-1.4,5.2-1.4c3.7,0,9.8,2.3,9.8,11.9v16.6h-5.1
		v-16c0-4.5-1.7-8.3-6.5-8.3c-3.1,0.1-5.8,2.1-6.7,5c-0.3,0.8-0.4,1.6-0.3,2.4v16.8h-5.1L138.4,58.6L138.4,58.6z"/>
</g>
</svg>
