<?xml version="1.0" encoding="utf-8"?>
<!-- Generator: Adobe Illustrator 24.0.0, SVG Export Plug-In . SVG Version: 6.00 Build 0)  -->
<svg version="1.1" id="Layer_1" xmlns="http://www.w3.org/2000/svg" xmlns:xlink="http://www.w3.org/1999/xlink" x="0px" y="0px"
	 viewBox="0 0 300 160" style="enable-background:new 0 0 300 160;" xml:space="preserve">
<style type="text/css">
	.st0{fill:#FFFFFF;}
	.st1{fill:#116EB7;}
	.st2{fill:#E4A924;}
	.st3{fill:#1380BD;}
	.st4{fill:#5F98C8;}
	.st5{fill:#93B3D9;}
	.st6{fill:#C8D4E5;}
	.st7{fill:#1D1D1B;}
</style>
<path class="st0" d="M288.9,160H11.1C5,160,0,155,0,148.9V11.1C0,5,5,0,11.1,0h277.8C295,0,300,5,300,11.1v137.8
	C300,155,295,160,288.9,160z"/>
<g>
	<rect x="3.2" y="47.9" class="st0" width="31.5" height="26.7"/>
	<path class="st1" d="M28.6,54.8c-4.7,6-11.6,14-24.5,13.4V48.8H33C33,48.8,31.3,51.4,28.6,54.8"/>
	<path class="st2" d="M4.2,69.7v4.1h29.5V49.1C33.7,49.1,24.3,71.2,4.2,69.7"/>
	<path class="st3" d="M14.2,55.4c-4,0-7.2,2.7-7.2,6.1c0,2.7,2.1,5.1,5.2,5.9c3.4-1,6.5-2.6,9.1-4.8c0.1-0.4,0.1-0.7,0.1-1.1
		C21.4,58.1,18.2,55.4,14.2,55.4L14.2,55.4"/>
	<path class="st4" d="M19.6,61.5c0,2.5-2.4,4.6-5.4,4.6c-3,0-5.4-2-5.5-4.6c0-2.5,2.4-4.6,5.4-4.6C17.2,56.9,19.6,59,19.6,61.5"/>
	<path class="st5" d="M17.8,61.5c0,1.7-1.6,3.1-3.6,3.1c-2,0-3.6-1.3-3.6-3c0-1.7,1.6-3.1,3.6-3.1C16.2,58.4,17.8,59.8,17.8,61.5
		C17.8,61.5,17.8,61.5,17.8,61.5"/>
	<path class="st6" d="M16,61.5c0,0.9-0.8,1.5-1.8,1.6s-1.8-0.7-1.8-1.5c0-0.9,0.8-1.5,1.8-1.6c0,0,0,0,0,0C15.2,60,16,60.7,16,61.5
		C16,61.5,16,61.5,16,61.5"/>
	<path class="st1" d="M52.7,63.3h4.7c1.2-0.1,2.4,0.1,3.4,0.7c0.7,0.4,1,1.1,1,1.8c0,0.7-0.4,1.3-1,1.8c-1,0.5-2.2,0.8-3.4,0.7h-4.7
		 M43.4,73.6h16c1.4,0,2.8-0.2,4.2-0.3c1.2-0.1,2.4-0.4,3.5-0.8c2.5-1.2,4-3.5,4-5.9c0.1-1.4-0.5-2.8-1.5-3.9
		c-1.3-1.1-3-1.9-4.8-2.2c1.2-0.3,2.3-0.9,3.2-1.6c1.1-1,1.7-2.4,1.7-3.8c0-1.7-0.8-3.3-2.3-4.4c-1.9-1.3-4.2-1.9-6.6-1.8H43.4V73.6
		z M52.7,53.9h4.1c1-0.1,2.1,0.1,3,0.6c0.6,0.4,0.9,1.1,0.8,1.7c0.1,0.7-0.3,1.3-0.8,1.8c-0.9,0.5-2,0.7-3,0.6h-4L52.7,53.9z"/>
	<path class="st1" d="M83,73.7V63.5h0.8c0.8,0,1.6,0.2,2.3,0.6c0.7,0.5,1.3,1.2,1.7,1.9l4.9,7.7h10.6l-4.5-7.2
		c-0.4-0.5-0.8-1.1-1.3-1.6c-0.4-0.5-0.9-0.9-1.5-1.3c-0.8-0.4-1.6-0.7-2.4-0.9c1.1-0.2,2.2-0.5,3.3-1c1.2-0.6,2.2-1.4,2.9-2.4
		c1.5-2.4,1.4-5.3-0.3-7.6c-0.9-1.1-2.2-1.9-3.7-2.3c-2.1-0.5-4.3-0.7-6.6-0.6H73.7v24.8 M83,53.9h4c1.2-0.1,2.4,0.1,3.4,0.6
		c0.6,0.4,0.9,1.1,0.9,1.8c0,0.5-0.2,1-0.6,1.4c-0.4,0.4-0.9,0.7-1.5,0.8c-0.8,0.2-1.6,0.3-2.4,0.3H83C83,58.9,83,53.9,83,53.9z"/>
	<path class="st1" d="M125.3,73.7h9.7l-11.2-24.8h-10.2l-11.3,24.8h9.4l1.6-4.2h10.6 M115.5,64.2l3.3-8.9l3.3,8.9H115.5z"/>
	<path class="st1" d="M155.1,63.4l8.1,2c-0.5,1.7-1.4,3.2-2.6,4.6c-1.2,1.2-2.7,2.2-4.4,2.8c-2.1,0.7-4.4,1-6.6,0.9
		c-2.7,0.1-5.4-0.3-8-1.1c-2.2-0.9-4.1-2.2-5.3-4c-1.6-2.2-2.4-4.7-2.2-7.3c-0.3-3.4,1.2-6.7,3.9-9.1c3.1-2.3,7.1-3.4,11.1-3.2
		c3.1-0.2,6.2,0.5,8.9,1.8c2.3,1.4,4,3.4,4.8,5.6l-8.2,1.5c-0.2-0.6-0.5-1.1-0.9-1.6c-0.5-0.6-1.1-1-1.9-1.3
		c-0.8-0.3-1.6-0.5-2.5-0.5c-1.9-0.1-3.7,0.7-4.8,2c-1,1.4-1.4,3.1-1.3,4.7c-0.2,1.9,0.4,3.9,1.6,5.5c2.3,1.8,5.8,1.9,8.3,0.3
		C154.2,65.9,154.9,64.7,155.1,63.4"/>
	<path class="st1" d="M182.6,63.3h4.6c1.2-0.1,2.4,0.1,3.4,0.7c0.6,0.4,1,1.1,0.9,1.8c0,0.7-0.4,1.3-1,1.8c-1,0.6-2.2,0.9-3.4,0.8
		h-4.6 M173.2,73.7h16.1c1.4,0,2.8-0.2,4.2-0.3c1.2-0.1,2.4-0.4,3.5-0.8c2.5-1.2,4-3.5,3.8-6c0.1-1.4-0.5-2.8-1.5-3.9
		c-1.3-1.1-2.9-1.9-4.8-2.2c1.2-0.3,2.3-0.9,3.2-1.6c1.1-1,1.7-2.4,1.6-3.8c0-1.7-0.8-3.3-2.3-4.4c-1.9-1.3-4.2-1.9-6.6-1.8h-17.3
		L173.2,73.7z M182.6,54h4.1c1-0.1,2.1,0.1,2.9,0.6c0.6,0.4,0.9,1.1,0.8,1.7c0.1,0.7-0.3,1.3-0.8,1.8c-0.9,0.5-2,0.7-3,0.6h-4
		L182.6,54L182.6,54z"/>
	<path class="st1" d="M222.4,73.7h9.7L221,48.8h-10.2l-11.2,24.9h9.4l1.5-4.1h10.6 M212.6,64.3l3.3-8.9l3.2,8.9H212.6z"/>
	<polyline class="st1" points="232.6,48.8 241.3,48.8 252.6,62.5 252.6,48.8 261.3,48.8 261.3,73.6 252.6,73.6 241.3,60 241.3,73.6 
		232.6,73.6 	"/>
	<polyline class="st1" points="265,48.8 274.3,48.8 274.3,58.2 284,48.8 296.3,48.8 285.3,58.2 296.8,73.6 285.4,73.6 279.1,63.5 
		274.3,67.6 274.3,73.6 265,73.6 	"/>
	<path class="st7" d="M217.5,90.5L217.5,90.5c-0.5,0-1,0.2-1.3,0.5c-0.4,0.4-0.6,0.9-0.6,1.5v0.4c-0.5-0.5-1.1-1-1.7-1.3
		c-1.7-0.7-3.6-0.7-5.3-0.2l-0.3,0.3c-2.6-1.6-6.1-1.4-8.4,0.4c-0.8-0.3-2.4-1-2.6-1h0.1c-0.6-0.4-1.5-0.5-2.3-0.2
		c-0.6,0.4-1,1-0.9,1.6c-0.9-1.1-1.8-1.8-2.6-1.8c-0.5-0.1-1,0-1.4,0.3H190l0,0c-1.2,0.9-2,6.4-2.3,10c-0.6-0.3-1.3-0.7-2-1
		c0.6-1,1.1-2,1.4-3.1c0-0.2,0.9-4.8-3-5.9l0,0c-1.5-0.2-3.1,0-4.4,0.7c-1.2,0.8-2,2-2.1,3.4c0,0.9,0.4,1.8,1.1,2.5
		c0.8,0.5,1.8,0.7,2.8,0.6c0.2,0,0.4-0.2,0.6-0.3c0.1-0.2,0.2-0.4,0.1-0.6c0-0.2-0.2-0.4-0.4-0.5c-0.2-0.1-0.4-0.2-0.7-0.1
		c-0.4,0.1-0.9,0-1.3-0.2c-0.4-0.3-0.5-0.7-0.5-1.2c0.1-0.9,0.6-1.7,1.4-2.2c0.9-0.5,1.9-0.6,2.9-0.5c1.5,0.4,1.8,1.9,1.8,3.1
		c0,0.4,0,0.7,0,1.1l0,0c-0.2,1-0.7,2-1.3,3l-0.6,0.7v0.1c-0.9,0.8-2.1,1.3-3.4,1.3c-6.8-0.7-7.2-10.7-7.2-10.8c0-0.4-0.5-0.8-1-0.8
		c-0.2,0-0.4,0.1-0.6,0.2c-0.2,0.2-0.3,0.4-0.3,0.6c0,0.5,0.4,11.5,8.9,12.4l0,0c1.9,0,3.8-0.7,5-2c1.1,0.5,2.1,1,3.1,1.6
		c0.2,0.3,0.6,0.4,1,0.3c0.4-0.1,0.6-0.3,0.7-0.7c0.1-3.5,0.7-6.9,1.8-10.3h0.2l0,0c0,0,1.1,0.2,2.8,3.6l-0.3,7.4
		c0,0.4,0.4,0.8,0.9,0.8c0.2,0,0.5-0.1,0.6-0.2c0.2-0.1,0.3-0.3,0.3-0.5l0.2-7v-0.7v-2.8c0-0.1,0-0.3,0-0.4c0.1,0,0.3,0.1,0.4,0.2
		l0,0l2.6,1c-0.1,0.4-0.1,0.7-0.2,1.1c0,1.1,0.4,2.1,1.3,2.8l0,0c0.2,0.3,0.6,0.7,0.9,1.2l0.3,0.5c0.1,0.1,0.1,0.3,0.1,0.4
		c0.1,0.4-0.1,0.9-0.5,1.2c-0.4,0.2-1.2,0-2.1-0.5c-0.4-0.2-1-0.1-1.3,0.2c-0.3,0.4-0.1,0.9,0.3,1.1c0,0,0,0,0,0
		c1.1,0.8,2.7,1,4.1,0.5c1-0.6,1.5-1.6,1.4-2.6l0,0l0,0c-0.1-0.4-0.2-0.8-0.4-1.2c0-0.4,0.2-0.8,0.6-0.8c1.4-0.1,2.6,0.6,3.2,1.6
		c0.1,0.1,0.3,0.3,0.4,0.3c0,0.1,0,0.3,0,0.4c-0.8,0.3-1.5,0.8-1.9,1.5c-0.4,0.9-0.3,2,0.3,2.8l0.2,0.2l0,0c0.5,0.5,1.3,0.8,2.1,0.7
		c1-0.2,1.9-0.7,2.4-1.4c0.1-0.2,0.1-0.4,0-0.6c0-0.2-0.2-0.4-0.4-0.5c-0.4-0.2-1-0.1-1.2,0.2c0,0,0,0,0,0c-0.2,0.2-0.6,0.7-1.1,0.7
		c-0.4,0-0.4,0-0.6-0.2c-0.1-0.3-0.2-0.5-0.3-0.8c0-0.1,0-0.3,0-0.4c0.3-0.5,1.1-0.9,2.4-1.1c1.1,0,2.2,0.3,3,0.9
		c0.7,0.9,0.8,2,0.3,3c0,0-1.4,2.8-10.2,1c-0.3-0.1-0.6,0-0.9,0.2c-0.2,0.2-0.3,0.5-0.2,0.8c0.1,0.3,2.5,7.2,18.3,4.8
		c0.5-0.1,0.8-0.6,0.6-1c-0.1-0.4-0.5-0.6-1-0.6c-9.6,1.4-13.6-0.8-15.2-2.3c8.4,1.3,10.2-2,10.3-2.4c0.7-1.5,0.4-3.2-0.6-4.5
		c-1.2-1.1-2.9-1.6-4.7-1.5l0,0c0.5-2.1,0.5-4.2-0.2-6.2h0.2c2.2-0.8,4.8,0,5.8,1.9c0.2,0.4,0.3,0.9,0.4,1.3l0.2,0.2v7
		c0,0.4,0.4,0.8,0.9,0.8c0.5,0,0.9-0.4,0.9-0.8c0,0,0,0,0,0V92.7c0-0.1,0-0.2,0-0.4c1.1,0.1,2.3,0.4,3.3,0.7c0.2,0.1,0.5,0.1,0.7,0
		c0.2-0.1,0.4-0.2,0.6-0.4c0.2-0.4,0.1-0.9-0.4-1.1c-1.4-0.4-2.8-0.7-4.2-0.9 M207.5,97.4c-1.1-1.1-2.7-1.7-4.4-1.5
		c-0.6,0.1-1.1,0.4-1.4,0.8v-0.1l0,0l-0.1-0.1l0,0l0,0c-0.8-0.9-1.1-2-0.6-3.1l0,0l0,0l0,0c1.6-1.4,4.1-1.6,5.9-0.5
		c0.4,1.3,0.6,2.6,0.6,3.9c0,0.2,0,0.4,0,0.6 M296.3,90.9c-1.6-1.1-3.9-1-5.4,0.2l-0.2,0.2l0,0c-2.6-0.9-5.4-1.1-8.1-0.8
		c-1.4,0.1-2.9,0.3-4.2,0.7c-2.5-0.9-5.3-0.7-7.5,0.7c-0.8-0.8-2-1.3-3.3-1.3c-0.9,0-1.8,0.4-2.3,1l-0.1,0.2l0,0
		c-2.6-1.9-6.8-1.3-8.9-0.8v-0.1l0,0l0.1-0.2c0.7-2,2.3-3.6,4.5-4.5c2.3-0.6,5.1,0.1,8.3,2.2c0.2,0.1,0.4,0.2,0.6,0.2
		c0.3,0,0.5-0.1,0.6-0.3c0.3-0.3,0.2-0.8-0.2-1.1c-3.8-2.4-7.1-3.3-10-2.5c-2.8,1-4.9,2.9-5.8,5.4c-0.6,1.2-1,2.5-1.2,3.8
		c-1.2-2.2-2.4-3.4-3.6-3.6c-0.5-0.1-1,0-1.4,0.3h-0.2l0,0c-0.9,0.7-1.7,4-2.3,10c-0.5-0.3-1.2-0.6-2.1-1c0.6-1,1.1-2,1.4-3.1
		c0.2-0.8,0.7-4.9-3-5.9l0,0c-1.6-0.2-3.1,0-4.5,0.7c-1.2,0.8-2,2.1-2.1,3.4l0,0c0,0.9,0.4,1.8,1.1,2.5c0.8,0.5,1.8,0.7,2.8,0.6
		c0.5-0.1,0.8-0.5,0.8-0.9c0-0.2-0.2-0.4-0.4-0.5c-0.2-0.1-0.4-0.2-0.7-0.1c-0.4,0.1-0.9,0-1.3-0.2c-0.3-0.3-0.5-0.8-0.5-1.2
		c0.1-0.9,0.6-1.7,1.4-2.2c0.9-0.5,1.9-0.6,3-0.5c1.5,0.4,1.8,2.1,1.8,3.1c0,0.4,0,0.7,0,1.1l0,0c-0.2,1-0.7,2.1-1.3,3l0,0l-0.7,0.7
		l-0.1,0.2c-0.9,0.8-2.1,1.3-3.3,1.3c-6.8-0.7-7.3-10.7-7.3-10.8c0-0.4-0.4-0.8-0.9-0.8l0,0c-0.5,0-0.9,0.3-0.9,0.7c0,0,0,0,0,0
		c0,0.5,0.5,11.5,8.9,12.4l0,0c1.9,0,3.7-0.7,5-2c1.1,0.5,2.1,1,3.1,1.6c0.2,0.3,0.6,0.4,1,0.3c0.4-0.1,0.6-0.3,0.7-0.7
		c0.1-3.5,0.7-6.9,1.8-10.3h-0.2c0.1,0,0.3-0.1,0.3-0.2l0,0c0,0,1.2,0.2,3,4c0.1,0.2,0.3,0.3,0.5,0.4c-0.3,1.8-0.6,3.8-0.7,6v0.2
		c0.1,0.4,0.6,0.7,1.1,0.7c0.4,0,0.7-0.3,0.8-0.7c0.3-3.3,0.8-6.6,1.5-9.9l0,0c0.2,0,4.7-1.5,7.5-0.3c-2,1.1-3.8,2.5-5.1,4.1
		c-0.5,0.6-0.7,1.2-0.7,1.9c0,0.1,0,0.3,0,0.4c0.1,0.6,0.6,1.2,1.2,1.5c1.9,1.2,4,2.2,6.1,2.9c0.3,0.1,0.6,0,0.8-0.1
		c0.2-0.1,0.4-0.4,0.4-0.6v-0.2c-0.1-3.4,0.3-6.8,1-10.1c0.2-0.2,0.5-0.3,0.8-0.3c0.7,0.1,1.3,0.4,1.8,0.8c0,1.2-0.6,8.4-0.6,8.7
		c-0.2,1.2,0.8,2.4,2.3,2.5c0.2,0,0.4,0,0.6,0h0.1c0.9-0.1,5.1-0.8,6.3-2.8c0.2-0.4,0.3-0.7,0.3-1.1c0-0.4-0.1-0.9-0.4-1.3l-0.2-0.2
		c-1.9-1.7-4.3-3-6.8-3.9v-0.6v-0.3l0.2-0.1c1.8-1.4,4.4-1.7,6.5-0.8c0.2,0.1,0.5,0.1,0.7,0l0,0c1.4-0.4,2.8-0.6,4.2-0.7
		c0.2,0,5.1-0.5,7.3,0.8c-0.2,0.9-0.4,1.8-0.4,2.8c-0.5-0.4-1.1-0.6-1.7-0.6c-1,0.1-1.8,0.6-2.4,1.2c-0.3-0.4-0.7-0.8-1.2-1.1
		c-0.6-0.3-1.4-0.4-2.1-0.2l0,0l0,0c-2.2,0.4-3,3.6-3.2,4.9c-0.3,2.9,1.9,3.1,2,3.2c1.5,0.1,2.9-0.6,3.5-1.8c0.2-0.4-0.1-0.8-0.5-1
		l0,0c-0.5-0.1-1,0.1-1.2,0.5c-0.2,0.5-0.9,0.8-1.5,0.8c0,0-0.6-0.2-0.4-1.4c0.2-1.6,1-3.5,1.7-3.6h0.1c0.3-0.1,0.6,0,0.9,0.1
		c0.6,0.4,1,0.9,1,1.6c0.1,0.3,0.4,0.6,0.8,0.6c0.4,0,0.8-0.1,1-0.4c0.3-0.6,1.1-1.6,1.8-1.7c0.6,0,0.9,0.4,1.4,1.2l0.1,0.1
		c0,2.1,0.1,3.8,0.1,3.9c0,0.4,0.5,0.7,1,0.7l0,0c0.5,0,0.9-0.4,0.9-0.8v-0.2v0.1v-0.1c0-1.1,0-2.2,0-3.3c-0.1-2.1,0.2-4.3,0.9-6.3
		c0.3-0.2,1.3-0.8,2.9,0.1c0.2,0.1,0.4,0.2,0.7,0.1c0.3,0,0.5-0.2,0.6-0.3c0.3-0.3,0.2-0.8-0.2-1.1 M264.1,101.5
		c-1.5-0.7-3-1.4-4.5-2.3c-0.3-0.1-0.6-0.2-0.8-0.5v-0.2c0-0.4,0.2-0.7,0.4-1.1l0,0c1.4-1.6,3.1-3,5.1-4c-0.4,2.7-0.6,5.4-0.6,8
		 M276.3,99.3c0.1,0.2,0.2,0.4,0.2,0.5c0,0.2,0,0.3-0.1,0.4c-0.6,1-3.3,1.8-4.9,2c-0.8,0-0.9-0.4-1-0.6l0.4-5.6
		C272.9,96.9,274.7,98,276.3,99.3 M265.3,91.6L265.3,91.6L265.3,91.6z"/>
</g>
</svg>
