<?xml version="1.0" encoding="utf-8"?>
<!-- Generator: Adobe Illustrator 24.0.0, SVG Export Plug-In . SVG Version: 6.00 Build 0)  -->
<svg version="1.1" id="Layer_1" xmlns="http://www.w3.org/2000/svg" xmlns:xlink="http://www.w3.org/1999/xlink" x="0px" y="0px"
	 viewBox="0 0 300 160" style="enable-background:new 0 0 300 160;" xml:space="preserve">
<style type="text/css">
	.st0{fill:#FFFFFF;}
	.st1{clip-path:url(#SVGID_2_);}
	.st2{clip-path:url(#SVGID_4_);}
	.st3{fill:#5B6063;}
	.st4{clip-path:url(#SVGID_6_);}
	.st5{clip-path:url(#SVGID_8_);}
	.st6{clip-path:url(#SVGID_10_);}
	.st7{clip-path:url(#SVGID_12_);}
	.st8{fill:#898E90;}
	.st9{clip-path:url(#SVGID_14_);}
	.st10{fill:#164B91;}
	.st11{fill:#EF3A38;}
	.st12{fill:#10A256;}
	.st13{fill:#0A0F0E;}
	.st14{fill:#2D2D74;}
</style>
<path class="st0" d="M288.9,160H11.1C5,160,0,155,0,148.9V11.1C0,5,5,0,11.1,0h277.8C295,0,300,5,300,11.1v137.8
	C300,155,295,160,288.9,160z"/>
<g>
	<g>
		<g>
			<g>
				<g>
					<defs>
						<rect id="SVGID_1_" x="14.6" y="41.7" width="123.3" height="59.5"/>
					</defs>
					<clipPath id="SVGID_2_">
						<use xlink:href="#SVGID_1_"  style="overflow:visible;"/>
					</clipPath>
					<g class="st1">
						<g>
							<g>
								<defs>
									<path id="SVGID_3_" d="M76.2,41.7c-34,0-61.6,13.3-61.6,29.7c0,16.4,27.6,29.8,61.6,29.8s61.7-13.3,61.7-29.8
										C137.9,55,110.3,41.7,76.2,41.7"/>
								</defs>
								<clipPath id="SVGID_4_">
									<use xlink:href="#SVGID_3_"  style="overflow:visible;"/>
								</clipPath>
								<g class="st2">
									<path class="st3" d="M14.6,101.2h123.3V41.7H14.6V101.2z"/>
								</g>
							</g>
						</g>
					</g>
				</g>
			</g>
			<g>
				<g>
					<defs>
						<path id="SVGID_5_" d="M73.5,41.7H79v0L73.5,41.7L73.5,41.7z M70.7,41.7h10.9v0.1L70.7,41.7C70.7,41.8,70.7,41.7,70.7,41.7z
							 M68.9,41.8h14.5v0.1L68.9,41.8L68.9,41.8z M67.5,41.9h17.5V42L67.5,41.9L67.5,41.9z M66.2,42h20v0.1L66.2,42L66.2,42z
							 M65.2,42.1h22v0.1L65.2,42.1L65.2,42.1z M64.2,42.1h24.1v0.1L64.2,42.1L64.2,42.1z M63.3,42.2h25.9v0.1L63.3,42.2L63.3,42.2z
							 M62.5,42.3h27.5v0.1L62.5,42.3L62.5,42.3z M61.7,42.4h29.1v0.1L61.7,42.4L61.7,42.4z M60.9,42.5h30.6v0.1L60.9,42.5
							L60.9,42.5z M60.2,42.6h32v0.1L60.2,42.6L60.2,42.6z M59.5,42.7h33.4v0.1L59.5,42.7L59.5,42.7z M58.9,42.8h34.6v0.1L58.9,42.8
							C58.9,42.9,58.9,42.8,58.9,42.8z M58.3,42.9h36v0.1L58.3,42.9L58.3,42.9z M57.6,42.9h37.2V43L57.6,42.9L57.6,42.9z M57.1,43
							h38.2v0.1L57.1,43L57.1,43z M56.6,43.1h39.4v0.1L56.6,43.1L56.6,43.1z M56,43.2h40.4v0.1L56,43.2C56,43.3,56,43.2,56,43.2z
							 M55.4,43.3H97v0.1L55.4,43.3L55.4,43.3z M54.9,43.4h42.7v0.1L54.9,43.4L54.9,43.4z M54.4,43.5H98v0.1L54.4,43.5L54.4,43.5z
							 M53.9,43.6h44.5v0.1L53.9,43.6L53.9,43.6z M53.5,43.7h45.4v0.1L53.5,43.7L53.5,43.7z M53,43.7h46.3v0.1L53,43.7
							C53,43.8,53,43.7,53,43.7z M52.6,43.8h47.3v0.1L52.6,43.8L52.6,43.8z M52.1,43.9h48.2V44L52.1,43.9L52.1,43.9z M51.7,44h49
							v0.1L51.7,44C51.7,44.1,51.7,44,51.7,44z M51.3,44.1h49.8v0.1L51.3,44.1L51.3,44.1z M50.9,44.2h50.6v0.1L50.9,44.2L50.9,44.2z
							 M50.4,44.3h51.5v0.1L50.4,44.3L50.4,44.3z M50.1,44.4h52.3v0.1L50.1,44.4L50.1,44.4z M49.6,44.5h53.1v0.1L49.6,44.5
							L49.6,44.5z M49.3,44.5h53.9v0.1L49.3,44.5L49.3,44.5z M49,44.6h54.6v0.1L49,44.6L49,44.6z M48.5,44.7h55.4v0.1L48.5,44.7
							L48.5,44.7z M48.2,44.8h56.1v0.1L48.2,44.8L48.2,44.8z M47.8,44.9h56.7V45L47.8,44.9L47.8,44.9z M47.5,45H105v0.1L47.5,45
							L47.5,45z M47.1,45.1h58.2v0.1L47.1,45.1L47.1,45.1z M46.8,45.2h58.9v0.1L46.8,45.2L46.8,45.2z M46.5,45.3H106v0.1L46.5,45.3
							L46.5,45.3z M46.1,45.3h60.3v0.1L46.1,45.3L46.1,45.3z M45.8,45.4h60.8v0.1L45.8,45.4L45.8,45.4z M45.4,45.5H107v0.1
							L45.4,45.5L45.4,45.5z M45.1,45.6h62.2v0.1L45.1,45.6L45.1,45.6z M44.9,45.7h62.8v0.1L44.9,45.7L44.9,45.7z M44.5,45.8H108
							v0.1L44.5,45.8C44.5,45.9,44.5,45.8,44.5,45.8z M44.2,45.9h64.1V46L44.2,45.9L44.2,45.9z M43.8,46h64.7v0.1L43.8,46L43.8,46z
							 M43.6,46.1h65.3v0.1L43.6,46.1L43.6,46.1z M43.3,46.2h65.8v0.1L43.3,46.2L43.3,46.2z M43.1,46.2h66.4v0.1L43.1,46.2
							C43.1,46.3,43.1,46.2,43.1,46.2z M42.7,46.3h67v0.1L42.7,46.3L42.7,46.3z M42.5,46.4H110v0.1L42.5,46.4L42.5,46.4z M42.1,46.5
							h68.1v0.1L42.1,46.5L42.1,46.5z M41.9,46.6h68.7v0.1L41.9,46.6L41.9,46.6z M41.6,46.7h69.2v0.1L41.6,46.7
							C41.6,46.8,41.6,46.7,41.6,46.7z M41.4,46.8h69.8v0.1L41.4,46.8L41.4,46.8z M41.1,46.9h70.3V47L41.1,46.9L41.1,46.9z M40.8,47
							h70.8v0.1L40.8,47L40.8,47z M40.6,47h71.4v0.1L40.6,47L40.6,47z M40.3,47.1h71.8v0.1L40.3,47.1L40.3,47.1z M40,47.2h72.4v0.1
							L40,47.2L40,47.2z M39.8,47.3h72.9v0.1L39.8,47.3L39.8,47.3z M39.5,47.4H113v0.1L39.5,47.4L39.5,47.4z M39.3,47.5h73.9v0.1
							L39.3,47.5L39.3,47.5z M39,47.6h74.4v0.1L39,47.6L39,47.6z M38.7,47.7h74.9v0.1L38.7,47.7L38.7,47.7z M38.5,47.8h75.4v0.1
							L38.5,47.8L38.5,47.8z M38.3,47.8h75.8v0.1L38.3,47.8L38.3,47.8z M38.1,47.9h76.3V48L38.1,47.9L38.1,47.9z M37.8,48h76.7v0.1
							L37.8,48L37.8,48z M37.6,48.1h77.2v0.1L37.6,48.1L37.6,48.1z M37.4,48.2h77.7v0.1L37.4,48.2L37.4,48.2z M37.2,48.3h78.2v0.1
							L37.2,48.3L37.2,48.3z M36.9,48.4h78.6v0.1L36.9,48.4L36.9,48.4z M36.7,48.5h79.1v0.1L36.7,48.5L36.7,48.5z M36.5,48.6h79.4
							v0.1L36.5,48.6L36.5,48.6z M36.2,48.7h79.9v0.1L36.2,48.7L36.2,48.7z M36,48.7h80.3v0.1L36,48.7L36,48.7z M35.8,48.8h80.8v0.1
							L35.8,48.8C35.8,48.9,35.8,48.8,35.8,48.8z M35.7,48.9h81.1V49L35.7,48.9L35.7,48.9z M35.5,49h81.6v0.1L35.5,49L35.5,49z
							 M35.2,49.1h82v0.1L35.2,49.1L35.2,49.1z M35,49.2h82.5v0.1L35,49.2L35,49.2z M34.8,49.3h82.8v0.1L34.8,49.3L34.8,49.3z
							 M34.5,49.4h83.3v0.1L34.5,49.4L34.5,49.4z M34.4,49.5h83.6v0.1L34.4,49.5C34.4,49.5,34.4,49.5,34.4,49.5z M34.2,49.5h84.1
							v0.1L34.2,49.5L34.2,49.5z M34,49.6h84.4v0.1L34,49.6L34,49.6z M33.7,49.7h84.9v0.1L33.7,49.7L33.7,49.7z M33.6,49.8h85.2v0.1
							L33.6,49.8L33.6,49.8z M33.4,49.9h85.7V50L33.4,49.9L33.4,49.9z M33.2,50h86v0.1L33.2,50L33.2,50z M33.1,50.1h86.4v0.1
							L33.1,50.1L33.1,50.1z M32.8,50.2h86.8v0.1L32.8,50.2L32.8,50.2z M32.6,50.3h87.2v0.1L32.6,50.3L32.6,50.3z M32.5,50.4H120
							v0.1L32.5,50.4L32.5,50.4z M32.3,50.4h88v0.1L32.3,50.4L32.3,50.4z M32,50.5h88.3v0.1L32,50.5L32,50.5z M31.9,50.6h88.6v0.1
							L31.9,50.6L31.9,50.6z M31.7,50.7h89v0.1L31.7,50.7L31.7,50.7z M31.6,50.8h89.3v0.1L31.6,50.8L31.6,50.8z M31.4,50.9H121V51
							L31.4,50.9L31.4,50.9z M31.3,51h90v0.1L31.3,51L31.3,51z M31,51.1h90.3v0.1L31,51.1L31,51.1z M30.9,51.2h90.7v0.1L30.9,51.2
							L30.9,51.2z M30.7,51.2h91v0.1L30.7,51.2L30.7,51.2z M30.6,51.3h91.3v0.1L30.6,51.3L30.6,51.3z M30.3,51.4H122v0.1L30.3,51.4
							L30.3,51.4z M30.2,51.5h92v0.1L30.2,51.5L30.2,51.5z M30,51.6h92.4v0.1L30,51.6L30,51.6z M29.9,51.7h92.7v0.1L29.9,51.7
							L29.9,51.7z M29.7,51.8h93.1v0.1L29.7,51.8L29.7,51.8z M29.6,51.9H123V52L29.6,51.9L29.6,51.9z M29.4,52h93.6V52L29.4,52
							L29.4,52z M29.2,52h94v0.1L29.2,52L29.2,52z M29.1,52.1h94.3v0.1L29.1,52.1L29.1,52.1z M28.9,52.2h94.6v0.1L28.9,52.2
							L28.9,52.2z M28.8,52.3h95v0.1L28.8,52.3L28.8,52.3z M28.6,52.4h95.2v0.1L28.6,52.4L28.6,52.4z M28.4,52.5H124v0.1L28.4,52.5
							L28.4,52.5z M28.3,52.6h95.9v0.1L28.3,52.6L28.3,52.6z M28.2,52.7h96.1v0.1L28.2,52.7L28.2,52.7z M28,52.8h96.5v0.1L28,52.8
							L28,52.8z M27.9,52.8h96.7v0.1L27.9,52.8L27.9,52.8z M27.7,52.9h97V53L27.7,52.9L27.7,52.9z M27.6,53h97.3v0.1L27.6,53
							L27.6,53z M27.4,53.1H125v0.1L27.4,53.1L27.4,53.1z M27.3,53.2h97.9v0.1L27.3,53.2L27.3,53.2z M27.2,53.3h98.2v0.1L27.2,53.3
							C27.2,53.4,27.2,53.3,27.2,53.3z M26.9,53.4h98.5v0.1L26.9,53.4L26.9,53.4z M26.8,53.5h98.7v0.1L26.8,53.5L26.8,53.5z
							 M26.7,53.6h99.1v0.1L26.7,53.6L26.7,53.6z M26.6,53.6h99.3v0.1L26.6,53.6L26.6,53.6z M26.5,53.7H126v0.1L26.5,53.7L26.5,53.7
							z M26.4,53.8h99.8v0.1L26.4,53.8L26.4,53.8z M26.1,53.9h100.1V54L26.1,53.9L26.1,53.9z M26,54h100.3v0.1L26,54L26,54z
							 M25.9,54.1h100.7v0.1L25.9,54.1L25.9,54.1z M25.8,54.2h100.9v0.1L25.8,54.2C25.8,54.3,25.8,54.2,25.8,54.2z M25.7,54.3h101.1
							v0.1L25.7,54.3C25.7,54.4,25.7,54.3,25.7,54.3z M25.6,54.4h101.3v0.1L25.6,54.4L25.6,54.4z M25.4,54.4H127v0.1L25.4,54.4
							L25.4,54.4z M25.2,54.5h101.9v0.1L25.2,54.5L25.2,54.5z M25.1,54.6h102.1v0.1L25.1,54.6L25.1,54.6z M25,54.7h102.5v0.1
							L25,54.7L25,54.7z M24.9,54.8h102.7v0.1L24.9,54.8L24.9,54.8z M24.8,54.9h102.9V55L24.8,54.9L24.8,54.9z M24.7,55h103.2v0.1
							L24.7,55L24.7,55z M24.6,55.1h103.4v0.1L24.6,55.1L24.6,55.1z M24.4,55.2h103.6v0.1L24.4,55.2L24.4,55.2z M24.3,55.3h103.8
							v0.1L24.3,55.3C24.3,55.3,24.3,55.3,24.3,55.3z M24.2,55.3h104.1v0.1L24.2,55.3C24.2,55.4,24.2,55.3,24.2,55.3z M24.1,55.4
							h104.3v0.1L24.1,55.4L24.1,55.4z M24,55.5h104.5v0.1L24,55.5L24,55.5z M23.9,55.6h104.7v0.1L23.9,55.6L23.9,55.6z M23.6,55.7
							h105.1v0.1L23.6,55.7L23.6,55.7z M23.5,55.8h105.3v0.1L23.5,55.8L23.5,55.8z M23.4,55.9H129V56L23.4,55.9L23.4,55.9z M23.3,56
							h105.8v0.1L23.3,56L23.3,56z M23.2,56.1h106v0.1L23.2,56.1L23.2,56.1z M23.2,56.1h106.1v0.1L23.2,56.1L23.2,56.1z M23.1,56.2
							h106.3v0.1L23.1,56.2L23.1,56.2z M23,56.3h106.6v0.1L23,56.3L23,56.3z M22.9,56.4h106.8v0.1L22.9,56.4
							C22.9,56.5,22.9,56.4,22.9,56.4z M22.7,56.5h107v0.1L22.7,56.5L22.7,56.5z M22.6,56.6h107.2v0.1L22.6,56.6L22.6,56.6z
							 M22.5,56.7H130v0.1L22.5,56.7L22.5,56.7z M22.4,56.8h107.7v0.1L22.4,56.8L22.4,56.8z M22.3,56.9h107.9v0.1L22.3,56.9
							L22.3,56.9z M22.2,56.9h108V57L22.2,56.9L22.2,56.9z M22.1,57h108.3v0.1L22.1,57L22.1,57z M21.9,57.1h108.5v0.1L21.9,57.1
							L21.9,57.1z M21.8,57.2h108.7v0.1L21.8,57.2L21.8,57.2z M21.8,57.3h108.8v0.1L21.8,57.3L21.8,57.3z M21.7,57.4h109.1v0.1
							L21.7,57.4L21.7,57.4z M21.6,57.5h109.3v0.1L21.6,57.5L21.6,57.5z M21.5,57.6H131v0.1L21.5,57.6L21.5,57.6z M21.4,57.7H131
							v0.1L21.4,57.7L21.4,57.7z M21.3,57.8h109.9v0.1L21.3,57.8L21.3,57.8z M21.3,57.8h110v0.1L21.3,57.8L21.3,57.8z M21.2,57.9
							h110.2V58L21.2,57.9L21.2,57.9z M21,58h110.4v0.1L21,58L21,58z M20.9,58.1h110.6v0.1L20.9,58.1L20.9,58.1z M20.8,58.2h110.8
							v0.1L20.8,58.2L20.8,58.2z M20.7,58.3h111v0.1L20.7,58.3L20.7,58.3z M20.7,58.4h111.1v0.1L20.7,58.4L20.7,58.4z M20.6,58.5
							h111.3v0.1L20.6,58.5L20.6,58.5z M20.5,58.6H132v0.1L20.5,58.6L20.5,58.6z M20.4,58.6H132v0.1L20.4,58.6L20.4,58.6z
							 M20.4,58.7h111.8v0.1L20.4,58.7L20.4,58.7z M20.3,58.8h112v0.1L20.3,58.8L20.3,58.8z M20.1,58.9h112.2V59L20.1,58.9
							L20.1,58.9z M20,59h112.3v0.1L20,59L20,59z M20,59.1h112.5v0.1L20,59.1L20,59.1z M19.9,59.2h112.7v0.1L19.9,59.2L19.9,59.2z
							 M19.8,59.3h112.8v0.1L19.8,59.3L19.8,59.3z M19.7,59.4h113v0.1L19.7,59.4L19.7,59.4z M19.7,59.5h113.1v0.1L19.7,59.5
							L19.7,59.5z M19.6,59.5h113.4v0.1L19.6,59.5L19.6,59.5z M19.5,59.6h113.5v0.1L19.5,59.6L19.5,59.6z M19.3,59.7H133v0.1
							L19.3,59.7L19.3,59.7z M19.3,59.8h113.8v0.1L19.3,59.8L19.3,59.8z M19.2,59.9h113.9V60L19.2,59.9L19.2,59.9z M19.1,60h114.2
							v0.1L19.1,60L19.1,60z M19.1,60.1h114.3v0.1L19.1,60.1L19.1,60.1z M19,60.2h114.4v0.1L19,60.2L19,60.2z M19,60.2h114.5v0.1
							L19,60.2L19,60.2z M18.9,60.3h114.7v0.1L18.9,60.3L18.9,60.3z M18.8,60.4h114.8v0.1L18.8,60.4L18.8,60.4z M18.8,60.5h115v0.1
							L18.8,60.5L18.8,60.5z M18.7,60.6h115.2v0.1L18.7,60.6L18.7,60.6z M18.5,60.7h115.3v0.1L18.5,60.7L18.5,60.7z M18.5,60.8H134
							v0.1L18.5,60.8L18.5,60.8z M18.4,60.9h115.6V61L18.4,60.9L18.4,60.9z M18.3,61h115.8v0.1L18.3,61L18.3,61z M18.3,61.1h115.9
							v0.1L18.3,61.1L18.3,61.1z M18.2,61.1h116v0.1L18.2,61.1L18.2,61.1z M18.2,61.2h116.1v0.1L18.2,61.2L18.2,61.2z M18.1,61.3
							h116.3v0.2H18.1V61.3z M18,61.5h116.6v0.1L18,61.5L18,61.5z M17.9,61.6h116.7v0.1L17.9,61.6L17.9,61.6z M17.9,61.7h116.8v0.1
							L17.9,61.7L17.9,61.7z M17.8,61.8h116.9v0.1L17.8,61.8L17.8,61.8z M17.8,61.9h117v0.1L17.8,61.9L17.8,61.9z M17.6,61.9h117.1
							V62L17.6,61.9L17.6,61.9z M17.6,62h117.2v0.1L17.6,62L17.6,62z M17.5,62.1H135v0.2H17.5V62.1z M17.4,62.3h117.7v0.1L17.4,62.3
							L17.4,62.3z M17.3,62.4h117.8v0.1L17.3,62.4L17.3,62.4z M17.3,62.5h117.9v0.1L17.3,62.5L17.3,62.5z M17.2,62.6h118v0.1
							L17.2,62.6L17.2,62.6z M17.2,62.7h118.1v0.2H17.2V62.7z M17.1,62.8h118.4V63H17.1V62.8z M17,63h118.5v0.1L17,63L17,63z
							 M17,63.1h118.6v0.1L17,63.1L17,63.1z M16.8,63.2h118.7v0.1L16.8,63.2L16.8,63.2z M16.8,63.3h118.8v0.1L16.8,63.3L16.8,63.3z
							 M16.7,63.4h118.9v0.1L16.7,63.4L16.7,63.4z M16.7,63.5h119.1v0.1L16.7,63.5L16.7,63.5z M16.6,63.6h119.2v0.1L16.6,63.6
							L16.6,63.6z M16.6,63.6h119.3v0.1L16.6,63.6L16.6,63.6z M16.5,63.7h119.4v0.1L16.5,63.7L16.5,63.7z M16.5,63.8H136V64H16.5
							V63.8z M16.4,64H136v0.1L16.4,64L16.4,64z M16.4,64.1h119.7v0.1L16.4,64.1L16.4,64.1z M16.3,64.2h119.8v0.1L16.3,64.2
							L16.3,64.2z M16.3,64.3h119.9v0.2H16.3V64.3z M16.2,64.4h120.1v0.1L16.2,64.4L16.2,64.4z M16.2,64.5h120.2v0.2H16.2V64.5z
							 M16,64.7h120.4v0.2H16V64.7z M15.9,64.9h120.5V65L15.9,64.9L15.9,64.9z M15.9,65h120.6v0.2H15.9V65z M15.8,65.2h120.7v0.1
							L15.8,65.2L15.8,65.2z M15.8,65.2h120.9v0.2H15.8V65.2z M15.7,65.4h121v0.1L15.7,65.4L15.7,65.4z M15.7,65.5h121.1v0.2H15.7
							V65.5z M15.6,65.7h121.2v0.1L15.6,65.7C15.6,65.8,15.6,65.7,15.6,65.7z M15.6,65.8h121.3V66H15.6V65.8z M15.5,66h121.4v0.2
							H15.5V66z M15.5,66.1H137v0.2H15.5V66.1z M15.4,66.3H137v0.1L15.4,66.3L15.4,66.3z M15.4,66.4h121.8v0.2H15.4V66.4z
							 M15.3,66.6h121.9v0.2H15.3V66.6z M15.3,66.8h122v0.2h-122V66.8z M15.1,66.9h122.1v0.2H15.1V66.9z M15.1,67.1h122.2v0.3H15.1
							V67.1z M15,67.4h122.3v0.2H15V67.4z M15,67.6h122.4v0.3H15V67.6z M14.9,67.8h122.6v0.1L14.9,67.8L14.9,67.8z M14.9,67.9h122.7
							v0.4H14.9V67.9z M14.8,68.3h122.8v0.2H14.8V68.3z M14.8,68.5h122.9v0.4H14.8V68.5z M14.7,68.9h123v0.3h-123V68.9z M14.7,69.2
							h123.1v0.4H14.7V69.2z M14.6,69.6h123.2v0.3H14.6V69.6z M14.6,69.9h123.3v3H14.6V69.9z M14.6,72.9h123.2v0.3H14.6V72.9z
							 M14.7,73.2h123.1v0.4H14.7V73.2z M14.7,73.6h123v0.3h-123V73.6z M14.8,73.9h122.9v0.5H14.8V73.9z M14.8,74.4h122.8v0.2H14.8
							V74.4z M14.9,74.6h122.7v0.3H14.9V74.6z M14.9,74.9h122.6v0.2H14.9V74.9z M15,75.1h122.4v0.3H15V75.1z M15,75.3h122.3v0.1
							L15,75.3L15,75.3z M15.1,75.4h122.2v0.4H15.1V75.4z M15.1,75.8h122.1v0.1L15.1,75.8L15.1,75.8z M15.3,75.9h122v0.3h-122V75.9z
							 M15.3,76.1h121.9v0.1L15.3,76.1L15.3,76.1z M15.4,76.2h121.8v0.2H15.4V76.2z M15.4,76.4H137v0.1L15.4,76.4L15.4,76.4z
							 M15.5,76.5H137v0.3H15.5V76.5z M15.5,76.8h121.4v0.1L15.5,76.8L15.5,76.8z M15.6,76.8h121.3V77H15.6V76.8z M15.6,77h121.2
							v0.1L15.6,77C15.6,77.1,15.6,77,15.6,77z M15.7,77.1h121.1v0.3H15.7V77.1z M15.7,77.4h121v0.1L15.7,77.4L15.7,77.4z
							 M15.8,77.5h120.9v0.2H15.8V77.5z M15.9,77.6h120.6v0.2H15.9V77.6z M15.9,77.8h120.5v0.1L15.9,77.8L15.9,77.8z M16,77.9h120.4
							v0.2H16V77.9z M16,78.1h120.3v0.1L16,78.1L16,78.1z M16.2,78.2h120.2v0.1L16.2,78.2L16.2,78.2z M16.2,78.3h120.1v0.1
							L16.2,78.3L16.2,78.3z M16.3,78.4h119.9v0.2H16.3V78.4z M16.3,78.5h119.8v0.1L16.3,78.5L16.3,78.5z M16.4,78.6h119.7v0.2H16.4
							V78.6z M16.4,78.8H136v0.1L16.4,78.8L16.4,78.8z M16.5,78.9H136V79L16.5,78.9L16.5,78.9z M16.5,79h119.4v0.1L16.5,79L16.5,79z
							 M16.6,79.1h119.3v0.1L16.6,79.1L16.6,79.1z M16.6,79.2h119.2v0.1L16.6,79.2L16.6,79.2z M16.7,79.3h119.1v0.2H16.7V79.3z
							 M16.8,79.4h118.8v0.2H16.8V79.4z M17,79.6h118.6v0.2H17V79.6z M17,79.8h118.5v0.1L17,79.8L17,79.8z M17.1,79.9h118.4V80
							L17.1,79.9L17.1,79.9z M17.1,80h118.3v0.1L17.1,80L17.1,80z M17.2,80.1h118.1v0.1L17.2,80.1L17.2,80.1z M17.2,80.1h118v0.1
							L17.2,80.1L17.2,80.1z M17.3,80.2h117.9v0.1L17.3,80.2L17.3,80.2z M17.3,80.3h117.8v0.1L17.3,80.3L17.3,80.3z M17.4,80.4
							h117.7v0.1L17.4,80.4L17.4,80.4z M17.4,80.5H135v0.1L17.4,80.5L17.4,80.5z M17.5,80.6H135v0.1L17.5,80.6L17.5,80.6z
							 M17.5,80.7h117.3v0.1L17.5,80.7L17.5,80.7z M17.6,80.8h117.2v0.1L17.6,80.8L17.6,80.8z M17.8,80.9h117V81h-117V80.9z
							 M17.9,81h116.8v0.1L17.9,81L17.9,81z M17.9,81.1h116.7v0.1L17.9,81.1L17.9,81.1z M18,81.2h116.6v0.1L18,81.2L18,81.2z
							 M18,81.3h116.4v0.1L18,81.3L18,81.3z M18.1,81.4h116.3v0.1L18.1,81.4L18.1,81.4z M18.1,81.5h116.2v0.1L18.1,81.5L18.1,81.5z
							 M18.2,81.6h116.1v0.1L18.2,81.6L18.2,81.6z M18.3,81.7h115.9v0.1L18.3,81.7L18.3,81.7z M18.3,81.7h115.8v0.1L18.3,81.7
							L18.3,81.7z M18.4,81.8h115.6v0.1L18.4,81.8L18.4,81.8z M18.4,81.9H134V82L18.4,81.9L18.4,81.9z M18.5,82H134v0.1L18.5,82
							L18.5,82z M18.7,82.1h115.2v0.1L18.7,82.1L18.7,82.1z M18.7,82.2h115.1v0.1L18.7,82.2L18.7,82.2z M18.8,82.3h115v0.1
							L18.8,82.3L18.8,82.3z M18.9,82.4h114.7v0.1L18.9,82.4L18.9,82.4z M18.9,82.5h114.6v0.1L18.9,82.5L18.9,82.5z M19,82.5h114.5
							v0.1L19,82.5L19,82.5z M19.1,82.6h114.3v0.1L19.1,82.6L19.1,82.6z M19.1,82.7h114.2v0.1L19.1,82.7L19.1,82.7z M19.2,82.8
							h114.1v0.1L19.2,82.8L19.2,82.8z M19.3,82.9h113.8V83L19.3,82.9L19.3,82.9z M19.3,83H133v0.1L19.3,83L19.3,83z M19.5,83.1H133
							v0.1L19.5,83.1L19.5,83.1z M19.6,83.2h113.4v0.1L19.6,83.2L19.6,83.2z M19.6,83.3h113.3v0.1L19.6,83.3L19.6,83.3z M19.7,83.4
							h113.1v0.1L19.7,83.4L19.7,83.4z M19.8,83.4h112.9v0.1L19.8,83.4L19.8,83.4z M19.9,83.5h112.7v0.1L19.9,83.5L19.9,83.5z
							 M19.9,83.6h112.6v0.1L19.9,83.6L19.9,83.6z M20,83.7h112.5v0.1L20,83.7L20,83.7z M20.1,83.8h112.2v0.1L20.1,83.8L20.1,83.8z
							 M20.3,83.9h112V84L20.3,83.9L20.3,83.9z M20.3,84h111.9v0.1L20.3,84L20.3,84z M20.4,84.1h111.8v0.1L20.4,84.1L20.4,84.1z
							 M20.5,84.2H132v0.1L20.5,84.2L20.5,84.2z M20.5,84.2h111.4v0.1L20.5,84.2L20.5,84.2z M20.6,84.3h111.2v0.1L20.6,84.3
							L20.6,84.3z M20.7,84.4h111.1v0.1L20.7,84.4L20.7,84.4z M20.8,84.5h110.9v0.1L20.8,84.5L20.8,84.5z M20.9,84.6h110.6v0.1
							L20.9,84.6L20.9,84.6z M21,84.7h110.4v0.1L21,84.7L21,84.7z M21,84.8h110.3v0.1L21,84.8L21,84.8z M21.2,84.9h110.1V85
							L21.2,84.9L21.2,84.9z M21.3,85h110V85L21.3,85L21.3,85z M21.4,85h109.7v0.1L21.4,85L21.4,85z M21.5,85.1H131v0.1L21.5,85.1
							L21.5,85.1z M21.6,85.2h109.3v0.1L21.6,85.2L21.6,85.2z M21.6,85.3h109.2v0.1L21.6,85.3L21.6,85.3z M21.7,85.4h108.9v0.1
							L21.7,85.4L21.7,85.4z M21.8,85.5h108.8v0.1L21.8,85.5L21.8,85.5z M21.9,85.6h108.6v0.1L21.9,85.6L21.9,85.6z M22.1,85.7
							h108.4v0.1L22.1,85.7L22.1,85.7z M22.2,85.8h108.2v0.1L22.2,85.8L22.2,85.8z M22.3,85.9h107.9v0.1L22.3,85.9L22.3,85.9z
							 M22.4,85.9h107.7V86L22.4,85.9L22.4,85.9z M22.5,86H130v0.1L22.5,86L22.5,86z M22.5,86.1h107.4v0.1L22.5,86.1L22.5,86.1z
							 M22.6,86.2h107.1v0.1L22.6,86.2L22.6,86.2z M22.7,86.3h106.9v0.1L22.7,86.3C22.7,86.4,22.7,86.3,22.7,86.3z M22.9,86.4h106.7
							v0.1L22.9,86.4C22.9,86.5,22.9,86.4,22.9,86.4z M23,86.5h106.5v0.1L23,86.5L23,86.5z M23.1,86.6h106.2v0.1L23.1,86.6
							L23.1,86.6z M23.2,86.7h106.1v0.1L23.2,86.7L23.2,86.7z M23.3,86.7h105.9v0.1L23.3,86.7L23.3,86.7z M23.4,86.8h105.7v0.1
							L23.4,86.8L23.4,86.8z M23.5,86.9H129V87L23.5,86.9L23.5,86.9z M23.6,87h105.2v0.1L23.6,87L23.6,87z M23.8,87.1h105v0.1
							L23.8,87.1L23.8,87.1z M23.9,87.2h104.6v0.1L23.9,87.2L23.9,87.2z M24,87.3h104.4v0.1L24,87.3L24,87.3z M24.1,87.4h104.2v0.1
							L24.1,87.4L24.1,87.4z M24.2,87.5h103.9v0.1L24.2,87.5C24.2,87.6,24.2,87.5,24.2,87.5z M24.3,87.5h103.7v0.1L24.3,87.5
							L24.3,87.5z M24.4,87.6h103.5v0.1L24.4,87.6L24.4,87.6z M24.6,87.7h103.3v0.1L24.6,87.7L24.6,87.7z M24.7,87.8h103v0.1
							L24.7,87.8L24.7,87.8z M24.8,87.9h102.8V88L24.8,87.9L24.8,87.9z M25,88h102.5v0.1L25,88L25,88z M25.1,88.1h102.2v0.1
							L25.1,88.1L25.1,88.1z M25.2,88.2h102v0.1L25.2,88.2L25.2,88.2z M25.4,88.3h101.8v0.1L25.4,88.3L25.4,88.3z M25.5,88.4H127
							v0.1L25.5,88.4L25.5,88.4z M25.6,88.4h101.2v0.1L25.6,88.4L25.6,88.4z M25.7,88.5h101v0.1L25.7,88.5
							C25.7,88.6,25.7,88.5,25.7,88.5z M25.9,88.6h100.7v0.1L25.9,88.6L25.9,88.6z M26,88.7h100.4v0.1L26,88.7L26,88.7z M26.1,88.8
							h100.2v0.1L26.1,88.8L26.1,88.8z M26.3,88.9h100V89L26.3,88.9L26.3,88.9z M26.4,89H126v0.1L26.4,89L26.4,89z M26.5,89.1h99.4
							v0.1L26.5,89.1L26.5,89.1z M26.6,89.2h99.2v0.1L26.6,89.2L26.6,89.2z M26.8,89.2h98.8v0.1L26.8,89.2L26.8,89.2z M26.9,89.3
							h98.6v0.1L26.9,89.3L26.9,89.3z M27.1,89.4h98.3v0.1L27.1,89.4L27.1,89.4z M27.2,89.5h98v0.1L27.2,89.5L27.2,89.5z M27.4,89.6
							h97.7v0.1L27.4,89.6L27.4,89.6z M27.5,89.7H125v0.1L27.5,89.7L27.5,89.7z M27.6,89.8h97.1v0.1L27.6,89.8L27.6,89.8z
							 M27.9,89.9h96.8V90L27.9,89.9L27.9,89.9z M28,90h96.6V90L28,90L28,90z M28.1,90h96.2v0.1L28.1,90L28.1,90z M28.2,90.1h96v0.1
							L28.2,90.1L28.2,90.1z M28.4,90.2h95.7v0.1L28.4,90.2L28.4,90.2z M28.5,90.3H124v0.1L28.5,90.3L28.5,90.3z M28.6,90.4h95.1
							v0.1L28.6,90.4L28.6,90.4z M28.9,90.5h94.8v0.1L28.9,90.5L28.9,90.5z M29,90.6h94.4v0.1L29,90.6L29,90.6z M29.2,90.7h94.1v0.1
							L29.2,90.7L29.2,90.7z M29.3,90.8h93.8v0.1L29.3,90.8L29.3,90.8z M29.4,90.8H123v0.1L29.4,90.8L29.4,90.8z M29.7,90.9h93.2V91
							L29.7,90.9L29.7,90.9z M29.8,91h92.8v0.1L29.8,91L29.8,91z M30,91.1h92.5v0.1L30,91.1L30,91.1z M30.1,91.2h92.3v0.1L30.1,91.2
							L30.1,91.2z M30.2,91.3h91.9v0.1L30.2,91.3L30.2,91.3z M30.5,91.4H122v0.1L30.5,91.4L30.5,91.4z M30.6,91.5h91.2v0.1
							L30.6,91.5L30.6,91.5z M30.8,91.6h90.9v0.1L30.8,91.6L30.8,91.6z M30.9,91.7h90.6v0.1L30.9,91.7L30.9,91.7z M31.1,91.7h90.2
							v0.1L31.1,91.7L31.1,91.7z M31.4,91.8h89.8v0.1L31.4,91.8L31.4,91.8z M31.5,91.9h89.4V92L31.5,91.9
							C31.5,92,31.5,91.9,31.5,91.9z M31.7,92h89.1v0.1L31.7,92L31.7,92z M31.8,92.1h88.7v0.1L31.8,92.1L31.8,92.1z M32,92.2h88.4
							v0.1L32,92.2L32,92.2z M32.2,92.3h88.1v0.1L32.2,92.3L32.2,92.3z M32.4,92.4h87.7v0.1L32.4,92.4L32.4,92.4z M32.5,92.5h87.4
							v0.1L32.5,92.5L32.5,92.5z M32.7,92.5h86.9v0.1L32.7,92.5L32.7,92.5z M33,92.6h86.6v0.1L33,92.6C33,92.7,33,92.6,33,92.6z
							 M33.1,92.7h86.3v0.1L33.1,92.7L33.1,92.7z M33.3,92.8h85.8v0.1L33.3,92.8L33.3,92.8z M33.5,92.9H119V93L33.5,92.9L33.5,92.9z
							 M33.7,93h85v0.1L33.7,93L33.7,93z M33.9,93.1h84.7v0.1L33.9,93.1L33.9,93.1z M34.1,93.2h84.3v0.1L34.1,93.2L34.1,93.2z
							 M34.3,93.3h83.9v0.1L34.3,93.3L34.3,93.3z M34.4,93.3H118v0.1L34.4,93.3L34.4,93.3z M34.7,93.4h83.1v0.1L34.7,93.4L34.7,93.4
							z M34.9,93.5h82.7v0.1L34.9,93.5L34.9,93.5z M35.1,93.6h82.3v0.1L35.1,93.6L35.1,93.6z M35.3,93.7h81.8v0.1L35.3,93.7
							L35.3,93.7z M35.6,93.8h81.4v0.1L35.6,93.8L35.6,93.8z M35.8,93.9h80.9V94L35.8,93.9C35.8,94,35.8,93.9,35.8,93.9z M35.9,94
							h80.6v0.1L35.9,94L35.9,94z M36.1,94.1h80.1v0.1L36.1,94.1L36.1,94.1z M36.4,94.1H116v0.1L36.4,94.1L36.4,94.1z M36.6,94.2
							h79.2v0.1L36.6,94.2L36.6,94.2z M36.8,94.3h78.9v0.1L36.8,94.3L36.8,94.3z M37,94.4h78.4v0.1L37,94.4L37,94.4z M37.3,94.5h78
							v0.1L37.3,94.5L37.3,94.5z M37.5,94.6H115v0.1L37.5,94.6L37.5,94.6z M37.7,94.7h76.9v0.1L37.7,94.7L37.7,94.7z M38,94.8h76.5
							v0.1L38,94.8L38,94.8z M38.2,94.9h76V95L38.2,94.9L38.2,94.9z M38.4,95H114V95L38.4,95L38.4,95z M38.6,95h75.1v0.1L38.6,95
							L38.6,95z M38.9,95.1h74.7v0.1L38.9,95.1L38.9,95.1z M39.1,95.2h74.2v0.1L39.1,95.2L39.1,95.2z M39.4,95.3h73.6v0.1L39.4,95.3
							L39.4,95.3z M39.7,95.4h73.2v0.1L39.7,95.4L39.7,95.4z M39.9,95.5h72.6v0.1L39.9,95.5L39.9,95.5z M40.2,95.6h72.1v0.1
							L40.2,95.6L40.2,95.6z M40.5,95.7h71.6v0.1L40.5,95.7L40.5,95.7z M40.7,95.7h71v0.1L40.7,95.7L40.7,95.7z M40.9,95.8h70.6v0.1
							L40.9,95.8L40.9,95.8z M41.2,95.9h70V96L41.2,95.9L41.2,95.9z M41.5,96H111v0.1L41.5,96L41.5,96z M41.7,96.1h69v0.1L41.7,96.1
							L41.7,96.1z M42,96.2h68.4v0.1L42,96.2L42,96.2z M42.3,96.3h67.9v0.1L42.3,96.3L42.3,96.3z M42.6,96.4h67.3v0.1L42.6,96.4
							L42.6,96.4z M42.8,96.5h66.7v0.1L42.8,96.5L42.8,96.5z M43.2,96.6h66.2v0.1L43.2,96.6L43.2,96.6z M43.4,96.6H109v0.1
							L43.4,96.6L43.4,96.6z M43.7,96.7h64.9v0.1L43.7,96.7L43.7,96.7z M44.1,96.8h64.3v0.1L44.1,96.8L44.1,96.8z M44.3,96.9h63.8
							V97L44.3,96.9L44.3,96.9z M44.6,97h63.1v0.1L44.6,97L44.6,97z M45,97.1h62.5v0.1L45,97.1L45,97.1z M45.3,97.2h61.8v0.1
							L45.3,97.2L45.3,97.2z M45.7,97.3h61.2v0.1L45.7,97.3L45.7,97.3z M45.9,97.4h60.6v0.1L45.9,97.4
							C45.9,97.5,45.9,97.4,45.9,97.4z M46.2,97.4h59.9v0.1L46.2,97.4L46.2,97.4z M46.6,97.5h59.2v0.1L46.6,97.5L46.6,97.5z
							 M46.9,97.6h58.6v0.1L46.9,97.6L46.9,97.6z M47.3,97.7h57.9v0.1L47.3,97.7C47.3,97.8,47.3,97.7,47.3,97.7z M47.6,97.8h57.2
							v0.1L47.6,97.8L47.6,97.8z M48.1,97.9h56.4V98L48.1,97.9L48.1,97.9z M48.4,98h55.7v0.1L48.4,98L48.4,98z M48.7,98.1h55v0.1
							L48.7,98.1L48.7,98.1z M49.1,98.2h54.2v0.1L49.1,98.2L49.1,98.2z M49.4,98.3H103v0.1L49.4,98.3L49.4,98.3z M49.9,98.3h52.8
							v0.1L49.9,98.3L49.9,98.3z M50.2,98.4h52v0.1L50.2,98.4L50.2,98.4z M50.7,98.5h51.1v0.1L50.7,98.5L50.7,98.5z M51.1,98.6h50.3
							v0.1L51.1,98.6L51.1,98.6z M51.5,98.7h49.5v0.1L51.5,98.7L51.5,98.7z M51.9,98.8h48.7v0.1L51.9,98.8L51.9,98.8z M52.4,98.9
							h47.8V99L52.4,98.9L52.4,98.9z M52.8,99h46.9v0.1L52.8,99L52.8,99z M53.3,99.1h46v0.1L53.3,99.1L53.3,99.1z M53.7,99.1h44.9
							v0.1L53.7,99.1L53.7,99.1z M54.2,99.2h44v0.1L54.2,99.2L54.2,99.2z M54.6,99.3h43.1v0.1L54.6,99.3L54.6,99.3z M55.2,99.4h42.1
							v0.1L55.2,99.4L55.2,99.4z M55.7,99.5h41.1v0.1L55.7,99.5L55.7,99.5z M56.2,99.6h39.9v0.1L56.2,99.6L56.2,99.6z M56.8,99.7
							h38.8v0.1L56.8,99.7L56.8,99.7z M57.4,99.8h37.8v0.1L57.4,99.8L57.4,99.8z M57.9,99.9h36.7v0.1L57.9,99.9L57.9,99.9z
							 M58.5,99.9h35.4v0.1L58.5,99.9L58.5,99.9z M59.2,100h34v0.1L59.2,100L59.2,100z M59.9,100.1h32.8v0.1L59.9,100.1L59.9,100.1z
							 M60.5,100.2H92v0.1L60.5,100.2L60.5,100.2z M61.2,100.3h30v0.1L61.2,100.3L61.2,100.3z M62,100.4h28.4v0.1L62,100.4L62,100.4
							z M62.8,100.5h26.8v0.1L62.8,100.5L62.8,100.5z M63.6,100.6h25.2v0.1L63.6,100.6L63.6,100.6z M64.6,100.7h23.1v0.1L64.6,100.7
							L64.6,100.7z M65.6,100.8h21.1v0.1L65.6,100.8L65.6,100.8z M66.7,100.8h19.1v0.1L66.7,100.8L66.7,100.8z M68.1,100.9h16.2v0.1
							L68.1,100.9L68.1,100.9z"/>
					</defs>
					<clipPath id="SVGID_6_">
						<use xlink:href="#SVGID_5_"  style="overflow:visible;"/>
					</clipPath>
					<g class="st4">
						<g>
							<g>
								<defs>
									<path id="SVGID_7_" d="M76.2,41.7c-34,0-61.6,13.3-61.6,29.7c0,16.4,27.6,29.8,61.6,29.8s61.7-13.3,61.7-29.8
										C137.9,55,110.3,41.7,76.2,41.7"/>
								</defs>
								<clipPath id="SVGID_8_">
									<use xlink:href="#SVGID_7_"  style="overflow:visible;"/>
								</clipPath>
								<g class="st5">
									<g transform="matrix(0.4,0,0,-0.4,0,70.21)">
										
											<image style="overflow:visible;enable-background:new    ;" width="274" height="168" id="image5_1_" xlink:href="6B5C532E.jpg"  transform="matrix(0.4506 0 0 -0.3542 10.0977 91.4351)">
										</image>
									</g>
								</g>
							</g>
						</g>
					</g>
				</g>
			</g>
			<g>
				<g>
					<defs>
						<rect id="SVGID_9_" x="14.6" y="38.6" width="123.3" height="59.5"/>
					</defs>
					<clipPath id="SVGID_10_">
						<use xlink:href="#SVGID_9_"  style="overflow:visible;"/>
					</clipPath>
					<g class="st6">
						<g>
							<g>
								<defs>
									<path id="SVGID_11_" d="M110,43.4c-1.5-0.5-3.1-0.9-4.7-1.3c-0.5-0.2-1.1-0.3-1.6-0.4c-1.6-0.4-3.2-0.7-4.9-1
										c-0.8-0.2-1.5-0.3-2.3-0.4c-1.6-0.3-3.3-0.5-5-0.7c-4.9-0.6-10-0.9-15.3-0.9c-34,0-61.6,13.3-61.6,29.7
										c0,12.6,16.2,23.4,39.1,27.7c6.1,1.2,12.6,1.9,19.5,2c1,0,2.1,0,3.1,0c0.9,0,1.7,0,2.5,0c6-0.1,11.7-0.6,17.1-1.5
										c1.6-0.3,3.1-0.6,4.7-0.9c5.3-1.1,10.2-2.5,14.6-4.3c13.9-5.5,22.8-13.8,22.8-23.1C137.9,57.9,126.8,48.7,110,43.4"/>
								</defs>
								<clipPath id="SVGID_12_">
									<use xlink:href="#SVGID_11_"  style="overflow:visible;"/>
								</clipPath>
								<g class="st7">
									<path class="st8" d="M14.6,98.1h123.3V38.6H14.6V98.1z"/>
								</g>
							</g>
						</g>
					</g>
				</g>
			</g>
			<g>
				<g>
					<defs>
						<path id="SVGID_13_" d="M71.4,38.6h9.2v0.1L71.4,38.6L71.4,38.6z M69.3,38.7h13.6v0.1L69.3,38.7L69.3,38.7z M67.9,38.7h16.7
							v0.1L67.9,38.7L67.9,38.7z M66.5,38.8h19.1v0.1L66.5,38.8L66.5,38.8z M65.5,38.9h21.1V39L65.5,38.9L65.5,38.9z M64.4,39h23.3
							v0.1L64.4,39L64.4,39z M63.5,39.1h25.3v0.1L63.5,39.1L63.5,39.1z M62.7,39.2h27.1v0.1L62.7,39.2L62.7,39.2z M61.9,39.3h28.8
							v0.1L61.9,39.3L61.9,39.3z M61.1,39.4h30.3v0.1L61.1,39.4L61.1,39.4z M60.4,39.5h31.7v0.1L60.4,39.5
							C60.4,39.6,60.4,39.5,60.4,39.5z M59.7,39.6h33v0.1L59.7,39.6L59.7,39.6z M59.1,39.6h34.3v0.1L59.1,39.6L59.1,39.6z
							 M58.4,39.7h35.5v0.1L58.4,39.7L58.4,39.7z M57.8,39.8h36.7v0.1L57.8,39.8L57.8,39.8z M57.2,39.9h37.9V40L57.2,39.9L57.2,39.9
							z M56.7,40h39v0.1L56.7,40L56.7,40z M56.1,40.1h40.2v0.1L56.1,40.1L56.1,40.1z M55.7,40.2h41.2v0.1L55.7,40.2L55.7,40.2z
							 M55.1,40.3h42.2v0.1L55.1,40.3L55.1,40.3z M54.5,40.4h43.3v0.1L54.5,40.4L54.5,40.4z M54.1,40.4h44.3v0.1L54.1,40.4
							L54.1,40.4z M53.6,40.5h45.3v0.1L53.6,40.5L53.6,40.5z M53.2,40.6h46.2v0.1L53.2,40.6C53.2,40.7,53.2,40.6,53.2,40.6z
							 M52.7,40.7h47v0.1L52.7,40.7L52.7,40.7z M52.2,40.8h47.9v0.1L52.2,40.8L52.2,40.8z M51.8,40.9h48.8V41L51.8,40.9L51.8,40.9z
							 M51.5,41h49.5v0.1L51.5,41L51.5,41z M51,41.1h50.4v0.1L51,41.1L51,41.1z M50.5,41.2h51.3v0.1L50.5,41.2L50.5,41.2z
							 M50.2,41.3h52v0.1L50.2,41.3L50.2,41.3z M49.8,41.3h52.9v0.1L49.8,41.3L49.8,41.3z M49.4,41.4H103v0.1L49.4,41.4L49.4,41.4z
							 M49,41.5h54.5v0.1L49,41.5L49,41.5z M48.6,41.6h55.2v0.1L48.6,41.6L48.6,41.6z M48.3,41.7h55.9v0.1L48.3,41.7L48.3,41.7z
							 M47.9,41.8h56.6v0.1L47.9,41.8L47.9,41.8z M47.6,41.9h57.3V42L47.6,41.9L47.6,41.9z M47.3,42h58v0.1L47.3,42L47.3,42z
							 M46.8,42.1h58.8v0.1L46.8,42.1L46.8,42.1z M46.5,42.1h59.5v0.1L46.5,42.1L46.5,42.1z M46.2,42.2h60v0.1L46.2,42.2L46.2,42.2z
							 M45.9,42.3h60.7v0.1L45.9,42.3C45.9,42.4,45.9,42.3,45.9,42.3z M45.6,42.4h61.4v0.1L45.6,42.4L45.6,42.4z M45.2,42.5h62.1
							v0.1L45.2,42.5L45.2,42.5z M44.9,42.6h62.6v0.1L44.9,42.6L44.9,42.6z M44.5,42.7h63.3v0.1L44.5,42.7L44.5,42.7z M44.3,42.8
							h63.9v0.1L44.3,42.8L44.3,42.8z M44,42.9h64.5v0.1L44,42.9L44,42.9z M43.7,42.9h65V43L43.7,42.9L43.7,42.9z M43.4,43h65.7v0.1
							L43.4,43L43.4,43z M43.1,43.1h66.3v0.1L43.1,43.1L43.1,43.1z M42.8,43.2h66.8v0.1L42.8,43.2L42.8,43.2z M42.5,43.3H110v0.1
							L42.5,43.3L42.5,43.3z M42.3,43.4h68v0.1L42.3,43.4L42.3,43.4z M41.9,43.5h68.7v0.1L41.9,43.5L41.9,43.5z M41.7,43.6h69.1v0.1
							L41.7,43.6C41.7,43.7,41.7,43.6,41.7,43.6z M41.4,43.7H111v0.1L41.4,43.7L41.4,43.7z M41.1,43.7h70.3v0.1L41.1,43.7L41.1,43.7
							z M40.9,43.8h70.7v0.1L40.9,43.8L40.9,43.8z M40.7,43.9h71.1V44L40.7,43.9L40.7,43.9z M40.3,44h71.8v0.1L40.3,44L40.3,44z
							 M40.1,44.1h72.3v0.1L40.1,44.1L40.1,44.1z M39.9,44.2h72.7v0.1L39.9,44.2L39.9,44.2z M39.5,44.3h73.3v0.1L39.5,44.3
							L39.5,44.3z M39.3,44.4h73.9v0.1L39.3,44.4L39.3,44.4z M39.1,44.5h74.3v0.1L39.1,44.5L39.1,44.5z M38.9,44.5h74.8v0.1
							L38.9,44.5L38.9,44.5z M38.6,44.6h75.2v0.1L38.6,44.6L38.6,44.6z M38.4,44.7h75.7v0.1L38.4,44.7L38.4,44.7z M38.2,44.8h76.1
							v0.1L38.2,44.8L38.2,44.8z M38,44.9h76.6V45L38,44.9L38,44.9z M37.7,45h77.1v0.1L37.7,45L37.7,45z M37.5,45.1H115v0.1
							L37.5,45.1L37.5,45.1z M37.2,45.2h78.1v0.1L37.2,45.2L37.2,45.2z M36.9,45.3h78.5v0.1L36.9,45.3L36.9,45.3z M36.7,45.3h79v0.1
							L36.7,45.3L36.7,45.3z M36.6,45.4h79.3v0.1L36.6,45.4L36.6,45.4z M36.4,45.5h79.8v0.1L36.4,45.5L36.4,45.5z M36.1,45.6h80.2
							v0.1L36.1,45.6L36.1,45.6z M35.9,45.7h80.7v0.1L35.9,45.7L35.9,45.7z M35.7,45.8h81.1v0.1L35.7,45.8L35.7,45.8z M35.5,45.9
							h81.5V46L35.5,45.9L35.5,45.9z M35.2,46h81.9v0.1L35.2,46L35.2,46z M35,46.1h82.4v0.1L35,46.1L35,46.1z M34.9,46.2h82.7v0.1
							L34.9,46.2L34.9,46.2z M34.7,46.2h83.2v0.1L34.7,46.2L34.7,46.2z M34.4,46.3H118v0.1L34.4,46.3L34.4,46.3z M34.2,46.4h84v0.1
							L34.2,46.4L34.2,46.4z M34.1,46.5h84.3v0.1L34.1,46.5L34.1,46.5z M33.9,46.6h84.8v0.1L33.9,46.6L33.9,46.6z M33.6,46.7h85.2
							v0.1L33.6,46.7L33.6,46.7z M33.5,46.8H119v0.1L33.5,46.8L33.5,46.8z M33.3,46.9h85.9V47L33.3,46.9L33.3,46.9z M33.1,47h86.4
							v0.1L33.1,47L33.1,47z M32.8,47h86.7v0.1L32.8,47C32.8,47.1,32.8,47,32.8,47z M32.7,47.1h87v0.1L32.7,47.1L32.7,47.1z
							 M32.5,47.2h87.4v0.1L32.5,47.2L32.5,47.2z M32.3,47.3h87.8v0.1L32.3,47.3L32.3,47.3z M32.2,47.4h88.2v0.1L32.2,47.4
							L32.2,47.4z M31.9,47.5h88.5v0.1L31.9,47.5L31.9,47.5z M31.8,47.6h88.9v0.1L31.8,47.6L31.8,47.6z M31.6,47.7h89.2v0.1
							L31.6,47.7L31.6,47.7z M31.5,47.8H121v0.1L31.5,47.8C31.5,47.9,31.5,47.8,31.5,47.8z M31.3,47.8h90v0.1L31.3,47.8L31.3,47.8z
							 M31.1,47.9h90.2V48L31.1,47.9L31.1,47.9z M30.9,48h90.7v0.1L30.9,48L30.9,48z M30.8,48.1h90.9v0.1L30.8,48.1L30.8,48.1z
							 M30.6,48.2h91.3v0.1L30.6,48.2L30.6,48.2z M30.5,48.3H122v0.1L30.5,48.3L30.5,48.3z M30.2,48.4h91.9v0.1L30.2,48.4L30.2,48.4
							z M30.1,48.5h92.3v0.1L30.1,48.5L30.1,48.5z M29.9,48.6h92.6v0.1L29.9,48.6L29.9,48.6z M29.8,48.7h92.9v0.1L29.8,48.7
							L29.8,48.7z M29.6,48.7h93.3v0.1L29.6,48.7L29.6,48.7z M29.4,48.8h93.6v0.1L29.4,48.8L29.4,48.8z M29.3,48.9h93.8V49
							L29.3,48.9L29.3,48.9z M29.1,49h94.2v0.1L29.1,49L29.1,49z M29,49.1h94.5v0.1L29,49.1L29,49.1z M28.8,49.2h94.9v0.1L28.8,49.2
							L28.8,49.2z M28.6,49.3h95.2v0.1L28.6,49.3L28.6,49.3z M28.5,49.4H124v0.1L28.5,49.4L28.5,49.4z M28.3,49.5h95.8v0.1
							L28.3,49.5L28.3,49.5z M28.2,49.5h96.1v0.1L28.2,49.5L28.2,49.5z M28.1,49.6h96.4v0.1L28.1,49.6L28.1,49.6z M28,49.7h96.6v0.1
							L28,49.7L28,49.7z M27.7,49.8h96.9v0.1L27.7,49.8L27.7,49.8z M27.6,49.9h97.3V50L27.6,49.9L27.6,49.9z M27.5,50H125v0.1
							L27.5,50L27.5,50z M27.3,50.1h97.8v0.1L27.3,50.1L27.3,50.1z M27.2,50.2h98v0.1L27.2,50.2L27.2,50.2z M27.1,50.3h98.4v0.1
							L27.1,50.3L27.1,50.3z M26.9,50.4h98.6v0.1L26.9,50.4L26.9,50.4z M26.7,50.4h99v0.1L26.7,50.4L26.7,50.4z M26.6,50.5h99.2v0.1
							L26.6,50.5L26.6,50.5z M26.5,50.6H126v0.1L26.5,50.6L26.5,50.6z M26.4,50.7h99.8v0.1L26.4,50.7L26.4,50.7z M26.3,50.8h100v0.1
							L26.3,50.8L26.3,50.8z M26.1,50.9h100.2V51L26.1,50.9L26.1,50.9z M25.9,51h100.5v0.1L25.9,51L25.9,51z M25.8,51.1h100.8v0.1
							L25.8,51.1L25.8,51.1z M25.7,51.2h101.1v0.1L25.7,51.2C25.7,51.2,25.7,51.2,25.7,51.2z M25.6,51.2h101.3v0.1L25.6,51.2
							L25.6,51.2z M25.5,51.3H127v0.1L25.5,51.3L25.5,51.3z M25.4,51.4h101.8v0.1L25.4,51.4L25.4,51.4z M25.1,51.5h102.1v0.1
							L25.1,51.5L25.1,51.5z M25,51.6h102.4v0.1L25,51.6L25,51.6z M24.9,51.7h102.6v0.1L24.9,51.7L24.9,51.7z M24.8,51.8h102.8v0.1
							L24.8,51.8L24.8,51.8z M24.7,51.9h103V52L24.7,51.9L24.7,51.9z M24.6,52h103.4V52L24.6,52L24.6,52z M24.4,52h103.6v0.1
							L24.4,52L24.4,52z M24.3,52.1h103.8v0.1L24.3,52.1C24.3,52.2,24.3,52.1,24.3,52.1z M24.2,52.2h104.1v0.1L24.2,52.2
							C24.2,52.3,24.2,52.2,24.2,52.2z M24.1,52.3h104.3v0.1L24.1,52.3L24.1,52.3z M24,52.4h104.5v0.1L24,52.4L24,52.4z M23.9,52.5
							h104.7v0.1L23.9,52.5L23.9,52.5z M23.8,52.6h105v0.1L23.8,52.6L23.8,52.6z M23.6,52.7h105.2v0.1L23.6,52.7L23.6,52.7z
							 M23.5,52.8H129v0.1L23.5,52.8L23.5,52.8z M23.4,52.8h105.7v0.1L23.4,52.8L23.4,52.8z M23.3,52.9h105.9V53L23.3,52.9
							L23.3,52.9z M23.2,53h106.1v0.1L23.2,53L23.2,53z M23.1,53.1h106.3v0.1L23.1,53.1L23.1,53.1z M23,53.2h106.6v0.1L23,53.2
							L23,53.2z M22.9,53.3h106.8v0.1L22.9,53.3C22.9,53.4,22.9,53.3,22.9,53.3z M22.7,53.4h107v0.1L22.7,53.4L22.7,53.4z
							 M22.6,53.5h107.2v0.1L22.6,53.5L22.6,53.5z M22.5,53.6h107.4v0.1L22.5,53.6L22.5,53.6z M22.4,53.6H130v0.1L22.4,53.6
							L22.4,53.6z M22.3,53.7h107.8v0.1L22.3,53.7L22.3,53.7z M22.2,53.8h108v0.1L22.2,53.8L22.2,53.8z M22.1,53.9h108.3V54
							L22.1,53.9L22.1,53.9z M22.1,54h108.4v0.1L22.1,54L22.1,54z M21.9,54.1h108.6v0.1L21.9,54.1L21.9,54.1z M21.8,54.2h108.8v0.1
							L21.8,54.2L21.8,54.2z M21.7,54.3h109.1v0.1L21.7,54.3L21.7,54.3z M21.6,54.4h109.2v0.1L21.6,54.4L21.6,54.4z M21.5,54.4
							h109.4v0.1L21.5,54.4L21.5,54.4z M21.4,54.5H131v0.1L21.4,54.5L21.4,54.5z M21.4,54.6h109.7v0.1L21.4,54.6L21.4,54.6z
							 M21.3,54.7h110v0.1L21.3,54.7L21.3,54.7z M21.2,54.8h110.2v0.1L21.2,54.8L21.2,54.8z M21,54.9h110.3V55L21,54.9L21,54.9z
							 M20.9,55h110.5v0.1L20.9,55L20.9,55z M20.8,55.1h110.8v0.1L20.8,55.1L20.8,55.1z M20.8,55.2h110.9v0.1L20.8,55.2L20.8,55.2z
							 M20.7,55.3h111.1v0.1L20.7,55.3L20.7,55.3z M20.6,55.3h111.3v0.1L20.6,55.3L20.6,55.3z M20.5,55.4h111.4v0.1L20.5,55.4
							L20.5,55.4z M20.5,55.5H132v0.1L20.5,55.5L20.5,55.5z M20.4,55.6h111.8v0.1L20.4,55.6L20.4,55.6z M20.3,55.7h112v0.1
							L20.3,55.7L20.3,55.7z M20.1,55.8h112.1v0.1L20.1,55.8L20.1,55.8z M20.1,55.9h112.2V56L20.1,55.9L20.1,55.9z M20,56h112.5v0.1
							L20,56L20,56z M19.9,56.1h112.7v0.1L19.9,56.1L19.9,56.1z M19.8,56.1h112.8v0.1L19.8,56.1L19.8,56.1z M19.8,56.2h112.9v0.1
							L19.8,56.2L19.8,56.2z M19.7,56.3h113.1v0.1L19.7,56.3L19.7,56.3z M19.6,56.4h113.3v0.1L19.6,56.4L19.6,56.4z M19.5,56.5
							h113.5v0.1L19.5,56.5L19.5,56.5z M19.5,56.6H133v0.1L19.5,56.6L19.5,56.6z M19.3,56.7H133v0.1L19.3,56.7L19.3,56.7z
							 M19.2,56.8h113.9v0.1L19.2,56.8L19.2,56.8z M19.2,56.9h114.1v0.1L19.2,56.9L19.2,56.9z M19.1,56.9h114.3V57L19.1,56.9
							L19.1,56.9z M19,57h114.4v0.1L19,57L19,57z M19,57.1h114.5v0.1L19,57.1L19,57.1z M18.9,57.2h114.7v0.1L18.9,57.2L18.9,57.2z
							 M18.8,57.3h114.8v0.1L18.8,57.3L18.8,57.3z M18.8,57.4h115v0.1L18.8,57.4L18.8,57.4z M18.7,57.5h115.1v0.1L18.7,57.5
							L18.7,57.5z M18.7,57.6h115.2v0.1L18.7,57.6L18.7,57.6z M18.5,57.7H134v0.1L18.5,57.7L18.5,57.7z M18.4,57.8H134v0.1
							L18.4,57.8L18.4,57.8z M18.4,57.8h115.6v0.1L18.4,57.8L18.4,57.8z M18.3,57.9h115.8V58L18.3,57.9L18.3,57.9z M18.2,58h116v0.1
							L18.2,58L18.2,58z M18.2,58.1h116.1v0.1L18.2,58.1L18.2,58.1z M18.1,58.2h116.2v0.1L18.1,58.2L18.1,58.2z M18.1,58.3h116.3
							v0.1L18.1,58.3L18.1,58.3z M18,58.4h116.4v0.1L18,58.4L18,58.4z M18,58.5h116.6v0.1L18,58.5L18,58.5z M17.9,58.6h116.8v0.1
							L17.9,58.6L17.9,58.6z M17.8,58.6h116.9v0.1L17.8,58.6L17.8,58.6z M17.8,58.7h117v0.1L17.8,58.7L17.8,58.7z M17.6,58.8h117.1
							v0.1L17.6,58.8L17.6,58.8z M17.6,58.9h117.2V59L17.6,58.9L17.6,58.9z M17.5,59h117.3v0.1L17.5,59L17.5,59z M17.5,59.1H135v0.1
							L17.5,59.1L17.5,59.1z M17.4,59.2H135v0.1L17.4,59.2L17.4,59.2z M17.4,59.3h117.7v0.1L17.4,59.3L17.4,59.3z M17.3,59.4h117.8
							v0.1L17.3,59.4L17.3,59.4z M17.3,59.5h117.9v0.1L17.3,59.5L17.3,59.5z M17.2,59.5h118v0.1L17.2,59.5L17.2,59.5z M17.2,59.6
							h118.1v0.1L17.2,59.6L17.2,59.6z M17.1,59.7h118.3v0.1L17.1,59.7L17.1,59.7z M17.1,59.8h118.4v0.1L17.1,59.8L17.1,59.8z
							 M17,59.9h118.5V60L17,59.9L17,59.9z M17,60h118.6v0.1L17,60L17,60z M16.8,60.1h118.7v0.1L16.8,60.1L16.8,60.1z M16.8,60.2
							h118.8v0.1L16.8,60.2L16.8,60.2z M16.7,60.2h118.9v0.1L16.7,60.2L16.7,60.2z M16.7,60.3h119.1v0.2H16.7V60.3z M16.6,60.5
							h119.3v0.2H16.6V60.5z M16.5,60.7H136v0.2H16.5V60.7z M16.4,60.9H136V61L16.4,60.9L16.4,60.9z M16.4,61h119.7v0.2H16.4V61z
							 M16.3,61.1h119.8v0.1L16.3,61.1L16.3,61.1z M16.3,61.2h119.9v0.1L16.3,61.2L16.3,61.2z M16.2,61.3h120.1v0.1L16.2,61.3
							L16.2,61.3z M16.2,61.4h120.2v0.2H16.2V61.4z M16,61.6h120.3v0.1L16,61.6L16,61.6z M16,61.7h120.4v0.2H16V61.7z M15.9,61.9
							h120.5v0.1L15.9,61.9L15.9,61.9z M15.9,61.9h120.6V62L15.9,61.9L15.9,61.9z M15.8,62h120.7v0.1L15.8,62L15.8,62z M15.8,62.1
							h120.9v0.2H15.8V62.1z M15.7,62.3h121v0.1L15.7,62.3L15.7,62.3z M15.7,62.4h121.1v0.2H15.7V62.4z M15.6,62.6h121.2v0.1
							L15.6,62.6C15.6,62.7,15.6,62.6,15.6,62.6z M15.6,62.7h121.3v0.3H15.6V62.7z M15.5,62.9h121.4V63L15.5,62.9L15.5,62.9z
							 M15.5,63H137v0.2H15.5V63z M15.4,63.2H137v0.2H15.4V63.2z M15.4,63.4h121.8v0.2H15.4V63.4z M15.3,63.6h121.9v0.2H15.3V63.6z
							 M15.3,63.7h122v0.1L15.3,63.7L15.3,63.7z M15.1,63.8h122.1V64H15.1V63.8z M15.1,64h122.2v0.3H15.1V64z M15,64.3h122.3v0.1
							L15,64.3L15,64.3z M15,64.4h122.4v0.4H15V64.4z M14.9,64.7h122.6v0.2H14.9V64.7z M14.9,64.9h122.7v0.3H14.9V64.9z M14.8,65.2
							h122.8v0.3H14.8V65.2z M14.8,65.4h122.9v0.4H14.8V65.4z M14.7,65.8h123v0.3h-123V65.8z M14.7,66.1h123.1v0.4H14.7V66.1z
							 M14.6,66.5h123.2v0.4H14.6V66.5z M14.6,66.9h123.3v2.8H14.6V66.9z M14.6,69.7h123.2V70H14.6V69.7z M14.7,70h123.1v0.6H14.7
							V70z M14.7,70.6h123v0.3h-123V70.6z M14.8,70.9h122.9v0.4H14.8V70.9z M14.8,71.2h122.8v0.1L14.8,71.2L14.8,71.2z M14.9,71.3
							h122.7v0.5H14.9V71.3z M15,71.8h122.4v0.4H15V71.8z M15,72.2h122.3v0.1L15,72.2L15,72.2z M15.1,72.3h122.2v0.3H15.1V72.3z
							 M15.1,72.6h122.1v0.2H15.1V72.6z M15.3,72.7h122V73h-122V72.7z M15.3,73h121.9v0.1L15.3,73L15.3,73z M15.4,73.1h121.8v0.3
							H15.4V73.1z M15.5,73.4H137v0.3H15.5V73.4z M15.5,73.6h121.4v0.1L15.5,73.6L15.5,73.6z M15.6,73.7h121.3v0.2H15.6V73.7z
							 M15.6,73.9h121.2V74L15.6,73.9C15.6,74,15.6,73.9,15.6,73.9z M15.7,74h121.1v0.2H15.7V74z M15.7,74.2h121v0.1L15.7,74.2
							L15.7,74.2z M15.8,74.3h120.9v0.2H15.8V74.3z M15.8,74.4h120.7v0.1L15.8,74.4L15.8,74.4z M15.9,74.5h120.6v0.2H15.9V74.5z
							 M15.9,74.7h120.5v0.1L15.9,74.7L15.9,74.7z M16,74.8h120.4V75H16V74.8z M16,75h120.3v0.1L16,75L16,75z M16.2,75.1h120.2v0.2
							H16.2V75.1z M16.2,75.2h120.1v0.1L16.2,75.2L16.2,75.2z M16.3,75.3h119.9v0.1L16.3,75.3L16.3,75.3z M16.3,75.4h119.8v0.1
							L16.3,75.4L16.3,75.4z M16.4,75.5h119.7v0.2H16.4V75.5z M16.5,75.7H136v0.2H16.5V75.7z M16.5,75.9h119.4V76L16.5,75.9
							L16.5,75.9z M16.6,75.9h119.3V76L16.6,75.9L16.6,75.9z M16.6,76h119.2v0.1L16.6,76L16.6,76z M16.7,76.1h119.1v0.2H16.7V76.1z
							 M16.8,76.3h118.8v0.2H16.8V76.3z M17,76.5h118.6v0.2H17V76.5z M17,76.7h118.5v0.1L17,76.7L17,76.7z M17.1,76.8h118.4v0.1
							L17.1,76.8L17.1,76.8z M17.1,76.8h118.3v0.1L17.1,76.8L17.1,76.8z M17.2,76.9h118.1V77L17.2,76.9L17.2,76.9z M17.2,77h118v0.1
							L17.2,77L17.2,77z M17.3,77.1h117.9v0.1L17.3,77.1L17.3,77.1z M17.3,77.2h117.8v0.1L17.3,77.2L17.3,77.2z M17.4,77.3h117.7
							v0.1L17.4,77.3L17.4,77.3z M17.4,77.4H135v0.1L17.4,77.4L17.4,77.4z M17.5,77.5H135v0.1L17.5,77.5L17.5,77.5z M17.5,77.6
							h117.3v0.1L17.5,77.6L17.5,77.6z M17.6,77.6h117.2v0.1L17.6,77.6L17.6,77.6z M17.6,77.7h117.1v0.1L17.6,77.7L17.6,77.7z
							 M17.8,77.8h117v0.1L17.8,77.8L17.8,77.8z M17.9,77.9h116.8v0.2H17.9V77.9z M18,78.1h116.6v0.2H18V78.1z M18.1,78.3h116.3v0.1
							L18.1,78.3L18.1,78.3z M18.2,78.4h116.1v0.2H18.2V78.4z M18.3,78.5h115.9v0.2H18.3V78.5z M18.4,78.7h115.6v0.1L18.4,78.7
							L18.4,78.7z M18.5,78.8H134V79H18.5V78.8z M18.7,79h115.2v0.1L18.7,79L18.7,79z M18.7,79.1h115.1v0.1L18.7,79.1L18.7,79.1z
							 M18.8,79.2h115v0.1L18.8,79.2L18.8,79.2z M18.8,79.3h114.8v0.1L18.8,79.3L18.8,79.3z M18.9,79.3h114.6v0.1L18.9,79.3
							L18.9,79.3z M19,79.4h114.5v0.1L19,79.4L19,79.4z M19,79.5h114.4v0.1L19,79.5L19,79.5z M19.1,79.6h114.3v0.1L19.1,79.6
							L19.1,79.6z M19.2,79.7h114.1v0.1L19.2,79.7L19.2,79.7z M19.2,79.8h113.9v0.1L19.2,79.8L19.2,79.8z M19.3,79.9h113.8V80
							L19.3,79.9L19.3,79.9z M19.5,80H133v0.1L19.5,80L19.5,80z M19.6,80.1h113.4v0.1L19.6,80.1L19.6,80.1z M19.6,80.1h113.3v0.1
							L19.6,80.1L19.6,80.1z M19.7,80.2h113.1v0.1L19.7,80.2L19.7,80.2z M19.8,80.3h112.9v0.1L19.8,80.3L19.8,80.3z M19.9,80.4
							h112.7v0.1L19.9,80.4L19.9,80.4z M19.9,80.5h112.6v0.1L19.9,80.5L19.9,80.5z M20,80.6h112.5v0.1L20,80.6L20,80.6z M20.1,80.7
							h112.2v0.1L20.1,80.7L20.1,80.7z M20.3,80.8h112v0.2h-112V80.8z M20.4,80.9h111.8V81L20.4,80.9L20.4,80.9z M20.5,81H132v0.1
							L20.5,81L20.5,81z M20.5,81.1h111.4v0.1L20.5,81.1L20.5,81.1z M20.6,81.2h111.3v0.1L20.6,81.2L20.6,81.2z M20.7,81.3h111.1
							v0.1L20.7,81.3L20.7,81.3z M20.8,81.4h110.9v0.1L20.8,81.4L20.8,81.4z M20.8,81.5h110.8v0.1L20.8,81.5L20.8,81.5z M20.9,81.6
							h110.5v0.1L20.9,81.6L20.9,81.6z M21,81.7h110.3v0.1L21,81.7L21,81.7z M21.2,81.7h110.2v0.1L21.2,81.7L21.2,81.7z M21.3,81.8
							h110v0.1L21.3,81.8L21.3,81.8z M21.4,81.9h109.7V82L21.4,81.9L21.4,81.9z M21.5,82H131v0.1L21.5,82L21.5,82z M21.6,82.1h109.3
							v0.1L21.6,82.1L21.6,82.1z M21.6,82.2h109.2v0.1L21.6,82.2L21.6,82.2z M21.7,82.3h109.1v0.1L21.7,82.3L21.7,82.3z M21.8,82.4
							h108.8v0.1L21.8,82.4L21.8,82.4z M21.9,82.5h108.6v0.1L21.9,82.5L21.9,82.5z M22.1,82.5h108.4v0.1L22.1,82.5L22.1,82.5z
							 M22.2,82.6h108.2v0.1L22.2,82.6L22.2,82.6z M22.3,82.7h107.9v0.1L22.3,82.7L22.3,82.7z M22.4,82.8h107.7v0.1L22.4,82.8
							L22.4,82.8z M22.4,82.9H130V83L22.4,82.9L22.4,82.9z M22.5,83h107.4v0.1L22.5,83L22.5,83z M22.6,83.1h107.1v0.1L22.6,83.1
							L22.6,83.1z M22.7,83.2h106.9v0.1L22.7,83.2C22.7,83.3,22.7,83.2,22.7,83.2z M22.9,83.3h106.8v0.1L22.9,83.3
							C22.9,83.4,22.9,83.3,22.9,83.3z M23,83.4h106.6v0.1L23,83.4L23,83.4z M23.1,83.4h106.3v0.1L23.1,83.4L23.1,83.4z M23.2,83.5
							h106.1v0.1L23.2,83.5L23.2,83.5z M23.3,83.6h105.9v0.1L23.3,83.6L23.3,83.6z M23.4,83.7h105.7v0.1L23.4,83.7L23.4,83.7z
							 M23.5,83.8H129v0.1L23.5,83.8L23.5,83.8z M23.6,83.9h105.2V84L23.6,83.9L23.6,83.9z M23.8,84h105v0.1L23.8,84L23.8,84z
							 M23.9,84.1h104.7v0.1L23.9,84.1L23.9,84.1z M24,84.2h104.5v0.1L24,84.2L24,84.2z M24.1,84.2h104.3v0.1L24.1,84.2L24.1,84.2z
							 M24.2,84.3h104.1v0.1L24.2,84.3C24.2,84.4,24.2,84.3,24.2,84.3z M24.3,84.4h103.8v0.1L24.3,84.4
							C24.3,84.5,24.3,84.4,24.3,84.4z M24.4,84.5h103.6v0.1L24.4,84.5L24.4,84.5z M24.6,84.6h103.3v0.1L24.6,84.6L24.6,84.6z
							 M24.7,84.7h103v0.1L24.7,84.7L24.7,84.7z M24.8,84.8h102.8v0.1L24.8,84.8L24.8,84.8z M24.9,84.9h102.6V85L24.9,84.9
							L24.9,84.9z M25,85h102.4V85L25,85L25,85z M25.2,85h102v0.1L25.2,85L25.2,85z M25.4,85.1h101.8v0.1L25.4,85.1L25.4,85.1z
							 M25.5,85.2H127v0.1L25.5,85.2L25.5,85.2z M25.6,85.3h101.3v0.1L25.6,85.3L25.6,85.3z M25.7,85.4h101.1v0.1L25.7,85.4
							C25.7,85.5,25.7,85.4,25.7,85.4z M25.8,85.5h100.9v0.1L25.8,85.5C25.8,85.6,25.8,85.5,25.8,85.5z M25.9,85.6h100.5v0.1
							L25.9,85.6L25.9,85.6z M26.1,85.7h100.2v0.1L26.1,85.7L26.1,85.7z M26.3,85.8h100v0.1L26.3,85.8L26.3,85.8z M26.4,85.9h99.8
							v0.1L26.4,85.9L26.4,85.9z M26.5,85.9h99.4V86L26.5,85.9L26.5,85.9z M26.6,86h99.2v0.1L26.6,86L26.6,86z M26.8,86.1h98.8v0.1
							L26.8,86.1L26.8,86.1z M26.9,86.2h98.6v0.1L26.9,86.2L26.9,86.2z M27.1,86.3h98.4v0.1L27.1,86.3L27.1,86.3z M27.2,86.4h98v0.1
							L27.2,86.4L27.2,86.4z M27.4,86.5h97.7v0.1L27.4,86.5L27.4,86.5z M27.5,86.6H125v0.1L27.5,86.6L27.5,86.6z M27.6,86.7h97.3
							v0.1L27.6,86.7L27.6,86.7z M27.7,86.7h96.9v0.1L27.7,86.7L27.7,86.7z M27.9,86.8h96.7v0.1L27.9,86.8L27.9,86.8z M28.1,86.9
							h96.4V87L28.1,86.9L28.1,86.9z M28.2,87h96v0.1L28.2,87L28.2,87z M28.3,87.1h95.8v0.1L28.3,87.1L28.3,87.1z M28.5,87.2H124
							v0.1L28.5,87.2L28.5,87.2z M28.6,87.3h95.1v0.1L28.6,87.3L28.6,87.3z M28.9,87.4h94.8v0.1L28.9,87.4L28.9,87.4z M29,87.5h94.5
							v0.1L29,87.5L29,87.5z M29.1,87.5h94.2v0.1L29.1,87.5L29.1,87.5z M29.3,87.6h93.8v0.1L29.3,87.6L29.3,87.6z M29.4,87.7h93.6
							v0.1L29.4,87.7L29.4,87.7z M29.7,87.8h93.2v0.1L29.7,87.8L29.7,87.8z M29.8,87.9h92.9V88L29.8,87.9L29.8,87.9z M29.9,88h92.6
							v0.1L29.9,88L29.9,88z M30.1,88.1h92.3v0.1L30.1,88.1L30.1,88.1z M30.2,88.2h91.9v0.1L30.2,88.2L30.2,88.2z M30.5,88.3H122
							v0.1L30.5,88.3L30.5,88.3z M30.6,88.4h91.2v0.1L30.6,88.4L30.6,88.4z M30.8,88.4h90.9v0.1L30.8,88.4L30.8,88.4z M30.9,88.5
							h90.6v0.1L30.9,88.5L30.9,88.5z M31,88.6h90.3v0.1L31,88.6L31,88.6z M31.3,88.7h89.9v0.1L31.3,88.7L31.3,88.7z M31.5,88.8H121
							v0.1L31.5,88.8C31.5,88.9,31.5,88.8,31.5,88.8z M31.6,88.9h89.2V89L31.6,88.9L31.6,88.9z M31.8,89h88.9v0.1L31.8,89L31.8,89z
							 M31.9,89.1h88.5v0.1L31.9,89.1L31.9,89.1z M32.2,89.2h88.2v0.1L32.2,89.2L32.2,89.2z M32.4,89.2h87.7v0.1L32.4,89.2
							L32.4,89.2z M32.5,89.3h87.4v0.1L32.5,89.3L32.5,89.3z M32.7,89.4h87v0.1L32.7,89.4L32.7,89.4z M33,89.5h86.6v0.1L33,89.5
							C33,89.6,33,89.5,33,89.5z M33.1,89.6h86.3v0.1L33.1,89.6L33.1,89.6z M33.3,89.7h85.9v0.1L33.3,89.7L33.3,89.7z M33.5,89.8
							H119v0.1L33.5,89.8L33.5,89.8z M33.6,89.9h85.1V90L33.6,89.9L33.6,89.9z M33.9,90h84.8V90L33.9,90L33.9,90z M34,90h84.4v0.1
							L34,90L34,90z M34.2,90.1h84v0.1L34.2,90.1L34.2,90.1z M34.4,90.2H118v0.1L34.4,90.2L34.4,90.2z M34.7,90.3h83.2v0.1
							L34.7,90.3L34.7,90.3z M34.9,90.4h82.7v0.1L34.9,90.4L34.9,90.4z M35,90.5h82.4v0.1L35,90.5L35,90.5z M35.2,90.6h81.9v0.1
							L35.2,90.6L35.2,90.6z M35.5,90.7h81.5v0.1L35.5,90.7L35.5,90.7z M35.7,90.8h81.1v0.1L35.7,90.8L35.7,90.8z M35.9,90.8h80.7
							v0.1L35.9,90.8L35.9,90.8z M36.1,90.9h80.2V91L36.1,90.9L36.1,90.9z M36.4,91h79.8v0.1L36.4,91L36.4,91z M36.6,91.1h79.3v0.1
							L36.6,91.1L36.6,91.1z M36.8,91.2h78.9v0.1L36.8,91.2L36.8,91.2z M37,91.3h78.4v0.1L37,91.3L37,91.3z M37.2,91.4h78.1v0.1
							L37.2,91.4L37.2,91.4z M37.4,91.5H115v0.1L37.4,91.5L37.4,91.5z M37.6,91.6h77.2v0.1L37.6,91.6L37.6,91.6z M37.8,91.7h76.7
							v0.1L37.8,91.7L37.8,91.7z M38.1,91.7h76.3v0.1L38.1,91.7L38.1,91.7z M38.4,91.8h75.7v0.1L38.4,91.8L38.4,91.8z M38.6,91.9
							h75.2V92L38.6,91.9L38.6,91.9z M38.9,92h74.8v0.1L38.9,92L38.9,92z M39.1,92.1h74.2v0.1L39.1,92.1L39.1,92.1z M39.3,92.2h73.8
							v0.1L39.3,92.2L39.3,92.2z M39.7,92.3h73.2v0.1L39.7,92.3L39.7,92.3z M39.9,92.4h72.7v0.1L39.9,92.4L39.9,92.4z M40.1,92.5
							h72.3v0.1L40.1,92.5L40.1,92.5z M40.3,92.5h71.8v0.1L40.3,92.5L40.3,92.5z M40.6,92.6h71.3v0.1L40.6,92.6L40.6,92.6z
							 M40.9,92.7h70.7v0.1L40.9,92.7L40.9,92.7z M41.1,92.8h70.1v0.1L41.1,92.8L41.1,92.8z M41.4,92.9H111V93L41.4,92.9L41.4,92.9z
							 M41.7,93h69v0.1L41.7,93L41.7,93z M41.9,93.1h68.5v0.1L41.9,93.1L41.9,93.1z M42.3,93.2h68v0.1L42.3,93.2L42.3,93.2z
							 M42.5,93.3h67.4v0.1L42.5,93.3L42.5,93.3z M42.8,93.3h66.8v0.1L42.8,93.3L42.8,93.3z M43.1,93.4h66.3v0.1L43.1,93.4
							L43.1,93.4z M43.4,93.5h65.7v0.1L43.4,93.5L43.4,93.5z M43.7,93.6h65v0.1L43.7,93.6L43.7,93.6z M44,93.7h64.6v0.1L44,93.7
							L44,93.7z M44.3,93.8h63.9v0.1L44.3,93.8L44.3,93.8z M44.5,93.9h63.3V94L44.5,93.9L44.5,93.9z M44.9,94h62.6v0.1L44.9,94
							L44.9,94z M45.2,94.1h62v0.1L45.2,94.1L45.2,94.1z M45.4,94.1h61.4v0.1L45.4,94.1L45.4,94.1z M45.8,94.2h60.8v0.1L45.8,94.2
							L45.8,94.2z M46.1,94.3h60.1v0.1L46.1,94.3L46.1,94.3z M46.6,94.4h59.4v0.1L46.6,94.4L46.6,94.4z M46.9,94.5h58.7v0.1
							L46.9,94.5L46.9,94.5z M47.3,94.6h58v0.1L47.3,94.6L47.3,94.6z M47.6,94.7h57.3v0.1L47.6,94.7L47.6,94.7z M47.9,94.8h56.6v0.1
							L47.9,94.8L47.9,94.8z M48.3,94.9h55.9V95L48.3,94.9L48.3,94.9z M48.6,95h55.2V95L48.6,95L48.6,95z M49,95h54.5v0.1L49,95
							L49,95z M49.3,95.1h53.8v0.1L49.3,95.1L49.3,95.1z M49.8,95.2h52.9v0.1L49.8,95.2L49.8,95.2z M50.1,95.3h52.2v0.1L50.1,95.3
							L50.1,95.3z M50.5,95.4h51.4v0.1L50.5,95.4L50.5,95.4z M50.9,95.5h50.6v0.1L50.9,95.5L50.9,95.5z M51.3,95.6h49.8v0.1
							L51.3,95.6L51.3,95.6z M51.8,95.7h48.9v0.1L51.8,95.7L51.8,95.7z M52.1,95.7h48.1v0.1L52.1,95.7L52.1,95.7z M52.6,95.8h47.2
							v0.1L52.6,95.8L52.6,95.8z M53,95.9h46.3V96L53,95.9C53,96,53,95.9,53,95.9z M53.5,96h45.3v0.1L53.5,96L53.5,96z M53.9,96.1
							h44.4v0.1L53.9,96.1L53.9,96.1z M54.4,96.2h43.5v0.1L54.4,96.2L54.4,96.2z M55,96.3h42.4v0.1L55,96.3L55,96.3z M55.5,96.4H97
							v0.1L55.5,96.4L55.5,96.4z M56,96.5h40.4v0.1L56,96.5C56,96.6,56,96.5,56,96.5z M56.6,96.6h39.4v0.1L56.6,96.6L56.6,96.6z
							 M57.1,96.6h38.2v0.1L57.1,96.6L57.1,96.6z M57.7,96.7h37.1v0.1L57.7,96.7L57.7,96.7z M58.3,96.8h35.9v0.1L58.3,96.8
							L58.3,96.8z M58.9,96.9h34.5V97L58.9,96.9L58.9,96.9z M59.7,97h33v0.1L59.7,97L59.7,97z M60.4,97.1h31.8v0.1L60.4,97.1
							C60.4,97.2,60.4,97.1,60.4,97.1z M61.1,97.2h30.3v0.1L61.1,97.2L61.1,97.2z M61.8,97.3h28.8v0.1L61.8,97.3L61.8,97.3z
							 M62.6,97.4h27.1v0.1L62.6,97.4L62.6,97.4z M63.4,97.4h25.5v0.1L63.4,97.4L63.4,97.4z M64.5,97.5H88v0.1L64.5,97.5L64.5,97.5z
							 M65.5,97.6H87v0.1L65.5,97.6L65.5,97.6z M66.7,97.7h19.1v0.1L66.7,97.7L66.7,97.7z M67.7,97.8h16.8v0.1L67.7,97.8L67.7,97.8z
							 M69.3,97.9h14V98L69.3,97.9L69.3,97.9z M71.2,98h10v0.1L71.2,98L71.2,98z M74.5,98.1h3.6v0L74.5,98.1L74.5,98.1z"/>
					</defs>
					<clipPath id="SVGID_14_">
						<use xlink:href="#SVGID_13_"  style="overflow:visible;"/>
					</clipPath>
					<g class="st9">
						<g>
							<g>
								<defs>
									<path id="SVGID_15_" d="M110,43.4c-1.5-0.5-3.1-0.9-4.7-1.3c-0.5-0.2-1.1-0.3-1.6-0.4c-1.6-0.4-3.2-0.7-4.9-1
										c-0.8-0.2-1.5-0.3-2.3-0.4c-1.6-0.3-3.3-0.5-5-0.7c-4.9-0.6-10-0.9-15.3-0.9c-34,0-61.6,13.3-61.6,29.7
										c0,12.6,16.2,23.4,39.1,27.7c6.1,1.2,12.6,1.9,19.5,2c1,0,2.1,0,3.1,0c0.9,0,1.7,0,2.5,0c6-0.1,11.7-0.6,17.1-1.5
										c1.6-0.3,3.1-0.6,4.7-0.9c5.3-1.1,10.2-2.5,14.6-4.3c13.9-5.5,22.8-13.8,22.8-23.1C137.9,57.9,126.8,48.7,110,43.4"/>
								</defs>
								<clipPath id="SVGID_16_">
									<use xlink:href="#SVGID_15_"  style="overflow:visible;"/>
								</clipPath>
							</g>
						</g>
					</g>
				</g>
			</g>
			<path class="st10" d="M96.6,40.2c-1.6-0.3-3.3-0.5-5-0.7C85.1,41.1,36.7,54,36.9,70.2c0.1,8.8,11.7,21,16.7,25.9
				c6.1,1.2,12.6,1.9,19.5,2c-5.7-5-21.3-19.3-22.9-28.2C47.6,54.6,90.7,41.9,96.6,40.2"/>
			<path class="st11" d="M66.4,68.2c-3.5-14.4,32.3-25.2,37.3-26.6c-1.6-0.4-3.2-0.7-4.9-1C92.5,42.4,52,54,53.4,68.8
				c1,9.7,20.5,25.5,25.3,29.2c6-0.1,11.7-0.6,17.1-1.5C89.7,92.3,69.3,77.6,66.4,68.2"/>
			<path class="st12" d="M82.1,66.7c-4.3-13.5,23.4-21.9,28-23.3c-1.5-0.5-3.1-0.9-4.7-1.3C99,43.9,67.1,54,69.7,67.5
				c1.8,9.6,25.1,24.7,30.8,28.2c5.3-1.1,10.2-2.5,14.6-4.3C108,87.8,86.1,76,82.1,66.7"/>
		</g>
		<g>
			<path class="st13" d="M155.2,53.1h9.4c6.1,0,10.6,0.6,13.6,1.9c2.9,1.2,5.4,3.2,7.3,6c1.9,2.8,2.9,6,2.9,9.7c0,2.6-0.5,5-1.6,7.2
				c-1.1,2.2-2.5,4-4.4,5.5c-1.9,1.5-3.9,2.5-6.1,3c-2.2,0.6-6,0.8-11.4,0.8h-9.6V53.1z M163.2,59.5v21.4h3.7c3.6,0,6.3-0.3,7.9-1
				c1.6-0.7,3-1.8,4-3.4c1-1.6,1.5-3.6,1.5-5.9c0-3.6-1.2-6.4-3.7-8.4c-2.2-1.8-5.8-2.7-10.8-2.7L163.2,59.5"/>
			<path class="st13" d="M192,87.2V53.1h6.6c3.8,0,6.6,0.2,8.4,0.6c2.5,0.5,4.5,1.5,6,3c1.5,1.5,2.2,3.2,2.2,5.2
				c0,1.3-0.3,2.5-1,3.6c-0.7,1-1.8,2-3.3,3c2.5,1,4.4,2.2,5.5,3.6c1.2,1.4,1.8,3.2,1.8,5.2c0,1.9-0.6,3.6-1.8,5.2
				c-1.2,1.6-2.8,2.8-4.7,3.5c-1.9,0.8-4.6,1.2-8,1.2L192,87.2L192,87.2z M199.9,59.3v7.2h1.8c1.9,0,3.4-0.3,4.3-1
				c0.9-0.7,1.4-1.6,1.4-2.7c0-1.1-0.4-1.9-1.4-2.5c-0.9-0.6-2.2-1-4.1-1H199.9z M199.9,72.3V81h2c3.3,0,5.6-0.3,6.7-1
				c1.1-0.7,1.7-1.7,1.7-2.9c0-1.5-0.7-2.6-2-3.5c-1.4-0.9-3.6-1.3-6.7-1.3L199.9,72.3"/>
			<path class="st13" d="M225.2,87.2V53.1h6.6c3.8,0,6.6,0.2,8.4,0.6c2.5,0.5,4.5,1.5,6,3c1.5,1.5,2.2,3.2,2.2,5.2
				c0,1.3-0.3,2.5-1,3.6c-0.7,1-1.8,2-3.3,3c2.5,1,4.4,2.2,5.5,3.6c1.2,1.4,1.8,3.2,1.8,5.2c0,1.9-0.6,3.6-1.8,5.2
				c-1.2,1.6-2.8,2.8-4.7,3.5c-1.9,0.8-4.6,1.2-7.9,1.2L225.2,87.2L225.2,87.2z M233.1,59.3v7.2h1.7c2,0,3.4-0.3,4.4-1
				c0.9-0.7,1.4-1.6,1.4-2.7c0-1.1-0.5-1.9-1.3-2.5c-0.9-0.6-2.3-1-4.1-1H233.1z M233.1,72.3V81h2c3.3,0,5.5-0.3,6.7-1
				c1.2-0.7,1.7-1.7,1.7-2.9c0-1.5-0.7-2.6-2-3.5c-1.4-0.9-3.6-1.3-6.8-1.3L233.1,72.3"/>
			<g>
				<path d="M267.8,80.7h17.7v6.4h-27.8V52.6h10.1L267.8,80.7L267.8,80.7z"/>
			</g>
		</g>
	</g>
	<g>
		<rect y="110.6" class="st14" width="97.4" height="10.9"/>
		<rect x="97.1" y="110.6" class="st11" width="105.4" height="10.9"/>
		<rect x="202.5" y="110.6" class="st12" width="97.5" height="10.9"/>
	</g>
</g>
</svg>
