<?xml version="1.0" encoding="utf-8"?>
<!-- Generator: Adobe Illustrator 24.2.1, SVG Export Plug-In . SVG Version: 6.00 Build 0)  -->
<svg version="1.1" id="Layer_1" xmlns="http://www.w3.org/2000/svg" xmlns:xlink="http://www.w3.org/1999/xlink" x="0px" y="0px"
	 viewBox="0 0 300 160" style="enable-background:new 0 0 300 160;" xml:space="preserve">
<style type="text/css">
	.st0{fill:#FFFFFF;}
	.st1{fill:#008C44;}
	.st2{fill:#231F20;}
	.st3{fill:#01A651;}
</style>
<path class="st0" d="M288.4,160.5H10.6c-6.1,0-11.1-5-11.1-11.1l0,0V11.6c0-6.1,5-11.1,11.1-11.1l0,0h277.8c6.1,0,11.1,5,11.1,11.1
	l0,0v137.8C299.5,155.5,294.5,160.5,288.4,160.5L288.4,160.5z"/>
<g>
	<g>
		<g>
			<path class="st1" d="M148.8,11.9h1.3c10.3,0,20.5,2.8,29.4,8c7.4,4.4,13.9,10.3,18.7,17.3c4.2,6,7.2,12.7,8.9,19.8
				c2.8,11.5,2.1,23.7-2.1,34.7c-3.2,8.5-8.4,16.2-15,22.3c-7.1,6.7-15.8,11.5-25.2,13.9c1.5,0.3,2.9,0.4,4.4,0.7
				c0.3,0.1,0.5,0.1,0.8,0c8.3-3.1,15.9-8.1,22.1-14.5c6.3-6.5,11.3-14.5,14.4-22.9c2-5.4,3.3-11,3.9-16.8c2-0.1,4-0.1,6-0.2
				c1.1,0,2.3-0.2,3.4,0c1.5-0.3,3.3-0.3,4.7,0.4c0.9,0.5,1.4,1.5,1.6,2.4c0.5,2.1,0.4,4.4,0.1,6.7c-0.5,3.2-1.5,6.2-2.7,9.1
				c-0.4-0.7-0.9-1.4-1.7-1.7c-0.3-0.2-0.9,0-1,0.3c-0.4,0.6-0.7,1.3-0.6,2c0,0.4,0.3,0.8,0.4,1.2c-1.9-0.9-3.3-2.6-4-4.5
				c-2.9,9.6-7.8,18.7-14.3,26.4c-5.5,6.5-12.1,12-19.5,16.2c2.7,1.1,5.2,2.5,7.6,4c-2.8,3.2-5.6,6.3-8.5,9.5
				c-1.8-0.6-3.7-1.2-5.5-1.7c-0.6,0.3-1.1,0.8-1.7,1.1c-1.2,0.7-2.5,1.3-3.9,1.3c-1,0-2.1-0.4-2.7-1.2c-0.9-0.9-1.3-2.1-1.6-3.4
				c-9.4-1.5-19.3-1.4-28.5,1c-0.4,1.4-0.9,2.7-1.9,3.7c-0.5,0.6-1.2,1.1-2,1.3h-1.5c-1.3-0.3-2.3-1.1-3.3-1.9
				c-0.9,0.4-1.7,0.9-2.5,1.4c-3.1-3.6-6.1-7.3-9.2-10.9c1.3-0.8,2.5-1.5,3.8-2.2c-3.1-1.5-6.2-3.3-9-5.2
				c-7.8-5.3-14.5-12.2-19.6-20.2c-3.9-6.2-7-12.8-9.1-19.9c-0.7,2.1-2.1,3.9-4,4.9c0.4-0.8,0.6-1.7,0.2-2.5c-0.3-0.5-0.6-1.2-1.3-1
				c-0.9,0.3-1.3,1-1.8,1.7c-1.8-3.7-3-7.5-3.2-11.5v-1.3c0.1-1.4,0.2-2.8,0.8-4.1c0.4-0.9,1.2-1.5,2.1-1.7c1.6-0.5,3.3-0.4,5-0.3
				c2.7,0,5.4,0,8,0c0.6,6.8,2.1,13.4,4.7,19.7c3.4,8.5,8.6,16.3,15.2,22.6c6.7,6.4,14.8,11.3,23.7,14c0.2,0.1,0.4,0.1,0.6,0
				c1.5-0.3,2.9-0.8,4.4-0.9c-0.6-0.3-1.4-0.3-2-0.5c-9-2.1-17.5-6.4-24.5-12.4c-7.1-6-12.8-13.7-16.3-22.2c-5-12-6-25.6-2.6-38.2
				c2.4-8.8,6.8-17.1,13-24c6.3-7.1,14.3-12.6,23.2-15.9C135.3,13.3,142,12.1,148.8,11.9z M145.6,14.5c-5.9,0.4-11.8,1.8-17.3,4.1
				c-8.8,3.6-16.6,9.5-22.6,16.9c-6.3,7.8-10.5,17.3-12,27.3c-1,7.3-0.7,14.7,1.1,21.9c1.5,5.7,3.8,11.2,6.8,16.2
				c5,8,12.2,14.9,20.5,19.5c7.5,4.3,16.1,6.8,24.8,7.2c1.9,0.2,3.9-0.1,5.7-0.1c1.7,0,3.4-0.2,5.1-0.4c10.4-1.5,20.5-6,28.5-12.8
				c7.4-6.2,13.1-14.3,16.5-23.4c4.8-12.7,4.8-27.1,0-39.8c-2.9-7.8-7.6-14.9-13.5-20.7c-7.1-6.9-16-12-25.7-14.4
				C157.8,14.6,151.7,14,145.6,14.5z M77.1,76.5c-0.8,0.2-1.2,0.9-1.5,1.5c-0.5,1.4-0.6,2.9-0.3,4.3c0.3,0.9,0.6,1.7,1.4,2.1
				c0.5,0.3,1.2,0.2,1.6-0.3c0.8-0.7,1-1.7,1.2-2.7c0.2-1.5,0-2.9-0.7-4.2C78.5,76.9,77.9,76.3,77.1,76.5z M222.1,77
				c-0.4,0.2-0.8,0.6-1,1c-0.5,0.9-0.7,2.1-0.7,3.1c0,1.1,0.3,2.2,0.9,3.2c0.3,0.5,0.9,0.9,1.5,0.9c0.7-0.1,1.2-0.6,1.5-1.1
				c0.6-1.2,0.8-2.5,0.6-3.9c-0.1-0.9-0.4-2-1.1-2.7C223.3,77,222.6,76.8,222.1,77z M210.4,83.4c-0.1,0.4-0.3,0.9-0.3,1.3
				c0.7,0.2,1.4,0.4,2.1,0.6c-0.3,0.8-0.4,1.5-0.7,2.4c-0.7-0.2-1.4-0.4-2.1-0.6c-0.2,0.4-0.3,0.9-0.3,1.3c1.8,0.5,3.7,1.1,5.5,1.6
				c0.1-0.4,0.3-0.9,0.3-1.3c-0.9-0.3-1.6-0.5-2.5-0.8c0.3-0.8,0.5-1.5,0.7-2.4c0.9,0.3,1.6,0.5,2.5,0.7c0.1-0.4,0.3-0.9,0.3-1.3
				C214,84.4,212.2,83.9,210.4,83.4z M209,89.6c-0.7,0.3-1.1,0.9-1.4,1.5c-0.3,0.6-0.4,1.4-0.3,2c0.3,0.8,1.1,1.3,2,1.1
				c0.6-0.3,0.9-0.9,1.3-1.4c0.3-0.4,0.6-0.9,0.9-1.3c0.3-0.3,0.9,0.1,0.9,0.4c0,0.6-0.2,1.2-0.6,1.6c-0.3,0.3-0.6,0.3-0.9,0.3
				c-0.2,0.4-0.3,0.8-0.4,1.2c0.3,0.1,0.8,0.2,1.1,0c0.7-0.3,1.1-0.9,1.5-1.5c0.3-0.8,0.6-1.6,0.3-2.4c-0.3-0.9-1.5-1.5-2.3-0.9
				c-0.8,0.7-1.2,1.7-1.9,2.5c-0.3,0.3-0.9,0-0.9-0.5c0-0.8,0.5-1.8,1.5-1.6c0.2-0.4,0.3-0.8,0.4-1.2
				C209.9,89.4,209.5,89.4,209,89.6z M206.6,94c-0.7,1.4-1.3,2.8-2,4.2c1.7,0.9,3.4,1.6,5.1,2.5c0.7-1.5,1.4-2.9,2.1-4.4
				c-0.3-0.2-0.6-0.3-0.9-0.4c-0.5,1-1,2.1-1.5,3.2c-0.4-0.2-0.9-0.4-1.4-0.6c0.4-0.9,0.9-1.9,1.4-2.8c-0.3-0.2-0.6-0.3-0.9-0.4
				c-0.4,0.9-0.9,1.9-1.4,2.8c-0.3-0.2-0.7-0.3-1.1-0.5c0.5-1,0.9-2.1,1.5-3C207.2,94.4,207,94.2,206.6,94z M90.8,102.3
				c0.3,0.3,0.4,0.8,0.7,1.1c1.6-0.9,3.3-1.8,5-2.7c-0.2-0.3-0.4-0.8-0.6-1.1C94.1,100.5,92.5,101.3,90.8,102.3z M203.2,101
				c-0.5,0.9-0.9,1.7-1.5,2.5c1.6,0.9,3.3,1.9,5,2.8c0.3-0.6,0.7-1.2,1-1.8c0.3-0.6,0.7-1.1,0.7-1.8c0-0.9-0.5-1.6-1.1-2.1
				c-0.7-0.6-1.6-0.9-2.6-0.8C204.1,99.9,203.6,100.4,203.2,101z M94.7,103.3c0.1,1,0.7,1.9,0.9,2.9c0.1,0.4-0.5,0.8-0.9,0.5
				c-0.5-0.3-0.8-0.9-0.9-1.4c-0.1-0.3,0.1-0.8,0.3-1c-0.3-0.3-0.4-0.7-0.7-1c-0.6,0.4-0.9,1.2-0.8,1.9c0.3,1,0.9,2.1,1.9,2.7
				c0.9,0.5,2.3-0.1,2.3-1.2s-0.7-2.1-0.9-3.1c0-0.4,0.6-0.7,0.9-0.3c0.6,0.4,1.1,1.5,0.4,2.1c0.3,0.3,0.4,0.7,0.7,1.1
				c0.3-0.3,0.7-0.7,0.8-1.2c0.2-0.9-0.3-1.6-0.7-2.2c-0.4-0.5-0.9-1-1.6-1C95.5,101.8,94.6,102.4,94.7,103.3z M199.4,106.9
				c1.1,1.7,2.2,3.4,3.4,5.1c0.3-0.4,0.5-0.8,0.8-1.1c-0.3-0.3-0.5-0.7-0.7-1c0.4-0.6,0.9-1.3,1.4-1.9c0.4,0.1,0.8,0.3,1.2,0.3
				c0.3-0.4,0.5-0.8,0.9-1.2c-2-0.5-3.9-0.9-6-1.5C200,106.1,199.7,106.5,199.4,106.9z M95.2,109.5c0.9,1.2,1.8,2.4,2.7,3.6
				c0.3-0.2,0.6-0.4,0.9-0.6c-0.6-0.9-1.3-1.7-1.9-2.6c1.3-0.9,2.5-1.9,3.8-2.7c-0.3-0.3-0.5-0.7-0.8-1
				C98.3,107.2,96.8,108.3,95.2,109.5z M195.3,112.2c1.5,1.2,2.9,2.4,4.4,3.6c0.9-1.2,1.9-2.3,2.8-3.4c-0.3-0.3-0.5-0.4-0.8-0.7
				c-0.7,0.8-1.3,1.6-2.1,2.4c-1.2-1-2.4-2-3.6-3C195.8,111.5,195.5,111.8,195.3,112.2z M98.1,113.4c0.3,0.3,0.6,0.7,0.9,1
				c0.4,0,0.8-0.3,1.2-0.4c0.5,0.6,1,1.2,1.5,1.8c-0.2,0.3-0.4,0.7-0.6,1c0.3,0.3,0.6,0.8,0.9,1.1c0.9-1.8,1.9-3.6,2.8-5.5
				c-0.3-0.3-0.7-0.8-1-1.1C101.9,112.1,100,112.7,98.1,113.4z M192.3,115.3c-0.5,0.7-0.7,1.6-0.4,2.5c0.3,1,1.1,1.8,2.1,2.2
				c1.7,0.6,3.9-0.9,3.7-2.8c0.2,0.1,0.4,0.3,0.6,0.3c0.2-0.2,0.4-0.4,0.6-0.6c-0.8-0.7-1.5-1.5-2.2-2.1c-0.6,0.6-1.2,1.3-1.9,1.9
				c0.3,0.3,0.4,0.4,0.7,0.7c0.3-0.3,0.7-0.7,1-1c0.2,0.3,0.3,0.6,0.3,0.9c0,0.9-0.7,1.5-1.5,1.7c-0.7,0.2-1.4-0.3-1.8-0.8
				c-0.4-0.5-0.8-1.2-0.6-1.8c0.3-0.9,1.3-1.5,2.1-1.1c0.3-0.3,0.6-0.6,0.9-0.9c-0.5-0.3-1.1-0.5-1.6-0.3
				C193.5,113.9,192.8,114.6,192.3,115.3z M102.8,118.8c0.3,0.3,0.6,0.6,0.9,0.9c1-1.2,2.1-2.3,3.3-3.4c-0.8,1.5-1.6,2.8-2.4,4.3
				c0.3,0.3,0.6,0.6,0.9,0.9c1.4-0.9,2.7-1.8,4.1-2.7c-1,1.2-2.1,2.3-3.3,3.5c0.3,0.3,0.6,0.6,0.9,0.9c1.3-1.4,2.7-2.7,3.9-4.2
				c-0.4-0.4-0.9-0.9-1.4-1.3c-1.4,0.8-2.7,1.6-3.9,2.5c0.8-1.4,1.5-2.7,2.2-4.1c-0.5-0.4-0.9-0.9-1.4-1.3
				C105.4,116,104.1,117.4,102.8,118.8z M189.3,118.2c0.9,1,1.7,2.1,2.6,3.1c-1.5-0.4-3-0.9-4.4-1.4c-0.3,0.3-0.8,0.6-1.1,0.9
				c1.3,1.5,2.5,2.9,3.7,4.4c0.3-0.3,0.6-0.5,0.9-0.8c-0.9-1-1.8-2.1-2.7-3.1c1.5,0.4,3.1,0.9,4.6,1.5c0.3-0.3,0.7-0.6,1-0.9
				c-1.2-1.5-2.5-2.9-3.7-4.4C190,117.7,189.6,117.9,189.3,118.2z M108.2,123.7c0.3,0.3,0.7,0.6,1,0.9c1.2-1.5,2.4-2.9,3.6-4.4
				c-0.3-0.3-0.7-0.6-1-0.9C110.6,120.7,109.4,122.3,108.2,123.7z M183,123.1c0.5,2,0.9,3.9,1.5,6c0.4-0.3,0.8-0.5,1.1-0.8
				c-0.1-0.4-0.2-0.9-0.3-1.2c0.6-0.4,1.3-0.9,1.9-1.4c0.3,0.3,0.7,0.5,1,0.8c0.3-0.3,0.8-0.5,1.1-0.9c-1.6-1.2-3.4-2.2-5-3.4
				C183.9,122.5,183.5,122.8,183,123.1z M179.5,125.3c-0.9,0.5-1.9,1-2.8,1.6c0.9,1.6,1.9,3.3,2.8,5c0.9-0.5,1.9-1,2.8-1.6
				c0.5-0.3,1-0.9,1-1.5c0.1-0.9-0.8-1.9-1.7-1.6c0.5-0.6,0.3-1.5-0.4-1.9C180.8,124.9,180,125,179.5,125.3z M147.9,129.9
				c-6,0.4-11.9,1.5-17.5,3.3c-3.2,1-6.3,2.3-9.2,4c2,2.4,4,4.8,6.1,7.2c5.3-2.7,11.1-4.3,17-5.1c6.8-0.9,13.7-0.9,20.5,0
				c5.6,0.8,11,2.1,16.3,3.9c1.8-2.1,3.7-4.1,5.5-6.2c-2.8-1.5-5.8-2.8-8.9-3.9c-6-2-12.3-3-18.6-3.4c-1.9-0.1-3.9-0.2-5.7-0.1
				C151.4,129.9,149.7,129.9,147.9,129.9z"/>
		</g>
		<path class="st1" d="M149.4,30.8c5.5-0.3,11,0.8,16.2,2.7c4.7,1.8,9,4.5,12.6,8c5,4.6,8.6,10.4,11.3,16.7c0.5,1,0.8,2.2,1,3.3
			c1.3,5.4,1.7,11,1.2,16.6c-0.6,6.5-2.7,12.9-6.4,18.2c-3.4,5-8.3,9.2-13.6,12.2c-0.2-15.1-0.3-30-0.4-45.1
			c0.2-1.5-0.3-3.2-1.2-4.4c-0.7-0.9-1.6-1.7-2.7-2.2c-0.1-2.7-0.6-5.3-2-7.5c-0.9-1.5-2.2-2.7-3.9-3.3c-1.5-0.9-2.8-2.1-4.1-3.3
			c-2.9-2.7-5.6-5.6-7.4-9.2h-0.1c-2.1,3.7-5,6.8-8.1,9.5c-1.5,1.2-3,2.3-4.5,3.3c-0.4,0.3-0.9,0.3-1.3,0.6
			c-1.5,0.9-2.3,2.7-2.7,4.4s-0.4,3.5-0.3,5.3c-1.6,1.3-2.6,3.3-3,5.2c-0.3,1.5-0.4,3.3-0.3,4.8c-0.1,13.9-0.2,27.9-0.3,41.8
			c-3.9-2.7-7.4-6-10.5-9.6c-3.3-3.9-6.1-8.5-7.9-13.3c-2.1-5.5-2.7-11.5-2.1-17.3c0.9-8,4.4-15.5,9-22.1c2.1-2.8,4.7-5.2,7.5-7.4
			c5-3.8,11-6.4,17.2-7.5C144.9,31,147.1,30.8,149.4,30.8z"/>
		<path class="st1" d="M204.2,101.2c0.5-0.4,1.3-0.3,1.8,0.1c0.6,0.3,1.3,0.9,1.2,1.7c-0.1,0.6-0.5,1.1-0.9,1.6
			c-1.1-0.6-2.1-1.3-3.3-1.9C203.6,102.3,203.8,101.7,204.2,101.2z"/>
		<path class="st1" d="M200.8,107.1c0.8,0.2,1.5,0.4,2.3,0.6c-0.3,0.4-0.6,0.9-0.9,1.4C201.8,108.3,201.3,107.7,200.8,107.1z"/>
		<path class="st1" d="M101.1,113.6c0.8-0.3,1.5-0.6,2.2-0.9c-0.4,0.7-0.8,1.4-1.2,2.1C101.8,114.5,101.5,114.1,101.1,113.6z"/>
		<path class="st1" d="M184.4,123.7c0.7,0.4,1.3,0.9,2,1.4c-0.4,0.3-0.9,0.6-1.3,0.9C184.8,125.2,184.6,124.4,184.4,123.7z"/>
		<path class="st1" d="M178.4,127.2c0.6-0.3,1.2-0.8,1.8-0.9c0.5-0.2,0.9,0.6,0.5,0.9c-0.5,0.4-1.2,0.8-1.8,1.1
			C178.7,127.8,178.5,127.5,178.4,127.2z"/>
		<path class="st1" d="M180.8,128.3c0.3-0.2,0.6-0.3,0.9-0.2c0.4,0.3,0.6,0.9,0.2,1.2c-0.5,0.4-1.2,0.7-1.8,1.1
			c-0.3-0.4-0.5-0.9-0.8-1.3C179.9,128.8,180.4,128.5,180.8,128.3z"/>
	</g>
	<g>
		<path class="st2" d="M149.9,19.3c0.6,0.2,1.2,0.3,1.8,0.6c-0.3,0.3-0.7,0.7-1,1.1c-0.6-0.2-1.2-0.4-1.8-0.6
			C149.3,20,149.7,19.6,149.9,19.3z"/>
		<path class="st2" d="M137.8,19.5c0.3,0.1,0.5,0.5,0.7,0.9c0.6,1.2,0.9,2.6,1.4,3.9c0.1,0.3,0.3,0.7,0.6,0.9c1-0.2,2.2-0.3,3.1-0.9
			c-0.3-0.3-0.8-0.3-1.1,0.1c-0.1,0-0.3,0.1-0.4,0.1c-0.1-0.6-0.2-1.5,0.5-1.8c0.9-0.4,1.9-0.5,2.8-0.4c0.5,0.1,1.2,0.3,1.2,0.9
			s-0.6,0.9-0.9,1.2c0.7,0.2,1.5,0,2.1,0c1-0.1,2.1-0.1,3.2,0c0-0.3,0-0.6-0.2-0.9s-0.5-0.5-0.8-0.8c0.3-0.4,0.6-0.9,0.9-1.3
			c0.3,0.3,0.7,0.6,0.9,1c0.3,0.6,0.2,1.3,0.1,2c1,0,2.1,0.1,3.1,0.3c0-0.3,0.1-0.7-0.2-0.9c-0.2-0.3-0.4-0.5-0.7-0.8
			c0.3-0.4,0.7-0.8,1.1-1.2c0.3,0.4,0.9,0.9,0.9,1.5c0,0.9-0.3,1.9-0.3,2.7c-0.7,0-1.4-0.2-2.1-0.2c-1-0.1-2.1-0.1-3.2-0.1
			c-1.4-0.1-2.8,0.1-4.2,0.1c-0.7,0-1.3-0.2-1.8-0.6c-1,0.9-2.4,1.1-3.7,1.4c-0.4,0.1-0.9-0.1-1.3-0.4c-0.5-0.5-0.7-1.2-0.9-1.9
			c-0.3,0.7-0.4,1.5-0.9,2.1c-0.4,0.7-1.2,1.2-2,1.5c-1.1,0.5-2.3,0.9-3.4,1.4c0-0.1-0.1-0.3-0.2-0.4c1.5-1.1,3.1-2,4.4-3.3
			c0.7-0.7,1.3-1.5,1.4-2.5c0-0.9-0.3-1.7-0.9-2.5C137.4,20.2,137.6,19.9,137.8,19.5z"/>
		<path class="st2" d="M142.4,20.8c0.3-0.4,0.5-0.8,0.8-1.2c0.6,0.1,1.3,0.3,1.9,0.4c-0.3,0.3-0.6,0.8-0.9,1.2
			C143.6,21.1,143,20.9,142.4,20.8z"/>
		<path class="st2" d="M130.9,21.7c0.5-0.3,1.1-0.3,1.6-0.3c1.4,0,2.9,0.2,4.1,0.9c0.7,0.4,1.2,1.3,0.9,2.1
			c-0.4-0.1-0.7-0.3-0.9-0.6c-0.7-0.5-1.5-1-2.3-1c-0.4-0.1-0.5,0.5-0.9,0.5c-0.8,0.1-1.7,0-2.4-0.5C130.8,22.5,130.6,22,130.9,21.7
			z"/>
		<path class="st2" d="M169.1,22.9c0.2-0.5,0.6-0.9,1-1.1c0.1,0,0.2,0.1,0.3,0.2c0.2,0.6,0.9,0.8,1.4,1.2c-0.3,0.3-0.5,0.8-0.9,0.9
			c-0.1,0-0.2-0.1-0.3-0.1c-0.3,1.5-0.6,2.8-1,4.2c0.9,0.4,1.9,0.9,2.7,1.3c0.1-0.3,0.3-0.6,0.2-0.9s-0.3-0.7-0.3-1
			c0.4-0.3,0.9-0.5,1.4-0.8c0.2,0.5,0.4,1,0.3,1.5c-0.1,0.6-0.4,1-0.7,1.5c0.9,0.5,1.8,1,2.7,1.5c0.4-0.6,0.3-1.3,0-2
			c0.5-0.2,0.9-0.4,1.5-0.6c0.2,0.6,0.3,1.3,0.1,1.9c-0.3,0.9-0.9,1.6-1.5,2.4c-0.9-0.6-1.9-1.2-2.8-1.7c-1.1-0.5-2.1-1.2-3.3-1.6
			c-1.4-0.6-2.7-1.2-4.2-1.6c-1.5-0.5-2.9-0.8-4.4-1.5c-0.6-0.3-1.1-0.9-1-1.5c0.1-0.9,0.9-1.5,1.5-2.1c0.2,0.2,0.3,0.3,0.5,0.4
			c-0.3,0.3-0.9,0.7-0.9,1.2c0,0.4,0.3,0.7,0.7,0.9c0.9,0.5,2.1,0.7,3.1,1c1.2,0.3,2.3,0.8,3.4,1.2c0.3-1.5,0.8-3,1-4.5
			C169.3,23,169.2,22.9,169.1,22.9z"/>
		<path class="st2" d="M165.4,23.1c0.9-0.7,2-0.9,3.1-0.7c-0.2,0.3-0.4,0.6-0.7,0.9c-0.5-0.1-1-0.2-1.5,0c0.4,0.3,1,0.3,1.5,0.6
			c0.3,0.3,0.2,0.8,0,1.1c-0.3,0.6-1.1,0.8-1.8,0.7c-1.2-0.2-2.3-0.7-3.3-1.3c0.3-0.1,0.5-0.3,0.8-0.2c1.1,0.3,2.2,0.9,3.4,0.5
			c-0.4-0.4-1.2-0.3-1.6-0.7C164.9,23.7,165.1,23.3,165.4,23.1z"/>
		<path class="st2" d="M172.3,25.2c0.4-0.2,0.9-0.4,1.3-0.6c0.4,0.4,0.9,0.9,1.3,1.3c-0.4,0.2-0.9,0.3-1.3,0.6
			C173.2,26,172.8,25.6,172.3,25.2z"/>
		<path class="st2" d="M127.9,24.7c0.9-0.1,2,0,2.7,0.7c0.9,0.9,1.3,2.3,1.6,3.5c-1,0.4-2.1,0.9-3.1,1.5c-0.4,0.3-1.1,0.5-1.5,0.2
			c-0.3-0.3-0.3-0.9-0.4-1.3c0.1-0.1,0.3-0.2,0.3-0.2c0.2,0.2,0.4,0.3,0.7,0.2c0.9-0.4,1.8-0.9,2.7-1.3c0-0.4-0.3-0.9-0.6-1.2
			c-0.5-0.6-1.4-0.6-2.1-0.5C128.2,25.8,128,25.2,127.9,24.7z"/>
		<path class="st2" d="M153.3,26.2c0.5,0.3,1,0.4,1.6,0.7c-0.3,0.3-0.6,0.6-0.9,0.9c-0.5-0.3-1-0.4-1.5-0.6
			C152.7,26.9,153.1,26.5,153.3,26.2z"/>
		<path class="st2" d="M124.5,29.5c0.1-0.6,0.1-1.1,0.3-1.6c0.5,0.2,1.1,0.3,1.5,0.8c0.6,0.9,0.9,1.8,1.3,2.7
			c-1.2,0.7-2.4,1.4-3.5,2.2c-0.6,0.4-1.2,0.8-1.9,0.9c-0.3,0.9-1.1,1.4-1.7,2c0.3,0.8,0.3,1.6-0.1,2.4c-0.5,1.2-1.5,2.2-2.3,3.2
			c-0.6,0.6-1.1,1.2-2,1.5c-0.6,0.2-1.1-0.2-1.5-0.6c-0.6-0.9-0.9-2-1-3c0.2-0.2,0.4-0.3,0.6-0.3c0.2,0.9,0.3,1.7,0.8,2.4
			c0.2,0.3,0.6,0.4,0.9,0.3c0.6-0.3,1.1-0.8,1.5-1.2c0.8-0.9,1.5-1.8,2.1-2.9c0.2-0.4,0.3-1,0-1.5c-0.4-0.5-1.1-0.8-1.8-0.7
			c-0.1-0.6-0.2-1.3-0.3-1.9c0.4,0.1,0.9,0.2,1.2,0.3c0.4,0.3,0.7,0.6,0.9,0.9c0.4-0.4,1-0.8,1.4-1.4c0.2-0.4-0.3-0.8-0.5-1
			c0.1-0.3,0.1-0.6,0.2-0.9c0.4,0.3,0.8,0.9,1.3,1c0.4,0.1,0.9-0.2,1-0.5c-0.3-0.3-0.8-0.5-1.3-0.5c0.1-0.4,0.2-0.9,0.2-1.4
			c0.3,0.2,0.8,0.3,1,0.5c0.3,0.3,0.5,0.7,0.7,1c0.9-0.6,1.7-1.1,2.7-1.7c-0.2-0.3-0.3-0.5-0.5-0.7
			C125.2,29.6,124.8,29.6,124.5,29.5z"/>
		<path class="st2" d="M119.2,29.4c0.6-0.3,1.2-0.4,1.8-0.7c-0.1,0.5-0.2,1-0.3,1.5c-0.4,0.2-0.8,0.3-1.2,0.4c0,0.4-0.1,0.9-0.1,1.3
			c-0.6,0.3-1.2,0.4-1.7,0.7c0-0.5,0.1-1,0.1-1.5c0.4-0.2,0.8-0.3,1.2-0.5C119.1,30.1,119.2,29.8,119.2,29.4z"/>
		<path class="st2" d="M117.3,29.8c0.6-0.3,1.2-0.6,1.8-0.8c-0.1,0.5-0.2,1-0.3,1.5c-0.6,0.3-1.2,0.5-1.8,0.8
			C117.2,30.7,117.3,30.2,117.3,29.8z"/>
		<path class="st2" d="M126.1,32.4c0.6-0.1,1.1-0.2,1.7-0.3c-0.1,0.4-0.2,0.9-0.3,1.4c-0.3,0.1-0.7,0.2-1.1,0.3
			c-0.1,0.3-0.2,0.7-0.2,1c-0.5,0.2-1,0.3-1.6,0.4c0.1-0.4,0.1-0.9,0.2-1.4c0.3-0.1,0.8-0.2,1.1-0.3C126,33.2,126.1,32.8,126.1,32.4
			z"/>
		<path class="st2" d="M172.5,32.8c0.4-0.2,0.9-0.3,1.2-0.5c0.3,0.4,0.8,0.9,1.1,1.4c-0.4,0.2-0.9,0.3-1.2,0.4
			C173.2,33.6,172.8,33.2,172.5,32.8z"/>
		<g>
			<path class="st2" d="M179,35.9c0.8-0.4,1.6-0.5,2.4-0.6c0.1,0.3,0.3,0.4,0.3,0.7c-0.7,0.2-1.4,0.1-2,0.5
				c-0.3,0.3-0.3,0.8-0.1,1.1c0.5,0.9,1.4,1.7,2.1,2.5c0.5,0.5,1,1,1.6,1.5c-0.3-0.5-0.9-1-1.2-1.5c-0.2-0.2-0.3-0.5,0-0.7
				c0.4-0.4,1-0.5,1.5-0.3c1,0.3,1.8,1.2,2.5,2.1c0.6,0.7,1,1.5,1.8,2.1c0.3,0.3,0.8,0.4,1.3,0.5c0.8,0.2,1.5,0.7,2.1,1.1
				c0.3,0.2,0.5,0.5,0.4,0.9c-0.1,0.6-0.3,1.2-0.7,1.7c-0.3,0.6-0.9,0.8-1.5,1.1c-0.3-0.7-0.8-1.4-1-2.1c-0.2-0.5-0.3-1.1-0.3-1.6
				c-0.4-0.2-0.9-0.3-1.3-0.8c-1-1.2-1.9-2.4-2.9-3.6c0.3,0.5,0.7,0.9,0.9,1.4c0.2,0.4-0.4,0.7-0.8,0.9c-0.9,0.2-1.5-0.4-2.1-0.9
				c-1-0.9-2-1.8-2.8-2.8c-0.4-0.5-0.9-1.1-0.9-1.8C178.2,36.5,178.7,36.1,179,35.9z M189.8,44.8c0.1,0.5,0.3,1.1,0.4,1.6
				c0.2-0.3,0.3-0.7,0.4-1.1C190.4,45,190,44.9,189.8,44.8z"/>
		</g>
		<g>
			<path class="st2" d="M105.1,44.4c0.3-0.3,0.5-0.6,0.8-0.9c0.2-0.2,0.4,0.1,0.5,0.2c0.2,0.3,0.6,0.6,0.3,0.9
				c1.3,0.3,2.5,0.8,3.8,1.3c0.5,0.2,0.9,0.5,1.4,0.9c-0.7,1.2-1.4,2.4-2,3.7c-0.7,1.4-1.4,2.8-1.8,4.3c-0.3,0.9-0.7,1.6-1.2,2.3
				c-0.2,0.3-0.4,0.5-0.6,0.9c0,0.5,0.3,0.9,0.3,1.4c-0.1,0.9-0.3,1.8-0.4,2.7c-0.4,1.7-0.7,3.5-0.8,5.3c-0.2,1.4-0.2,2.7-0.3,4.1
				c0,0.5-0.2,1.2-0.5,1.5c-0.4,0.3-0.9,0.1-1.4-0.1c0-0.2,0-0.3,0-0.5c0.4-0.3,0.5-0.9,0.5-1.3c0-1.3,0.1-2.5,0.3-3.8
				c-0.8-0.1-1.5,0.2-2.1,0.8c-0.5,0.5-0.7,1.3-0.9,2c-0.5-0.1-1-0.2-1.5-0.3c0.3-1,0.8-2.1,1.6-2.7c0.7-0.6,1.6-0.8,2.6-0.8
				c0.2,0,0.4,0.1,0.4-0.2c0.2-1.3,0.3-2.6,0.6-3.9c-0.3,0-0.7,0-0.9,0.2c-0.3,0.3-0.7,0.6-0.9,0.9c-0.3-0.4-0.8-0.9-1.1-1.2
				c0.4-0.3,0.8-0.8,1.3-0.9c0.6-0.2,1.3-0.1,2,0c0.3-1,0.4-2.1,0-3.1c-0.5-1-0.7-2.1-0.6-3.3c0-0.4,0.4-0.6,0.8-0.8
				c0.7-0.3,1.4-0.5,2.1-0.5c0.4-1.1,0.9-2.2,1.5-3.3c-0.7-0.4-1.4,0.1-2,0.4c-0.3-0.5-0.4-0.9-0.7-1.5c0.4-0.3,0.9-0.5,1.5-0.5
				s1.1,0.3,1.6,0.6c0.3-0.8,0.8-1.5,1.2-2.2c-1.4-0.5-2.8-1-4.3-1.4c-0.2,0.2-0.3,0.3-0.4,0.4c-0.5-0.3-0.9-0.8-0.9-1.3
				C104.6,44.7,104.9,44.7,105.1,44.4z M105.2,55.5c-0.2,0.3,0,0.8,0.1,1.1c0.4-0.4,0.8-0.9,1-1.5C105.8,55.2,105.5,55.3,105.2,55.5
				z"/>
		</g>
		<path class="st2" d="M194.9,47.1c0.1-0.4,0.2-1,0.7-1.1c0.3,0,0.4,0.3,0.5,0.4c0.3,0.8,0.5,1.6,0.6,2.5c0.2,1.3,0.3,2.7-0.3,4
			c-0.3,0.7-0.9,1.3-1.6,1.1c-0.1-0.3,0.2-0.7,0.3-1c0.4-0.9,0.7-2,0.5-2.9c0-0.3-0.5-0.4-0.6-0.8C194.9,48.5,194.8,47.8,194.9,47.1
			z"/>
		<path class="st2" d="M189.6,48.7c0.2-0.1,0.3-0.2,0.4-0.3c1.2,1.5,2.3,3.1,3.6,4.5c0.7,0.7,1.5,1.5,2.5,1.5c0.9,0,1.5-0.6,2.1-1.2
			c0.4,0.2,0.8,0.3,1.1,0.6c0.1,0.2-0.1,0.3-0.3,0.4c-0.9,0.8-2,1.3-2.9,1.9c-0.4,0.3-1,0.5-1.3,1c-0.2,0.2-0.1,0.4,0,0.7
			c0.3,0.9,0.3,1.7,0.7,2.6c0.1,0.2,0.2,0.4,0.4,0.5c0.3,0,0.5-0.2,0.8-0.3c0.3,0.2,0.4,0.3,0.7,0.5c-0.4,0.4-0.9,0.8-1.2,1.4
			c-0.3,0.7-0.1,1.5,0.1,2.2c0.1,0.3,0.1,0.8,0.5,1c0.3,0,0.5-0.2,0.8-0.3c0.2,0.2,0.5,0.4,0.6,0.7c-0.3,0.3-0.9,0.4-1.2,0.8
			c-0.4,0.4-0.3,1.1-0.2,1.6c0.6-0.1,0.8-0.8,1-1.1c0.3,0.3,0.7,0.6,0.9,0.9c-0.3,0.4-0.6,0.9-1.1,1c-0.7,0.2-1.5,0.1-2.2,0.2
			c-0.1-1-0.2-2.1,0.1-3c-0.6-1-0.7-2.2-0.8-3.4c-0.1-0.5,0.3-1.1-0.1-1.5c-0.5-0.8-0.6-1.7-0.9-2.6c-0.3-0.7-0.5-1.5-0.2-2.3
			c0.3-0.7,1-1,1.7-1.3c-0.9-0.3-2-0.5-2.7-1.2c-0.9-0.9-1.5-2.1-2.1-3.3C190.3,50.1,190,49.4,189.6,48.7z"/>
		<path class="st2" d="M110.6,50.4c0,0,0.1,0,0.2,0c0.2,0.4,0.3,0.8,0.4,1.2c-0.3,0.3-0.5,0.6-0.8,0.9c0.2,0.3,0.3,0.7,0.4,1
			c-0.3,0.5-0.7,1-1.1,1.5c-0.2-0.4-0.4-0.9-0.6-1.2c0.3-0.3,0.5-0.7,0.8-1c-0.2-0.3-0.3-0.7-0.4-1.1
			C109.9,51.3,110.2,50.7,110.6,50.4z"/>
		<path class="st2" d="M99.9,60.3c0.3,0.4,0.5,0.9,0.9,1.4c-0.3,0.5-0.4,0.9-0.7,1.5c0.3,0.3,0.5,0.7,0.8,1.1
			c-0.3,0.7-0.6,1.4-0.9,2.1c-0.3-0.3-0.7-0.8-0.9-1.2c0.2-0.5,0.4-1,0.7-1.5c-0.3-0.3-0.4-0.8-0.7-1.1C99.3,61.7,99.6,61,99.9,60.3
			z"/>
		<path class="st2" d="M200.8,70.7c0.3-0.1,0.5-0.3,0.7,0c0.3,0.3,0.6,0.7,0.9,1.1c0.1,0.3-0.3,0.3-0.4,0.4
			c-1.5,0.5-3.2,0.9-4.8,0.9c-0.8,0-1.4-0.6-1.8-1.2c0-0.2,0.1-0.3,0.1-0.4c0.9,0.2,1.8,0,2.7-0.1C199,71.1,200,71,200.8,70.7z"/>
		<path class="st2" d="M101.9,76c0.4,0.6,0.7,1.2,1,1.8c0.7,0.1,1.4,0.2,2.1,0.2c-0.4,0.5-0.9,1-1.4,1.5c0.2,0.7,0.3,1.4,0.4,2
			c-0.6-0.3-1.2-0.6-1.9-0.9c-0.6,0.3-1.2,0.7-1.8,1c0.1-0.7,0.2-1.4,0.3-2.1c-0.5-0.4-1-0.9-1.5-1.4c0.7-0.2,1.4-0.3,2.1-0.3
			C101.4,77.3,101.6,76.7,101.9,76z"/>
		<path class="st2" d="M198.1,78.4c0.3-0.6,0.5-1.3,0.9-1.9c0.3,0.6,0.7,1.2,0.9,1.8c0.7,0.1,1.4,0.2,2.1,0.3
			c-0.4,0.5-0.9,1-1.5,1.5c0.2,0.7,0.3,1.4,0.4,2.1c-0.6-0.3-1.2-0.6-1.9-0.9c-0.6,0.3-1.2,0.7-1.8,1c0.1-0.7,0.2-1.4,0.3-2.1
			c-0.5-0.4-1-0.9-1.5-1.4C196.8,78.6,197.5,78.5,198.1,78.4z"/>
		<g>
			<path class="st2" d="M107.1,86.9c0.3-0.4,0.9-0.5,1.4-0.3c0.2,0.3,0.3,0.6,0.3,0.9c-0.3-0.1-0.7-0.4-0.9-0.1
				c-0.2,0.4,0,0.9,0.3,1.3c0.5,0.9,1,1.8,1.3,2.8c0.2,0.8-0.2,1.7-0.9,2.1c0.1,0.3,0.2,0.6,0.3,0.9c1.4,2.1,2.7,4.1,4.1,6.2
				c1.5,1.5,2.9,3.1,4.4,4.7c0.6,0.6,1.4,1.1,1.4,2c0.3-0.5,0.8-1,1.2-1.5c0.1,0.3,0.2,0.5,0.2,0.8c-0.1,0.3-0.3,0.6-0.3,0.9
				c0.3,0.3,0.4,0.6,0.8,0.8c1.4,0.9,2.7,1.9,4.1,2.7c0.3,0.1,0.2-0.3,0.1-0.3c-0.8-0.8-1.9-0.9-2.5-1.8c-0.3-0.4-0.7-1-0.3-1.5
				c0.3-0.5,0.9-0.4,1.5-0.3c0.7,0.1,1.5,0.3,2.1,0.7c0.9,0.5,1.6,1.2,2.1,2.1c0.5,0.9,0.6,2.1,0.4,3.1c0.2,0.1,0.4,0.2,0.6,0.3
				c0.2,0.5,0.3,0.9,0.6,1.5c-0.5-0.3-1-0.6-1.5-0.9c-1.1,2.1-2.2,4.2-3.3,6.2c-0.2-0.4-0.3-0.8-0.4-1.2c-0.2-0.2,0-0.3,0.1-0.5
				c0.9-1.7,1.8-3.3,2.7-5c-0.2,0-0.3,0-0.4,0c-0.3-0.3-0.7-0.5-1-0.7c-1.4,2-2.7,3.9-4,5.8c-0.1-0.3-0.2-0.6-0.2-0.9
				c0.1-0.5,0.3-1,0.3-1.5c-0.1-0.5-0.3-0.9-0.4-1.4c-0.6,0-1.1-0.1-1.6-0.4s-0.9-0.9-0.5-1.5c0.2-0.5,0.7-0.8,1.2-0.9
				c0.5,0,0.9,0.3,1.4,0.7c0.1-0.3,0.2-0.6,0.1-0.9c-0.2-0.6-0.8-1-1.1-1.5c-0.3-0.3-0.3-0.8-0.3-1.2c-0.2-0.2-0.3-0.3-0.5-0.4
				c-1.5,1.7-2.9,3.4-4.4,5.2c-0.1,0.1-0.2,0.2-0.3,0.3c-0.1-0.4-0.1-0.9-0.2-1.3c-0.1-0.2,0.2-0.3,0.3-0.5c0.9-1.1,2-2.3,2.9-3.4
				c0.3-0.3,0.4-0.8,0.3-1.2c-0.3-0.3-0.6-0.7-0.9-1c-1.6,1.5-3.3,3-4.8,4.5c-0.1,0.1-0.3,0.2-0.3,0.3c0-0.5-0.1-0.9-0.1-1.4
				c0.9-0.9,1.8-1.7,2.7-2.6c0.3-0.3,0.3-1-0.2-1.3c-0.3-0.1-0.6,0.3-0.9,0.6c-0.3-0.1-0.4-0.3-0.8-0.3c-0.3,0-0.3,0.3-0.5,0.4
				c-0.4,0.2-0.9,0-1.3-0.3c-0.6-0.5-1-1.3-0.9-2.1c0.2-1.2,1.5-2,2.7-1.5c0.9,0.3,1.4,1.2,1.4,2.1c0.4,0,0.9,0,1.2,0.3
				c0.3,0.3,0.3,0.8,0.3,1.2c0.3-0.2,0.5-0.4,0.7-0.6c-1.1-1.1-2.1-2.3-3.3-3.4c-0.5-0.3-0.9-0.9-1.1-1.5c-2,1.3-3.9,2.7-5.9,3.9
				c0.1-0.5,0.2-1,0.3-1.5c0.9-0.6,1.7-1.1,2.6-1.7c0.3-0.4,0.3-1.2-0.3-1.4c-0.9-0.2-1.8-0.1-2.7-0.4c-0.3-0.3-0.6-0.8-0.6-1.2
				c0.1-0.6,0.3-1.1,0.6-1.6c0.3,0.1,0.8,0.2,1.1,0.3c-0.3,0.3-0.5,0.6-0.6,1c0.5,0.4,1.2,0.3,1.8,0.4c0.3-0.3,0.6-0.7,0.6-1.1
				c-0.1-0.6-0.6-1-0.7-1.6c-0.1-0.3,0.2-0.6,0-0.9c-0.3-0.8-0.8-1.5-1.1-2.4c-0.1-0.2-0.2-0.4-0.3-0.6c0,0.6,0.3,1.2,0,1.8
				c-0.2,0.5-0.5,1-0.9,1.3c-0.5,0.3-1.1,0.3-1.6,0.1c-0.5-0.2-0.9-0.6-1.3-0.9c0,1.3-0.3,2.5-0.6,3.7c-0.3,0.4-0.9,0.8-1.3,1.1
				c0.3-0.8,0.5-1.6,0.6-2.4c0.3-1.5,0.2-3.2-0.2-4.7c0.5-0.7,1-1.4,1.5-2.1c0,1.1,0,2.4,0.8,3.3c0.3,0.4,0.8,0.9,1.4,0.9
				c0.6-0.2,0.9-0.9,0.5-1.3c-1,0.2-2.1-0.7-2-1.7c0.1-0.6,0.7-0.8,1.2-0.6c0.6,0.2,0.9,0.6,1.4,1c0-0.2,0.1-0.4,0-0.6
				c-0.3-0.7-0.6-1.3-0.9-2c0.1-0.5,0.3-1,0.4-1.5c0.8,1.7,1.5,3.4,2.4,5c0.1,0.3,0.3,0.5,0.6,0.6c0-1.1-0.8-2.1-1.2-3
				C106.8,88.7,106.7,87.7,107.1,86.9z M109.6,97.5c-0.1,0.4-0.3,0.9-0.7,1.1c0.3,0.2,0.6,0.3,0.8,0.6c0.2,0.4,0.1,0.9,0,1.4
				c0.5-0.3,0.9-0.6,1.4-0.9C110.6,98.9,110.1,98.2,109.6,97.5z M110.9,104.7c0.3-0.2,0.5-0.4,0.9-0.3c0.7,0,1.3,0.9,0.9,1.5
				c0.1,0,0.2,0,0.3,0.1c0.3-0.8,0.1-1.8-0.8-2.1C111.6,103.5,110.7,104,110.9,104.7z M122.6,107.7c0,0.2,0.1,0.3,0.3,0.4
				c0.8,0.5,1.7,0.9,2.4,1.5c0.5,0.4,0.7,1.3,0.3,1.9c0.5,0.3,1,0.5,1.5,0.8c0.2-0.6,0-1.3-0.2-1.9c-0.2-0.4-0.5-0.8-0.9-1.1
				C125.1,108.5,123.9,107.8,122.6,107.7z M121.8,110.3c0.1,0.3,0.3,0.7,0.3,0.9c0.3,0.9,0,1.9-0.5,2.7c0.1,0.4,0.2,0.8,0.3,1.2
				c0.8-1,1.5-2.1,2.2-3.3C123.3,111.3,122.5,110.7,121.8,110.3z"/>
		</g>
		<path class="st2" d="M192.5,88.1c0.3-0.6,1.1-0.7,1.7-1c-0.2,0.5-0.4,0.9-0.6,1.5c2.1,0.9,4.3,1.9,6.3,2.9
			c-0.4,0.3-0.9,0.4-1.4,0.7c-1.2-0.6-2.4-1.1-3.6-1.7c-0.6-0.3-1.3-0.1-1.8,0.3c-0.3,0.2-0.3,0.6-0.3,0.9c0.4-0.3,0.9-0.6,1.4-0.5
			s1,0.4,0.9,0.9c0,0.7-0.4,1.2-1,1.5c0.2,0.4,0.3,1,0,1.5c-0.3,0.6-1.2,0.8-1.7,0.3c-0.4-0.4-0.5-1-0.7-1.5
			c-0.4,0.1-0.9,0.3-0.9,0.8c-0.1,0.4-0.3,0.8-0.7,1.1c-0.9,1.4-1.8,2.7-2.7,4c0.7,0.4,1.3,0.9,2,1.3c-0.2-1.2-0.1-2.5,0.3-3.7
			c0.5-0.3,1.1-0.5,1.7-0.8c0.5,1.1,1.2,2.1,2.2,2.7c0.6,0.3,1.2,0.6,1.8,0.9c-0.1,0.3-0.5,0.4-0.8,0.6c-1.4-0.5-2.8-1-3.8-2.1
			c-0.3,1.3,0,2.7,0.7,3.8c-0.5,0.2-1.1,0.3-1.6,0.4c-1-0.7-2.1-1.4-3.2-2.1c-0.6,0.9-0.9,1.9-0.7,2.9c0.2,0.9,0.9,1.7,1.5,2.3
			c0.5,0.4,1.3,0.4,2,0.3c-0.3-0.1-0.6-0.3-0.7-0.5c-0.2-0.4,0-0.9,0.3-1.3c0.3-0.2,0.6-0.3,0.9-0.3c0.6,0.1,1,0.7,0.9,1.3
			c-0.2,1-1.2,1.8-2.2,1.9c-1.2,0-2.4-0.6-3.2-1.5c-0.6-0.7-0.9-1.6-1-2.5c-0.6,0.7-1.1,1.5-1.8,2c1.7,1.7,3.4,3.4,5.1,5.1
			c-0.5,0-1,0.1-1.5,0.1c-1-1-2.1-2.1-3.1-3.1c-0.3-0.3-0.8-0.9-1.4-0.8c-0.5,0.2-0.9,0.6-1.2,0.9c1.5,1.8,2.9,3.7,4.4,5.5
			c-0.5,0-1,0-1.5-0.1c-0.9-0.9-1.5-2-2.4-3c-0.3-0.3-1-0.3-1.2,0.3c0,0.3,0.3,0.5,0.5,0.8c-0.2,0.3-0.3,0.5-0.4,0.8
			c-0.5-0.9-2.1-0.5-2.4,0.5c-0.2,0.6,0.3,1.2,0.9,1.1c-0.1-0.2-0.3-0.3-0.3-0.5c-0.2-0.8,0.6-1.5,1.4-1.3c0.3,0.1,0.6,0.3,0.8,0.6
			c0.2,0.4,0,0.9-0.3,1.3c-0.6,0.6-1.5,0.9-2.2,0.8c-1.2-0.3-1.9-1.8-1.4-2.8c0.4-0.8,1.3-1.2,2.1-1.1c0.1-0.4,0.1-0.9,0.5-1.2
			c0.3-0.3,0.8-0.3,1.2-0.2c-0.2-0.3-0.3-0.5-0.6-0.8c-1.5,1.2-3,2.4-4.5,3.6c-0.5,0.1-1.1,0-1.6,0c1.4-1.1,2.7-2.1,4.1-3.3
			c0.9-0.7,1.8-1.4,2.7-2.2c0.4-0.3,0.9-0.6,1.5-0.6c-0.5-0.4-1-0.9-1.5-1.3c0.3-0.1,0.5-0.1,0.8-0.1c0.3,0.2,0.5,0.3,0.8,0.3
			c0.7-0.4,1.1-1.1,1.6-1.7c0.6-0.6,1-1.3,1.6-1.9c0.4-0.3,0.6-0.7,0.9-1c0.8-1.2,1.5-2.4,2.3-3.5c0.3-0.4,0.6-1,1-1.4
			c0.3-0.4,0.4-1,0.8-1.4c0.3-0.4,0.8-0.5,1.3-0.7c-0.3-0.7-0.3-1.5-0.1-2.1c0.5-0.6,1.4-0.6,2.1-0.9c-0.9-0.3-1.8-0.7-2.7-0.9
			C191.4,88.2,191.9,87.8,192.5,88.1z"/>
		<g>
			<path class="st2" d="M173.4,111.8c0.8-0.3,1.7,0,2.1,0.7c0.3,0.6,0.3,1.4-0.2,2s-1.5,0.9-2.2,0.6c-0.5-0.2-0.9-0.5-1-1
				C171.9,113.1,172.5,112.1,173.4,111.8z M173.9,112.6c-0.3,0.3-0.7,0.9-0.3,1.5c0.1,0.2,0.3,0.3,0.4,0.2c0.3-0.3,0.5-0.6,0.6-1
				C174.6,112.9,174.2,112.4,173.9,112.6z"/>
		</g>
		<g>
			<path class="st2" d="M168.6,112.4c0.3,0,0.5,0.1,0.8,0.2c0.3,0.2,0.3,0.5,0.7,0.6c0.2,0,0.3-0.2,0.6-0.2c0.5,0.2,0.9,0.3,1.5,0.4
				c-0.4,0.3-0.9,0.4-1.4,0.7c1,2.1,2.1,4.3,3.2,6.5c-0.5-0.2-1-0.3-1.5-0.4c-0.7-1.5-1.4-2.8-2.1-4.3c-0.2-0.3-0.3-0.7-0.8-0.8
				c-0.5-0.2-1,0.2-1.5,0.3c0.9,2.2,1.7,4.5,2.5,6.8c-0.5-0.3-1-0.6-1.5-0.9c-1.1-0.9-2.7-1.1-4.1-0.7c-0.5-0.3-1-0.6-1.5-0.9
				c1-1.4,2.2-2.6,3.6-3.6c0,0,0-0.1-0.1-0.2c-1.5,0.5-3,1.1-4.5,1.6c-0.4-0.2-0.9-0.3-1.4-0.5c2.1-0.9,4.3-1.5,6.4-2.4
				c0.7-0.3,1.4-0.7,2.1-0.3C169.2,113.5,168.8,113,168.6,112.4z M165.6,119c0.9,0.1,2,0.3,2.8,0.8c-0.3-0.9-0.6-1.7-0.9-2.6
				C166.8,117.8,166.2,118.4,165.6,119z"/>
		</g>
		<g>
			<path class="st2" d="M131.3,114.8c2,0.6,3.9,1.2,5.9,1.8c1.3,0.4,2.7,0.6,3.9,0.9c0.8,0.2,1.7,0.3,2.2,0.9c0-0.7,0-1.3,0.1-2
				c0.3,0.2,0.4,0.3,0.6,0.5c0,0.3,0.1,0.6,0.3,0.9c0.2,0,0.3,0,0.5,0.1c0.3,0.3,0.7,0.8,1,1.1c-0.5-0.1-1-0.1-1.5-0.2
				c-0.3,2.4-0.5,4.8-0.9,7.2c-0.3-0.3-0.7-0.8-1-1.2c0.2-1.6,0.4-3.3,0.6-5c0.2-1.1-1.7-1.8-2.3-0.9c-0.3,0.9-0.3,1.8-0.3,2.7
				c0,0.7,0.1,1.5-0.3,2.1c-0.4,0.7-1.3,1-2.1,1.1c-0.3,0.1-0.9,0.1-1-0.3c-0.1-0.2,0-0.4,0.3-0.4c0.4-0.1,0.9-0.1,1.3-0.4
				c0.3-0.3,0.4-0.9,0.3-1.4c0-0.9-0.3-2,0.2-2.9c0.3-0.5,0.7-0.9,1-1.1c-0.3-0.1-0.8-0.3-1.1-0.1c-0.5-0.1-0.9-0.3-1.5-0.4
				c-0.7,2.2-1.4,4.4-2,6.6c0,0.1-0.1,0.2-0.2,0.3c-0.5-0.9-0.5-2-1-2.8c-0.5-0.9-1.4-1.5-2.3-1.9c-0.3-0.6-0.4-1.1-0.7-1.7
				c1.7-0.4,3.4-0.7,5.1-0.7c-0.2-0.3-0.5-0.3-0.8-0.4c-1.3-0.4-2.6-0.8-3.9-1.2C131.9,115.6,131.6,115.2,131.3,114.8z M133.7,119.3
				c0.8,0.6,1.3,1.5,1.8,2.2c0.3-0.9,0.5-1.7,0.8-2.6C135.4,118.9,134.6,119.1,133.7,119.3z"/>
		</g>
		<path class="st2" d="M173.4,115.4c2.1,0.1,4.1,0.6,6.2,1.2c0.2,0.3,0.3,0.6,0.5,0.9c-1.9-0.3-3.8-0.4-5.6-0.4
			C174.1,116.5,173.8,116,173.4,115.4z"/>
		<g>
			<path class="st2" d="M148.5,118.4c3.2-0.3,6.3-0.7,9.4-1c0.4,0.3,0.9,0.6,1.2,0.9c-1,0.1-2.1,0.3-3.2,0.3c-0.3,0-0.4,0-0.7,0.2
				c1.1,0.1,2.1,0.5,2.8,1.5c0.4,0.6,0.6,1.5,0.2,2.2c-0.5,0.7-1.5,0.8-2.1,0.2c-0.3-0.4-0.1-1,0.3-1.3c0.3-0.2,0.7-0.1,1-0.1
				c-0.4-0.7-1.2-1.1-2.1-1c0.2,1.9,0.4,3.7,0.6,5.6c-0.3-0.2-0.6-0.3-0.8-0.5c-0.7-1.5-2.3-2.3-3.9-2.3c-0.4-0.4-0.9-0.8-1.4-1.2
				c1.2-1,2.6-1.9,3.9-2.5c0.3,0,0.3-0.3,0-0.3c-1.5,0.1-2.9,0.3-4.4,0.4C149.3,119,148.9,118.7,148.5,118.4z M152.4,121.6
				c0.9,0.3,1.6,0.7,2.3,1.4c-0.1-0.9-0.2-1.7-0.3-2.6C153.7,120.7,153,121.1,152.4,121.6z"/>
		</g>
		<g>
			<path class="st2" d="M146.8,118.5c0.9-0.3,2.1,0.3,2.4,1.2c0.3,1.1-0.7,2.2-1.8,2.1c-0.9,0-1.8-0.7-1.9-1.6
				C145.5,119.5,146.1,118.8,146.8,118.5z M147.6,119.5c-0.3,0.2-0.8,0.4-0.9,0.9c-0.1,0.2,0,0.5,0.3,0.4s0.6-0.3,0.9-0.4
				c0.3-0.2,0.3-0.6,0.2-0.9C148,119.4,147.8,119.5,147.6,119.5z"/>
		</g>
		<path class="st2" d="M146.1,121.5c1,0.9,2.1,1.7,3,2.7c0.5,0.5,1,1,1.5,1.6c0.1,0.3,0,0.7,0,1c-0.7-0.5-1.3-1.1-2-1.6
			c-0.9-0.6-1.7-1.2-2.6-1.8C146,122.8,146,122.2,146.1,121.5z"/>
		<path class="st2" d="M152.9,132.5c0.5,0,1,0,1.5,0c0.9,1.1,1.9,2.2,2.8,3.3c0-1.1,0-2.2,0-3.3c0.4,0,0.9,0,1.4,0
			c0,1.6,0,3.2,0,4.8c-0.5,0-1,0-1.5,0c-1-1.1-2-2.3-2.9-3.4c0,1.1,0,2.3,0,3.4c-0.4,0-0.9,0-1.4,0
			C152.9,135.6,152.9,134.1,152.9,132.5z"/>
		<path class="st2" d="M160.7,132.6c0.5,0.1,1,0.1,1.5,0.2c-0.1,0.7-0.2,1.3-0.3,2c0.9-0.5,2-1,2.9-1.6c0.6,0.1,1.3,0.2,1.9,0.3
			c-1,0.6-2.1,1-3.1,1.6c0.9,1.1,1.8,2.1,2.7,3.2c-0.6-0.1-1.3-0.2-1.9-0.3c-0.7-0.8-1.3-1.6-2-2.4c-0.3,0.2-0.5,0.3-0.8,0.4
			c-0.1,0.5-0.2,1-0.2,1.6c-0.5-0.1-1-0.1-1.5-0.2C160.3,135.8,160.5,134.3,160.7,132.6z"/>
		<g>
			<path class="st2" d="M147.4,132.9c0.6-0.1,1.1-0.1,1.7-0.2c1,1.5,2,3,3,4.5c-0.5,0.1-1.1,0.1-1.6,0.2c-0.2-0.3-0.3-0.6-0.6-0.9
				c-0.9,0.1-1.7,0.2-2.7,0.3c-0.2,0.3-0.3,0.7-0.4,1c-0.5,0.1-1,0.1-1.6,0.2C146.1,136.3,146.7,134.6,147.4,132.9z M148.3,134
				c-0.3,0.6-0.4,1.3-0.7,1.9c0.6-0.1,1.2-0.1,1.8-0.2c-0.3-0.5-0.6-0.9-0.9-1.5C148.5,134.2,148.5,134,148.3,134z"/>
		</g>
		<g>
			<path class="st2" d="M138.3,134.4c1.4-0.3,2.7-0.6,4-0.8c0.7-0.1,1.6,0.1,1.8,0.9c0.2,0.5-0.3,0.9-0.7,1.2c0.4,0,1,0.2,1.2,0.6
				c0.3,0.4,0.1,1-0.3,1.4c-0.4,0.5-1.2,0.7-1.8,0.8c-1.1,0.3-2.2,0.4-3.3,0.7C138.9,137.6,138.5,136.1,138.3,134.4z M139.8,135
				c0.1,0.3,0.2,0.7,0.2,1c0.8-0.2,1.6-0.3,2.4-0.6c0.4-0.2,0.3-0.9-0.2-0.9C141.4,134.6,140.7,134.9,139.8,135z M140.2,136.8
				c0.1,0.4,0.2,0.9,0.3,1.3c0.7-0.2,1.5-0.3,2.1-0.4c0.3-0.1,0.8-0.4,0.7-0.9c-0.1-0.3-0.5-0.4-0.9-0.3
				C141.6,136.5,140.9,136.7,140.2,136.8z"/>
		</g>
	</g>
	<g>
		<path class="st3" d="M146.9,67.3c0.7-0.1,1.1,0.5,1.6,0.9c0.8,0.4,1.6,0.9,2.4,1.2c-0.9,0.3-2,0.5-2.9,0.1
			C147.3,69.2,146.7,68.3,146.9,67.3z"/>
		<g>
			<path class="st3" d="M151.3,72.7c0.1-0.3,0.3-0.6,0.6-0.7c0.6,1.2-0.1,2.7,0.6,3.8c0.6,1.1,1.3,2.1,2,3.3
				c0.3,0.1,0.6,0.2,0.9,0.3c0,0.4-0.1,0.9-0.2,1.3c-0.3,0-0.8,0-1,0.3c-0.3,0.3-0.3,0.8-0.3,1.2c0.2,1.4,0.9,2.7,0.9,4.1
				c0,0.8-0.2,1.6-0.8,2.2c-0.1-0.1-0.3-0.2-0.3-0.3c-0.3-0.9-0.2-1.7-0.2-2.6c0-0.7,0.2-1.5-0.1-2.1c-0.1-0.2-0.3-0.3-0.4-0.3
				c-0.3,1.5-0.1,3.1-0.1,4.6c-0.3,0.8-0.9,1.5-1.6,1.9c-0.5,0.3-0.8-0.3-1-0.8c-0.4,0.2-1,0.3-1.5,0.1c-0.4-0.3-0.5-0.9-0.9-1.2
				c-0.2-0.1-0.3-0.2-0.5-0.1c-0.3,0.2-0.3,0.8-0.7,1c-0.3,0.2-0.5,0.3-0.8,0.3c0-1.4-0.1-2.8,0-4.2c0-0.3,0-0.8-0.3-0.9
				c-0.3-0.2-0.3,0.2-0.3,0.3c-0.3,0.9-0.2,1.7-0.2,2.6c0,0.3-0.3,0.7-0.5,0.9c-0.5,0.3-1.1,0.3-1.6,0.2c-0.2-0.3-0.3-0.6-0.7-0.7
				c-0.3,0-0.3,0.3-0.3,0.5c-1.1,0-2.3-0.3-3.4,0.1c-0.9,0.3-1.5,1-1.5,1.9c0,0.5,0.5,0.9,1,0.9c1.5,0.3,3.2,0,4.6-0.4
				c0.3-0.1,0.6,0,0.5,0.3c-0.2,0.5-0.7,0.8-1.2,1c-0.9,0.3-1.9,0.5-2.9,0.5c-0.8,0.1-1.5-0.2-2.1-0.5s-0.9-0.9-0.9-1.5
				c0-1,0.6-2,1.3-2.7c-0.1-0.7-0.8-1.1-1.3-1.5c0.3-0.5,0.9-1,1.5-1c0.9-0.1,1.9,0.3,2.6,0.9c0.3,0.5,0.8,1,1.4,1.1
				c0.1-0.4,0.4-0.9,0.9-0.7c0.3,0,0.5,0.3,0.7,0.7c0.3,0.2,0.7,0,0.9-0.1c0.1-0.2,0.1-0.4,0.1-0.6c0.1-1.1,0.2-2.3,0.1-3.4
				c0-0.4-0.4-0.5-0.6-0.9c-0.4-0.6-0.4-1.4-0.4-2.1c0-0.4,0.1-0.9,0.4-1.2c0.3-0.2,0.6-0.2,0.9-0.1c0,0.9,0,1.7,0,2.7
				c0,0.3,0.3,0.5,0.5,0.8s0.2,0.6,0.3,0.8c0.1,0.2,0.3,0.1,0.4,0.1c0.1-0.2,0-0.4,0.1-0.6c0-1.4,0-2.8,0-4.2
				c-0.3-0.2-0.4-0.4-0.5-0.8c-0.2-0.9-0.1-1.7-0.1-2.6s0.3-1.7,1.2-2.1c0,1.3-0.1,2.7,0.1,3.9c0,0.5,0.6,0.8,0.7,1.3
				c0.1,0.3-0.3,0.6-0.5,0.8c0,2.4,0,4.7,0,7.1c-0.1,0.4,0.4,0.8,0.8,0.5c0.7-0.3,0.3-1.4,1-1.8c0.2-0.1,0.3-0.1,0.5,0
				c0,1-0.1,2.1,0.3,3c0.1,0.3,0.4,0.4,0.7,0.3c-0.1-3.9-0.1-7.6-0.2-11.5c0-0.6,0-1.2,0.1-1.8c0-0.2,0.2-0.4,0.3-0.3
				c0.3,0.3,0.9,0.3,1.1,0.8C151.3,73.9,151.1,73.3,151.3,72.7z M151,75.7c0.1,3.7,0.2,7.3,0.1,11c0,0.3,0,0.6,0.3,0.8
				c0.3,0,0.4-0.3,0.5-0.6c0.3-1,0.3-2.1,0.3-3.3c0.1-0.9-0.3-1.8-0.1-2.7c0.1-0.4,0.6-0.3,0.9-0.5c0.5-0.4,0.3-1.2-0.1-1.7
				c-0.2-0.3-0.8,0-0.9-0.4c-0.3-0.5-0.1-1.1-0.3-1.7C151.7,76.1,151.4,75.8,151,75.7z M138.9,86.6c0.1-0.3,0.2-1-0.3-1
				C138.1,85.8,138.3,86.8,138.9,86.6z"/>
		</g>
		<path class="st3" d="M155.7,78.5c0.3,0.4,0.3,0.9,0.4,1.4c0.4,2.6,0.6,5.1,0.8,7.7c0.8,0.1,1.6,0.2,2.4,0c0.3-0.1,0.2-0.3,0.1-0.5
			c-0.3-0.6-0.9-1-1.5-1.4c1,0,2,0.2,2.8,0.7c0.5,0.3,0.9,0.8,1,1.3c-1.4,0.9-3.1,0.9-4.6,0.7c0.1,1.1-0.1,2.4-1,3.1
			s-2.1,0.7-3.2,0.6c-0.7-0.1-1.5-0.1-2-0.6c-0.3-0.3-0.3-0.9-0.3-1.3c0.9,0.6,1.9,0.9,2.9,0.9c0.7-0.1,1.5-0.1,2-0.6
			s0.5-1.4,0.4-2.1c-0.3-2.3-0.6-4.6-0.7-7c0-0.5-0.1-1.1,0.3-1.5c0.2-0.3,0-0.5-0.1-0.7C155.5,79,155.6,78.7,155.7,78.5z"/>
		<path class="st3" d="M161,81.8c0.5-0.6,1-1.1,1.5-1.7c0.9,2.1,1.1,4.6,0.2,6.8c-0.2-0.5-0.1-1.1-0.2-1.7
			C162.4,84,162.1,82.6,161,81.8z"/>
		<g>
			<path class="st3" d="M163.7,87.4c-0.2-0.9,1-1.8,1.8-1.3c0.7,0.4,0.9,1.3,0.9,2.1c-0.1,1.2-0.9,2.3-1.9,3c-1.5,1-3.3,1.3-5.1,1.2
				c-0.3,0-0.6,0-0.8-0.3c-0.2-0.2-0.1-0.4,0.1-0.5c0.6-0.3,1.4-0.3,2.1-0.3c1-0.2,2.1-0.4,2.9-0.9c0.4-0.3,0.9-0.6,1.1-1
				C164.4,88.7,163.9,88.1,163.7,87.4z M164.2,87.1c0.2,0.4,0.7,0.4,1,0.5c-0.1-0.3,0-0.9-0.3-1.1C164.6,86.5,164.3,86.9,164.2,87.1
				z"/>
		</g>
		<path class="st3" d="M139.9,88.5c0.3-0.3,0.7-0.1,0.8,0.3c0.2,0.3-0.3,0.8-0.6,0.7C139.7,89.3,139.6,88.7,139.9,88.5z"/>
		<path class="st3" d="M137.9,88.8c0.3-0.3,0.7-0.1,0.8,0.3c0.2,0.4-0.3,0.9-0.7,0.6C137.8,89.5,137.7,89.1,137.9,88.8z"/>
		<path class="st3" d="M146.7,91.1c0.5-0.5,1-1,1.6-1.5c0.5,0.5,0.6,1.4,0.6,2.1c0,1.4,0,2.7,0,4.1c-0.3,0-0.5,0-0.6-0.3
			c-0.3-0.5-0.3-1-0.3-1.5c-0.6,0-1.3,0-1.7-0.4s-0.3-1.1-0.2-1.6C146.3,91.7,146.6,91.4,146.7,91.1z"/>
		<path class="st3" d="M136.3,93c0-0.3,0.3-0.1,0.4,0c0.4,0.3,0.6,0.9,0.8,1.4c0.2,0.8,0.3,1.6,0.3,2.4c-0.6,0.1-1-0.4-1.2-0.9
			C136.3,95,136.2,94,136.3,93z"/>
		<path class="st3" d="M163.3,92.9c0.4-0.3,0.9-0.2,1.3,0.2c0.5,0.6,0.7,1.4,0.7,2.1c-0.2,1.5-1,2.8-2.2,3.7
			c-1.2,0.9-2.8,1.2-4.4,0.9c-0.1-0.4,0.2-0.9,0.5-1.1c0.7-0.4,1.5-0.3,2.2-0.5c0.9-0.3,1.7-0.7,2.3-1.4c0.3-0.3,0.3-0.7,0.2-1
			c-0.5,0-1.1,0-1.5-0.3c-0.3-0.3-0.3-0.8-0.2-1.1C162.4,93.8,162.7,93.3,163.3,92.9z"/>
		<path class="st3" d="M151.6,93.4c0.2-0.2,0.4-0.1,0.7,0c0.7,0.3,1.3,0.5,1.8,0.9c0.3,0.2,0.5,0.4,0.6,0.8
			c-0.1,0.3-0.5,0.4-0.9,0.5c-1,0.1-2.1,0.1-2.9,0.8c-0.5,0.4-0.7,1.2-0.6,1.9c0,2.2-0.1,4.5-0.1,6.8c-0.3,0-0.5,0-0.6-0.3
			c-0.3-0.7-0.4-1.5-0.4-2.2c-0.1-1.5-0.1-2.9,0.1-4.4c0.1-0.6,0.1-1.2,0.3-1.7c0.2-0.3,0.6-0.5,0.9-0.8c0.4-0.3,0.8-0.8,1-1.2
			C151.7,94.2,151.4,93.8,151.6,93.4z"/>
		<path class="st3" d="M143,93.4c0.5,0.3,1,0.6,1.1,1.1c0.1,0.4-0.3,0.8-0.6,0.9c-0.7,0.4-1.5,0.8-1.8,1.5c-0.9,1.6-2.7,2.7-4.4,2.8
			c-0.2-0.2-0.4-0.3-0.5-0.6c0-0.3,0.3-0.5,0.6-0.6c0.9-0.4,2-0.7,2.7-1.3c0.3-0.2,0.5-0.5,0.3-0.8c-0.4-0.4-1.1-0.7-1.3-1.3
			c-0.2-0.6,0.3-1.2,0.7-1.6c0.9,0.2,1.5,0.8,1.9,1.5C142.4,94.9,143.1,94.3,143,93.4z"/>
		<path class="st3" d="M156.1,94.4c0.6-0.3,1.3-0.2,2-0.1c0.9,0.2,2,0.3,2.9,0.8c0.3,0.2,0.6,0.4,0.4,0.7c-0.3,0.3-0.5,0.4-0.9,0.6
			c-1.2,0.6-2.4,1.3-3.6,1.9c-0.3,0.2-0.8,0.3-1.2,0.3c-0.5-0.3-0.4-0.9-0.1-1.3c0.6-0.6,1.4-1,2-1.6
			C157.1,95.4,156.3,95.1,156.1,94.4z"/>
		<path class="st3" d="M146.7,96.3c0.3,0,0.8-0.2,1.1,0.2c0.3,0.3-0.1,0.7-0.2,0.9c-1.1,1.8-2.5,3.6-4.3,4.8
			c-1.1,0.8-2.6,1.2-3.9,0.9c0-0.3-0.1-0.8,0.3-0.9c0.4-0.3,1-0.3,1.5-0.5c1-0.3,2.1-0.9,3-1.5c0.3-0.3,0.8-0.7,0.9-1.1
			c0-0.3-0.3-0.3-0.5-0.5c0-0.3,0-0.8,0-1.1C145.4,97.3,146.3,97,146.7,96.3z"/>
		<path class="st3" d="M152,99.8c0.5,0.4,0.9,1.1,1.7,1.2c0.5,0.1,0.9-0.3,1.1-0.7c0.1,0.7,0.1,1.5-0.4,2.1c-0.3,0.4-1,0.3-1.5,0.1
			c-0.5-0.3-1-0.5-1.3-0.9C151.4,100.8,151.8,100.3,152,99.8z"/>
	</g>
	<g>
		<path class="st0" d="M210.4,83.4c1.8,0.5,3.7,1.1,5.5,1.6c-0.1,0.4-0.3,0.9-0.3,1.3c-0.9-0.3-1.6-0.5-2.5-0.7
			c-0.3,0.8-0.5,1.5-0.7,2.4c0.9,0.3,1.6,0.5,2.5,0.8c-0.2,0.4-0.3,0.9-0.3,1.3c-1.8-0.5-3.7-1.1-5.5-1.6c0.1-0.4,0.3-0.9,0.3-1.3
			c0.7,0.2,1.4,0.4,2.1,0.6c0.3-0.8,0.5-1.5,0.7-2.4c-0.7-0.2-1.4-0.4-2.1-0.6C210.2,84.2,210.2,83.8,210.4,83.4z"/>
		<path class="st0" d="M209,89.6c0.3-0.2,0.8-0.1,1.2,0c-0.2,0.4-0.3,0.8-0.4,1.2c-0.9-0.2-1.4,0.9-1.5,1.6
			c-0.1,0.4,0.5,0.9,0.9,0.5c0.7-0.8,1.1-1.8,1.9-2.5c0.8-0.6,2.1-0.1,2.3,0.9c0.3,0.8,0,1.7-0.3,2.4c-0.3,0.6-0.8,1.3-1.5,1.5
			c-0.3,0.2-0.8,0.1-1.1,0c0.2-0.4,0.3-0.8,0.4-1.2c0.3,0.1,0.8,0,0.9-0.3c0.3-0.4,0.6-1,0.6-1.6c0-0.4-0.5-0.8-0.9-0.4
			c-0.4,0.3-0.7,0.9-0.9,1.3c-0.3,0.5-0.7,1.1-1.3,1.4c-0.8,0.3-1.7-0.3-2-1.1c-0.2-0.7,0-1.4,0.3-2C207.9,90.5,208.4,89.9,209,89.6
			z"/>
		<path class="st0" d="M206.6,94c0.3,0.2,0.6,0.3,0.9,0.4c-0.5,1-0.9,2.1-1.5,3c0.3,0.2,0.7,0.3,1.1,0.5c0.4-0.9,0.9-1.9,1.4-2.8
			c0.3,0.2,0.6,0.3,0.9,0.4c-0.4,0.9-0.9,1.9-1.4,2.8c0.4,0.2,0.9,0.4,1.4,0.6c0.5-1,1-2.1,1.5-3.2c0.3,0.2,0.6,0.3,0.9,0.4
			c-0.7,1.5-1.4,2.9-2.1,4.4c-1.7-0.9-3.4-1.6-5.1-2.5C205.4,96.9,206,95.5,206.6,94z"/>
		<path class="st0" d="M90.8,102.3c1.6-0.9,3.3-1.9,5-2.7c0.2,0.3,0.4,0.8,0.6,1.1c-1.6,0.9-3.3,1.9-5,2.7
			C91.2,103,91,102.7,90.8,102.3z"/>
		<g>
			<path class="st0" d="M203.2,101c0.3-0.6,0.9-1.1,1.5-1.2c0.9-0.2,1.8,0.3,2.6,0.8c0.7,0.5,1.2,1.3,1.1,2.1c0,0.7-0.3,1.3-0.7,1.8
				c-0.3,0.6-0.7,1.2-1,1.8c-1.6-0.9-3.3-1.9-5-2.8C202.2,102.6,202.7,101.8,203.2,101z M204.2,101.2c-0.4,0.4-0.7,1-1,1.6
				c1.1,0.6,2.1,1.3,3.3,1.9c0.3-0.5,0.7-1,0.9-1.6c0.1-0.8-0.6-1.4-1.2-1.7C205.5,101.1,204.8,100.8,204.2,101.2z"/>
		</g>
		<path class="st0" d="M94.7,103.3c0-0.9,0.9-1.5,1.6-1.5s1.3,0.5,1.6,1c0.5,0.7,0.9,1.5,0.7,2.2c-0.1,0.5-0.3,0.9-0.8,1.2
			c-0.3-0.3-0.4-0.7-0.7-1.1c0.7-0.6,0.2-1.6-0.4-2.1c-0.3-0.3-0.9-0.1-0.9,0.3c0.2,1,0.9,2,0.9,3.1s-1.4,1.7-2.3,1.2
			s-1.6-1.5-1.9-2.7c-0.2-0.8,0.2-1.5,0.8-1.9c0.3,0.3,0.4,0.7,0.7,1c-0.3,0.3-0.4,0.6-0.3,1c0.2,0.5,0.5,1,0.9,1.4
			c0.3,0.3,0.9,0,0.9-0.5C95.4,105.3,94.7,104.3,94.7,103.3z"/>
		<g>
			<path class="st0" d="M199.4,106.9c0.3-0.4,0.6-0.9,0.9-1.2c2,0.5,3.9,0.9,6,1.5c-0.3,0.4-0.5,0.8-0.9,1.2
				c-0.4-0.1-0.8-0.3-1.2-0.3c-0.4,0.6-0.9,1.3-1.4,1.9c0.3,0.3,0.5,0.7,0.7,1c-0.3,0.3-0.5,0.8-0.8,1.1
				C201.6,110.3,200.5,108.6,199.4,106.9z M200.8,107.1c0.4,0.7,0.9,1.3,1.4,2c0.3-0.4,0.6-0.9,0.9-1.4
				C202.4,107.5,201.6,107.2,200.8,107.1z"/>
		</g>
		<path class="st0" d="M95.2,109.5c1.5-1.1,3.1-2.2,4.6-3.3c0.3,0.3,0.5,0.7,0.8,1c-1.3,0.9-2.5,1.9-3.8,2.7
			c0.6,0.9,1.3,1.7,1.9,2.6c-0.3,0.2-0.6,0.4-0.9,0.6C96.9,111.8,96.1,110.6,95.2,109.5z"/>
		<path class="st0" d="M195.3,112.2c0.3-0.3,0.6-0.7,0.9-1c1.2,1,2.4,2,3.6,3c0.7-0.8,1.4-1.6,2.1-2.4c0.3,0.3,0.5,0.4,0.8,0.7
			c-0.9,1.2-1.9,2.3-2.8,3.4C198.2,114.7,196.7,113.4,195.3,112.2z"/>
		<g>
			<path class="st0" d="M98.1,113.4c1.9-0.7,3.9-1.4,5.7-2.1c0.3,0.3,0.7,0.8,1,1.1c-0.9,1.8-1.9,3.6-2.8,5.5
				c-0.3-0.3-0.6-0.8-0.9-1.1c0.3-0.3,0.4-0.7,0.6-1c-0.5-0.6-1-1.2-1.5-1.8c-0.4,0.1-0.8,0.3-1.2,0.4
				C98.7,114.1,98.4,113.7,98.1,113.4z M101.1,113.6c0.3,0.4,0.7,0.9,1,1.2c0.3-0.7,0.8-1.4,1.2-2.1
				C102.7,113,101.9,113.3,101.1,113.6z"/>
		</g>
		<path class="st0" d="M192.3,115.3c0.5-0.7,1.2-1.3,2.1-1.5c0.6-0.2,1.2,0,1.6,0.3c-0.3,0.3-0.6,0.6-0.9,0.9
			c-0.9-0.4-1.9,0.3-2.1,1.1c-0.3,0.7,0.1,1.4,0.6,1.8c0.4,0.5,1.1,0.9,1.8,0.8c0.8-0.2,1.5-0.9,1.5-1.7c0-0.3-0.2-0.6-0.3-0.9
			c-0.3,0.3-0.7,0.7-1,1c-0.3-0.3-0.4-0.4-0.7-0.7c0.6-0.6,1.2-1.3,1.9-1.9c0.8,0.7,1.5,1.5,2.2,2.1c-0.2,0.2-0.4,0.4-0.6,0.6
			c-0.2-0.1-0.4-0.3-0.6-0.3c0.2,1.9-2,3.4-3.7,2.8c-1-0.3-1.8-1.2-2.1-2.2C191.5,116.8,191.8,116,192.3,115.3z"/>
		<path class="st0" d="M102.8,118.8c1.3-1.4,2.7-2.7,3.9-4.2c0.5,0.4,0.9,0.9,1.4,1.3c-0.7,1.4-1.5,2.7-2.2,4.1
			c1.3-0.8,2.6-1.7,3.9-2.5c0.4,0.4,0.9,0.9,1.4,1.3c-1.3,1.4-2.7,2.7-3.9,4.2c-0.3-0.3-0.6-0.6-0.9-0.9c1.1-1.2,2.2-2.3,3.3-3.5
			c-1.4,0.9-2.7,1.7-4.1,2.7c-0.3-0.3-0.7-0.6-0.9-0.9c0.8-1.5,1.6-2.8,2.4-4.3c-1.1,1.1-2.2,2.3-3.3,3.4
			C103.4,119.4,103.1,119,102.8,118.8z"/>
		<path class="st0" d="M189.3,118.2c0.3-0.3,0.6-0.5,0.9-0.8c1.2,1.5,2.5,2.9,3.7,4.4c-0.3,0.3-0.7,0.6-1,0.9
			c-1.5-0.5-3.1-0.9-4.6-1.5c0.9,1,1.8,2.1,2.7,3.1c-0.3,0.3-0.6,0.5-0.9,0.8c-1.3-1.5-2.5-2.9-3.7-4.4c0.3-0.3,0.7-0.6,1.1-0.9
			c1.5,0.5,3,0.9,4.4,1.4C191,120.2,190.1,119.2,189.3,118.2z"/>
		<path class="st0" d="M108.2,123.7c1.2-1.5,2.4-2.9,3.6-4.4c0.3,0.3,0.7,0.5,1,0.9c-1.2,1.5-2.4,2.9-3.6,4.4
			C108.9,124.3,108.6,124,108.2,123.7z"/>
		<g>
			<path class="st0" d="M183,123.1c0.4-0.3,0.9-0.6,1.3-0.9c1.7,1.1,3.4,2.2,5,3.4c-0.3,0.3-0.8,0.5-1.1,0.9c-0.3-0.3-0.7-0.5-1-0.8
				c-0.6,0.4-1.3,0.9-1.9,1.4c0.1,0.4,0.2,0.9,0.3,1.2c-0.3,0.3-0.8,0.5-1.1,0.8C184,127.1,183.5,125.1,183,123.1z M184.4,123.7
				c0.2,0.8,0.4,1.5,0.6,2.3c0.4-0.3,0.9-0.6,1.3-0.9C185.7,124.6,185,124.2,184.4,123.7z"/>
		</g>
		<g>
			<path class="st0" d="M179.5,125.3c0.5-0.3,1.3-0.5,1.8-0.2c0.6,0.3,0.9,1.3,0.4,1.9c0.9-0.3,1.8,0.7,1.7,1.6c0,0.7-0.5,1.2-1,1.5
				c-0.9,0.6-1.9,1.1-2.8,1.6c-0.9-1.6-1.9-3.3-2.8-5C177.6,126.4,178.6,125.8,179.5,125.3z M178.4,127.2c0.1,0.3,0.4,0.7,0.6,1.1
				c0.6-0.3,1.3-0.6,1.8-1.1c0.4-0.3,0-1.1-0.5-0.9C179.5,126.4,179,126.8,178.4,127.2z M180.8,128.3c-0.4,0.3-0.9,0.5-1.4,0.8
				c0.3,0.4,0.5,0.9,0.8,1.3c0.6-0.3,1.2-0.6,1.8-1.1c0.4-0.3,0.3-1-0.2-1.2C181.5,127.9,181.1,128.1,180.8,128.3z"/>
		</g>
		<g>
			<path class="st0" d="M147.9,129.9c1.8-0.1,3.7,0,5.5-0.2c1.9-0.2,3.9,0,5.7,0.1c6.3,0.3,12.6,1.5,18.6,3.4c3.1,1,6.1,2.2,8.9,3.9
				c-1.8,2.1-3.7,4.1-5.5,6.2c-5.3-1.7-10.8-3.1-16.3-3.9c-6.8-0.9-13.7-1-20.5,0c-5.9,0.9-11.7,2.4-17,5.1c-2.1-2.4-4-4.8-6.1-7.2
				c2.9-1.7,6-3,9.2-4C136,131.4,141.9,130.3,147.9,129.9z M152.9,132.5c0,1.6,0,3.2,0,4.8c0.4,0,0.9,0,1.4,0c0-1.1,0-2.3,0-3.4
				c1,1.1,2,2.3,2.9,3.4c0.5,0,1,0,1.5,0c0-1.6,0-3.2,0-4.8c-0.4,0-0.9,0-1.4,0c0,1.1,0,2.2,0,3.3c-0.9-1.1-1.9-2.2-2.8-3.3
				C153.9,132.5,153.4,132.5,152.9,132.5z M160.7,132.6c-0.2,1.6-0.4,3.2-0.6,4.8c0.5,0.1,1,0.1,1.5,0.2c0.1-0.5,0.2-1,0.2-1.6
				c0.3-0.2,0.5-0.3,0.8-0.4c0.7,0.8,1.3,1.5,2,2.4c0.6,0.1,1.3,0.2,1.9,0.3c-0.9-1-1.8-2.1-2.7-3.2c1-0.5,2.1-1,3.1-1.6
				c-0.6-0.1-1.3-0.2-1.9-0.3c-0.9,0.5-2,1-2.9,1.6c0.1-0.7,0.2-1.3,0.3-2C161.7,132.8,161.2,132.7,160.7,132.6z M147.4,132.9
				c-0.7,1.7-1.4,3.3-2.1,5c0.5,0,1-0.1,1.6-0.2c0.1-0.3,0.3-0.7,0.4-1c0.9-0.1,1.7-0.2,2.7-0.3c0.2,0.3,0.3,0.6,0.6,0.9
				c0.5-0.1,1.1-0.1,1.6-0.2c-1-1.5-2-3-3-4.5C148.5,132.8,147.9,132.9,147.4,132.9z M138.3,134.4c0.3,1.5,0.6,3.2,0.9,4.7
				c1.1-0.2,2.2-0.4,3.3-0.7c0.6-0.2,1.4-0.3,1.8-0.8c0.3-0.3,0.6-0.9,0.3-1.4s-0.8-0.6-1.2-0.6c0.4-0.3,0.8-0.7,0.7-1.2
				c-0.2-0.8-1.1-0.9-1.8-0.9C140.9,133.9,139.6,134.3,138.3,134.4z"/>
		</g>
		<path class="st0" d="M148.3,134c0.2,0,0.2,0.2,0.3,0.3c0.3,0.5,0.6,0.9,0.9,1.5c-0.6,0.1-1.2,0.1-1.8,0.2
			C147.9,135.3,148.1,134.6,148.3,134z"/>
		<path class="st0" d="M139.8,135c0.8-0.2,1.6-0.4,2.4-0.4c0.5,0,0.6,0.7,0.2,0.9c-0.8,0.3-1.6,0.4-2.4,0.6
			C140,135.6,139.9,135.4,139.8,135z"/>
		<path class="st0" d="M140.2,136.8c0.7-0.2,1.5-0.3,2.1-0.4c0.3,0,0.8,0,0.9,0.3c0.1,0.4-0.3,0.8-0.7,0.9c-0.7,0.2-1.5,0.3-2.1,0.4
			C140.3,137.7,140.2,137.3,140.2,136.8z"/>
	</g>
</g>
</svg>
