<?xml version="1.0" encoding="utf-8"?>
<!-- Generator: Adobe Illustrator 24.0.0, SVG Export Plug-In . SVG Version: 6.00 Build 0)  -->
<svg version="1.1" id="Layer_1" xmlns="http://www.w3.org/2000/svg" xmlns:xlink="http://www.w3.org/1999/xlink" x="0px" y="0px"
	 viewBox="0 0 300 160" style="enable-background:new 0 0 300 160;" xml:space="preserve">
<style type="text/css">
	.st0{fill:#FFFFFF;}
	.st1{fill:#EB2532;}
	.st2{fill:#FCB12F;}
	.st3{fill:#1F3B70;}
</style>
<path class="st0" d="M288.9,160H11.1C5,160,0,155,0,148.9V11.1C0,5,5,0,11.1,0h277.8C295,0,300,5,300,11.1v137.8
	C300,155,295,160,288.9,160z"/>
<g>
	<path class="st1" d="M174.7,80c0,41.3-33.3,74.8-74.6,74.8S25.4,121.3,25.4,80S58.8,5.2,99.9,5.2S174.7,38.7,174.7,80z"/>
	<path class="st2" d="M200.1,5.2c-18.8,0.1-36.8,7-50.1,19.3c-2.7,2.5-5.2,5.2-7.5,8h15.1c2.1,2.5,4,5.2,5.7,7.9h-26.4
		c-1.6,2.5-3,5.2-4.3,7.9h35c1.2,2.6,2.2,5.2,3.2,7.9h-41.4c-0.9,2.6-1.6,5.2-2.2,7.9h45.6c1.1,5.2,1.7,10.6,1.7,15.9
		c0,8.1-1.3,16.1-3.8,23.8h-41.3c0.9,2.7,1.9,5.3,3.2,7.9h35c-1.3,2.7-2.7,5.3-4.3,7.9h-26.4c1.7,2.7,3.6,5.4,5.7,7.9h15.1
		c-2.3,2.8-4.9,5.5-7.7,7.9c13.3,12.3,31.3,19.3,50.1,19.3c41.3,0,74.6-33.5,74.6-74.7S241.3,5.2,200.1,5.2z"/>
	<path class="st2" d="M264.8,121.6c0-1.2,1.1-2.3,2.4-2.3s2.4,1,2.4,2.2c0,0.1,0,0.2,0,0.3c-0.1,1.2-1.3,2.1-2.6,2.1
		c-1.3-0.1-2.4-1.1-2.4-2.4L264.8,121.6z M267.2,123.5c1.1-0.1,1.9-1,1.7-2c-0.1-0.8-0.8-1.5-1.7-1.6c-1.1,0.1-1.9,1-1.7,2
		C265.5,122.7,266.3,123.4,267.2,123.5z M266.9,122.8h-0.5v-2.1h0.9c0.2,0,0.4,0,0.5,0c0.2,0.1,0.3,0.3,0.3,0.5
		c0,0.2-0.1,0.5-0.4,0.5l0.4,1h-0.5l-0.4-0.9h-0.3V122.8z M266.9,121.7h0.6c0-0.1,0-0.2,0-0.3c0-0.1,0-0.2,0-0.2h-0.6V121.7z"/>
	<path class="st3" d="M82.5,88.2c-0.6-0.1-1.2-0.1-1.8,0c-4.6,0-6.9,1.6-6.9,4.8c0,1.9,1.1,3.2,2.9,3.2
		C80.1,95.9,82.5,92.7,82.5,88.2z M88.4,101.9h-6.6v-3.2c-2,2.5-5.2,3.9-8.5,3.7c-4.4,0-7.4-3.4-7.4-8.4c0-7.5,5.1-11.9,14.2-11.9
		c1.1,0,2.2,0.1,3.3,0.2c0.2-0.7,0.3-1.3,0.3-2c0-2-1.4-2.8-5.1-2.8c-2.9,0-5.8,0.5-8.6,1.4c0-0.5,1.1-6.9,1.1-6.9
		c3.1-1,6.4-1.6,9.7-1.6c7,0,10.7,3.2,10.6,9c-0.1,2.1-0.3,4.1-0.6,6.1c-0.6,4.5-2.1,14.1-2.3,16.4L88.4,101.9z"/>
	<polygon class="st3" points="62.6,101.9 54.5,101.9 59.2,72.7 48.8,101.9 43.3,101.9 42.6,72.9 37.8,101.9 30.2,101.9 36.5,64 
		48.1,64 48.8,85.2 55.9,64 68.9,64 	"/>
	<path class="st3" d="M210.1,88.2c-0.6-0.1-1.2-0.1-1.8,0c-4.6,0-6.9,1.6-6.9,4.8c0,1.9,1.1,3.2,2.9,3.2
		C207.5,95.9,210,92.7,210.1,88.2z M216,101.9h-6.7v-3.2c-2,2.5-5.1,3.9-8.5,3.7c-4.4,0-7.5-3.4-7.5-8.4c0-7.5,5.1-11.9,14.2-11.9
		c1.2,0,2.3,0.1,3.5,0.2c0.2-0.7,0.3-1.3,0.3-2c0-2-1.4-2.8-5.1-2.8c-2.9,0-5.8,0.5-8.6,1.4c0-0.5,1.1-6.9,1.1-6.9
		c3.1-1.1,6.4-1.6,9.7-1.6c6.9,0,10.6,3.2,10.6,9c-0.1,2.1-0.3,4.1-0.7,6.1C217.7,90,216.2,99.5,216,101.9z"/>
	<path class="st3" d="M124.4,101.4c-1.9,0.6-3.8,1-5.8,1c-4.1,0-6.4-2.4-6.4-6.8c0.2-2.8,0.6-5.6,1.1-8.3c0.5-2.9,3.5-21.1,3.5-21.1
		h8l-0.9,4.9h4.9l-1.2,7.1h-4.9c-1,5.9-2.3,13.2-2.3,14.3c0,1.6,0.9,2.4,2.8,2.4c0.7,0,1.5-0.1,2.2-0.3L124.4,101.4z"/>
	<path class="st3" d="M149.1,101.2c-2.7,0.9-5.4,1.3-8.2,1.3c-9,0-13.9-4.8-13.9-13.8c0-10.6,6-18.3,14.1-18.3
		c6.6,0,10.9,4.3,10.9,11.2c-0.1,2.6-0.4,5.1-1,7.6h-15.8c-0.5,4.5,2.3,6.4,6.9,6.4c2.9,0,5.8-0.7,8.4-1.9L149.1,101.2z M144.5,82.9
		c0-0.6,0.9-5.5-3.7-5.5c-2.6,0-4.4,1.9-5.1,5.5H144.5z"/>
	<path class="st3" d="M93.3,80.9c-0.1,3.8,2.3,7.3,6.1,8.7c3.5,1.5,3.8,2,3.8,3.4c0,2-1.4,2.8-4.7,2.8c-2.5,0-4.9-0.4-7.2-1.2
		l-1.1,7.1c2.8,0.6,5.6,0.9,8.4,0.9c8.6,0,12.5-3.2,12.5-10.3c0.4-3.7-1.9-7.3-5.7-8.7c-3.5-1.5-3.8-1.9-3.8-3.2
		c0-1.3,1.2-2.5,3.8-2.5c2,0,3.9,0.2,5.8,0.5l1.2-7.1c-2.3-0.4-4.7-0.6-7-0.6C96.4,70.4,93.3,75.1,93.3,80.9z"/>
	<path class="st3" d="M188.5,71.2c2.6,0.1,5.1,0.8,7.3,2l1.3-8.2c-2.7-1.6-5.7-2.7-8.9-3.2c-5.4,0.1-10.4,2.8-13.2,7.1
		c-4.7-1.5-6.6,1.6-9,4.8l-2.1,0.5c0.2-1.1,0.3-2.1,0.3-3.2h-7.4c-1,9.7-2.8,19.3-4.2,28.8l-0.4,2.1h8.1c1.4-8.8,2.1-14.4,2.6-18.3
		l3-1.7c0.5-1.7,1.9-2.4,4.8-2.2c-0.4,2.1-0.6,4.3-0.6,6.4c0,10.1,5.5,16.4,14.2,16.4c2.4,0,4.8-0.4,7.2-1.1l1.3-8.7
		c-2.1,1.2-4.5,1.8-6.9,1.9c-4.7,0-7.7-3.5-7.7-9.3C178.2,77,182.4,71.2,188.5,71.2z"/>
	<path class="st3" d="M257.1,63.9l-1.8,11c-1.5-2.7-4.4-4.6-7.7-5c-4.1,0-7.7,3.2-10.4,7.7c-2.4-0.5-4.7-1.1-6.9-1.9l0,0
		c0.3-2.5,0.4-4.1,0.4-4.6h-7.2c-1,9.7-2.8,19.4-4.2,28.8l-0.4,2.1h8.1c1.1-7.1,2-13,2.6-17.7c2.8-2.5,4.1-4.8,6.9-4.5
		c-1.3,3.2-2,6.6-2,10c0,7.7,3.9,12.9,9.8,12.9c2.8,0,5.6-1.2,7.4-3.2l-0.4,2.9h7.7l6.2-38L257.1,63.9z M246.8,94.9
		c-2.7,0-4.1-2-4.1-6.1c0-6.1,2.6-10.3,6.3-10.3c2.8,0,4.3,2.1,4.3,6c0.1,6.1-2.6,10.3-6.3,10.3L246.8,94.9z"/>
	<polygon class="st0" points="64.9,99.7 56.8,99.7 61.5,70.5 51.2,99.7 45.6,99.7 44.9,70.7 40.1,99.7 32.5,99.7 38.8,61.7 
		50.5,61.7 50.8,85.2 58.7,61.7 71.2,61.7 	"/>
	<path class="st0" d="M85,85.9c-0.6,0-1.2,0-1.8,0c-4.6,0-6.9,1.6-6.9,4.8c0,2,1.2,3.2,2.9,3.2C82.5,93.8,84.7,90.6,85,85.9z
		 M90.9,99.6h-6.8v-3.2c-1.9,2.5-5.1,3.9-8.4,3.8c-4.4,0-7.4-3.5-7.4-8.5c0-7.5,5.1-11.9,14.2-11.9c1.1,0,2.2,0.1,3.3,0.3
		c0.2-0.6,0.3-1.3,0.3-2c0-2.1-1.4-2.8-5.1-2.8c-2.9,0-5.8,0.4-8.6,1.4c0-0.5,1.1-6.9,1.1-6.9c3.1-1.1,6.4-1.7,9.7-1.8
		c6.9,0,10.7,3.2,10.7,9c-0.1,2.1-0.3,4.1-0.7,6.1c-0.8,4.6-2.3,14.2-2.5,16.5L90.9,99.6L90.9,99.6z"/>
	<path class="st0" d="M199.4,62.7l-1.3,8.2c-2.2-1.3-4.7-2-7.3-2.1c-6,0-10.4,5.9-10.4,14.3c0,5.7,2.8,9.2,7.7,9.2
		c2.4-0.1,4.8-0.8,6.9-2l-1.4,8.6c-2.3,0.7-4.7,1.1-7.2,1.1c-8.7,0-14.1-6.4-14.1-16.4c0-13.6,7.5-23,18.2-23
		C193.6,60.9,196.6,61.6,199.4,62.7z"/>
	<path class="st0" d="M212.5,85.9c-0.6,0-1.2,0-1.8,0c-4.6,0-6.9,1.6-6.9,4.8c0,2,1.2,3.2,2.9,3.2C209.9,93.8,212.3,90.6,212.5,85.9
		z M218.4,99.6h-6.7v-3.2c-1.9,2.5-5,3.9-8.3,3.8c-4.4,0-7.4-3.5-7.4-8.5c0-7.5,5.1-11.9,14.2-11.9c1.2,0,2.3,0.1,3.5,0.3
		c0.2-0.7,0.3-1.3,0.3-2c0-2.1-1.4-2.8-5.1-2.8c-2.9,0-5.8,0.4-8.5,1.4c0-0.5,1.1-6.9,1.1-6.9c3-1.1,6.3-1.7,9.5-1.8
		c6.9,0,10.6,3.2,10.6,9c-0.1,2.1-0.4,4.1-0.8,6.1C220.1,87.7,218.6,97.3,218.4,99.6z"/>
	<path class="st0" d="M126.8,99.1c-1.9,0.7-3.8,1-5.8,1c-4.1,0-6.4-2.4-6.4-6.8c0-1.4,0.6-4.9,1.1-8.2c0.5-3.3,3.5-21.1,3.5-21.1h8
		l-0.9,4.8h4.1l-1.1,7.4h-4.1c-1,5.9-2.3,13.2-2.3,14.3c0,1.6,0.9,2.4,2.8,2.4c0.7,0,1.5-0.1,2.2-0.3L126.8,99.1z"/>
	<path class="st0" d="M151.5,98.9c-2.7,0.8-5.5,1.3-8.3,1.3c-9,0-13.7-4.8-13.7-13.8c0-10.5,6-18.3,14.1-18.3
		c6.6,0,10.9,4.4,10.9,11.2c0,2.6-0.4,5.1-1,7.6h-16c-0.6,4.5,2.3,6.4,6.9,6.4c2.9,0,5.8-0.7,8.4-1.9L151.5,98.9z M146.9,80.6
		c0-0.6,0.9-5.5-3.7-5.5c-2.6,0-4.4,2-5.1,5.5H146.9z"/>
	<path class="st0" d="M95.7,78.5c-0.2,3.8,2.3,7.4,6.1,8.8c3.3,1.5,3.8,2,3.8,3.2c0,1.9-1.4,2.8-4.6,2.8c-2.5,0-4.9-0.4-7.3-1.2
		c0,0-1.1,6.8-1.1,7.1c2.7,0.6,5.6,0.9,8.4,0.9c8.5,0,12.5-3.2,12.5-10.3c0.3-3.7-2-7.2-5.7-8.6c-3.5-1.5-3.8-1.9-3.8-3.2
		s1.4-2.5,4.1-2.5c1.9,0,3.9,0.2,5.8,0.5l1.2-7.1c-2.3-0.4-4.7-0.7-7.1-0.9C98.7,68,95.6,72.9,95.7,78.5z"/>
	<path class="st0" d="M261.2,99.6h-7.7l0.4-2.9c-1.8,2.2-4.5,3.5-7.5,3.5c-5.9,0-9.8-5.1-9.8-12.9c0-10.3,6-19,13.2-19
		c3.2,0,6.1,1.6,7.7,4.2l1.8-11h8L261.2,99.6z M249.2,92.5c3.8,0,6.4-4.3,6.4-10.4c0-3.9-1.5-6.1-4.3-6.1c-3.7,0-6.3,4.3-6.3,10.3
		C245.1,90.5,246.4,92.5,249.2,92.5L249.2,92.5L249.2,92.5z"/>
	<path class="st0" d="M225.7,68.8c-1.1,9.7-2.8,19.3-4.2,28.8l-0.4,2.1h8.1c2.9-18.9,3.5-22.6,8.1-22.1c0.5-3.1,1.6-6.1,3.1-8.9
		c-3.5-0.7-5.3,1.2-7.7,4.8c0.3-1.6,0.4-3.2,0.5-4.8L225.7,68.8z"/>
	<path class="st0" d="M158.9,68.8c-1.1,9.7-2.8,19.3-4.2,28.8l-0.4,2.1h8.1c2.9-18.9,3.5-22.6,8.1-22.1c0.5-3.1,1.6-6.1,3.1-8.9
		c-3.5-0.7-5.3,1.2-7.7,4.8c0.3-1.6,0.4-3.2,0.5-4.8L158.9,68.8z"/>
	<path class="st0" d="M264.8,97.2c0.1-1.2,1.2-2.1,2.6-2h0c1.3,0.2,2.2,1.2,2.2,2.4c-0.1,1.2-1.1,2-2.4,2
		C265.8,99.5,264.8,98.5,264.8,97.2z M267.2,99.1c1.1,0.1,2-0.7,2.1-1.7c0.1-1-0.8-1.9-1.8-1.9c-1.1-0.1-2,0.7-2.1,1.7v0.1
		C265.3,98.2,266.1,99,267.2,99.1z M266.9,98.3h-0.5v-2.1h0.9c0.2,0,0.4,0,0.6,0c0.2,0.1,0.3,0.3,0.3,0.5c0,0.2-0.1,0.5-0.4,0.5
		l0.4,0.9h-0.5l-0.4-0.8h-0.3L266.9,98.3z M266.9,97.1h0.6c0.1-0.1,0.1-0.3,0-0.4l0,0h-0.5L266.9,97.1z"/>
</g>
</svg>
