<?xml version="1.0" encoding="utf-8"?>
<!-- Generator: Adobe Illustrator 24.0.0, SVG Export Plug-In . SVG Version: 6.00 Build 0)  -->
<svg version="1.1" id="Layer_1" xmlns="http://www.w3.org/2000/svg" xmlns:xlink="http://www.w3.org/1999/xlink" x="0px" y="0px"
	 viewBox="0 0 300 160" style="enable-background:new 0 0 300 160;" xml:space="preserve">
<style type="text/css">
	.st0{fill:#FFFFFF;}
	.st1{fill:#EA272A;}
	.st2{fill:#F89624;}
</style>
<path class="st0" d="M288.9,160H11.1C5,160,0,155,0,148.9V11.1C0,5,5,0,11.1,0h277.8C295,0,300,5,300,11.1v137.8
	C300,155,295,160,288.9,160z"/>
<g id="Layer_2_1_">
	<g id="surface1">
		<path class="st1" d="M191.5,66.1h-49.9c-0.9,0-1.5,0.6-1.5,1.4l0,0v4c-0.1,0.7,0.5,1.4,1.3,1.5c0,0,0,0,0,0h37.5v20.7
			c-1.1-1.5-2.2-3-3.5-4.4c-4.5-4.4-9.1-6.7-14.1-6.7c-3.9,0-7.2,2-9.9,5.4c-2.2,2.8-3.4,6.2-3.5,9.6c-0.1,4,0.9,7.9,3,11.4
			c2.5,3.9,7.3,6.3,12.4,6.1c5.7,0,10.3-4,10.3-9v-0.2c0-2.8-1.6-5.5-4.2-7.2l-2.7-1.5v4.4c-0.6,1.7-2.4,2.9-4.5,2.9
			c-1.9,0-3.7-0.7-5-2c-0.8-0.9-1.1-2-0.9-3.1c0-1.4,0.5-2.8,1.5-3.9c0.9-1.4,2.6-2.2,4.4-2.2c4.9,0,9.1,2.2,12.7,7.2
			c2.7,3.8,4.1,8.1,4.2,12.6v10.3l7.3,4.5c0.2,0.2,0.5,0.3,0.7,0.3c0.9,0,1.5-0.7,1.5-1.4l0,0V73.4h3c0.9,0,1.5-0.7,1.5-1.4l0,0
			v-4.2C193.3,67,192.6,66.2,191.5,66.1C191.5,66.1,191.5,66.1,191.5,66.1L191.5,66.1L191.5,66.1z"/>
		<path class="st1" d="M291.4,66.1H228c-0.9,0-1.5,0.6-1.5,1.4l0,0v7.1c-6.2-6.4-11.6-9.6-16.6-9.6c-4.4-0.2-8.8,1.1-12.1,3.7
			c-3.2,2.3-5.1,5.7-5.2,9.4c0,11.1,12.4,10.8,15.6,9.4c0.6-0.4,1.3-0.6,2-0.7c2.5,0,3.5,2,3.5,3.7c0,2.5-3.7,4.7-8.2,4.7
			c-2,0.2-3.9-0.7-4.9-2.2l-1.9-3l-1.2,3.4c-0.4,0.9-0.7,1.9-0.7,2.9c0.1,2.7,1.4,5.3,3.7,7.2c2.1,1.9,4.9,3,7.9,3
			c4.5,0.1,8.7-1.9,11.1-5.2c2.2-2.8,3.3-6.2,3.2-9.6c-0.1-2.4-1-4.7-2.5-6.7c-2-2.9-4.4-4.4-7.2-4.4c-1.2,0-2.4,0.3-3.5,0.8
			c-0.6,0.2-1.1,0.4-1.7,0.5c-0.7,0-1.4-0.4-1.7-1c-0.7-0.7-1-1.6-1-2.5c0-3.1,2.8-5.5,6.3-5.5h0.6h0.2c3.4,0.2,6.6,1.8,8.6,4.2
			c2.1,2.1,4,4.4,5.4,6.9v39.3l7.4,4.4c0.2,0.2,0.5,0.3,0.7,0.2c0.9,0,1.5-0.7,1.5-1.4V73.2h11.4v34.3l8.9,3.7h0.5
			c0.9,0,1.5-0.6,1.5-1.4l0,0v-0.2c1.5-10.1,5.9-17,13.3-21.2v2c0,1.5,0,5.2,0.3,7.2c-0.1,0.9,0,1.8,0.3,2.7c0,4.8,0.6,9.6,1.7,14.3
			c2.5,8.4,6.7,10.3,9.6,10.3h0.3c2.8,0.2,5.2-1.6,5.4-4c0-0.2,0-0.5,0-0.7c0-1.3-0.2-2.5-0.7-3.7l-0.7-1.2l-1.5,0.2
			c-1.5,0.5-2.2,0.5-2.2,0.3h-0.2c-0.5,0-0.5,0-0.7-0.3c-1.2-1-2-2.3-2.2-3.7c-0.5-2-0.7-4.1-0.7-6.2c0-11.1,2.2-19.5,5.9-21.2h0.3
			c0.6-0.3,1-0.9,1-1.5c0-0.3-0.1-0.5-0.3-0.7v-0.3c-2.1-3.6-5.9-6.3-10.4-7.1h-0.9c-4,0.7-8.6,3.4-14.6,8.4c-1.5,1.2-3,2.5-4.2,3.7
			V73.2h34.6c0.9,0,1.5-0.7,1.5-1.4l0,0v-4c0.2-0.7-0.2-1.5-1-1.7C291.8,66.1,291.6,66.1,291.4,66.1z"/>
		<path class="st1" d="M123.7,84.3c0.1,1.6,0,3.1-0.2,4.7c-0.5,6.6-2.1,13.1-4.9,19.2c-1,2.4-2.2,4.7-3.7,6.9
			c-10.4,16.3-28.7,27.1-49.5,27.1c-8.6,0-17.1-1.9-24.7-5.4C20.8,127.6,7,107.4,7,84.3s13.4-42.6,32.4-51.9c-1.6,2-3,4-4.2,6.2
			c0,0.3-0.3,0.3-0.3,0.5c-0.7,0.7-1.5,1.2-2.2,2c-0.8,0.9-1.7,1.7-2.7,2.4l-1,1c-0.3,0.4-0.6,0.7-1,1c-0.5,0.7-1.2,1.5-1.7,2.2
			c-2.5,3.2-4.5,6.7-5.9,10.3c-0.3,0.2-0.3,0.7-0.5,1c-0.3,0.2-0.2,1-0.5,1.2c-0.2,0.2-0.3,0.5-0.3,0.7c-0.2,0.7-0.5,1.2-0.7,2
			c-0.3,0.7-0.3,1-0.5,1.2c-0.2,0.2-0.3,0.5-0.3,0.7c0,0.2-0.3,1-0.3,1.5l-0.7,4.5c0,0.4,0,0.8-0.2,1.2V78
			c0,15.8,7.2,30.1,18.8,39.2c8.7,7.3,20.1,11.4,32.2,11.6c10.9,0,21.3-3.4,29.6-9.6c6.3-4.6,11.3-10.3,14.8-16.8
			c0.5-1,1-1.7,1.5-2.7c3.1-6.3,4.7-13.1,4.7-20V78c0-1.6,0-3.3-0.3-4.9l0.3,0.3c0.7,0.7,1.5,1.2,2.1,2c0.7-1.2,1.5-2.2,2.1-3.5
			c0.5,2.3,0.8,4.6,1,6.9C123.5,80.6,123.6,82.4,123.7,84.3z"/>
		<path class="st2" d="M72.3,37.7L61.4,17.8c-18,8.1-30.4,26.1-30.4,47.1c-0.1,10,2.9,19.9,8.6,28.6c-0.4-2.8-0.6-5.6-0.5-8.4
			C39.4,63.7,53,45.4,72.3,37.7z"/>
		<path class="st1" d="M80.9,47.6c7.5-1.9,15.3-2.2,23-1l-0.3-8.9l-0.5-17.8c-2.1-0.3-4.2-0.5-6.3-0.5c-9.7,0.1-19,3-26.5,8.4
			l5.9,10.9c-10.9,4-19.7,11.4-24.7,20.7c-2.9,4.9-4.7,10.3-5.4,15.8c1.4-2.8,3.2-5.5,5.2-8C58.2,57.8,68.7,50.9,80.9,47.6z"/>
		<path class="st2" d="M106.9,37.5l0.5,12.6c-4.2-1.3-8.7-2-13.1-2c-8.6,0.1-16.9,2.4-24,6.7C60.9,60.7,54.1,69.2,51,78.9
			c3.3-4.7,7.7-8.8,12.7-12.1c7.2-4.8,16-7.4,25-7.4c6.7,0,13.4,1.5,19.3,4.3c4.5,2,8.6,4.8,11.9,8.1l6.9-10.4l8.9-13.6
			C128,41.4,117.7,37.6,106.9,37.5z"/>
		<path class="st2" d="M118,78.5v1.6c-0.1,6.8-1.7,13.6-4.7,19.9c-0.5,1-1,1.7-1.5,2.7c-3.5,6.5-8.5,12.2-14.8,16.8
			c-8.3,6.1-18.8,9.5-29.6,9.6c-12,0-23.6-4.2-32.2-11.6c-12.1-10.3-18.9-24.4-18.8-39.2v-5.9c0-0.4,0-0.8,0.2-1.2l0.7-4.4
			c0-0.5,0.3-1,0.3-1.5s0.3-0.5,0.3-0.7c0-0.4,0.2-0.9,0.5-1.2c0.3-0.7,0.5-1.5,0.7-2c0.2-0.5,0.3-0.5,0.3-0.7
			c0.1-0.4,0.2-0.9,0.5-1.2c0.2-0.2,0.3-0.7,0.5-1c1.6-3.6,3.5-7.1,5.9-10.3c0.5-0.7,1.2-1.5,1.7-2.2c0.3-0.2,0.5-0.7,1-1
			c0.5-0.2,0.3-0.5,0.5-0.5c0.3,0,0.2-0.5,0.5-0.5c0.8-0.9,1.7-1.8,2.7-2.5c0.7-0.7,1.5-1.2,2.2-2c0,0.2-0.3,0.2-0.3,0.5
			c0,0.2-0.1,0.3-0.2,0.5c-3.1,6.5-5.1,13.4-5.7,20.5c-0.3,2.1-0.4,4.2-0.4,6.3c0,26.5,15.6,47.9,34.9,47.9h2c2.8-0.1,5.5-0.4,8.2-1
			c13.1-3.5,22.8-15.5,22.8-29.5v-0.7c-0.1-7.8-3.4-15.4-9.4-21.2c3.9,0.1,7.9,0.6,11.6,1.7c7.2,1.9,13.8,5.2,19.3,9.6l0.3,0.2
			C117.9,75.7,117.9,77.1,118,78.5z"/>
		<path class="st2" d="M118,78.5v1.6c-0.2,7-1.8,13.9-4.9,20.3c-0.5,1-1,1.7-1.5,2.7c-3.6,6.5-8.8,12.2-15.1,16.8
			c-8.3,6.2-18.9,9.7-29.9,9.6c-12.1-0.1-23.7-4.3-32.4-11.6c-12.2-10.3-19-24.6-18.8-39.4C15.1,63.6,21.9,49.3,34.2,39l0.5-0.5
			c0,0.3-0.2,0.3-0.2,0.5s-0.3,0.2-0.3,0.5c-12,10.2-18.6,24.3-18.3,39c-0.3,14.7,6.5,28.9,18.6,39.2c8.7,7.2,20.2,11.3,32.2,11.3
			c10.9,0,21.4-3.4,29.6-9.6c6.3-4.6,11.3-10.3,14.8-16.8c0.5-0.9,0.9-1.8,1.3-2.7c3.1-6.3,4.8-13.1,4.9-20v-1.7
			c0-1.6,0-3.3-0.3-4.9V73l0.5,0.5C117.8,75.2,118,76.8,118,78.5z"/>
	</g>
</g>
</svg>
