<?xml version="1.0" encoding="utf-8"?>
<!-- Generator: Adobe Illustrator 24.2.1, SVG Export Plug-In . SVG Version: 6.00 Build 0)  -->
<svg version="1.1" id="Layer_1" xmlns="http://www.w3.org/2000/svg" xmlns:xlink="http://www.w3.org/1999/xlink" x="0px" y="0px"
	 viewBox="0 0 300 160" style="enable-background:new 0 0 300 160;" xml:space="preserve">
<style type="text/css">
	.st0{fill:#FFFFFF;}
	.st1{fill:#212124;}
	.st2{fill:#FEE700;}
	.st3{fill:#EC2227;}
	.st4{fill:#8D8E8E;}
	.st5{fill:#CC333E;}
</style>
<path class="st0" d="M288.4,160.5H10.6c-6.1,0-11.1-5-11.1-11.1l0,0V11.6c0-6.1,5-11.1,11.1-11.1l0,0h277.8c6.1,0,11.1,5,11.1,11.1
	l0,0v137.8C299.5,155.5,294.5,160.5,288.4,160.5L288.4,160.5z"/>
<g>
	<g>
		<g>
			<path class="st1" d="M89.2,30.5c2.1-1.2,4.8-0.2,6,1.7c2,3.2,3.8,6.5,5.7,9.8c2.3-2.2,5.4-3.7,8.7-3.5c2.5-0.1,4.8,2.3,4.7,4.8
				c0,5,0.1,10,0,15c2.2-1.1,4.7-1.3,7.1-0.7c2.4,1,4,3.3,4.7,5.7c2.2-1.9,4.2-4.1,6.7-5.7c3.3-0.9,7.3,0,9.3,3
				c2.1,3,1.4,7.5-1.2,10c-2.3,2.4-4.8,4.7-7.1,7.1c2.6,2.5,5.1,5.1,7.6,7.7c2.9,3,2.4,8.4-0.9,10.9c-2.5,2.1-6.4,2.2-9.2,0.6
				c-1.9-1.4-3.4-3.2-5.2-4.8c-0.7,2.6-2.6,5.1-5.3,5.8c-3.4,0.2-6.7,0.1-10.1,0.1c0-2.4,0-4.8,0-7.1c-2.9,3.4-6.9,6.1-11.2,7.3
				c-3.8,0.2-7.6,0.1-11.4,0.1c-2.9,0-5.1-2.2-6.9-4.2c-4.7,9.2-13.8,16.1-24,17.8c-8.5,1.6-17.6-0.3-24.7-5.3
				C25,101.7,19.8,93.7,18.3,85c-1.6-8.5,0.4-17.6,5.2-24.7C28.8,52.4,37.6,47,47,45.9c13.1-1.9,26.8,5,33.3,16.5
				c0.9-0.9,1.8-1.7,2.7-2.6c-2.9-2.7-5.8-5.5-8.4-8.6c-1.6-3.1-1.9-7,0-10.1c1-1.5,2.1-3.4,4.1-3.7c1.7-0.5,3.3,0.1,4.8,0.8
				C84.1,34.8,86.3,32,89.2,30.5z M86.9,40.8c1.7,4.7,4.9,8.6,6.9,13.1c-3.9-4.1-7.9-8-11.8-12.1c-0.7-0.7-1.6-1.8-2.7-1.1
				c-2.8,2.1-3.5,6.6-1.1,9.3c3.3,3.6,6.9,7,10.3,10.5c-3.6,1-5.7,4.3-8.3,6.6c-1.4,1.6-3.7,2.9-3.5,5.3c0,4.6,0,9.1,0,13.7
				c3.1-0.6,6.7-1.7,8.2-4.8c0.6-2.3,0.2-4.7,0.3-7.1c2.2-2.2,4.5-4.9,7.9-4.9c4.5-0.5,8.6,3.2,9.2,7.5c0.6,3.9-2.3,7.7-5.8,9.1
				c-2.6,0.3-5.6,0.7-7.9-0.7c-3.2-1.7-6.8,0-9.6,1.8c1.8,1.8,3.7,3.7,5.5,5.5c1.1,1,2.1,2.3,3.7,2.3c3.2,0.1,6.3,0,9.5,0.1
				c2.5,0.2,4.6-1.2,6.6-2.5c4.3-2.7,6.7-7.5,7.6-12.4c0.5-2.8-0.6-5.5-1-8.2c-0.2-9.8,0.1-19.7-0.1-29.5c-2.6-0.5-5.6,0.3-7.2,2.6
				c-1.5,2.1-1.3,5-0.2,7.2c0.3,0.7,0.6,1.3,0.8,2c-0.5-0.3-1.4-1-1.9-1.3l1-0.2c-3.9-6.3-7.3-12.9-11.1-19.3
				C88.7,34,86.2,37.4,86.9,40.8z M44.9,49.7C36,51.5,28,57.7,24.2,66c-3,5.8-3.5,12.4-2.5,18.7c1.5,7.2,5.5,13.8,11.3,18.2
				c7.7,5.9,18.4,7.8,27.6,4.7c7.9-2.5,14.6-8.6,18-16.1c-0.8-0.7-1.5-1.4-2.3-2.1c-1,0.2-2,0.4-3,0.5c0-6-0.2-12.1,0-18.1
				c0-3,2.5-5,4.4-6.9c-2.6-4.5-6.2-8.5-10.6-11.3C60.6,49.4,52.4,48.1,44.9,49.7z M114.3,63.1c0.1,3.9-0.3,7.9,0.5,11.8
				c0.5,3,0.1,6.1-0.5,9c-0.2,3.6,0,7.3-0.1,10.9c2.8,0,6.8,0.7,8.4-2.5c0.4-2.9,0.1-5.8,0.2-8.8c3.3,3.3,6.6,6.6,9.9,9.9
				c1,1.2,2.7,1.3,4.1,1c2.9-0.3,4.1-4.6,2.1-6.6c-3.2-3.6-6.7-6.8-10-10.3c3.3-3.3,6.6-6.5,9.8-9.8c1.4-1.3,1.5-3.4,0.6-5
				c-1.3-2.2-4.7-2.8-6.5-1c-3.4,3.2-6.7,6.5-10,9.8c-0.1-2.7,0.2-5.4-0.2-8c-0.6-1.7-2.3-3.1-4.1-2.9
				C116.7,60.7,115.4,62,114.3,63.1z M88.9,75.4c0,2-0.1,3.9-0.6,5.8c1.1,0.3,2.1,0.8,2.9,1.5c1.8,0,3.8,0.4,5.3-0.8
				c3.8-2.2,2.4-9.3-2.1-9.4C92.1,72.2,90.5,74.1,88.9,75.4z"/>
		</g>
		<path class="st1" d="M40.3,67.7c2.4-0.9,5.4,1.3,4.9,3.9c-0.3,2.7-4,4.3-6,2.3C37,72.2,37.8,68.5,40.3,67.7z"/>
		<path class="st1" d="M59.3,67.8c2.3-1,5.4,0.8,5.1,3.4c0.3,2.8-3.7,4.8-5.8,2.8C56.4,72.4,56.9,68.8,59.3,67.8z"/>
		<path class="st1" d="M68.5,79c1.3,0,2.6,0,3.9,0c0,7.6-4.5,14.9-11.2,18.4c-6.9,3.7-15.7,3.1-22.1-1.3c-5.5-3.8-9.1-10.3-9-17.1
			c1.5,0,2.9,0,4.4,0c0.1,6.3,4.1,12.4,9.9,14.9c6.3,3,14.4,1.5,19.3-3.5C66.8,87.4,68.4,83.2,68.5,79z"/>
		<g>
			<path class="st2" d="M86.9,40.8c-0.7-3.3,1.8-6.8,5.1-7.5c3.6,6.1,6.8,12.4,10.6,18.4c0.4,0.6,0.8,1.1,1.4,1.5l1.1,0.7
				c0.5,0.3-0.1,0.5-1,0.3c-0.2-0.7-0.5-1.4-0.8-2c-1.1-2.3-1.3-5.1,0.2-7.2c1.6-2.2,4.5-3.1,7.2-2.6c0.3,9.8,0,19.7,0.1,29.5
				c0.4,2.7,1.5,5.4,1,8.2c-0.8,4.8-3.2,9.7-7.6,12.4c-2,1.3-4.2,2.7-6.6,2.5c-3.2-0.1-6.3,0.1-9.5-0.1c-1.6-0.1-2.6-1.3-3.7-2.3
				c-1.8-1.8-3.7-3.7-5.5-5.5c2.8-1.8,6.4-3.5,9.6-1.8c2.4,1.4,5.3,1,7.9,0.7c3.5-1.4,6.4-5.2,5.8-9.1c-0.5-4.3-4.7-8-9.2-7.5
				c-3.4,0-5.7,2.7-7.9,4.9c-0.1,2.3,0.3,4.8-0.3,7.1c-1.4,3.1-5.1,4.2-8.2,4.8c0-4.6,0-9.1,0-13.7c-0.3-2.4,2.1-3.8,3.5-5.3
				c2.7-2.3,4.7-5.6,8.3-6.6c-3.4-3.5-7-6.9-10.3-10.5c-2.4-2.6-1.7-7.1,1.1-9.3c1.1-0.7,1.9,0.5,2.7,1.1c3.9,4,7.9,8,11.8,12.1
				C91.8,49.4,88.6,45.5,86.9,40.8z"/>
			<g>
				<path class="st2" d="M44.9,49.7c7.5-1.6,15.7-0.3,22.2,3.9c4.5,2.7,8.1,6.7,10.6,11.3c-1.9,1.9-4.4,3.9-4.4,6.9
					c-0.2,6,0,12.1,0,18.1c1-0.2,2-0.3,3-0.5c0.8,0.7,1.5,1.4,2.3,2.1c-3.4,7.6-10.1,13.7-18,16.1c-9.2,3.1-19.9,1.3-27.6-4.7
					c-5.9-4.4-9.9-11.1-11.3-18.2c-1-6.3-0.4-13,2.5-18.7C28,57.7,36,51.5,44.9,49.7z M40.3,67.7c-2.5,0.8-3.3,4.6-1.1,6.2
					c2,2,5.6,0.4,6-2.3C45.7,68.9,42.7,66.7,40.3,67.7z M59.3,67.8c-2.4,1.1-2.9,4.7-0.7,6.2c2.1,2,6,0,5.8-2.8
					C64.7,68.5,61.6,66.7,59.3,67.8z M68.5,79c-0.2,4.2-1.8,8.4-4.8,11.4c-4.9,5-13,6.5-19.3,3.5c-5.9-2.5-9.8-8.5-9.9-14.9
					c-1.5,0-2.9,0-4.4,0c-0.1,6.7,3.4,13.3,9,17.1c6.4,4.5,15.2,5,22.1,1.3c6.7-3.5,11.3-10.8,11.3-18.4C71.1,79,69.8,79,68.5,79z"
					/>
			</g>
			<path class="st2" d="M114.3,63.1c1.1-1.2,2.4-2.4,4.1-2.4c1.8-0.2,3.5,1.3,4.1,2.9c0.4,2.6,0.1,5.4,0.2,8c3.3-3.2,6.6-6.6,10-9.8
				c1.9-1.8,5.3-1.2,6.5,1c0.9,1.6,0.7,3.7-0.6,5c-3.2,3.3-6.5,6.5-9.8,9.8c3.3,3.4,6.8,6.7,10,10.3c2,2,0.8,6.3-2.1,6.6
				c-1.4,0.3-3.1,0.1-4.1-1c-3.3-3.3-6.6-6.6-9.9-9.9c-0.1,2.9,0.2,5.9-0.2,8.8c-1.5,3.1-5.5,2.4-8.4,2.5c0.1-3.6-0.1-7.3,0.1-10.9
				c0.6-3,1-6,0.5-9C113.9,71.1,114.4,67.1,114.3,63.1z"/>
		</g>
	</g>
	<g>
		<g>
			<g>
				<g>
					<path class="st1" d="M152.7,111.4c0.6,0,1.2,0,1.8-0.1c0,1.4,0,2.9-0.1,4.3c1.7-1.1,4-1.9,5.9-0.7c3.1,1.5,3.7,6.3,1,8.5
						c-1.7,1.8-4.7,1.7-6.5,0.1c-0.3,0.9-1.2,0.9-2,1C152.7,120.1,152.7,115.8,152.7,111.4z M156.3,116.5c-1.9,0.9-2.5,3.7-1.1,5.3
						c1.5,2,4.9,1.4,5.7-1C162.1,118.2,158.8,114.8,156.3,116.5z"/>
				</g>
				<path class="st1" d="M163.6,114.7c0.5,0,1.4,0,1.9-0.1c0.9,2.5,1.8,4.9,2.7,7.4c0.9-2.5,1.9-5,2.8-7.4c0.6,0,1.3,0,1.9,0.1
					c-1.8,4.3-3.5,8.7-5.3,13.1c-0.4,0-1.4-0.1-1.8-0.1c0.4-1.2,0.9-2.3,1.3-3.5C165.9,120.9,164.8,117.8,163.6,114.7z"/>
			</g>
			<g>
				<path class="st3" d="M179.4,116.4c1.9-5,8.4-7.5,13.2-4.9c4.9,2.2,7,8.8,4.3,13.4c-2.1,4.2-7.1,5.7-11.4,4.8
					c-0.6-5.3,0-10.7,2.1-15.7c-1.8,0.9-3.9,1.8-4.8,3.7c-0.7,1,0.1,2.2-0.3,3.3c-0.4,2.2-0.8,4.4-0.8,6.6
					C179,124.8,177.6,120.2,179.4,116.4z"/>
			</g>
			<g>
				<path class="st4" d="M216.5,118c-0.2,1.4-0.8,2.6-1.8,3.5s-2.2,1.3-3.7,1.3c-1.4,0-2.4-0.5-3.2-1.4s-1.1-2.1-0.9-3.4l0.3-2
					c0.2-1.4,0.8-2.6,1.8-3.5s2.2-1.3,3.7-1.3c1.4,0,2.4,0.5,3.2,1.4s1.1,2.1,0.9,3.4L216.5,118z M214.2,115.9c0.1-0.8,0-1.5-0.3-2
					s-0.8-0.8-1.5-0.8s-1.3,0.3-1.7,0.8c-0.5,0.5-0.8,1.2-0.9,2l-0.3,2.1c-0.1,0.8,0,1.5,0.3,2s0.8,0.8,1.5,0.8s1.2-0.3,1.7-0.8
					s0.8-1.2,0.9-2L214.2,115.9z"/>
				<path class="st4" d="M228.1,122.6h-2.6l-3.1-7.1h-0.1l-1.1,7.1h-2.6l1.7-11.3h2.6l3.1,7.1h0.1l1.1-7.1h2.6L228.1,122.6z"/>
				<path class="st4" d="M238.5,117.8h-4l-0.4,2.8h4.8l-0.3,2h-7.4l1.7-11.3h7.4l-0.3,2h-4.8l-0.4,2.4h4L238.5,117.8z"/>
				<path class="st4" d="M246.9,122.6l1.7-11.3h3.7c1.2,0,2.1,0.3,2.8,0.8s0.9,1.3,0.8,2.3c-0.1,0.5-0.3,1-0.6,1.4s-0.8,0.7-1.3,0.9
					c0.7,0.1,1.2,0.4,1.5,0.9s0.4,1.1,0.3,1.8c-0.2,1.1-0.6,1.9-1.4,2.4s-1.8,0.8-3,0.8L246.9,122.6L246.9,122.6z M249.5,117.5
					l-0.5,3.6h2.5c0.6,0,1.1-0.2,1.6-0.4c0.4-0.3,0.7-0.7,0.7-1.3c0.1-0.6,0-1.1-0.3-1.4s-0.8-0.5-1.4-0.5H252
					C252,117.5,249.5,117.5,249.5,117.5z M249.7,116.1h2c0.6,0,1-0.1,1.4-0.4s0.6-0.7,0.7-1.2c0.1-0.6,0-1-0.3-1.3s-0.8-0.4-1.5-0.4
					h-1.8L249.7,116.1z"/>
				<path class="st4" d="M261.7,122.6c0-0.2-0.1-0.4-0.1-0.6s0-0.4,0-0.6c-0.3,0.4-0.7,0.7-1.2,1s-1,0.4-1.5,0.4
					c-0.8,0-1.5-0.2-1.9-0.7s-0.6-1.1-0.5-1.8c0.1-0.8,0.5-1.5,1.2-1.9s1.6-0.7,2.8-0.7h1.5l0.1-0.7c0.1-0.4,0-0.8-0.2-1
					s-0.6-0.4-1.1-0.4c-0.4,0-0.8,0.1-1.1,0.3s-0.5,0.5-0.5,0.8h-1.8v-0.1c0.1-0.7,0.5-1.3,1.1-1.8c0.7-0.5,1.5-0.8,2.6-0.8
					c1,0,1.7,0.3,2.2,0.8s0.7,1.2,0.6,2.1l-0.6,3.7c0,0.4-0.1,0.7-0.1,1s0,0.6,0.1,0.9L261.7,122.6L261.7,122.6z M259.6,121.3
					c0.5,0,0.9-0.1,1.3-0.4c0.4-0.2,0.7-0.5,0.9-0.8l0.2-1.2h-1.5c-0.5,0-1,0.1-1.3,0.4c-0.4,0.3-0.6,0.6-0.6,0.9s0,0.6,0.2,0.8
					C258.9,121.2,259.2,121.3,259.6,121.3z"/>
				<path class="st4" d="M268.1,115.4c0.3-0.4,0.7-0.7,1.2-1s0.9-0.3,1.5-0.3c0.8,0,1.5,0.3,1.9,0.8s0.5,1.4,0.4,2.5l-0.8,5.2h-1.9
					l0.8-5.2c0.1-0.7,0-1.2-0.2-1.4c-0.2-0.3-0.6-0.4-1.1-0.4c-0.4,0-0.8,0.1-1.1,0.2c-0.3,0.2-0.6,0.4-0.8,0.7l-0.9,6.1h-1.9
					l1.3-8.4h1.7L268.1,115.4z"/>
				<path class="st4" d="M277.2,118.9h-0.7l-0.5,3.7h-2l1.8-12.1h1.9l-1,6.9h0.6l2.8-3.2h2.1l0,0l-3.4,3.8l2.5,4.5h-2.2L277.2,118.9
					z"/>
			</g>
			<g>
				<path class="st4" d="M265.9,129.1L265.9,129.1l-0.2,0.9h-2.4v-0.1h0.1c0.1,0,0.2,0,0.3-0.1c0-0.1,0-0.2,0-0.3v-2
					c0-0.2,0-0.3-0.1-0.4s-0.1-0.1-0.3-0.1h-0.1v-0.1h1.4v0.1c-0.1,0-0.1,0-0.2,0h-0.1c0,0-0.1,0-0.1,0.1c0,0,0,0,0,0.1s0,0.2,0,0.3
					v1.9c0,0.1,0,0.1,0,0.1v0.1c0,0,0,0,0,0.1c0,0,0,0,0.1,0c0,0,0.1,0,0.4,0h0.2c0.2,0,0.4,0,0.5-0.1c0,0,0.1,0,0.1-0.1l0.1-0.1
					c0-0.1,0.1-0.1,0.1-0.2C265.8,129.3,265.9,129.3,265.9,129.1z"/>
				<path class="st4" d="M267.5,129.9L267.5,129.9l-1.3,0.1v-0.1h0.1c0.1,0,0.2,0,0.3-0.1c0-0.1,0-0.2,0-0.4v-2c0-0.1,0-0.1,0-0.2
					v-0.1V127c0,0,0,0-0.1-0.1c-0.1,0-0.1-0.1-0.2-0.1h-0.1v-0.1h1.3v0.1h-0.1c-0.1,0-0.2,0-0.3,0.1c0,0.1-0.1,0.2-0.1,0.3v2
					c0,0.1,0,0.1,0,0.2c0,0.1,0,0.1,0,0.1v0.1c0,0,0,0,0.1,0.1c0.1,0,0.1,0.1,0.2,0.1L267.5,129.9L267.5,129.9z"/>
				<path class="st4" d="M269.6,130l-1.2-2.6v2c0,0.2,0,0.3,0.1,0.4c0,0.1,0.1,0.1,0.3,0.1h0.1v0.1h-1.1v-0.1h0.1
					c0.1,0,0.2,0,0.3-0.1c0-0.1,0-0.2,0-0.3v-2c0-0.1,0-0.2,0-0.3c0,0,0,0,0-0.1s0,0-0.1-0.1H268c0,0-0.1,0-0.2,0v-0.1h0.9l1.1,2.4
					l1.1-2.4h0.9v0.1h-0.1c-0.1,0-0.2,0-0.3,0.1c0,0.1,0,0.2,0,0.3v2c0,0.2,0,0.3,0.1,0.4c0,0.1,0.1,0.1,0.3,0.1h0.1v0.1h-1.3v-0.1
					h0.1c0.1,0,0.2,0,0.3-0.1c0-0.1,0-0.2,0-0.3v-2L269.6,130L269.6,130z"/>
				<path class="st4" d="M273.3,129.9L273.3,129.9L272,130v-0.1h0.1c0.1,0,0.2,0,0.3-0.1c0-0.1,0-0.2,0-0.4v-2c0-0.1,0-0.1,0-0.2
					v-0.1V127c0,0,0,0-0.1-0.1c-0.1,0-0.1-0.1-0.2-0.1H272v-0.1h1.3v0.1h-0.1c-0.1,0-0.2,0-0.3,0.1c0,0.1-0.1,0.2-0.1,0.3v2
					c0,0.1,0,0.1,0,0.2c0,0.1,0,0.1,0,0.1v0.1c0,0,0,0,0.1,0.1c0.1,0,0.1,0.1,0.2,0.1L273.3,129.9L273.3,129.9z"/>
				<path class="st4" d="M276.1,126.9v0.7l0,0c0-0.1,0-0.2-0.1-0.2c0-0.1-0.1-0.1-0.1-0.2s-0.1-0.1-0.2-0.1s-0.1,0-0.2,0H275v2.3
					c0,0.2,0,0.3,0.1,0.4c0.1,0.1,0.1,0.1,0.3,0.1h0.1v0.1h-1.3v-0.1h0.1c0.1,0,0.2,0,0.3-0.1c0-0.1,0-0.2,0-0.3v-2.3h-0.4
					c-0.1,0-0.2,0-0.2,0c-0.1,0-0.1,0-0.2,0.1s-0.1,0.1-0.1,0.2s0,0.2-0.1,0.3h-0.1v-0.7h2.6V126.9z"/>
				<path class="st4" d="M277.2,127.1v1.2h0.7c0.1,0,0.2,0,0.2,0s0.1,0,0.1-0.1s0.1-0.1,0.1-0.1s0-0.1,0-0.2h0.1v1.1h-0.1
					c0-0.1,0-0.1,0-0.2c0-0.1,0-0.1,0-0.1v-0.1c0,0,0,0-0.1-0.1h-0.1c0,0-0.1,0-0.2,0h-0.7v1c0,0.1,0,0.2,0,0.3l0,0l0,0
					c0,0,0,0,0.1,0s0.1,0,0.1,0h0.5c0.1,0,0.2,0,0.2,0s0.1,0,0.2,0c0,0,0.1,0,0.1-0.1l0.1-0.1c0,0,0.1-0.1,0.1-0.2
					c0-0.1,0.1-0.1,0.1-0.3h0.1l-0.3,0.8h-2.4v-0.1h0.1h0.1h0.1c0,0,0,0,0.1-0.1c0,0,0,0,0-0.1s0-0.1,0-0.3v-2c0-0.2,0-0.3-0.1-0.4
					c0-0.1-0.1-0.1-0.3-0.1H276v-0.1h2.4v0.7l0,0c0-0.1,0-0.2,0-0.2c0-0.1,0-0.1-0.1-0.1c0,0,0-0.1-0.1-0.1c0,0-0.1,0-0.1-0.1
					c-0.1,0-0.2,0-0.3,0L277.2,127.1L277.2,127.1z"/>
				<path class="st4" d="M279.2,130L279.2,130l0.1-0.1c0.1,0,0.2,0,0.3-0.1c0-0.1,0-0.2,0-0.3v-2c0-0.2,0-0.3-0.1-0.4
					s-0.1-0.1-0.3-0.1h-0.1v0h1.2c0.5,0,0.8,0.1,1,0.2s0.4,0.3,0.6,0.5s0.2,0.5,0.2,0.8c0,0.2,0,0.4-0.1,0.6
					c-0.1,0.2-0.2,0.4-0.3,0.5s-0.3,0.2-0.5,0.3s-0.5,0.1-0.7,0.1L279.2,130L279.2,130z M280,129.8c0.2,0,0.4,0.1,0.5,0.1
					c0.2,0,0.3,0,0.5-0.1c0.1-0.1,0.3-0.1,0.4-0.3c0.1-0.1,0.2-0.3,0.3-0.4s0.1-0.4,0.1-0.6s0-0.4-0.1-0.6c-0.1-0.2-0.1-0.3-0.3-0.4
					c-0.1-0.1-0.2-0.2-0.4-0.3c-0.1-0.1-0.3-0.1-0.5-0.1c-0.1,0-0.1,0-0.2,0s-0.2,0-0.3,0.1V129.8L280,129.8z"/>
			</g>
			<rect x="206.4" y="124.7" class="st5" width="75.9" height="0.9"/>
		</g>
		<g>
			<path class="st1" d="M217.3,59.7c2.5-0.1,4.9-0.1,7.4-0.1c0,13.1,0.1,26.1,0,39.2c-2.3,0-5,0-7.4,0c0-2.2,0.1-4.3,0-6.4
				C217.3,81.5,217.3,70.6,217.3,59.7z"/>
			<path class="st1" d="M231.1,59.7c2.5,0,4.9,0,7.4,0.1c0,11.9,0,23.8,0,35.8c0,1.1,0,2.1,0,3.4c-2.3,0-5,0-7.4,0
				C231,85.8,231.1,72.7,231.1,59.7z"/>
			<path class="st1" d="M270.7,67c2.4-0.9,4.8-1.9,7.1-2.9c0,2.4,0,4.9,0,7.3c1.5,0,2.9,0,4.4,0c0,1.6,0,3.3,0,4.9
				c-1.5,0-2.9,0-4.4,0c0,5.8,0,11.7,0.1,17.6c1.3,0.8,2.9,0.7,4.3,0.6c0,1.5,0,3.1,0,4.6c-2.8,0.4-5.9,0.8-8.5-0.5
				c-2.1-1.3-3.1-3.8-3.1-6.2c-0.1-5.3,0-10.7,0-16c-1.3,0-2.6,0-3.9,0c0-1.6,0-3.3,0.1-4.9c1.3,0,2.5,0,3.8-0.1
				C270.7,69.9,270.7,68.4,270.7,67z"/>
			<path class="st1" d="M180.7,71.4c2.4,0,4.9,0,7.3,0c-1.9,9.1-3.5,18.3-5.5,27.4c-3.1,0-6.2,0-9.3,0c-1.2-7.1-2.8-14.1-3.9-21.2
				c-1.8,7-2.9,14.2-4.7,21.2c-3.1,0-6.1,0-9.2,0c-1.9-9.1-3.8-18.3-5.4-27.4c2.4,0,4.7,0,7.1,0c1.3,7.2,2.2,14.4,3.4,21.5
				c1.2-7.1,2.6-14.2,3.7-21.3c3.1-0.4,6.3-0.2,9.4-0.2c1.4,7.1,2.9,14.2,4.2,21.3C178.8,85.6,180,78.5,180.7,71.4z"/>
			<g>
				<path class="st1" d="M247.7,72.1c2.5-1.5,5.5-1.2,8.3-1.1c2.7,0.1,5.6,1.3,6.7,3.9c1.5,3.6,1.1,7.6,1.1,11.4
					c-4.4,0.1-8.8,0-13.1,0c0,2.5-0.1,5,0.7,7.4c0.3,0.7,0.9,1.1,1.6,1.3c1.7,0.4,3.3-0.9,3.5-2.7c0.1-0.9,0-1.9,0.1-2.8
					c2.4-0.1,4.9-0.1,7.3,0c0.1,2.8-0.5,6-2.9,7.8c-3.3,2.3-7.7,2.6-11.5,1.7c-2.9-0.6-5-3.2-5.4-6.1c-0.6-3.9-0.3-7.9-0.3-11.9
					C243.9,77.8,244.5,73.8,247.7,72.1z M251.2,77.2c-0.5,1.6-0.5,3.3-0.6,5c1.9,0,3.9,0,5.9,0c-0.1-1.6,0.2-3.4-0.2-4.9
					c-0.3-1.1-1.4-1.8-2.5-1.9l0,0C252.6,75.4,251.5,76.1,251.2,77.2z"/>
			</g>
			<path class="st1" d="M211,81.6c0-2,0.1-4.1-0.5-6.1c-1.1-3.1-4.6-4.6-7.7-4.6c-3.3-0.1-7.1-0.2-9.5,2.3c-1.6,1.6-1.6,3.9-1.7,6
				c2.4,0,4.8,0,7.1,0c0.1-0.9,0.3-1.8,0.5-2.7c0.1-0.5,0.4-0.8,0.9-1.1c0.6-0.3,1.6-0.5,2.6,0.2c0.6,0.5,1,1.2,1.1,2
				c0.2,1.3,0.1,2.6,0,3.9c-3.8,0-8.3-0.5-11.1,2.5c-2.1,2.7-1.8,6.4-1.5,9.7c0.1,0.8,0.2,1.5,0.5,2.2c2.2,4.3,9.2,4.5,12.1,0.7
				c0.1,0.7,0.3,1.4,0.4,2.1c2.2,0,4.4,0,6.6,0C211.1,93.1,211,87.4,211,81.6z M202.8,94.1c-1.1,1.7-3.8,1.3-4.4-0.6
				c-0.4-2-0.4-4.1,0.5-6c1-1.8,3.3-1.7,5-1.8C203.8,88.5,204.4,91.6,202.8,94.1z"/>
		</g>
	</g>
</g>
</svg>
