<svg id="Layer_1" data-name="Layer 1" xmlns="http://www.w3.org/2000/svg" viewBox="0 0 300 160"><defs><style>.cls-1{fill:#fff;}.cls-2{fill:#231f20;}.cls-3{fill:#ed1c24;}</style></defs><path class="cls-1" d="M289.4,160.5H11.6A11.14,11.14,0,0,1,.5,149.4V11.6A11.14,11.14,0,0,1,11.6.5H289.4a11.14,11.14,0,0,1,11.1,11.1V149.4A11.14,11.14,0,0,1,289.4,160.5Z" transform="translate(-0.5 -0.5)"/><g id="surface1"><path class="cls-2" d="M208.51,64.8h5.31A2.47,2.47,0,0,1,216.49,68c-.41,2.65-1.73,4-3.87,4h-5.1l1-7.11m-5.6,11.45h8c4.3,0,5.59-.9,7-2.35a10.06,10.06,0,0,0,2.65-5.37c.4-2.58.12-5.11-2.27-6.31,1-.54,2.82-1.6,3.4-5.33.42-2.69-.28-6.57-5.44-6.57H207l-4,25.93M210,54.71h4.87c2,0,3.12.65,2.79,2.79a3.33,3.33,0,0,1-3.55,3h-5l.88-5.75" transform="translate(-0.5 -0.5)"/><path class="cls-2" d="M234.74,69.36a4.42,4.42,0,0,1-4,3.92c-.79,0-1.91-.7-1.64-2.46.35-2.25,2.06-2.64,3.61-3.07,2-.56,2-.66,2.45-1.06l-.38,2.67m4.78-7.31c.74-4.69-2.68-5.52-4.88-5.52-3.19,0-6.16.83-7.55,6.67h3.68c.29-1.11.69-2.75,2.75-2.75,1,0,2.67.11,2.34,2.22a1.9,1.9,0,0,1-1.67,1.6l-3.33.68c-2.68.47-4.91,2.37-5.5,6.09-.62,3.94,1.25,5.55,3.59,5.55,2.78,0,4.07-1.6,5.19-2.78a10,10,0,0,0,0,2.28h4.05l.12-.75c-.46-.22-.79-.72-.44-3l1.62-10.32" transform="translate(-0.5 -0.5)"/><path class="cls-2" d="M257.18,76.11h-3.8L255.2,64.5c.21-1.41.52-3.78-2.08-3.78-1.82,0-3.3,1.51-3.75,4.42l-1.72,11h-3.72l3-19.13,3.64.09-.43,2.81h.05c.74-1.15,1.88-3.31,4.83-3.31s4.89,2.1,4.24,6.31l-2.07,13.23" transform="translate(-0.5 -0.5)"/><path class="cls-2" d="M267.62,76.11h-3.73l4-26.07,3.82.1-2.18,14.08,6.29-7.33h4.57l-6.57,7.38,3.63,11.84h-4.56l-2.14-8.28-2,2-1.13,6.29" transform="translate(-0.5 -0.5)"/><path class="cls-2" d="M144,67.32l2.57-17.12h7l-4.08,26.36h-9l-7.57-17.11-2.38,17.33h-7l4.1-26.58h9.26L144,67.32" transform="translate(-0.5 -0.5)"/><path class="cls-2" d="M157.51,76.62s1.68-8.8,2.16-12.1c.77-5.31,1.92-14.68,1.92-14.68h20.18l-.7,5.77-12.4.08-.75,4.71,10.52-.08L177.53,66H166.91l-.74,5.19,12.71-.36L178,76.62H157.51" transform="translate(-0.5 -0.5)"/><path class="cls-3" d="M28.65,90.41c-5.52-4.48-8.45-10.92-8.45-18.57A24.46,24.46,0,1,1,44.66,96.29a26.21,26.21,0,0,1-7.18-1l-.09-.55A64.91,64.91,0,0,1,43,56a49,49,0,0,0-5.49,2.1A55.39,55.39,0,0,0,32,62.52c-.25.38-3.54,7-3.88,7.79.39-.09,2.08-.81,3.18-1.27-5,14.27-2.67,21.37-2.67,21.37" transform="translate(-0.5 -0.5)"/><path class="cls-2" d="M243.55,91.93l-.21,2.75h-5.29v-.21h.2a.7.7,0,0,0,.42-.12.52.52,0,0,0,.17-.28,2.56,2.56,0,0,0,0-.71v-5.1a2.84,2.84,0,0,0,0-.74.52.52,0,0,0-.19-.26.68.68,0,0,0-.4-.11h-.2V87h3.18v.2H241a.65.65,0,0,0-.41.12.51.51,0,0,0-.19.28,3.06,3.06,0,0,0-.05.71v4.92a2.91,2.91,0,0,0,.06.76.37.37,0,0,0,.2.24,1.47,1.47,0,0,0,.53,0h.5a1.38,1.38,0,0,0,.78-.21,1.74,1.74,0,0,0,.54-.7,6.74,6.74,0,0,0,.44-1.39h.18" transform="translate(-0.5 -0.5)"/><path class="cls-2" d="M247.54,94.47v.21h-3.1v-.21h.2a.63.63,0,0,0,.41-.12.53.53,0,0,0,.18-.28,3.06,3.06,0,0,0,.05-.71v-5.1a3.4,3.4,0,0,0-.05-.74.54.54,0,0,0-.2-.26.65.65,0,0,0-.39-.11h-.2V87h3.1v.2h-.19a.7.7,0,0,0-.42.12.51.51,0,0,0-.18.28,3.32,3.32,0,0,0,0,.71v5.1a3.56,3.56,0,0,0,0,.73.73.73,0,0,0,.2.27.68.68,0,0,0,.4.11h.19" transform="translate(-0.5 -0.5)"/><path class="cls-2" d="M252.57,92,254.19,87h2.41v.2h-.19a.71.71,0,0,0-.43.12.61.61,0,0,0-.17.28,3.06,3.06,0,0,0-.05.71v5.1a3.22,3.22,0,0,0,.05.73.49.49,0,0,0,.21.27.62.62,0,0,0,.39.11h.19v.21h-3.1v-.21h.18a.71.71,0,0,0,.43-.12.59.59,0,0,0,.18-.28,3.32,3.32,0,0,0,0-.71V87.63l-2.26,7.05H252l-2.32-7v5.44c0,.38,0,.61,0,.7a.94.94,0,0,0,.26.47.83.83,0,0,0,.59.18v.21h-2v-.21h.06a.7.7,0,0,0,.37-.09.6.6,0,0,0,.26-.24,1.1,1.1,0,0,0,.13-.41s0-.25,0-.6V88.26a3.68,3.68,0,0,0,0-.74.61.61,0,0,0-.2-.26.72.72,0,0,0-.4-.11h-.19V87h2.41L252.57,92" transform="translate(-0.5 -0.5)"/><path class="cls-2" d="M261,94.47v.21h-3.11v-.21h.2a.55.55,0,0,0,.6-.4,4.22,4.22,0,0,0,0-.71v-5.1a3.4,3.4,0,0,0-.05-.74.58.58,0,0,0-.19-.26.68.68,0,0,0-.4-.11h-.2V87H261v.2h-.2a.7.7,0,0,0-.42.12.46.46,0,0,0-.18.28,3.32,3.32,0,0,0,0,.71v5.1a2.7,2.7,0,0,0,.05.73.47.47,0,0,0,.2.27.65.65,0,0,0,.39.11h.2" transform="translate(-0.5 -0.5)"/><path class="cls-2" d="M267.66,87V89h-.16a3.67,3.67,0,0,0-.32-1,1.2,1.2,0,0,0-.46-.51,1.13,1.13,0,0,0-.58-.11h-.45v6a3.22,3.22,0,0,0,.05.73.58.58,0,0,0,.2.27.66.66,0,0,0,.4.11h.19v.21h-3.1v-.21h.19a.7.7,0,0,0,.42-.12.59.59,0,0,0,.18-.28,3.32,3.32,0,0,0,0-.71v-6h-.44a1,1,0,0,0-.87.34,2.46,2.46,0,0,0-.5,1.32h-.15V87h5.36" transform="translate(-0.5 -0.5)"/><path class="cls-2" d="M271.07,87.38v3.17h.11a.88.88,0,0,0,.82-.47,3.72,3.72,0,0,0,.32-1.37h.16v4.06h-.16a4.09,4.09,0,0,0-.22-1.09.93.93,0,0,0-1-.71v2.17a5.9,5.9,0,0,0,0,.79.51.51,0,0,0,.16.23.56.56,0,0,0,.36.09H272a1.76,1.76,0,0,0,1.33-.51,3.08,3.08,0,0,0,.72-1.53h.17l-.27,2.47h-5.14v-.21H269a.66.66,0,0,0,.41-.12.68.68,0,0,0,.18-.28,3.32,3.32,0,0,0,0-.71v-5.1a4.34,4.34,0,0,0,0-.64.54.54,0,0,0-.16-.31.61.61,0,0,0-.45-.16h-.21V87h5v2.26h-.15a3.43,3.43,0,0,0-.36-1.19,1.47,1.47,0,0,0-.66-.54,3,3,0,0,0-.92-.1h-.6" transform="translate(-0.5 -0.5)"/><path class="cls-2" d="M278.13,87.55a1.83,1.83,0,0,1,.73.94,6.72,6.72,0,0,1,.35,2.38,5.63,5.63,0,0,1-.52,2.73,1.24,1.24,0,0,1-1.12.65.53.53,0,0,1-.34-.09.25.25,0,0,1-.12-.16,3.21,3.21,0,0,1,0-.59v-6a2.17,2.17,0,0,1,1.05.18m-.66,7.13a3.51,3.51,0,0,0,.85-.08,4,4,0,0,0,1-.41,2.77,2.77,0,0,0,.73-.72,3.54,3.54,0,0,0,.52-1.14,5,5,0,0,0,.21-1.5,5.26,5.26,0,0,0-.41-2.11,2.93,2.93,0,0,0-1.21-1.4,3.36,3.36,0,0,0-1.71-.37H274.8v.2h.2a.68.68,0,0,1,.4.11.52.52,0,0,1,.19.26,2.84,2.84,0,0,1,.05.74v5.1a4.46,4.46,0,0,1,0,.71.64.64,0,0,1-.21.29.64.64,0,0,1-.4.11h-.2v.21h2.67" transform="translate(-0.5 -0.5)"/><path class="cls-2" d="M106.71,49.56C96.6,49.44,90.37,54.81,89,62.34,87.48,70.65,91.57,77,100.93,77.2c8.92.23,15.32-3.38,17.66-12.13s-3.39-15.42-11.88-15.51m4.41,13.17c-.38,3.59-2,8.66-8.32,8.73-5.23.07-6.16-4.36-6.24-6.7s1.23-9,8.09-9.52h.26c4.94,0,6.59,3.91,6.21,7.5" transform="translate(-0.5 -0.5)"/><path class="cls-3" d="M89,83.05v.75H280.18v-.75H89" transform="translate(-0.5 -0.5)"/><path class="cls-2" d="M165.65,111.51l-.08,0a.51.51,0,0,1-.16-.09,1,1,0,0,1-.1-.17.78.78,0,0,1,0-.22,1,1,0,0,1,.05-.3.73.73,0,0,1,.15-.25.66.66,0,0,1,.24-.17.48.48,0,0,1,.26-.06.46.46,0,0,1,.21,0,.44.44,0,0,1,.15.12.42.42,0,0,1,.11.18.56.56,0,0,1,0,.23.67.67,0,0,1-.06.28,1,1,0,0,1-.16.24.79.79,0,0,1-.24.15.58.58,0,0,1-.26.05h-.12" transform="translate(-0.5 -0.5)"/><path class="cls-2" d="M165.71,110.25l-.25.18-.16.27-.05.3,0,.23.11.17.16.1.08,0h.13l.27-.06.24-.15.17-.25.06-.29,0-.24-.12-.19-.16-.13-.22,0-.27.06m-.28,1.12-.09-.16,0-.21,0-.29.15-.25.23-.16.25-.06.2,0,.14.12.11.17,0,.22-.05.27-.16.23-.23.15-.25,0h-.11l-.09,0-.14-.09m.93-1h0" transform="translate(-0.5 -0.5)"/><path class="cls-2" d="M168.34,111.51l-.08,0a.46.46,0,0,1-.15-.09.62.62,0,0,1-.11-.17.78.78,0,0,1,0-.22,1,1,0,0,1,.05-.3.76.76,0,0,1,.16-.25.63.63,0,0,1,.23-.17.52.52,0,0,1,.26-.06.46.46,0,0,1,.21,0,.4.4,0,0,1,.16.12.42.42,0,0,1,.11.18.8.8,0,0,1,0,.23.67.67,0,0,1-.06.28.78.78,0,0,1-.16.24.61.61,0,0,1-.24.15.58.58,0,0,1-.26.05h-.12" transform="translate(-0.5 -0.5)"/><path class="cls-2" d="M168.4,110.25l-.24.18-.16.27-.05.3,0,.23.11.17.16.1.09,0h.12l.27-.06.24-.15.17-.25.07-.29,0-.24-.12-.19-.16-.13-.22,0-.27.06m-.27,1.12-.1-.16,0-.21,0-.29.16-.25.22-.16.25-.06.21,0,.14.12.1.17,0,.22-.06.27-.16.23-.23.15-.25,0h-.11l-.08,0-.14-.09m.92-1h0" transform="translate(-0.5 -0.5)"/><path class="cls-2" d="M171,111.51l-.09,0a.46.46,0,0,1-.15-.09.42.42,0,0,1-.1-.17.78.78,0,0,1,0-.22,1,1,0,0,1,.05-.3,1,1,0,0,1,.16-.25.72.72,0,0,1,.23-.17.52.52,0,0,1,.26-.06.46.46,0,0,1,.21,0,.4.4,0,0,1,.16.12.42.42,0,0,1,.11.18.8.8,0,0,1,0,.23.55.55,0,0,1-.06.28.63.63,0,0,1-.16.24.69.69,0,0,1-.24.15.58.58,0,0,1-.26.05H171" transform="translate(-0.5 -0.5)"/><path class="cls-2" d="M171.09,110.25l-.24.18-.16.27-.05.3,0,.23.1.17.16.1.09,0h.12l.28-.06.23-.15.18-.25,0-.29,0-.24-.11-.19-.16-.13-.23,0-.27.06m-.27,1.12-.1-.16,0-.21,0-.29.16-.25.22-.16.25-.06.21,0,.14.12.11.17,0,.22-.06.27-.16.23-.22.15-.26,0H171l-.08,0-.14-.09m.93-1h0" transform="translate(-0.5 -0.5)"/><path class="cls-2" d="M174,106.08a.08.08,0,0,1,0,0,.17.17,0,0,0,0,0,.13.13,0,0,0,0-.06.13.13,0,0,1,0-.06,1.25,1.25,0,0,0-.08-.27.68.68,0,0,0-.1-.21.58.58,0,0,0-.19-.15,1.22,1.22,0,0,0-.34-.12l0-.31h2.31l0,.29s0,0,0,0h-.07a.78.78,0,0,0-.21,0,.64.64,0,0,0-.18.1.28.28,0,0,0-.13.15.53.53,0,0,0,0,.23v.1s0,0,0,.06v.1h0a0,0,0,0,0,0,0h0v0h0a0,0,0,0,0,0,0h0v0h0v0l.57,4.16,1.73-3.85h0a0,0,0,0,1,0,0v0c0-.14-.05-.28-.08-.41s-.07-.25-.11-.36a.67.67,0,0,0-.22-.28,1,1,0,0,0-.39-.16l.05-.31h2.28l0,.29,0,0h0l-.24,0a.75.75,0,0,0-.18.07.23.23,0,0,0-.14.15.75.75,0,0,0,0,.28l0,.24.58,4.31,1.79-4,0,0a.07.07,0,0,0,0,0,.21.21,0,0,0,0-.06s0,0,0-.07,0,0,0,0,0,0,0,0,0,0,0,0a.05.05,0,0,1,0,0s0,0,0,0a.06.06,0,0,1,0,0s0,0,0,0,0,0,0,0a.11.11,0,0,0,0-.07v-.07a.45.45,0,0,0,0-.2.43.43,0,0,0-.11-.12.6.6,0,0,0-.15-.09.37.37,0,0,0-.18-.05h-.18l0-.31h2.16l0,.29a2.51,2.51,0,0,0-.38.11.7.7,0,0,0-.28.17,1.59,1.59,0,0,0-.2.24,2.16,2.16,0,0,0-.18.3l0,0s0,0,0,0,0,0,0,0,0,0,0,0l0,0v0s0,0,0,0,0,0,0,0l-2.47,5.28H178l-.62-4.3-2,4.3h-.58l-.83-5.36" transform="translate(-0.5 -0.5)"/><path class="cls-2" d="M180.09,105.11v0h.21l.17,0,.15.08.1.13,0,.18a.33.33,0,0,1,0,.13l0,.12a.85.85,0,0,1,0,.09l0,.09-.06.13,0,.08-1.8,4s0,0,0,0c0-.3-.54-4.29-.54-4.29l0-.24,0-.26.12-.13.19-.08.23-.05s.09-.33.09-.33l-2.31,0a2.58,2.58,0,0,0-.07.34s.39.18.39.18l.22.27.1.36.09.4c0,.05-1.71,3.88-1.71,3.88v0c0-.29-.54-4.14-.54-4.14v0l0-.08s0,0,0,0l0-.22v-.1l0-.23.12-.14.18-.08.21,0,.08,0h0s.05-.31.05-.31l-2.34,0a2.45,2.45,0,0,0-.06.34s.34.14.34.14l.19.14.1.2.08.27a.44.44,0,0,0,0,.12l0,.11h0l.84,5.35.6,0s2-4.31,2-4.31h0c0,.28.58,4.28.58,4.28l.61,0s2.5-5.29,2.5-5.29l0-.1a.44.44,0,0,0,.05-.09l.22-.36.2-.23.26-.16.38-.12a2.22,2.22,0,0,0,.07-.31l-2.18,0a2.58,2.58,0,0,0-.07.34m-6.76-.31,2.29,0s-.06.27-.06.27h-.06l-.21,0-.2.09-.13.16-.05.25v.1c0,.06,0,.1,0,.1v.09l0,.11s.57,4.17.57,4.17,1.77-3.84,1.77-3.84-.09-.46-.09-.46l-.11-.37-.22-.29-.4-.16a1.53,1.53,0,0,0,.07-.29l2.25,0s-.06.27-.06.27l-.25,0-.19.08-.14.17,0,.28,0,.24.57,4.31c.05,0,1.84-4,1.84-4a.54.54,0,0,0,0-.08.53.53,0,0,0,.06-.13.49.49,0,0,0,0-.11l0-.07a.64.64,0,0,1,0-.12l0-.08v-.07l-.05-.2-.12-.15-.15-.09-.18,0-.19,0s.07-.29.07-.29l2.13,0a1.25,1.25,0,0,0-.07.26s-.36.1-.36.1l-.29.18-.2.23-.18.31-.06.09,0,.1-2.5,5.34-.57,0h0c0-.14-.6-4.28-.6-4.28s-2,4.3-2,4.3l-.56,0c0-.13-.81-5.33-.81-5.33l-.05-.22-.08-.28-.11-.21-.21-.17-.33-.11a1.47,1.47,0,0,0,.05-.29" transform="translate(-0.5 -0.5)"/><path class="cls-2" d="M184.05,107v0h0a1.36,1.36,0,0,1,.29.06.67.67,0,0,1,.25.13.55.55,0,0,1,.18.22.58.58,0,0,1,.07.3.85.85,0,0,1-.12.46.91.91,0,0,1-.35.32,4.37,4.37,0,0,1-.49.23,4.44,4.44,0,0,1-.52.15l-.34,0-.31,0-.28,0h-.24a.36.36,0,0,0,0-.11.52.52,0,0,1,0-.11l0-.12s0-.08,0-.11a3.41,3.41,0,0,1,.28-.54,3.73,3.73,0,0,1,.4-.51,1.52,1.52,0,0,1,.46-.35l.25-.13.3,0m1,3.36v0a.31.31,0,0,1-.09.07.47.47,0,0,1-.09.06l-.09.06-.09.06-.31.19-.31.16-.33.1a2.22,2.22,0,0,1-.37,0,1.7,1.7,0,0,1-.51-.08,1.44,1.44,0,0,1-.42-.24,1,1,0,0,1-.28-.4,1.55,1.55,0,0,1-.09-.55v-.12s0,0,0-.06a.13.13,0,0,1,0-.06l0-.12a.52.52,0,0,0,0-.11l.31,0,.4,0,.44-.06.46-.07a5.44,5.44,0,0,0,.72-.2,4.15,4.15,0,0,0,.64-.29,1.09,1.09,0,0,0,.46-.41,1,1,0,0,0,.16-.55.93.93,0,0,0-.08-.39.66.66,0,0,0-.24-.28,3.62,3.62,0,0,0-.32-.22,2.17,2.17,0,0,0-.36-.12l-.12,0-.13,0h-.62a3.57,3.57,0,0,0-.47.11,2.62,2.62,0,0,0-.46.19,4.45,4.45,0,0,0-.43.26,2.33,2.33,0,0,0-.38.31,2.14,2.14,0,0,0-.37.42,4,4,0,0,0-.29.49,2.82,2.82,0,0,0-.3,1.11s0,0,0,0v.11a1.87,1.87,0,0,0,.15.78,1.54,1.54,0,0,0,.45.57,2,2,0,0,0,.63.35,2.33,2.33,0,0,0,.7.11h.22l.11,0h.1a2.56,2.56,0,0,0,.48-.1,2.82,2.82,0,0,0,.48-.19,4.64,4.64,0,0,0,.44-.26c.13-.11.26-.21.38-.33l-.23-.27" transform="translate(-0.5 -0.5)"/><path class="cls-2" d="M183.74,107l-.25.12-.47.37-.4.5-.28.54-.09.24-.06.22s.26,0,.26,0h.28l.31,0,.34-.05.53-.15.49-.22.36-.34.12-.47-.06-.31-.2-.23-.25-.14-.3,0,0,0-.31,0m.31,0,0,0,.28,0,.24.13.18.21.06.29-.11.44-.34.32-.49.23-.52.14-.33,0-.28,0-.24,0-.29,0s0-.08,0-.08l0-.12.09-.23.27-.54.39-.49.46-.35.25-.12.29,0" transform="translate(-0.5 -0.5)"/><path class="cls-2" d="M184.14,106.61l-.09,0H184l-.09,0-.48.11-.47.19-.43.26-.38.31-.37.42-.29.51-.21.55-.09.56v.12a2,2,0,0,0,.15.82,1.6,1.6,0,0,0,.45.58l.64.35.71.11h.22l.22,0,.48-.1.48-.19.44-.26.38-.33a2.77,2.77,0,0,0-.22-.31h0l0,0-.09.07-.19.12-.08.06-.31.19-.31.15-.33.1-.36,0-.5-.08-.42-.23-.27-.39-.08-.54v-.12a.84.84,0,0,1,0-.12l0-.11,0-.12a1.4,1.4,0,0,0,.29,0l.4,0,.45,0,.46-.08.72-.2.65-.29a1.11,1.11,0,0,0,.46-.42l.16-.56-.08-.4-.24-.29-.33-.21-.36-.13-.13,0-.26,0h-.21m-1.06,4.88-.7-.11-.62-.34a1.61,1.61,0,0,1-.44-.56,2,2,0,0,1-.14-.77v-.11s.1-.59.1-.59l.21-.55.28-.49.36-.41.38-.31.43-.26.46-.18.47-.11.09,0h.09l.11,0h.18l.26,0,.12,0,.35.12.33.2.23.28.07.38-.15.54a1.11,1.11,0,0,1-.45.4l-.64.28-.71.2-.46.07-.44.06-.4,0h-.31a.3.3,0,0,0,0,.13l0,.12,0,.13v.12l.09.56.29.4.43.25.52.09.37,0,.34-.1.32-.16.3-.19.09-.06.19-.12.08-.06.2.23a3.47,3.47,0,0,0-.38.29l-.43.26-.47.19-.48.1-.22,0-.11,0h-.1m1.66-4.81h0" transform="translate(-0.5 -0.5)"/><path class="cls-2" d="M190.5,105.39l-.78,4.78a.18.18,0,0,0,0,.06v.12a.06.06,0,0,0,0,0v.22s0,.07,0,.11l0,.1a.36.36,0,0,1,0,.09.63.63,0,0,0,.1.12.34.34,0,0,0,.11.07l.13,0,.13,0h.17l-.05.3h-2.12l.05-.3a1.15,1.15,0,0,0,.44-.08.53.53,0,0,0,.25-.21,1.19,1.19,0,0,0,.15-.32,2.39,2.39,0,0,0,.1-.44l.65-4a0,0,0,0,1,0,0V106l0,0v-.1s0,0,0,0v0a.75.75,0,0,0,0-.26.43.43,0,0,0-.11-.2.4.4,0,0,0-.16-.12.52.52,0,0,0-.23-.07l-.11,0,.05-.29h2l.82,5.12,2.61-5.12h1.93l-.05.29a1.62,1.62,0,0,0-.45.12.58.58,0,0,0-.26.22,1.19,1.19,0,0,0-.15.32,3.83,3.83,0,0,0-.11.43l-.65,4a.18.18,0,0,0,0,.06.06.06,0,0,0,0,0v0h0a0,0,0,0,1,0,0v.07s0,0,0,0v.09a1,1,0,0,0,0,.27.47.47,0,0,0,.12.19.45.45,0,0,0,.17.13.84.84,0,0,0,.24.06h.1l0,.3h-2.47l.06-.3a1.08,1.08,0,0,0,.44-.08.62.62,0,0,0,.26-.21,1.61,1.61,0,0,0,.14-.32,3.64,3.64,0,0,0,.1-.44l.74-4.61-3,6h-.39l-1-6" transform="translate(-0.5 -0.5)"/><path class="cls-2" d="M192.12,109.91v0c0-.25-.77-5.1-.77-5.1l-2,0a1.43,1.43,0,0,0-.07.32.55.55,0,0,0,.13,0l.22.07.15.12.11.19,0,.25v.12a.94.94,0,0,0,0,.12s-.67,4.08-.67,4.08l-.09.43-.15.32-.24.2-.43.08a2.34,2.34,0,0,0-.07.32l2.14,0a2.22,2.22,0,0,0,.07-.31s-.19,0-.19,0l-.13,0-.11,0-.11-.06-.1-.12,0-.08,0-.1,0-.1v-.34a.3.3,0,0,1,0-.09s.64-3.92.75-4.63c.05.28.94,5.89.94,5.89l.41,0s3.05-6,3.06-6-.79,4.6-.79,4.6l-.1.43-.14.32-.24.2-.44.08a2.54,2.54,0,0,0-.09.31l2.5,0a2.1,2.1,0,0,0,.06-.31s-.13,0-.13,0l-.24-.06-.16-.12-.11-.19,0-.26v-.09a1.11,1.11,0,0,1,0-.18c0-.06.66-4,.66-4l.11-.44.15-.31.26-.21.43-.12a1.35,1.35,0,0,0,.07-.31l-1.95,0s-2.63,5.13-2.63,5.14m-2.76-5.11,2,0c0,.13.8,5.1.8,5.1s2.65-5.11,2.65-5.11h1.91s-.07.26-.07.26-.43.11-.43.11l-.29.23-.15.32-.11.44-.64,4,0,.1v.19s0,.32,0,.32l.12.2.18.13.25.07h.1a1.47,1.47,0,0,0-.06.27l-2.44,0s.09-.25.09-.26l.42-.07.27-.21.14-.33.1-.44.75-4.62s-3.09,6-3.09,6l-.36,0c0-.12-.93-6-.93-6h-.05l-.78,4.78a.35.35,0,0,0,0,.1.68.68,0,0,1,0,.12v.33l0,.11,0,.09a1.5,1.5,0,0,0,.11.13l.12.07.12,0,.14,0h.16a1.54,1.54,0,0,0-.07.27l-2.08,0a1.22,1.22,0,0,0,.06-.26s.43-.07.43-.07l.26-.21.16-.33.09-.44.66-4a.45.45,0,0,1,0-.1v-.16c0-.1,0-.31,0-.31l-.12-.2-.17-.14-.23-.06-.11,0a1.31,1.31,0,0,0,.06-.27m.45.5h0m.19,5.82h0" transform="translate(-0.5 -0.5)"/><path class="cls-2" d="M200.26,107.61v0l0,0v.09a.42.42,0,0,1,0,.12s0,.08,0,.12V108a.13.13,0,0,0,0,.06.17.17,0,0,1,0,.05.13.13,0,0,1,0,.06c0,.13-.05.26-.08.39L200,109c0,.13-.07.26-.1.39s-.09.25-.14.36a0,0,0,0,0,0,0,0,0,0,0,1,0,0v0a0,0,0,0,0,0,0s0,0,0,.05l0,0c-.08.14-.17.28-.26.41a3.92,3.92,0,0,1-.34.37,1.61,1.61,0,0,1-.4.26,1.08,1.08,0,0,1-.44.09.93.93,0,0,1-.39-.08.59.59,0,0,1-.26-.26,1.26,1.26,0,0,1-.15-.38,1.84,1.84,0,0,1-.05-.41c0-.07,0-.15,0-.23a1.94,1.94,0,0,0,0-.24c0-.08,0-.16.05-.25a1.29,1.29,0,0,1,.06-.25,4.28,4.28,0,0,1,.25-.68,3.62,3.62,0,0,1,.37-.62,1.38,1.38,0,0,1,.48-.43,1.32,1.32,0,0,1,.62-.15h.19a.67.67,0,0,1,.24.07l.23.09.22.16.09.08.08.1m1-.89h-.81l-.09.5a1,1,0,0,0-.21-.21,1.67,1.67,0,0,0-.26-.17l-.27-.11-.29-.07h-.19s0,0,0,0H199a2,2,0,0,0-1,.23,2.2,2.2,0,0,0-.79.68,3.13,3.13,0,0,0-.55.94,3.45,3.45,0,0,0-.22,1.05v.17a2.71,2.71,0,0,0,.09.71,1.89,1.89,0,0,0,.3.58,1.17,1.17,0,0,0,.49.39,1.62,1.62,0,0,0,.66.13,2,2,0,0,0,.56-.08,1.64,1.64,0,0,0,.48-.23,3.55,3.55,0,0,0,.4-.38,3.72,3.72,0,0,0,.35-.48h0v.14a1.35,1.35,0,0,0,.06.41.86.86,0,0,0,.17.33.66.66,0,0,0,.28.22.87.87,0,0,0,.37.07h.11l.11,0,.12,0,.13,0,.23-.11a1,1,0,0,0,.24-.14,1.62,1.62,0,0,0,.19-.18,1.16,1.16,0,0,0,.16-.21l-.22-.18a.71.71,0,0,1-.12.13.63.63,0,0,1-.13.11,1.19,1.19,0,0,1-.15.09l-.16,0h-.06a.64.64,0,0,1-.2,0,.65.65,0,0,1-.16-.13.69.69,0,0,1-.1-.17.46.46,0,0,1,0-.21.31.31,0,0,1,0-.1.41.41,0,0,1,0-.11s0-.07,0-.1a.52.52,0,0,1,0-.11l.52-3.3" transform="translate(-0.5 -0.5)"/><path class="cls-2" d="M198.58,107.23l-.5.44-.37.63-.25.68-.06.25,0,.25,0,.24V110l0,.42.15.38.27.27.4.09.44-.09.42-.27.33-.37.27-.42a.42.42,0,0,0,.05-.1.25.25,0,0,0,0-.09s.15-.38.15-.38l.1-.39.09-.39.09-.39,0-.11a1,1,0,0,0,0-.13l0-.11,0-.12a.24.24,0,0,1,0-.09v-.07l-.08-.1-.1-.08-.22-.16-.23-.1-.25-.06h-.19l-.63.15m-1.13,2,.07-.25.24-.68.36-.61.49-.43.6-.15.08,0h.11l.23.06.23.1.21.15.09.08.08.09-.08.36v.12a.65.65,0,0,0,0,.1l-.09.4L200,109l-.1.39-.13.36,0,.08,0,.08s-.3.46-.3.46l-.33.36-.39.26-.43.08-.38-.08-.25-.24-.14-.37-.05-.41v-.22l0-.25,0-.24" transform="translate(-0.5 -0.5)"/><path class="cls-2" d="M198,106.84a2.29,2.29,0,0,0-.8.7,3.39,3.39,0,0,0-.56.94,3.78,3.78,0,0,0-.22,1.06v.09c0,.08.1.79.1.79l.29.6.5.39.68.13.57-.08.48-.23.41-.38.34-.48a3.83,3.83,0,0,0-.38.44l-.4.38-.46.22-.56.08-.66-.12-.48-.39-.28-.57-.1-.7v-.13a3.35,3.35,0,0,1,.22-1.08,3.45,3.45,0,0,1,.54-.94,2.46,2.46,0,0,1,.79-.67,2.07,2.07,0,0,1,1-.23l.1,0h.11a2.55,2.55,0,0,1,.36.08l.27.11.25.16.21.2a2.46,2.46,0,0,0,.13-.5h.77l-.52,3.28,0,.11a.31.31,0,0,1,0,.1v.21l0,.22.1.18.18.13.21,0a1.71,1.71,0,0,0,.23,0l.15-.08.14-.12.12-.13s.17.17.18.18-.16.17-.16.17l-.19.18-.22.14-.24.11-.13,0-.22,0h-.11l-.36-.06-.27-.21-.17-.33,0-.4v-.14h0s0,.13,0,.13l.05.41.18.35.29.22.38.07h.11l.24-.05.12,0,.25-.1.23-.15.2-.18.16-.21a2.27,2.27,0,0,0-.22-.22s-.15.13-.15.13l-.14.11-.14.08-.16,0-.24,0-.16-.11-.09-.17,0-.2v-.21l0-.09,0-.12.53-3.32h-.84a2.45,2.45,0,0,0-.11.5s-.18-.21-.18-.21l-.26-.17-.27-.11-.29-.07h-.21l-.09,0a2.16,2.16,0,0,0-1,.23m1.79,3.53h0" transform="translate(-0.5 -0.5)"/><path class="cls-2" d="M203.32,109.4l0,0,0,0s0,0,0,0,0,0,0,0a.08.08,0,0,0,0-.05s0-.07.07-.1a.21.21,0,0,1,.06-.1l.18-.29a3.15,3.15,0,0,1,.19-.27l.21-.27.22-.26.07-.06a.46.46,0,0,0,.07-.07l.07-.08a.23.23,0,0,0,.07-.07l0,0s0,0,0,0,0,0,0,0a0,0,0,0,0,0,0,3.51,3.51,0,0,1,.36-.29,4,4,0,0,1,.4-.28,4.23,4.23,0,0,1,.42-.22,1.69,1.69,0,0,1,.44-.12h.49a.39.39,0,0,1,.14,0,.47.47,0,0,1,.14.08.23.23,0,0,1,.1.12.33.33,0,0,1,0,.17.56.56,0,0,1-.05.23.52.52,0,0,1-.13.17,2,2,0,0,1-.19.12.52.52,0,0,1-.21,0h-.14a.29.29,0,0,1-.1,0l-.08,0a.26.26,0,0,1-.09,0h0s0,0,0,0h0a0,0,0,0,0,0,0h-.1a.09.09,0,0,0-.07,0H206l-.1,0-.1,0,0,0-.06,0-.06,0-.06,0-.12.07a.35.35,0,0,0-.1.08.36.36,0,0,0-.12.08l-.1.1v0h0l0,0,0,0a.08.08,0,0,1,0,0s0,0,0,0a2.57,2.57,0,0,0,.06.4l.06.4c0,.14.07.27.1.4a3.18,3.18,0,0,0,.11.38v0s0,0,0,0,0,0,0,0,0,0,0,0l0,.07,0,.07a2.17,2.17,0,0,0,.16.38c.07.12.14.24.22.35a.73.73,0,0,0,.29.24.87.87,0,0,0,.4.08h.16l.06,0h.07l0,0h0l.07,0,.06,0,.16.2a1.54,1.54,0,0,1-.19.17l-.22.14-.23.11a.86.86,0,0,1-.23.06l-.08,0h-.47l-.07,0-.18,0-.16-.08-.16-.11a1.34,1.34,0,0,1-.11-.14,1.72,1.72,0,0,1-.24-.34,2.41,2.41,0,0,1-.17-.43c0-.16-.09-.31-.14-.47s-.08-.33-.11-.5a1.16,1.16,0,0,0,0-.18c0-.06,0-.13,0-.19s0-.07,0-.1v-.09a.13.13,0,0,1,0-.09.29.29,0,0,1,0-.09l-.24.31-.2.26a2.79,2.79,0,0,0-.17.25,1.76,1.76,0,0,0-.14.23c-.07.12-.13.25-.19.37s-.1.26-.14.39-.06.29-.1.46,0,.36-.08.56h-.82l.88-5.45h0v0a0,0,0,0,1,0,0,0,0,0,0,0,0,0v0a.11.11,0,0,1,0-.05v0s0,0,0,0v-.18s0,0,0,0v0a.45.45,0,0,0,0-.2.25.25,0,0,0-.12-.13.56.56,0,0,0-.16-.07.33.33,0,0,0-.17,0h-.15l0-.32a2,2,0,0,0,.35,0l.31,0,.33-.07.3-.12.32,0-.8,5" transform="translate(-0.5 -0.5)"/><path class="cls-2" d="M203.8,104.45l-.31.11-.32.08-.32,0-.34,0a1.45,1.45,0,0,0-.06.33v0h.14l.2,0,.15.07.12.12,0,.19,0,.32a.23.23,0,0,0,0,.09V106s-.89,5.44-.89,5.44l.85,0a.77.77,0,0,0,0-.17l.06-.41.1-.46.14-.39.18-.37.14-.23.16-.25.21-.26.24-.3c-.05,0,0,.08,0,.08a.64.64,0,0,0,0,.09V109l.08.37.11.5.14.48.17.43.24.35.11.13.17.12.16.08.18.06.15,0a.35.35,0,0,1,.12,0H206l.16,0,.32-.09.23-.11.22-.14.2-.17a1.66,1.66,0,0,0-.16-.24h0l-.08,0-.07,0-.08,0-.13,0h-.09c-.06,0-.44-.08-.44-.08l-.3-.24-.21-.34-.16-.37-.06-.15,0-.09h0s-.12-.43-.12-.43l-.09-.39-.07-.4L205,108s0-.06,0-.06a.22.22,0,0,0,.07-.06l.1-.09.11-.08.11-.08.11-.07.08,0,.09,0,.16,0H206l.11,0,.11,0,.09,0,.1.06.08,0,.11,0h.12l.24,0,.2-.12.14-.18,0-.24,0-.18-.11-.13-.15-.09-.15,0-.2,0h-.22c-.08,0-.52.14-.52.14l-.42.23-.41.27-.36.29-.07.06-.08.09-.08.08-.07.07-.07.06-.22.27-.21.26-.19.27-.18.29-.07.11-.06.1-.05.1h0l.12-.09.05-.11.07-.09.18-.29.19-.27.21-.26.22-.26.14-.14.07-.07.07-.08.07-.05.37-.31.41-.27.41-.23.44-.12.14,0h.11a.15.15,0,0,1,.1,0h.11l.16,0,.13.08.09.11,0,.16,0,.22-.13.16-.18.11-.2,0h-.13l-.1,0-.08,0-.08-.05-.08,0-.1,0-.1,0h-.17l-.11,0-.11,0-.12.05-.12.06-.11.09-.12.09-.09.09-.07.06L205,108l.06.42.07.39.09.4.12.39,0,.11a.61.61,0,0,0,.05.11c0,.07.19.45.19.45l.22.35.3.26.41.08h.11l.11,0,.12,0,.11,0s.19.16.19.17-.18.12-.18.12l-.22.15-.23.11-.23.06-.16,0h-.3l-.07,0a1.78,1.78,0,0,1-.25-.07l-.16-.07-.15-.11-.12-.13-.22-.34-.17-.43-.14-.47-.11-.5-.08-.37,0-.09v-.09c0-.07,0-.18,0-.18s-.28.29-.28.29l-.2.26-.17.25-.15.23-.18.38-.15.39-.09.47-.09.56-.79,0s.9-5.42.9-5.42a.68.68,0,0,0,0-.12l0-.09,0-.21v0a2.07,2.07,0,0,0,0-.26l-.14-.14-.16-.08-.18,0h-.1s0,0,0,0,0-.25,0-.25a1.82,1.82,0,0,0,.33,0l.32,0,.32-.08.31-.12h.31s-.83,4.92-.83,4.92l.06,0c0-.11.79-4.91.79-4.91a1.92,1.92,0,0,0-.34,0m3.36,2.32h0m-1.64.74h0m-.91.25h0m-1.26,1.6h0s0,0,0,0v0m0,0h0v0l0,0" transform="translate(-0.5 -0.5)"/><path class="cls-2" d="M210.25,107v0h0a1.36,1.36,0,0,1,.29.06.76.76,0,0,1,.44.35.7.7,0,0,1,.06.3.85.85,0,0,1-.12.46.91.91,0,0,1-.35.32,4.23,4.23,0,0,1-.48.23,5.26,5.26,0,0,1-.53.15l-.33,0-.32,0-.27,0h-.24l0-.11a.52.52,0,0,1,0-.11l.05-.12a.76.76,0,0,0,0-.11,2.32,2.32,0,0,1,.29-.54,4.49,4.49,0,0,1,.38-.51,1.85,1.85,0,0,1,.47-.35L210,107l.3,0m1,3.36v0l-.09.07-.1.06a.33.33,0,0,1-.1.06l-.08.06-.31.19-.31.16-.33.1a2.22,2.22,0,0,1-.37,0,1.65,1.65,0,0,1-.51-.08,1.44,1.44,0,0,1-.42-.24,1,1,0,0,1-.28-.4,1.55,1.55,0,0,1-.09-.55v-.12s0,0,0-.06a.13.13,0,0,1,0-.06.5.5,0,0,1,0-.12.52.52,0,0,0,0-.11l.32,0,.39,0,.45-.06.46-.07a5.75,5.75,0,0,0,.71-.2,4.15,4.15,0,0,0,.64-.29,1.12,1.12,0,0,0,.47-.41,1,1,0,0,0,.15-.55.93.93,0,0,0-.08-.39.63.63,0,0,0-.23-.28l-.33-.22a2.53,2.53,0,0,0-.36-.12l-.12,0-.13,0h-.61a3.72,3.72,0,0,0-.48.11,3.45,3.45,0,0,0-.46.19c-.15.08-.29.17-.43.26a2.33,2.33,0,0,0-.38.31,2.14,2.14,0,0,0-.37.42c-.1.15-.2.32-.29.49a3.42,3.42,0,0,0-.21.55,5,5,0,0,0-.09.56v.15a1.87,1.87,0,0,0,.14.78,1.65,1.65,0,0,0,.45.57,2.06,2.06,0,0,0,.63.35,2.35,2.35,0,0,0,.71.11h.21l.11,0h.1a2.66,2.66,0,0,0,.49-.1,3.08,3.08,0,0,0,.47-.19l.44-.26a4.09,4.09,0,0,0,.38-.33l-.22-.27" transform="translate(-0.5 -0.5)"/><path class="cls-2" d="M210,107l-.26.12-.47.37-.4.5-.28.54-.09.24-.06.22s.27,0,.27,0h.27l.32,0,.33-.05.53-.15.5-.22.35-.34.13-.47-.07-.31-.2-.23-.25-.14-.3,0,0,0-.3,0m.3,0,0,0,.28,0,.24.13.19.21.06.29-.12.44-.34.32-.49.23-.52.14-.33,0-.28,0-.23,0-.3,0s0-.08,0-.08l0-.12.09-.23.28-.54.38-.49.46-.35L210,107l.29,0" transform="translate(-0.5 -0.5)"/><path class="cls-2" d="M210.35,106.61l-.1,0h-.09l-.1,0-.47.11-.47.19-.43.26-.39.31-.37.42-.29.51-.21.55-.09.56v.12a2,2,0,0,0,.15.82,1.62,1.62,0,0,0,.45.58l.64.35.72.11h.21l.22,0,.48-.1.48-.19.45-.26.38-.33a2.77,2.77,0,0,0-.22-.31h0l0,0-.09.07-.18.12-.09.06-.31.19-.31.15-.33.1-.36,0-.5-.08-.42-.23-.27-.39-.09-.54v-.12l0-.12,0-.11v-.12a1.5,1.5,0,0,0,.3,0l.39,0,.45,0,.46-.08.72-.2.64-.29a1.11,1.11,0,0,0,.48-.42l.15-.56-.08-.4-.24-.29-.33-.21-.36-.13-.13,0-.26,0h-.2m-1.06,4.88-.7-.11L208,111a1.48,1.48,0,0,1-.43-.56,1.86,1.86,0,0,1-.15-.77v-.11s.1-.59.1-.59l.21-.55L208,108l.37-.41.37-.31.43-.26.46-.18.47-.11.09,0h.09l.11,0h.19l.26,0,.12,0,.35.12.32.2.23.28.07.38-.14.54a1.21,1.21,0,0,1-.46.4l-.64.28-.71.2-.46.07-.44.06-.4,0h-.31a.3.3,0,0,0,0,.13l0,.12a.48.48,0,0,0,0,.13v.12l.09.56.28.4.43.25.52.09.37,0,.34-.1.32-.16.3-.19.09-.06.19-.12.08-.06.2.23a3.47,3.47,0,0,0-.38.29l-.43.26-.47.19-.48.1-.21,0-.12,0h-.09m1.65-4.81h0" transform="translate(-0.5 -0.5)"/><path class="cls-2" d="M220.82,106.72h-.29a2.93,2.93,0,0,0-.28-.56,4.29,4.29,0,0,0-.36-.48,1.33,1.33,0,0,0-.48-.33,1.46,1.46,0,0,0-.6-.12.48.48,0,0,0-.22,0,.22.22,0,0,0-.13.08,1.36,1.36,0,0,0-.11.35v0h0v0l-.72,4.39a.39.39,0,0,0,0,.06v.12a.06.06,0,0,0,0,0v.22s0,.07,0,.11a.93.93,0,0,0,0,.1.2.2,0,0,0,.05.09,0,0,0,0,0,0,0v0s0,0,0,0l0,0,.09.08.11.05.11,0h.3l0,.3h-2.68l0-.3H216l.14,0h.07l.06,0,.07,0,.06,0,0,0,0,0s0,0,0,0l0,0a1.08,1.08,0,0,0,.19-.31,1.21,1.21,0,0,1,0-.18c0-.06,0-.12,0-.19v-.1s0,0,0,0l.7-4.38h0v-.06s0,0,0,0v-.13h0v0h0a.19.19,0,0,0,0-.12.13.13,0,0,0-.06-.07l-.09,0h-.19a1.68,1.68,0,0,0-.63.12,2.09,2.09,0,0,0-.56.35,3.78,3.78,0,0,0-.49.49,3.69,3.69,0,0,0-.4.55l-.29,0,.75-1.92h5.08l.23,1.92" transform="translate(-0.5 -0.5)"/><path class="cls-2" d="M214.74,106.71a1.24,1.24,0,0,0,.31.05s.41-.56.41-.56l.5-.49.55-.33.62-.12h.19l.08,0,0,0,0,.11,0,.09a.31.31,0,0,1,0,.09l-.72,4.45,0,.08v0s0,.21,0,.21l0,.18-.07.16-.12.14-.07.08-.1.07-.12,0-.2,0h-.25a1.43,1.43,0,0,0-.07.32l2.71,0a2.1,2.1,0,0,0,.06-.31s-.2,0-.2,0h-.12l-.11,0-.09,0-.09-.08-.06-.07,0-.09,0-.1v-.44a.3.3,0,0,1,0-.09l.73-4.39a2.26,2.26,0,0,1,0-.28l.06-.15.12-.07.21,0,.59.11.47.33.36.48.28.55h.33l-.22-1.95-5.11,0s-.77,1.94-.77,1.94m.79-1.91,5.06,0h0c0,.16.19,1.78.2,1.86h-.25s-.27-.54-.27-.54l-.36-.49-.49-.34-.61-.11-.23,0-.13.1-.07.15-.06.21c0,.08-.72,4.46-.72,4.46l0,.11a.25.25,0,0,1,0,.12v.33l0,.11.05.1a.3.3,0,0,0,.07.07l.1.09.11,0,.11,0,.13,0h.18s-.07.27-.07.27l-2.65,0a1.22,1.22,0,0,0,.06-.26l.07,0H216l.14,0,.13,0a.88.88,0,0,0,.14-.08l.09-.08.14-.18.08-.16,0-.18,0-.2a.31.31,0,0,1,0-.09s.72-4.43.72-4.43a.17.17,0,0,1,0-.07h0l0-.09v0c0-.06,0-.2,0-.2l-.08-.07-.09,0h-.19l-.65.12-.57.35-.49.49-.4.56a1.17,1.17,0,0,0-.27,0s.77-1.89.77-1.89" transform="translate(-0.5 -0.5)"/><path class="cls-2" d="M221.55,105.93a.64.64,0,0,0,0-.07.17.17,0,0,1,0-.07v-.05a.06.06,0,0,1,0,0v-.09a.6.6,0,0,0,0-.2.17.17,0,0,0-.08-.13.36.36,0,0,0-.12-.08,1,1,0,0,0-.18-.06l-.22,0,0-.3h.14l.05,0,.27,0,.28-.07.28-.07.27-.12.32,0-.48,3,.09,0,.09-.06.09-.06.09-.07.35-.22.37-.17a2.4,2.4,0,0,1,.38-.12,2,2,0,0,1,.43,0h.21a1.16,1.16,0,0,1,.32.08,1.34,1.34,0,0,1,.31.17.53.53,0,0,1,.22.25.94.94,0,0,1,.07.39v.11a.09.09,0,0,0,0,0v.06a15.35,15.35,0,0,0,0,.23.64.64,0,0,1,0,.07v.07s0,0,0,.07v.06a.07.07,0,0,0,0,0,.11.11,0,0,0,0,.05.06.06,0,0,0,0,0,.11.11,0,0,0,0,0l-.24,1.42V110s0,0,0,0v0a0,0,0,0,0,0,0v.06a0,0,0,0,0,0,0v.06h0v0a.1.1,0,0,1,0,0v0a.11.11,0,0,0,0,0v0a.2.2,0,0,0,0,.07v.07a.4.4,0,0,0,0,.2.39.39,0,0,0,.1.16.36.36,0,0,0,.17.11.58.58,0,0,0,.19,0,.47.47,0,0,0,.17,0l.17-.07.14-.12a.58.58,0,0,0,.14-.13l.2.2a1.31,1.31,0,0,1-.23.24,1,1,0,0,1-.24.17,1.09,1.09,0,0,1-.29.14,1.4,1.4,0,0,1-.28.06h-.19a1.44,1.44,0,0,1-.37,0,.92.92,0,0,1-.3-.18.77.77,0,0,1-.19-.3,1.14,1.14,0,0,1-.06-.39v-.15a.19.19,0,0,1,0-.08s0-.06,0-.08v-.09a.64.64,0,0,0,0-.07.22.22,0,0,0,0-.08.25.25,0,0,1,0-.07l.27-1.77h0V108h0V108a.08.08,0,0,1,0,0v-.09a0,0,0,0,1,0,0v-.08a.72.72,0,0,0-.05-.27.45.45,0,0,0-.14-.19.71.71,0,0,0-.21-.11l-.23,0h-.17l-.17,0-.07,0-.08,0-.09,0-.09,0-.18.09-.19.11-.18.11-.16.12-.07.05,0,0-.07.06-.05,0-.58,3.54h-.83l.9-5.51" transform="translate(-0.5 -0.5)"/><path class="cls-2" d="M222.29,104.45l-.28.11-.27.08-.29.07-.27.05-.08,0a.23.23,0,0,1-.09,0,1.35,1.35,0,0,0-.07.31.91.91,0,0,0,.23.08l.17,0,.12.08.08.11,0,.2v.09l0,.09,0,.12-.9,5.53.85,0s.6-3.56.6-3.56a.73.73,0,0,0,.11-.09l.07,0,.22-.16.18-.12.18-.1.18-.09.09,0,.09,0,.08,0,.24-.06h.16l.21,0,.21.11.14.18,0,.26a.23.23,0,0,1,0,.11V108h0v.19S224,110,224,110l0,.14a1.6,1.6,0,0,0,0,.17.64.64,0,0,0,0,.07v.16c0,.08.06.48.06.48l.2.3.31.19.37.06.19,0,.29-.07.29-.13.25-.19.23-.24a1.46,1.46,0,0,0-.2-.22s-.17.12-.17.12l-.15.11-.15.08-.17,0-.18,0-.16-.1-.1-.16,0-.19a1.13,1.13,0,0,1,0-.14.37.37,0,0,0,0-.08l0-.08v-.09a.35.35,0,0,1,0-.09V110l.25-1.49a.38.38,0,0,1,0-.08l0-.11,0-.13,0-.13,0-.12v-.12a.45.45,0,0,1,0-.1v-.12l-.07-.39-.23-.27-.31-.18-.33-.08H224l-.43,0-.39.13-.37.17-.36.22-.09.07-.08.06-.1.06-.08,0s.52-3,.52-3a2,2,0,0,0-.35,0m.32,0s-.51,3-.51,3,.13,0,.13,0l.09-.06.09-.06.09-.07.36-.21.36-.18.38-.12.42,0a.13.13,0,0,1,.08,0h.13l.31.08.3.17.21.25.07.37v.33l0,.12a1.13,1.13,0,0,0,0,.14.87.87,0,0,0,0,.13.58.58,0,0,0,0,.1.23.23,0,0,0,0,.09l-.23,1.42,0,.11,0,.11v.08l0,.08a.3.3,0,0,1,0,.09v.11c0,.07,0,.28,0,.28l.12.17.17.11.2,0,.18,0,.17-.07.15-.12a1.59,1.59,0,0,0,.13-.13s.17.19.17.19-.22.21-.22.21l-.24.18-.28.12-.28.07-.19,0-.36-.06-.29-.17L224,111l-.06-.38v-.15a1.55,1.55,0,0,1,0-.16l0-.16c0-.08,0-.14,0-.14l.27-1.77a.56.56,0,0,0,0-.1l0-.09h0a.36.36,0,0,1,0-.1v-.1l0-.09s-.06-.3-.06-.3l-.15-.2-.22-.12-.23,0h-.18l-.16,0-.08,0-.08,0-.18.07-.18.08-.19.11-.18.12-.16.12c-.06,0-.08,0-.08,0l-.12.1c-.06.06-.63,3.6-.63,3.6l-.81,0s.92-5.49.92-5.49l0-.32,0-.21-.09-.14-.14-.08-.18-.06-.21-.05a1.31,1.31,0,0,0,.06-.27s.08,0,.08,0l.09,0,.26,0,.29-.07.27-.08.28-.12h.31m-1.11.78h0m2.63,2h0" transform="translate(-0.5 -0.5)"/><path class="cls-2" d="M227.32,110.11v0l0,0h0v0h0a0,0,0,0,1,0,0v0a0,0,0,0,0,0,0v.13a1.52,1.52,0,0,0,0,.23,1,1,0,0,0,.1.18.54.54,0,0,0,.16.1.46.46,0,0,0,.21,0l.16,0a.61.61,0,0,0,.14-.07,1,1,0,0,0,.13-.09l.12-.1h0v0s0,0,0,0l.2.18a1.12,1.12,0,0,1-.19.24,1.5,1.5,0,0,1-.24.18,1,1,0,0,1-.26.14l-.29.08h-.07l-.07,0h-.15a.86.86,0,0,1-.36-.07.8.8,0,0,1-.27-.18.94.94,0,0,1-.17-.31,1.4,1.4,0,0,1-.05-.38v-.25a0,0,0,0,1,0,0v-.11a.42.42,0,0,0,0-.06l.32-2h0v0l0,0V108a.14.14,0,0,0,0-.06v0a.08.08,0,0,1,0,0v-.07a.51.51,0,0,0-.05-.25.32.32,0,0,0-.14-.14l-.18-.08-.21,0h-.08l0-.3.38,0,0,0h.06l0,0h.13l0,0h0l.08,0h.08l.07,0h.08l.08,0,.09,0,.07,0,.07,0,.31,0-.56,3.39m.93-4.38a1,1,0,0,1-.15.24.66.66,0,0,1-.22.15.54.54,0,0,1-.25.06.58.58,0,0,1-.18,0,.34.34,0,0,1-.12-.12.4.4,0,0,1-.08-.16.69.69,0,0,1,0-.2.46.46,0,0,1,.05-.23.67.67,0,0,1,.13-.22,1,1,0,0,1,.21-.16.56.56,0,0,1,.23-.06.58.58,0,0,1,.18,0,.38.38,0,0,1,.15.09.4.4,0,0,1,.1.15.58.58,0,0,1,0,.19v0a.65.65,0,0,1-.05.29" transform="translate(-0.5 -0.5)"/><path class="cls-2" d="M227.57,106.72l-.15,0-.17,0-.14,0-.19,0h-.1l-.11,0a.06.06,0,0,1-.06,0l-.39,0a2.22,2.22,0,0,0-.07.31v0l.09,0,.21,0,.18.08.13.12,0,.24v.1a.41.41,0,0,1,0,.09.45.45,0,0,0,0,.11l-.32,2a.9.9,0,0,0,0,.12l0,.11a.19.19,0,0,1,0,.08v.11s0,.42,0,.42l.18.31.27.2.37.06h.1l.12,0a2.55,2.55,0,0,0,.36-.08l.27-.14.24-.19.21-.25a2.07,2.07,0,0,0-.21-.21h0l-.07.06-.12.1-.1.08-.16.07-.15,0-.2,0-.15-.1-.09-.16,0-.23v-.07a.42.42,0,0,1,0-.11l.57-3.54a1.17,1.17,0,0,0-.32,0m-.22.11.08,0,.11,0,.34,0s-.59,3.36-.59,3.36l0,.34,0,.24.1.18.16.11.22,0,.16,0,.15-.06.13-.1.13-.1s.21.12.22.12-.2.21-.2.21l-.24.18-.26.14-.27.08-.15,0h-.11l-.38-.06-.25-.18-.18-.3-.05-.37v-.2a.17.17,0,0,1,0-.07l0-.11.33-2.09a.9.9,0,0,0,0-.12v-.19l0-.26-.14-.16-.2-.08-.21,0s0,0,0-.07a1.8,1.8,0,0,1,0-.21s.35,0,.35,0a.14.14,0,0,0,.1,0l.19,0,.1,0h.09l.14,0,.09,0m-.65.55h0" transform="translate(-0.5 -0.5)"/><path class="cls-2" d="M227.6,105l-.21.16-.14.22-.05.25,0,.2.08.17.15.13.18,0,.26-.06.22-.15.16-.25.06-.3,0-.18-.11-.15L228,105l-.19,0-.24.06m-.14,1.08-.11-.1-.08-.16,0-.19,0-.23.13-.2.2-.16.22,0,.17,0,.14.09.1.14,0,.18-.05.27-.15.22-.2.15-.25.05-.17,0m.87-.67h0m-.06.3h0" transform="translate(-0.5 -0.5)"/><path class="cls-2" d="M229.59,111.44h-.82l.54-3.38s0,0,0,0v0a.11.11,0,0,1,0,0,.43.43,0,0,0,0,0v-.1s0,0,0,0v-.06a.46.46,0,0,0,0-.23.21.21,0,0,0-.14-.12.43.43,0,0,0-.2-.07,1.6,1.6,0,0,0-.23,0l.05-.31,1.26-.23h.32l-.12.7.43-.28a5.05,5.05,0,0,1,.45-.25,2.82,2.82,0,0,1,.48-.19,2.16,2.16,0,0,1,.51-.06,1.23,1.23,0,0,1,.39.06,1.49,1.49,0,0,1,.36.17.73.73,0,0,1,.26.29,1,1,0,0,1,.08.44v.21a.08.08,0,0,0,0,0v0s0,0,0,.06V108s0,0,0,0v0a0,0,0,0,0,0,0s0,0,0,0v.07l-.31,1.91a.25.25,0,0,0,0,.07v.06a.14.14,0,0,0,0,.06v.09a0,0,0,0,0,0,0v.19h0a.42.42,0,0,0,0,.16.6.6,0,0,0,.09.15.67.67,0,0,0,.14.11.37.37,0,0,0,.15,0l.17,0,.17-.08.14-.1.12-.13.18.19a1.5,1.5,0,0,1-.2.23l-.23.17-.13.07-.13.05-.13,0-.14,0h0s0,0,0,0h-.18a1.14,1.14,0,0,1-.33,0,1.34,1.34,0,0,1-.27-.17A1,1,0,0,1,232,111a1,1,0,0,1-.05-.36h0v-.08a.25.25,0,0,1,0-.08v-.07s0-.06,0-.08v-.13s0,0,0-.06a.14.14,0,0,1,0-.06s0,0,0,0a.64.64,0,0,0,0-.07v-.07s0,0,0-.06v0h0v0h0a0,0,0,0,1,0,0,0,0,0,0,0,0,0l.25-1.57h0v0h0v0a0,0,0,0,1,0,0V108h0v0h0v0h0v-.1h0s0,0,0,0v0a.6.6,0,0,0,0-.24.45.45,0,0,0-.14-.19.92.92,0,0,0-.21-.13.85.85,0,0,0-.23,0,1.62,1.62,0,0,0-.75.2l-.34.22a3.62,3.62,0,0,0-.32.22l-.05.05,0,0-.05,0,0,0v0l-.58,3.58" transform="translate(-0.5 -0.5)"/><path class="cls-2" d="M231.59,106.68l-.48.18-.45.26-.43.28a4.27,4.27,0,0,0,.15-.67l-.34,0-1.27.22a2.46,2.46,0,0,0-.07.33,1,1,0,0,0,.26.06l.2.07.13.12,0,.21v.1a.46.46,0,0,1,0,.13.68.68,0,0,1,0,.12l-.55,3.38.87,0,.59-3.61h.06a.38.38,0,0,1,.09-.08l.32-.23.34-.22.37-.15.37,0,.22,0,.21.11.13.18,0,.24,0,.29a.22.22,0,0,1,0,.09l-.25,1.63-.05.19a1.09,1.09,0,0,1,0,.13.9.9,0,0,0,0,.12v.13s0,.13,0,.13l0,.16v.09l.06.36.18.29.29.18.33.05H233l.2,0,.14,0,.13,0,.13-.07.24-.18.2-.23s-.18-.23-.18-.23-.16.12-.16.12l-.14.11-.16.07-.16,0-.14,0-.13-.1-.09-.14,0-.15v-.2a1.09,1.09,0,0,0,0-.12.43.43,0,0,0,0-.12c0-.07.34-2,.34-2a.24.24,0,0,1,0-.09l0-.09,0-.11v-.1a.32.32,0,0,1,0-.11c0-.09-.09-.53-.09-.53l-.26-.3-.37-.17-.4-.07-.52.07m-.91.48.45-.25.48-.18.5-.07.39.07.35.16.24.28.09.43a.58.58,0,0,1,0,.1v.11l0,.12a.27.27,0,0,1,0,.11l0,.1s-.32,1.94-.32,1.94l0,.14,0,.1v.21a2,2,0,0,0,.06.24l.09.16.15.11.16,0,.18,0,.17-.07.14-.12.13-.12a1,1,0,0,0,.15.19s-.2.19-.2.19l-.24.17-.12.07-.12,0-.14,0-.13,0h-.09a.33.33,0,0,0-.11,0l-.36-.06-.26-.16L232,111l-.06-.35v-.09l0-.15v-.26l0-.12a1,1,0,0,0,0-.13s0-.07,0-.08l0-.12.24-1.56c0-.07,0-.08,0-.08h0V108a.39.39,0,0,1,0-.1.36.36,0,0,1,0-.1c0-.06,0-.31,0-.31l-.16-.2-.21-.13-.24,0-.38,0-.38.16-.35.21-.32.23-.09.09a.32.32,0,0,0-.08.06s-.57,3.43-.58,3.54h-.8s.57-3.35.57-3.35a.5.5,0,0,1,0-.11l0-.1v-.08h0a2.89,2.89,0,0,0,0-.29l-.15-.15-.22-.06-.23,0s.07-.28.07-.28l1.24-.21h.32a4.27,4.27,0,0,0-.15.67s.47-.25.47-.25" transform="translate(-0.5 -0.5)"/><path class="cls-2" d="M237.71,107.83v0a.43.43,0,0,0,0,0V108a.25.25,0,0,0,0,.07s0,0,0,.06a.15.15,0,0,1,0,.07v.06a.25.25,0,0,0,0,.07s0,0,0,.07l-.09.39a2.79,2.79,0,0,1-.1.39,2.65,2.65,0,0,1-.12.37c0,.13-.09.25-.14.37l0,0v0s0,0,0,0,0,0,0,0,0,0,0,0h0s0,0,0,0a0,0,0,0,1,0,0,4.06,4.06,0,0,1-.26.36,3.33,3.33,0,0,1-.32.34,1.16,1.16,0,0,1-.36.23,1.1,1.1,0,0,1-.4.08.92.92,0,0,1-.38-.08.49.49,0,0,1-.23-.26,2.47,2.47,0,0,1-.11-.36,2.73,2.73,0,0,1,0-.41h0v-.25a2.46,2.46,0,0,0,0-.26c0-.09,0-.18,0-.27s0-.17.06-.27a2.85,2.85,0,0,1,.22-.64,4.75,4.75,0,0,1,.33-.59,1.32,1.32,0,0,1,.46-.43,1.2,1.2,0,0,1,.57-.14h.11l.27,0a.8.8,0,0,1,.24.13.79.79,0,0,1,.23.16,1.7,1.7,0,0,1,.19.19l0,.19m1-1.11H238l-.2.53a1.42,1.42,0,0,0-.56-.45,2.3,2.3,0,0,0-.34-.12,1.91,1.91,0,0,0-1.3.19,2.21,2.21,0,0,0-.77.67,4.18,4.18,0,0,0-.53.94,3.78,3.78,0,0,0-.22,1v.23a2.56,2.56,0,0,0,.09.69,2.07,2.07,0,0,0,.28.58,1,1,0,0,0,.47.39,1.42,1.42,0,0,0,.63.13,1.62,1.62,0,0,0,1-.34,2.62,2.62,0,0,0,.42-.39,2.3,2.3,0,0,0,.32-.49v0l-.14.9c0,.12-.05.25-.08.37a2.78,2.78,0,0,1-.12.38,2,2,0,0,1-.16.36,2.35,2.35,0,0,1-.23.32l-.25.25a1.08,1.08,0,0,1-.29.18,1.15,1.15,0,0,1-.31.11,1.86,1.86,0,0,1-.34,0h0l0,0h-.13l-.13,0a.43.43,0,0,0-.12-.05l-.11-.06a.34.34,0,0,1-.09-.08l-.06-.06-.05-.06a.21.21,0,0,1,0-.07.13.13,0,0,1,0-.07s0,0,0,0h0v0s0,0,0,0,0,0,0,0a1,1,0,0,0-.09-.15.29.29,0,0,0-.1-.09.23.23,0,0,0-.12-.06H234l-.15,0a.67.67,0,0,0-.14.09.49.49,0,0,0-.1.15.34.34,0,0,0,0,.18.41.41,0,0,0,0,.16.42.42,0,0,0,.09.14l.12.11.14.08s0,0,0,0h0l0,0a.75.75,0,0,0,.2.1,1.19,1.19,0,0,0,.22.08l.23.05a.83.83,0,0,0,.22,0h.06l.05,0h.56l0,0h.05a2.31,2.31,0,0,0,.43-.08,2.68,2.68,0,0,0,.43-.14,3.1,3.1,0,0,0,.4-.21,1.54,1.54,0,0,0,.36-.27,1.82,1.82,0,0,0,.35-.39,1.32,1.32,0,0,0,.21-.43c.05-.16.1-.31.14-.46a3.71,3.71,0,0,0,.09-.5V111s0,0,0-.06l.68-4.19" transform="translate(-0.5 -0.5)"/><path class="cls-2" d="M236.13,107.23l-.47.43-.33.6-.22.65-.07.27,0,.27,0,.25v.24s0,.44,0,.44l.11.37.24.27.39.09.41-.09.37-.23.32-.35.26-.36a.23.23,0,0,0,0-.08l0-.07h0s.15-.38.15-.38l.11-.38.11-.39.08-.39a.87.87,0,0,0,0-.13,1.13,1.13,0,0,0,0-.14c0-.06,0-.13,0-.13l0-.12v0l0-.19a2.15,2.15,0,0,0-.19-.22l-.23-.16-.26-.13-.27,0h-.11l-.58.14m-.75,3.75-.22-.25-.1-.36,0-.4s0-.26,0-.26l0-.26,0-.26.06-.27.22-.64.33-.59.45-.42.56-.13h.11l.26,0,.24.12.23.15.17.2,0,.17-.09.55-.08.39-.1.38-.12.37-.14.37,0,.08,0,.08-.26.36-.31.34-.36.23-.39.07-.37-.07" transform="translate(-0.5 -0.5)"/><path class="cls-2" d="M235.59,106.85a2.45,2.45,0,0,0-.78.67l-.52.94a3.66,3.66,0,0,0-.24,1v.23l.09.7.29.59a1.08,1.08,0,0,0,.48.39l.64.13.54-.08.51-.26.42-.4.3-.45a2.07,2.07,0,0,0-.34.42l-.41.39-.49.25-.53.08-.62-.12a1.06,1.06,0,0,1-.46-.38l-.28-.58-.09-.68v-.23a3.52,3.52,0,0,1,.23-1l.52-.93a2.35,2.35,0,0,1,.76-.66,1.94,1.94,0,0,1,.93-.23l.35,0,.34.12.3.19.25.26a3.58,3.58,0,0,0,.24-.54h.68l-.68,4.17,0,.1c0,.08-.09.57-.09.57l-.14.46-.21.42-.35.4-.35.27-.4.2-.43.14-.42.08h-.69l-.28,0-.23-.06-.21-.07-.2-.1-.2-.13-.12-.1-.08-.13,0-.15,0-.17.09-.14.14-.08.14-.06.22,0,.11,0,.1.1.08.14a.37.37,0,0,0,0,.09l.05.09,0,.08,0,.06.06.06.09.08.13.06.12,0,.13,0h.2l.34,0,.33-.11.28-.18.26-.25.23-.33L237,112l.11-.38c0-.08.08-.38.08-.38l.15-.9h0c0,.07-.17.88-.17.88l-.07.3c0,.08-.13.45-.13.45l-.17.36-.22.31-.25.25-.27.17-.32.12-.33,0-.2,0-.12,0-.12,0-.11-.06-.08-.07-.06-.07-.05,0,0-.07-.06-.1a.27.27,0,0,1,0-.08l-.09-.15-.11-.1-.13-.06h-.16a1.19,1.19,0,0,0-.23,0l-.15.1-.1.15,0,.19,0,.17.1.15.12.1.15.1.27.14.21.08.23,0,.23,0h.67l.52-.09.42-.15.41-.2.36-.28.36-.4.22-.44.13-.46.09-.5a1,1,0,0,0,0-.11c0-.07.71-4.25.71-4.25v0H238s-.21.51-.22.53-.22-.26-.22-.26l-.31-.19-.34-.12-.37,0a1.94,1.94,0,0,0-.95.24m1.73,3.5s0,0,0,0v0a.07.07,0,0,0,0,0" transform="translate(-0.5 -0.5)"/><path class="cls-2" d="M240.38,109a1.1,1.1,0,0,1-.26-.15,1,1,0,0,1-.2-.21.91.91,0,0,1-.13-.26,1.13,1.13,0,0,1,0-.32,1.75,1.75,0,0,1,0-.33,1,1,0,0,1,.13-.28,1.57,1.57,0,0,1,.2-.25,1.3,1.3,0,0,1,.22-.19,1.67,1.67,0,0,1,.24-.16,1.36,1.36,0,0,1,.28-.11,1.43,1.43,0,0,1,.28-.07l.29,0H242l.15,0,.23,0,.23.07.23.08.19.09s0,0,0,0l0,0h0v0h0l.11.08a1.14,1.14,0,0,1,.11.11.57.57,0,0,1,.08.13.4.4,0,0,1,0,.15.47.47,0,0,1,0,.17.36.36,0,0,1-.08.12.38.38,0,0,1-.13.09l-.15,0h-.14l-.1,0-.09-.07a.73.73,0,0,1-.08-.09v0s0,0,0,0h0v0a0,0,0,0,1,0,0v0s0,0,0,0l0,0,0,0s0,0,0,0a.05.05,0,0,0,0,0l0,0,0,0,0,0s0,0,0,0h-.06s0,0,0,0h0a.07.07,0,0,0-.06,0s0,0,0,0l-.06,0,0,0-.06,0h-.28a0,0,0,0,1,0,0h-.15l0,0a.87.87,0,0,0-.28,0l-.27.15a.47.47,0,0,0-.17.22.81.81,0,0,0-.06.33.86.86,0,0,0,0,.16.94.94,0,0,0,.06.15.53.53,0,0,0,.1.12l.12.11.09.06a.28.28,0,0,0,.12,0l.12.06.13,0s0,0,.05,0h.07l.05,0,0,0,.11,0,.09,0s0,0,0,0h.05l0,0,.05,0,.09,0a.45.45,0,0,1,.11,0,2.83,2.83,0,0,1,.36.16,2.7,2.7,0,0,1,.33.22.75.75,0,0,1,.25.31,1.15,1.15,0,0,1,.09.44,1.26,1.26,0,0,1-.06.38,1.2,1.2,0,0,1-.17.34,2.26,2.26,0,0,1-.23.29,1.27,1.27,0,0,1-.28.23,1.85,1.85,0,0,1-.55.25l-.15,0-.15,0-.16,0-.15,0h-.23a2.6,2.6,0,0,1-.4,0l-.38,0a1.71,1.71,0,0,1-.38-.13l-.36-.17,0,0s0,0,0,0h0s0,0,0,0h0l0,0-.12-.1-.12-.13-.09-.16a.77.77,0,0,1,0-.15.47.47,0,0,1,0-.17l.1-.14a.51.51,0,0,1,.13-.09.42.42,0,0,1,.16,0,.59.59,0,0,1,.2,0,.38.38,0,0,1,.15.09l.13.13.11.15s0,0,0,0l0,0,0,0a0,0,0,0,0,0,0h0a0,0,0,0,0,0,0l.15.2a1.54,1.54,0,0,0,.19.17.68.68,0,0,0,.27.13,1.51,1.51,0,0,0,.39,0h.24l.15,0,.12,0a.4.4,0,0,0,.13-.07l.13-.08a.71.71,0,0,0,.13-.12,1,1,0,0,0,.13-.16,1.42,1.42,0,0,0,.08-.18.75.75,0,0,0,0-.2.61.61,0,0,0-.06-.28.45.45,0,0,0-.16-.2l-.21-.14a1.33,1.33,0,0,0-.24-.1h-.07s0,0,0,0l0,0v0l-1.17-.45" transform="translate(-0.5 -0.5)"/><path class="cls-2" d="M241.46,106.61l-.33,0-.29.08-.28.11-.25.15-.22.21-.2.25-.13.29,0,.33,0,.32.14.27.2.22.27.16,1.17.44a.14.14,0,0,0,.07,0l.29.12.22.14.15.19,0,.27,0,.19-.08.18-.12.15-.14.12-.12.08-.13.07-.12,0-.14,0h-.24l-.38,0-.26-.13-.19-.17-.15-.19-.06-.08c0-.06-.13-.21-.13-.21l-.13-.13-.16-.09-.21,0-.17,0-.14.1-.1.14,0,.18,0,.17.08.15.12.13.12.11.09.05c.05,0,.41.22.41.22l.38.13.39,0,.4,0h.23l.32,0,.29-.06.29-.11.27-.15.29-.23.23-.3.17-.35.06-.38-.09-.45-.25-.32-.34-.22-.36-.16-.11,0-.08,0-.1,0-.09,0-.1,0-.1,0-.11,0-.11,0-.13,0-.23-.1-.09-.06-.13-.11-.09-.12,0-.13v-.16l.05-.32.17-.21.26-.14.27-.06h.09a.2.2,0,0,1,.11,0h.11l.22,0,.1,0,.1,0,.07,0a.25.25,0,0,1,.07.05.54.54,0,0,1,.07.09.18.18,0,0,1,.06.07l.05.09a.22.22,0,0,1,.06.09.22.22,0,0,1,.06.07l.09.11.09.07.12.05h.14l.16,0,.14-.09.08-.13,0-.18,0-.16-.08-.14-.11-.1-.12-.1-.08,0-.21-.1-.22-.08-.23-.07-.23-.06-.16,0h-.54m-1.33,2.23-.19-.2-.13-.26,0-.31,0-.32.12-.27.19-.25.22-.19.25-.16.26-.11.29-.07.28,0h.22l.14,0H242l.16,0,.23,0,.22.07.23.08.19.1s.07,0,.08,0l.11.09.12.11.07.12,0,.14,0,.16-.07.12-.13.07-.14,0h-.13l-.1,0-.08-.07-.08-.09-.06-.07a.37.37,0,0,0-.06-.09l-.05-.08-.07-.1-.05-.06a.31.31,0,0,1-.06-.06l-.07,0a.33.33,0,0,0-.1-.07l-.1-.05-.12,0-.11,0h-.31l-.35.07-.27.15-.18.23-.07.34,0,.16.06.16.1.13.13.11.09.06.24.1.13.05.12,0,.11.05.1,0,.09,0a.27.27,0,0,0,.1,0l.07,0,.1,0,.09,0,.38.17.33.21.24.3.08.43-.06.37-.16.34-.23.28-.27.23-.26.14-.29.11-.29.07h-.15l-.16,0h-.21l-.41,0-.39-.06-.37-.12-.35-.18-.08,0h0l-.17-.14-.11-.13-.08-.14,0-.15,0-.15.08-.14.13-.09.15,0,.19,0,.15.09.12.13.1.14,0,.07.2.26.2.18.28.13.39.05h.12l.13,0,.14,0,.13,0,.14-.06.12-.09.14-.12.13-.17.08-.19,0-.2-.06-.29-.17-.21-.22-.14-.24-.1-.1,0s-1.2-.48-1.2-.48l-.26-.15m-.22,1.34h0" transform="translate(-0.5 -0.5)"/><path class="cls-2" d="M251.87,107.64l.25-1.57v0h0v0a0,0,0,0,1,0,0v0a0,0,0,0,1,0,0v-.14a1.12,1.12,0,0,0,0-.27.4.4,0,0,0-.11-.19.43.43,0,0,0-.17-.12.49.49,0,0,0-.25-.06l-.14,0,.05-.29H254l0,.29h-.07a1.42,1.42,0,0,0-.41.12.71.71,0,0,0-.27.21,1.6,1.6,0,0,0-.15.32,3.64,3.64,0,0,0-.1.44l-.65,4s0,0,0,.06v.08h0v.05h0v.06h0v0h0a1.08,1.08,0,0,0,.05.27.45.45,0,0,0,.11.19.55.55,0,0,0,.17.13,1.14,1.14,0,0,0,.22.07l.11,0,0,.3h-2.5l0-.3h.09a.36.36,0,0,0,.18,0l.16,0L251,111a.87.87,0,0,0,.15-.13l.11-.15a.33.33,0,0,0,.07-.16,1.21,1.21,0,0,0,0-.18.58.58,0,0,0,0-.19v-.1s0,0,0,0l.33-2h-3.33l-.34,2.12a.25.25,0,0,0,0,.07v.09l0,0v0a0,0,0,0,1,0,0v.09s0,.08,0,.11a.43.43,0,0,1,0,.11.93.93,0,0,0,0,.1.41.41,0,0,0,.05.09l.1.12a.37.37,0,0,0,.12.07l.12,0,.15,0,.18,0,0,.3h-2.57l.05-.3a1.17,1.17,0,0,0,.45-.08.46.46,0,0,0,.25-.22,1.91,1.91,0,0,0,.15-.32,3.07,3.07,0,0,0,.1-.43l.66-4V106a0,0,0,0,1,0,0v0a0,0,0,0,1,0,0v-.14a.71.71,0,0,0,0-.26.44.44,0,0,0-.1-.19.4.4,0,0,0-.16-.12.62.62,0,0,0-.23-.07l-.11,0,0-.29h2.56l0,.29h-.1a1.38,1.38,0,0,0-.45.09.4.4,0,0,0-.26.19,1.26,1.26,0,0,0-.15.33,3.47,3.47,0,0,0-.11.48l-.25,1.46h3.33" transform="translate(-0.5 -0.5)"/><path class="cls-2" d="M251.43,105.09a.71.71,0,0,0,.16,0l.24.06.17.12.09.18,0,.26v.1l0,.17s-.25,1.52-.26,1.58h-3.31s.27-1.42.27-1.42l.11-.48.15-.32.25-.19.44-.08h.1a2.49,2.49,0,0,0,.06-.32l-2.58,0a1.56,1.56,0,0,0-.07.32.6.6,0,0,0,.14,0l.22.07.16.12.09.18,0,.25V106s-.67,4-.67,4l-.1.43-.14.31-.24.21-.44.08a2.34,2.34,0,0,0-.07.32l2.59,0a2,2,0,0,0,.07-.31s-.2,0-.2,0l-.14,0-.13,0-.1-.06-.1-.11,0-.09,0-.1,0-.1v-.2a.33.33,0,0,1,0-.08v-.1c0-.07.37-2.18.37-2.18l3.3,0s-.35,2-.35,2l0,.08v0s0,.21,0,.21l0,.18-.07.16-.11.14L251,111l-.14.06-.16,0h-.26a2.21,2.21,0,0,0-.06.32l2.53,0a1.25,1.25,0,0,0,.07-.31s-.13,0-.13,0l-.21-.06-.17-.12-.1-.19,0-.26v-.18l0-.09s.66-4,.66-4l.11-.44.14-.31.26-.21.42-.12.07,0,0-.29-2.56,0a2.34,2.34,0,0,0-.07.32m-4.07-.29,2.53,0a1.28,1.28,0,0,0,0,.27l-.08,0-.46.08-.27.21-.15.33-.12.49-.24,1.45,3.37,0,.26-1.59c0-.07,0-.08,0-.08h0l0-.09v-.14l0-.28-.1-.19-.19-.14-.25-.05-.14,0a1.47,1.47,0,0,0,.06-.27l2.51,0a1.31,1.31,0,0,0-.06.27,2.63,2.63,0,0,0-.46.1l-.28.22-.15.32-.1.45-.66,4c0,.06,0,.1,0,.1v.19c0,.05.05.31.05.31l.12.21.18.13.23.07H253s-.07.27-.07.27l-2.48,0a1.22,1.22,0,0,0,.06-.26l.06,0h.18l.16,0,.15-.07.16-.13.11-.16.07-.16.06-.18,0-.2a.31.31,0,0,1,0-.09s.34-2.09.34-2.09l-3.35,0s-.37,2.14-.37,2.14a.48.48,0,0,0,0,.12l0,.18s0,.16,0,.16l0,.11,0,.1.05.1.11.12.12.07.13,0,.15,0h.17a1.54,1.54,0,0,0-.07.27l-2.53,0a1.25,1.25,0,0,0,.07-.26l.43-.07.26-.22.15-.33.1-.43.66-4c0-.07,0-.07,0-.07h0v-.23l0-.26-.11-.2-.18-.14-.23-.06-.11,0a1.31,1.31,0,0,0,.06-.27m1.67.56h0m2.35,5.25h0" transform="translate(-0.5 -0.5)"/><path class="cls-2" d="M257.42,107.61v0s0,0,0,0a.06.06,0,0,0,0,0v0a.6.6,0,0,0,0,.12l0,.12a.13.13,0,0,1,0,.06v.06a.13.13,0,0,0,0,.06l0,0-.08.39-.09.39c0,.13-.07.26-.11.39a3.82,3.82,0,0,1-.13.36,0,0,0,0,0,0,0,0,0,0,0,0,0,0,0,0,0,0,1,0,0,0,0,0,0,0,0,0l0,.05a.1.1,0,0,1,0,0,2.57,2.57,0,0,1-.26.41,3.8,3.8,0,0,1-.33.37,1.37,1.37,0,0,1-.4.26,1.08,1.08,0,0,1-.44.09A.93.93,0,0,1,255,111a.59.59,0,0,1-.26-.26,1.26,1.26,0,0,1-.15-.38,1.84,1.84,0,0,1-.05-.41c0-.07,0-.15,0-.22a2.29,2.29,0,0,0,0-.25c0-.08,0-.16,0-.25s0-.16.07-.25a4.28,4.28,0,0,1,.25-.68,3.76,3.76,0,0,1,.36-.61,1.37,1.37,0,0,1,.5-.44,1.21,1.21,0,0,1,.6-.15h.2a1.09,1.09,0,0,1,.24.07,1.15,1.15,0,0,1,.23.1,1.07,1.07,0,0,1,.22.15l.09.08.08.1m1-.89h-.81l-.09.5a1,1,0,0,0-.21-.21,1.4,1.4,0,0,0-.26-.16,1.11,1.11,0,0,0-.27-.12l-.29-.07h-.19s0,0,0,0h-.08a2.13,2.13,0,0,0-1,.23,2.28,2.28,0,0,0-.79.68,3.39,3.39,0,0,0-.56.94,3.78,3.78,0,0,0-.22,1.05v.17a2.71,2.71,0,0,0,.1.71,2.42,2.42,0,0,0,.29.58,1.21,1.21,0,0,0,.49.39,1.54,1.54,0,0,0,.67.13,2,2,0,0,0,.56-.08,1.64,1.64,0,0,0,.48-.23,2.86,2.86,0,0,0,.4-.38,3.72,3.72,0,0,0,.35-.48h0v.15a1.34,1.34,0,0,0,.06.4,1.2,1.2,0,0,0,.17.34.76.76,0,0,0,.28.21.87.87,0,0,0,.37.07H258l.11,0,.12,0,.13,0,.23-.1.24-.15A1.07,1.07,0,0,0,259,111a1.56,1.56,0,0,0,.16-.2l-.22-.19a.71.71,0,0,1-.12.13.42.42,0,0,1-.13.11.85.85,0,0,1-.15.09l-.16,0h-.06a.42.42,0,0,1-.37-.16.54.54,0,0,1-.09-.17.46.46,0,0,1,0-.21v-.1s0-.07,0-.11a.36.36,0,0,1,0-.1.52.52,0,0,1,0-.11l.52-3.3" transform="translate(-0.5 -0.5)"/><path class="cls-2" d="M255.74,107.23l-.49.44-.37.63-.25.68-.07.25,0,.25,0,.24V110l0,.42.14.38.28.27.4.09.45-.09.4-.27.34-.37.26-.42a.45.45,0,0,0,.07-.1.31.31,0,0,0,0-.09s.15-.38.15-.38l.1-.39.09-.39.09-.39a.39.39,0,0,0,0-.11l0-.13,0-.11,0-.12a.62.62,0,0,0,0-.09v-.07l-.08-.1-.1-.08-.22-.16-.23-.1-.25-.06h-.2l-.62.15m-1.13,2,.06-.25.25-.68.36-.61.49-.43.59-.14a.17.17,0,0,1,.09,0h.11l.23.06.23.1.21.15.09.08.08.09-.07.36a.75.75,0,0,0,0,.12.65.65,0,0,0,0,.1l-.08.4-.1.39-.1.38-.13.36a.48.48,0,0,1,0,.08l0,.08s-.3.46-.3.46l-.33.36-.39.26-.43.08L255,111l-.25-.25-.15-.37,0-.41v-.22l0-.25,0-.24" transform="translate(-0.5 -0.5)"/><path class="cls-2" d="M255.17,106.85a2.26,2.26,0,0,0-.8.69,3.65,3.65,0,0,0-.56.94,3.45,3.45,0,0,0-.22,1.06v.09c0,.08.1.8.1.8l.29.59.5.39.68.13.57-.07.48-.24.41-.38.35-.48a3.2,3.2,0,0,0-.39.45l-.39.37-.48.22-.55.08-.66-.12L254,111l-.29-.57-.09-.7v-.12a3.35,3.35,0,0,1,.22-1.09,3.74,3.74,0,0,1,.54-.94,2.48,2.48,0,0,1,.79-.67,2.05,2.05,0,0,1,1-.22.23.23,0,0,1,.11,0h.12l.35.08.27.11.25.16.21.2a2.46,2.46,0,0,0,.13-.5l.77,0s-.55,3.38-.55,3.38l0,.1v.21l0,.22.1.18.17.13.21,0a1.49,1.49,0,0,0,.22,0l.16-.08.14-.12.12-.13s.17.18.17.18a1.14,1.14,0,0,0-.15.17l-.19.18-.22.14-.25.11-.12,0-.22,0h-.11l-.36-.06-.27-.21-.17-.33-.05-.39v-.15l0,0,0,.13.05.41.18.34.29.22.38.07H258l.24-.05.12,0,.25-.11.23-.15.2-.18.16-.21a2.27,2.27,0,0,0-.22-.22s-.15.13-.15.13l-.13.12-.15.07-.16,0-.24,0-.16-.11-.09-.17,0-.2v-.2l0-.1.55-3.44h-.84a2.61,2.61,0,0,0-.11.5,1.39,1.39,0,0,0-.17-.21l-.27-.17-.27-.11-.29-.07h-.31a2,2,0,0,0-1,.23m1.8,3.52h0" transform="translate(-0.5 -0.5)"/><path class="cls-2" d="M260.45,110.25v0s0-.06,0-.09a152990040379.68,152990040379.68,0,0,0,0-.18.24.24,0,0,0,0-.08l.09-.42c0-.14.07-.28.1-.42s.08-.27.13-.4.11-.28.17-.42,0,0,0,0,0,0,0,0l0,0,0,0a1.56,1.56,0,0,1,.24-.35c.09-.11.2-.21.31-.32a1.49,1.49,0,0,1,.37-.23,1.1,1.1,0,0,1,.4-.08.69.69,0,0,1,.36.09.64.64,0,0,1,.24.25,1.39,1.39,0,0,1,.12.36,2.58,2.58,0,0,1,0,.4c0,.08,0,.16,0,.24a2.12,2.12,0,0,1,0,.24,1.87,1.87,0,0,1,0,.25c0,.08,0,.16-.05.25a3,3,0,0,1-.22.68,3.5,3.5,0,0,1-.35.62,1.18,1.18,0,0,1-.46.43,1.23,1.23,0,0,1-.61.15h-.3a.79.79,0,0,1-.22-.06.82.82,0,0,1-.2-.12.84.84,0,0,1-.18-.15.53.53,0,0,1-.13-.19l.05-.27m.56-3.53h-.28l-1.28.17,0,.29.22.06.17.06a.27.27,0,0,1,.12.09.18.18,0,0,1,.07.12.64.64,0,0,1,0,.2v0a.08.08,0,0,0,0,0h0v.1s0,0,0,0v0h0l0,0v0h0l-.66,4.11v0a0,0,0,0,0,0,0h0v0a2.05,2.05,0,0,1-.1.41,1.42,1.42,0,0,1-.13.3.69.69,0,0,1-.26.2,1.57,1.57,0,0,1-.43.08l-.05.3h2.37l.05-.3a1.14,1.14,0,0,1-.28,0,1,1,0,0,1-.23-.08.32.32,0,0,1-.14-.14.6.6,0,0,1-.05-.26v-.11a0,0,0,0,0,0,0v0h0l0,0v-.09s0,0,0,0l.24-1.44a1.8,1.8,0,0,0,.19.21l.24.16a1,1,0,0,0,.27.11,1.29,1.29,0,0,0,.28.08h.08l.08,0h.16a2.24,2.24,0,0,0,.52-.06,2.18,2.18,0,0,0,.47-.21,2.29,2.29,0,0,0,.43-.32,3.46,3.46,0,0,0,.37-.39,1.9,1.9,0,0,0,.22-.33,2.53,2.53,0,0,0,.18-.37c.06-.13.1-.26.15-.4s.06-.28.09-.42a.57.57,0,0,1,0-.13s0-.08,0-.13a.69.69,0,0,0,0-.13v-.14h0v0h0v0h0a2.41,2.41,0,0,0-.09-.67,2,2,0,0,0-.28-.57,1.2,1.2,0,0,0-.45-.39,1.54,1.54,0,0,0-.63-.13,1.62,1.62,0,0,0-.58.11,1.73,1.73,0,0,0-.53.29,2.55,2.55,0,0,0-.43.44,3.35,3.35,0,0,0-.3.52l0,0,.21-1.26" transform="translate(-0.5 -0.5)"/><path class="cls-2" d="M262,107.18l-.38.23-.31.33-.24.35-.06.07,0,.09-.17.41-.14.41-.09.42-.13.6,0,.08v.08l-.06.27.15.21.18.16.21.11.21.07.09,0,.15,0c.07,0,.69-.15.69-.15l.47-.45.36-.62.21-.69s.06-.25.06-.25l0-.25,0-.24v-.24l0-.41-.12-.36-.25-.26-.37-.09-.41.08m-1.53,3,.06-.25.08-.43.1-.41.13-.41.17-.41a.22.22,0,0,1,0-.07l.06-.08s.23-.35.23-.35l.32-.32.36-.23.39-.08.35.09.23.24.11.35,0,.4v.23l0,.25,0,.24-.05.22-.22.71-.35.61-.45.43-.6.14h-.26l-.25-.08-.2-.11-.17-.15-.13-.18.06-.27h0v-.07" transform="translate(-0.5 -0.5)"/><path class="cls-2" d="M262.07,106.72l-.53.3-.44.45-.27.47a2.44,2.44,0,0,0,.31-.45l.43-.43.52-.29.57-.1.62.13.44.38.28.56.09.66v.23l0,.39-.09.41-.14.4-.18.37-.22.33-.37.39-.42.31-.47.2-.51.06a.28.28,0,0,1-.12,0h-.2l-.27-.08-.26-.1-.24-.17-.19-.21c-.05,0-.28,1.45-.28,1.45a.27.27,0,0,0,0,.09l0,.21s0,.31,0,.31l.15.15.23.08.28,0a1.34,1.34,0,0,0-.07.27l-2.34,0s.07-.25.07-.26.42-.07.42-.07l.27-.2.13-.31.11-.41c0-.08.66-4.2.66-4.2l0-.09v-.1a.28.28,0,0,1,0-.08h0c0-.06,0-.26,0-.26l-.09-.14-.12-.08-.18-.07-.21,0a1.41,1.41,0,0,0,.05-.27s1.27-.14,1.27-.14H261s-.2,1.23-.2,1.23l0,0c0-.1.23-1.23.23-1.23v0h-.31l-1.28.16a2.21,2.21,0,0,0-.06.32,1.27,1.27,0,0,0,.23.08l.17.06.11.08.07.12,0,.19v.19a.15.15,0,0,1,0,.08s-.66,4.16-.66,4.16-.11.48-.11.48l-.13.3-.25.19-.43.08a2.34,2.34,0,0,0-.07.32l2.4,0a2.49,2.49,0,0,0,.08-.32,1.48,1.48,0,0,0-.31-.07l-.22-.07-.13-.13,0-.25v-.18a.87.87,0,0,0,0-.11s.24-1.42.25-1.46a1.26,1.26,0,0,0,.16.2l.25.17.26.12.29.08h.32l.52-.06.48-.21.43-.32.38-.39.23-.33.17-.38.15-.4.09-.42,0-.4v-.23l-.1-.68-.28-.58-.46-.39-.64-.13-.59.1m-2.14.64h0m.88.6v0a.22.22,0,0,0,0,0l0,0" transform="translate(-0.5 -0.5)"/><path class="cls-2" d="M265.84,110.25v0a.28.28,0,0,1,0-.09s0-.06,0-.09,0-.06,0-.09,0,0,0-.08a3.15,3.15,0,0,1,.09-.42l.09-.42c0-.14.09-.27.13-.4s.11-.28.17-.42a.08.08,0,0,0,0,0,.05.05,0,0,0,0,0s0,0,0,0,0,0,0,0a1.92,1.92,0,0,1,.23-.35,3.22,3.22,0,0,1,.32-.32,1.29,1.29,0,0,1,.36-.23,1.1,1.1,0,0,1,.4-.08.75.75,0,0,1,.37.09.56.56,0,0,1,.23.25,1.9,1.9,0,0,1,.12.36,2.58,2.58,0,0,1,0,.4v.24c0,.08,0,.15,0,.24a1,1,0,0,1,0,.25c0,.08,0,.16-.05.25a3.61,3.61,0,0,1-.22.68,4.19,4.19,0,0,1-.34.62,1.25,1.25,0,0,1-.46.43,1.29,1.29,0,0,1-.62.15h-.3a.83.83,0,0,1-.21-.06l-.21-.12a.8.8,0,0,1-.17-.15.55.55,0,0,1-.14-.19l.06-.27m.55-3.53h-.27l-1.29.17,0,.29.22.06.18.06a.2.2,0,0,1,.11.09.18.18,0,0,1,.08.12,1.23,1.23,0,0,1,0,.2v0a.08.08,0,0,0,0,0h0v.1s0,0,0,0v0h0v0s0,0,0,0v0h0l-.65,4.11v0h0v0a3.08,3.08,0,0,1-.1.41,2.15,2.15,0,0,1-.14.3.62.62,0,0,1-.26.2,1.5,1.5,0,0,1-.43.08l0,.3h2.37l.05-.3a1.2,1.2,0,0,1-.28,0,.93.93,0,0,1-.22-.08.24.24,0,0,1-.14-.14.48.48,0,0,1-.05-.26v-.11a0,0,0,0,1,0,0v0h0s0,0,0,0v-.09a.08.08,0,0,0,0,0l.24-1.44a1.94,1.94,0,0,0,.2.21,1.43,1.43,0,0,0,.24.16,1,1,0,0,0,.27.11,1.15,1.15,0,0,0,.28.08h.08l.07,0H267a2.16,2.16,0,0,0,.51-.06,2.06,2.06,0,0,0,.48-.21,2.59,2.59,0,0,0,.42-.32,2.75,2.75,0,0,0,.37-.39,1.94,1.94,0,0,0,.23-.33c.06-.12.12-.24.17-.37a2.74,2.74,0,0,0,.15-.4,3.15,3.15,0,0,0,.09-.42s0-.09,0-.13a.69.69,0,0,1,0-.13c0-.05,0-.09,0-.13v-.14h0v0h0v0h0a2.41,2.41,0,0,0-.09-.67,2,2,0,0,0-.27-.57,1.32,1.32,0,0,0-.46-.39,1.5,1.5,0,0,0-.63-.13,1.66,1.66,0,0,0-.58.11,1.68,1.68,0,0,0-.52.29,2.23,2.23,0,0,0-.43.44,2.7,2.7,0,0,0-.3.52l0,0,.2-1.26" transform="translate(-0.5 -0.5)"/><path class="cls-2" d="M267.41,107.18l-.38.23-.32.33-.24.35a.3.3,0,0,1-.05.07l-.05.09-.17.41-.13.41-.1.42-.09.42,0,.09c0,.06,0,.17,0,.17v.08l-.06.27a1.91,1.91,0,0,0,.14.21l.18.16.21.11.22.07.09,0,.14,0c.07,0,.7-.15.7-.15l.47-.45.34-.62.23-.69,0-.25,0-.25,0-.24v-.24l0-.41-.11-.36-.26-.26-.37-.09-.4.08m-1.54,3s.06-.25.06-.25l.09-.43.1-.41.13-.41.17-.41a.22.22,0,0,1,0-.07l.05-.09.24-.34.32-.32.36-.23.38-.08.35.09.23.24.11.35,0,.4v.23l0,.25,0,.24-.05.25-.22.68-.34.61-.46.43-.6.14h-.25l-.26-.08-.19-.11-.18-.15-.13-.18a2.61,2.61,0,0,0,.06-.27v-.07" transform="translate(-0.5 -0.5)"/><path class="cls-2" d="M267.45,106.72l-.52.3-.44.45-.28.47a2.62,2.62,0,0,0,.32-.45l.42-.43.52-.29.57-.1.62.13.45.38.27.56.09.66v.23l0,.39-.09.41-.15.4-.17.37-.22.33-.37.39-.43.31-.46.2-.51.06a.25.25,0,0,1-.12,0h-.2l-.28-.08-.26-.1-.24-.17-.19-.21s-.28,1.45-.28,1.45a.51.51,0,0,0,0,.09l0,.21s.06.31.06.31l.15.15.23.08.28,0s-.07.27-.07.27l-2.34,0a1.1,1.1,0,0,0,.06-.26s.42-.07.42-.07l.27-.2.14-.31.1-.41c0-.08.67-4.2.67-4.2l0-.09v-.1a.28.28,0,0,1,0-.08h0c0-.06,0-.26,0-.26l-.08-.14-.12-.08-.18-.07-.22,0a1.47,1.47,0,0,0,.06-.27s1.27-.14,1.27-.14h.23s-.2,1.23-.2,1.23,0,0,0,0,.22-1.23.22-1.23v0h-.31l-1.29.16a2.21,2.21,0,0,0-.06.32,1.6,1.6,0,0,0,.23.08l.18.06.1.08a.75.75,0,0,1,.07.12l0,.19v.19a.12.12,0,0,1,0,.08s-.66,4.16-.66,4.16-.11.48-.11.48l-.13.3-.24.19-.43.08a2.34,2.34,0,0,0-.07.32l2.39,0a1.43,1.43,0,0,0,.07-.32,1.28,1.28,0,0,0-.3-.07l-.22-.07-.12-.13,0-.25v-.18c0-.07,0-.11,0-.11s.24-1.42.24-1.46a1.26,1.26,0,0,0,.16.2l.25.17.27.12.28.08H267l.52-.06.48-.21.43-.32.37-.39.23-.33.18-.38.14-.4.09-.42s0-.4,0-.4v-.23l-.09-.68-.28-.58-.47-.39-.64-.13-.59.1m-2.13.64h0m.88.6v0l0,0v0" transform="translate(-0.5 -0.5)"/><path class="cls-2" d="M272.8,107v0h0a.94.94,0,0,1,.3,0,.56.56,0,0,1,.24.13.5.5,0,0,1,.19.22.73.73,0,0,1,.07.3,1,1,0,0,1-.12.46,1,1,0,0,1-.35.32,4.37,4.37,0,0,1-.49.23,4.61,4.61,0,0,1-.53.15l-.33,0-.31,0-.28,0H271l0-.1,0-.12s0-.07,0-.12a1.17,1.17,0,0,1,.05-.11,2.74,2.74,0,0,1,.28-.54,3.64,3.64,0,0,1,.39-.51,1.65,1.65,0,0,1,.46-.35l.25-.12a1.77,1.77,0,0,1,.31,0m1,3.35v0l-.09.08-.09,0-.1.06-.08.06-.31.19-.32.16-.33.1a2.13,2.13,0,0,1-.37,0,1.7,1.7,0,0,1-.51-.08,1.52,1.52,0,0,1-.41-.24,1,1,0,0,1-.29-.4,1.81,1.81,0,0,1-.09-.55v-.12s0,0,0-.06,0,0,0-.06l0-.12a.41.41,0,0,0,0-.11l.32,0,.39,0,.45-.06.46-.07a5.29,5.29,0,0,0,.71-.2,5.53,5.53,0,0,0,.65-.28,1.26,1.26,0,0,0,.46-.42,1,1,0,0,0,.15-.55.8.8,0,0,0-.08-.39.58.58,0,0,0-.23-.28l-.32-.22a2.53,2.53,0,0,0-.36-.12l-.13,0-.13,0h-.61a3.57,3.57,0,0,0-.47.11,2.37,2.37,0,0,0-.47.2,3.14,3.14,0,0,0-.81.56,2.1,2.1,0,0,0-.36.42,3.5,3.5,0,0,0-.29.49,3.42,3.42,0,0,0-.21.55,2.62,2.62,0,0,0-.09.56.06.06,0,0,0,0,0v.11a1.87,1.87,0,0,0,.15.78,1.54,1.54,0,0,0,.44.57,1.87,1.87,0,0,0,.63.35,2.4,2.4,0,0,0,.71.11H272l.12,0h.1a2.79,2.79,0,0,0,.95-.29,3.65,3.65,0,0,0,.44-.26,4.09,4.09,0,0,0,.38-.33l-.22-.27" transform="translate(-0.5 -0.5)"/><path class="cls-2" d="M272.49,107l-.26.12-.47.37-.39.5-.28.54-.09.24-.06.23s.26,0,.26,0l.28,0,.31,0,.34-.05.53-.15.48-.22.37-.34.12-.47-.07-.31-.2-.23-.25-.13-.3-.06,0,0-.3,0m.31,0v0l.29,0,.23.13.19.21.06.29-.12.44-.33.32-.49.23-.52.14-.33,0-.26,0-.28,0H271s0-.08,0-.08l0-.11.09-.24.28-.54.39-.49.45-.35.25-.12.3,0" transform="translate(-0.5 -0.5)"/><path class="cls-2" d="M272.89,106.62h-.19l-.09,0-.48.11-.47.19-.43.26-.38.31-.37.43-.29.5L270,109l-.1.56v.12a2,2,0,0,0,.16.82,1.43,1.43,0,0,0,.45.58l.63.35.72.11H272l.22,0,.49-.1.47-.19.45-.26.38-.33a2.77,2.77,0,0,0-.22-.31h0l0,0-.09.07-.18.12-.09.07-.3.18-.32.15-.32.1-.37,0-.5-.07-.41-.24-.28-.39-.08-.54v-.12l0-.12,0-.11,0-.12a1.41,1.41,0,0,0,.29,0l.4,0,.44,0,.47-.08.71-.2.65-.29a1.14,1.14,0,0,0,.47-.42l.16-.56-.09-.4-.24-.29-.33-.21-.36-.13-.13,0-.26,0h-.2m-1.06,4.87-.7-.11-.63-.34a1.59,1.59,0,0,1-.43-.56,1.86,1.86,0,0,1-.15-.77v-.11s.1-.59.1-.59l.21-.55.29-.49.36-.41.38-.31.42-.25.46-.19.47-.11.09,0h.1l.1,0h.19l.26,0,.12,0,.35.12.32.2.23.28.08.38-.15.54a1.14,1.14,0,0,1-.46.4l-.64.29-.7.19-.46.08-.45.05-.39,0h-.32a.58.58,0,0,0,0,.13l0,.12a.48.48,0,0,0,0,.13v.12l.09.56.29.41.43.24.51.09.38,0,.33-.1.31-.16.32-.19.08-.06.19-.12.08-.06.2.24s-.37.29-.37.29l-.44.25-.47.19-.48.11-.21,0-.11,0h-.1m1.65-4.81h0" transform="translate(-0.5 -0.5)"/><path class="cls-2" d="M275.8,111.44H275l.55-3.38s0,0,0,0V108s0,0,0-.06v-.1l0,0v-.06a.51.51,0,0,0-.05-.22.23.23,0,0,0-.14-.13.48.48,0,0,0-.2-.07,2,2,0,0,0-.24,0L275,107l1.26-.23h.32l-.12.7.43-.28a5.05,5.05,0,0,1,.45-.25,2.92,2.92,0,0,1,.49-.19,2.07,2.07,0,0,1,.5-.06,1.23,1.23,0,0,1,.39.06,1.76,1.76,0,0,1,.37.17.71.71,0,0,1,.25.29,1,1,0,0,1,.09.44v.06a.1.1,0,0,0,0,0v.11a.06.06,0,0,0,0,0v0s0,0,0,.06V108s0,0,0,0v0s0,0,0,0,0,0,0,0v.06l-.32,1.91a.64.64,0,0,1,0,.07v.06s0,0,0,.06,0,0,0,0v.27h0c0,.06,0,.11,0,.16a.65.65,0,0,0,.1.15.45.45,0,0,0,.13.11.41.41,0,0,0,.16,0l.16,0,.17-.08.14-.1a.74.74,0,0,0,.12-.13l.19.19-.2.23-.24.18-.13.06-.13.05-.13,0-.14,0H279a1.19,1.19,0,0,1-.32,0,.75.75,0,0,1-.45-.45,1.36,1.36,0,0,1,0-.36h0v-.08a.17.17,0,0,1,0-.07v-.08s0,0,0-.08v-.13a.13.13,0,0,1,0-.06v-.06s0,0,0,0a.64.64,0,0,0,0-.07v-.07a.14.14,0,0,1,0-.06h0v0h0v0a0,0,0,0,1,0,0s0,0,0,0l.24-1.57h0v0h0v0s0,0,0,0V108h0v0h0s0,0,0,0h0v0s0,0,0,0v-.06h0a.08.08,0,0,1,0,0v0a1,1,0,0,0,0-.24.4.4,0,0,0-.15-.19.86.86,0,0,0-.2-.13,1,1,0,0,0-.24,0,1.65,1.65,0,0,0-.38.05,1.6,1.6,0,0,0-.37.15l-.34.22-.32.22-.05.05,0,0,0,0,0,0v0l-.58,3.58" transform="translate(-0.5 -0.5)"/><path class="cls-2" d="M277.8,106.68l-.48.18-.45.26-.43.28a4.27,4.27,0,0,0,.15-.67l-.34,0-1.27.22a2.46,2.46,0,0,0-.07.33,1,1,0,0,0,.26.06l.2.07.13.12,0,.21v.1a.89.89,0,0,1,0,.13.35.35,0,0,1,0,.12l-.55,3.38.87,0,.59-3.61h.06l.09-.08.33-.23.34-.22.36-.15.37,0,.23,0,.2.12.13.17,0,.24,0,.29,0,.09c0,.06-.26,1.63-.26,1.63l-.05.19a1.09,1.09,0,0,1,0,.13.91.91,0,0,1,0,.12v.13s0,.13,0,.13l0,.16v.09l.07.36.18.29.28.18.34.05h.17l.21,0,.13,0,.13,0,.13-.07.24-.18.2-.23a1.54,1.54,0,0,0-.18-.23s-.16.13-.16.13l-.14.1-.16.07-.15,0-.15,0-.13-.09-.09-.15,0-.15v-.2a1.13,1.13,0,0,1,0-.12l0-.12c0-.07.33-2,.33-2a.31.31,0,0,1,0-.09l0-.09,0-.11v-.1a.32.32,0,0,1,0-.11h0c0-.1-.09-.53-.09-.53l-.26-.3-.37-.17-.4-.06-.52.06m-.91.48.45-.25.48-.18.5-.06.39.06.35.16.25.28.08.43a.58.58,0,0,1,0,.1v.11a.44.44,0,0,1,0,.12.27.27,0,0,1,0,.11l0,.1s-.32,1.94-.32,1.94l0,.14,0,.1v.21a2,2,0,0,0,.06.24l.1.16.14.11.17,0,.17,0,.17-.07.14-.12.13-.12a1,1,0,0,0,.15.19s-.2.19-.2.19l-.23.17-.13.07-.12,0-.14,0-.13,0h-.09a.24.24,0,0,0-.1,0l-.36-.06-.27-.16-.17-.27-.06-.35v-.09a.63.63,0,0,0,0-.15v-.26l0-.12,0-.13v-.08c0-.07,0-.12,0-.12l.24-1.56c0-.07,0-.08,0-.08h0V108l0-.1a.36.36,0,0,1,0-.1c0-.06,0-.31,0-.31l-.15-.2-.22-.13-.24,0-.39,0-.37.16-.34.2-.33.24-.06,0,0,0a.26.26,0,0,0-.09.06s-.56,3.43-.58,3.54H275s.57-3.35.57-3.35,0-.11,0-.11v-.09c0-.07,0-.08,0-.08h0a2.35,2.35,0,0,0,0-.29l-.15-.15-.21-.06-.23,0A2.86,2.86,0,0,0,275,107l1.23-.2h.32a5.32,5.32,0,0,0-.14.67,2.9,2.9,0,0,0,.46-.26" transform="translate(-0.5 -0.5)"/></g></svg>