<?xml version="1.0" encoding="utf-8"?>
<!-- Generator: Adobe Illustrator 24.0.0, SVG Export Plug-In . SVG Version: 6.00 Build 0)  -->
<svg version="1.1" id="Layer_1" xmlns="http://www.w3.org/2000/svg" xmlns:xlink="http://www.w3.org/1999/xlink" x="0px" y="0px"
	 viewBox="0 0 300 160" style="enable-background:new 0 0 300 160;" xml:space="preserve">
<style type="text/css">
	.st0{fill:#FFFFFF;}
	.st1{fill-rule:evenodd;clip-rule:evenodd;fill:#722979;}
	.st2{fill:#722979;}
</style>
<path class="st0" d="M288.9,160H11.1C5,160,0,155,0,148.9V11.1C0,5,5,0,11.1,0h277.8C295,0,300,5,300,11.1v137.8
	C300,155,295,160,288.9,160z"/>
<g id="surface1">
	<path class="st1" d="M205.7,27l-33.9,33.7l2.4,18.9l6.2-13L199.7,91l27-82.6l-90,37.2l24.3,12.7L205.7,27z"/>
	<path class="st2" d="M176.3,86h-35.6c-27.2,4.1-30,43.4-0.3,48.7h35.9V99.3c12,0.4,14.4,15.2,5.6,20.7c1.8,2,8.9,9.7,8.9,9.7
		C209.5,113.7,198.9,87.3,176.3,86z M163.2,121.4h-19.9c-12.3,0.7-16.3-19.5-1.2-22.1h21.1L163.2,121.4L163.2,121.4z"/>
	<path class="st1" d="M250.8,103.7h-13.1l-5.6,13h16.6c1.4-0.1,2.6,0.9,2.7,2.3c0.1,1.4-0.9,2.6-2.3,2.7c-0.1,0-0.3,0-0.4,0h-28.8
		V99.3h44.3V86h-6.6c-1.9-27.4-35-28.1-43.7-13.3c1.7,1.4,9.8,8.5,9.8,8.5c3.3-5.2,10.3-6.8,15.6-3.5c2.9,1.8,4.8,4.9,5.2,8.3h-37.7
		v48.7h42.5c7.7,0,14.2-5.7,15.2-13.3C265.5,112.8,259.4,105,250.8,103.7z"/>
	<path class="st1" d="M123.7,86h-17.2c-5.5,6.6-15,33.5,3.9,53.7c0,0,8.1-6.9,9.8-8.3C114.3,125.9,104.7,103,123.7,86z"/>
	<path class="st1" d="M79.9,140.2c0,5.9-4.9,10.7-10.8,10.7c-6,0-10.8-4.8-10.8-10.7c0-5.9,4.8-10.7,10.8-10.7
		C75,129.5,79.9,134.3,79.9,140.2z"/>
	<path class="st1" d="M56.9,86c-27.2,4.1-30,43.4-0.3,48.7h0.2c3-6.7,11-9.7,17.8-6.7c3,1.3,5.4,3.7,6.8,6.7h11.2V86H56.9z
		 M79.4,121.4H59.5c-12.3,0.7-16.3-19.5-1.2-22.1h21L79.4,121.4L79.4,121.4z"/>
	<path class="st1" d="M69.6,74.5c4.4-0.7,6.5-9.7-0.6-11.7H57.4v17h4.8v-5.3l5.3,5.3H75L69.6,74.5z M69.1,68.5
		c0,0.6-0.5,1.1-1.1,1.1h-5.7v-2.3h5.7C68.6,67.2,69.1,67.7,69.1,68.5L69.1,68.5L69.1,68.5z"/>
	<path class="st1" d="M83.2,62.6c-4.8,0-8.7,3.8-8.7,8.6c0,4.7,3.9,8.6,8.6,8.6c4.8,0,8.7-3.8,8.7-8.6c0,0,0,0,0,0
		C91.9,66.4,88,62.6,83.2,62.6z M83.2,75c-2.1,0-3.8-1.7-3.8-3.8c0-2.1,1.7-3.8,3.8-3.8c2.1,0,3.8,1.7,3.8,3.8
		C87.1,73.3,85.4,75,83.2,75L83.2,75z"/>
	<path class="st1" d="M132.3,67.4h7.8v-5h-6.6c-5-0.2-9.2,3.7-9.4,8.6c0.2,4.9,4.4,8.8,9.4,8.6h6.6v-5h-7.8c-1.1,0-2.1-0.5-2.8-1.4
		h10.6v-4.5h-10.6C130.2,68,131.2,67.5,132.3,67.4z"/>
	<path class="st1" d="M101.4,74.7c-2,0-3.6-1.6-3.6-3.5V71c0-2,1.6-3.5,3.6-3.6h7.4v-5h-6.6c-5-0.2-9.2,3.7-9.4,8.6
		c0.2,4.9,4.4,8.8,9.4,8.6h6.6v-5L101.4,74.7L101.4,74.7z"/>
	<path class="st1" d="M158.2,62.8h-16.8v4.4h6.1v12.2h4.5V67.3h6.1L158.2,62.8z"/>
	<path class="st2" d="M118.3,71.1l8.3-8.3h-6.6l-4.7,4.6v-4.6h-4.5v16.7h4.5v-4.8l4.7,4.8h6.7L118.3,71.1z"/>
	<path class="st2" d="M185.8,143c-0.8,0.2-1.6,0.7-2,1.4c-0.5,0.7-0.8,1.5-0.8,2.3c0,0.5,0.1,0.9,0.3,1.3c0.2,0.5,0.6,0.8,1,0.8
		c0.3,0,0.6-0.2,0.8-0.3l0.5,1.2c-0.4,0.2-0.8,0.4-1.2,0.4c-0.6,0-1.1-0.2-1.6-0.6c-0.4-0.4-0.7-0.8-0.8-1.3c-0.1-0.5-0.2-1-0.2-1.4
		v-0.4c0.1-1.3,0.7-2.5,1.6-3.4c0.2-0.3,0.6-0.6,1.2-1.1h1.7v1.2L185.8,143L185.8,143z"/>
	<path class="st2" d="M193.3,142.9v7h-1.4V149c-0.1-0.5-0.3-0.9-0.7-1.2c-0.4-0.4-0.7-0.7-1.1-1c-0.4-0.3-0.9-0.4-1.4-0.4
		c-0.5,0-0.9,0.2-1.1,0.7c0,0.1,0,0.1,0,0.2c0,0.2,0.1,0.4,0.3,0.5c0.2,0.1,0.4,0.2,0.6,0.2c0.4-0.1,0.7-0.2,1.1-0.3l0.4,1.3
		c-0.5,0.3-1,0.4-1.6,0.5c-0.5,0-0.9-0.1-1.3-0.4c-0.4-0.3-0.7-0.6-0.8-1c-0.1-0.2-0.1-0.4-0.1-0.7c0-0.7,0.4-1.4,1-1.8
		c0.4-0.3,1-0.4,1.5-0.4h0.1c0-0.3-0.2-0.6-0.4-0.8c-0.2-0.3-0.4-0.4-0.7-0.5h-1.6v-0.9h-0.6v-1.2h9.1v1.2L193.3,142.9L193.3,142.9z
		 M191.9,142.9h-3.3c0.9,0.5,1.4,1.4,1.5,2.4c0.7,0.3,1.4,0.8,1.9,1.4L191.9,142.9L191.9,142.9z"/>
	<path class="st2" d="M196,142.9v7h-1.4v-7h-1.1v-1.2h3.4v1.2H196z"/>
	<path class="st2" d="M202.9,142.9h-6.5v-1.2h8.8v1.2h-1v7H203c-0.1-0.4-0.7-0.9-1.8-1.7c-0.6-0.4-1.2-0.7-1.9-0.9
		c-0.6-0.3-1.3-0.4-2-0.5l-0.4-1.4c0.9-0.5,1.8-1,2.7-1.3C200.3,143.9,201.4,143.5,202.9,142.9z M202.9,144.4l-0.8,0.3l-2.4,1
		l-0.3,0.1c1.2,0.4,2.2,1,3.2,1.7l0.3,0.3L202.9,144.4z"/>
	<path class="st2" d="M207,142.9v7h-1.4v-7h-1.1v-1.2h3.4v1.2H207z"/>
	<path class="st2" d="M207.5,142.9v-1.2h4.2c0,0,0,0,0-0.1c0-0.6-0.3-1.1-0.9-1.3h-0.3c-0.2,0-0.4,0-0.5,0c-0.2,0.1-0.4,0.1-0.5,0.1
		c-0.2,0-0.4,0.1-0.6,0.2c-0.2,0.2-0.5,0.3-0.8,0.4l-0.4-1c0.6-0.4,1.3-0.7,2-1c0.3-0.1,0.7-0.1,1.1-0.1c0.4,0,0.8,0.1,1.2,0.4
		c0.8,0.5,1.2,1.4,1.2,2.3h0.8v1.2L207.5,142.9z M212.4,151.1c-0.6-0.5-1.2-1-1.8-1.4c-0.5-0.3-1-0.6-1.5-0.7
		c-0.3-0.1-0.7-0.2-1-0.3V147h0.5h0.5c0.5,0,1.1-0.1,1.6-0.3c0.8-0.3,1.2-0.7,1.2-1.1c0-0.3-0.2-0.6-0.4-0.8l-0.8-0.5
		c-0.1,0-0.2,0-0.2,0c-0.2,0-0.4,0-0.6,0.1c-0.2,0.1-0.3,0.2-0.3,0.4c0,0.1,0.4,0.5,1.2,0.5l-0.8,1.2c-0.3,0-0.7-0.1-1-0.3
		c-0.5-0.3-0.9-0.8-0.9-1.4c0-0.6,0.4-1.1,0.9-1.3c0.5-0.3,1.1-0.4,1.6-0.4c0.2,0,0.5,0,0.7,0.1l0.6,0.3c0.9,0.4,1.5,1.3,1.4,2.2
		c0,0.7-0.3,1.3-0.9,1.7c-0.6,0.4-1.3,0.6-2,0.7c0.4,0.2,0.7,0.4,1.1,0.6c0.7,0.5,1.4,1,2,1.6L212.4,151.1z"/>
	<path class="st2" d="M222.3,142.9v7h-1.4v-2.8c0-0.3-0.1-0.5-0.3-0.7c-0.1-0.2-0.4-0.4-0.7-0.4c-0.3,0-0.5,0.2-0.6,0.4
		c-0.2,0.3-0.3,0.6-0.3,0.9h-1.5c0-0.4-0.1-0.7-0.3-1c-0.1-0.2-0.4-0.4-0.7-0.4c-0.2,0-0.4,0.1-0.6,0.2c-0.2,0.1-0.3,0.3-0.3,0.5
		v0.4v0.1c0,0.7,0.4,1.1,1.3,1.1c0.2,0,0.5,0,0.7,0l-0.5,1.4h-0.5c-0.7,0-1.3-0.3-1.8-0.7c-0.3-0.2-0.4-0.5-0.5-0.8
		c-0.1-0.3-0.2-0.7-0.2-1c0-0.7,0.2-1.3,0.7-1.8c0.5-0.5,1.2-0.7,1.9-0.7c0.7,0,1.4,0.4,1.8,1c0.4-0.6,1-1,1.7-1
		c0.4,0,0.7,0.2,1,0.4v-2h-7.6v-1.2h9.9v1.2L222.3,142.9z"/>
	<path class="st2" d="M232.9,142.9h-6.4v-1.2h8.8v1.2h-1v7h-1.3c0-0.4-0.7-0.9-1.8-1.7c-0.6-0.4-1.2-0.7-1.9-0.9
		c-0.6-0.3-1.3-0.4-2-0.5l-0.4-1.4c0.9-0.5,1.8-1,2.7-1.3C230.4,143.9,231.4,143.5,232.9,142.9z M232.9,144.4l-0.8,0.3l-2.4,1
		l-0.3,0.1c1.2,0.4,2.2,1,3.2,1.7l0.3,0.3V144.4z"/>
	<path class="st2" d="M237.7,142.9c-0.4,0.4-0.6,0.9-0.7,1.5c0.2,0.8,0.4,1.5,0.7,2.2c0.2,0.5,0.3,1.1,0.4,1.6
		c0,0.8-0.6,1.5-1.4,1.7c-0.5,0.2-1,0.2-1.5,0.3l0.2-1.2c0.8-0.2,1.2-0.5,1.2-0.9c-0.1-0.6-0.2-1.2-0.5-1.7
		c-0.3-0.5-0.5-1.1-0.5-1.7c0-0.6,0.3-1.2,0.6-1.8h-1.5v-1.2h4.1v1.2h-1L237.7,142.9z"/>
	<path class="st2" d="M240.7,142.9v7h-1.3v-7h-1.1v-1.2h3.4v1.2H240.7z"/>
	<path class="st2" d="M244,146.3c-0.6,0-1.2-0.2-1.6-0.6c-0.4-0.4-0.6-1-0.6-1.6c0-0.6,0.2-1.1,0.6-1.5c0.4-0.4,1-0.6,1.5-0.6
		c0.8,0,1.5,0.5,1.8,1.3c0.1,0.3,0.2,0.7,0.2,1c0,0.6-0.2,1.1-0.5,1.5C245.1,146.1,244.5,146.3,244,146.3z M245.5,150.7
		c-1.1-1-2.3-1.9-3.6-2.7v-2c1.8,1.2,3.4,2.6,4.8,4.2v1.4L245.5,150.7z M244.2,143.3c-0.1-0.1-0.3-0.1-0.4-0.1
		c-0.5,0-0.8,0.4-0.8,0.8c0,0.2,0.1,0.4,0.3,0.6c0.1,0.2,0.4,0.3,0.6,0.3h0.2c0.4-0.1,0.6-0.4,0.6-0.7
		C244.6,143.9,244.5,143.6,244.2,143.3L244.2,143.3z"/>
	<path class="st2" d="M255.6,140.9c-1.2-0.9-2.6-1.4-4.1-1.6c-1-0.1-2.1,0.4-2.7,1.2c-0.2,0.4-0.3,0.8-0.3,1.2h1v1.2h-1v7h-1.4v-7
		h-1v-1.2h1c0-0.9,0.4-1.8,1-2.4c0.7-0.7,1.6-1.1,2.5-1.1h0.6h0.2c0.9,0,1.7,0.2,2.5,0.6c0.8,0.4,1.5,0.8,2.3,1.3L255.6,140.9z"/>
	<path class="st2" d="M254.4,142.9L254.4,142.9c0.6,0,1.3,0.2,1.8,0.6c0.8,0.3,1.3,1.1,1.4,2c0,0.5-0.2,0.9-0.5,1.3
		c-0.3,0.4-0.7,0.6-1.2,0.7c-0.4,0.1-0.8,0.1-1.2,0v-1.3h0.4c0.7,0,1.1-0.3,1.1-0.8s-0.6-1-1.8-1.1v5.6h-1.2
		c-0.2-0.3-0.4-0.6-0.6-0.9c0,0-0.2-0.3-0.5-0.7c-0.1-0.2-0.3-0.3-0.5-0.5c-0.2-0.1-0.3-0.3-0.5-0.5c-0.1-0.1-0.2-0.2-0.3-0.2
		c-0.5-0.2-1-0.3-1.5-0.3l-0.4-1.4c0.7-0.5,1.3-0.9,2-1.3l1-0.6l1.1-0.6l0,0h-4.5v-1.2h9.7v1.2L254.4,142.9z M253,144.5
		c-0.3,0.3-0.7,0.5-1,0.7c-0.2,0.1-0.3,0.2-0.4,0.3c-0.2,0.1-0.3,0.3-0.4,0.4l0.7,0.6l1.2,1.3L253,144.5L253,144.5z"/>
	<path class="st2" d="M260.3,146.3c-0.6,0-1.2-0.2-1.6-0.6c-0.4-0.4-0.6-1-0.6-1.6c0-0.6,0.2-1.1,0.6-1.5c0.4-0.4,0.9-0.6,1.5-0.6
		c0.8,0,1.5,0.5,1.8,1.3c0.2,0.3,0.2,0.7,0.2,1c0,0.6-0.2,1.1-0.5,1.5C261.4,146.1,260.9,146.3,260.3,146.3z M261.9,150.7
		c-1.1-1-2.3-1.9-3.6-2.7v-2c1.8,1.2,3.4,2.6,4.8,4.2v1.4L261.9,150.7z M260.6,143.3c-0.1-0.1-0.3-0.1-0.4-0.1
		c-0.5,0-0.8,0.4-0.8,0.8c0,0.2,0.1,0.4,0.3,0.6c0.1,0.2,0.4,0.3,0.6,0.3h0.2c0.4-0.1,0.6-0.4,0.6-0.7
		C261.1,143.9,260.9,143.6,260.6,143.3L260.6,143.3L260.6,143.3z"/>
	<path class="st2" d="M104.4,150.6l2.6,0.9l1.1-0.9l-2.6-0.9L104.4,150.6z"/>
	<path class="st2" d="M105.3,143.3v-1.6H84.6v1.6h3.5v3.5h3c0,0,0.8-0.3,1-0.7v1.4c0,0.6-0.4,1.1-1,1.2h-4.4c-0.3,0-0.5-0.1-0.5-1.2
		v-3.3h-1.5v4.2c0,0.3,0.2,1.6,1.3,1.6h5.9c0.9-0.1,1.6-0.8,1.7-1.7v-4h-1.4c-0.1,0.6,0,1-0.7,1.2h-1.8v-2.2h5.1v6.7h1.8v-6.7h1.2
		v6.7h5.8c1,0,1.8-0.8,1.8-1.8v-4h-1.4c0,0.4,0,1-0.7,1h-3.9v-1.9L105.3,143.3z M103,146.7c0.3,0,0.6-0.3,0.9-0.7v1.6
		c0,0.6-0.5,1.2-0.9,1.2h-3.7v-2.1L103,146.7L103,146.7z"/>
	<path class="st2" d="M107.2,145.2h3.5v1.9h-3.5V145.2z"/>
	<path class="st2" d="M112.6,141.7v1.6h5.8v0.9h-5.8v3.8c0.1,1.2,0.8,2,2,2h5.2v-6.7h1.2v6.7h1.6v-8.3L112.6,141.7L112.6,141.7z
		 M118.4,148.9h-3.5c-0.5,0-0.9-0.7-0.9-1.4v-1.9h4.4C118.4,145.7,118.4,148.9,118.4,148.9z"/>
	<path class="st2" d="M130.2,143.3h7.1v0.9h-2c0,0.4-0.3,0.7-0.7,0.7c-0.4,0-0.7-0.3-0.7-0.7h-3.7v4c0,0.4,0,1.6,1.1,1.8h2.9v-1.4
		h-2c-0.4-0.1-0.8-0.5-0.7-0.9v-2h2v1.1h1.7V146c-0.1-0.4,1.8-0.4,2,0v4.1h1.6v-6.8h1.1v6.7h1.6v-8.3h-11.3V143.3z"/>
	<path class="st2" d="M127.7,142.2H124v2.2c0.1,0.9,0.9,1.6,1.8,1.6h3v-2.7C128.7,142.7,128.3,142.3,127.7,142.2z M126.6,144.5
		c-0.7,0-1.2-0.2-1.2-0.5c0-0.3,0.5-0.5,1.2-0.5s1.2,0.2,1.2,0.5C127.8,144.3,127.2,144.5,126.6,144.5z"/>
	<path class="st2" d="M124.2,146.8v1.4l4.5,1.9v-1.3L124.2,146.8z"/>
	<path class="st2" d="M165.5,142.2h-3.7v2.2c0.1,0.9,0.9,1.6,1.8,1.6h3v-2.7C166.4,142.7,166,142.3,165.5,142.2z M164.3,144.5
		c-0.7,0-1.2-0.2-1.2-0.5c0-0.3,0.5-0.5,1.2-0.5s1.2,0.2,1.2,0.5C165.5,144.3,165,144.5,164.3,144.5z"/>
	<path class="st2" d="M162,146.8v1.4l4.5,1.9v-1.3L162,146.8z"/>
	<path class="st2" d="M175,144.2v-0.9h2.9v-1.6h-10.1v1.6h5.8v0.9h-5.7v3.8c0.1,1.2,0.8,2,2,2h5.2v-4.1h1.4c0.2,0,0.3-0.1,0.3,0.2
		v0.7c0,0.3-0.1,0.6-0.3,0.7h-0.5v1.4h1.1c0.5-0.1,0.9-0.4,1.1-0.9v-3.8L175,144.2L175,144.2z M173.6,148.9h-3.5
		c-0.5,0-0.9-0.7-0.9-1.4v-1.9h4.4L173.6,148.9L173.6,148.9z"/>
	<path class="st2" d="M146.1,141.7v1.6h5.8v0.9h-5.8v3.8c0.1,1.2,0.8,2,2,2h5.2v-6.7h1.8l-0.8,1.4v0.9h1.2c0.6,0,0.9,0.5,0.9,1.6
		c0,0.8-0.2,1.3-0.8,1.4h-1.1v1.4h1.2c0.4,0,2,0.2,2-1.4c0.2-3.1,0.3-4-2-4.2l0.3-1.1h2.7v6.7h1.6v-8.4L146.1,141.7L146.1,141.7z
		 M151.9,148.9h-3.6c-0.5,0-0.9-0.7-0.9-1.4v-1.9h4.4L151.9,148.9z"/>
</g>
</svg>
