<?xml version="1.0" encoding="utf-8"?>
<!-- Generator: Adobe Illustrator 24.2.1, SVG Export Plug-In . SVG Version: 6.00 Build 0)  -->
<svg version="1.1" id="Layer_1" xmlns="http://www.w3.org/2000/svg" xmlns:xlink="http://www.w3.org/1999/xlink" x="0px" y="0px"
	 viewBox="0 0 300 160" style="enable-background:new 0 0 300 160;" xml:space="preserve">
<style type="text/css">
	.st0{fill:#FFFFFF;}
	.st1{fill:#FFD603;}
	.st2{fill:#0054A5;}
	.st3{fill:#4E4E50;}
</style>
<path class="st0" d="M288.4,160.5H10.6c-6.1,0-11.1-5-11.1-11.1l0,0V11.6c0-6.1,5-11.1,11.1-11.1l0,0h277.8c6.1,0,11.1,5,11.1,11.1
	l0,0v137.8C299.5,155.5,294.5,160.5,288.4,160.5L288.4,160.5z"/>
<g>
	<path class="st1" d="M151.3,95.1c-3.2,0.1-6.4-0.1-9.6-0.4c-3.3-0.3-6.5-0.8-9.8-1.5c-7.1-1.7-13.7-4.6-19.2-9.5
		c-4.6-4-7.8-8.9-10-14.6c-1.6-4.1-2.5-8.3-3.1-12.7c-0.5-3.8-0.5-7.6-0.5-11.4c0-2.8,2.4-5.1,4.9-5.2c0.4,0,0.9-0.1,1.3-0.1
		c3.6,0,7.3,0,10.9,0c0.7,0,1.3,0,2,0.2c2.5,0.7,4,2.7,4.1,5.6c0,1.8,0,3.6,0,5.3c0,3.8,0.8,7.4,2.6,10.8c2.1,4.1,5.4,7,9.4,9.1
		c3.4,1.8,7.1,2.8,11,3.3c1.8,0.2,3.6,0.3,5.5,0.3c0.2,0.1,0.4,0.1,0.6,0.2c4.7,0.8,8.2,4.5,8.7,9.1c0.5,4.8-2.5,9.4-7,10.9
		C152.4,94.9,151.8,94.9,151.3,95.1z"/>
	<path class="st2" d="M151.3,95.1c0.5-0.3,1.1-0.3,1.7-0.5c4.6-1.5,7.6-6.1,7-10.9c-0.5-4.7-4-8.3-8.7-9.1c-0.2,0-0.4,0-0.6-0.2
		c5.5-0.1,10.6-1.5,15.3-4.2c6.1-3.5,9.6-8.8,10.7-15.7c0.2-1.4,0.3-2.7,0.3-4.1c0-1.7,0-3.4,0-5.2c0-2.5,1.7-4.6,4.1-5.3
		c0.3-0.1,0.7-0.1,1.1-0.1c4.3,0,8.5-0.1,12.8,0c2.3,0,3.8,1.3,4.7,3.4c0.3,0.6,0.4,1.3,0.4,1.9c0,3.2,0,6.5-0.3,9.7
		c-0.7,6.8-2.3,13.2-5.6,19.2c-4,7.2-9.9,12.4-17.3,15.8c-3,1.4-6.2,2.4-9.4,3.2c-5,1.3-10.1,1.9-15.3,2
		C151.9,95.2,151.6,95.2,151.3,95.1z"/>
	<path class="st3" d="M152.3,127.7c-2.2,1.7-4.3,3.3-6.4,4.8c-2.2,1.6-4.5,3.1-6.8,4.5c-0.8,0.5-1.6,1-2.6,1.2
		c-2.4,0.5-5.2-1.1-6.1-3.3c-0.3-0.7-0.3-1.5-0.1-2.2c0.2-0.6,0.4-1.1,0.6-1.7c0.5-1.2,0.8-2.5,0.9-3.8c0.2-2.3-0.3-4.4-1.7-6.2
		c-0.9-1.1-1.4-2.4-1.6-3.8c-0.3-2,0.4-3.5,2-4.7c1.5-1,3.2-1.5,4.9-1.8c2.3-0.4,4.6-0.1,6.9,0.2c1.2,0.2,2.3,0.4,3.4,0.8
		c2,0.6,3.7,1.7,5.3,3c0.4,0.3,0.7,0.6,1.1,0.9c0.3-0.2,0.2-0.4,0.2-0.5c0-1.1,0-2.1,0-3.2c0-1.3,0.6-1.9,1.9-1.9
		c5.4,0,10.8,0,16.2,0c1.3,0,1.9,0.6,1.9,1.9c0,9.4,0,18.9,0,28.3c0,1.3-0.6,2-2,2c-1.1,0-2.3,0-3.4,0c-1.3,0.1-2.1-0.7-2.1-2.1
		c0-6.5,0-13.1,0-19.6c0-0.8,0-1.5,0-2.3s-0.2-1-1-1c-1,0-2,0-3,0c-0.8,0-1.1,0.3-1.1,1.1c0,0.2,0,0.5,0,0.7c0,6.9,0,13.9,0,20.8
		c0,0.2,0,0.4,0,0.6c0,1-0.7,1.7-1.7,1.7c-1.4,0-2.7,0-4.1,0c-1,0-1.7-0.7-1.7-1.8c0-1.3,0-2.7,0-4c0-2.5,0-5.1,0-7.6
		C152.3,128.3,152.3,128.1,152.3,127.7z M138.9,117.4c-0.6,0-1.3,0-1.9,0.2c-0.6,0.2-0.7,0.7-0.4,1.2c0.1,0.2,0.3,0.4,0.4,0.5
		c1.6,1.8,2,3.9,1.5,6.3c-0.2,1-0.6,2.1-0.8,3.1c-0.2,0.6,0,0.8,0.6,0.6c0.7-0.2,1.3-0.5,1.8-0.9c2.4-1.5,4.6-3.2,6.7-5.1
		c0.5-0.5,1.1-1,1.5-1.6c0.5-0.7,0.4-1-0.2-1.6c-0.3-0.3-0.7-0.5-1.2-0.7C144.5,118.2,141.8,117.6,138.9,117.4z"/>
	<path class="st3" d="M121.3,109.7c1.1,0,2.2,0,3.2,0.1c0.3,0,0.7,0,1,0.1c0.8,0.2,1.3,0.7,1.3,1.5c0,1.3,0,2.6,0,4
		c0,1-0.7,1.6-1.8,1.6c-3.1,0-6.2,0-9.3,0c-0.9,0-0.9-0.1-0.9,0.9s0,2.1,0,3.1c0,1.4,0.8,2.1,2.2,2.1c0.3,0,0.7-0.1,1-0.1
		c1.8-0.4,3.5-0.8,5.2-1.3c1.7-0.4,3.2,0.5,3.5,2.3c0,0.3,0,0.6,0,0.8c0,1.7,0,3.5,0,5.2c0,3.3-1.3,6-3.8,8.2
		c-2.8,2.5-6.2,3.8-9.9,3.9c-2.2,0.1-4.5,0-6.6-0.6c-4.4-1.1-7.3-3.8-8.9-8.1c-1-2.8-1.4-5.6-1.2-8.6c0.1-1.5,0.1-3,0.6-4.4
		c0.4-1.1,0.7-1.4,1.9-1.4c1,0,1.9,0,2.9,0c1.1,0,1.8,0.7,1.8,1.8c-0.1,2.2,0,4.3,0.3,6.4c0.2,1.2,0.5,2.4,0.9,3.6
		c0.5,1.5,1.6,2.5,3.1,3c2.8,0.9,5.7,0.9,8.5-0.1c1.1-0.4,2-1,2.7-1.9c0.4-0.5,0.7-1.1,0.9-1.8c0.3-0.9-0.1-1.3-1-1.2
		c-1.3,0.2-2.6,0.5-3.9,0.7s-2.7,0.3-4,0c-1.8-0.4-2.7-1.4-2.9-3.2c0-0.4,0-0.9,0-1.3c0-2.5,0-5.1,0-7.6c0-0.7,0-0.7-0.7-0.7
		c-2.9,0-5.8,0-8.7,0c-1.4,0-2-0.6-2-2c0-1,0-2.1,0-3.1c0-1.3,0.6-2,2-2c4.6,0,9.3,0,13.9,0c0.5,0,0.9,0,1.4-0.1
		c0.7-0.1,1.2-0.4,1.4-1.1c0.2-0.7-0.1-1.3-0.6-1.8c-0.6-0.5-1.4-0.7-2.2-0.5c-1.8,0.4-3.5,0.6-5.3,0.8c-2.2,0.2-4.4,0.1-6.5-0.6
		c-0.3-0.1-0.7-0.3-1-0.4c-1.6-0.8-2.4-2.3-2.1-4.1c0.2-1.3,0.7-2.6,1.3-3.8c0.1-0.1,0.2-0.3,0.3-0.4c0.5-0.6,0.9-0.8,1.4,0
		c1.1,1.8,2.8,2.6,4.8,2.7c1.8,0.1,3.5-0.2,5.2-0.5c1.1-0.2,2.2-0.4,3.4-0.5c1.5-0.1,2.9,0.1,4.3,0.8c3.6,1.7,4.4,5.7,3.2,8.6
		C121.5,109.2,121.4,109.4,121.3,109.7z"/>
	<path class="st3" d="M203.6,124.4c0,4,0,8,0,12c0,0.5,0,1-0.1,1.4c-0.3,2.1-1.5,3.3-3.5,3.9c-1,0.3-1.9,0.3-2.9,0.1
		c-1.1-0.3-2.3-0.7-3.4-0.9c-2.4-0.6-4.8-0.8-7.2-0.8c-1.9,0-3.7,0-5.5,0.2c-0.8,0.1-1.6,0.1-2.4,0.1c-1.5-0.1-2.6-0.8-3.2-2.3
		c-0.5-1.3-0.7-2.6-0.6-3.9c0-0.9,0.1-1.8,0.1-2.7c0-1.4,0.7-2.4,2-3.1c0.9-0.5,1.9-0.8,2.9-1.1c0.7-0.2,1.4-0.5,2-0.9
		c0.5-0.3,1-0.6,0.9-1.3c-0.1-0.7-0.6-1.1-1.2-1.3c-0.8-0.2-1.6-0.3-2.4-0.4c-0.7-0.1-1.3-0.2-1.9-0.5c-0.9-0.4-1.5-1-1.9-2
		c-0.3-0.9-0.4-1.9-0.4-2.8c-0.1-2.2,0-4.4,0.1-6.5c0-0.9,0.6-1.5,1.5-1.6c0.2,0,0.5,0,0.7,0c8.2,0,16.3,0,24.5,0c0.1,0,0.3,0,0.4,0
		c1.1,0,1.8,0.7,1.8,1.8C203.6,115.9,203.6,120.1,203.6,124.4L203.6,124.4z M196.1,124.1c0-0.4,0-0.9,0-1.3
		c-0.1-1.4-0.1-2.8-0.2-4.2c-0.1-0.9-0.7-1.5-1.6-1.5c-0.1,0-0.3,0-0.4,0c-3.1,0-6.2,0-9.3,0c-0.2,0-0.4,0-0.6,0
		c-0.6,0.1-0.8,0.3-0.5,0.9c0.2,0.7,0.7,1.1,1.4,1.4c1,0.3,2,0.7,2.9,1.1c2.6,1.2,3.6,4.3,2.1,6.8c-0.6,0.9-1.3,1.6-2.2,2.2
		c-0.8,0.5-1.7,1-2.6,1.4c-0.4,0.2-0.8,0.4-1.1,0.8c-0.3,0.3-0.4,0.6-0.3,1c0.2,0.4,0.5,0.5,0.9,0.6c0.1,0,0.2,0,0.3,0
		c0.9,0,1.8,0,2.7,0c1.8,0,3.6,0.1,5.4,0.4c0.7,0.1,1.4,0.3,2.2,0.4c0.8,0.1,1.1-0.2,1.2-1c0-0.2,0-0.5,0-0.7
		C196.1,129.4,196.1,126.7,196.1,124.1z"/>
	<path class="st2" d="M174.9,20.1c0-7,5.7-12.6,12.7-12.5c7.1,0.1,12.6,5.9,12.5,12.7s-5.7,12.4-12.7,12.4
		C180.5,32.7,174.9,27.1,174.9,20.1z"/>
	<path class="st1" d="M124.3,20.1c0,6.6-5.3,12.6-12.6,12.6c-7.4,0-12.6-6.1-12.6-12.6c0-6.6,5.3-12.6,12.6-12.6
		C118.7,7.5,124.3,13.2,124.3,20.1z"/>
	<path class="st3" d="M188.4,142.6c2.7,0,4.9,2.2,4.9,4.9c0,2.8-2.2,5-5,5c-2.7,0-4.9-2.2-4.9-5
		C183.4,144.8,185.6,142.6,188.4,142.6z"/>
</g>
</svg>
