<?xml version="1.0" encoding="utf-8"?>
<!-- Generator: Adobe Illustrator 24.0.0, SVG Export Plug-In . SVG Version: 6.00 Build 0)  -->
<svg version="1.1" id="Layer_1" xmlns="http://www.w3.org/2000/svg" xmlns:xlink="http://www.w3.org/1999/xlink" x="0px" y="0px"
	 viewBox="0 0 300 160" style="enable-background:new 0 0 300 160;" xml:space="preserve">
<style type="text/css">
	.st0{fill:#FFFFFF;}
	.st1{fill:#1568B2;}
	.st2{fill:#FAA736;}
</style>
<path class="st0" d="M288.9,160H11.1C5,160,0,155,0,148.9V11.1C0,5,5,0,11.1,0h277.8C295,0,300,5,300,11.1v137.8
	C300,155,295,160,288.9,160z"/>
<g>
	<polygon class="st1" points="130.8,125.3 107.2,125.3 121.9,34.6 145.5,34.6 	"/>
	<path class="st1" d="M87.2,34.7L64.7,97.1l-2.7-13.5l0,0l-7.9-40.8c0,0-1-8.2-11.3-8.2H5.5l-0.4,1.6c8.8,2.2,17.1,5.7,24.8,10.4
		l20.6,78.7h24.6l37.6-90.7H87.2z"/>
	<path class="st1" d="M273.2,125.3h21.7l-18.9-90.7h-19.1c-4.8-0.3-9.2,2.4-10.9,6.7l-35.2,83.9h24.8l4.9-13.5h29.9L273.2,125.3z
		 M247.2,93.3l12.4-33.9l7,33.9H247.2z"/>
	<path class="st1" d="M212.6,56.5l3.3-19.5c-6.8-2.5-14.1-3.8-21.4-4c-11.7,0-39.6,5.2-39.6,30c0,23.4,32.7,23.8,32.7,36
		s-29.3,10.1-38.9,2.4l-3.5,20.4c8.4,3.5,17.4,5.3,26.6,5.1c16,0,40.5-8.4,40.5-31.1c0-23.6-33-25.8-33-36S202.5,50.9,212.6,56.5z"
		/>
	<path class="st2" d="M62.1,83.6l-7.9-40.8c0,0-1-8.2-11.3-8.2H5.5l-0.4,1.6C18,39.5,30,45.5,40.2,53.8C50.1,61.7,57.6,72,62.1,83.6
		z"/>
</g>
</svg>
