<?xml version="1.0" encoding="utf-8"?>
<!-- Generator: Adobe Illustrator 25.0.0, SVG Export Plug-In . SVG Version: 6.00 Build 0)  -->
<svg version="1.1" id="Layer_1" xmlns="http://www.w3.org/2000/svg" xmlns:xlink="http://www.w3.org/1999/xlink" x="0px" y="0px"
	 viewBox="0 0 200 200" style="enable-background:new 0 0 200 200;" xml:space="preserve">
<style type="text/css">
	.st0{fill-rule:evenodd;clip-rule:evenodd;fill:#181616;}
	.st1{fill:#181616;}
</style>
<g>
	<path class="st0" d="M100,24.9c-42.5,0-77,34.5-77,77c0,34,22.1,62.9,52.7,73.1c3.8,0.7,5.3-1.7,5.3-3.7c0-1.8-0.1-7.9-0.1-14.3
		c-21.4,4.7-25.9-9.1-25.9-9.1c-3.5-8.9-8.5-11.3-8.5-11.3c-7-4.8,0.5-4.7,0.5-4.7c7.7,0.5,11.8,7.9,11.8,7.9
		c6.9,11.8,18,8.4,22.4,6.4c0.7-5,2.7-8.4,4.9-10.3c-17.1-1.9-35.1-8.5-35.1-38.1c0-8.4,3-15.3,7.9-20.7c-0.8-1.9-3.4-9.8,0.7-20.4
		c0,0,6.5-2.1,21.2,7.9c6.1-1.7,12.7-2.6,19.3-2.6c6.5,0,13.1,0.9,19.3,2.6c14.7-10,21.2-7.9,21.2-7.9c4.2,10.6,1.6,18.4,0.8,20.4
		c4.9,5.4,7.9,12.3,7.9,20.7c0,29.6-18,36.1-35.2,38c2.8,2.4,5.2,7.1,5.2,14.3c0,10.3-0.1,18.6-0.1,21.1c0,2,1.4,4.5,5.3,3.7
		c30.6-10.2,52.6-39,52.6-73.1C177,59.4,142.5,24.9,100,24.9z"/>
	<path class="st1" d="M52.2,135.5c-0.2,0.4-0.8,0.5-1.3,0.2c-0.6-0.3-0.9-0.8-0.7-1.2c0.2-0.4,0.8-0.5,1.3-0.2
		C52,134.5,52.4,135.1,52.2,135.5L52.2,135.5z M51.2,134.8"/>
	<path class="st1" d="M55.3,138.9c-0.4,0.3-1.1,0.2-1.6-0.4c-0.5-0.5-0.6-1.3-0.2-1.6c0.4-0.3,1.1-0.2,1.6,0.4
		C55.6,137.9,55.7,138.6,55.3,138.9L55.3,138.9z M54.5,138.1"/>
	<path class="st1" d="M58.3,143.4c-0.5,0.3-1.2,0-1.7-0.7c-0.5-0.7-0.5-1.5,0-1.8c0.5-0.3,1.2,0,1.7,0.6
		C58.8,142.2,58.8,143,58.3,143.4L58.3,143.4z M58.3,143.4"/>
	<path class="st1" d="M62.5,147.7c-0.4,0.5-1.3,0.3-2-0.3c-0.7-0.6-0.9-1.5-0.4-2c0.4-0.5,1.3-0.3,2,0.3
		C62.7,146.3,62.9,147.2,62.5,147.7L62.5,147.7z M62.5,147.7"/>
	<path class="st1" d="M68.2,150.1c-0.2,0.6-1.1,0.9-1.9,0.6c-0.9-0.3-1.4-1-1.3-1.6c0.2-0.6,1.1-0.9,1.9-0.6
		C67.8,148.8,68.4,149.5,68.2,150.1L68.2,150.1z M68.2,150.1"/>
	<path class="st1" d="M74.5,150.6c0,0.6-0.7,1.2-1.6,1.2c-0.9,0-1.7-0.5-1.7-1.1c0-0.6,0.7-1.2,1.6-1.2
		C73.8,149.5,74.5,150,74.5,150.6L74.5,150.6z M74.5,150.6"/>
	<path class="st1" d="M80.4,149.6c0.1,0.6-0.5,1.3-1.4,1.4c-0.9,0.2-1.7-0.2-1.8-0.8c-0.1-0.6,0.5-1.3,1.4-1.4
		C79.5,148.6,80.3,149,80.4,149.6L80.4,149.6z M80.4,149.6"/>
</g>
</svg>
