<?xml version="1.0" encoding="utf-8"?>
<!-- Generator: Adobe Illustrator 24.2.1, SVG Export Plug-In . SVG Version: 6.00 Build 0)  -->
<svg version="1.1" id="nopcommerce_logo" xmlns="http://www.w3.org/2000/svg" xmlns:xlink="http://www.w3.org/1999/xlink" x="0px"
	 y="0px" viewBox="0 0 712.9 542.2" style="enable-background:new 0 0 712.9 542.2;" xml:space="preserve">
<style type="text/css">
	.st0{fill:#40BDD7;}
</style>
<path class="st0" d="M605.9,520c-43-0.2-77.3-33.7-77.3-75.7c0-46,40.1-85.2,87.3-85.4c41.6-0.1,79.3,36.2,79.4,76.4
	C695.4,481,654,520.2,605.9,520z"/>
<path class="st0" d="M322.1,455.9c0.6-45.3,39-84.7,82.5-84.7c28.8,0,53.6,19.4,60.4,47.4c11.9,48.8-29,101.8-79.4,102.9
	C349.9,522.2,321.6,493,322.1,455.9z"/>
<path class="st0" d="M687.4,263.1c9.8-27.6,0.2-53.8-24.3-70.2c-30.8-20.6-79.3-11.8-104.9,19c-12,14.5-19.7,30.8-17.7,49.9
	c3.8,35.9,32.7,58.1,71.4,55.6C650.3,312.8,677.2,291.6,687.4,263.1z"/>
<path class="st0" d="M405.1,331.5c-37.6,0-61.6-30-53.6-67c7.6-35,42.1-63.3,77.7-63.7c37.8-0.4,63,30.4,54.9,67.3
	C476.4,303.5,441.6,331.5,405.1,331.5z"/>
<path class="st0" d="M161.9,459.6c3.1-29.6,19.5-56.6,52.9-71c39.6-17.2,77.9,11,74.3,54c-2.8,33.1-19.5,57.8-49.1,72.5
	C200.1,535,161.1,509.8,161.9,459.6z"/>
<path class="st0" d="M638.9,22c7.2-0.7,18.4,2.1,28.8,8.5c23.6,14.6,30.5,40.5,17.6,66.1c-15.7,31.2-57.5,50.4-91.7,42.1
	c-37.8-9.2-53.2-46.2-31.7-78.5C578.8,34.9,603.2,22.3,638.9,22z"/>
<path class="st0" d="M15.1,461.2c1.1-21.1,17.1-46.3,46.7-62c33.8-17.9,69.1,4.2,66.8,41.8c-2,32.3-17.7,57.5-46.6,73
	C47.2,532.7,15.1,513,15.1,461.2z"/>
<path class="st0" d="M423,164.9c-33.8-0.1-54.8-27.7-45.4-59.8c10.1-34.7,53.6-61.3,87.4-53.4c27.7,6.5,41.8,30.5,33.8,57.9
	C489.8,140.2,455.9,164.9,423,164.9z"/>
<path class="st0" d="M272.6,224.2c28.5,0.1,47.9,24.6,42.9,54.1c-5.3,30.8-33,57.9-64.1,62.6c-28.2,4.2-51.3-15.2-51.6-43.5
	C199.5,260.6,235.7,224.1,272.6,224.2z"/>
<path class="st0" d="M228.3,147.6c1.2-39.5,48.3-77.3,85.7-68.8c17.6,4,30,18,31.6,35.6c3.6,39.5-46.2,82.7-85.2,74
	C240.2,184,227.7,168,228.3,147.6z"/>
<path class="st0" d="M99.1,353.7c-22.4-0.1-38.1-16.9-37.8-40.5c0.4-34.2,30.1-68.5,64-73.9c24.1-3.8,43.4,11.2,45.9,35.6
	C174.7,311.9,136.5,353.9,99.1,353.7z"/>
<path class="st0" d="M101.6,170.6c0.5-30.6,32.5-63.5,63.6-65.3c24.1-1.4,40,16.3,36.4,40.5c-4.1,27.9-33.5,56.1-61.7,59
	C117.4,207.1,101.3,192.8,101.6,170.6z"/>
</svg>
