<?xml version="1.0" encoding="utf-8"?>
<!-- Generator: Adobe Illustrator 24.2.1, SVG Export Plug-In . SVG Version: 6.00 Build 0)  -->
<svg version="1.1" id="Layer_1" xmlns="http://www.w3.org/2000/svg" xmlns:xlink="http://www.w3.org/1999/xlink" x="0px" y="0px"
	 viewBox="0 0 550 400" style="enable-background:new 0 0 550 400;" xml:space="preserve">
<style type="text/css">
	.st0{fill:url(#SVGID_1_);}
</style>
<desc>Created with Fabric.js 3.6.3</desc>
<linearGradient id="SVGID_1_" gradientUnits="userSpaceOnUse" x1="25.0686" y1="448.5166" x2="25.8643" y2="448.5166" gradientTransform="matrix(0 -361.1856 -361.1856 0 162283.4375 9343.2979)">
	<stop  offset="0" style="stop-color:#04B6F0"/>
	<stop  offset="1" style="stop-color:#3ECAF0"/>
</linearGradient>
<path class="st0" d="M538.1,110.7c-0.2-21.2-39.4-30.9-141.1-30.9C158.6,79.8,98.1,69.6,33.4,1.5c27.2,40.9,42.1,117.6,294.1,113.8
	c262.9-4.1,102.5,67.8,55.9,149c84.2-75.1,154.5-124.6,154.7-153.3V110.7z M203,328.8c0,19.7-16.3,36-36,36
	c-19.9,0-36.1-16.1-36.1-36c0,0,0,0,0,0c0-19.8,16.3-36.1,36.1-36.1c0,0,0,0,0,0C186.9,292.7,203,308.8,203,328.8z M367.2,328.8
	c0,19.7-16.3,36-36,36c-19.9,0-36.1-16.1-36.1-36c0,0,0,0,0,0c0-19.8,16.3-36.1,36-36.1c0,0,0,0,0,0
	C351.1,292.7,367.2,308.8,367.2,328.8z"/>
</svg>
