<?xml version="1.0" encoding="utf-8"?>
<!-- Generator: Adobe Illustrator 25.0.0, SVG Export Plug-In . SVG Version: 6.00 Build 0)  -->
<svg version="1.1" id="Layer_1" xmlns="http://www.w3.org/2000/svg" xmlns:xlink="http://www.w3.org/1999/xlink" x="0px" y="0px"
	 viewBox="0 0 200 200" style="enable-background:new 0 0 200 200;" xml:space="preserve">
<style type="text/css">
	.st0{fill:#CD6799;}
</style>
<path class="st0" d="M170,110.9c-6.8,0-12.6,1.7-17.6,4.1c-1.8-3.6-3.6-6.8-3.9-9.1c-0.4-2.7-0.8-4.4-0.4-7.6
	c0.4-3.3,2.3-7.9,2.3-8.2c0-0.4-0.4-2-4.3-2.1s-7.3,0.7-7.6,1.8c-0.4,1-1.1,3.4-1.6,5.8c-0.7,3.5-7.8,16.2-11.9,22.8
	c-1.3-2.6-2.4-4.8-2.7-6.7c-0.4-2.7-0.8-4.4-0.4-7.6s2.3-7.9,2.3-8.2s-0.4-2-4.3-2.1c-3.9,0-7.3,0.7-7.6,1.8c-0.4,1-0.8,3.4-1.6,5.8
	c-0.8,2.3-10.3,23.4-12.7,28.9c-1.3,2.8-2.4,5-3.1,6.5l0,0c0,0,0,0.1-0.1,0.3c-0.7,1.3-1.1,2-1.1,2s0,0,0,0c-0.5,1-1.1,1.8-1.4,1.8
	c-0.2,0-0.6-2.5,0.1-6c1.4-7.3,4.8-18.7,4.7-19.1c0-0.2,0.6-2.2-2.2-3.2c-2.8-1-3.8,0.7-4,0.7c-0.2,0-0.4,0.6-0.4,0.6
	s3.1-12.8-5.9-12.8c-5.6,0-13.3,6.1-17.1,11.6c-2.4,1.3-7.5,4.1-13,7.1c-2.1,1.2-4.2,2.3-6.3,3.4c-0.1-0.1-0.3-0.3-0.4-0.5
	c-10.8-11.6-30.9-19.7-30-35.3c0.3-5.7,2.3-20.5,38.5-38.6c29.8-14.7,53.5-10.6,57.6-1.6C119.6,60.1,101,84,70.2,87.4
	c-11.8,1.3-17.9-3.2-19.5-4.9c-1.6-1.8-1.9-1.9-2.5-1.5c-1,0.5-0.4,2.1,0,3c0.9,2.4,4.7,6.7,11.1,8.7c5.7,1.8,19.4,2.9,36.1-3.6
	c18.7-7.2,33.2-27.3,29-44.1C120.2,28.1,91.9,22.4,65.1,32c-15.9,5.7-33.2,14.6-45.6,26.2C4.7,71.9,2.3,83.9,3.3,89
	c3.4,17.8,28,29.4,37.9,38c-0.5,0.3-1,0.5-1.3,0.7c-4.9,2.4-23.7,12.2-28.3,22.6c-5.3,11.8,0.8,20.2,4.9,21.3
	C29,175.2,42,168.9,49,158.5s6.1-23.9,2.9-30.1c0-0.1-0.1-0.1-0.1-0.2c1.3-0.7,2.6-1.5,3.9-2.3c2.5-1.5,5-2.9,7.1-4
	c-1.2,3.3-2.1,7.2-2.5,12.9c-0.5,6.7,2.2,15.3,5.8,18.7c1.6,1.5,3.5,1.5,4.7,1.5c4.2,0,6.1-3.5,8.1-7.6c2.5-5,4.8-10.9,4.8-10.9
	s-2.9,15.8,4.9,15.8c2.8,0,5.7-3.7,7-5.6c0,0,0,0,0,0s0.1-0.1,0.2-0.4c0.3-0.5,0.5-0.7,0.5-0.7s0,0,0-0.1c1.1-2,3.7-6.5,7.5-13.9
	c4.9-9.6,9.6-21.7,9.6-21.7s0.4,2.9,1.9,7.8c0.8,2.9,2.6,6,4,9.1c-1.1,1.6-1.8,2.5-1.8,2.5s0,0,0,0c-0.9,1.2-1.9,2.5-3,3.8
	c-3.9,4.6-8.5,9.9-9.1,11.4c-0.7,1.8-0.6,3.1,0.8,4.2c1,0.8,2.9,0.9,4.7,0.8c3.5-0.2,5.9-1.1,7.1-1.6c1.9-0.7,4.1-1.7,6.1-3.2
	c3.8-2.8,6.1-6.8,5.9-12.1c-0.1-2.9-1.1-5.8-2.2-8.5c0.4-0.5,0.7-1,1-1.5c6-8.7,10.6-18.3,10.6-18.3s0.4,2.9,1.9,7.8
	c0.7,2.5,2.2,5.2,3.4,7.8c-5.6,4.6-9.1,9.9-10.3,13.3c-2.2,6.4-0.5,9.3,2.8,10c1.5,0.3,3.6-0.4,5.2-1.1c2-0.6,4.3-1.7,6.5-3.4
	c3.8-2.8,7.4-6.7,7.2-12c-0.1-2.4-0.7-4.8-1.6-7.1c4.8-2,10.9-3.1,18.8-2.2c16.8,2,20.2,12.5,19.5,16.9s-4.2,6.8-5.3,7.6
	s-1.6,1-1.5,1.5c0.1,0.8,0.7,0.7,1.7,0.6c1.4-0.2,8.8-3.6,9.2-11.7C197.4,122.1,187.5,110.8,170,110.9z M40,154.7
	c-5.6,6.1-13.4,8.4-16.7,6.4c-3.6-2.1-2.2-11.1,4.7-17.5c4.2-3.9,9.6-7.6,13.1-9.8c0.8-0.5,2-1.2,3.5-2.1c0.2-0.1,0.4-0.2,0.4-0.2
	l0,0c0.3-0.2,0.6-0.4,0.8-0.5C48.3,140.2,45.9,148.3,40,154.7z M80.7,127c-1.9,4.7-6,16.9-8.5,16.2c-2.1-0.6-3.4-9.8-0.4-18.9
	c1.5-4.6,4.7-10,6.6-12.1c3-3.4,6.4-4.5,7.2-3.1C86.7,110.9,81.9,124,80.7,127z M114.3,143.1c-0.8,0.4-1.6,0.7-1.9,0.5
	c-0.2-0.1,0.4-0.7,0.4-0.7s4.2-4.5,5.9-6.6c1-1.2,2.1-2.6,3.3-4.2c0,0.1,0,0.3,0,0.5C121.9,138,116.6,141.6,114.3,143.1z
	 M140.2,137.2c-0.6-0.4-0.5-1.8,1.5-6.3c0.8-1.7,2.6-4.6,5.8-7.4c0.4,1.1,0.6,2.2,0.6,3.3C148,133.6,143.1,136.1,140.2,137.2z"/>
</svg>
