<?xml version="1.0" encoding="utf-8"?>
<!-- Generator: Adobe Illustrator 25.0.0, SVG Export Plug-In . SVG Version: 6.00 Build 0)  -->
<svg version="1.1" id="Layer_1" xmlns="http://www.w3.org/2000/svg" xmlns:xlink="http://www.w3.org/1999/xlink" x="0px" y="0px"
	 viewBox="0 0 200 200" style="enable-background:new 0 0 200 200;" xml:space="preserve">
<style type="text/css">
	.st0{fill:#07B6D5;}
</style>
<g>
	<path class="st0" d="M98.1,48.1c-30.4,1-39.4,22.7-41.5,34.5c2.7-4.4,11.2-13.9,23.7-13.9c14.6,0,25.7,16.3,32.5,21.4
		c8.2,6.2,24.8,14.3,46.5,7.7c17.3-5.3,25.4-23.7,27.1-32.4c-8.4,11.4-21.1,18.2-36.8,10.2C138.8,70,130.7,47.1,98.1,48.1z"/>
	<path class="st0" d="M55.1,99.8c-30.4,1-39.4,22.7-41.5,34.5c2.7-4.4,11.2-13.9,23.7-13.9c14.6,0,25.7,16.3,32.5,21.4
		c8.2,6.2,24.8,14.3,46.5,7.7c17.3-5.3,25.4-23.7,27.1-32.4c-8.4,11.4-21.1,18.2-36.8,10.2C95.8,121.7,87.7,98.8,55.1,99.8z"/>
</g>
</svg>
