<svg id="Layer_1" data-name="Layer 1" xmlns="http://www.w3.org/2000/svg" viewBox="0 0 477.37 521.53"><defs><style>.cls-1{fill:#fff;}.cls-2{fill:#fcb01a;}.cls-3{fill:#4a263f;}.cls-4{fill:#3fb54a;}.cls-5{fill:#64435d;}.cls-6{fill:#dfe3f3;}.cls-7{fill:#e2e4f3;}</style></defs><path class="cls-1" d="M283.45,281.21a5.42,5.42,0,1,0,5.41,5.42A5.42,5.42,0,0,0,283.45,281.21Zm0,10.17a4.75,4.75,0,1,1,4.75-4.75A4.75,4.75,0,0,1,283.45,291.38Z" transform="translate(-21.81 -4.72)"/><path class="cls-1" d="M303,292a5.42,5.42,0,1,0-5.41-5.41A5.42,5.42,0,0,0,303,292Zm0-10.16a4.75,4.75,0,1,1-4.74,4.75A4.75,4.75,0,0,1,303,281.88Z" transform="translate(-21.81 -4.72)"/><path class="cls-1" d="M263.93,281.21a5.42,5.42,0,1,0,5.42,5.42A5.42,5.42,0,0,0,263.93,281.21Zm0,10.17a4.75,4.75,0,1,1,4.75-4.75A4.75,4.75,0,0,1,263.93,291.38Z" transform="translate(-21.81 -4.72)"/><path class="cls-1" d="M153.48,297.13a.34.34,0,0,0-.39.28.33.33,0,0,0,.28.38,8.18,8.18,0,0,1,2.24.74c-1.34,1.29-1.24,3.73-1.24,3.84a.34.34,0,0,0,.34.32h0a.33.33,0,0,0,.32-.35s-.09-2.45,1.19-3.47a6.34,6.34,0,0,1,2.31,2.4.35.35,0,0,0,.31.2l.14,0a.34.34,0,0,0,.16-.44A7.56,7.56,0,0,0,153.48,297.13Z" transform="translate(-21.81 -4.72)"/><path class="cls-1" d="M179.38,294.14a.32.32,0,0,0-.16.44.34.34,0,0,0,.45.16s4-1.87,6.73,0a.34.34,0,0,0,.19.05.33.33,0,0,0,.19-.61C183.68,292.11,179.56,294.05,179.38,294.14Z" transform="translate(-21.81 -4.72)"/><path class="cls-1" d="M182.78,310.75a3.94,3.94,0,0,1-5.23-1.69,3.38,3.38,0,0,0,.86-1,.34.34,0,0,0-.15-.45.35.35,0,0,0-.45.15,2.88,2.88,0,0,1-.87.95,2.23,2.23,0,0,1-1.42.36.34.34,0,0,0-.36.3.33.33,0,0,0,.31.36h.25a2.72,2.72,0,0,0,1.26-.3,4.66,4.66,0,0,0,4,2.38,5.56,5.56,0,0,0,2.07-.43.32.32,0,0,0,.19-.43A.33.33,0,0,0,182.78,310.75Z" transform="translate(-21.81 -4.72)"/><path class="cls-1" d="M180.09,313.53a2.22,2.22,0,0,1-2.1-.67.34.34,0,0,0-.47-.05.33.33,0,0,0-.05.47,2.85,2.85,0,0,0,2.17,1,3.78,3.78,0,0,0,.56,0,.35.35,0,0,0,.28-.39A.34.34,0,0,0,180.09,313.53Z" transform="translate(-21.81 -4.72)"/><path class="cls-1" d="M248.09,250.12h18.6a.33.33,0,0,0,.33-.33v-18.6a.33.33,0,0,0-.33-.33h-9v-9a.33.33,0,0,0-.33-.33H238.8a.34.34,0,0,0-.34.33v18.6a.34.34,0,0,0,.34.34h9v9A.33.33,0,0,0,248.09,250.12Zm18.27-18.59v17.92H248.42v-8.62h9a.33.33,0,0,0,.33-.34v-9Zm-27.23-9.3h17.93v17.93H239.13Z" transform="translate(-21.81 -4.72)"/><path class="cls-1" d="M137.35,345.22a.33.33,0,0,0-.19.43.34.34,0,0,0,.44.19c.21-.09,21.64-8.26,37.6,9.28,10.86,11.51,14.21,17.78,12,22.35a.34.34,0,0,0,.16.45.32.32,0,0,0,.14,0,.33.33,0,0,0,.3-.19c2.39-4.87-1-11.35-12.08-23.09C159.41,336.79,137.57,345.13,137.35,345.22Z" transform="translate(-21.81 -4.72)"/><path class="cls-1" d="M309.55,449.61a192.44,192.44,0,0,0,14.88,24.1,45.53,45.53,0,0,0-15.79,5.13l-.05,0a39.07,39.07,0,0,0-3.74,2.22.34.34,0,0,0-.08.47.32.32,0,0,0,.27.14.33.33,0,0,0,.19-.06s1.22-.84,3.23-1.93c0,2.54-.08,5.07-.11,7.49-3.81-.72-6.54-2.35-8.09-4.88-2.6-4.25-1-9.65-.92-10A107.26,107.26,0,0,0,309.55,449.61Z" transform="translate(-21.81 -4.72)"/><path class="cls-1" d="M396.09,462.42l19.37,19.92-35.57,21c-.37-.55-1.34-1.88-3.88-5.3l-4.08-5.47-1.19-1.6C377.37,480.13,389.34,468.54,396.09,462.42Z" transform="translate(-21.81 -4.72)"/><path class="cls-1" d="M375.62,498.67c2.5,3.36,3.6,4.88,3.82,5.21-.17,3.62-.31,6.8-.42,9.38H308.37c.1-2.54.24-5.68.41-9.24l29.7-14.53c8.68,7.69,17.3,11.55,25.76,11.55A29.1,29.1,0,0,0,375.62,498.67Z" transform="translate(-21.81 -4.72)"/><path class="cls-1" d="M308.8,503.26c0-.59,0-1.66,0-3.09l.18-12.56c0-2.66.07-5.47.11-8.27a44.5,44.5,0,0,1,15.76-5A101,101,0,0,0,338,489Z" transform="translate(-21.81 -4.72)"/><path class="cls-1" d="M308.34,513.93H379c-.11,2.77-.18,4.73-.21,5.58v.15H308.12C308.15,518.89,308.22,516.87,308.34,513.93Z" transform="translate(-21.81 -4.72)"/><path class="cls-1" d="M379.45,519.66v-.13c0-.82.1-2.69.2-5.32h87.69a24,24,0,0,1,3.5,5.45Z" transform="translate(-21.81 -4.72)"/><path class="cls-1" d="M466.77,513.55H379.68c.11-2.59.25-5.84.43-9.55L416,482.79C418.62,483.84,453.4,498.19,466.77,513.55Z" transform="translate(-21.81 -4.72)"/><path class="cls-1" d="M356.28,359.63l-54.74,6.56a24,24,0,0,0-3.08-2.79,17.19,17.19,0,0,0,4.7.85,3.88,3.88,0,0,0,2.83-.9c.57-.58,1.22-1.88-.53-4.32l46.38-5.56.09,0a.3.3,0,0,0,.33-.31l15.61-77.05,4.05,6.1Z" transform="translate(-21.81 -4.72)"/><path class="cls-1" d="M367.28,275.67l-15.62,77.15L305,358.41a20.06,20.06,0,0,0-2.11-2.14l45-5.39a.33.33,0,0,0,.29-.26l14.71-71.06a.34.34,0,0,0-.36-.4l-37,4.43v-2.91Z" transform="translate(-21.81 -4.72)"/><path class="cls-1" d="M297.11,309.05l-9.59,39c-.63-.19-1.29-.38-2-.55L295,307.91Z" transform="translate(-21.81 -4.72)"/><path class="cls-1" d="M297.72,309.38l14.72,8a.29.29,0,0,0,.16,0,.35.35,0,0,0,.22-.08.32.32,0,0,0,.08-.38l-4.27-9.76a.69.69,0,0,1,.06-.68.68.68,0,0,1,.6-.32H317a8.55,8.55,0,0,0,8.54-8.54V284.26l36.61-4.38-14.57,70.37-45.36,5.44a44.49,44.49,0,0,0-14-7.44Z" transform="translate(-21.81 -4.72)"/><path class="cls-1" d="M290,305.55h-40a7.88,7.88,0,0,1-7.87-7.87V275.93a7.87,7.87,0,0,1,7.87-7.86h67a7.87,7.87,0,0,1,7.87,7.86v21.75a7.88,7.88,0,0,1-7.87,7.87h-7.67a1.39,1.39,0,0,0-1.27,1.94l3.88,8.86L295,307.11h0l-.95-.52A8.33,8.33,0,0,0,290,305.55Z" transform="translate(-21.81 -4.72)"/><path class="cls-1" d="M246.1,353.6a62.61,62.61,0,0,1,26.29-6.76,49.71,49.71,0,0,1,11.27.91c.47.09.94.2,1.41.32.91.22,1.78.46,2.59.72a43.78,43.78,0,0,1,14.2,7.5h0a19.53,19.53,0,0,1,2.7,2.67c.8,1,2,2.85.93,3.91s-4.22.89-8.84-.78a44.63,44.63,0,0,0-9.09-4.69.34.34,0,0,0-.43.2.33.33,0,0,0,.19.43,43.9,43.9,0,0,1,9,4.64,26.26,26.26,0,0,1,4.83,4.08c1.77,2,2.29,3.64,1.42,4.51-1.19,1.19-4.33.89-9.09-.87a44.6,44.6,0,0,0-9.67-5.09.35.35,0,0,0-.43.2.34.34,0,0,0,.2.43,43.64,43.64,0,0,1,9.56,5c3.6,2.54,5.93,5.21,6.08,7a1.43,1.43,0,0,1-.41,1.22c-.9.9-3,.94-6.06.11-2.47-2-6.61-3.88-11.38-5.26a.34.34,0,0,0-.41.23.34.34,0,0,0,.22.42c4.73,1.36,8.82,3.25,11.22,5.18h0a4.68,4.68,0,0,1,2,2.71,1.27,1.27,0,0,1-.33,1c-2,2.31-10.44-.06-13.54-1.16a.35.35,0,0,0-.3,0,87.8,87.8,0,0,1-22.53,9.83.27.27,0,0,0-.16.1c-.27.31-27.77,30.92-52.16,42.27l0,0a43,43,0,0,1-13.91,4.13c-17.21,1.52-31.62-10.57-38.67-17.9-2.24-2.33-3.64-4.09-4-4.58a112.86,112.86,0,0,1,34-42.21l6.48,7.35L185,383.61a.32.32,0,0,0-.15.44.33.33,0,0,0,.3.19.28.28,0,0,0,.15,0Z" transform="translate(-21.81 -4.72)"/><path class="cls-1" d="M222.71,359.22c.64,1.56,1.7,3.59,2.1,4.34l-11.44,5.76c-.58-.71-1.25-1.61-2.06-2.73A49.19,49.19,0,0,1,222.71,359.22Z" transform="translate(-21.81 -4.72)"/><path class="cls-1" d="M198.57,464.71a42.25,42.25,0,0,1,36.15,15.05c-20.72,8.48-36.12,6-38.28,5.61A138.82,138.82,0,0,1,198.57,464.71Z" transform="translate(-21.81 -4.72)"/><path class="cls-1" d="M107.56,388.79C87.28,384.57,77.71,371.52,76.67,370c3.36-7.69,7-15.36,10.71-22.83,1.47,2.48,8.38,12.34,27.72,18-.38,1.49-.74,3-1.11,4.73C111.68,376.22,109.52,382.55,107.56,388.79Z" transform="translate(-21.81 -4.72)"/><path class="cls-1" d="M203.3,223.07c-5.85,6.55-11.49,13.2-16.78,19.77-12.64-4.55-15.21-14.07-15.51-15.4,5.81-6.32,11.86-12.63,18-18.75A22.34,22.34,0,0,0,203.3,223.07Z" transform="translate(-21.81 -4.72)"/><path class="cls-1" d="M186.09,243.39c-5.48,6.83-10.73,13.76-15.62,20.62-8.52.45-15.09,2.23-20.09,5.42-.82-1.12-4.18-5.38-7-4.36a1.86,1.86,0,0,0-1.28,1.5c-.28,1.48.77,3.72,2.59,5.74-2.15-.9-5.62-2-7.2-.37a1.89,1.89,0,0,0-.52,1.85c.38,1.58,2.66,3.35,5.59,4.4-1.47,2.28-8.46,14.53,1.68,26.9-5.54,9.73-10.73,19.7-15.44,29.64-1,1.34-2,2.74-2.89,4.18-17.58-4.55-25.52-15.38-25.6-15.49a.2.2,0,0,0-.09-.09A540.5,540.5,0,0,1,170.47,228C171.13,230.43,174.27,239,186.09,243.39Z" transform="translate(-21.81 -4.72)"/><path class="cls-1" d="M151.73,316.43c-1.42.39-10.91,3.4-21,15.81,4.3-8.93,9-17.86,14-26.61a38.9,38.9,0,0,0,8.17,7C152.54,314,152.15,315.22,151.73,316.43Z" transform="translate(-21.81 -4.72)"/><path class="cls-1" d="M193.69,302.82a2.92,2.92,0,0,1,.2,2.58c-.44.65-1.5,1-3.16,1h0a.29.29,0,0,0-.24.11.23.23,0,0,0-.07.1c-3.45,9.1-6.41,15-10.49,16.32a7.74,7.74,0,0,1-4.35,0,16.7,16.7,0,0,1-2.52-.89.34.34,0,0,0-.44.17.33.33,0,0,0,.17.44,17.87,17.87,0,0,0,2.22.81,23.11,23.11,0,0,0-2.42,10.65,4.24,4.24,0,0,1-1.65,3.52c-1.75,1.39-4.47,1.69-7.65.84a15.86,15.86,0,0,1-10-8,17.12,17.12,0,0,1-1-13.65c.47-1.35.9-2.77,1.28-4.22.76-2.87,1.12-5.14,1.21-5.7a5.8,5.8,0,0,0,2.33.53,5,5,0,0,0,1.87-.36.34.34,0,0,0,.18-.44.32.32,0,0,0-.43-.18,4.73,4.73,0,0,1-4-.29,7.72,7.72,0,0,1-3.54-4,7.53,7.53,0,0,1-.12-5.74,4.62,4.62,0,0,1,2.52-2.59,4.52,4.52,0,0,1,2.61-.2,5.08,5.08,0,0,1,3.11,2.25c1.35,2.09,4.06,5.46,7,4.6s3.22-6.33,3.09-9.77l.8,0c3.13,0,12.12-.53,18.82-6a20.72,20.72,0,0,1,2.14,5.73,23.57,23.57,0,0,1,.53,4A25.81,25.81,0,0,0,193.69,302.82Z" transform="translate(-21.81 -4.72)"/><path class="cls-1" d="M176.62,264.57a23.77,23.77,0,0,1,13.5,4.23,12.64,12.64,0,0,1,5.44,8.95,15.89,15.89,0,0,1-3.87,11.87,21.33,21.33,0,0,0-2.09-5.38,21,21,0,0,0,2.42-2.48.34.34,0,0,0-.05-.47.33.33,0,0,0-.47,0,19.28,19.28,0,0,1-2.54,2.57c-7.35,6.27-17.79,6.17-19.54,6.11,0-.59-.07-.94-.07-.94a.32.32,0,0,0-.36-.3.34.34,0,0,0-.3.37s.05.46.08,1.2c.09,2,.18,8.63-2.6,9.46-2.62.76-5.24-2.77-6.25-4.32a5.71,5.71,0,0,0-3.53-2.54,5.17,5.17,0,0,0-3,.23,5.4,5.4,0,0,0-2.89,2.95,8.29,8.29,0,0,0,.12,6.26,8.49,8.49,0,0,0,3.57,4.2s0,.05,0,.08-.32,2.27-1.09,5.31a37.76,37.76,0,0,1-8.17-7.14c-10.32-12.38-2.83-24.7-1.68-26.44a13.51,13.51,0,0,0,3.11.6h0a.34.34,0,0,0,.33-.32.33.33,0,0,0-.31-.35,13.88,13.88,0,0,1-3.19-.64h0c-2.87-.94-5.21-2.65-5.55-4.07a1.2,1.2,0,0,1,.35-1.22c2-2,8.12,1.3,8.21,1.35a13,13,0,0,0,2.1,1.5.32.32,0,0,0,.16,0,.32.32,0,0,0,.29-.17.32.32,0,0,0-.12-.45,12.78,12.78,0,0,1-2-1.45h0c-2.42-2.09-4.1-5-3.81-6.53a1.23,1.23,0,0,1,.85-1c2.68-1,6.37,4.33,6.41,4.38a.12.12,0,0,0,.06.06l0,0,.09,0h0a.27.27,0,0,0,.09,0h0l.07,0,0,0c5-3.26,11.56-5.05,20.19-5.49C172.52,264.57,174.53,264.54,176.62,264.57Z" transform="translate(-21.81 -4.72)"/><path class="cls-1" d="M203.77,222.53c-11.19-3.88-13.88-13-14.22-14.39a624.49,624.49,0,0,1,55.76-49.27c-.07,2.47.35,10.32,7.9,14.42A623.11,623.11,0,0,0,203.77,222.53Z" transform="translate(-21.81 -4.72)"/><path class="cls-1" d="M310.46,125.44c-.27.49-.76,1.42-1.42,2.76-9.25,6.76-18.42,13.79-27.27,20.9q-2.17,1.74-4.32,3.5a14.25,14.25,0,0,1-9.2-10.83c14.25-10.1,24.74-16.55,29.81-19.54A103.8,103.8,0,0,0,310.46,125.44Z" transform="translate(-21.81 -4.72)"/><path class="cls-1" d="M319.5,208.14c-3.34,25.36-7.83,49.63-8.71,54.32-24.81-38.24-19.62-80.41-10.85-109.12a172.2,172.2,0,0,1,9.66-24.77c.56-1.14,1-2,1.29-2.53a214.09,214.09,0,0,1,8.46,33.08C321.91,174.83,322,189.49,319.5,208.14Z" transform="translate(-21.81 -4.72)"/><path class="cls-1" d="M443,148.91a208,208,0,0,1-42.84,2.2C377,150,342.81,144.65,311.7,125.27,318.25,122.82,373.47,104.36,443,148.91Z" transform="translate(-21.81 -4.72)"/><path class="cls-1" d="M332.56,56.25a386.45,386.45,0,0,1,32.15-33.37c7-6.65,12.24-11.58,15.54-16.27-.35,4.4-2.14,20.23-10.81,39.66-.82,1.83-1.65,3.73-2.5,5.67-9.67,22.12-22.92,52.37-55.67,72.68a124.31,124.31,0,0,1,2.73-28v0C317.45,80.32,323.69,66.73,332.56,56.25Z" transform="translate(-21.81 -4.72)"/><path class="cls-1" d="M303,18.1c2.44,5.32,16,37.4,10.31,78.41v0a129.65,129.65,0,0,0-2.75,24.06,95.2,95.2,0,0,0-9.18-26.16C297.55,74.69,294.73,45.52,303,18.1Z" transform="translate(-21.81 -4.72)"/><path class="cls-1" d="M229,72c-18.65-14.3-30.37-17.49-35.61-18.13,64.84-11.39,94.2,15.79,107.43,40.83l0,.07a91.73,91.73,0,0,1,9.75,30,102.29,102.29,0,0,1-12.45-3.23c-21.3-7-35.18-19.66-49.89-33C242.14,83,235.83,77.24,229,72Z" transform="translate(-21.81 -4.72)"/><path class="cls-1" d="M261.61,146.54c2-1.45,4-2.91,6-4.35a14.94,14.94,0,0,0,9.22,10.89c-7.9,6.46-15.68,13.09-23.12,19.74-8.26-4.33-7.83-13.29-7.73-14.5C251.26,154.22,256.51,150.25,261.61,146.54Z" transform="translate(-21.81 -4.72)"/><path class="cls-1" d="M92,338.24c2.51-4.76,5.16-9.57,7.87-14.3,1,1.23,9,11.18,25.67,15.56-4.17,6.59-7.71,15.24-10.28,25.1-20.51-6.06-26.81-16.77-27.53-18.11C89.13,343.72,90.56,341,92,338.24Z" transform="translate(-21.81 -4.72)"/><path class="cls-1" d="M52.3,442.23a442.53,442.53,0,0,1,24.07-71.48c1.89,2.58,11.61,14.62,31,18.68a394.29,394.29,0,0,0-12.11,49.62C79.73,449.7,55.25,443.08,52.3,442.23Z" transform="translate(-21.81 -4.72)"/><path class="cls-1" d="M220.93,346.76c-1.89-2-4-4.36-6.52-7.25a45.56,45.56,0,0,0-34.33-15.89,7.08,7.08,0,0,1-2.17.33,9.57,9.57,0,0,1-2.24-.29,22.94,22.94,0,0,0-2.41,10.45,4.88,4.88,0,0,1-1.91,4.07,7.41,7.41,0,0,1-4.72,1.46,13.88,13.88,0,0,1-3.52-.5,16.49,16.49,0,0,1-10.43-8.35,17.83,17.83,0,0,1-1.2-13.59c-2.44.77-12.19,4.54-22.1,17.89-1,1.4-2.06,2.87-3,4.39-4.28,6.64-7.92,15.51-10.52,25.62-.41,1.58-.8,3.23-1.2,5-7.58,35-3.9,84.87,21.43,117.35,15.92,20.43,38,31.25,65.62,32.17h9a25.15,25.15,0,0,1-2.6-1.29c-8.45-4.81-12.6-15.83-12.32-32.74A140,140,0,0,1,198,464.36a227,227,0,0,1,7-28.8,42.56,42.56,0,0,1-13.47,3.89c-1,.09-2,.13-3,.13-16,0-29.24-11.05-36-18.05a9.84,9.84,0,0,1-4.77,1.24,12.19,12.19,0,0,1-6.13-1.79c-10.44-6-20-26.71-20-43.36,0-22.13,11-28.84,11.13-28.9a.34.34,0,1,1,.34.58c-.11.06-10.8,6.6-10.8,28.32,0,16.45,9.35,36.84,19.61,42.78,3.57,2.06,7,2.27,10.09.63-1.79-1.88-3-3.36-3.56-4-.37.79-.75,1.64-1.15,2.59a.35.35,0,0,1-.31.21.28.28,0,0,1-.13,0,.34.34,0,0,1-.18-.44c.5-1.15,1-2.16,1.39-3.1a113.57,113.57,0,0,1,34.56-42.85c1.25-.92,2-1.37,2-1.39a.35.35,0,0,1,.46.11.34.34,0,0,1-.1.46s-.62.39-1.68,1.15l6.56,7.44,22.9-11.52c-.61-.75-1.32-1.69-2.17-2.88-5.77-8.08-14.69-22.93-14.78-23.08a.33.33,0,1,1,.57-.35c.09.15,8.78,14.62,14.54,22.73a49.73,49.73,0,0,1,11.81-7.56l0,0c.55-.24,1.11-.46,1.68-.68a.34.34,0,0,1,.43.2.34.34,0,0,1-.2.43c-.46.17-.9.35-1.35.54.63,1.52,1.69,3.57,2.08,4.31l2.39-1.2C229.74,356.27,227.32,353.66,220.93,346.76Z" transform="translate(-21.81 -4.72)"/><path class="cls-1" d="M212.56,519.67a24.36,24.36,0,0,1-4.15-1.88c-8.16-4.64-12.18-15.33-12-31.75a47.19,47.19,0,0,0,8.31.64,80.53,80.53,0,0,0,30.67-6.47c17.25-7.15,33.5-19.78,48.3-37.54a.33.33,0,1,0-.51-.42c-14.67,17.59-30.76,30.12-47.82,37.25A43,43,0,0,0,198.68,464a227.77,227.77,0,0,1,7.12-28.85c23.9-11.18,50.66-40.6,52.18-42.29a89.58,89.58,0,0,0,22.49-9.8c1.44.5,11.59,3.89,14.12.91a1.94,1.94,0,0,0,.49-1.5,4.05,4.05,0,0,0-1.27-2.28,13.18,13.18,0,0,0,2.65.32,3.88,3.88,0,0,0,2.83-.9,2.11,2.11,0,0,0,.61-1.75c-.14-1.67-1.87-3.91-4.69-6.2a17.31,17.31,0,0,0,5,1,3.84,3.84,0,0,0,2.83-.91c1.09-1.09.74-2.83-1-4.94l34.69-4.16c2.52,1.67,55.14,36.84,66.65,75.85,3.14,10.64,3,20.72-.5,30l-6.32-6.5c2.21-2,3.63-3.19,3.65-3.21a.33.33,0,0,0-.43-.51s-1.55,1.3-3.92,3.45c-6.78,6.12-19.16,18.05-25.89,29.19a44.52,44.52,0,0,0-2.6,5,.33.33,0,0,0,.17.44.31.31,0,0,0,.13,0,.35.35,0,0,0,.31-.2,44,44,0,0,1,2.35-4.51l1,1.38,3.81,5.12c-11.8,4.91-24.06,1.79-36.45-9.27a99.79,99.79,0,0,1-13.45-15.06,191.74,191.74,0,0,1-15.54-25.18c-1.16-2.2-2.24-4.32-3.2-6.29a275.32,275.32,0,0,1-11.5-26.73.34.34,0,0,0-.43-.2.33.33,0,0,0-.2.42,277.5,277.5,0,0,0,11.27,26.28c-12.41-.9-17.88-18.39-17.93-18.57a.33.33,0,0,0-.42-.22.32.32,0,0,0-.22.41c.05.19,5.76,18.48,18.91,19.08.93,1.88,2,3.9,3.06,6A105.67,105.67,0,0,1,298.74,472c-14.05,23.44-37.32,41.7-60.71,47.64h0C228.32,522.14,219.52,522.14,212.56,519.67Z" transform="translate(-21.81 -4.72)"/><path class="cls-1" d="M91.58,466a8.27,8.27,0,0,0-4.24-.67,6.45,6.45,0,0,0-4.72,3c-5.6,8.42-.3,31.77,1.76,39.77-4.53-7.57-9-12.38-12.31-13a3.2,3.2,0,0,0-2.72.61c-3.67,2.93,0,14.53,3.73,23.94H40.85a440.43,440.43,0,0,1,11.29-76.78,79,79,0,0,0,20.33,2.82c7.54,0,15.86-1.33,22.64-5.76C93.6,448.69,92.41,457.46,91.58,466Z" transform="translate(-21.81 -4.72)"/><circle class="cls-2" cx="79.84" cy="235.84" r="49.74" transform="translate(-187.55 272.15) rotate(-80.78)"/><path class="cls-3" d="M191.4,97.47l-.22,0c-.63-.22-1.28-.43-1.92-.61a.7.7,0,0,1-.47-.85.68.68,0,0,1,.85-.46c.66.19,1.33.4,2,.62a.7.7,0,0,1,.42.87A.67.67,0,0,1,191.4,97.47Z" transform="translate(-21.81 -4.72)"/><path class="cls-3" d="M179.31,178.24a.69.69,0,0,1,0-1.37,38.67,38.67,0,0,0,4-.33.68.68,0,1,1,.18,1.35,41.22,41.22,0,0,1-4.15.35Zm-8.18-.53H171a39.77,39.77,0,0,1-4.07-.87.68.68,0,1,1,.35-1.32c1.29.34,2.62.63,3.94.84a.68.68,0,0,1-.11,1.36Zm20.25-1.7a.68.68,0,0,1-.23-1.33,39.07,39.07,0,0,0,3.75-1.5.69.69,0,0,1,.91.33.7.7,0,0,1-.34.91A41.62,41.62,0,0,1,191.6,176,.57.57,0,0,1,191.38,176Zm-31.93-2a.82.82,0,0,1-.3-.07c-1.24-.62-2.47-1.3-3.64-2a.68.68,0,0,1,.72-1.16,38.18,38.18,0,0,0,3.53,2,.69.69,0,0,1-.31,1.3Zm42.81-3.63a.72.72,0,0,1-.56-.28.68.68,0,0,1,.16-.95c1.08-.79,2.14-1.64,3.14-2.53a.68.68,0,1,1,.91,1c-1,.92-2.13,1.8-3.25,2.61A.66.66,0,0,1,202.26,170.34ZM149.39,167a.66.66,0,0,1-.47-.19,41.08,41.08,0,0,1-2.89-3,.68.68,0,1,1,1-.89c.88,1,1.82,2,2.8,2.91a.68.68,0,0,1,0,1A.64.64,0,0,1,149.39,167ZM211,161.75a.66.66,0,0,1-.42-.14.67.67,0,0,1-.13-1,40,40,0,0,0,2.27-3.34.69.69,0,0,1,1.17.72,40.14,40.14,0,0,1-2.35,3.44A.67.67,0,0,1,211,161.75Zm-69.22-4.43a.7.7,0,0,1-.6-.35c-.68-1.2-1.32-2.45-1.88-3.71a.69.69,0,0,1,.34-.91.68.68,0,0,1,.9.35c.55,1.22,1.17,2.43,1.83,3.6a.69.69,0,0,1-.25.93A.72.72,0,0,1,141.8,157.32ZM216.88,151a.59.59,0,0,1-.23,0,.68.68,0,0,1-.41-.88,39,39,0,0,0,1.19-3.85.68.68,0,1,1,1.32.34,39.76,39.76,0,0,1-1.23,4A.68.68,0,0,1,216.88,151Zm-79.53-5.1a.68.68,0,0,1-.67-.53c-.3-1.35-.54-2.73-.71-4.11a.68.68,0,0,1,1.35-.17c.17,1.33.4,2.67.7,4a.69.69,0,0,1-.52.82Zm82-6.92h0a.69.69,0,0,1-.64-.72c0-.74.06-1.5.06-2.24s0-1.2,0-1.8a.68.68,0,0,1,.65-.71.66.66,0,0,1,.71.65c0,.62.05,1.24.05,1.86,0,.77,0,1.54-.07,2.31A.68.68,0,0,1,219.33,139Zm-82.87-5.31h-.05a.7.7,0,0,1-.64-.74c0-.45.08-.91.13-1.36.1-.93.23-1.86.39-2.77a.67.67,0,0,1,.79-.56.69.69,0,0,1,.56.79c-.16.88-.29,1.79-.38,2.68,0,.44-.09.89-.12,1.33A.69.69,0,0,1,136.46,133.65Zm81.72-6.91a.67.67,0,0,1-.66-.52c-.33-1.3-.72-2.6-1.17-3.86a.67.67,0,0,1,.42-.87.68.68,0,0,1,.87.41c.46,1.31.87,2.65,1.2,4a.68.68,0,0,1-.5.83A.44.44,0,0,1,218.18,126.74Zm-79-5.06a.67.67,0,0,1-.64-.93c.5-1.29,1.07-2.57,1.7-3.81a.68.68,0,0,1,1.22.62c-.61,1.2-1.16,2.44-1.65,3.69A.67.67,0,0,1,139.16,121.68Zm74.33-6.28a.67.67,0,0,1-.58-.33,40,40,0,0,0-2.25-3.35.69.69,0,1,1,1.1-.82c.82,1.11,1.61,2.28,2.32,3.47a.69.69,0,0,1-.24.94A.73.73,0,0,1,213.49,115.4ZM145.24,111a.69.69,0,0,1-.53-1.11c.86-1.09,1.78-2.14,2.74-3.14a.69.69,0,0,1,1,0,.68.68,0,0,1,0,1,38.45,38.45,0,0,0-2.65,3A.67.67,0,0,1,145.24,111Zm8.94-8.41a.68.68,0,0,1-.39-1.24,39.43,39.43,0,0,1,3.54-2.21.68.68,0,0,1,.93.26.69.69,0,0,1-.27.93,39.1,39.1,0,0,0-3.42,2.14A.69.69,0,0,1,154.18,102.63Zm11-5.44a.69.69,0,0,1-.21-1.34c1.32-.42,2.67-.78,4-1.07a.68.68,0,0,1,.81.52.68.68,0,0,1-.52.81,37.38,37.38,0,0,0-3.9,1A.76.76,0,0,1,165.18,97.19Zm16.21-1.83h-.06c-1.34-.11-2.7-.16-4-.15a.68.68,0,1,1,0-1.36,41.62,41.62,0,0,1,4.17.15.68.68,0,0,1,.62.74A.68.68,0,0,1,181.39,95.36Z" transform="translate(-21.81 -4.72)"/><path class="cls-3" d="M205.65,105.88a.66.66,0,0,1-.45-.18c-.5-.44-1-.88-1.53-1.31a.68.68,0,0,1-.1-1,.69.69,0,0,1,1-.1c.54.44,1.07.9,1.58,1.36a.69.69,0,0,1,0,1A.7.7,0,0,1,205.65,105.88Z" transform="translate(-21.81 -4.72)"/><path class="cls-3" d="M197.66,108.44a8,8,0,0,1-1.54-15.76,8,8,0,0,1,9.35,6.26,8,8,0,0,1-6.27,9.34A7.39,7.39,0,0,1,197.66,108.44Zm0-14.55a6.27,6.27,0,0,0-1.29.13,6.6,6.6,0,1,0,4.94,1A6.51,6.51,0,0,0,197.68,93.89Z" transform="translate(-21.81 -4.72)"/><path class="cls-4" d="M484.8,433.45a18,18,0,1,1-25.36-1.29A18,18,0,0,1,484.8,433.45Z" transform="translate(-21.81 -4.72)"/><path class="cls-3" d="M472.17,428.08l-.17,0a.68.68,0,0,1-.49-.84c.2-.76.39-1.53.57-2.29a.69.69,0,0,1,.82-.52.7.7,0,0,1,.51.82c-.18.78-.37,1.56-.58,2.34A.68.68,0,0,1,472.17,428.08Zm2-10.38h-.09a.68.68,0,0,1-.59-.76c.18-1.34.32-2.7.43-4.05a.69.69,0,0,1,.74-.62.68.68,0,0,1,.63.73c-.12,1.37-.26,2.75-.44,4.11A.69.69,0,0,1,474.2,417.7Zm.71-12.27a.68.68,0,0,1-.68-.67c0-1.36-.07-2.72-.16-4.07a.68.68,0,0,1,.64-.72.69.69,0,0,1,.73.64c.08,1.36.14,2.75.16,4.13a.7.7,0,0,1-.68.69Zm-1.07-12.24a.68.68,0,0,1-.67-.58c-.22-1.33-.47-2.67-.75-4a.68.68,0,1,1,1.34-.28c.28,1.35.54,2.71.76,4.06a.69.69,0,0,1-.57.79Zm-2.84-12a.68.68,0,0,1-.65-.48c-.4-1.28-.85-2.58-1.32-3.84a.68.68,0,0,1,1.28-.48c.48,1.29.93,2.61,1.35,3.91a.69.69,0,0,1-.45.86A.76.76,0,0,1,471,381.23Z" transform="translate(-21.81 -4.72)"/><path class="cls-3" d="M423.54,484.31a.69.69,0,0,1-.26-1.32c1.24-.52,2.48-1.09,3.7-1.67a.67.67,0,0,1,.91.31.69.69,0,0,1-.32.92c-1.23.59-2.5,1.17-3.76,1.7A.66.66,0,0,1,423.54,484.31Zm10.93-5.62a.68.68,0,0,1-.35-1.27c1.15-.7,2.3-1.44,3.42-2.2a.69.69,0,0,1,.95.18.68.68,0,0,1-.19,1c-1.13.77-2.3,1.53-3.47,2.24A.65.65,0,0,1,434.47,478.69Zm10-7.15a.67.67,0,0,1-.53-.25.68.68,0,0,1,.09-1c.9-.74,1.78-1.51,2.64-2.29l.43-.38a.67.67,0,0,1,1,0,.68.68,0,0,1,0,1l-.43.39c-.87.78-1.78,1.57-2.68,2.32A.68.68,0,0,1,444.47,471.54Zm8.86-8.51a.69.69,0,0,1-.5-1.14c.9-1,1.79-2.05,2.64-3.09a.68.68,0,0,1,1.06.86c-.86,1.06-1.77,2.12-2.69,3.14A.68.68,0,0,1,453.33,463Z" transform="translate(-21.81 -4.72)"/><path class="cls-3" d="M465.8,462.81a18.63,18.63,0,1,1,12.49-4.8A18.6,18.6,0,0,1,465.8,462.81Zm0-35.91a17.62,17.62,0,1,0,.9,0Z" transform="translate(-21.81 -4.72)"/><path class="cls-4" d="M151.85,203.27a2.55,2.55,0,0,1,0,3.6L146,212.72l5.86,5.87a2.54,2.54,0,0,1-3.59,3.59l-5.86-5.86-5.86,5.86a2.54,2.54,0,0,1-3.6-3.59l5.87-5.87-5.87-5.85a2.55,2.55,0,0,1,3.6-3.6l5.86,5.87,5.86-5.87a2.55,2.55,0,0,1,3.59,0Z" transform="translate(-21.81 -4.72)"/><path class="cls-2" d="M477,283.71a21.54,21.54,0,0,1,1.94,43c-.64.06-1.29.09-1.94.09a21.54,21.54,0,1,1,0-43.08Z" transform="translate(-21.81 -4.72)"/><path class="cls-2" d="M319.68,159.06c2.7,16.58,2.46,31.63.15,49.13-3.74,28.44-8.87,55.15-8.87,55.15-25.78-39.14-19.74-82.58-11.34-110.1a172.72,172.72,0,0,1,9.68-24.82c1-2.09,1.66-3.22,1.66-3.22A214.19,214.19,0,0,1,319.68,159.06Z" transform="translate(-21.81 -4.72)"/><polygon class="cls-2" points="244.88 226.47 244.88 245.06 226.28 245.06 226.28 235.77 235.58 235.77 235.58 226.47 244.88 226.47"/><path class="cls-4" d="M383.21,210.13c4.12,0,7.46,1.17,7.46,2.59s-3.34,2.6-7.46,2.6-7.47-1.16-7.47-2.6S379.08,210.13,383.21,210.13Z" transform="translate(-21.81 -4.72)"/><path class="cls-4" d="M469.5,210.13c4.12,0,7.47,1.17,7.47,2.59s-3.35,2.6-7.47,2.6-7.46-1.16-7.46-2.6S465.38,210.13,469.5,210.13Z" transform="translate(-21.81 -4.72)"/><path class="cls-5" d="M467.49,513.88H379.33a2.71,2.71,0,0,0,0-.29c.11-2.64.26-6,.44-9.79h0L416,482.41S453.85,497.55,467.49,513.88Z" transform="translate(-21.81 -4.72)"/><path class="cls-4" d="M462.14,176.94c1,1-.52,4.19-3.44,7.11s-6.1,4.46-7.11,3.44.53-4.2,3.44-7.11S461.13,175.93,462.14,176.94Z" transform="translate(-21.81 -4.72)"/><path class="cls-4" d="M458.7,241.4c2.92,2.92,4.46,6.1,3.44,7.12S458,248,455,245.07s-4.45-6.09-3.44-7.11S455.79,238.49,458.7,241.4Z" transform="translate(-21.81 -4.72)"/><path class="cls-4" d="M426.35,183.85a28.86,28.86,0,1,1-26.06,16.44A28.88,28.88,0,0,1,426.35,183.85Z" transform="translate(-21.81 -4.72)"/><circle class="cls-5" cx="405.88" cy="346.91" r="3.04"/><path class="cls-5" d="M427.69,360.15a3,3,0,1,1-3,3A3,3,0,0,1,427.69,360.15Z" transform="translate(-21.81 -4.72)"/><circle class="cls-5" cx="405.88" cy="370.02" r="3.04"/><path class="cls-4" d="M426.35,162.12c1.44,0,2.6,3.33,2.6,7.46s-1.16,7.46-2.6,7.46-2.59-3.34-2.59-7.46S424.92,162.12,426.35,162.12Z" transform="translate(-21.81 -4.72)"/><path class="cls-4" d="M426.35,248.41c1.44,0,2.6,3.35,2.6,7.47s-1.16,7.46-2.6,7.46-2.59-3.34-2.59-7.46S424.92,248.41,426.35,248.41Z" transform="translate(-21.81 -4.72)"/><path class="cls-5" d="M416,348.59a3,3,0,1,1-3,3A3,3,0,0,1,416,348.59Z" transform="translate(-21.81 -4.72)"/><path class="cls-5" d="M416,360.15a3,3,0,1,1-3,3A3,3,0,0,1,416,360.15Z" transform="translate(-21.81 -4.72)"/><path class="cls-5" d="M416,371.71a3,3,0,1,1-3,3A3,3,0,0,1,416,371.71Z" transform="translate(-21.81 -4.72)"/><path class="cls-5" d="M443.91,149.08s-72.3,14.27-133-23.88l.05,0C312.8,124.46,370.56,101.71,443.91,149.08Z" transform="translate(-21.81 -4.72)"/><path class="cls-5" d="M404.31,348.59a3,3,0,1,1-3,3A3,3,0,0,1,404.31,348.59Z" transform="translate(-21.81 -4.72)"/><path class="cls-5" d="M404.31,360.15a3,3,0,1,1-3,3A3,3,0,0,1,404.31,360.15Z" transform="translate(-21.81 -4.72)"/><path class="cls-5" d="M404.31,371.71a3,3,0,1,1-3,3A3,3,0,0,1,404.31,371.71Z" transform="translate(-21.81 -4.72)"/><path class="cls-4" d="M370.29,491.07l.16.1c1.73,2.32,3.65,4.88,5.29,7.09-13.45,5.79-26.09.75-37.2-9.17A100.16,100.16,0,0,1,325,474a192.68,192.68,0,0,1-15.57-25.22h0A106.59,106.59,0,0,1,299,472.2c-15.3,25.52-39.71,42.41-60.92,47.79h0c-9.59,2.44-18.52,2.53-25.66,0a24.62,24.62,0,0,1-4.2-1.91c-9.56-5.44-12.39-18.36-12.15-32.44,0,0,16.32,3.74,39.19-5.74a42.19,42.19,0,0,0-37-15.49A221.42,221.42,0,0,1,205.53,435h0c24.74-11.5,52.27-42.35,52.27-42.35a87.74,87.74,0,0,0,22.63-9.87s11.36,4.06,13.91,1.07c1-1.13.22-2.64-1.72-4.2,2.76.75,5.28,1,6.43-.18,1.71-1.7-.91-5.32-5.71-8.71,3.8,1.41,7.91,2.37,9.47.81,1.07-1.07.43-2.91-1.4-5l35.44-4.24s55,35.74,66.88,76.1c3,10.11,3.27,20.49-.69,30.69l-6.83-7-.1-.11C389.72,467.73,377.06,479.86,370.29,491.07Z" transform="translate(-21.81 -4.72)"/><path class="cls-4" d="M397.68,180.38c2.91,2.91,4.45,6.1,3.44,7.11s-4.2-.53-7.11-3.44-4.46-6.1-3.44-7.11S394.76,177.46,397.68,180.38Z" transform="translate(-21.81 -4.72)"/><path class="cls-4" d="M401.12,238c1,1-.53,4.2-3.44,7.11s-6.1,4.46-7.11,3.45.52-4.2,3.44-7.12S400.1,237,401.12,238Z" transform="translate(-21.81 -4.72)"/><path class="cls-5" d="M379.78,503.8c-.18,3.81-.33,7.15-.44,9.79H308c.11-2.65.25-6,.44-9.79l30.08-14.71c11.11,9.92,23.75,15,37.2,9.17C378,501.34,379.78,503.73,379.78,503.8Z" transform="translate(-21.81 -4.72)"/><path class="cls-5" d="M380.66,5.41s-.58,17.83-10.92,41S347,103.07,311,125.18l-.05,0v0a123,123,0,0,1,2.71-28.57v0c2.74-13,8.12-28.09,18.63-40.52C355.84,28.22,373.74,16.11,380.66,5.41Z" transform="translate(-21.81 -4.72)"/><path class="cls-5" d="M351.94,353.13l15.76-77.85,4.58,6.89-15.72,77.76-19.71,2.37-35.44,4.24a26.7,26.7,0,0,0-4.89-4.14c3.73,1.35,7.7,2.24,9.23.71,1-1,.53-2.54-.91-4.34l47.09-5.64Z" transform="translate(-21.81 -4.72)"/><path class="cls-1" d="M294.8,307.41l-1-.54a8,8,0,0,0-3.85-1h-40a8.22,8.22,0,0,1-8.2-8.2V275.93a8.22,8.22,0,0,1,8.2-8.2h67a8.22,8.22,0,0,1,8.2,8.2v21.75a8.22,8.22,0,0,1-8.2,8.2h-7.67a1.05,1.05,0,0,0-1,1.48l4.27,9.75-15.1-8.23Zm13.25-20.78a5.08,5.08,0,1,0-5.08,5.08A5.07,5.07,0,0,0,308.05,286.63Zm-19.52,0a5.08,5.08,0,1,0-5.08,5.08A5.08,5.08,0,0,0,288.53,286.63Zm-19.52,0a5.08,5.08,0,1,0-5.08,5.08A5.07,5.07,0,0,0,269,286.63Z" transform="translate(-21.81 -4.72)"/><path class="cls-4" d="M308.8,479.14c0,2.87-.08,5.75-.12,8.47C294.85,485.29,299,472.2,299,472.2a106.59,106.59,0,0,0,10.44-23.43h0A192.68,192.68,0,0,0,325,474a44.84,44.84,0,0,0-16.24,5.15Z" transform="translate(-21.81 -4.72)"/><path class="cls-5" d="M301.1,94.54A91.06,91.06,0,0,1,311,125.15v0A101.77,101.77,0,0,1,298,121.87c-30.52-10.08-46.45-32.14-69.24-49.61C203.87,53.16,191.22,54,190.36,54.07,258.14,41.16,288.05,69.83,301.1,94.54Z" transform="translate(-21.81 -4.72)"/><polygon class="cls-5" points="235.58 226.47 235.58 235.77 226.28 235.77 216.99 235.77 216.99 217.17 235.58 217.17 235.58 226.47"/><path class="cls-6" d="M261.41,146.27c-4.91,3.58-10.18,7.54-15.72,11.88A625.16,625.16,0,0,0,189.18,208q-9.21,9.17-18.53,19.3a541,541,0,0,0-70.88,96.11q-4.12,7.19-8.06,14.63c-20.53-34-27.26-71.05-15.77-105.15,9-26.79,28.13-48.23,53.8-63.27A21.54,21.54,0,1,0,169.27,153C196.88,145.05,228.42,142.57,261.41,146.27Zm-109.56,60.6a2.54,2.54,0,0,0-3.59-3.6l-5.86,5.87-5.86-5.87a2.55,2.55,0,0,0-3.6,3.6l5.87,5.85-5.87,5.87a2.54,2.54,0,0,0,3.6,3.59l5.86-5.86,5.86,5.86a2.54,2.54,0,0,0,3.59-3.59L146,212.72Z" transform="translate(-21.81 -4.72)"/><path class="cls-5" d="M222.89,358.77a49.06,49.06,0,0,0-12,7.77c.9,1.25,1.71,2.34,2.42,3.19h0l-23.5,11.83h0l-6.91-7.83-.06-.08a112.42,112.42,0,0,0-34.45,42.72h0a57,57,0,0,0,4.16,4.75c6.83,7.11,21.46,19.54,38.94,18A43.22,43.22,0,0,0,205.53,435a221.42,221.42,0,0,0-7.25,29.46,138.75,138.75,0,0,0-2.18,21.23c-.24,14.08,2.59,27,12.15,32.44a24.62,24.62,0,0,0,4.2,1.91H201.67c-82-2.72-99.66-93.14-87.36-149.92.37-1.72.77-3.41,1.19-5.05,2.61-10.11,6.2-18.94,10.57-25.72,1-1.57,2-3,3-4.41C140.72,319.25,152,316.71,152,316.71c-3.28,9.27,1.71,19.58,11.21,22.11,6.27,1.67,9.84-1.26,9.72-4.7a23.17,23.17,0,0,1,2.57-10.84,8,8,0,0,0,4.54,0,45.93,45.93,0,0,1,34.63,16c11.05,12.82,16.11,15.17,13.4,23l-2.8,1.41S223.64,360.69,222.89,358.77Z" transform="translate(-21.81 -4.72)"/><path class="cls-4" d="M235.29,479.9c-22.87,9.48-39.19,5.74-39.19,5.74a138.75,138.75,0,0,1,2.18-21.23A42.19,42.19,0,0,1,235.29,479.9Z" transform="translate(-21.81 -4.72)"/><path class="cls-5" d="M169.1,290.34c.13,2.68.09,8.92-2.84,9.79s-5.44-2.65-6.62-4.46a5.4,5.4,0,0,0-3.32-2.4,4.82,4.82,0,0,0-2.81.22c-2.92,1.19-4.07,5.11-2.58,8.77a8,8,0,0,0,3.69,4.2l-.13.26a53.51,53.51,0,0,1-1.22,5.8,38.44,38.44,0,0,1-8.62-7.46c-11.15-13.38-1.88-26.6-1.57-27-3.93-1.29-7.08-4.08-5.34-5.85,2.14-2.18,8.33,1.14,8.62,1.3-3.35-2.88-5.33-7.19-2.86-8.09,2.95-1.07,6.79,4.5,6.79,4.5,4.77-3.13,11.21-5.08,20.36-5.54,1.87-.1,3.87-.13,6-.11a24.34,24.34,0,0,1,13.69,4.3c7.17,5.12,7.48,14.58,1.21,21.81a21.12,21.12,0,0,0-2.35-6.17c-8.21,7-20,6.17-20,6.17Z" transform="translate(-21.81 -4.72)"/><path class="cls-5" d="M183.82,297c.78.07,1.3,1.21,1.19,2.55s-.84,2.38-1.62,2.31-1.3-1.21-1.18-2.55S183.05,296.91,183.82,297Z" transform="translate(-21.81 -4.72)"/><path class="cls-5" d="M169.27,153a21.54,21.54,0,1,1-19-11.37A21.51,21.51,0,0,1,169.27,153Z" transform="translate(-21.81 -4.72)"/><path class="cls-7" d="M153.27,312.52c-.34,1.3-.76,2.72-1.28,4.19,0,0-11.27,2.54-22.88,18.18h0q6.93-14.62,15.54-29.82A38.44,38.44,0,0,0,153.27,312.52Z" transform="translate(-21.81 -4.72)"/><path class="cls-5" d="M298.21,342.78a.7.7,0,0,1-.51-.23.68.68,0,0,1-.16-.61L304,312.62a.68.68,0,0,1,.81-.52.69.69,0,0,1,.52.82l-6.23,28.39L338.89,337l9.37-42.75-23,2.49a.68.68,0,1,1-.15-1.36l24-2.59a.69.69,0,0,1,.74.83l-9.68,44.16a.68.68,0,0,1-.59.53l-41.25,4.44Z" transform="translate(-21.81 -4.72)"/><path class="cls-5" d="M314.22,334.57a3.84,3.84,0,0,1-3.74-4.66l.7-3.17a3.83,3.83,0,0,1,3.33-3l10.89-1.17a3.83,3.83,0,0,1,4.16,4.63l-.69,3.17a3.83,3.83,0,0,1-3.34,3l-10.89,1.17Zm11.6-10.65h-.27l-10.89,1.18a2.47,2.47,0,0,0-2.15,1.93l-.69,3.16a2.46,2.46,0,0,0,2.67,3l10.9-1.17a2.45,2.45,0,0,0,2.14-1.93h0l.7-3.16a2.46,2.46,0,0,0-2.41-3Z" transform="translate(-21.81 -4.72)"/><path class="cls-5" d="M321.54,305.17a.67.67,0,0,1-.48-.2.68.68,0,0,1,0-1,.72.72,0,0,1,.42-.2l25.29-2.72a.68.68,0,0,1,.15,1.36l-25.26,2.72Z" transform="translate(-21.81 -4.72)"/><path class="cls-4" d="M262.17,286.63a5.09,5.09,0,1,1,5.08,5.08A5.08,5.08,0,0,1,262.17,286.63Z" transform="translate(-21.81 -4.72)"/><path class="cls-4" d="M281.69,286.63a5.08,5.08,0,1,1,5.08,5.08A5.07,5.07,0,0,1,281.69,286.63Z" transform="translate(-21.81 -4.72)"/><path class="cls-4" d="M301.21,286.63a5.08,5.08,0,1,1,5.08,5.08A5.08,5.08,0,0,1,301.21,286.63Z" transform="translate(-21.81 -4.72)"/><path class="cls-2" d="M325.15,296.14l23.71-2.5L347,301.76s-24.83,2.67-25,2.67A9.55,9.55,0,0,0,325.15,296.14Z" transform="translate(-21.81 -4.72)"/><polygon class="cls-1" points="198.59 293.19 187.68 312.09 209.51 312.09 198.59 293.19"/><circle class="cls-5" cx="68.87" cy="249.12" r="1.87"/><path class="cls-5" d="M88.81,270.29a1.87,1.87,0,1,1,1.87,1.87A1.87,1.87,0,0,1,88.81,270.29Z" transform="translate(-21.81 -4.72)"/><circle class="cls-5" cx="68.87" cy="257.34" r="1.87"/><circle class="cls-5" cx="87.09" cy="249.12" r="1.87"/><path class="cls-5" d="M107,270.29a1.87,1.87,0,1,1,1.87,1.87A1.87,1.87,0,0,1,107,270.29Z" transform="translate(-21.81 -4.72)"/><circle class="cls-5" cx="87.09" cy="257.34" r="1.87"/><circle class="cls-5" cx="77.98" cy="249.12" r="1.87"/><path class="cls-5" d="M97.92,270.29a1.87,1.87,0,1,1,1.87,1.87A1.87,1.87,0,0,1,97.92,270.29Z" transform="translate(-21.81 -4.72)"/><circle class="cls-5" cx="77.98" cy="257.34" r="1.87"/><path class="cls-3" d="M150.06,223.6a3.26,3.26,0,0,1-2.29-.93l-5.37-5.39L137,222.66a3.2,3.2,0,0,1-2.28.94,3.21,3.21,0,0,1-2.28-5.49l5.38-5.39-5.38-5.37a3.24,3.24,0,0,1,0-4.56,3.24,3.24,0,0,1,4.56,0l5.38,5.38,5.37-5.38a3.25,3.25,0,0,1,2.28-.95,3.21,3.21,0,0,1,2.28.95,3.17,3.17,0,0,1,.95,2.27,3.21,3.21,0,0,1-.95,2.29L147,212.72l5.38,5.38h0a3.22,3.22,0,0,1,0,4.56A3.18,3.18,0,0,1,150.06,223.6Zm-7.66-8h0a.7.7,0,0,1,.48.2l5.86,5.87a1.86,1.86,0,0,0,2.63-2.63l-5.87-5.86a.74.74,0,0,1-.2-.49.72.72,0,0,1,.2-.48l5.87-5.86a1.85,1.85,0,0,0,.54-1.32,1.81,1.81,0,0,0-.54-1.3,1.91,1.91,0,0,0-2.63,0l-5.86,5.86a.66.66,0,0,1-.48.2h0a.67.67,0,0,1-.48-.2l-5.87-5.86a1.9,1.9,0,0,0-2.62,0,1.85,1.85,0,0,0,0,2.63l5.86,5.85a.67.67,0,0,1,.2.48.7.7,0,0,1-.2.49l-5.86,5.86a1.87,1.87,0,0,0,0,2.63,1.92,1.92,0,0,0,2.63,0l5.86-5.86A.72.72,0,0,1,142.4,215.63Z" transform="translate(-21.81 -4.72)"/><path class="cls-3" d="M312.6,317.79a.64.64,0,0,1-.33-.08l-17.8-9.7h0l-1-.54a7.31,7.31,0,0,0-3.52-.9h-40a8.9,8.9,0,0,1-8.89-8.89V275.93a8.89,8.89,0,0,1,8.89-8.88h67a8.89,8.89,0,0,1,8.89,8.88v21.75a8.9,8.9,0,0,1-8.89,8.89h-7.67a.36.36,0,0,0-.34.51l4.27,9.75a.68.68,0,0,1-.62,1Zm-17.48-11,16.05,8.74-3.47-7.92a1.71,1.71,0,0,1,.13-1.64,1.74,1.74,0,0,1,1.46-.79H317a7.52,7.52,0,0,0,7.52-7.52V275.93a7.53,7.53,0,0,0-7.52-7.52h-67a7.53,7.53,0,0,0-7.52,7.52v21.75a7.52,7.52,0,0,0,7.52,7.52h40a8.66,8.66,0,0,1,4.18,1.07Z" transform="translate(-21.81 -4.72)"/><path class="cls-3" d="M283.45,292.39a5.76,5.76,0,1,1,5.76-5.76A5.76,5.76,0,0,1,283.45,292.39Zm0-10.16a4.4,4.4,0,1,0,4.4,4.4A4.41,4.41,0,0,0,283.45,282.23Z" transform="translate(-21.81 -4.72)"/><path class="cls-3" d="M303,292.39a5.76,5.76,0,1,1,5.77-5.76A5.76,5.76,0,0,1,303,292.39Zm0-10.16a4.4,4.4,0,1,0,4.4,4.4A4.4,4.4,0,0,0,303,282.23Z" transform="translate(-21.81 -4.72)"/><path class="cls-3" d="M263.93,292.39a5.76,5.76,0,1,1,5.77-5.76A5.76,5.76,0,0,1,263.93,292.39Zm0-10.16a4.4,4.4,0,1,0,4.4,4.4A4.4,4.4,0,0,0,263.93,282.23Z" transform="translate(-21.81 -4.72)"/><path class="cls-3" d="M416,355.36a3.73,3.73,0,1,1,3.72-3.73A3.74,3.74,0,0,1,416,355.36Zm0-6.09a2.36,2.36,0,1,0,2.36,2.36A2.36,2.36,0,0,0,416,349.27Z" transform="translate(-21.81 -4.72)"/><path class="cls-3" d="M404.31,355.36a3.73,3.73,0,1,1,3.73-3.73A3.74,3.74,0,0,1,404.31,355.36Zm0-6.09a2.36,2.36,0,1,0,2.36,2.36A2.36,2.36,0,0,0,404.31,349.27Z" transform="translate(-21.81 -4.72)"/><path class="cls-3" d="M427.69,355.36a3.73,3.73,0,1,1,3.72-3.73A3.73,3.73,0,0,1,427.69,355.36Zm0-6.09a2.36,2.36,0,1,0,2.36,2.36A2.36,2.36,0,0,0,427.69,349.27Z" transform="translate(-21.81 -4.72)"/><path class="cls-3" d="M416,378.47a3.73,3.73,0,1,1,3.72-3.72A3.73,3.73,0,0,1,416,378.47Zm0-6.08a2.36,2.36,0,1,0,2.36,2.36A2.36,2.36,0,0,0,416,372.39Z" transform="translate(-21.81 -4.72)"/><path class="cls-3" d="M404.31,378.47a3.73,3.73,0,1,1,3.73-3.72A3.73,3.73,0,0,1,404.31,378.47Zm0-6.08a2.36,2.36,0,1,0,2.36,2.36A2.36,2.36,0,0,0,404.31,372.39Z" transform="translate(-21.81 -4.72)"/><path class="cls-3" d="M427.69,378.47a3.73,3.73,0,1,1,3.72-3.72A3.73,3.73,0,0,1,427.69,378.47Zm0-6.08a2.36,2.36,0,1,0,2.36,2.36A2.36,2.36,0,0,0,427.69,372.39Z" transform="translate(-21.81 -4.72)"/><path class="cls-3" d="M416,366.92a3.73,3.73,0,1,1,3.72-3.73A3.74,3.74,0,0,1,416,366.92Zm0-6.09a2.36,2.36,0,1,0,2.36,2.36A2.36,2.36,0,0,0,416,360.83Z" transform="translate(-21.81 -4.72)"/><path class="cls-3" d="M404.31,366.92a3.73,3.73,0,1,1,3.73-3.73A3.74,3.74,0,0,1,404.31,366.92Zm0-6.09a2.36,2.36,0,1,0,2.36,2.36A2.36,2.36,0,0,0,404.31,360.83Z" transform="translate(-21.81 -4.72)"/><path class="cls-3" d="M427.69,366.92a3.73,3.73,0,1,1,3.72-3.73A3.73,3.73,0,0,1,427.69,366.92Zm0-6.09a2.36,2.36,0,1,0,2.36,2.36A2.36,2.36,0,0,0,427.69,360.83Z" transform="translate(-21.81 -4.72)"/><path class="cls-3" d="M185.12,384.59a.7.7,0,0,1-.62-.38.69.69,0,0,1,.31-.92l60.83-30.6a63.74,63.74,0,0,1,26.73-6.87,51.72,51.72,0,0,1,11.49.93c.49.1,1,.21,1.45.33.93.22,1.83.47,2.65.74a44.77,44.77,0,0,1,14.55,7.69.68.68,0,0,1-.87,1.05,43.59,43.59,0,0,0-14.09-7.44c-.8-.25-1.66-.49-2.56-.71-.47-.12-.93-.22-1.4-.32a49.64,49.64,0,0,0-11.19-.9,62.2,62.2,0,0,0-26.14,6.72l-60.84,30.61A.82.82,0,0,1,185.12,384.59Z" transform="translate(-21.81 -4.72)"/><path class="cls-3" d="M303.16,364.6a21.48,21.48,0,0,1-6.87-1.56.68.68,0,0,1,.46-1.28c6,2.17,7.91,1.48,8.52.87.86-.87-.23-2.53-1-3.44a19.07,19.07,0,0,0-2.67-2.63.69.69,0,1,1,.88-1.05,19.56,19.56,0,0,1,2.85,2.83c2.37,3,1.56,4.56.86,5.25A4.13,4.13,0,0,1,303.16,364.6Z" transform="translate(-21.81 -4.72)"/><path class="cls-3" d="M300.22,373a21.83,21.83,0,0,1-7.12-1.66.68.68,0,0,1,.48-1.28c4.5,1.67,7.69,2,8.75,1,.71-.72.18-2.23-1.43-4a25.61,25.61,0,0,0-4.77-4,43.13,43.13,0,0,0-8.91-4.6.68.68,0,0,1-.4-.89.68.68,0,0,1,.88-.39,44.67,44.67,0,0,1,9.2,4.74,26.92,26.92,0,0,1,5,4.26c3,3.35,2.14,5.13,1.37,5.9A4.13,4.13,0,0,1,300.22,373Z" transform="translate(-21.81 -4.72)"/><path class="cls-3" d="M296.48,380.9a15.57,15.57,0,0,1-4-.66.68.68,0,1,1,.36-1.31c2.92.8,5,.8,5.77,0a1.09,1.09,0,0,0,.31-.95c-.14-1.66-2.41-4.23-5.93-6.72a43.42,43.42,0,0,0-9.49-5A.68.68,0,1,1,284,365a44.82,44.82,0,0,1,9.79,5.15c3.95,2.8,6.33,5.61,6.51,7.72a2.51,2.51,0,0,1-.71,2A4.18,4.18,0,0,1,296.48,380.9Z" transform="translate(-21.81 -4.72)"/><path class="cls-3" d="M188.49,439.93c-16.27,0-29.68-11.31-36.44-18.34a60.78,60.78,0,0,1-4.22-4.81.7.7,0,0,1,.14-1,.68.68,0,0,1,.95.14,60.4,60.4,0,0,0,4.11,4.68c7,7.29,21.32,19.3,38.39,17.8a42.33,42.33,0,0,0,13.82-4.11.68.68,0,1,1,.57,1.24,43.66,43.66,0,0,1-14.27,4.23C190.52,439.89,189.5,439.93,188.49,439.93Z" transform="translate(-21.81 -4.72)"/><path class="cls-3" d="M205.53,435.63a.68.68,0,0,1-.62-.4.69.69,0,0,1,.33-.91C229.57,423,257,392.44,257.29,392.13a.7.7,0,0,1,.33-.2,87.81,87.81,0,0,0,22.43-9.78.69.69,0,0,1,.61-.07c4.22,1.51,11.53,3.18,13.16,1.27a1,1,0,0,0,.25-.75,4.47,4.47,0,0,0-1.88-2.48c-2.37-1.9-6.41-3.77-11.09-5.12a.68.68,0,1,1,.38-1.31c4.84,1.4,9.06,3.35,11.56,5.36,1.48,1.2,2.29,2.35,2.39,3.42a2.35,2.35,0,0,1-.57,1.76c-2.61,3.06-12.2,0-14.35-.75a90,90,0,0,1-22.34,9.72c-2.14,2.36-28.66,31.34-52.36,42.36A.58.58,0,0,1,205.53,435.63Z" transform="translate(-21.81 -4.72)"/><path class="cls-3" d="M177.91,324.3a10.27,10.27,0,0,1-2.59-.36,17.55,17.55,0,0,1-2.67-.94.68.68,0,1,1,.55-1.25,17,17,0,0,0,2.46.87,7.44,7.44,0,0,0,4.16,0c4-1.28,6.86-7.11,10.27-16.11a.82.82,0,0,1,.16-.25.69.69,0,0,1,1,0,.67.67,0,0,1,.13.78c-3.64,9.59-6.63,15.42-11.11,16.87A7.47,7.47,0,0,1,177.91,324.3Z" transform="translate(-21.81 -4.72)"/><path class="cls-3" d="M158.85,301.82a.68.68,0,0,1-.62-.4,6.6,6.6,0,0,0-4.93-3.28.69.69,0,0,1,.24-1.35,7.93,7.93,0,0,1,5.93,4.06.69.69,0,0,1-.34.91A.71.71,0,0,1,158.85,301.82Z" transform="translate(-21.81 -4.72)"/><path class="cls-3" d="M154.71,303a.69.69,0,0,1-.69-.65c0-.13-.13-3.25,1.82-4.5a.69.69,0,0,1,.95.21.68.68,0,0,1-.21.94c-1.07.69-1.22,2.6-1.19,3.28a.69.69,0,0,1-.65.72Z" transform="translate(-21.81 -4.72)"/><path class="cls-3" d="M186.59,295.15a.67.67,0,0,1-.38-.11c-2.61-1.76-6.35,0-6.39,0a.68.68,0,0,1-.59-1.23c.18-.09,4.48-2.11,7.74.08a.68.68,0,0,1,.19,1A.67.67,0,0,1,186.59,295.15Z" transform="translate(-21.81 -4.72)"/><path class="cls-3" d="M181,312.15a5.06,5.06,0,0,1-4.44-2.89.68.68,0,0,1,1.09-.78h0a.58.58,0,0,1,.13.2,3.65,3.65,0,0,0,4.91,1.74.68.68,0,1,1,.5,1.27A5.88,5.88,0,0,1,181,312.15Z" transform="translate(-21.81 -4.72)"/><path class="cls-3" d="M179.64,314.58a3.22,3.22,0,0,1-2.45-1.09.68.68,0,0,1,1.07-.85,1.91,1.91,0,0,0,1.77.54.68.68,0,1,1,.23,1.35A3.44,3.44,0,0,1,179.64,314.58Z" transform="translate(-21.81 -4.72)"/><path class="cls-3" d="M175.72,310.07h-.28a.68.68,0,1,1,.11-1.36,1.9,1.9,0,0,0,1.19-.3,2.63,2.63,0,0,0,.76-.82.68.68,0,0,1,1.22.62,3.81,3.81,0,0,1-1.22,1.33A3.16,3.16,0,0,1,175.72,310.07Z" transform="translate(-21.81 -4.72)"/><path class="cls-3" d="M190.75,307.45l0-1.37c1.51,0,2.5-.33,2.86-.87s.1-1.46-.23-2.26a26.22,26.22,0,0,1-2-8.52,22.85,22.85,0,0,0-.53-3.94,20.3,20.3,0,0,0-2.27-6,.68.68,0,1,1,1.18-.69,21.85,21.85,0,0,1,2.43,6.37,24.58,24.58,0,0,1,.55,4.16,25,25,0,0,0,1.88,8.09c.28.68.93,2.28.1,3.52C194.1,306.92,192.79,307.41,190.75,307.45Z" transform="translate(-21.81 -4.72)"/><path class="cls-3" d="M471.35,520.68H379.1a.68.68,0,0,1-.68-.68v-.45c0-.82.1-2.83.22-5.7a2.44,2.44,0,0,0,0-.26c.11-2.62.25-5.89.43-9.61-.24-.34-1.07-1.5-3.9-5.31-1.25-1.69-2.65-3.57-4-5.39l-1.26-1.7a.68.68,0,0,1,1.09-.81l1.27,1.69,4,5.39c4.18,5.63,4.18,5.64,4.18,5.95-.19,3.84-.33,7.18-.44,9.82,0,.09,0,.2,0,.31-.1,2.55-.17,4.43-.2,5.38H470.3a25,25,0,0,0-3.32-5,.67.67,0,0,1,.08-1,.68.68,0,0,1,1,.08,24.94,24.94,0,0,1,4,6.29.75.75,0,0,1,0,.26A.68.68,0,0,1,471.35,520.68Z" transform="translate(-21.81 -4.72)"/><path class="cls-3" d="M467.49,514.56a.69.69,0,0,1-.52-.24c-13.38-16-50.85-31.12-51.22-31.27a.78.78,0,0,1-.24-.16l-19.79-20.35a.68.68,0,1,1,1-1l19.69,20.24c2.88,1.16,38.3,15.66,51.63,31.61a.69.69,0,0,1-.09,1A.71.71,0,0,1,467.49,514.56Z" transform="translate(-21.81 -4.72)"/><path class="cls-3" d="M379.79,504.49a.69.69,0,0,1-.59-.34.69.69,0,0,1,.24-.94l36.21-21.38a.68.68,0,0,1,.94.24.68.68,0,0,1-.24.93l-36.21,21.39A.74.74,0,0,1,379.79,504.49Z" transform="translate(-21.81 -4.72)"/><path class="cls-3" d="M467.5,514.56H379.34a.68.68,0,1,1,0-1.36h88.15a.68.68,0,0,1,.69.68A.67.67,0,0,1,467.5,514.56Z" transform="translate(-21.81 -4.72)"/><path class="cls-3" d="M307.77,520.67h0a.68.68,0,0,1-.66-.7s.08-2.41.25-6.41c.11-2.65.25-6,.43-9.79,0,0,0-1.76.07-4.57l.16-11.6c0-2.72.07-5.6.11-8.47a.69.69,0,0,1,1.37,0c0,2.87-.08,5.75-.12,8.47l-.16,11.6c0,2.77-.06,4.51-.06,4.58-.19,3.83-.33,7.17-.44,9.82-.16,4-.24,6.39-.24,6.39A.69.69,0,0,1,307.77,520.67Z" transform="translate(-21.81 -4.72)"/><path class="cls-3" d="M308.46,504.49a.7.7,0,0,1-.62-.39.68.68,0,0,1,.32-.91l30.08-14.71a.68.68,0,1,1,.6,1.22l-30.08,14.72A.82.82,0,0,1,308.46,504.49Z" transform="translate(-21.81 -4.72)"/><path class="cls-3" d="M379.34,514.28H308.11a.69.69,0,1,1,0-1.37h71.23a.69.69,0,0,1,0,1.37Z" transform="translate(-21.81 -4.72)"/><path class="cls-3" d="M301.41,367.22a.68.68,0,0,1-.68-.6.7.7,0,0,1,.6-.76L356,359.31l15.57-77-4.19-6.3-42.12,5.05a.68.68,0,0,1-.75-.6.68.68,0,0,1,.59-.76l42.54-5.1a.69.69,0,0,1,.65.3l4.58,6.89a.68.68,0,0,1,.1.52l-15.72,77.76a.68.68,0,0,1-.59.54l-55.15,6.61Z" transform="translate(-21.81 -4.72)"/><path class="cls-3" d="M285.15,348.42l-.16,0a.69.69,0,0,1-.51-.82l9.65-40.32a.68.68,0,0,1,1.35.14h0a.77.77,0,0,1,0,.15l-9.65,40.33A.67.67,0,0,1,285.15,348.42Z" transform="translate(-21.81 -4.72)"/><path class="cls-3" d="M304.84,359.45a.68.68,0,0,1-.08-1.36l47.09-5.64a.68.68,0,0,1,.76.6.69.69,0,0,1-.6.76l-47.09,5.63Z" transform="translate(-21.81 -4.72)"/><path class="cls-3" d="M213.28,370.42h0a.71.71,0,0,1-.53-.25c-.67-.81-1.47-1.87-2.44-3.23-5.78-8.09-14.71-22.95-14.8-23.1a.68.68,0,1,1,1.17-.71c.09.15,9,15,14.74,23,.94,1.32,1.72,2.35,2.36,3.13a.69.69,0,0,1-.5,1.15Z" transform="translate(-21.81 -4.72)"/><path class="cls-3" d="M351.94,353.81a.68.68,0,0,1-.69-.68h0a.68.68,0,0,1,0-.14L367,275.15a.69.69,0,0,1,.81-.54.68.68,0,0,1,.53.81l-15.76,77.83A.69.69,0,0,1,351.94,353.81Z" transform="translate(-21.81 -4.72)"/><path class="cls-3" d="M302.08,356.71a.68.68,0,0,1-.05-1.36l45.22-5.42,14.42-69.65-36.43,4.37a.68.68,0,0,1-.75-.6.67.67,0,0,1,.59-.76l37.37-4.48a.72.72,0,0,1,.59.22.65.65,0,0,1,.16.6l-14.71,71.06a.68.68,0,0,1-.59.54l-45.74,5.48Z" transform="translate(-21.81 -4.72)"/><path class="cls-3" d="M287.76,349.14a.5.5,0,0,1-.17,0,.68.68,0,0,1-.5-.82l9.74-39.59a.69.69,0,0,1,.83-.5.68.68,0,0,1,.5.83l-9.74,39.58A.66.66,0,0,1,287.76,349.14Z" transform="translate(-21.81 -4.72)"/><path class="cls-3" d="M426.35,242.28a29.59,29.59,0,0,1-29.55-29.56A29.16,29.16,0,0,1,399.67,200a29.57,29.57,0,1,1,26.68,42.28Zm0-57.74a28.32,28.32,0,0,0-25.44,16.05,27.86,27.86,0,0,0-2.75,12.13,28.19,28.19,0,0,0,42,24.56h0a28.19,28.19,0,0,0-13.86-52.74Z" transform="translate(-21.81 -4.72)"/><path class="cls-3" d="M426.35,177.72c-2.15,0-3.27-4.09-3.27-8.14s1.12-8.15,3.27-8.15,3.28,4.1,3.28,8.15S428.5,177.72,426.35,177.72Zm0-14.92c-.65,0-1.91,2.39-1.91,6.78s1.26,6.78,1.91,6.78,1.91-2.4,1.91-6.78S427,162.8,426.35,162.8Z" transform="translate(-21.81 -4.72)"/><path class="cls-3" d="M426.35,264c-2.15,0-3.27-4.1-3.27-8.14s1.12-8.15,3.27-8.15,3.28,4.1,3.28,8.15S428.5,264,426.35,264Zm0-14.92c-.65,0-1.91,2.39-1.91,6.78s1.26,6.77,1.91,6.77,1.91-2.39,1.91-6.77S427,249.1,426.35,249.1Z" transform="translate(-21.81 -4.72)"/><path class="cls-3" d="M469.5,216c-4,0-8.14-1.12-8.14-3.28s4.1-3.27,8.14-3.27,8.15,1.12,8.15,3.27S473.55,216,469.5,216Zm0-5.18c-4.38,0-6.78,1.26-6.78,1.9s2.4,1.92,6.78,1.92,6.78-1.27,6.78-1.92S473.89,210.82,469.5,210.82Z" transform="translate(-21.81 -4.72)"/><path class="cls-3" d="M383.21,216c-4,0-8.15-1.12-8.15-3.28s4.1-3.27,8.15-3.27,8.14,1.12,8.14,3.27S387.25,216,383.21,216Zm0-5.18c-4.39,0-6.78,1.26-6.78,1.9s2.39,1.92,6.78,1.92,6.77-1.27,6.77-1.92S387.59,210.82,383.21,210.82Z" transform="translate(-21.81 -4.72)"/><path class="cls-3" d="M452.47,188.48a1.9,1.9,0,0,1-1.37-.51c-1.52-1.52.59-5.21,3.45-8.07s6.55-5,8.08-3.45c.5.51.89,1.54-.12,3.63a17.12,17.12,0,0,1-3.33,4.45C457,186.73,454.29,188.48,452.47,188.48Zm8.78-11.18c-.94,0-3.16,1-5.74,3.56a16.22,16.22,0,0,0-3.06,4.09c-.63,1.3-.52,1.91-.38,2.05.46.46,3.05-.33,6.15-3.43a16.22,16.22,0,0,0,3.06-4.09c.63-1.3.52-1.92.38-2.06A.57.57,0,0,0,461.25,177.3Z" transform="translate(-21.81 -4.72)"/><path class="cls-3" d="M391.45,249.51a1.86,1.86,0,0,1-1.37-.51c-1.52-1.53.59-5.22,3.45-8.08a17.59,17.59,0,0,1,4.45-3.33c2.08-1,3.12-.62,3.62-.11,1.52,1.52-.58,5.21-3.44,8.08C396,247.76,393.27,249.51,391.45,249.51Zm8.77-11.19c-.94,0-3.15,1-5.73,3.57-3.1,3.1-3.9,5.68-3.44,6.14.14.15.76.25,2.06-.38a16,16,0,0,0,4.09-3.06c3.1-3.1,3.89-5.69,3.43-6.15A.54.54,0,0,0,400.22,238.32Z" transform="translate(-21.81 -4.72)"/><path class="cls-3" d="M461.26,249.51c-1.82,0-4.51-1.75-6.71-3.95-2.86-2.86-5-6.56-3.45-8.08s5.22.58,8.08,3.44,5,6.55,3.45,8.08A1.86,1.86,0,0,1,461.26,249.51Zm-8.78-11.19a.63.63,0,0,0-.41.12c-.46.46.34,3.05,3.44,6.15s5.69,3.9,6.15,3.44-.34-3-3.44-6.14C455.64,239.31,453.42,238.32,452.48,238.32Z" transform="translate(-21.81 -4.72)"/><path class="cls-3" d="M400.22,188.48c-1.67,0-4.29-1.55-6.69-3.95a17.12,17.12,0,0,1-3.33-4.45c-1-2.09-.62-3.12-.12-3.63,1.52-1.52,5.22.58,8.08,3.45,2.4,2.4,4,5,3.95,6.7a1.76,1.76,0,0,1-1.89,1.88Zm-8.75-11.17a.6.6,0,0,0-.42.11c-.15.14-.25.76.38,2.06a16,16,0,0,0,3.06,4.09c2.44,2.44,4.68,3.55,5.73,3.55a.44.44,0,0,0,.53-.53c0-1-1.11-3.28-3.55-5.73a16.22,16.22,0,0,0-4.09-3.06A4.13,4.13,0,0,0,391.47,177.31Z" transform="translate(-21.81 -4.72)"/><path class="cls-3" d="M350.62,242.5a.69.69,0,0,1-.48-.2.68.68,0,0,1,0-1l4.86-4.86a.68.68,0,0,1,1,0,.7.7,0,0,1,0,1l-4.86,4.86A.71.71,0,0,1,350.62,242.5Z" transform="translate(-21.81 -4.72)"/><path class="cls-3" d="M341.89,251.23a.69.69,0,0,1-.48-.2.68.68,0,0,1,0-1l4.86-4.86a.68.68,0,0,1,1,1L342.38,251A.71.71,0,0,1,341.89,251.23Z" transform="translate(-21.81 -4.72)"/><path class="cls-3" d="M355.48,251.23a.69.69,0,0,1-.48-.2l-4.86-4.86a.68.68,0,0,1,0-1,.7.7,0,0,1,1,0l4.86,4.86a.7.7,0,0,1,0,1A.71.71,0,0,1,355.48,251.23Z" transform="translate(-21.81 -4.72)"/><path class="cls-3" d="M346.75,242.5a.69.69,0,0,1-.48-.2l-4.86-4.86a.69.69,0,1,1,1-1l4.85,4.86a.68.68,0,0,1,0,1A.69.69,0,0,1,346.75,242.5Z" transform="translate(-21.81 -4.72)"/><path class="cls-3" d="M257.39,241.18H238.8a.69.69,0,0,1-.69-.69v-18.6a.69.69,0,0,1,.69-.68h18.59a.68.68,0,0,1,.68.68v18.6A.68.68,0,0,1,257.39,241.18Zm-17.91-1.37h17.23V222.58H239.48Z" transform="translate(-21.81 -4.72)"/><path class="cls-3" d="M266.69,250.47h-18.6a.68.68,0,0,1-.68-.68v-9.3a.68.68,0,0,1,1.36,0v8.61H266V231.88h-8.62a.69.69,0,0,1,0-1.37h9.3a.68.68,0,0,1,.68.68v18.6A.68.68,0,0,1,266.69,250.47Z" transform="translate(-21.81 -4.72)"/><path class="cls-3" d="M191.53,291a.7.7,0,0,1-.45-.17.68.68,0,0,1-.06-1c3.19-3.68,4.68-8,4.19-12.09a12.3,12.3,0,0,0-5.29-8.71,23.43,23.43,0,0,0-13.3-4.17c-2.09,0-4.09,0-5.94.1-8.56.43-15.11,2.21-20,5.44a.69.69,0,0,1-.95-.2.68.68,0,0,1,.2-.95c5.11-3.36,11.88-5.21,20.69-5.66,1.88-.09,3.91-.13,6-.1A24.81,24.81,0,0,1,190.71,268a13.82,13.82,0,0,1,5.86,9.67c.53,4.5-1.07,9.17-4.52,13.14A.69.69,0,0,1,191.53,291Z" transform="translate(-21.81 -4.72)"/><path class="cls-3" d="M148.45,275.65a.66.66,0,0,1-.33-.09,12.65,12.65,0,0,1-2.2-1.57.68.68,0,0,1,.9-1,11.88,11.88,0,0,0,2,1.41.7.7,0,0,1,.26.94A.69.69,0,0,1,148.45,275.65Z" transform="translate(-21.81 -4.72)"/><path class="cls-3" d="M146.36,274.15a.69.69,0,0,1-.45-.16c-2.37-2.05-4.56-5.27-4.15-7.49a2.25,2.25,0,0,1,1.51-1.76c3.35-1.22,7.16,4.14,7.59,4.76a.68.68,0,1,1-1.13.77c-.92-1.33-4-5-6-4.25a.88.88,0,0,0-.62.73c-.23,1.25,1.11,4,3.69,6.2a.68.68,0,0,1,.07,1A.68.68,0,0,1,146.36,274.15Z" transform="translate(-21.81 -4.72)"/><path class="cls-3" d="M146.36,279.36h-.05a14.17,14.17,0,0,1-3.43-.68.68.68,0,1,1,.42-1.3,13.62,13.62,0,0,0,3.1.62.69.69,0,0,1,0,1.37Z" transform="translate(-21.81 -4.72)"/><path class="cls-3" d="M143.08,278.7l-.21,0c-2.74-.9-5.73-2.73-6.23-4.8a2.23,2.23,0,0,1,.61-2.18c2.46-2.5,8.66.76,9.42,1.18a.67.67,0,0,1,.38.61.67.67,0,0,1-.68.68.67.67,0,0,1-.34-.09h0c-2.32-1.27-6.48-2.77-7.8-1.42a.86.86,0,0,0-.26.9c.31,1.28,2.6,2.93,5.33,3.82a.68.68,0,0,1-.22,1.33Z" transform="translate(-21.81 -4.72)"/><path class="cls-3" d="M150.28,185.37a22.22,22.22,0,1,1,22.22-22.22A22.15,22.15,0,0,1,150.28,185.37Zm0-43.08a20.89,20.89,0,0,0-20.86,20.86,20.54,20.54,0,0,0,1,6.3h0a20.86,20.86,0,1,0,19.88-27.16Z" transform="translate(-21.81 -4.72)"/><path class="cls-3" d="M477,327.48a22.32,22.32,0,1,1,2-.1C478.34,327.44,477.66,327.48,477,327.48Zm0-43.08a20.76,20.76,0,0,0-7.33,1.32A20.86,20.86,0,0,0,477,326.11c.65,0,1.28,0,1.88-.09h0A20.85,20.85,0,0,0,477,284.4Z" transform="translate(-21.81 -4.72)"/><path class="cls-3" d="M477,358.45a8.51,8.51,0,0,1-.88,0h0a11.45,11.45,0,0,1,.88-22.86A11.42,11.42,0,0,1,488.42,347,11.47,11.47,0,0,1,477,358.45Zm0-21.54a10.08,10.08,0,0,0-.78,20.14h0c.26,0,.51,0,.78,0a10.09,10.09,0,1,0,0-20.17Z" transform="translate(-21.81 -4.72)"/><path class="cls-3" d="M187.47,378.3a.66.66,0,0,1-.3-.07.67.67,0,0,1-.31-.91c2.16-4.42-1.18-10.58-11.91-22-15.8-17.36-37-9.28-37.23-9.2a.67.67,0,0,1-.88-.38.69.69,0,0,1,.38-.89c.22-.08,22.29-8.52,38.73,9.54,11.34,12,14.63,18.39,12.14,23.49A.7.7,0,0,1,187.47,378.3Z" transform="translate(-21.81 -4.72)"/><path class="cls-3" d="M189.78,382.24a.71.71,0,0,1-.52-.23l-6.91-7.84a.69.69,0,0,1,1-.91l6.91,7.84a.69.69,0,0,1-.06,1A.7.7,0,0,1,189.78,382.24Z" transform="translate(-21.81 -4.72)"/><path class="cls-3" d="M147,420.13a.65.65,0,0,1-.27-.05.68.68,0,0,1-.36-.9c.5-1.16,1-2.17,1.39-3.11a113.87,113.87,0,0,1,34.67-43c1.27-.93,2-1.38,2-1.4a.68.68,0,0,1,.72,1.16s-.72.45-1.94,1.34A112.5,112.5,0,0,0,149,416.65c-.43.92-.88,1.93-1.37,3.07A.69.69,0,0,1,147,420.13Z" transform="translate(-21.81 -4.72)"/><path class="cls-3" d="M147.71,423.13a12.61,12.61,0,0,1-6.31-1.85c-10.53-6.09-20.12-26.9-20.12-43.66,0-22.33,10.84-28.93,11.3-29.2a.69.69,0,1,1,.7,1.18h0c-.11.06-10.63,6.54-10.63,28,0,16.35,9.27,36.59,19.44,42.48,3.59,2.07,7,2.22,10.11.43a.68.68,0,1,1,.68,1.18A10.2,10.2,0,0,1,147.71,423.13Z" transform="translate(-21.81 -4.72)"/><path class="cls-3" d="M403,469.77a.67.67,0,0,1-.24,0,.68.68,0,0,1-.39-.89c3.61-9.32,3.84-19.5.66-30.25-11.7-39.65-66.05-75.36-66.59-75.72a.67.67,0,0,1-.2-.94.68.68,0,0,1,.94-.21,250.79,250.79,0,0,1,29.07,23c14,12.82,31.9,32.5,38.09,53.5,3.27,11,3,21.52-.7,31.13A.67.67,0,0,1,403,469.77Z" transform="translate(-21.81 -4.72)"/><path class="cls-3" d="M367.7,496.67a.66.66,0,0,1-.27-.06.67.67,0,0,1-.35-.9,42.93,42.93,0,0,1,2.63-5c6.74-11.18,19.15-23.14,26-29.27,2.37-2.15,3.91-3.44,3.92-3.46a.69.69,0,0,1,1,.09.68.68,0,0,1-.09,1s-1.53,1.29-3.89,3.42c-6.74,6.09-19,17.94-25.69,29a42.7,42.7,0,0,0-2.55,4.84A.69.69,0,0,1,367.7,496.67Z" transform="translate(-21.81 -4.72)"/><path class="cls-3" d="M364.24,501.4c-8.61,0-17.36-3.94-26.16-11.8a101.26,101.26,0,0,1-13.59-15.21,192.66,192.66,0,0,1-15.62-25.31c-1.16-2.21-2.24-4.34-3.21-6.32a276.81,276.81,0,0,1-11.55-26.84.68.68,0,0,1,1.29-.45,278.7,278.7,0,0,0,11.48,26.69c1,2,2,4.08,3.2,6.28a191,191,0,0,0,15.51,25.13,99.11,99.11,0,0,0,13.4,15c12.42,11.09,24.69,14.13,36.48,9.05a.76.76,0,0,1,.27-.05.68.68,0,0,1,.22,1.33A29.51,29.51,0,0,1,364.24,501.4Z" transform="translate(-21.81 -4.72)"/><path class="cls-3" d="M306.27,443.14h0c-13.55-.42-19.21-18.56-19.45-19.34a.68.68,0,0,1,1.31-.39c.06.18,5.61,18,18.18,18.37a.68.68,0,0,1,0,1.36Z" transform="translate(-21.81 -4.72)"/><path class="cls-3" d="M238.11,520.67a.68.68,0,0,1-.16-1.34c23.3-5.92,46.48-24.11,60.49-47.48a105.63,105.63,0,0,0,10.37-23.28.68.68,0,1,1,1.31.4,106.77,106.77,0,0,1-10.51,23.58c-14.19,23.67-37.69,42.1-61.33,48.1A.47.47,0,0,1,238.11,520.67Z" transform="translate(-21.81 -4.72)"/><path class="cls-3" d="M224.25,522.54a36,36,0,0,1-12-1.91,26.26,26.26,0,0,1-4.31-2c-8.57-4.89-12.78-16-12.5-33a140.72,140.72,0,0,1,2.19-21.33,222.26,222.26,0,0,1,7.27-29.55.7.7,0,0,1,.66-.49.69.69,0,0,1,.68.68h0a.54.54,0,0,1,0,.22A221.43,221.43,0,0,0,199,464.53a138.1,138.1,0,0,0-2.17,21.12c-.27,16.51,3.7,27.22,11.8,31.84a25.7,25.7,0,0,0,4.09,1.86c6.9,2.44,15.63,2.43,25.27,0a.68.68,0,1,1,.34,1.32A57.1,57.1,0,0,1,224.25,522.54Z" transform="translate(-21.81 -4.72)"/><path class="cls-3" d="M308.68,488.29h-.11c-4.33-.72-7.42-2.55-9.18-5.43-2.91-4.77-1.09-10.61-1-10.86a.67.67,0,0,1,.85-.44.68.68,0,0,1,.45.85c0,.06-1.7,5.52.88,9.74,1.55,2.52,4.32,4.14,8.23,4.79a.68.68,0,0,1-.11,1.36Z" transform="translate(-21.81 -4.72)"/><path class="cls-3" d="M305,482.05a.68.68,0,0,1-.39-1.24,38.77,38.77,0,0,1,3.75-2.23l.08-.05A45.33,45.33,0,0,1,325,473.3a.68.68,0,0,1,.74.62.68.68,0,0,1-.62.74,44,44,0,0,0-15.91,5l-.07,0a39.76,39.76,0,0,0-3.69,2.19A.69.69,0,0,1,305,482.05Z" transform="translate(-21.81 -4.72)"/><path class="cls-3" d="M73.57,520.67H22.5a.68.68,0,1,1,0-1.36H73.57a.68.68,0,1,1,0,1.36Z" transform="translate(-21.81 -4.72)"/><path class="cls-3" d="M212.45,520.67H118.61a.68.68,0,1,1,0-1.36h93.84a.68.68,0,1,1,0,1.36Z" transform="translate(-21.81 -4.72)"/><path class="cls-3" d="M480.62,520.67H238.11a.68.68,0,1,1,0-1.36H480.62a.68.68,0,1,1,0,1.36Z" transform="translate(-21.81 -4.72)"/><path class="cls-3" d="M91.31,524.47a.67.67,0,0,1-.65-.47,76,76,0,0,0-5.91-13.19.69.69,0,0,1,.26-.93.68.68,0,0,1,.93.26,77,77,0,0,1,6,13.44.69.69,0,0,1-.44.86Z" transform="translate(-21.81 -4.72)"/><path class="cls-3" d="M76,526.26a.7.7,0,0,1-.62-.4s-1.08-2.33-2.41-5.61c-3.89-9.6-7.7-21.69-3.81-24.8a3.49,3.49,0,0,1,3-.68c5.44,1.06,11.94,12,13.81,15.35a.69.69,0,0,1-.26.93.68.68,0,0,1-.93-.26c-4.65-8.3-9.7-14.06-12.88-14.68a2.18,2.18,0,0,0-1.89.41c-2.45,2-.87,10.64,4.23,23.21,1.31,3.25,2.37,5.53,2.38,5.55a.68.68,0,0,1-.33.91A.59.59,0,0,1,76,526.26Z" transform="translate(-21.81 -4.72)"/><path class="cls-3" d="M119.11,524.83a.68.68,0,0,1-.68-.64c-.08-1.18-.24-2.55-.49-4.09-2.88-17.65-15.22-47.68-26.37-53a7.46,7.46,0,0,0-4.1-.76,5.42,5.42,0,0,0-4,2.57c-6.24,9.38,2.08,39.7,2.53,41.31a.59.59,0,0,1,0,.23.68.68,0,0,1-1.3.29.61.61,0,0,1,0-.12c-.93-3.33-8.86-32.69-2.36-42.47a6.84,6.84,0,0,1,5-3.17,8.8,8.8,0,0,1,4.86.89c12.86,6.11,24.66,38.87,27.13,54,.25,1.58.42,3,.5,4.22a.68.68,0,0,1-.63.73Z" transform="translate(-21.81 -4.72)"/><path class="cls-3" d="M204.74,487a45.4,45.4,0,0,1-8.8-.72.7.7,0,0,1-.51-.82.69.69,0,0,1,.82-.52c.16,0,16.4,3.58,38.77-5.7,17.1-7.09,33.22-19.62,47.91-37.25a.68.68,0,0,1,1-.09.69.69,0,0,1,.09,1c-14.84,17.8-31.13,30.46-48.43,37.63A80.73,80.73,0,0,1,204.74,487Z" transform="translate(-21.81 -4.72)"/><path class="cls-3" d="M235.29,480.58a.68.68,0,0,1-.53-.24,41.87,41.87,0,0,0-36.38-15.25.68.68,0,0,1-.21-1.35,43.27,43.27,0,0,1,37.64,15.72.68.68,0,0,1-.09,1A.66.66,0,0,1,235.29,480.58Z" transform="translate(-21.81 -4.72)"/><path class="cls-3" d="M166.63,340a14.13,14.13,0,0,1-3.61-.51A16.87,16.87,0,0,1,152.37,331a18.14,18.14,0,0,1-1-14.47c.46-1.32.88-2.71,1.26-4.14a53.44,53.44,0,0,0,1.2-5.72.69.69,0,0,1,1.36.19,56.3,56.3,0,0,1-1.24,5.88c-.38,1.46-.82,2.89-1.29,4.24a16.76,16.76,0,0,0,.94,13.38,15.5,15.5,0,0,0,9.8,7.85c3.08.82,5.68.54,7.34-.78a3.89,3.89,0,0,0,1.52-3.23A23.5,23.5,0,0,1,174.9,323a.68.68,0,1,1,1.19.66,22.56,22.56,0,0,0-2.48,10.49,5.31,5.31,0,0,1-2,4.35A7.75,7.75,0,0,1,166.63,340Z" transform="translate(-21.81 -4.72)"/><path class="cls-3" d="M201.84,520.68h-.19c-27.94-.92-50.28-11.88-66.4-32.55-25.52-32.74-29.24-83-21.61-118.2.4-1.82.79-3.48,1.2-5.07,2.63-10.22,6.32-19.18,10.65-25.92,1-1.53,2-3,3.07-4.45,11.63-15.66,22.81-18.33,23.28-18.44a.68.68,0,0,1,.31,1.33c-.12,0-11.2,2.71-22.49,17.93-1,1.39-2,2.86-3,4.37-4.25,6.61-7.88,15.44-10.47,25.52-.41,1.57-.8,3.21-1.19,5-7.57,34.93-3.9,84.67,21.35,117.07,15.86,20.34,37.85,31.11,65.37,32h.1a.7.7,0,0,1,.7.69A.66.66,0,0,1,201.84,520.68Z" transform="translate(-21.81 -4.72)"/><path class="cls-3" d="M228.06,363a.57.57,0,0,1-.22,0,.67.67,0,0,1-.42-.87c2-5.68-.41-8.24-6.74-15.07-1.9-2.05-4.05-4.37-6.54-7.26A45.18,45.18,0,0,0,180.06,324l-.05-.68,0-.69a46.7,46.7,0,0,1,35.15,16.25c2.47,2.87,4.61,5.18,6.5,7.22,6.36,6.86,9.26,10,7,16.45A.69.69,0,0,1,228.06,363Z" transform="translate(-21.81 -4.72)"/><path class="cls-3" d="M222.89,359.45a.68.68,0,0,1-.63-.42.67.67,0,0,1,.36-.89c.63-.27,1.18-.49,1.7-.68a.67.67,0,0,1,.88.4.69.69,0,0,1-.4.88c-.5.18-1,.4-1.64.65A.66.66,0,0,1,222.89,359.45Z" transform="translate(-21.81 -4.72)"/><path class="cls-3" d="M210.86,367.22a.66.66,0,0,1-.5-.22.67.67,0,0,1,0-1,49.39,49.39,0,0,1,12.22-7.9.69.69,0,1,1,.54,1.26,48.68,48.68,0,0,0-11.84,7.65A.66.66,0,0,1,210.86,367.22Z" transform="translate(-21.81 -4.72)"/><path class="cls-3" d="M225.26,364.39a.68.68,0,0,1-.6-.36c-.07-.13-1.65-3.07-2.41-5a.69.69,0,0,1,0-.25.68.68,0,0,1,1.33-.2c.74,1.86,2.31,4.78,2.32,4.81a.68.68,0,0,1-.28.93A.72.72,0,0,1,225.26,364.39Z" transform="translate(-21.81 -4.72)"/><path class="cls-3" d="M157.13,307.78a6.09,6.09,0,0,1-2.82-.72,8.79,8.79,0,0,1-4-4.54,8.62,8.62,0,0,1-.11-6.52,5.7,5.7,0,0,1,3.07-3.14,5.47,5.47,0,0,1,3.21-.25,6,6,0,0,1,3.75,2.69c1,1.49,3.47,4.88,5.86,4.17,2-.6,2.54-5.09,2.35-9.1,0-.72-.08-1.18-.08-1.19a.68.68,0,0,1,1.36-.14s.05.49.09,1.27c.16,3.49-.06,9.5-3.33,10.47s-6-2.57-7.39-4.74a4.7,4.7,0,0,0-2.9-2.1,4.07,4.07,0,0,0-2.4.19,4.3,4.3,0,0,0-2.33,2.4,7.22,7.22,0,0,0,.12,5.47,7.43,7.43,0,0,0,3.37,3.85,4.39,4.39,0,0,0,3.69.27.68.68,0,0,1,.51,1.27A5.28,5.28,0,0,1,157.13,307.78Z" transform="translate(-21.81 -4.72)"/><path class="cls-3" d="M153.27,313.2a.7.7,0,0,1-.37-.11,39,39,0,0,1-8.78-7.6c-11.4-13.67-2-27.3-1.59-27.87a.7.7,0,0,1,.28-.23.68.68,0,0,1,1,.62h0a.71.71,0,0,1-.17.46c-.78,1.12-8.89,13.59,1.57,26.14a37.77,37.77,0,0,0,8.48,7.33.67.67,0,0,1,.19.94A.68.68,0,0,1,153.27,313.2Z" transform="translate(-21.81 -4.72)"/><path class="cls-3" d="M170.44,291.06c-.78,0-1.26,0-1.35,0a.69.69,0,0,1,.1-1.37c.11,0,11.65.73,19.55-6a19.85,19.85,0,0,0,2.49-2.53.67.67,0,0,1,1-.1.69.69,0,0,1,.1,1,20.73,20.73,0,0,1-2.67,2.71C182.85,290.47,173.83,291.06,170.44,291.06Z" transform="translate(-21.81 -4.72)"/><path class="cls-3" d="M170.65,265a.66.66,0,0,1-.4-.13.69.69,0,0,1-.16-.95c5-7,10.39-14.13,16-21.13,5.43-6.75,11.24-13.6,17.26-20.35a622.81,622.81,0,0,1,50-49.74c7.63-6.83,15.62-13.65,23.75-20.27q2.22-1.81,4.47-3.62c8.87-7.13,18.07-14.18,27.35-21a.68.68,0,1,1,.81,1.1c-9.27,6.77-18.45,13.81-27.3,20.93-1.5,1.19-3,2.4-4.47,3.61-8.11,6.61-16.08,13.41-23.7,20.23a621.72,621.72,0,0,0-49.86,49.63c-6,6.74-11.8,13.56-17.22,20.3-5.6,7-11,14.06-15.95,21.06A.7.7,0,0,1,170.65,265Z" transform="translate(-21.81 -4.72)"/><path class="cls-3" d="M129.11,335.57a.67.67,0,0,1-.68-.68h0a.72.72,0,0,1,.06-.29c4.74-10,10-20.06,15.56-29.87a.68.68,0,1,1,1.19.67c-5.56,9.78-10.78,19.79-15.5,29.76A.69.69,0,0,1,129.11,335.57Z" transform="translate(-21.81 -4.72)"/><path class="cls-3" d="M91.87,467.19H91.8a.68.68,0,0,1-.61-.75c.85-9,2.1-18.15,3.69-27.31A394.21,394.21,0,0,1,107.14,389c2-6.34,4.18-12.77,6.52-19.12a.67.67,0,0,1,.65-.48.68.68,0,0,1,.68.69.62.62,0,0,1,0,.23v0c-2.33,6.34-4.52,12.75-6.5,19.07a391.5,391.5,0,0,0-12.21,50c-1.59,9.12-2.83,18.28-3.68,27.2A.69.69,0,0,1,91.87,467.19Z" transform="translate(-21.81 -4.72)"/><path class="cls-3" d="M40.5,519.82h0a.69.69,0,0,1-.64-.72,433.23,433.23,0,0,1,11.42-76.8,444,444,0,0,1,24.43-72.51c3.46-8,7.19-15.9,11.08-23.61,1.42-2.82,2.89-5.66,4.36-8.42,2.57-4.87,5.28-9.8,8.07-14.65a541.15,541.15,0,0,1,71-96.23c6-6.52,12.22-13,18.55-19.33a625.76,625.76,0,0,1,56.57-49.94c5.29-4.14,10.59-8.14,15.74-11.89,2.12-1.55,4.3-3.12,6.48-4.67,14.48-10.26,25.13-16.79,30.18-19.77a.69.69,0,0,1,.7,1.18c-5,3-15.65,9.47-30.09,19.71-2.17,1.54-4.35,3.1-6.47,4.65-5.13,3.74-10.42,7.74-15.7,11.86a626.08,626.08,0,0,0-56.45,49.84c-6.31,6.29-12.54,12.78-18.51,19.28a540.57,540.57,0,0,0-70.78,96c-2.78,4.84-5.49,9.75-8.06,14.61-1.46,2.76-2.92,5.58-4.33,8.39-3.89,7.7-7.6,15.62-11.06,23.55a443.13,443.13,0,0,0-24.36,72.28,433.28,433.28,0,0,0-11.38,76.56A.68.68,0,0,1,40.5,519.82Z" transform="translate(-21.81 -4.72)"/><path class="cls-3" d="M311,125.89l-.12,0a101.47,101.47,0,0,1-13-3.35c-21.5-7.1-36.12-20.39-50.25-33.24-6.09-5.53-12.38-11.25-19.2-16.48-24.65-18.91-37.21-18.12-37.92-18h-.12a.69.69,0,0,1-.69-.69.67.67,0,0,1,.61-.67h.06c1.36-.13,14-.73,38.9,18.33,6.86,5.26,13.17,11,19.28,16.55,14.67,13.34,28.53,25.94,49.76,33a102.46,102.46,0,0,0,12.85,3.31.69.69,0,0,1-.13,1.36Z" transform="translate(-21.81 -4.72)"/><path class="cls-3" d="M311,125.83a.68.68,0,0,1-.68-.62,90.59,90.59,0,0,0-9.79-30.35c-13.37-25.31-43.3-52.82-110-40.12a.68.68,0,1,1-.25-1.34c67.51-12.86,97.87,15.1,111.46,40.82a92.21,92.21,0,0,1,9.94,30.86.69.69,0,0,1-.62.75Z" transform="translate(-21.81 -4.72)"/><path class="cls-3" d="M311,264a.68.68,0,0,1-.57-.31C284.85,225,290.08,182.14,299,153a173.34,173.34,0,0,1,9.72-24.92c1-2.08,1.65-3.2,1.68-3.25a.68.68,0,0,1,1.24.12,217.76,217.76,0,0,1,8.75,34c2.57,15.82,2.62,30.57.15,49.33-3.7,28.13-8.82,54.92-8.87,55.19a.71.71,0,0,1-.54.54Zm-.14-137.09c-.25.48-.55,1.08-.9,1.79a171.47,171.47,0,0,0-9.65,24.72c-8.69,28.46-13.86,70.16,10.34,108.09,1.17-6.29,5.38-29.37,8.55-53.43,2.45-18.62,2.4-33.25-.15-48.93A213.79,213.79,0,0,0,310.82,126.93Z" transform="translate(-21.81 -4.72)"/><path class="cls-3" d="M311,125.87a.68.68,0,0,1-.36-1.27c33-20.26,46.27-50.62,56-72.8.85-1.94,1.68-3.84,2.5-5.67A128.39,128.39,0,0,0,379.79,7.84c-3.33,4.41-8.3,9.11-14.85,15.29a390.77,390.77,0,0,0-32.11,33.35c-8.83,10.44-15.05,24-18.49,40.22a.68.68,0,1,1-1.34-.28c3.49-16.48,9.81-30.21,18.78-40.83A388.36,388.36,0,0,1,364,22.14C371.5,15.05,376.92,9.93,380.08,5a.69.69,0,0,1,1.26.39c0,.18-.7,18.23-11,41.26-.82,1.82-1.64,3.72-2.5,5.66-9.77,22.34-23.16,52.94-56.51,73.41A.66.66,0,0,1,311,125.87Z" transform="translate(-21.81 -4.72)"/><path class="cls-3" d="M311,125.89a.69.69,0,0,1-.68-.63.22.22,0,0,0,0-.08A123.68,123.68,0,0,1,313,96.44a.68.68,0,0,1,1.34.28,122.74,122.74,0,0,0-2.7,28.37s0,.09,0,.11A.69.69,0,0,1,311,125.89Z" transform="translate(-21.81 -4.72)"/><path class="cls-3" d="M313.67,97.25a.67.67,0,0,1-.68-.67v-.12c5.43-39.11-6.7-70.08-9.89-77.36-8,27.1-5.15,55.81-1.34,75.29a.57.57,0,0,1,0,.18.68.68,0,0,1-1.35.15v0h0c-3.93-20-6.8-49.81,1.89-77.7a.7.7,0,0,1,.59-.48.69.69,0,0,1,.67.38c.17.34,17,34.72,10.77,79.77A.69.69,0,0,1,313.67,97.25Z" transform="translate(-21.81 -4.72)"/><path class="cls-3" d="M410.68,152.38c-3.34,0-6.86-.08-10.53-.25-23.49-1.1-58.1-6.57-89.55-26.35a.68.68,0,0,1,.06-1.19l0,0c2.47-1,60.27-23.41,133.58,23.94a.69.69,0,0,1,.3.7.71.71,0,0,1-.54.55A192.69,192.69,0,0,1,410.68,152.38Zm-98.18-27c30.87,19,64.65,24.33,87.67,25.41a210.41,210.41,0,0,0,41.89-2C375,106.12,321.44,122.18,312.5,125.35Z" transform="translate(-21.81 -4.72)"/><path class="cls-3" d="M277.51,153.66a.67.67,0,0,1-.24,0,15,15,0,0,1-10.06-11.94.68.68,0,0,1,.61-.75.68.68,0,0,1,.75.61,13.62,13.62,0,0,0,9.17,10.8.68.68,0,0,1-.23,1.32Z" transform="translate(-21.81 -4.72)"/><path class="cls-3" d="M253.78,173.91a.7.7,0,0,1-.31-.07c-9.67-4.91-8.47-15.67-8.46-15.78a.68.68,0,0,1,.76-.59.67.67,0,0,1,.6.76c-.05.4-1.09,9.93,7.72,14.39a.68.68,0,0,1,.3.92A.69.69,0,0,1,253.78,173.91Z" transform="translate(-21.81 -4.72)"/><path class="cls-3" d="M203.87,223.6l-.22,0c-12.79-4.32-15.05-14.95-15.14-15.4a.68.68,0,0,1,.54-.8.67.67,0,0,1,.8.53c0,.1,2.22,10.31,14.24,14.37a.68.68,0,0,1-.22,1.33Z" transform="translate(-21.81 -4.72)"/><path class="cls-3" d="M186.64,243.92a1,1,0,0,1-.24,0c-14.32-5-16.35-16-16.42-16.43a.68.68,0,0,1,1.34-.24h0c0,.11,2,10.6,15.52,15.37a.69.69,0,0,1,.48.65A.67.67,0,0,1,186.64,243.92Z" transform="translate(-21.81 -4.72)"/><path class="cls-3" d="M126.07,340l-.17,0c-18.11-4.62-26.07-15.49-26.4-15.95a.68.68,0,1,1,1.11-.79c.08.1,8,10.93,25.63,15.41a.69.69,0,0,1-.17,1.35Z" transform="translate(-21.81 -4.72)"/><path class="cls-3" d="M115.5,365.7l-.19,0C92.77,359.12,87,347.28,86.75,346.78a.68.68,0,1,1,1.23-.59c.07.14,5.84,11.81,27.71,18.17a.68.68,0,0,1-.19,1.34Z" transform="translate(-21.81 -4.72)"/><path class="cls-3" d="M107.79,389.87h-.14c-22.05-4.48-31.83-19.27-31.93-19.42a.68.68,0,1,1,1.15-.74c.09.14,9.59,14.46,31.06,18.82a.68.68,0,0,1-.14,1.35Z" transform="translate(-21.81 -4.72)"/><path class="cls-3" d="M72.44,446.13a76.38,76.38,0,0,1-20.74-3,.68.68,0,0,1-.45-.85.69.69,0,0,1,.86-.45c.27.08,26.76,8.18,43.06-3.12a.68.68,0,0,1,.39-.13.69.69,0,0,1,.33,1.29C88.87,444.69,80.22,446.13,72.44,446.13Z" transform="translate(-21.81 -4.72)"/></svg>