<svg id="Layer_1" data-name="Layer 1" xmlns="http://www.w3.org/2000/svg" viewBox="0 0 477.66 519.18"><defs><style>.cls-1{fill:#fff;}.cls-2{fill:#fcb017;}.cls-3{fill:#4a253e;}.cls-4{fill:#3db54a;}.cls-5{fill:#63425c;}</style></defs><path class="cls-1" d="M245.88,89.27a43.35,43.35,0,1,0-43.36-43.36A43.41,43.41,0,0,0,245.88,89.27Z" transform="translate(0.29 -2.24)"/><path class="cls-1" d="M396.79,495.67c-4.5-5.65-11.92-11.74-22.08-18.13-.75.95-3.83,5.45-7,18.13Z" transform="translate(0.29 -2.24)"/><path class="cls-1" d="M329.47,481.07c2.9,1.61,5.78,3.31,8.57,5.06a130.87,130.87,0,0,1,13.45,9.54h15.59c3.12-12.56,6.21-17.28,7.11-18.46-8.57-5.34-16.17-9.06-17.25-9.58Z" transform="translate(0.29 -2.24)"/><path class="cls-1" d="M357.55,502.08h0a66.47,66.47,0,0,0-6.36-5.87,127.84,127.84,0,0,0-13.24-9.42c-.73.94-3.85,5.5-7,18.14H360C359.29,504,358.46,503,357.55,502.08Z" transform="translate(0.29 -2.24)"/><path class="cls-1" d="M279.85,504.93h50.46c3.15-12.72,6.23-17.35,7.1-18.46-2.85-1.78-5.79-3.51-8.75-5.15-2-1.11-5.1-2.78-8.44-4.41l-.05,0-39.94,19.54C280.08,499.71,280,502.6,279.85,504.93Z" transform="translate(0.29 -2.24)"/><path class="cls-1" d="M156.88,359a76.67,76.67,0,0,1-10.65,4.83c.72.8,1.31,1.48,1.85,2.12,2.33-.78,25.54-8.25,51.44-6.83h0c1.92-1,8.7-4.28,18.3-7.95H168.58A68.91,68.91,0,0,1,156.88,359Z" transform="translate(0.29 -2.24)"/><path class="cls-1" d="M201.7,304.51a41.15,41.15,0,0,1,8,5l.18.09,2.66-7.18a40.19,40.19,0,0,0-13.61-7.11c-8.94-2.53-27.37,3.05-34.88,5.57-2.68.9-4.37,1.54-4.39,1.55a.28.28,0,0,1-.13,0c-.16,6.65.83,22.56,12.57,34h0a38.32,38.32,0,0,0,3.9-.9,43.26,43.26,0,0,0,4.65-1.59,37.73,37.73,0,0,0,5.15-2.6l7.62-4.55a.33.33,0,0,1,.32,0,25.4,25.4,0,0,0,8.62,2.92l.07,0,1.83-4.93a56.1,56.1,0,0,0-9.75-5.05.31.31,0,0,1-.18-.4.31.31,0,0,1,.4-.17,57.69,57.69,0,0,1,9.75,5l2.23-6-.89-.8-.07,0a39.57,39.57,0,0,0-8.36-5.4.31.31,0,0,1-.14-.41.31.31,0,0,1,.41-.14,40.78,40.78,0,0,1,8.44,5.43h0l.94.43,2.6-7-.3-.25a40.22,40.22,0,0,0-7.87-5,.31.31,0,0,1-.14-.41A.31.31,0,0,1,201.7,304.51Z" transform="translate(0.29 -2.24)"/><path class="cls-1" d="M197.2,343.85l5-13.48a26,26,0,0,1-8.64-2.9l-7.47,4.47a38.91,38.91,0,0,1-5.23,2.64,45.07,45.07,0,0,1-4.41,1.52c.28.91.75,3.69-1.55,7.75Z" transform="translate(0.29 -2.24)"/><path class="cls-1" d="M169.27,350.49h32.79l27.51-74.63H223l-9.82,26.57v0l-2.84,7.69a0,0,0,0,1,0,0h0l0,.09v0l-2.78,7.52v0h0l-.14.37s0,0,0,0l-2.42,6.57,0,0-7.16,19.39a.3.3,0,0,1-.29.2H174.52A29,29,0,0,1,169.27,350.49Z" transform="translate(0.29 -2.24)"/><path class="cls-1" d="M279.82,482.59c0-2.53.07-5.25.11-8-1.78,1.26-2.79,2.15-2.8,2.16a.31.31,0,0,1-.2.07.29.29,0,0,1-.23-.1.31.31,0,0,1,0-.44s1.23-1.07,3.35-2.54c6.08-4.23,22.14-13.42,39.91-7.64.6.19,1.23.42,1.88.66a.31.31,0,0,1,.17.4.3.3,0,0,1-.39.18q-.74-.28-1.44-.51l.16,5.55c6.4-.15,10.48-5.3,12.11-15.33,3.09-18.94-3.06-51.1-6.74-70.32-.31-1.65-.61-3.21-.89-4.66-2.95-15.72-9.91-27.19-20.67-34.12-24.38-15.7-63.44-4.79-84.55,3.11h0c-9.16,3.43-16,6.64-18.84,8,13.76.89,26,4.16,36.27,9.73,13.06,7.05,23.17,17.84,30.05,32.06,13.15,27.2,13.09,56.33-.15,78a.27.27,0,0,1,.14.14c.16.3,3.91,7.43,12.75,4.77Z" transform="translate(0.29 -2.24)"/><path class="cls-1" d="M356.36,457.4a39.35,39.35,0,0,0-23.32,0c-1.71,10.23-6,15.48-12.66,15.65l.09,3.32h0c3.28,1.6,6.31,3.23,8.33,4.35l27.81-13.61-.1-3.62h0Z" transform="translate(0.29 -2.24)"/><path class="cls-1" d="M280.55,474.18c0,2.88-.08,5.75-.12,8.42l-.16,11.74c0,.6,0,1.07,0,1.39l39.6-19.37-.27-9.71C302.28,461.14,286.62,470,280.55,474.18Z" transform="translate(0.29 -2.24)"/><path class="cls-1" d="M304.91,347.37a.29.29,0,0,1-.26.2c10.82,7,17.82,18.6,20.8,34.41.27,1.46.57,3,.89,4.67,3.65,19.1,9.74,51,6.8,70.06a39.8,39.8,0,0,1,23.61.17c.69.22,1.3.44,1.87.66a.3.3,0,0,1,.18.39.3.3,0,0,1-.29.2.23.23,0,0,1-.11,0c-.44-.17-.92-.34-1.42-.51l.15,5.55a9.84,9.84,0,0,0,7.67-3.7c10.86-13.13,2.31-57.85-2.28-81.88-.32-1.67-.62-3.25-.9-4.73l.28-.13-.3.05c-5.23-27.63-22.3-42.27-50.71-43.54Z" transform="translate(0.29 -2.24)"/><path class="cls-1" d="M202.72,350.49h16.73c21.18-7.92,60.28-18.81,84.88-3.13a.28.28,0,0,1,0-.18l23.53-71.32H230.22Z" transform="translate(0.29 -2.24)"/><path class="cls-1" d="M202.94,236.2h0s0,0,0,0c1.59-4.74,1.22-11.52-1.06-19.63-.17-.59-.4-1.32-.66-2.11-.18-.54-.38-1.11-.58-1.67a.24.24,0,0,1-.14,0c-.13-.06-3.11-1.46-4.49.71a.31.31,0,0,1-.26.14.28.28,0,0,1-.17-.05.31.31,0,0,1-.09-.42c1.35-2.12,3.92-1.44,4.89-1.09-.54-1.5-1-2.84-1.26-3.4a18.74,18.74,0,0,1-9.62.65,5.06,5.06,0,0,1-2.47,3.16,9,9,0,0,1-4.34.94,22.78,22.78,0,0,1-6.14-1c1.57,3.73,5.23,13.15,3.27,15.4a2.19,2.19,0,0,1-1.59.79c-1.55.09-3.37-1.27-4.61-2.43a4.23,4.23,0,0,0-4.31-.93,3.71,3.71,0,0,0-1.36.86,4.24,4.24,0,0,0-1.24,3,6.91,6.91,0,0,0,2.09,4.93,7.4,7.4,0,0,0,3.27,2,5.57,5.57,0,0,0,2.45.16,4,4,0,0,0,2.18-1.09.31.31,0,0,1,.44,0,.32.32,0,0,1,0,.44,4.51,4.51,0,0,1-1,.75.27.27,0,0,1,.18.1c3.34,3.87,9.17,8.24,18,7a13.67,13.67,0,0,0,1.74-.36A10,10,0,0,0,202.94,236.2Z" transform="translate(0.29 -2.24)"/><path class="cls-1" d="M185.33,258c8.92-.22,10.25-11.93,10.43-14.28a13.38,13.38,0,0,1-1.4.27,21.49,21.49,0,0,1-2.93.21,20.61,20.61,0,0,1-15.62-7.46.32.32,0,0,1,0-.35,5.32,5.32,0,0,1-1.15.36,5.78,5.78,0,0,1-.94.07,6.41,6.41,0,0,1-1.49-.19l-1.65,4.49C173.82,248.63,181.16,254.9,185.33,258Z" transform="translate(0.29 -2.24)"/><path class="cls-1" d="M170.2,240.31l1.4-3.81a7.91,7.91,0,0,1-2.66-1.52A18.4,18.4,0,0,0,170.2,240.31Z" transform="translate(0.29 -2.24)"/><path class="cls-1" d="M158.85,209.24a12.56,12.56,0,0,0,3.28-.15.31.31,0,0,1,.36.25.29.29,0,0,1-.24.35,12.25,12.25,0,0,1-2.31.21l-.84,0a17.16,17.16,0,0,0,1.25,8.64l0,.07a38.66,38.66,0,0,0,5.8,9.75,4.75,4.75,0,0,1,1.35-2.68,4.58,4.58,0,0,1,1.57-1,4.85,4.85,0,0,1,5,1.06c1.63,1.52,3.09,2.31,4.15,2.27a1.6,1.6,0,0,0,1.17-.58c1.57-1.8-1.54-10.48-3.62-15.33h0a.33.33,0,0,1,0-.37.32.32,0,0,1,.37-.07c.87.29,7.07,2.23,10.59.27a4.47,4.47,0,0,0,2.25-3.05.32.32,0,0,1,.37-.23s5.32,1.21,9.83-.67a10.69,10.69,0,0,0,2.27-1.29.31.31,0,0,1,.43.06.31.31,0,0,1-.06.43,10.9,10.9,0,0,1-2.13,1.24c.3.79,1.22,3.22,2,5.42,4.05-4.6,5.78-10.2,4.62-15.06a11.62,11.62,0,0,0-7.43-8.32,21.8,21.8,0,0,0-13-.63c-10.52,2.59-17.5,6.1-22,11.06l0,0-.05,0-.05,0h-.18l0,0-.06,0s-4.56-3.89-6.72-2.41a1.11,1.11,0,0,0-.52,1.08c.1,1.46,2.24,3.61,4.87,4.91a.25.25,0,0,1,.14.06,11.55,11.55,0,0,0,2.06.78.31.31,0,0,1,.22.38.32.32,0,0,1-.3.23l-.08,0a12.06,12.06,0,0,1-2.24-.85h0c-2.16-.53-6.56-1.08-7.59.72a1.11,1.11,0,0,0,0,1.15C153.84,208.05,156.2,209,158.85,209.24Z" transform="translate(0.29 -2.24)"/><path class="cls-1" d="M145.78,363.29a75.36,75.36,0,0,0,10.81-4.88,67.38,67.38,0,0,0,11.67-7.84,28.8,28.8,0,0,0,5.83-6.57c2.49-4.11,2-6.93,1.75-7.73q-1.64.45-3.24.75c.31.3.64.6,1,.91a.31.31,0,0,1,0,.44.33.33,0,0,1-.23.1.27.27,0,0,1-.2-.08c-.49-.43-1-.86-1.38-1.27-12.27-11.84-13.13-28.4-12.92-35,0-1.63.15-2.57.16-2.61a.3.3,0,1,1,.6.08s-.09.83-.14,2.22c.39-.14,1.87-.69,4.05-1.42a4.9,4.9,0,0,0-2.16-2.87c-2.22-1.48-7-2.61-17,.39-8.12,2.43-18.46,7.22-30.72,14.23a.42.42,0,0,1-.15,0,.32.32,0,0,1-.27-.16.31.31,0,0,1,.11-.42c11.94-6.82,22.06-11.54,30.11-14.05-5.39-2.33-14.59.43-14.69.46h-.09a.3.3,0,0,1-.29-.22.3.3,0,0,1,.2-.38c.42-.13,10.23-3.06,15.73-.14,9.44-2.81,14.34-2,16.84-.58,0,0,0,0,0-.06,2.37-3.34,3.54-8.9,3.55-8.95a.31.31,0,0,1,.37-.24.31.31,0,0,1,.24.36c0,.23-1.21,5.74-3.66,9.18,0,0,0,0,0,0h0a5.52,5.52,0,0,1,2.38,3.17c9.46-3.15,26.24-7.93,34.92-5.47a40.58,40.58,0,0,1,13.66,7.1l9.76-26.4a.3.3,0,0,1,.28-.2h17.85c-6.7-24.16-33.89-27.57-34.17-27.6h0c-2,9.16-12,17.64-12.1,17.73a.37.37,0,0,1-.2.07.3.3,0,0,1-.23-.11.3.3,0,0,1,0-.43c.11-.09,10.1-8.58,12-17.62a11.66,11.66,0,0,0-2.54-10.39,10.46,10.46,0,0,1-6.94,6.69c-.11,1.77-1.23,14.15-10.29,15,1.4,1,2.31,1.59,2.32,1.6a.31.31,0,0,1,.09.42.28.28,0,0,1-.26.15.33.33,0,0,1-.16,0s-1.24-.78-3-2.13c-4.22-3.16-11.78-9.59-15.11-17.3h0a19.12,19.12,0,0,1-1.65-6.92,7.57,7.57,0,0,1-2.18-5.15,40.23,40.23,0,0,1-6.1-9.92c-4.48,6.21-7,12-7.61,17.3-2.53,23.39,34.67,29.84,35,29.9a.32.32,0,0,1,.26.36.31.31,0,0,1-.31.25h0a75.52,75.52,0,0,1-18.71-6.17c-11.81-5.89-17.64-14.09-16.9-23.72-1.53,1.58-6.5,7.33-4.66,13.81,1,3.35,3.57,6.44,7.77,9.18a.32.32,0,0,1,.09.43.31.31,0,0,1-.26.14.33.33,0,0,1-.16,0c-4.19-2.73-6.85-5.82-7.93-9.19a64,64,0,0,0-19.86,13.82h0c-18.93,19.16-27.32,49.57-27.27,71.32C111.38,338.62,129,344.82,145.78,363.29Z" transform="translate(0.29 -2.24)"/><polygon class="cls-1" points="115.84 451.6 123.91 518.24 167.21 518.24 168.35 508.85 168.35 508.85 175.28 451.6 115.84 451.6"/><path class="cls-1" d="M132.53,453.22c-2.37-30.61-21.17-47.25-26-51,3,5.52,15.18,28.35,22.29,51Z" transform="translate(0.29 -2.24)"/><path class="cls-1" d="M124.43,453.22h3.75c-7.15-22.74-19.35-45.57-22.25-50.85C107.72,440.36,123.24,452.35,124.43,453.22Z" transform="translate(0.29 -2.24)"/><path class="cls-1" d="M153.61,390.1c-1.24,4.85-6.36,26.12-10.88,63.12h5.06C161.86,424.72,155.19,395.92,153.61,390.1Z" transform="translate(0.29 -2.24)"/><path class="cls-1" d="M136.4,453.22h5.71c4.47-36.56,9.51-57.79,10.85-63.05C130.86,416.58,135.86,450,136.4,453.22Z" transform="translate(0.29 -2.24)"/><path class="cls-1" d="M163.71,453.22c23.5-12.38,31.68-34.16,33.2-38.85-4.11,3.18-24.31,19.25-39,38.85Z" transform="translate(0.29 -2.24)"/><path class="cls-1" d="M154,453.22h3.15c14.26-19.17,33.87-35,38.92-39C164.3,423.15,155.09,449.7,154,453.22Z" transform="translate(0.29 -2.24)"/><path class="cls-1" d="M266.5,401.21c-12.47-25.79-35-39.77-66.93-41.52-25.15-1.39-47.77,5.64-51.07,6.72a122,122,0,0,1,8.68,11.7.32.32,0,0,1-.09.43.34.34,0,0,1-.17,0,.3.3,0,0,1-.25-.14,120.08,120.08,0,0,0-8.93-12c-.64-.78-1.34-1.58-2.27-2.61-16.8-18.59-34.51-24.73-46.4-26.6-10.74-1.7-18-.16-18.12-.14a.32.32,0,0,1-.37-.24.3.3,0,0,1,.24-.36c.07,0,7.33-1.55,18,.08,0-21.67,8.28-51.83,26.93-71.11-5,.4-33,4.8-53.92,53.51a210.75,210.75,0,0,0-8.22,23c-13.19,44.24-18.87,104.12,4.71,139.54,11.31,17,28.44,26.84,50.92,29.24h2.6l-6.93-57.25a.36.36,0,0,1,.07-.24.33.33,0,0,1,.23-.1h8.25c-3.3-2.76-16.83-16.25-18.19-52.13v0a.36.36,0,0,1,0-.11l0,0a.27.27,0,0,1,.11-.1h0a.32.32,0,0,1,.14,0h0l.12,0h0c.25.17,24.69,17.08,27.41,52.4h2.63c-.64-3.87-5.46-38,17.57-64.47h0a.31.31,0,0,1,.09-.07h.2a.23.23,0,0,1,.12.06l0,0a.21.21,0,0,1,.06.1s0,0,0,0c.11.32,10.19,32.48-5.4,64.37h4.88c.85-2.84,10.17-31.27,44-40h.14l0,0a.19.19,0,0,1,.09.05h0v0a0,0,0,0,1,0,0,.16.16,0,0,1,.05.09h0a.65.65,0,0,1,0,.14s0,0,0,0A70.83,70.83,0,0,1,165,453.22h10.33a.34.34,0,0,1,.23.1.36.36,0,0,1,.07.24l-6.93,57.25h30.87c30.26,0,53.93-11.35,66.66-32C279.52,457.35,279.61,428.33,266.5,401.21Z" transform="translate(0.29 -2.24)"/><path class="cls-1" d="M279.83,505.54c-.11,2.7-.18,4.56-.2,5.27h84.08a26.53,26.53,0,0,0-3.2-5.27Z" transform="translate(0.29 -2.24)"/><path class="cls-1" d="M357.89,501.56h42.59a26.1,26.1,0,0,0-3.21-5.28h-45A67.47,67.47,0,0,1,357.89,501.56Z" transform="translate(0.29 -2.24)"/><circle class="cls-2" cx="431.91" cy="262.89" r="45.75"/><path class="cls-3" d="M358.1,103.61a.64.64,0,0,1-.2,0c-.58-.2-1.18-.39-1.77-.56a.63.63,0,0,1-.43-.78.64.64,0,0,1,.78-.43c.61.18,1.22.37,1.83.58a.63.63,0,0,1-.21,1.22Z" transform="translate(0.29 -2.24)"/><path class="cls-3" d="M347,177.91a.62.62,0,0,1-.63-.6.63.63,0,0,1,.61-.65c1.23,0,2.48-.15,3.7-.31a.63.63,0,0,1,.16,1.24,37.35,37.35,0,0,1-3.82.32Zm-7.52-.48h-.11c-1.26-.21-2.52-.48-3.75-.81a.62.62,0,0,1-.44-.76.63.63,0,0,1,.77-.45c1.19.32,2.41.58,3.63.78a.63.63,0,0,1,.52.72A.64.64,0,0,1,339.46,177.43Zm18.62-1.57a.63.63,0,0,1-.21-1.22c1.17-.4,2.33-.87,3.45-1.38a.63.63,0,1,1,.52,1.14c-1.16.53-2.35,1-3.56,1.43A.69.69,0,0,1,358.08,175.86ZM328.71,174a.71.71,0,0,1-.28-.06c-1.14-.57-2.27-1.2-3.35-1.87a.63.63,0,1,1,.67-1.07c1,.65,2.13,1.26,3.24,1.81a.62.62,0,0,1,.28.84A.63.63,0,0,1,328.71,174Zm39.38-3.33a.62.62,0,0,1-.51-.26.63.63,0,0,1,.14-.88c1-.72,2-1.51,2.89-2.33a.63.63,0,0,1,.84.94c-1,.85-2,1.66-3,2.41A.68.68,0,0,1,368.09,170.65Zm-48.64-3.12a.59.59,0,0,1-.43-.17c-.93-.87-1.82-1.8-2.66-2.76a.63.63,0,0,1,.95-.83c.81.93,1.67,1.83,2.57,2.68a.62.62,0,0,1-.43,1.08Zm56.69-4.78a.7.7,0,0,1-.38-.13.63.63,0,0,1-.12-.88,36.89,36.89,0,0,0,2.09-3.07.62.62,0,0,1,.86-.21.63.63,0,0,1,.21.87c-.66,1.08-1.39,2.15-2.16,3.17A.63.63,0,0,1,376.14,162.75Zm-63.67-4.08a.65.65,0,0,1-.55-.32c-.63-1.11-1.22-2.26-1.74-3.42a.63.63,0,1,1,1.15-.51c.51,1.12,1.07,2.23,1.68,3.31a.63.63,0,0,1-.54.94Zm69.07-5.83a.85.85,0,0,1-.22,0A.63.63,0,0,1,381,152c.42-1.16.79-2.35,1.09-3.54a.63.63,0,1,1,1.22.31c-.32,1.23-.7,2.47-1.13,3.66A.63.63,0,0,1,381.54,152.84Zm-73.16-4.69a.64.64,0,0,1-.62-.49,37.8,37.8,0,0,1-.65-3.78.63.63,0,1,1,1.24-.16c.15,1.23.37,2.46.64,3.66a.62.62,0,0,1-.48.75Zm75.41-6.37h0a.64.64,0,0,1-.6-.67c0-.68.06-1.37.06-2.06s0-1.1,0-1.65a.63.63,0,1,1,1.26-.05c0,.56,0,1.14,0,1.7s0,1.42-.06,2.13A.63.63,0,0,1,383.79,141.78Zm-76.23-4.89h-.05a.63.63,0,0,1-.58-.67c0-.42.07-.84.11-1.26.09-.85.21-1.71.36-2.55a.63.63,0,1,1,1.24.22c-.14.81-.26,1.64-.35,2.46,0,.41-.08.81-.11,1.22A.62.62,0,0,1,307.56,136.89Zm75.17-6.35a.63.63,0,0,1-.61-.48,33.72,33.72,0,0,0-1.07-3.55.64.64,0,0,1,.38-.81.65.65,0,0,1,.81.38c.42,1.2.8,2.44,1.1,3.68a.62.62,0,0,1-.46.76ZM310,125.88a.62.62,0,0,1-.23,0,.64.64,0,0,1-.36-.81,38,38,0,0,1,1.57-3.51.62.62,0,0,1,.84-.27.62.62,0,0,1,.28.84c-.56,1.1-1.07,2.24-1.52,3.39A.61.61,0,0,1,310,125.88Zm68.38-5.77a.63.63,0,0,1-.54-.31c-.63-1-1.33-2.09-2.06-3.08a.63.63,0,0,1,1-.75,36.11,36.11,0,0,1,2.13,3.19.63.63,0,0,1-.54,1Zm-62.78-4a.59.59,0,0,1-.39-.14.62.62,0,0,1-.1-.88,38.33,38.33,0,0,1,2.52-2.89.63.63,0,0,1,.9.87c-.85.89-1.67,1.83-2.44,2.8A.6.6,0,0,1,315.64,116.09Zm8.22-7.73a.66.66,0,0,1-.52-.27.65.65,0,0,1,.16-.88c1.05-.73,2.14-1.41,3.25-2a.63.63,0,0,1,.62,1.1c-1.08.6-2.14,1.26-3.15,2A.62.62,0,0,1,323.86,108.36Zm10.12-5a.63.63,0,0,1-.2-1.23c1.22-.39,2.46-.72,3.71-1a.64.64,0,0,1,.75.49.63.63,0,0,1-.49.74,37.05,37.05,0,0,0-3.58,1Zm14.91-1.68h-.06c-1.23-.1-2.48-.15-3.71-.13a.65.65,0,0,1-.63-.63.62.62,0,0,1,.62-.63,37.82,37.82,0,0,1,3.83.14.62.62,0,0,1,.57.68A.61.61,0,0,1,348.89,101.67Z" transform="translate(0.29 -2.24)"/><path class="cls-3" d="M371.21,111.35a.67.67,0,0,1-.42-.16c-.46-.42-.93-.82-1.41-1.21a.63.63,0,0,1,.8-1c.49.41,1,.83,1.45,1.25a.63.63,0,0,1,.05.89A.64.64,0,0,1,371.21,111.35Z" transform="translate(0.29 -2.24)"/><path class="cls-3" d="M363.86,113.7a7.32,7.32,0,1,1,1.42-.14h0A7.76,7.76,0,0,1,363.86,113.7Zm1.29-.76h0Zm-1.29-12.62a6.62,6.62,0,0,0-1.17.11,6.08,6.08,0,1,0,1.17-.11Z" transform="translate(0.29 -2.24)"/><circle class="cls-4" cx="16.23" cy="225.52" r="16.52" transform="translate(-146.69 66.81) rotate(-42.09)"/><path class="cls-3" d="M94.49,276.78h0c-1.26,0-2.53,0-3.8-.09a.63.63,0,0,1-.59-.66.62.62,0,0,1,.65-.6c1.25.06,2.51.09,3.74.09a.63.63,0,0,1,.63.63A.63.63,0,0,1,94.49,276.78Zm7.53-.36a.63.63,0,0,1-.06-1.25c1.24-.12,2.49-.27,3.72-.45a.63.63,0,1,1,.18,1.24c-1.25.19-2.52.34-3.78.46ZM83.22,276h-.09c-1.25-.18-2.51-.39-3.75-.63a.63.63,0,0,1-.49-.74.62.62,0,0,1,.73-.5c1.22.24,2.46.45,3.69.63a.63.63,0,0,1,.53.71A.62.62,0,0,1,83.22,276Zm29.94-1.44a.63.63,0,0,1-.15-1.24c1.21-.3,2.42-.63,3.61-1a.63.63,0,0,1,.78.42.63.63,0,0,1-.42.79c-1.21.36-2.44.7-3.67,1Zm-41-1-.18,0c-1.21-.36-2.43-.76-3.62-1.18a.63.63,0,0,1,.42-1.19c1.17.42,2.37.81,3.56,1.17a.63.63,0,0,1-.18,1.23ZM123.9,271a.63.63,0,0,1-.23-1.21c1.14-.47,2.29-1,3.41-1.5a.63.63,0,1,1,.54,1.14c-1.15.54-2.32,1.05-3.48,1.53A.64.64,0,0,1,123.9,271Zm-62.29-1.52a.48.48,0,0,1-.26-.06c-1.15-.53-2.29-1.1-3.41-1.69a.63.63,0,0,1-.26-.85.62.62,0,0,1,.85-.26c1.1.58,2.22,1.14,3.35,1.67a.62.62,0,0,1-.27,1.19ZM134,266a.63.63,0,0,1-.54-.31.63.63,0,0,1,.22-.86c1.07-.63,2.13-1.3,3.17-2a.63.63,0,1,1,.69,1.05c-1.05.69-2.13,1.37-3.22,2A.62.62,0,0,1,134,266Zm-82.26-2a.53.53,0,0,1-.34-.11c-1.06-.69-2.11-1.42-3.12-2.17a.64.64,0,0,1-.14-.88.63.63,0,0,1,.88-.13c1,.73,2,1.45,3.07,2.14a.63.63,0,0,1-.35,1.15Zm91.53-4.45a.63.63,0,0,1-.39-1.11c1-.78,1.92-1.6,2.85-2.43a.63.63,0,0,1,.83.94c-.94.84-1.91,1.67-2.89,2.46A.61.61,0,0,1,143.28,259.5ZM42.8,257a.61.61,0,0,1-.42-.16c-.94-.84-1.87-1.72-2.77-2.61a.62.62,0,0,1,0-.88.63.63,0,0,1,.89,0c.88.87,1.8,1.73,2.72,2.56a.63.63,0,0,1,.05.89A.61.61,0,0,1,42.8,257Zm108.73-5.27a.6.6,0,0,1-.43-.17.62.62,0,0,1,0-.88c.84-.92,1.67-1.86,2.46-2.82a.63.63,0,0,1,.89-.07.62.62,0,0,1,.08.88c-.81,1-1.65,1.93-2.51,2.86A.63.63,0,0,1,151.53,251.77ZM35,248.91a.62.62,0,0,1-.48-.23c-.81-1-1.61-2-2.37-3a.63.63,0,0,1,.13-.88.64.64,0,0,1,.88.13c.75,1,1.53,2,2.32,2.93a.61.61,0,0,1-.08.88A.6.6,0,0,1,35,248.91Zm123.62-6a.65.65,0,0,1-.36-.1.64.64,0,0,1-.16-.88c.7-1,1.38-2.08,2-3.14a.63.63,0,1,1,1.07.66c-.66,1.07-1.35,2.15-2.06,3.19A.63.63,0,0,1,158.57,242.92ZM28.36,239.73a.65.65,0,0,1-.54-.3L27,238.06a.63.63,0,0,1,.23-.86.62.62,0,0,1,.86.22c.26.45.53.9.8,1.35a.63.63,0,0,1-.2.86A.6.6,0,0,1,28.36,239.73Zm135.88-6.58a.54.54,0,0,1-.27-.07.63.63,0,0,1-.29-.84c.54-1.11,1.07-2.26,1.56-3.41a.63.63,0,1,1,1.15.5c-.5,1.16-1,2.33-1.58,3.46A.62.62,0,0,1,164.24,233.15Zm4.19-10.51-.19,0a.63.63,0,0,1-.41-.79c.38-1.18.73-2.39,1-3.59a.63.63,0,0,1,.77-.45.63.63,0,0,1,.45.77c-.32,1.22-.68,2.45-1.06,3.65A.62.62,0,0,1,168.43,222.64Zm2.61-11h-.1a.62.62,0,0,1-.52-.72c.19-1.23.36-2.48.5-3.71a.63.63,0,1,1,1.25.14c-.14,1.25-.31,2.52-.51,3.76A.63.63,0,0,1,171,211.64Zm-153.69-4.5a.62.62,0,0,1-.62-.56c-.13-1.26-.23-2.53-.29-3.8a.63.63,0,0,1,.59-.66.64.64,0,0,1,.66.6c.07,1.24.16,2.5.29,3.73a.64.64,0,0,1-.56.69ZM172,200.38h0a.63.63,0,0,1-.62-.63c0-.4,0-.8,0-1.2,0-.85,0-1.7,0-2.54a.63.63,0,0,1,1.25,0c0,.86,0,1.73,0,2.59,0,.41,0,.81,0,1.22A.63.63,0,0,1,172,200.38ZM17,195.84h0a.63.63,0,0,1-.6-.66l0-.53c.06-1.09.14-2.18.24-3.26a.63.63,0,1,1,1.25.12c-.1,1.06-.18,2.13-.23,3.21l0,.52A.62.62,0,0,1,17,195.84Zm154.33-6.74a.63.63,0,0,1-.62-.55c-.16-1.23-.35-2.47-.58-3.69a.63.63,0,0,1,.51-.73.63.63,0,0,1,.73.51c.23,1.23.42,2.5.59,3.75a.64.64,0,0,1-.55.71Zm-153-4.48-.12,0a.62.62,0,0,1-.5-.73c.23-1.24.5-2.49.8-3.72a.63.63,0,0,1,.76-.46.63.63,0,0,1,.46.76c-.29,1.2-.55,2.43-.79,3.65A.63.63,0,0,1,18.35,184.62ZM169.09,178a.62.62,0,0,1-.6-.45c-.34-1.2-.72-2.4-1.12-3.58a.63.63,0,0,1,1.2-.4c.4,1.2.78,2.42,1.12,3.63a.62.62,0,0,1-.43.78ZM21.27,173.7a.52.52,0,0,1-.21,0,.62.62,0,0,1-.38-.8c.41-1.19.86-2.39,1.34-3.56a.63.63,0,1,1,1.16.47c-.46,1.15-.91,2.33-1.32,3.51A.62.62,0,0,1,21.27,173.7Zm143.94-6.28a.62.62,0,0,1-.57-.37c-.51-1.13-1.06-2.27-1.62-3.37a.62.62,0,0,1,.27-.84.63.63,0,0,1,.85.27c.57,1.12,1.12,2.27,1.64,3.42a.62.62,0,0,1-.31.83A.62.62,0,0,1,165.21,167.42Zm-139.44-4.1a.66.66,0,0,1-.3-.07.64.64,0,0,1-.26-.85c.59-1.12,1.21-2.24,1.85-3.33a.63.63,0,1,1,1.08.64c-.63,1.07-1.24,2.17-1.82,3.27A.61.61,0,0,1,25.77,163.32Zm134.06-5.83a.64.64,0,0,1-.53-.29c-.67-1-1.37-2.09-2.09-3.1a.63.63,0,0,1,.14-.88.64.64,0,0,1,.88.15c.73,1,1.45,2.09,2.13,3.15a.64.64,0,0,1-.19.87A.74.74,0,0,1,159.83,157.49Zm-128.1-3.78a.63.63,0,0,1-.37-.12.64.64,0,0,1-.14-.88c.75-1,1.52-2,2.31-3a.64.64,0,0,1,.89-.1.63.63,0,0,1,.09.89c-.77,1-1.54,2-2.27,3A.63.63,0,0,1,31.73,153.71Zm121.33-5.27a.66.66,0,0,1-.48-.22c-.81-.94-1.66-1.87-2.52-2.76a.63.63,0,1,1,.91-.87c.87.91,1.74,1.85,2.56,2.81a.62.62,0,0,1-.06.88A.61.61,0,0,1,153.06,148.44ZM39,145.07a.62.62,0,0,1-.44-.18.61.61,0,0,1,0-.88c.88-.91,1.79-1.8,2.72-2.66a.64.64,0,0,1,.89,0,.63.63,0,0,1,0,.89c-.91.85-1.81,1.73-2.67,2.61A.63.63,0,0,1,39,145.07Zm106-4.61a.63.63,0,0,1-.41-.15c-.94-.81-1.91-1.61-2.89-2.38a.61.61,0,0,1-.11-.88.63.63,0,0,1,.88-.11c1,.78,2,1.59,2.94,2.41a.64.64,0,0,1,.07.89A.66.66,0,0,1,145.05,140.46Zm-97.56-2.88a.63.63,0,0,1-.38-1.13c1-.76,2-1.51,3.08-2.23a.63.63,0,0,1,.71,1c-1,.7-2,1.44-3,2.19A.6.6,0,0,1,47.49,137.58ZM136,133.72a.69.69,0,0,1-.34-.09c-1-.67-2.13-1.32-3.21-1.93a.63.63,0,0,1-.23-.86.62.62,0,0,1,.85-.24c1.1.63,2.2,1.29,3.27,2a.63.63,0,0,1,.19.87A.62.62,0,0,1,136,133.72ZM57,131.4a.63.63,0,0,1-.31-1.18c1.11-.61,2.24-1.2,3.37-1.76a.63.63,0,1,1,.55,1.13c-1.11.55-2.22,1.13-3.31,1.73A.64.64,0,0,1,57,131.4Zm69.05-3a.56.56,0,0,1-.25,0c-1.14-.51-2.3-1-3.46-1.44a.63.63,0,0,1,.45-1.17c1.18.45,2.36,1,3.52,1.46a.63.63,0,0,1,.32.83A.65.65,0,0,1,126,128.38Zm-58.8-1.72a.65.65,0,0,1-.59-.41.63.63,0,0,1,.37-.81c1.18-.45,2.38-.87,3.58-1.25a.62.62,0,0,1,.79.4.63.63,0,0,1-.4.8c-1.18.38-2.37.79-3.53,1.22A.54.54,0,0,1,67.2,126.66Zm48.16-2.1a.51.51,0,0,1-.17,0c-1.19-.33-2.41-.64-3.63-.91a.63.63,0,0,1-.47-.75.64.64,0,0,1,.75-.48c1.23.28,2.47.59,3.69.93a.63.63,0,0,1-.17,1.24ZM78,123.46a.62.62,0,0,1-.61-.49.63.63,0,0,1,.48-.75c1.23-.27,2.49-.51,3.73-.71a.63.63,0,0,1,.73.51.65.65,0,0,1-.52.73c-1.23.2-2.46.43-3.67.7Zm26.25-1.13h-.08c-1.23-.16-2.48-.29-3.72-.38a.64.64,0,0,1-.58-.68.65.65,0,0,1,.68-.58c1.26.1,2.53.23,3.78.39a.63.63,0,0,1-.08,1.25Zm-15.06-.44a.63.63,0,0,1-.62-.59.62.62,0,0,1,.58-.67c1.26-.08,2.54-.14,3.8-.16a.63.63,0,0,1,0,1.26c-1.24,0-2.5.07-3.73.15Z" transform="translate(0.29 -2.24)"/><path class="cls-3" d="M20.79,239.82c-.29,0-.59,0-.89,0a17.27,17.27,0,1,1,.89,0Zm0-33a15.88,15.88,0,1,0,.82,0Z" transform="translate(0.29 -2.24)"/><path class="cls-2" d="M420.2,179.57v8.9h-16v-8.9a7.14,7.14,0,0,1,7.14-7.14h1.75A7.14,7.14,0,0,1,420.2,179.57Z" transform="translate(0.29 -2.24)"/><path class="cls-2" d="M412.18,160.71a4.56,4.56,0,1,1-4.55,4.55A4.55,4.55,0,0,1,412.18,160.71Z" transform="translate(0.29 -2.24)"/><path class="cls-4" d="M404.42,327.1a19.81,19.81,0,1,1-13.11-5A19.74,19.74,0,0,1,404.42,327.1Z" transform="translate(0.29 -2.24)"/><path class="cls-5" d="M400.94,501.87H357.76a67.31,67.31,0,0,0-6.38-5.89h46.05A25,25,0,0,1,400.94,501.87Z" transform="translate(0.29 -2.24)"/><path class="cls-4" d="M376.81,228.91v20a7.57,7.57,0,0,1-7.55,7.54H332.44a7.28,7.28,0,0,0-3.53.91l-17.29,9.43,3.93-9a1,1,0,0,0-.89-1.36H307.6a7.56,7.56,0,0,1-7.54-7.54v-20a7.56,7.56,0,0,1,7.54-7.54h61.66A7.57,7.57,0,0,1,376.81,228.91Zm-15.75,9.84a4.68,4.68,0,1,0-4.67,4.68A4.67,4.67,0,0,0,361.06,238.75Zm-17.95,0a4.68,4.68,0,1,0-4.68,4.68A4.68,4.68,0,0,0,343.11,238.75Zm-18,0a4.68,4.68,0,1,0-4.67,4.68A4.68,4.68,0,0,0,325.15,238.75Z" transform="translate(0.29 -2.24)"/><path class="cls-4" d="M374.64,477.14c-.18.2-3.72,4.25-7.32,18.84H351.38a129.55,129.55,0,0,0-13.5-9.59c-3.27-2-6.38-3.85-9.07-5.34l28.13-13.76A193.7,193.7,0,0,1,374.64,477.14Z" transform="translate(0.29 -2.24)"/><path class="cls-5" d="M364.17,511.12H279.31s.07-2.21.22-5.89h81.13A26.13,26.13,0,0,1,364.17,511.12Z" transform="translate(0.29 -2.24)"/><path class="cls-1" d="M356.39,234.08a4.68,4.68,0,1,1-4.68,4.67A4.67,4.67,0,0,1,356.39,234.08Z" transform="translate(0.29 -2.24)"/><path class="cls-1" d="M338.43,234.08a4.68,4.68,0,1,1-4.67,4.67A4.68,4.68,0,0,1,338.43,234.08Z" transform="translate(0.29 -2.24)"/><path class="cls-4" d="M337.88,486.39s-3.64,3.87-7.33,18.84h-51c.1-2.43.24-5.51.41-9h0l40.23-19.68h0c.17.08,3.67,1.75,8.64,4.5C331.5,482.54,334.61,484.35,337.88,486.39Z" transform="translate(0.29 -2.24)"/><path class="cls-5" d="M328.27,275.55,310.68,328.9l-6.06,18.38-.29.44c-24-15.48-61.81-5.53-84.82,3.08H202.28L230,275.55h98.26Zm-55,36.61c1-3.91.29-7.48-1.6-8s-4.27,2.28-5.28,6.18-.29,7.48,1.6,8S272.24,316.06,273.25,312.16Z" transform="translate(0.29 -2.24)"/><path class="cls-1" d="M320.48,234.08a4.68,4.68,0,1,1-4.68,4.67A4.68,4.68,0,0,1,320.48,234.08Z" transform="translate(0.29 -2.24)"/><path class="cls-1" d="M277.66,16.88a43,43,0,1,1-31.78-14A42.86,42.86,0,0,1,277.66,16.88Zm7,29a38.75,38.75,0,1,0-38.75,38.75A38.79,38.79,0,0,0,284.63,45.91Z" transform="translate(0.29 -2.24)"/><path class="cls-4" d="M245.88,7.17a38.75,38.75,0,1,0,38.75,38.74A38.79,38.79,0,0,0,245.88,7.17ZM213.64,48.43a2.53,2.53,0,1,1,2.53-2.52A2.52,2.52,0,0,1,213.64,48.43Zm32.24-37.29a2.53,2.53,0,1,1-2.53,2.53A2.53,2.53,0,0,1,245.88,11.14Zm0,69.54a2.53,2.53,0,1,1,2.53-2.53A2.53,2.53,0,0,1,245.88,80.68Zm0-29.34a5.38,5.38,0,0,1-3.27-1.09l-19.3,12.13a1.54,1.54,0,1,1-1.64-2.61l19.11-12a5.09,5.09,0,0,1-.33-1.84,5.4,5.4,0,0,1,2.77-4.72V26.12a2.67,2.67,0,0,1,5.33,0V41.19a5.42,5.42,0,0,1-2.67,10.15Zm32.25-3a2.49,2.49,0,1,1,2.48-2.48A2.48,2.48,0,0,1,278.13,48.39Z" transform="translate(0.29 -2.24)"/><path class="cls-4" d="M148,366.26h0s24.13-8.4,51.6-6.88c24.76,1.36,52.25,10.79,67.19,41.69,13,27,13.07,56.33-.28,77.94-11.78,19.08-34,32.11-66.92,32.11H168.36l7-57.59H163.79c26.8-14.08,33.7-40,33.7-40-35.73,9.18-43.9,40-43.9,40H148c16-32.3,5.6-64.59,5.6-64.59-24.53,28.21-17.45,64.59-17.45,64.59h-3.27c-2.63-35.78-27.3-52.46-27.3-52.46,1.56,41,18.77,52.46,18.77,52.46H115.2l7,57.59h-3C38.81,502.53,45.43,401.9,63.31,342a213.67,213.67,0,0,1,8.22-23.08c22.91-53.25,54.39-53.73,55-53.74-20.09,20.32-27.48,52-27.37,71.81,12.6,2,30,8.38,46.58,26.71C146.46,364.5,147.23,365.36,148,366.26Z" transform="translate(0.29 -2.24)"/><path class="cls-1" d="M243.22,41.19a5.3,5.3,0,0,1,2.66-.7,5.43,5.43,0,1,1-5.1,7.26,5.09,5.09,0,0,1-.33-1.84A5.4,5.4,0,0,1,243.22,41.19Z" transform="translate(0.29 -2.24)"/><path class="cls-2" d="M152.1,236.56c.54-5.12,3-11.05,8-17.9a39,39,0,0,0,6.33,10.43h0a7.27,7.27,0,0,0,2.17,5.15,18.63,18.63,0,0,0,1.63,6.92c3.29,7.64,10.79,14,15,17.18,10.38-.15,10.86-15,10.86-15a10.28,10.28,0,0,0,7.14-7.06,12,12,0,0,1,2.94,11h.31s27.89,3.2,34.53,28.2H222.76l-9.9,26.8a40.19,40.19,0,0,0-13.88-7.3c-8.9-2.52-26.79,2.79-35.07,5.57-2.71.91-4.4,1.55-4.4,1.55h-.32c-.19,6.32.6,22.94,12.83,34.74l.1-.09a39.35,39.35,0,0,0,3.92-.91s1.41,3.16-1.69,8.26a29,29,0,0,1-5.88,6.64,67.78,67.78,0,0,1-11.73,7.88,75.68,75.68,0,0,1-11,5c-16.56-18.33-34-24.72-46.58-26.71-.11-19.77,7.28-51.49,27.37-71.81h0a64.19,64.19,0,0,1,20.27-14c-2.22-7.88,5.19-14.56,5.19-14.56Z" transform="translate(0.29 -2.24)"/><path class="cls-2" d="M202.28,350.8H219.5a208.38,208.38,0,0,0-19.91,8.58c-27.47-1.52-51.6,6.88-51.6,6.88h0c-.75-.9-1.52-1.76-2.28-2.61a75.68,75.68,0,0,0,11-5,67.78,67.78,0,0,0,11.73-7.88Z" transform="translate(0.29 -2.24)"/><path class="cls-2" d="M202.58,330.18l-5.17,14H174.35c3.1-5.1,1.69-8.26,1.69-8.26a45.2,45.2,0,0,0,4.69-1.61,38.75,38.75,0,0,0,5.19-2.61l7.62-4.56a25.57,25.57,0,0,0,8.74,2.95Z" transform="translate(0.29 -2.24)"/><path class="cls-5" d="M199.31,208.23c-4.66,1.94-10,.69-10,.69-1.65,7-12.94,3.11-13.28,3,.15.34,5.75,13.21,3.59,15.69-1.55,1.78-4.28-.29-5.76-1.66a4.53,4.53,0,0,0-4.63-1,4.31,4.31,0,0,0-1.47.93,4.58,4.58,0,0,0-1.32,3.22h0a39,39,0,0,1-6.33-10.43,17.51,17.51,0,0,1-1.25-9.11c-3.68-.3-6.92-2-5.82-3.94,1.39-2.42,7.53-1,8-.85-3.64-1.79-6.4-5.16-4.41-6.53,2.38-1.64,7.09,2.42,7.09,2.42,4.24-4.69,11-8.42,22.13-11.15a22.28,22.28,0,0,1,13.18.64c9.23,3.51,10.89,15.14,2.68,24.16l-.12,0C200.59,211.57,199.31,208.23,199.31,208.23Z" transform="translate(0.29 -2.24)"/><path class="cls-5" d="M200.34,216.77c.36,1.19.1,2.32-.58,2.52s-1.53-.58-1.89-1.77-.09-2.32.59-2.52S200,215.58,200.34,216.77Z" transform="translate(0.29 -2.24)"/><path class="cls-5" d="M197.49,413.54s-6.9,25.91-33.7,40h-6.48C173.88,431.19,197.49,413.54,197.49,413.54Z" transform="translate(0.29 -2.24)"/><path class="cls-5" d="M188.63,220.31c.36,1.19.1,2.31-.59,2.52s-1.53-.58-1.89-1.77-.09-2.31.6-2.52S188.27,219.12,188.63,220.31Z" transform="translate(0.29 -2.24)"/><polygon class="cls-5" points="175.63 451.29 168.66 508.88 167.49 518.55 123.63 518.55 122.46 508.88 115.49 451.29 124.63 451.29 128.89 451.29 133.16 451.29 136.43 451.29 142.67 451.29 148.28 451.29 153.88 451.29 157.6 451.29 164.08 451.29 175.63 451.29"/><path class="cls-5" d="M153.59,388.94S164,421.23,148,453.53h-5.61C147.62,410.53,153.59,388.94,153.59,388.94Z" transform="translate(0.29 -2.24)"/><path class="cls-5" d="M132.87,453.53H128.6c-8.2-26.27-23-52.46-23-52.46S130.24,417.75,132.87,453.53Z" transform="translate(0.29 -2.24)"/><path class="cls-4" d="M129.49,154.77v49.95a2.46,2.46,0,0,1-2.46,2.45H66.35a2.45,2.45,0,0,1-2.45-2.45V144a2.46,2.46,0,0,1,2.45-2.46H127a2.46,2.46,0,0,1,2.46,2.46Zm-8.43,36.36s4.7-23.39-3.77-26.08c-10.33-3.28-23.94,20.5-23.94,20.5s-3-18.21-22.47,5.58ZM92.43,162.59a6.56,6.56,0,1,0-6.56,6.56A6.56,6.56,0,0,0,92.43,162.59Z" transform="translate(0.29 -2.24)"/><path class="cls-5" d="M117.29,165.05c8.47,2.69,3.77,26.08,3.77,26.08H70.88c19.51-23.79,22.47-5.58,22.47-5.58S107,161.77,117.29,165.05Z" transform="translate(0.29 -2.24)"/><polygon class="cls-5" points="115.32 229.64 115.32 246.75 98.21 246.75 98.21 238.2 106.77 238.2 106.77 229.64 115.32 229.64"/><path class="cls-5" d="M175.66,236.14s4.75,15.1,19.23,13.71l1.2-6.49s-11.05,4.21-20-7.4Z" transform="translate(0.29 -2.24)"/><polygon class="cls-2" points="168.88 232 170.51 238.93 172.29 234.07 168.88 232"/><path class="cls-2" d="M320.07,238.75a4.35,4.35,0,1,1,4.35,4.35A4.35,4.35,0,0,1,320.07,238.75Z" transform="translate(0.29 -2.24)"/><path class="cls-2" d="M338,238.75a4.35,4.35,0,1,1,4.35,4.35A4.35,4.35,0,0,1,338,238.75Z" transform="translate(0.29 -2.24)"/><path class="cls-2" d="M356,238.75a4.35,4.35,0,1,1,4.35,4.35A4.35,4.35,0,0,1,356,238.75Z" transform="translate(0.29 -2.24)"/><polygon class="cls-1" points="152.26 160.29 142.22 177.67 162.3 177.67 152.26 160.29"/><path class="cls-5" d="M176.08,148.47a1.73,1.73,0,1,1,1.72,1.72A1.73,1.73,0,0,1,176.08,148.47Z" transform="translate(0.29 -2.24)"/><path class="cls-5" d="M176.08,163.59a1.73,1.73,0,1,1,1.72,1.73A1.72,1.72,0,0,1,176.08,163.59Z" transform="translate(0.29 -2.24)"/><path class="cls-5" d="M176.08,156a1.73,1.73,0,1,1,1.72,1.72A1.72,1.72,0,0,1,176.08,156Z" transform="translate(0.29 -2.24)"/><path class="cls-5" d="M192.85,148.47a1.73,1.73,0,1,1,1.72,1.72A1.73,1.73,0,0,1,192.85,148.47Z" transform="translate(0.29 -2.24)"/><path class="cls-5" d="M192.85,163.59a1.73,1.73,0,1,1,1.72,1.73A1.72,1.72,0,0,1,192.85,163.59Z" transform="translate(0.29 -2.24)"/><path class="cls-5" d="M192.85,156a1.73,1.73,0,1,1,1.72,1.72A1.72,1.72,0,0,1,192.85,156Z" transform="translate(0.29 -2.24)"/><path class="cls-5" d="M184.47,148.47a1.72,1.72,0,1,1,1.72,1.72A1.73,1.73,0,0,1,184.47,148.47Z" transform="translate(0.29 -2.24)"/><path class="cls-5" d="M184.47,163.59a1.72,1.72,0,1,1,1.72,1.73A1.72,1.72,0,0,1,184.47,163.59Z" transform="translate(0.29 -2.24)"/><path class="cls-5" d="M184.47,156a1.72,1.72,0,1,1,1.72,1.72A1.72,1.72,0,0,1,184.47,156Z" transform="translate(0.29 -2.24)"/><path class="cls-3" d="M344.92,174.12a3,3,0,0,1-2.1-.86l-4.94-4.95-4.95,4.95a3,3,0,0,1-4.2-4.2l4.95-4.95-4.95-5a3,3,0,0,1,0-4.18,3,3,0,0,1,4.2,0l4.95,4.94,4.94-4.94a3,3,0,0,1,4.19,0,3,3,0,0,1,0,4.19l-4.94,4.94,4.94,4.95a3,3,0,0,1-2.09,5.06Zm-7-7.33a.63.63,0,0,1,.44.19l5.39,5.39a1.75,1.75,0,0,0,2.41,0,1.71,1.71,0,0,0,0-2.42h0l-5.38-5.39a.62.62,0,0,1,0-.89l5.38-5.39a1.71,1.71,0,0,0,0-2.41,1.76,1.76,0,0,0-2.42,0l-5.39,5.4a.66.66,0,0,1-.89,0l-5.39-5.4a1.77,1.77,0,0,0-2.42,0,1.74,1.74,0,0,0,0,2.42l5.39,5.39a.62.62,0,0,1,0,.89L329.62,170a1.73,1.73,0,0,0,0,2.42,1.79,1.79,0,0,0,2.42,0l5.39-5.39A.64.64,0,0,1,337.88,166.79Z" transform="translate(0.29 -2.24)"/><path class="cls-3" d="M311.62,267.43a.63.63,0,0,1-.58-.88l3.93-9a.33.33,0,0,0,0-.32.33.33,0,0,0-.29-.16H307.6a8.18,8.18,0,0,1-8.17-8.17v-20a8.18,8.18,0,0,1,8.17-8.17h61.66a8.17,8.17,0,0,1,8.17,8.17v20a8.17,8.17,0,0,1-8.17,8.17H332.44a6.72,6.72,0,0,0-3.23.83l-17.29,9.43A.67.67,0,0,1,311.62,267.43Zm-4-45.43a6.92,6.92,0,0,0-6.91,6.91v20a6.92,6.92,0,0,0,6.91,6.91h7.06a1.62,1.62,0,0,1,1.34.73,1.59,1.59,0,0,1,.12,1.51l-3.19,7.29,15.67-8.54a7.93,7.93,0,0,1,3.84-1h36.82a6.93,6.93,0,0,0,6.92-6.91v-20a6.93,6.93,0,0,0-6.92-6.91Z" transform="translate(0.29 -2.24)"/><path class="cls-3" d="M338.43,244.05a5.3,5.3,0,1,1,5.3-5.3A5.3,5.3,0,0,1,338.43,244.05Zm0-9.34a4,4,0,1,0,4.05,4A4,4,0,0,0,338.43,234.71Z" transform="translate(0.29 -2.24)"/><path class="cls-3" d="M320.48,244.05a5.3,5.3,0,1,1,5.29-5.3A5.3,5.3,0,0,1,320.48,244.05Zm0-9.34a4,4,0,1,0,4,4A4,4,0,0,0,320.48,234.71Z" transform="translate(0.29 -2.24)"/><path class="cls-3" d="M356.39,244.05a5.3,5.3,0,1,1,5.3-5.3A5.3,5.3,0,0,1,356.39,244.05Zm0-9.34a4,4,0,1,0,4,4A4.05,4.05,0,0,0,356.39,234.71Z" transform="translate(0.29 -2.24)"/><path class="cls-3" d="M360.73,280.58a3.43,3.43,0,1,1,3.42-3.44A3.44,3.44,0,0,1,360.73,280.58Zm0-5.6a2.17,2.17,0,1,0,2.16,2.16A2.17,2.17,0,0,0,360.73,275Z" transform="translate(0.29 -2.24)"/><path class="cls-3" d="M350,280.58a3.43,3.43,0,1,1,3.43-3.44A3.44,3.44,0,0,1,350,280.58Zm0-5.6a2.17,2.17,0,1,0,2.17,2.16A2.17,2.17,0,0,0,350,275Z" transform="translate(0.29 -2.24)"/><path class="cls-3" d="M371.48,280.58a3.43,3.43,0,1,1,3.43-3.44A3.43,3.43,0,0,1,371.48,280.58Zm0-5.6a2.17,2.17,0,1,0,2.17,2.16A2.17,2.17,0,0,0,371.48,275Z" transform="translate(0.29 -2.24)"/><path class="cls-3" d="M360.73,301.84a3.43,3.43,0,1,1,3.42-3.43A3.44,3.44,0,0,1,360.73,301.84Zm0-5.6a2.17,2.17,0,1,0,2.16,2.17A2.17,2.17,0,0,0,360.73,296.24Z" transform="translate(0.29 -2.24)"/><path class="cls-3" d="M350,301.84a3.43,3.43,0,1,1,3.43-3.43A3.44,3.44,0,0,1,350,301.84Zm0-5.6a2.17,2.17,0,1,0,2.17,2.17A2.17,2.17,0,0,0,350,296.24Z" transform="translate(0.29 -2.24)"/><path class="cls-3" d="M371.48,301.84a3.43,3.43,0,1,1,3.43-3.43A3.43,3.43,0,0,1,371.48,301.84Zm0-5.6a2.17,2.17,0,1,0,2.17,2.17A2.17,2.17,0,0,0,371.48,296.24Z" transform="translate(0.29 -2.24)"/><path class="cls-3" d="M360.73,291.21a3.43,3.43,0,1,1,3.42-3.43A3.44,3.44,0,0,1,360.73,291.21Zm0-5.6a2.17,2.17,0,1,0,2.16,2.17A2.17,2.17,0,0,0,360.73,285.61Z" transform="translate(0.29 -2.24)"/><path class="cls-3" d="M350,291.21a3.43,3.43,0,1,1,3.43-3.43A3.44,3.44,0,0,1,350,291.21Zm0-5.6a2.17,2.17,0,1,0,2.17,2.17A2.17,2.17,0,0,0,350,285.61Z" transform="translate(0.29 -2.24)"/><path class="cls-3" d="M371.48,291.21a3.43,3.43,0,1,1,3.43-3.43A3.43,3.43,0,0,1,371.48,291.21Zm0-5.6a2.17,2.17,0,1,0,2.17,2.17A2.17,2.17,0,0,0,371.48,285.61Z" transform="translate(0.29 -2.24)"/><path class="cls-3" d="M407.63,198.7a24.12,24.12,0,1,1,13.89-4.4A24.14,24.14,0,0,1,407.63,198.7Zm0-47a22.86,22.86,0,1,0,13.16,41.54h0a22.85,22.85,0,0,0-13.16-41.54Z" transform="translate(0.29 -2.24)"/><path class="cls-3" d="M407.63,170.44a5.18,5.18,0,1,1,5.18-5.18A5.18,5.18,0,0,1,407.63,170.44Zm0-9.1a3.93,3.93,0,1,0,3.92,3.92A3.92,3.92,0,0,0,407.63,161.34Z" transform="translate(0.29 -2.24)"/><path class="cls-3" d="M415.65,189.09h-16a.63.63,0,0,1-.63-.62v-8.9a7.78,7.78,0,0,1,7.77-7.77h1.76a7.78,7.78,0,0,1,7.77,7.77v8.9A.63.63,0,0,1,415.65,189.09Zm-15.41-1.25H415v-8.27a6.52,6.52,0,0,0-6.51-6.51h-1.76a6.52,6.52,0,0,0-6.51,6.51Z" transform="translate(0.29 -2.24)"/><path class="cls-3" d="M127,207.8H66.35a3.08,3.08,0,0,1-3.08-3.08V144A3.08,3.08,0,0,1,66.35,141H127a3.08,3.08,0,0,1,3.09,3.08v60.68A3.08,3.08,0,0,1,127,207.8ZM66.35,142.21A1.84,1.84,0,0,0,64.52,144v60.68a1.84,1.84,0,0,0,1.83,1.82H127a1.83,1.83,0,0,0,1.83-1.82V144a1.83,1.83,0,0,0-1.83-1.83Z" transform="translate(0.29 -2.24)"/><path class="cls-3" d="M121.06,191.75H70.88a.64.64,0,0,1-.57-.36.63.63,0,0,1,.08-.66c7.67-9.34,13.82-13.47,18.28-12.27,2.94.8,4.32,3.66,4.91,5.47,3.09-5,14.54-22.45,23.9-19.48,8.91,2.83,4.39,25.82,4.2,26.8A.63.63,0,0,1,121.06,191.75ZM72.22,190.5h48.32c.61-3.38,3.74-22.57-3.44-24.85-9.73-3.09-23.07,20-23.21,20.21a.62.62,0,0,1-.65.31.63.63,0,0,1-.51-.52c0-.05-.87-5-4.39-6C85.71,179,80.81,180.32,72.22,190.5Z" transform="translate(0.29 -2.24)"/><path class="cls-3" d="M85.87,169.78a7.19,7.19,0,1,1,7.19-7.19A7.2,7.2,0,0,1,85.87,169.78Zm0-13.12a5.93,5.93,0,1,0,5.93,5.93A5.94,5.94,0,0,0,85.87,156.66Z" transform="translate(0.29 -2.24)"/><path class="cls-3" d="M251.49,227a.59.59,0,0,1-.44-.19.61.61,0,0,1,0-.88l4.47-4.47a.62.62,0,0,1,.89,0,.64.64,0,0,1,0,.89l-4.47,4.46A.63.63,0,0,1,251.49,227Z" transform="translate(0.29 -2.24)"/><path class="cls-3" d="M243.46,235.05a.63.63,0,0,1-.44-.19.62.62,0,0,1,0-.89l4.47-4.47a.63.63,0,0,1,.89.89l-4.47,4.47A.64.64,0,0,1,243.46,235.05Z" transform="translate(0.29 -2.24)"/><path class="cls-3" d="M256,235.05a.63.63,0,0,1-.44-.19l-4.47-4.47a.62.62,0,0,1,0-.89.64.64,0,0,1,.89,0l4.47,4.47a.64.64,0,0,1,0,.89A.67.67,0,0,1,256,235.05Z" transform="translate(0.29 -2.24)"/><path class="cls-3" d="M247.93,227a.59.59,0,0,1-.44-.19L243,222.37a.63.63,0,0,1,.89-.89l4.47,4.47a.63.63,0,0,1,0,.88A.61.61,0,0,1,247.93,227Z" transform="translate(0.29 -2.24)"/><path class="cls-3" d="M304.62,347.91a.45.45,0,0,1-.2,0,.62.62,0,0,1-.4-.79l23.38-70.9H223.2l-18,48.78a.62.62,0,0,1-.8.37.63.63,0,0,1-.37-.81l18.18-49.18a.61.61,0,0,1,.58-.41H328.27a.63.63,0,0,1,.6.82l-23.66,71.72A.62.62,0,0,1,304.62,347.91Z" transform="translate(0.29 -2.24)"/><path class="cls-3" d="M197.41,344.79H174.35a.63.63,0,1,1,0-1.26H197l7-19a.62.62,0,0,1,.8-.37.63.63,0,0,1,.38.81L198,344.38A.63.63,0,0,1,197.41,344.79Z" transform="translate(0.29 -2.24)"/><path class="cls-3" d="M219.5,351.43h-51a.63.63,0,1,1,0-1.26h51a.63.63,0,0,1,0,1.26Z" transform="translate(0.29 -2.24)"/><path class="cls-3" d="M202.28,351.43a.85.85,0,0,1-.22,0,.63.63,0,0,1-.37-.81l27.73-75.24a.62.62,0,0,1,.8-.38.63.63,0,0,1,.38.81L202.87,351A.65.65,0,0,1,202.28,351.43Z" transform="translate(0.29 -2.24)"/><path class="cls-3" d="M268.41,319a2.33,2.33,0,0,1-.59-.08c-2.27-.59-3.17-4.43-2.06-8.74h0c.75-2.88,2.24-5.28,3.88-6.24a2.86,2.86,0,0,1,2.16-.39c1.17.31,2,1.44,2.35,3.19a12.7,12.7,0,0,1-.29,5.55C272.84,316.25,270.53,319,268.41,319Zm-1.43-8.5h0c-1,3.81-.18,6.86,1.15,7.2s3.52-1.92,4.51-5.73a11.35,11.35,0,0,0,.28-5c-.25-1.24-.77-2-1.43-2.22a1.61,1.61,0,0,0-1.21.25C268.93,305.84,267.64,308,267,310.53Z" transform="translate(0.29 -2.24)"/><path class="cls-3" d="M106.48,241.06H89.37a.63.63,0,0,1-.63-.63V223.32a.63.63,0,0,1,.63-.63h17.11a.63.63,0,0,1,.63.63v17.11A.63.63,0,0,1,106.48,241.06ZM90,239.8h15.85V224H90Z" transform="translate(0.29 -2.24)"/><path class="cls-3" d="M115,249.61H97.92a.63.63,0,0,1-.63-.63v-8.55a.64.64,0,0,1,.63-.63.63.63,0,0,1,.63.63v7.92H114.4V232.51h-7.92a.63.63,0,0,1-.63-.63.63.63,0,0,1,.63-.63H115a.63.63,0,0,1,.63.63V249A.63.63,0,0,1,115,249.61Z" transform="translate(0.29 -2.24)"/><path class="cls-3" d="M191.43,244.55A20.93,20.93,0,0,1,175.57,237a.62.62,0,0,1,.07-.89.61.61,0,0,1,.88.07,19.25,19.25,0,0,0,17.71,6.94,12.89,12.89,0,0,0,1.69-.35,9.64,9.64,0,0,0,6.71-6.65c1.58-4.67,1.22-11.4-1-19.47-.17-.58-.39-1.31-.66-2.09-.91-2.72-2.18-6-2.2-6.09a.63.63,0,0,1,1.18-.45s1.3,3.39,2.21,6.14c.27.8.51,1.55.68,2.15,2.34,8.31,2.7,15.3,1,20.21a10.81,10.81,0,0,1-7.56,7.46,13.88,13.88,0,0,1-1.86.38A22.06,22.06,0,0,1,191.43,244.55Z" transform="translate(0.29 -2.24)"/><path class="cls-3" d="M175,231.15a.63.63,0,0,1-.43-.17,5.65,5.65,0,0,0-2.83-1.2,7.15,7.15,0,0,0-2.51.12.63.63,0,0,1-.26-1.23,8.16,8.16,0,0,1,2.94-.13,6.72,6.72,0,0,1,3.52,1.52.63.63,0,0,1,0,.89A.62.62,0,0,1,175,231.15Z" transform="translate(0.29 -2.24)"/><path class="cls-3" d="M171.84,233.63a.63.63,0,0,1-.57-.37c-.05-.11-1.24-2.71,0-4.46a.63.63,0,0,1,.87-.15.62.62,0,0,1,.16.87c-.67,1-.14,2.64.12,3.21a.63.63,0,0,1-.31.84A.58.58,0,0,1,171.84,233.63Z" transform="translate(0.29 -2.24)"/><path class="cls-3" d="M182.21,218.46a.62.62,0,0,1-.43-.16.64.64,0,0,1,0-.89c.13-.14,3.1-3.34,6.65-2.58a.64.64,0,0,1,.48.75.63.63,0,0,1-.75.48c-2.83-.61-5.42,2.17-5.45,2.2A.63.63,0,0,1,182.21,218.46Z" transform="translate(0.29 -2.24)"/><path class="cls-3" d="M195.76,213.91a.61.61,0,0,1-.34-.1.63.63,0,0,1-.19-.87c1.47-2.29,4.36-1.68,5.69-1a.63.63,0,0,1-.55,1.13c-.12-.06-2.85-1.33-4.08.59A.62.62,0,0,1,195.76,213.91Z" transform="translate(0.29 -2.24)"/><path class="cls-3" d="M195.12,228.84a.63.63,0,0,1-.18-1.24c1.41-.41,2.26-.93,2.45-1.5s-.1-1.19-.86-2.24a36.11,36.11,0,0,1-3-4.93.63.63,0,1,1,1.13-.55,36.74,36.74,0,0,0,2.86,4.74c.74,1,1.44,2.2,1,3.38-.34,1-1.39,1.75-3.28,2.31A.57.57,0,0,1,195.12,228.84Z" transform="translate(0.29 -2.24)"/><path class="cls-3" d="M193.79,233.1a8.84,8.84,0,0,1-2.66-.37.63.63,0,0,1-.45-.6.63.63,0,0,1,.62-.63h0a.49.49,0,0,1,.21,0,9,9,0,0,0,8.46-2.11.62.62,0,0,1,.88,0,.63.63,0,0,1-.05.89A10.47,10.47,0,0,1,193.79,233.1Z" transform="translate(0.29 -2.24)"/><path class="cls-3" d="M196.35,235.35a2.78,2.78,0,0,1-.84-.12.62.62,0,0,1-.38-.8.63.63,0,0,1,.8-.39,1.77,1.77,0,0,0,1.65-.43.62.62,0,0,1,.88,0,.63.63,0,0,1-.05.89A3.08,3.08,0,0,1,196.35,235.35Z" transform="translate(0.29 -2.24)"/><path class="cls-3" d="M190.24,233.87a.62.62,0,0,1-.56-.34.64.64,0,0,1,.27-.85,1.68,1.68,0,0,0,.79-.81,2.29,2.29,0,0,0,.19-1,.65.65,0,0,1,.58-.68.64.64,0,0,1,.68.57,3.59,3.59,0,0,1-.31,1.64,2.93,2.93,0,0,1-1.35,1.41A.62.62,0,0,1,190.24,233.87Z" transform="translate(0.29 -2.24)"/><path class="cls-3" d="M166.41,229.72a.63.63,0,0,1-.47-.22,39.25,39.25,0,0,1-6.45-10.62,17.94,17.94,0,0,1-1.28-9.44.63.63,0,0,1,1.24.22,16.7,16.7,0,0,0,1.22,8.77,38.61,38.61,0,0,0,6.21,10.24.63.63,0,0,1,0,.89A.67.67,0,0,1,166.41,229.72Z" transform="translate(0.29 -2.24)"/><path class="cls-3" d="M201.64,214.92a.61.61,0,0,1-.42-.16.62.62,0,0,1,0-.89c4.16-4.57,5.95-10.19,4.78-15a11.29,11.29,0,0,0-7.22-8.1,21.56,21.56,0,0,0-12.81-.62c-10.45,2.57-17.38,6.06-21.81,11a.64.64,0,0,1-.89,0,.63.63,0,0,1,0-.89c4.61-5.1,11.74-8.7,22.45-11.34a22.74,22.74,0,0,1,13.55.67,12.52,12.52,0,0,1,8,9c1.25,5.26-.64,11.31-5.08,16.19A.63.63,0,0,1,201.64,214.92Z" transform="translate(0.29 -2.24)"/><path class="cls-3" d="M182.67,213.71a23.34,23.34,0,0,1-6.84-1.2.58.58,0,0,1-.25-.15.62.62,0,0,1,.69-1c.94.3,6.94,2.16,10.32.28a4.16,4.16,0,0,0,2.09-2.84.63.63,0,0,1,.75-.47c.06,0,5.23,1.18,9.64-.66a10.73,10.73,0,0,0,2.2-1.25.63.63,0,0,1,.88.13.64.64,0,0,1-.13.88,11.89,11.89,0,0,1-2.47,1.4,18.64,18.64,0,0,1-9.81.84,5.41,5.41,0,0,1-2.54,3.07A9.3,9.3,0,0,1,182.67,213.71Z" transform="translate(0.29 -2.24)"/><path class="cls-3" d="M173.69,237.17a7.07,7.07,0,0,1-1.86-.26,8.25,8.25,0,0,1-3.69-2.24,7.83,7.83,0,0,1-2.35-5.6,5.13,5.13,0,0,1,1.51-3.64,4.84,4.84,0,0,1,1.69-1.08,5.17,5.17,0,0,1,5.28,1.13c1.55,1.43,3,2.23,3.92,2.18a1.25,1.25,0,0,0,.93-.47c1.28-1.46-1-8.8-3.67-15l.57-.29.57-.24c1.77,4.12,5.63,13.88,3.48,16.35a2.5,2.5,0,0,1-1.82.89c-1.66.09-3.55-1.32-4.84-2.51a3.86,3.86,0,0,0-4-.87,3.74,3.74,0,0,0-1.26.79A4,4,0,0,0,167,229.1a6.62,6.62,0,0,0,2,4.7,7.09,7.09,0,0,0,3.13,1.9,5.22,5.22,0,0,0,2.31.15,3.8,3.8,0,0,0,2-1,.63.63,0,0,1,.89,0,.64.64,0,0,1,0,.89,5.07,5.07,0,0,1-2.68,1.34A5.47,5.47,0,0,1,173.69,237.17Z" transform="translate(0.29 -2.24)"/><path class="cls-3" d="M210,310.67a.52.52,0,0,1-.24-.05c-.19-.07-.37-.16-.55-.24a.63.63,0,1,1,.53-1.14l.51.23a.63.63,0,0,1-.25,1.2Z" transform="translate(0.29 -2.24)"/><path class="cls-3" d="M212.86,303a.62.62,0,0,1-.39-.14,39.57,39.57,0,0,0-13.66-7.19c-8.86-2.51-27.22,3.06-34.7,5.57-2.67.9-4.36,1.53-4.37,1.54a.63.63,0,0,1-.45-1.18s1.73-.65,4.42-1.55c9.43-3.17,26.58-8.1,35.44-5.59a41,41,0,0,1,14.11,7.42.63.63,0,0,1,.09.89A.62.62,0,0,1,212.86,303Z" transform="translate(0.29 -2.24)"/><path class="cls-3" d="M207.18,318.36a.69.69,0,0,1-.24-.05c-.43-.18-.85-.38-1.28-.58a.63.63,0,0,1-.3-.84.64.64,0,0,1,.84-.3l1.22.56a.62.62,0,0,1,.34.82A.63.63,0,0,1,207.18,318.36Z" transform="translate(0.29 -2.24)"/><path class="cls-3" d="M210,310.82a.62.62,0,0,1-.41-.14l-.47-.39,0,0a40,40,0,0,0-7.75-4.89.63.63,0,0,1-.3-.84.64.64,0,0,1,.84-.3,41.14,41.14,0,0,1,8,5.09l0,.05.44.35a.63.63,0,0,1,.08.89A.62.62,0,0,1,210,310.82Z" transform="translate(0.29 -2.24)"/><path class="cls-3" d="M207,318.77a.65.65,0,0,1-.43-.17c-.32-.3-.65-.59-1-.9l-.1-.06a39.55,39.55,0,0,0-8.29-5.35.63.63,0,1,1,.55-1.13,40.77,40.77,0,0,1,8.48,5.46l.1.07c.39.33.76.66,1.12,1a.63.63,0,0,1-.43,1.09Z" transform="translate(0.29 -2.24)"/><path class="cls-3" d="M172.12,337.43a.62.62,0,0,1-.11-1.24c1.26-.23,2.56-.53,3.86-.89a44.25,44.25,0,0,0,4.62-1.59,36.4,36.4,0,0,0,5.1-2.57l7.63-4.56a.61.61,0,0,1,.64,0,25.4,25.4,0,0,0,8.5,2.87.63.63,0,0,1,.55.7.64.64,0,0,1-.71.55,26.1,26.1,0,0,1-8.65-2.86l-7.31,4.38a38.8,38.8,0,0,1-5.27,2.65,45.42,45.42,0,0,1-4.76,1.64c-1.34.37-2.68.68-4,.91Z" transform="translate(0.29 -2.24)"/><path class="cls-3" d="M204.59,325.38a.63.63,0,0,1-.42-.16,54.35,54.35,0,0,0-9.82-5.11.63.63,0,0,1-.36-.81.62.62,0,0,1,.81-.36A55.7,55.7,0,0,1,205,324.23a.67.67,0,0,1,.27.52A.63.63,0,0,1,204.59,325.38Z" transform="translate(0.29 -2.24)"/><path class="cls-3" d="M173.39,338.79a.65.65,0,0,1-.41-.15c-.5-.44-1-.87-1.39-1.29-12.37-11.92-13.23-28.6-13-35.21,0-1.65.15-2.6.16-2.64a.62.62,0,0,1,1.24.15s-.11.94-.15,2.52c-.2,6.45.64,22.7,12.64,34.28.42.4.87.82,1.35,1.24a.63.63,0,0,1,.06.89A.64.64,0,0,1,173.39,338.79Z" transform="translate(0.29 -2.24)"/><path class="cls-3" d="M113.58,312.53a.65.65,0,0,1-.55-.32.64.64,0,0,1,.23-.86c12.33-7,22.73-11.85,30.92-14.31s14.29-2.58,17.76-.26a5.6,5.6,0,0,1,2.59,3.78.62.62,0,0,1-.56.69.64.64,0,0,1-.69-.56,4.35,4.35,0,0,0-2.08-2.89c-2.17-1.43-6.82-2.51-16.66.44-8.1,2.43-18.41,7.21-30.65,14.21A.71.71,0,0,1,113.58,312.53Z" transform="translate(0.29 -2.24)"/><path class="cls-3" d="M126.5,265.76a.62.62,0,0,1-.44-.18.63.63,0,0,1,0-.89,64.91,64.91,0,0,1,20.47-14.16.63.63,0,0,1,.83.33.62.62,0,0,1-.33.82A63.85,63.85,0,0,0,127,265.57.63.63,0,0,1,126.5,265.76Z" transform="translate(0.29 -2.24)"/><path class="cls-3" d="M99.12,337.57a.63.63,0,0,1-.63-.62c-.12-22,8.35-52.84,27.56-72.26a.63.63,0,0,1,.89,0,.64.64,0,0,1,0,.89c-19,19.17-27.31,49.66-27.19,71.37a.63.63,0,0,1-.63.63Z" transform="translate(0.29 -2.24)"/><path class="cls-3" d="M145.7,364.28a.66.66,0,0,1-.6-.42.64.64,0,0,1,.39-.81,73.81,73.81,0,0,0,10.94-4.92,67.19,67.19,0,0,0,11.62-7.81,28.14,28.14,0,0,0,5.76-6.49c2.86-4.71,1.67-7.65,1.65-7.68a.63.63,0,0,1,1.15-.51c.07.15,1.51,3.52-1.72,8.85a30,30,0,0,1-6,6.78,68.21,68.21,0,0,1-11.84,8,76.91,76.91,0,0,1-11.13,5A.78.78,0,0,1,145.7,364.28Z" transform="translate(0.29 -2.24)"/><path class="cls-3" d="M128.75,298.37a.63.63,0,0,1-.18-1.23c.42-.13,10.5-3.14,16.09-.05l.16.12a.62.62,0,0,1,.17.44.63.63,0,0,1-.63.63.6.6,0,0,1-.34-.11c-5.14-2.8-15,.14-15.09.17A.57.57,0,0,1,128.75,298.37Z" transform="translate(0.29 -2.24)"/><path class="cls-3" d="M161.51,297.47a.62.62,0,0,1-.37-.11.64.64,0,0,1-.15-.88c2.34-3.28,3.5-8.77,3.51-8.83a.63.63,0,0,1,.74-.49.64.64,0,0,1,.49.75c0,.23-1.22,5.81-3.71,9.3A.63.63,0,0,1,161.51,297.47Z" transform="translate(0.29 -2.24)"/><path class="cls-3" d="M279.31,511.75H168.36a.63.63,0,0,1,0-1.26h111a.63.63,0,1,1,0,1.26Z" transform="translate(0.29 -2.24)"/><path class="cls-3" d="M122.17,511.75H89a.63.63,0,0,1,0-1.26h33.22a.63.63,0,0,1,0,1.26Z" transform="translate(0.29 -2.24)"/><path class="cls-3" d="M167.2,521.42H123.34a.63.63,0,0,1-.62-.56l-8.14-67.26a.62.62,0,0,1,.15-.49.61.61,0,0,1,.47-.21h60.14a.61.61,0,0,1,.47.21.62.62,0,0,1,.15.49l-8.14,67.26A.63.63,0,0,1,167.2,521.42Zm-43.3-1.26h42.74l1.1-9.12h0l6.89-56.89H115.91Z" transform="translate(0.29 -2.24)"/><path class="cls-3" d="M163.2,206.24l-.16,0a12.71,12.71,0,0,1-2.32-.89.63.63,0,0,1-.29-.84.65.65,0,0,1,.85-.29,10.94,10.94,0,0,0,2.09.8.63.63,0,0,1-.17,1.24Z" transform="translate(0.29 -2.24)"/><path class="cls-3" d="M161,205.39a.58.58,0,0,1-.28-.07c-2.58-1.27-5.27-3.63-5.42-5.69a2.11,2.11,0,0,1,.93-1.92c2.7-1.86,7.34,2,7.86,2.47a.64.64,0,0,1,.07.89.63.63,0,0,1-.89.06c-1.13-1-4.72-3.5-6.32-2.38a.78.78,0,0,0-.39.79c.08,1.16,1.91,3.27,4.72,4.66a.63.63,0,0,1,.29.84A.64.64,0,0,1,161,205.39Z" transform="translate(0.29 -2.24)"/><path class="cls-3" d="M159.94,210.22c-.38,0-.77,0-1.16,0-2.54-.21-5.49-1.16-6.36-2.82a2.05,2.05,0,0,1,.05-2.06c1.56-2.74,7.48-1.44,8.65-1.15h0a.63.63,0,0,1-.12,1.24.91.91,0,0,1-.23,0c-2.39-.59-6.35-.94-7.21.57a.8.8,0,0,0,0,.84c.54,1,2.84,1.95,5.35,2.15a12.34,12.34,0,0,0,3.19-.14.63.63,0,0,1,.74.49.64.64,0,0,1-.5.74A12.82,12.82,0,0,1,159.94,210.22Z" transform="translate(0.29 -2.24)"/><path class="cls-3" d="M132.87,454.15a.62.62,0,0,1-.63-.58c-2.27-30.85-21.3-47.54-26-51.2,1.84,39.07,18.27,50.52,18.44,50.63a.64.64,0,0,1,.17.87.63.63,0,0,1-.87.18c-.72-.48-17.5-12.1-19-52.95a.63.63,0,0,1,.32-.58.65.65,0,0,1,.66,0c.25.17,25,17.26,27.57,52.93a.61.61,0,0,1-.58.67Z" transform="translate(0.29 -2.24)"/><path class="cls-3" d="M148,454.15a.66.66,0,0,1-.27-.06.63.63,0,0,1-.29-.84c14.1-28.39,7.5-57.1,5.89-63-23.14,27.51-16.62,62.81-16.55,63.17a.62.62,0,0,1-.5.73.63.63,0,0,1-.74-.49,83.71,83.71,0,0,1-.48-21.9c1.2-11.61,5.3-28.53,18.08-43.22a.62.62,0,0,1,.6-.2.61.61,0,0,1,.47.42c.11.32,10.32,32.91-5.64,65.06A.62.62,0,0,1,148,454.15Z" transform="translate(0.29 -2.24)"/><path class="cls-3" d="M153.59,454.15a.47.47,0,0,1-.16,0,.64.64,0,0,1-.45-.77,55.33,55.33,0,0,1,8.66-16.76,63,63,0,0,1,35.69-23.67.63.63,0,0,1,.6.17.64.64,0,0,1,.17.6,71.15,71.15,0,0,1-34,40.38.63.63,0,1,1-.58-1.11c23.17-12.17,31.4-33.54,33.05-38.53-34.05,9.33-42.27,38.95-42.35,39.25A.62.62,0,0,1,153.59,454.15Z" transform="translate(0.29 -2.24)"/><path class="cls-3" d="M128.6,454.15a.62.62,0,0,1-.6-.44c-8.08-25.9-22.83-52.06-23-52.33a.63.63,0,0,1,1.09-.62c.15.27,15,26.55,23.09,52.58a.64.64,0,0,1-.41.79A.65.65,0,0,1,128.6,454.15Z" transform="translate(0.29 -2.24)"/><path class="cls-3" d="M142.38,454.15h-.08a.64.64,0,0,1-.55-.7C146.94,410.9,152.93,389,153,388.77a.62.62,0,0,1,.77-.43.63.63,0,0,1,.44.77c-.06.22-6,22.05-11.2,64.49A.63.63,0,0,1,142.38,454.15Z" transform="translate(0.29 -2.24)"/><path class="cls-3" d="M157.31,454.15a.68.68,0,0,1-.38-.12.63.63,0,0,1-.13-.88C173.24,431,196.88,413.21,197.11,413a.63.63,0,0,1,.88.12.63.63,0,0,1-.13.88c-.23.18-23.73,17.86-40.05,39.86A.6.6,0,0,1,157.31,454.15Z" transform="translate(0.29 -2.24)"/><path class="cls-3" d="M188.25,261.09a.58.58,0,0,1-.33-.1s-1.25-.79-3.07-2.14c-4.24-3.18-11.85-9.66-15.21-17.44a19.36,19.36,0,0,1-1.68-7.16.63.63,0,0,1,.61-.64.62.62,0,0,1,.65.61,18.09,18.09,0,0,0,1.58,6.69c3.23,7.51,10.67,13.83,14.81,16.93,1.77,1.32,3,2.08,3,2.09a.63.63,0,0,1-.34,1.16Z" transform="translate(0.29 -2.24)"/><path class="cls-3" d="M170.22,241.79a.57.57,0,0,1-.22,0,.63.63,0,0,1-.37-.8l1.77-4.85a.63.63,0,0,1,1.23.2h0a.78.78,0,0,1,0,.22l-1.78,4.86A.63.63,0,0,1,170.22,241.79Z" transform="translate(0.29 -2.24)"/><path class="cls-3" d="M185.23,259a.63.63,0,0,1,0-1.26c9.67-.14,10.24-14.23,10.24-14.37a.64.64,0,0,1,.65-.61.63.63,0,0,1,.61.65c0,.15-.63,15.43-11.48,15.59Z" transform="translate(0.29 -2.24)"/><path class="cls-3" d="M194.11,265.76a.66.66,0,0,1-.48-.22.63.63,0,0,1,.08-.89c.1-.08,10-8.51,11.84-17.44a11.39,11.39,0,0,0-2.79-10.48.63.63,0,0,1,0-.88.62.62,0,0,1,.87,0,12.59,12.59,0,0,1,3.12,11.62c-1.92,9.36-11.84,17.79-12.26,18.14A.63.63,0,0,1,194.11,265.76Z" transform="translate(0.29 -2.24)"/><path class="cls-3" d="M187.39,267.43h-.1a75.79,75.79,0,0,1-18.8-6.2c-12.23-6.1-18.11-14.65-17-24.73.6-5.56,3.32-11.69,8.1-18.2a.27.27,0,0,1,.07-.08.6.6,0,0,1,.45-.19.63.63,0,0,1,.48,1c-4.64,6.33-7.28,12.24-7.85,17.58-2.5,23.08,34.4,29.49,34.78,29.55a.63.63,0,0,1-.11,1.25Z" transform="translate(0.29 -2.24)"/><path class="cls-3" d="M154.67,261.09a.63.63,0,0,1-.34-.1c-4.4-2.87-7.14-6.14-8.16-9.71-2.31-8.16,5.06-14.92,5.37-15.2a.63.63,0,0,1,.89,0,.64.64,0,0,1,0,.89c-.08.06-7.1,6.52-5,13.92.93,3.27,3.5,6.3,7.64,9a.63.63,0,0,1,.18.87A.62.62,0,0,1,154.67,261.09Z" transform="translate(0.29 -2.24)"/><path class="cls-3" d="M241,276.18a.61.61,0,0,1-.6-.46C234,251.43,206.68,248,206.41,248a.63.63,0,0,1-.56-.69.64.64,0,0,1,.7-.56c.28,0,28.39,3.55,35.07,28.67a.63.63,0,0,1-.45.77A.41.41,0,0,1,241,276.18Z" transform="translate(0.29 -2.24)"/><path class="cls-3" d="M364.17,511.75H279.31a.63.63,0,0,1-.63-.65s.07-2.22.23-5.9c.1-2.43.24-5.51.4-9h0s0-.68,0-1.86l.17-12c0-2.64.08-5.48.12-8.32a.62.62,0,0,1,.62-.62h0a.62.62,0,0,1,.62.64c0,2.84-.07,5.67-.11,8.32l-.17,12c0,1.15,0,1.82,0,1.86-.17,3.53-.31,6.6-.41,9s-.17,4.33-.2,5.24h83.25a26.51,26.51,0,0,0-3-4.85l0,0a42.59,42.59,0,0,0-2.85-3.31,69.72,69.72,0,0,0-6.33-5.84,127.46,127.46,0,0,0-13.44-9.54c-2.94-1.84-6-3.63-9-5.32-2-1.11-5.1-2.77-8.43-4.4l-.2-.1a.63.63,0,0,1,.58-1.11l.17.08c3.36,1.64,6.47,3.31,8.49,4.43,3.07,1.7,6.13,3.5,9.09,5.36a129.94,129.94,0,0,1,13.57,9.63,69.4,69.4,0,0,1,6.44,5.94,42.9,42.9,0,0,1,2.92,3.4l0,0a26.82,26.82,0,0,1,3.59,6,.62.62,0,0,1-.06.59A.63.63,0,0,1,364.17,511.75Z" transform="translate(0.29 -2.24)"/><path class="cls-3" d="M320.17,477.17a.63.63,0,0,1-.63-.61l-.28-10.12a.63.63,0,0,1,.61-.64.61.61,0,0,1,.64.61l.29,10.12a.63.63,0,0,1-.61.64Z" transform="translate(0.29 -2.24)"/><path class="cls-3" d="M279.94,496.86a.62.62,0,0,1-.56-.36.63.63,0,0,1,.29-.84L319.89,476a.67.67,0,0,1,.28-.06.63.63,0,0,1,.23,1.21l-40.18,19.66A.55.55,0,0,1,279.94,496.86Z" transform="translate(0.29 -2.24)"/><path class="cls-3" d="M360.73,505.86H279.62a.63.63,0,1,1,0-1.25h81.11a.63.63,0,0,1,0,1.25Z" transform="translate(0.29 -2.24)"/><path class="cls-3" d="M330.55,505.86h-.15a.63.63,0,0,1-.46-.77c3.68-15,7.32-19,7.48-19.12a.63.63,0,0,1,.89,0,.64.64,0,0,1,0,.89c0,.05-3.6,4-7.18,18.57A.63.63,0,0,1,330.55,505.86Z" transform="translate(0.29 -2.24)"/><path class="cls-3" d="M276.93,477.17a.64.64,0,0,1-.48-.21.63.63,0,0,1,.06-.89,40.5,40.5,0,0,1,3.38-2.57c6.12-4.25,22.28-13.5,40.19-7.67.6.19,1.24.41,1.89.66a.63.63,0,0,1-.45,1.18c-.63-.25-1.24-.46-1.82-.65-17.38-5.65-33.13,3.37-39.1,7.51a38.92,38.92,0,0,0-3.26,2.49A.65.65,0,0,1,276.93,477.17Z" transform="translate(0.29 -2.24)"/><path class="cls-3" d="M245.88,89.59a43.68,43.68,0,1,1,32.25-73.14h0a43.68,43.68,0,0,1-32.25,73.14Zm0-86.1A42.44,42.44,0,1,0,277.2,17.3h0A42.57,42.57,0,0,0,245.88,3.49Z" transform="translate(0.29 -2.24)"/><path class="cls-3" d="M245.88,85.29a39.38,39.38,0,1,1,39.38-39.38A39.42,39.42,0,0,1,245.88,85.29Zm0-77.49A38.12,38.12,0,1,0,284,45.91,38.16,38.16,0,0,0,245.88,7.8Z" transform="translate(0.29 -2.24)"/><path class="cls-3" d="M245.88,52a6,6,0,0,1-5.69-4,5.78,5.78,0,0,1-.37-2.06,6,6,0,0,1,3.09-5.27,6.14,6.14,0,0,1,6,0,6,6,0,0,1-3,11.32Zm0-10.85a4.78,4.78,0,0,0-4.51,6.42h0a4.8,4.8,0,1,0,4.51-6.43Z" transform="translate(0.29 -2.24)"/><path class="cls-3" d="M248.55,41.82a.63.63,0,0,1-.63-.63V26.12a2,2,0,0,0-4.08,0V41.19a.63.63,0,1,1-1.25,0V26.12a3.3,3.3,0,0,1,6.59,0V41.19A.63.63,0,0,1,248.55,41.82Z" transform="translate(0.29 -2.24)"/><path class="cls-3" d="M222.49,63.24a2.81,2.81,0,0,1-.49-.05,2.18,2.18,0,0,1-1.35-1,2.15,2.15,0,0,1-.28-1.64,2.21,2.21,0,0,1,1-1.35l19.11-12a.64.64,0,0,1,.87.2.63.63,0,0,1-.2.87L222,60.3a.92.92,0,0,0-.29,1.25.93.93,0,0,0,.58.41.86.86,0,0,0,.68-.12l19.3-12.11a.62.62,0,0,1,.79,1l-.11.09L223.64,62.91A2.14,2.14,0,0,1,222.49,63.24Z" transform="translate(0.29 -2.24)"/><path class="cls-3" d="M245.88,16.82A3.16,3.16,0,1,1,249,13.67,3.15,3.15,0,0,1,245.88,16.82Zm0-5.05a1.9,1.9,0,1,0,1.9,1.9A1.9,1.9,0,0,0,245.88,11.77Z" transform="translate(0.29 -2.24)"/><path class="cls-3" d="M245.88,81.31A3.16,3.16,0,1,1,249,78.15,3.16,3.16,0,0,1,245.88,81.31Zm0-5a1.9,1.9,0,1,0,1.9,1.89A1.9,1.9,0,0,0,245.88,76.26Z" transform="translate(0.29 -2.24)"/><path class="cls-3" d="M278.13,49.06a3.16,3.16,0,1,1,3.15-3.15A3.16,3.16,0,0,1,278.13,49.06Zm0-5.05a1.9,1.9,0,1,0,1.9,1.9A1.9,1.9,0,0,0,278.13,44Z" transform="translate(0.29 -2.24)"/><path class="cls-3" d="M213.64,49.06a3.16,3.16,0,1,1,3.16-3.15A3.16,3.16,0,0,1,213.64,49.06Zm0-5.05a1.9,1.9,0,1,0,1.9,1.9A1.9,1.9,0,0,0,213.64,44Z" transform="translate(0.29 -2.24)"/><path class="cls-3" d="M199.58,511.75a.63.63,0,0,1,0-1.26c30.14,0,53.72-11.3,66.38-31.81,13.22-21.4,13.32-50.31.25-77.33-12.41-25.68-34.84-39.59-66.66-41.34-27-1.5-51.12,6.76-51.36,6.84a.63.63,0,1,1-.41-1.19c.24-.08,24.57-8.41,51.84-6.91,14.27.79,26.91,4.1,37.55,9.84,13.12,7.09,23.27,17.92,30.18,32.21,13.25,27.41,13.13,56.77-.32,78.54C254.13,500.24,230.17,511.75,199.58,511.75Z" transform="translate(0.29 -2.24)"/><path class="cls-3" d="M276.07,485.34a11.56,11.56,0,0,1-9.85-5.87.63.63,0,1,1,1.12-.57h0c.15.3,3.86,7.3,12.58,4.55a.63.63,0,0,1,.38,1.2A14,14,0,0,1,276.07,485.34Z" transform="translate(0.29 -2.24)"/><path class="cls-3" d="M320.06,473.36a.63.63,0,1,1,0-1.25c6.48,0,10.44-4.93,12.09-15.08,3.08-18.89-3.06-51-6.73-70.21-.32-1.65-.62-3.21-.89-4.66-2.94-15.63-9.85-27-20.54-33.91-24.26-15.63-63.21-4.74-84.26,3.14h0A212.72,212.72,0,0,0,200,359.89l-.07,0a.64.64,0,0,1-.75-.1.62.62,0,0,1,0-.89h0a.66.66,0,0,1,.17-.12l.09,0a213,213,0,0,1,19.88-8.56l.05,0c15.16-5.67,29.34-9.23,42.14-10.59,17.89-1.9,32.43.65,43.2,7.6,11,7.06,18.09,18.75,21.09,34.72.28,1.46.58,3,.89,4.67,3.69,19.27,9.86,51.53,6.74,70.64C331.65,467.94,327.16,473.36,320.06,473.36Z" transform="translate(0.29 -2.24)"/><path class="cls-3" d="M400.94,502.49H357.76a.63.63,0,0,1,0-1.25H400a25.67,25.67,0,0,0-3.05-4.88c-4.46-5.8-12.07-12.09-22.61-18.69a.63.63,0,0,1,.66-1.07c10.68,6.69,18.4,13.08,22.95,19a26.65,26.65,0,0,1,3.6,6,.68.68,0,0,1-.06.59A.65.65,0,0,1,400.94,502.49Z" transform="translate(0.29 -2.24)"/><path class="cls-3" d="M374.64,477.76a.66.66,0,0,1-.33-.09,198,198,0,0,0-17.64-9.81.64.64,0,0,1-.36-.55L356,457.19a.63.63,0,0,1,1.26,0l.27,9.74c1.67.82,9.13,4.52,17.42,9.71a.64.64,0,0,1,.2.87A.64.64,0,0,1,374.64,477.76Z" transform="translate(0.29 -2.24)"/><path class="cls-3" d="M328.81,481.68a.63.63,0,0,1-.56-.35.62.62,0,0,1,.28-.84l28.13-13.76a.63.63,0,0,1,.85.29.63.63,0,0,1-.29.84l-28.13,13.76A.71.71,0,0,1,328.81,481.68Z" transform="translate(0.29 -2.24)"/><path class="cls-3" d="M397.5,496.6H351.38a.63.63,0,1,1,0-1.25H397.5a.63.63,0,1,1,0,1.25Z" transform="translate(0.29 -2.24)"/><path class="cls-3" d="M367.32,496.6h-.15a.64.64,0,0,1-.46-.77c3.53-14.33,7.07-18.65,7.46-19.1a.53.53,0,0,1,.23-.16.54.54,0,0,1,.25-.06.63.63,0,0,1,.63.63h0a.64.64,0,0,1-.21.47c-.48.56-3.76,4.8-7.14,18.52A.63.63,0,0,1,367.32,496.6Z" transform="translate(0.29 -2.24)"/><path class="cls-3" d="M358.51,458.45a.57.57,0,0,1-.22,0c-.56-.21-1.15-.42-1.83-.64a39,39,0,0,0-23.51,0,.63.63,0,0,1-.36-1.21,40.3,40.3,0,0,1,24.26,0c.7.23,1.31.45,1.89.67a.63.63,0,0,1-.23,1.21Z" transform="translate(0.29 -2.24)"/><path class="cls-3" d="M356.83,464.1a.63.63,0,0,1,0-1.25,9.5,9.5,0,0,0,7.73-3.6c10.76-13,2.22-57.65-2.36-81.62-.32-1.67-.62-3.25-.9-4.73a.24.24,0,0,0,0-.08c-5.21-27.54-22.25-42.1-50.63-43.29a.62.62,0,0,1-.6-.65.63.63,0,0,1,.65-.6c29.05,1.21,46.48,16.12,51.82,44.31,0,0,0,.07,0,.08.27,1.47.58,3.05.9,4.72,4.62,24.18,13.22,69.19,2.09,82.66A10.82,10.82,0,0,1,356.83,464.1Z" transform="translate(0.29 -2.24)"/><path class="cls-3" d="M413.44,502.49h-12.5a.63.63,0,0,1,0-1.25h12.5a.63.63,0,1,1,0,1.25Z" transform="translate(0.29 -2.24)"/><path class="cls-3" d="M119.21,511.75h-.06c-22.78-2.43-40.14-12.4-51.62-29.65C43.77,446.4,49.46,386.2,62.7,341.77A211.26,211.26,0,0,1,71,318.62c22.86-53.15,54.2-54.1,55.53-54.12v1.26h0c-1.28,0-31.84.95-54.38,53.36a211.62,211.62,0,0,0-8.2,23C50.74,386.29,45.06,446.07,68.57,481.4c11.27,16.91,28.33,26.7,50.71,29.09a.63.63,0,0,1-.07,1.26Z" transform="translate(0.29 -2.24)"/><path class="cls-3" d="M156.92,378.91a.63.63,0,0,1-.52-.28,121,121,0,0,0-8.9-12c-.64-.78-1.36-1.6-2.27-2.6-16.74-18.53-34.37-24.64-46.21-26.51-10.67-1.68-17.93-.16-18-.14a.63.63,0,0,1-.26-1.23c.3-.06,7.55-1.59,18.47.13,12,1.9,30,8.11,46.94,26.91.92,1,1.65,1.85,2.3,2.63a122.25,122.25,0,0,1,9,12.08.63.63,0,0,1-.18.87A.64.64,0,0,1,156.92,378.91Z" transform="translate(0.29 -2.24)"/><path class="cls-3" d="M391.31,362.39A20.34,20.34,0,0,1,378.67,358h0a20.45,20.45,0,1,1,12.64,4.37ZM379.45,357A19.19,19.19,0,1,0,372.12,342,19,19,0,0,0,379.45,357Z" transform="translate(0.29 -2.24)"/><path class="cls-4" d="M276.42,151.1v38.57a1.91,1.91,0,0,1-1.9,1.9H227.66a1.91,1.91,0,0,1-1.9-1.9V142.82a1.91,1.91,0,0,1,1.9-1.9h46.86a1.91,1.91,0,0,1,1.9,1.9Zm-6.51,28.08S273.54,161.12,267,159c-8-2.53-18.5,15.83-18.5,15.83s-2.28-14.06-17.35,4.31Zm-22.11-22a5.07,5.07,0,1,0-5.07,5.07A5.07,5.07,0,0,0,247.8,157.14Z" transform="translate(0.29 -2.24)"/><path class="cls-5" d="M267,159c6.54,2.08,2.91,20.14,2.91,20.14H231.15c15.07-18.37,17.35-4.31,17.35-4.31S259,156.51,267,159Z" transform="translate(0.29 -2.24)"/><path class="cls-3" d="M274.52,192.06H227.66a2.39,2.39,0,0,1-2.38-2.39V142.82a2.39,2.39,0,0,1,2.38-2.39h46.86a2.39,2.39,0,0,1,2.38,2.39v46.85A2.39,2.39,0,0,1,274.52,192.06ZM227.66,141.4a1.42,1.42,0,0,0-1.41,1.42v46.85a1.41,1.41,0,0,0,1.41,1.41h46.86a1.41,1.41,0,0,0,1.41-1.41V142.82a1.42,1.42,0,0,0-1.41-1.42Z" transform="translate(0.29 -2.24)"/><path class="cls-3" d="M269.91,179.66H231.15a.48.48,0,0,1-.43-.28.47.47,0,0,1,.06-.51c5.92-7.21,10.67-10.4,14.11-9.47,2.28.61,3.34,2.82,3.8,4.22,2.38-3.89,11.22-17.34,18.45-15,6.88,2.18,3.4,19.94,3.24,20.69A.47.47,0,0,1,269.91,179.66Zm-37.72-1h37.32c.47-2.61,2.89-17.43-2.66-19.19-7.52-2.38-17.82,15.43-17.92,15.61a.51.51,0,0,1-.51.24.49.49,0,0,1-.39-.4s-.67-3.89-3.39-4.62C242.61,169.79,238.82,170.83,232.19,178.69Z" transform="translate(0.29 -2.24)"/><path class="cls-3" d="M242.73,162.69a5.55,5.55,0,1,1,5.55-5.55A5.56,5.56,0,0,1,242.73,162.69Zm0-10.13a4.58,4.58,0,1,0,4.58,4.58A4.59,4.59,0,0,0,242.73,152.56Z" transform="translate(0.29 -2.24)"/></svg>