<svg id="Layer_1" data-name="Layer 1" xmlns="http://www.w3.org/2000/svg" viewBox="0 0 473.28 517.59"><defs><style>.cls-1{fill:#fff;}.cls-2{fill:#fbaf19;}.cls-3{fill:#4a253e;}.cls-4{fill:#3eb44a;}.cls-5{fill:#63425c;}.cls-6{fill:#dee2f2;}</style></defs><path class="cls-1" d="M38.15,449.34A37.32,37.32,0,0,0,70,434.22,33.6,33.6,0,0,0,38.15,449.34Z" transform="translate(-2.87 -3.41)"/><path class="cls-1" d="M10.8,421.34a37.28,37.28,0,0,0,35.17,2A33.58,33.58,0,0,0,10.8,421.34Z" transform="translate(-2.87 -3.41)"/><path class="cls-1" d="M459,321.78h0a374.08,374.08,0,0,1-38.44,26.47,322.25,322.25,0,0,1-44.67,22.28l8.35,6.92a.31.31,0,0,1,.11.2.3.3,0,0,1-.08.22l-8.89,10,9.08,7.95c2.13-.84,24.18-9.36,41.13-9.91A349.81,349.81,0,0,0,460.43,323h0c.63-1.52,1.1-2.7,1.42-3.52C460.89,320.27,459.92,321,459,321.78Z" transform="translate(-2.87 -3.41)"/><path class="cls-1" d="M384,396.28,375,388.33l-24.74,27.83,21.66,20.61Z" transform="translate(-2.87 -3.41)"/><path class="cls-1" d="M375.1,370.68l-8.46-7.06-.7-.58L321.2,414.82c9.45,7.09,16.81,11.84,18.13,12.69l44.26-49.79C382.74,377,379.66,374.48,375.1,370.68Z" transform="translate(-2.87 -3.41)"/><path class="cls-1" d="M271.53,390.73c6.56-.05,13.2-.33,19.75-.83a153.63,153.63,0,0,1-10.4-11.56C279.33,384.22,273.57,389.13,271.53,390.73Z" transform="translate(-2.87 -3.41)"/><path class="cls-1" d="M170.64,374a.29.29,0,0,1-.42,0,.29.29,0,0,1,0-.41,349,349,0,0,1,25.59-26.27L175.85,355a.24.24,0,0,1-.06.08,46.34,46.34,0,0,1-6.17,4.79c.7,1.07,2.77,5.32-1.66,13.5.78.26,1.55.53,2.33.78,33.72,11.12,67.42,16.7,100.25,16.57,1-.77,8.38-6.31,9.88-13-1-1.28-2-2.53-2.82-3.7-9.64-1.77-16.68-9.11-16.75-9.19a.29.29,0,0,1,0-.41.28.28,0,0,1,.41,0c.07.07,6.69,7,15.83,8.89a67.56,67.56,0,0,1-8.3-14.95.29.29,0,1,1,.55-.21A68.1,68.1,0,0,0,278,373.62h0c.88,1.22,1.86,2.52,2.93,3.86h0l0,0a149.17,149.17,0,0,0,11.18,12.43,268,268,0,0,0,28.58,24.52l44.76-51.8c-5.88-4.93-12.17-10.21-18.77-15.78-12.94-11-24.11-20.56-33.2-28.55C307.4,313,300.81,307.54,294,304.4h0a31.76,31.76,0,0,0-3.76-1.48c-16-5.09-27.22.35-41.49,7.24l-1.69.81c-13.27,6.4-27.88,16.52-43.41,30.1-2.09,1.82-4.22,3.72-6.33,5.66A348.64,348.64,0,0,0,170.64,374Z" transform="translate(-2.87 -3.41)"/><path class="cls-1" d="M196.67,320.58a37.73,37.73,0,0,0-17.58-4.3c-8.92.12-24.33,10.31-30.54,14.68-2.21,1.56-3.59,2.61-3.6,2.62a.33.33,0,0,1-.13,0c1.68,6.15,7,20.51,20.89,27.84h0a38.24,38.24,0,0,0,3.33-1.89,44.06,44.06,0,0,0,5.28-4l-4.21,1.62a.18.18,0,0,1-.1,0,.25.25,0,0,1-.12,0,.3.3,0,0,1-.16-.17l-2.61-7a.3.3,0,0,1,0-.23.31.31,0,0,1,.17-.15l22.27-8.32a37.18,37.18,0,0,0-7.84-1.41.29.29,0,0,1-.27-.31.3.3,0,0,1,.32-.27,36.18,36.18,0,0,1,8.68,1.66l6.16-2.3v-.91a19.15,19.15,0,0,0-5.16-3.15l-.06,0a38.42,38.42,0,0,0-9.16-2.66.29.29,0,0,1-.24-.34.28.28,0,0,1,.34-.24,38.71,38.71,0,0,1,9.25,2.68,23,23,0,0,0,5,.31V329a25.14,25.14,0,0,0-3.93-2h0a39,39,0,0,0-8.59-2.42.29.29,0,0,1-.25-.33.3.3,0,0,1,.34-.25,39.77,39.77,0,0,1,8.68,2.44,26.67,26.67,0,0,0,3.79.31Z" transform="translate(-2.87 -3.41)"/><path class="cls-1" d="M196.65,328.27v-1h-.08c-.59,0-1.24,0-1.93-.09C195.37,327.53,196,327.9,196.65,328.27Z" transform="translate(-2.87 -3.41)"/><path class="cls-1" d="M193.32,334.92a18.3,18.3,0,0,1,3.3,2.13v-2c-.34,0-.69,0-1.06,0C194.89,335.05,194.13,335,193.32,334.92Z" transform="translate(-2.87 -3.41)"/><path class="cls-1" d="M430.26,302.08l-21.2-73.89c-3.3,4.64-6.38,11.23-9.16,19.63h0a185.13,185.13,0,0,0-6.13,24.51L422.33,304C425.38,303.26,428.08,302.62,430.26,302.08Z" transform="translate(-2.87 -3.41)"/><path class="cls-1" d="M435.76,300.74l-22.25-77.51a24.87,24.87,0,0,0-4,4.36L430.83,302Z" transform="translate(-2.87 -3.41)"/><path class="cls-1" d="M421.48,304.21l.21-.06-28.34-31.38-11.51,3.65,11,35.58C403.64,309.05,418.22,305.09,421.48,304.21Z" transform="translate(-2.87 -3.41)"/><path class="cls-1" d="M396.9,327.18l-4.55-14.73h0v0L381.2,276.34h0l-4-12.82c-1.68.59-10.57,3.69-22.7,7.83l19.06,66C386.14,332.41,395.37,327.93,396.9,327.18Z" transform="translate(-2.87 -3.41)"/><path class="cls-1" d="M313.91,317.89c9.06,8,20.18,17.52,33.07,28.43,8.15-2.27,16.91-5.23,26.07-8.79l-19.06-66c-16.37,5.59-39.92,13.55-60,19.92l.4,12.47C301.21,307.12,307.8,312.52,313.91,317.89Z" transform="translate(-2.87 -3.41)"/><path class="cls-1" d="M248.48,309.62c13.82-6.67,25.75-12.44,41.93-7.27a34.12,34.12,0,0,1,3.39,1.31L291.65,236,203.94,268l-.21,72.15c15.4-13.39,29.88-23.41,43.07-29.76Z" transform="translate(-2.87 -3.41)"/><path class="cls-1" d="M190.53,341.65l-22.76,8.49,2.41,6.44L197,346.25c2.06-1.9,4.15-3.76,6.19-5.54l.21-72.46-5.92,2.17-.05,16.48a.27.27,0,0,1,0,.23l-.08,24.28.07.11a.29.29,0,0,1-.07.37l-.08,25.81h0V339a.28.28,0,0,1-.19.28l-6.45,2.41Z" transform="translate(-2.87 -3.41)"/><path class="cls-1" d="M133.66,267.31a4.74,4.74,0,0,1-.65-.05,50.41,50.41,0,0,1,2.63,12.91c.07.78.13,1.56.18,2.31a15.93,15.93,0,0,0,12.63,14.59h0a1.72,1.72,0,0,0,.33.08l.12,0,.25.05h.05l.9.15h0l.37.05a7.84,7.84,0,0,0,.82.08h0a17.73,17.73,0,0,0,2.73,0c4.26-.31,7.33-2,8.63-4.71a7.5,7.5,0,0,0-.71-7.36,23,23,0,0,1-3.07-5.79,8.14,8.14,0,0,1-.48-3.19,9.74,9.74,0,0,1-7.24,3.1,11.92,11.92,0,0,1-2-.17,19.52,19.52,0,0,1-15-11.8.31.31,0,0,1,.05-.32A4.93,4.93,0,0,1,133.66,267.31Z" transform="translate(-2.87 -3.41)"/><path class="cls-1" d="M126.23,237.78a10.35,10.35,0,0,0,1.21.58.29.29,0,0,1,.16.38.3.3,0,0,1-.27.19l-.11,0c-.34-.14-.67-.3-1-.47-2.79,6.43-.39,16.35.89,20.62a5,5,0,0,1,2.51-4,4.42,4.42,0,0,1,1.73-.48A4.63,4.63,0,0,1,135.6,257c.63,1.07,1.87,2.91,3.18,3.23A1.5,1.5,0,0,0,140,260c2.1-1.31,1.38-11.36.93-15.12a.28.28,0,0,1,.15-.28.29.29,0,0,1,.32,0c.05,0,5.63,4.06,9.64,3.22a4.35,4.35,0,0,0,2.95-2.19.29.29,0,0,1,.4-.11,17.54,17.54,0,0,0,9.21,2.11,9.28,9.28,0,0,0,6.07-3c3.36-3.63,4.07-9.9,1.56-14-2.16-3.52-6.21-4.64-11.42-3.16a104.64,104.64,0,0,1-17.91,3.32,45,45,0,0,0-8.88,1.57h0a.28.28,0,0,1-.35-.17h0c-.3-.89-1.88-5.3-4.12-5.21a1.09,1.09,0,0,0-1,.6c-.66,1.25,0,4.11,1.44,6.52v0a11,11,0,0,0,1.31,1.76.3.3,0,0,1,0,.42.29.29,0,0,1-.2.07.27.27,0,0,1-.21-.09,11.2,11.2,0,0,1-1.36-1.82c-1.49-1.57-4.77-4.29-6.54-3.36a1.08,1.08,0,0,0-.62,1C121.34,233.73,123.57,236.32,126.23,237.78Z" transform="translate(-2.87 -3.41)"/><path class="cls-1" d="M163.61,252.46a.39.39,0,0,1-.11-.06c-.1-.1-2.45-2.21-4.33-.6a.29.29,0,1,1-.38-.45c1.82-1.56,4-.24,4.79.36-.08-1.53-.17-2.91-.21-3.48a17.85,17.85,0,0,1-9-2.07,4.84,4.84,0,0,1-3.18,2.23c-3.56.74-8-1.93-9.57-2.95.32,3,1.26,13.45-1.28,15a2.08,2.08,0,0,1-1.68.28c-1.45-.35-2.73-2.1-3.54-3.5a4.06,4.06,0,0,0-3.7-2.06,3.86,3.86,0,0,0-1.5.42c-1.75.91-2.6,3.14-2.1,5.55v0a7.15,7.15,0,0,0,.69,1.92,6.53,6.53,0,0,0,4.14,3.46,4,4,0,0,0,2.81-.3.3.3,0,0,1,.4.13.3.3,0,0,1-.12.4,4.43,4.43,0,0,1-1.16.4.27.27,0,0,1,.14.14,18.69,18.69,0,0,0,14.56,11.46,9.51,9.51,0,0,0,9.47-3.58l0,0c3.07-3.83,4.79-10.38,4.95-18.94C163.72,255.27,163.68,253.85,163.61,252.46Z" transform="translate(-2.87 -3.41)"/><path class="cls-1" d="M99.47,383c.26-.07,26.2-6.85,34.51,18.27,8-2.67,16.32-8.13,23.52-15.41a59.6,59.6,0,0,0,9.78-12.42c4.48-8.08,2.43-12.28,1.84-13.21-.92.57-1.85,1.1-2.78,1.58l1.18.56a.3.3,0,0,1,.14.39.29.29,0,0,1-.27.17.25.25,0,0,1-.12,0c-.59-.27-1.12-.53-1.62-.79-14.51-7.52-19.85-22.51-21.47-28.6-.4-1.51-.56-2.4-.57-2.44a.3.3,0,0,1,.59-.1s.14.79.47,2.09c.3-.23,1.52-1.14,3.33-2.42a4.67,4.67,0,0,0-2.77-2c-2.45-.75-7.11-.49-15.46,5-6.81,4.47-15,11.71-24.34,21.5a.27.27,0,0,1-.21.09.29.29,0,0,1-.21-.5c9.09-9.53,17.1-16.64,23.81-21.16-5.59-.67-13.29,4.38-13.38,4.44a.29.29,0,0,1-.16,0,.27.27,0,0,1-.24-.13.29.29,0,0,1,.08-.41c.35-.23,8.56-5.61,14.42-4.42,7.91-5.18,12.64-5.74,15.31-5.16a.2.2,0,0,1,0-.07c1.27-3.71.82-9.14.82-9.2a.31.31,0,0,1,.27-.32.31.31,0,0,1,.32.27c0,.23.46,5.61-.85,9.44l0,0h0a5.26,5.26,0,0,1,3.06,2.26c7.83-5.49,22-14.48,30.6-14.6a38.33,38.33,0,0,1,17.59,4.22l0-8.34c-2.82-4.39-8.62-11.91-8.68-12a.3.3,0,0,1,.47-.36c.06.07,5.25,6.82,8.21,11.28l.08-23.37c-15.06-11.77-36.8-7.45-37-7.41a.28.28,0,0,1-.22,0,23.1,23.1,0,0,0,2.92,5.44,8.05,8.05,0,0,1,.76,7.94A8.16,8.16,0,0,1,159,297a25.87,25.87,0,0,0,11.26-5.66.3.3,0,0,1,.42,0,.29.29,0,0,1,0,.41,26.37,26.37,0,0,1-17.25,6.43c-.77,0-1.46,0-2.07-.09h-.18l-.68-.07-.17,0-.13,0H150l-.93-.16-.33-.06h-.1l-.36-.09a16.51,16.51,0,0,1-13.08-15.12q-.06-1-.15-2c-30.75,13-38.08,43.15-39.71,60-1.4,14.39.13,30.23,4.09,42.45Z" transform="translate(-2.87 -3.41)"/><path class="cls-1" d="M113.56,383.18a34.79,34.79,0,0,0-13.92.37,40.84,40.84,0,0,0,4.25,9.32c6.37,9.57,16.85,12.61,29.53,8.56C130,391.16,123.34,385,113.56,383.18Z" transform="translate(-2.87 -3.41)"/><path class="cls-1" d="M85.49,427.78a35.78,35.78,0,0,0-6.9-18.84A33.71,33.71,0,0,0,76.48,417a38.78,38.78,0,0,0,6.63,27.54A41,41,0,0,0,85.49,427.78Z" transform="translate(-2.87 -3.41)"/><path class="cls-1" d="M114.34,452.5l-.89-.64c-.5,1.21-1,2.3-1.52,3.28C112.7,454.23,113.51,453.35,114.34,452.5Z" transform="translate(-2.87 -3.41)"/><path class="cls-1" d="M113.26,424.39a34,34,0,0,0-7.61,20.79,35,35,0,0,0,3,14.11c.24-.32.48-.65.74-1h0a37.24,37.24,0,0,0,3.9-33.91Z" transform="translate(-2.87 -3.41)"/><polygon class="cls-1" points="94.79 462.04 73.28 462.04 79.89 516.69 115.38 516.69 121.99 462.04 94.8 462.04 94.79 462.04"/><path class="cls-1" d="M191.9,478.8a13.32,13.32,0,0,0-6.93,1.92h0l-.06,0h-.17l-.05,0,0,0,0-.05,0,0v0a.14.14,0,0,1,0-.06l0-.06v-7.17H144.39v35.2A11.61,11.61,0,0,0,156,520.1h16.94a11.6,11.6,0,0,0,11.59-11.59V504s0,0,0-.06,0,0,0,0v0l0,0,0,0,0,0,.05,0,.06,0h.11l.06,0h0a13.43,13.43,0,0,0,20.35-11.5,13.26,13.26,0,0,0-.24-2.51A13.41,13.41,0,0,0,191.9,478.8Zm0,23.23a9.81,9.81,0,0,1-6.79-2.75v1.51a.3.3,0,1,1-.59,0V484.11a.3.3,0,0,1,.59,0v1.05h0a9.74,9.74,0,0,1,6.79-2.73,9.85,9.85,0,0,1,9.16,6.33A9.8,9.8,0,0,1,191.9,502Z" transform="translate(-2.87 -3.41)"/><path class="cls-1" d="M349.82,416.6,339.6,428.09a.28.28,0,0,1-.22.09.28.28,0,0,1-.15,0c-.08-.05-8.09-5.11-18.63-13a268.4,268.4,0,0,1-28.77-24.65c-7,.55-14.1.85-21.1.88l-.12,0a.27.27,0,0,1-.12,0h-1.05c-32.52,0-65.93-5.58-99.34-16.6l-2.43-.81a60.07,60.07,0,0,1-9.75,12.33c-7.46,7.54-15.77,12.95-24,15.65a34.57,34.57,0,0,1-10.69,1.82,22.87,22.87,0,0,1-19.8-10.52A42.16,42.16,0,0,1,99,383.41c-4-12.27-5.58-28.23-4.2-42.73-10.66-6.15-21.27-12.85-31.55-19.93a422.62,422.62,0,0,1-47.37-37.61h0c-1.23-1.15-2.13-2-2.68-2.55.12.75.32,2,.62,3.62h0C17.07,302.11,31.22,364.38,76,416.41a31.88,31.88,0,0,1,2.28-8.18.32.32,0,0,1,.24-.17.36.36,0,0,1,.27.12,36.34,36.34,0,0,1,7.29,19.28.36.36,0,0,1,.15.08c2.68,2.74,5.47,5.43,8.29,8-4.69-22.08-14.22-41-21.48-53a37.87,37.87,0,0,1-19.24-31.21.33.33,0,0,1,.15-.25.31.31,0,0,1,.28,0,34.12,34.12,0,0,1,19.27,31.09,191,191,0,0,1,11.92,23.2,37.89,37.89,0,0,1,6.52-31.17.26.26,0,0,1,.26-.1.29.29,0,0,1,.23.17,34.18,34.18,0,0,1-4.87,36.3,157.31,157.31,0,0,1,7.71,25.68c3.2,2.91,6.51,5.74,9.84,8.43a34.45,34.45,0,0,1,8.07-21.06.3.3,0,0,1,.27-.08.31.31,0,0,1,.22.18,37.49,37.49,0,0,1,0,27.58l1.07.77a63.42,63.42,0,0,1,8.58-7.33.29.29,0,0,1,.14-.13l.08,0a58.31,58.31,0,0,1,15-7.62.32.32,0,0,1,0-.17c5.8-22.23,25.73-25.37,25.93-25.4a.28.28,0,0,1,.26.1.29.29,0,0,1,.06.28,37.76,37.76,0,0,1-21.19,23.76,63.32,63.32,0,0,1,22.23-1.07c21.91-6.74,35.06,8.49,35.19,8.65a.28.28,0,0,1,.05.28.27.27,0,0,1-.2.19,40,40,0,0,1-9.92,1.28A37.38,37.38,0,0,1,165.71,435c-15-1.79-28.61,1.26-40.4,9.07a33.74,33.74,0,0,1,33.34,9.46.31.31,0,0,1,0,.28.27.27,0,0,1-.21.19,40.18,40.18,0,0,1-9.67,1.2,36.9,36.9,0,0,1-25.26-9.94,62.46,62.46,0,0,0-8.32,7.12,208.14,208.14,0,0,0,35.17,20.3h34.4a.3.3,0,0,1,.3.3V480a14,14,0,0,1,20.5,9.45c3,.51,6.1,1,9.26,1.4,59.71,7.86,113.88-8.67,161-49.15l-4.09-4.14Z" transform="translate(-2.87 -3.41)"/><path class="cls-1" d="M157.87,453.59c-2.09-2.26-14.29-14.13-33.74-8.56A36.67,36.67,0,0,0,157.87,453.59Z" transform="translate(-2.87 -3.41)"/><path class="cls-1" d="M166.41,434.89a37,37,0,0,0,33.82,8.24C198.12,440.9,185.81,429.14,166.41,434.89Z" transform="translate(-2.87 -3.41)"/><path class="cls-1" d="M164.07,412.06c-3,.62-19.5,4.88-24.84,24.4A37,37,0,0,0,164.07,412.06Z" transform="translate(-2.87 -3.41)"/><path class="cls-1" d="M87.36,409.87A33.6,33.6,0,0,0,92.06,375,37.32,37.32,0,0,0,87.36,409.87Z" transform="translate(-2.87 -3.41)"/><path class="cls-1" d="M54.37,351.83a37.34,37.34,0,0,0,18.52,30A33.53,33.53,0,0,0,54.37,351.83Z" transform="translate(-2.87 -3.41)"/><path class="cls-1" d="M378.5,443.46l3.58,3.57,54.77-59.18a24.65,24.65,0,0,0-5.8-1.18Z" transform="translate(-2.87 -3.41)"/><path class="cls-1" d="M425.72,386.52c-17,.5-39.22,9.14-41.11,9.88l-12.26,40.84c1.52,1.55,2.93,3,4.18,4.23l1.55,1.57,52.22-56.43A42.89,42.89,0,0,0,425.72,386.52Z" transform="translate(-2.87 -3.41)"/><circle class="cls-2" cx="139.48" cy="90.47" r="43.88"/><path class="cls-3" d="M269,118.93l-.2,0c-.55-.2-1.12-.38-1.69-.54a.6.6,0,0,1,.33-1.16c.59.17,1.18.36,1.76.56a.6.6,0,0,1,.37.76A.61.61,0,0,1,269,118.93Z" transform="translate(-2.87 -3.41)"/><path class="cls-3" d="M258.31,190.18a.6.6,0,0,1,0-1.2,34.91,34.91,0,0,0,3.55-.3.61.61,0,0,1,.16,1.2c-1.21.16-2.44.26-3.67.3Zm-7.21-.46H251c-1.21-.2-2.42-.46-3.6-.77a.61.61,0,0,1,.31-1.17,34.78,34.78,0,0,0,3.48.75.6.6,0,0,1-.09,1.2Zm17.86-1.5a.6.6,0,0,1-.57-.41.61.61,0,0,1,.37-.77,34.91,34.91,0,0,0,3.3-1.32.6.6,0,1,1,.51,1.09,34.83,34.83,0,0,1-3.42,1.37A.43.43,0,0,1,269,188.22Zm-28.17-1.81a.58.58,0,0,1-.26-.06c-1.1-.54-2.18-1.15-3.22-1.79a.61.61,0,0,1-.19-.83.6.6,0,0,1,.83-.2c1,.63,2.05,1.21,3.11,1.74a.6.6,0,0,1-.27,1.14Zm37.77-3.2a.6.6,0,0,1-.49-.24.61.61,0,0,1,.13-.85,34.78,34.78,0,0,0,2.78-2.23.6.6,0,1,1,.8.9c-.92.82-1.88,1.59-2.87,2.31A.58.58,0,0,1,278.56,183.21Zm-46.65-3a.58.58,0,0,1-.41-.17c-.89-.84-1.75-1.73-2.55-2.65a.6.6,0,1,1,.91-.79c.78.89,1.61,1.75,2.47,2.57a.6.6,0,0,1,0,.85A.59.59,0,0,1,231.91,180.23Zm54.37-4.59a.57.57,0,0,1-.36-.13.59.59,0,0,1-.12-.84,34.66,34.66,0,0,0,2-2.94.58.58,0,0,1,.82-.2.59.59,0,0,1,.2.83,36.18,36.18,0,0,1-2.07,3A.63.63,0,0,1,286.28,175.64Zm-61.06-3.92a.6.6,0,0,1-.53-.3c-.6-1.06-1.16-2.16-1.66-3.28a.6.6,0,1,1,1.1-.49,33.67,33.67,0,0,0,1.61,3.17.61.61,0,0,1-.22.83A.66.66,0,0,1,225.22,171.72Zm66.24-5.59a.76.76,0,0,1-.21,0,.62.62,0,0,1-.36-.78c.4-1.11.76-2.25,1.05-3.4a.59.59,0,0,1,.73-.43.6.6,0,0,1,.44.73,35.81,35.81,0,0,1-1.09,3.52A.6.6,0,0,1,291.46,166.13Zm-70.17-4.49a.62.62,0,0,1-.59-.47c-.27-1.2-.48-2.42-.63-3.63a.61.61,0,0,1,.53-.67.6.6,0,0,1,.67.52,34.32,34.32,0,0,0,.61,3.51.6.6,0,0,1-.46.72Zm72.33-6.11h0a.6.6,0,0,1-.56-.64c0-.66.05-1.32.05-2s0-1.06,0-1.59a.62.62,0,0,1,.58-.63.6.6,0,0,1,.63.58c0,.54,0,1.09,0,1.64s0,1.36,0,2A.6.6,0,0,1,293.62,155.53Zm-73.12-4.69h0a.61.61,0,0,1-.56-.65c0-.4.07-.8.11-1.2.09-.82.21-1.64.35-2.45a.6.6,0,1,1,1.18.21c-.13.78-.24,1.58-.33,2.37,0,.39-.08.78-.1,1.16A.61.61,0,0,1,220.5,150.84Zm72.1-6.09a.59.59,0,0,1-.58-.46c-.29-1.15-.63-2.29-1-3.41a.6.6,0,0,1,.36-.77.6.6,0,0,1,.77.37,35.71,35.71,0,0,1,1.07,3.52.61.61,0,0,1-.44.73Zm-69.71-4.46a.54.54,0,0,1-.22,0,.61.61,0,0,1-.35-.78c.45-1.14,1-2.27,1.51-3.36a.6.6,0,0,1,1.07.55c-.53,1-1,2.15-1.45,3.25A.6.6,0,0,1,222.89,140.29Zm65.58-5.54a.6.6,0,0,1-.52-.3c-.61-1-1.27-2-2-3a.6.6,0,0,1,.12-.84.62.62,0,0,1,.85.12c.73,1,1.41,2,2,3.06a.61.61,0,0,1-.51.92Zm-60.21-3.86a.62.62,0,0,1-.38-.13.6.6,0,0,1-.1-.84c.76-1,1.57-1.89,2.42-2.77a.61.61,0,0,1,.86,0,.6.6,0,0,1,0,.85c-.82.85-1.61,1.76-2.34,2.68A.6.6,0,0,1,228.26,130.89Zm7.88-7.41a.58.58,0,0,1-.49-.26.6.6,0,0,1,.15-.84c1-.7,2-1.35,3.12-1.95a.6.6,0,1,1,.58,1c-1,.58-2,1.21-3,1.89A.6.6,0,0,1,236.14,123.48Zm9.7-4.8a.61.61,0,0,1-.57-.42.6.6,0,0,1,.39-.76c1.16-.37,2.36-.69,3.55-1a.6.6,0,1,1,.26,1.18c-1.16.25-2.32.56-3.44.92A.63.63,0,0,1,245.84,118.68Zm14.3-1.61h-.05a35.31,35.31,0,0,0-3.56-.14.62.62,0,0,1-.61-.59.6.6,0,0,1,.6-.61c1.21,0,2.45,0,3.67.13a.61.61,0,0,1-.05,1.21Z" transform="translate(-2.87 -3.41)"/><path class="cls-3" d="M281.55,126.35a.61.61,0,0,1-.4-.16c-.44-.39-.89-.78-1.35-1.16a.6.6,0,0,1-.09-.85.61.61,0,0,1,.85-.08c.47.38.94.79,1.4,1.19a.62.62,0,0,1,0,.86A.61.61,0,0,1,281.55,126.35Z" transform="translate(-2.87 -3.41)"/><path class="cls-3" d="M274.49,128.6a7,7,0,1,1,1.37-.13h0A7.14,7.14,0,0,1,274.49,128.6Zm1.25-.73h0Zm-1.24-12.1a5.32,5.32,0,0,0-1.12.11,5.8,5.8,0,1,0,1.12-.11Z" transform="translate(-2.87 -3.41)"/><circle class="cls-4" cx="417.66" cy="169.03" r="15.84" transform="translate(166.58 541.66) rotate(-78.61)"/><path class="cls-3" d="M314.17,172.52a.6.6,0,0,1-.4-1.05c.9-.81,1.83-1.6,2.77-2.36a.61.61,0,0,1,.85.08.6.6,0,0,1-.09.85c-.92.75-1.84,1.53-2.73,2.33A.62.62,0,0,1,314.17,172.52Zm8.58-6.62a.6.6,0,0,1-.33-1.1c1-.67,2.05-1.32,3.09-1.93a.6.6,0,1,1,.62,1c-1,.61-2.05,1.25-3,1.91A.69.69,0,0,1,322.75,165.9Zm75.75-3.75a.55.55,0,0,1-.28-.07c-1.06-.55-2.14-1.09-3.22-1.59a.6.6,0,0,1,.51-1.09c1.1.51,2.2,1,3.27,1.62a.6.6,0,0,1-.28,1.13Zm-66.29-1.55a.59.59,0,0,1-.54-.34.6.6,0,0,1,.29-.8c1.09-.52,2.22-1,3.33-1.47a.6.6,0,1,1,.46,1.11c-1.1.45-2.2.94-3.28,1.45A.58.58,0,0,1,332.21,160.6Zm56.35-2.79-.2,0c-1.12-.4-2.27-.78-3.41-1.12a.6.6,0,1,1,.35-1.15c1.16.35,2.32.73,3.46,1.13a.6.6,0,0,1-.2,1.17Zm-46.22-1.09a.61.61,0,0,1-.58-.43.59.59,0,0,1,.4-.75c1.16-.35,2.34-.68,3.52-1a.6.6,0,0,1,.73.43.61.61,0,0,1-.44.74c-1.16.28-2.32.61-3.46.95ZM378.11,155H378c-1.17-.23-2.36-.44-3.54-.61a.6.6,0,1,1,.18-1.19c1.2.17,2.41.38,3.59.61a.62.62,0,0,1,.48.71A.61.61,0,0,1,378.11,155Zm-25.2-.61a.6.6,0,0,1-.08-1.19c1.19-.18,2.41-.33,3.62-.45a.6.6,0,1,1,.11,1.2c-1.18.12-2.38.26-3.56.44Zm14.43-.71h0c-1.19,0-2.39-.08-3.58-.08a.61.61,0,0,1-.61-.61.6.6,0,0,1,.6-.6h0c1.21,0,2.43,0,3.63.09a.6.6,0,0,1,0,1.2Z" transform="translate(-2.87 -3.41)"/><path class="cls-3" d="M429.94,261.89a.71.71,0,0,1-.28-.06.61.61,0,0,1-.26-.81c.54-1.06,1.07-2.15,1.56-3.23a.6.6,0,1,1,1.1.49c-.5,1.11-1,2.21-1.59,3.29A.59.59,0,0,1,429.94,261.89Zm4.23-10a.63.63,0,0,1-.19,0,.6.6,0,0,1-.38-.76c.38-1.13.75-2.28,1.08-3.43a.6.6,0,0,1,.74-.41.61.61,0,0,1,.42.75c-.34,1.16-.71,2.33-1.1,3.48A.59.59,0,0,1,434.17,251.91Zm2.75-10.48h-.11a.6.6,0,0,1-.48-.71c.21-1.17.4-2.36.56-3.54a.61.61,0,1,1,1.2.16c-.16,1.2-.36,2.41-.58,3.6A.61.61,0,0,1,436.92,241.43Zm1.19-10.78h0a.6.6,0,0,1-.58-.63c0-.91.05-1.84.05-2.75v-.83a.6.6,0,0,1,1.2,0c0,.28,0,.57,0,.85,0,.92,0,1.87,0,2.8A.61.61,0,0,1,438.11,230.65Zm-.38-10.84a.59.59,0,0,1-.6-.53c-.13-1.19-.29-2.38-.48-3.56a.6.6,0,1,1,1.19-.19c.19,1.2.35,2.41.49,3.62a.61.61,0,0,1-.54.66Zm-2-10.66a.61.61,0,0,1-.59-.45c-.3-1.14-.63-2.3-1-3.45a.6.6,0,0,1,1.15-.36c.36,1.16.7,2.34,1,3.51a.6.6,0,0,1-.43.73A.39.39,0,0,1,435.76,209.15Zm-3.51-10.26a.59.59,0,0,1-.55-.37c-.41-.94-.83-1.89-1.27-2.81l-.22-.45a.61.61,0,0,1,1.09-.53l.22.46c.44.94.88,1.9,1.28,2.86a.59.59,0,0,1-.31.79A.52.52,0,0,1,432.25,198.89Zm-4.94-9.65a.59.59,0,0,1-.52-.29c-.62-1-1.27-2-1.94-3a.6.6,0,0,1,1-.67c.68,1,1.34,2,2,3.07a.6.6,0,0,1-.2.82A.61.61,0,0,1,427.31,189.24Z" transform="translate(-2.87 -3.41)"/><path class="cls-3" d="M415.14,189.94a16.44,16.44,0,0,1-15.51-22A16.45,16.45,0,0,1,430,166.45a16.43,16.43,0,0,1-14.84,23.49Zm0-31.69a15.22,15.22,0,0,0-6.52,1.48h0a15.09,15.09,0,1,0,6.52-1.48Zm-6.78.94Z" transform="translate(-2.87 -3.41)"/><path class="cls-2" d="M207.11,194.47A22.53,22.53,0,1,1,184.58,217,22.53,22.53,0,0,1,207.11,194.47Zm7.68,35.84v-8.53a6.85,6.85,0,0,0-6.84-6.85h-1.69a6.85,6.85,0,0,0-6.84,6.85v8.53Zm-3.32-22.25a4.37,4.37,0,1,0-4.36,4.36A4.36,4.36,0,0,0,211.47,208.06Z" transform="translate(-2.87 -3.41)"/><path class="cls-2" d="M133.8,401.62c-11.9,3.89-23.24,1.81-30.15-8.59a41.15,41.15,0,0,1-4.4-9.71l.3-.05S125.58,376.14,133.8,401.62Z" transform="translate(-2.87 -3.41)"/><path class="cls-2" d="M354.18,271.17l19.22,66.54c-7.84,3.06-17,6.29-26.48,8.93h0c-11.09-9.39-23-19.58-33.19-28.54-5.6-4.92-12.53-10.72-19.61-14l-.41-12.87c19.85-6.31,43.42-14.25,60.48-20.09Z" transform="translate(-2.87 -3.41)"/><path class="cls-2" d="M280.74,377.69c-1.54,7.24-9.85,13.16-10.11,13.34-36,.15-69.82-6.48-100.43-16.58l.21-.66a348.4,348.4,0,0,1,26.7-27.28q3-2.81,6.33-5.68c12.81-11.19,28.1-22.72,43.49-30.13,14.82-7.14,26.69-13.4,43.39-8.07a31.29,31.29,0,0,1,3.79,1.49c7.08,3.27,14,9.07,19.61,14,10.19,9,22.1,19.15,33.19,28.54,6.85,5.79,13.38,11.27,19,16l-45.14,52.23a273.35,273.35,0,0,1-28.83-24.71A150.45,150.45,0,0,1,280.74,377.69Z" transform="translate(-2.87 -3.41)"/><path class="cls-4" d="M172.18,98.45a15,15,0,0,1-.72-4.57,14.81,14.81,0,1,1,.72,4.57Z" transform="translate(-2.87 -3.41)"/><polygon class="cls-4" points="382.45 192.26 369.94 210.89 350.21 240.29 328.36 210.85 334.65 206.18 349.89 226.71 364.23 205.35 375.95 187.9 382.45 192.26"/><path class="cls-4" d="M462.52,318.59c0,.13-.65,1.73-1.82,4.54a349.45,349.45,0,0,1-35,63.09c-17.61.52-40.85,9.76-41.34,10h0l-9.44-8.26L384,377.69s-3.32-2.74-8.72-7.24h0A319,319,0,0,0,420.36,348a370.56,370.56,0,0,0,38.42-26.46Q460.64,320.09,462.52,318.59Z" transform="translate(-2.87 -3.41)"/><path class="cls-5" d="M430.93,386.36l-52.79,57.05-.05,0-1.77-1.78c-1.28-1.29-2.74-2.76-4.31-4.37h0l12.35-41.13c.49-.2,23.73-9.44,41.34-10A44.59,44.59,0,0,1,430.93,386.36Z" transform="translate(-2.87 -3.41)"/><path class="cls-5" d="M430.61,302.23l0,.07c-2.27.55-5.14,1.24-8.41,2h0l-28.78-31.88a184.19,184.19,0,0,1,6.17-24.69h0c2.44-7.34,5.61-14.84,9.56-20.2Z" transform="translate(-2.87 -3.41)"/><path class="cls-6" d="M365.91,362.63c-5.62-4.71-12.15-10.19-19-16h0c9.48-2.64,18.64-5.87,26.48-8.93,14-5.47,23.85-10.38,23.85-10.38l-4.62-15,28.93-7.87a117.22,117.22,0,0,1-1.2,43.52,319,319,0,0,1-45.06,22.43h0Z" transform="translate(-2.87 -3.41)"/><path class="cls-1" d="M381.48,276.23l11.15,36.12h0l4.62,15s-9.82,4.91-23.85,10.38l-19.22-66.54h0c13.73-4.69,23.26-8,23.26-8Z" transform="translate(-2.87 -3.41)"/><path class="cls-1" d="M349.8,416.18l-10.42,11.71s-7.95-5-18.61-13l45.14-52.23,9.38,7.82c5.4,4.5,8.72,7.24,8.72,7.24l-9.09,10.23Z" transform="translate(-2.87 -3.41)"/><path class="cls-4" d="M372,437.31,349.8,416.18l-10.42,11.71s-7.95-5-18.61-13a273.35,273.35,0,0,1-28.83-24.71q-10.77.86-21.31.88A308.89,308.89,0,0,1,189.1,380.1q-9.65-2.58-18.9-5.65l-2.66-.89a58.77,58.77,0,0,1-9.83,12.49c-7.4,7.47-15.78,12.92-23.91,15.57-6.69,2.19-13.21,2.49-18.86.48h0A22.44,22.44,0,0,1,103.65,393a41.15,41.15,0,0,1-4.4-9.71c-3.5-10.7-5.75-26.51-4.17-42.81h0c-11.63-6.69-22.24-13.49-31.68-20a418.39,418.39,0,0,1-47.34-37.59c-2.17-2-3.3-3.16-3.3-3.16s.22,1.59.75,4.51C16.65,301.45,30.79,364.54,76.05,417l.14,0a31.87,31.87,0,0,1,2.33-8.61,36,36,0,0,1,7.26,19.4H86q4.32,4.41,9,8.66,4.94,4.48,10.25,8.76h.14a33.73,33.73,0,0,1,8-21.34,37,37,0,0,1-.06,27.61l.16.06,1.32,1A208.1,208.1,0,0,0,150.34,473h34.47v7.44a13.75,13.75,0,0,1,20.56,9.21c3.11.54,6.26,1,9.46,1.43,69.3,9.13,122.49-15.85,161.49-49.42C375,440.39,373.58,438.92,372,437.31ZM73.17,382.24h0v.06a37.25,37.25,0,0,1-19.1-30.95A33.62,33.62,0,0,1,73.17,382.24Zm14.09,28.19a37.25,37.25,0,0,1,4.87-36A33.62,33.62,0,0,1,87.26,410.43Zm36.34,34.48,0,0,.1,0c22-6.52,34.75,8.91,34.75,8.91C137.35,458.92,124.26,445.62,123.6,444.91Zm15.22-8c5.81-22.3,25.68-25.19,25.68-25.19C157.79,432.94,138.82,436.87,138.82,436.87Zm27-2.11c22-6.82,34.94,8.54,34.94,8.54C179.19,448.8,165.84,434.76,165.84,434.76Z" transform="translate(-2.87 -3.41)"/><path class="cls-5" d="M313.24,171.45v41.48a2.36,2.36,0,0,1-2.35,2.36H252.7a2.36,2.36,0,0,1-2.36-2.36V154.75a2.37,2.37,0,0,1,2.36-2.37h58.19a2.37,2.37,0,0,1,2.35,2.37Zm-8.08,28.45s4.51-22.43-3.62-25c-9.91-3.14-23,19.66-23,19.66s-2.83-17.46-21.54,5.35Z" transform="translate(-2.87 -3.41)"/><path class="cls-5" d="M293.7,291.25l.41,12.87a31.29,31.29,0,0,0-3.79-1.49c-16.7-5.33-28.57.93-43.39,8.07-15.39,7.41-30.68,18.94-43.49,30.13h0l.21-73h0l88.28-32.27Zm-33-2c3.3-1.79,5.23-3.92,4.77-5.61s-2.86-2.41-6.23-2.4c-1.55-2.93-4.09-4.76-6.77-4.5-3.23.32-5.68,3.57-6.22,7.79-3.54,1.83-5.67,4.07-5.19,5.84s3.06,2.48,6.64,2.39h0c1.55,2.91,4.08,4.72,6.75,4.46C257.73,296.93,260.2,293.59,260.69,289.28Z" transform="translate(-2.87 -3.41)"/><path class="cls-6" d="M280.74,377.69a150.45,150.45,0,0,0,11.2,12.46q-10.77.86-21.31.88C270.89,390.85,279.2,384.93,280.74,377.69Z" transform="translate(-2.87 -3.41)"/><path class="cls-1" d="M214.79,221.78v8.53H199.42v-8.53a6.85,6.85,0,0,1,6.84-6.85H208A6.85,6.85,0,0,1,214.79,221.78Z" transform="translate(-2.87 -3.41)"/><path class="cls-1" d="M207.11,203.69a4.37,4.37,0,1,1-4.37,4.37A4.36,4.36,0,0,1,207.11,203.69Z" transform="translate(-2.87 -3.41)"/><path class="cls-1" d="M184.81,498.57a9.51,9.51,0,0,0,16.59-6.34,9.26,9.26,0,0,0-.62-3.38,9.49,9.49,0,0,0-15.47-3.48c-.17.16-.33.33-.5.51Zm20.56-8.9a13.47,13.47,0,0,1,.24,2.56A13.73,13.73,0,0,1,184.81,504v4.53a11.89,11.89,0,0,1-11.88,11.89H156a11.9,11.9,0,0,1-11.9-11.89V473h40.72v7.44a13.75,13.75,0,0,1,20.56,9.21Z" transform="translate(-2.87 -3.41)"/><path class="cls-5" d="M200.78,443.3c-21.59,5.5-34.94-8.54-34.94-8.54C187.86,427.94,200.78,443.3,200.78,443.3Z" transform="translate(-2.87 -3.41)"/><path class="cls-5" d="M126.08,238c-3.66-2-6.43-6-4.23-7.19,2.38-1.25,6.66,3.18,6.89,3.42-2-3.32-2.53-7.49-.21-7.57s4.07,4.38,4.41,5.4c5.67-1.93,13.83-1.2,26.8-4.9,13.89-3.95,16.17,11.14,10.15,17.63a9.6,9.6,0,0,1-6.25,3.09,17.89,17.89,0,0,1-9.39-2.15c-3.49,6-13-.94-13-.94s1.65,13.7-1.06,15.4c-1.91,1.2-3.85-1.46-4.82-3.12a4.31,4.31,0,0,0-4-2.2,4,4,0,0,0-1.61.45c-1.93,1-2.77,3.4-2.26,5.87C127.24,260.49,122.22,246.33,126.08,238Z" transform="translate(-2.87 -3.41)"/><path class="cls-5" d="M161,253.9c.68,0,1.24,1,1.24,2.15s-.56,2.15-1.24,2.15-1.24-1-1.24-2.15S160.3,253.9,161,253.9Z" transform="translate(-2.87 -3.41)"/><path class="cls-5" d="M138.82,436.87c5.81-22.3,25.68-25.19,25.68-25.19C157.79,432.94,138.82,436.87,138.82,436.87Z" transform="translate(-2.87 -3.41)"/><path class="cls-5" d="M149.25,253.9c.68,0,1.23,1,1.23,2.15s-.55,2.15-1.23,2.15-1.24-1-1.24-2.15S148.57,253.9,149.25,253.9Z" transform="translate(-2.87 -3.41)"/><path class="cls-5" d="M158.42,453.76c-21.07,5.16-34.16-8.14-34.82-8.85l.07-.06C145.68,438.33,158.42,453.76,158.42,453.76Z" transform="translate(-2.87 -3.41)"/><path class="cls-5" d="M113.36,423.83a37,37,0,0,1-.06,27.61,37.4,37.4,0,0,1-3.7,7h0c-.37.49-.71.95-1,1.4a35.06,35.06,0,0,1-3.2-14.71A33.73,33.73,0,0,1,113.36,423.83Z" transform="translate(-2.87 -3.41)"/><path class="cls-1" d="M93,266.88a2.69,2.69,0,1,1-2.68,2.68A2.68,2.68,0,0,1,93,266.88Z" transform="translate(-2.87 -3.41)"/><path class="cls-1" d="M93,277.08a2.69,2.69,0,1,1-2.68,2.68A2.68,2.68,0,0,1,93,277.08Z" transform="translate(-2.87 -3.41)"/><path class="cls-1" d="M93,287.28A2.68,2.68,0,1,1,90.31,290,2.68,2.68,0,0,1,93,287.28Z" transform="translate(-2.87 -3.41)"/><path class="cls-5" d="M92.13,374.39a33.62,33.62,0,0,1-4.87,36A37.25,37.25,0,0,1,92.13,374.39Z" transform="translate(-2.87 -3.41)"/><path class="cls-5" d="M85.78,427.76a40,40,0,0,1-2.61,17.41,39.08,39.08,0,0,1-7-28.2,31.87,31.87,0,0,1,2.33-8.61A36,36,0,0,1,85.78,427.76Z" transform="translate(-2.87 -3.41)"/><path class="cls-1" d="M82.67,266.88A2.69,2.69,0,1,1,80,269.56,2.68,2.68,0,0,1,82.67,266.88Z" transform="translate(-2.87 -3.41)"/><path class="cls-1" d="M82.67,277.08A2.69,2.69,0,1,1,80,279.76,2.68,2.68,0,0,1,82.67,277.08Z" transform="translate(-2.87 -3.41)"/><path class="cls-1" d="M82.67,287.28A2.68,2.68,0,1,1,80,290,2.68,2.68,0,0,1,82.67,287.28Z" transform="translate(-2.87 -3.41)"/><path class="cls-1" d="M72.36,266.88a2.69,2.69,0,1,1-2.68,2.68A2.68,2.68,0,0,1,72.36,266.88Z" transform="translate(-2.87 -3.41)"/><path class="cls-1" d="M72.36,277.08a2.69,2.69,0,1,1-2.68,2.68A2.68,2.68,0,0,1,72.36,277.08Z" transform="translate(-2.87 -3.41)"/><path class="cls-1" d="M72.36,287.28A2.68,2.68,0,1,1,69.68,290,2.68,2.68,0,0,1,72.36,287.28Z" transform="translate(-2.87 -3.41)"/><path class="cls-5" d="M54.07,351.35a33.62,33.62,0,0,1,19.1,30.89h0v.06A37.25,37.25,0,0,1,54.07,351.35Z" transform="translate(-2.87 -3.41)"/><path class="cls-5" d="M37.64,449.59A33.62,33.62,0,0,1,70.5,434,37.27,37.27,0,0,1,37.64,449.59Z" transform="translate(-2.87 -3.41)"/><path class="cls-5" d="M46.54,423.36l-.09,0h0a37.25,37.25,0,0,1-36.22-2.09A33.65,33.65,0,0,1,46.54,423.36Z" transform="translate(-2.87 -3.41)"/><path class="cls-5" d="M189.1,380.1c-41.38,37.2-73.58,22.27-74.16,22,5.65,2,12.17,1.71,18.86-.48,8.13-2.65,16.51-8.1,23.91-15.57a58.77,58.77,0,0,0,9.83-12.49l2.66.89Q179.46,377.51,189.1,380.1Z" transform="translate(-2.87 -3.41)"/><path class="cls-5" d="M134.43,267.48s4.72,23.49,27.15,16.85c0,0-2.66-4.6-2.62-8.92C159,275.41,148,288.2,134.43,267.48Z" transform="translate(-2.87 -3.41)"/><polygon class="cls-2" points="72.94 461.75 79.62 516.99 115.64 516.99 122.32 461.75 73.73 461.75 72.94 461.75"/><polygon class="cls-1" points="174.93 114.05 165.3 130.72 184.56 130.72 174.93 114.05"/><path class="cls-5" d="M215.24,167.34a1.65,1.65,0,1,1,1.65,1.65A1.65,1.65,0,0,1,215.24,167.34Z" transform="translate(-2.87 -3.41)"/><circle class="cls-5" cx="214.02" cy="178.44" r="1.65"/><circle class="cls-5" cx="214.02" cy="171.18" r="1.65"/><path class="cls-5" d="M231.32,167.34A1.65,1.65,0,1,1,233,169,1.65,1.65,0,0,1,231.32,167.34Z" transform="translate(-2.87 -3.41)"/><circle class="cls-5" cx="230.1" cy="178.44" r="1.65"/><circle class="cls-5" cx="230.1" cy="171.18" r="1.65"/><path class="cls-5" d="M223.28,167.34a1.65,1.65,0,1,1,1.65,1.65A1.65,1.65,0,0,1,223.28,167.34Z" transform="translate(-2.87 -3.41)"/><circle class="cls-5" cx="222.06" cy="178.44" r="1.65"/><circle class="cls-5" cx="222.06" cy="171.18" r="1.65"/><path class="cls-3" d="M10.22,276.55a.61.61,0,0,1-.55-.36L2.92,260.47a.6.6,0,0,1,.31-.79A.62.62,0,0,1,4,260l6.75,15.72a.6.6,0,0,1-.32.79A.52.52,0,0,1,10.22,276.55Z" transform="translate(-2.87 -3.41)"/><path class="cls-3" d="M98.81,230.42a2.84,2.84,0,0,1-2-.83l-4.75-4.75-4.74,4.75a2.85,2.85,0,0,1-4-4L88,220.82l-4.75-4.75a2.84,2.84,0,0,1,2-4.85h0a2.81,2.81,0,0,1,2,.84l4.74,4.74,4.75-4.75a2.84,2.84,0,0,1,2-.83,2.85,2.85,0,0,1,2.84,2.84,2.82,2.82,0,0,1-.83,2l-4.74,4.75,4.74,4.74a2.85,2.85,0,0,1-2,4.86Zm-6.76-7a.61.61,0,0,1,.43.17l5.17,5.18a1.7,1.7,0,0,0,2.32,0,1.68,1.68,0,0,0,.47-1.16,1.66,1.66,0,0,0-.47-1.16h0l-5.16-5.18a.59.59,0,0,1,0-.85l5.17-5.17a1.66,1.66,0,0,0,.47-1.16,1.62,1.62,0,0,0-.47-1.15,1.67,1.67,0,0,0-2.31,0l-5.18,5.18a.62.62,0,0,1-.43.18h0a.6.6,0,0,1-.42-.18l-5.17-5.17a1.63,1.63,0,0,0-1.16-.48h0a1.64,1.64,0,0,0-1.16,2.79l5.17,5.17a.61.61,0,0,1,0,.85l-5.17,5.18a1.64,1.64,0,0,0,0,2.32,1.71,1.71,0,0,0,2.32,0l5.17-5.18A.59.59,0,0,1,92.05,223.39Z" transform="translate(-2.87 -3.41)"/><path class="cls-3" d="M186.29,109.3a15.39,15.39,0,0,1-14.68-10.66h0a15.43,15.43,0,1,1,14.68,10.66Zm-13.54-11a14.25,14.25,0,1,0-.68-4.38,14.42,14.42,0,0,0,.68,4.38Z" transform="translate(-2.87 -3.41)"/><path class="cls-3" d="M82.67,272.85A3.29,3.29,0,1,1,86,269.56,3.28,3.28,0,0,1,82.67,272.85Zm0-5.37a2.08,2.08,0,1,0,2.08,2.08A2.09,2.09,0,0,0,82.67,267.48Z" transform="translate(-2.87 -3.41)"/><path class="cls-3" d="M72.36,272.85a3.29,3.29,0,1,1,3.28-3.29A3.29,3.29,0,0,1,72.36,272.85Zm0-5.37a2.08,2.08,0,1,0,2.08,2.08A2.08,2.08,0,0,0,72.36,267.48Z" transform="translate(-2.87 -3.41)"/><path class="cls-3" d="M93,272.85a3.29,3.29,0,1,1,3.28-3.29A3.29,3.29,0,0,1,93,272.85Zm0-5.37a2.08,2.08,0,1,0,2.08,2.08A2.08,2.08,0,0,0,93,267.48Z" transform="translate(-2.87 -3.41)"/><path class="cls-3" d="M82.67,293.24A3.29,3.29,0,1,1,86,290,3.28,3.28,0,0,1,82.67,293.24Zm0-5.36A2.08,2.08,0,1,0,84.75,290,2.08,2.08,0,0,0,82.67,287.88Z" transform="translate(-2.87 -3.41)"/><path class="cls-3" d="M72.36,293.24A3.29,3.29,0,1,1,75.64,290,3.29,3.29,0,0,1,72.36,293.24Zm0-5.36A2.08,2.08,0,1,0,74.44,290,2.08,2.08,0,0,0,72.36,287.88Z" transform="translate(-2.87 -3.41)"/><path class="cls-3" d="M93,293.24A3.29,3.29,0,1,1,96.27,290,3.29,3.29,0,0,1,93,293.24Zm0-5.36A2.08,2.08,0,1,0,95.07,290,2.08,2.08,0,0,0,93,287.88Z" transform="translate(-2.87 -3.41)"/><path class="cls-3" d="M82.67,283.05A3.29,3.29,0,1,1,86,279.76,3.29,3.29,0,0,1,82.67,283.05Zm0-5.37a2.08,2.08,0,1,0,2.08,2.08A2.08,2.08,0,0,0,82.67,277.68Z" transform="translate(-2.87 -3.41)"/><path class="cls-3" d="M72.36,283.05a3.29,3.29,0,1,1,3.28-3.29A3.3,3.3,0,0,1,72.36,283.05Zm0-5.37a2.08,2.08,0,1,0,2.08,2.08A2.08,2.08,0,0,0,72.36,277.68Z" transform="translate(-2.87 -3.41)"/><path class="cls-3" d="M93,283.05a3.29,3.29,0,1,1,3.28-3.29A3.3,3.3,0,0,1,93,283.05Zm0-5.37a2.08,2.08,0,1,0,2.08,2.08A2.08,2.08,0,0,0,93,277.68Z" transform="translate(-2.87 -3.41)"/><path class="cls-3" d="M353.08,244.3a.6.6,0,0,1-.49-.24l-21.85-29.44a.61.61,0,0,1,.13-.85l6.29-4.66a.62.62,0,0,1,.85.12l14.72,19.85L378.32,191a.6.6,0,0,1,.83-.16l6.51,4.36a.61.61,0,0,1,.25.39.6.6,0,0,1-.09.45l-32.24,48a.59.59,0,0,1-.49.26Zm-21-29.92,21,28.28L372.31,214h0l12.17-18.13-5.5-3.7-25.72,38.32a.59.59,0,0,1-.49.26.58.58,0,0,1-.5-.24l-14.87-20Z" transform="translate(-2.87 -3.41)"/><path class="cls-3" d="M207.11,240.12A23.13,23.13,0,1,1,230.23,217,23.15,23.15,0,0,1,207.11,240.12Zm0-45A21.92,21.92,0,1,0,229,217,21.95,21.95,0,0,0,207.11,195.08Z" transform="translate(-2.87 -3.41)"/><path class="cls-3" d="M207.11,213a5,5,0,1,1,5-5A5,5,0,0,1,207.11,213Zm0-8.73a3.77,3.77,0,1,0,3.76,3.77A3.77,3.77,0,0,0,207.11,204.29Z" transform="translate(-2.87 -3.41)"/><path class="cls-3" d="M214.79,230.91H199.42a.6.6,0,0,1-.61-.6v-8.53a7.46,7.46,0,0,1,7.45-7.45H208a7.46,7.46,0,0,1,7.45,7.45v8.53A.6.6,0,0,1,214.79,230.91ZM200,229.7h14.17v-7.92a6.25,6.25,0,0,0-6.24-6.25h-1.69a6.25,6.25,0,0,0-6.24,6.25Z" transform="translate(-2.87 -3.41)"/><path class="cls-3" d="M151.19,279.88a13.54,13.54,0,0,1-2.07-.17,19.83,19.83,0,0,1-15.24-12,.59.59,0,0,1,.3-.79.6.6,0,0,1,.8.3,18.38,18.38,0,0,0,14.33,11.29,9.2,9.2,0,0,0,9.18-3.48.6.6,0,1,1,.94.76A10.19,10.19,0,0,1,151.19,279.88Z" transform="translate(-2.87 -3.41)"/><path class="cls-3" d="M159,276a.6.6,0,0,1-.42-1h0a.61.61,0,0,1,.9.81A.65.65,0,0,1,159,276Z" transform="translate(-2.87 -3.41)"/><path class="cls-3" d="M159,276a.61.61,0,0,1-.47-1c3-3.78,4.72-10.26,4.89-18.75,0-2.65-.35-8.25-.36-8.3a.61.61,0,0,1,.56-.65.6.6,0,0,1,.64.56c0,.23.41,5.71.36,8.41-.17,8.76-1.95,15.5-5.15,19.48A.61.61,0,0,1,159,276Z" transform="translate(-2.87 -3.41)"/><path class="cls-3" d="M135.09,262.22a.6.6,0,0,1-.52-.3h0a5.44,5.44,0,0,0-2.26-1.88,6.72,6.72,0,0,0-2.34-.59.6.6,0,0,1-.55-.65.62.62,0,0,1,.65-.56,8,8,0,0,1,2.74.71,6.38,6.38,0,0,1,2.8,2.37.59.59,0,0,1-.22.82A.54.54,0,0,1,135.09,262.22Z" transform="translate(-2.87 -3.41)"/><path class="cls-3" d="M131.55,263.64a.6.6,0,0,1-.59-.52c0-.12-.38-2.84,1.23-4.1a.6.6,0,0,1,.74,1c-.88.69-.86,2.39-.78,3a.59.59,0,0,1-.51.68Z" transform="translate(-2.87 -3.41)"/><path class="cls-3" d="M145.27,252.59a.59.59,0,0,1-.51-.29.61.61,0,0,1,.2-.83c.16-.09,3.78-2.2,6.82-.52a.6.6,0,0,1-.58,1.06c-2.43-1.35-5.59.48-5.62.5A.58.58,0,0,1,145.27,252.59Z" transform="translate(-2.87 -3.41)"/><path class="cls-3" d="M163.7,252.78a.59.59,0,0,1-.41-.16c-.09-.08-2.25-2-3.92-.59a.6.6,0,0,1-.79-.91c2-1.7,4.48-.34,5.52.61a.6.6,0,0,1,0,.86A.59.59,0,0,1,163.7,252.78Z" transform="translate(-2.87 -3.41)"/><path class="cls-3" d="M154.34,265.7h-.09a.6.6,0,0,1-.6-.61.61.61,0,0,1,.61-.6h.07c1.37,0,2.26-.24,2.59-.7s.24-1.12-.17-2.3a34.59,34.59,0,0,1-1.36-5.34.6.6,0,0,1,.49-.7.62.62,0,0,1,.7.5,33.43,33.43,0,0,0,1.31,5.14c.39,1.14.71,2.43,0,3.41C157.32,265.32,156.18,265.7,154.34,265.7Z" transform="translate(-2.87 -3.41)"/><path class="cls-3" d="M154.48,269.65a9.22,9.22,0,0,1-5.18-1.53.6.6,0,0,1-.12-.84.6.6,0,0,1,.84-.13,8.49,8.49,0,0,0,8.35.41.6.6,0,1,1,.5,1.09A10.45,10.45,0,0,1,154.48,269.65Z" transform="translate(-2.87 -3.41)"/><path class="cls-3" d="M154.23,272.12a2.79,2.79,0,0,1-1.57-.47.6.6,0,0,1,.71-1,1.68,1.68,0,0,0,1.64.05.62.62,0,0,1,.8.3.6.6,0,0,1-.3.8A3.09,3.09,0,0,1,154.23,272.12Z" transform="translate(-2.87 -3.41)"/><path class="cls-3" d="M148.37,269a.61.61,0,0,1-.11-1.2,1.64,1.64,0,0,0,1-.53,2,2,0,0,0,.46-.87.61.61,0,0,1,1.19.25,3.41,3.41,0,0,1-.75,1.42,2.82,2.82,0,0,1-1.63.92Z" transform="translate(-2.87 -3.41)"/><path class="cls-3" d="M196.58,327.58a27.51,27.51,0,0,1-3.87-.32.61.61,0,0,1,.17-1.2,24.17,24.17,0,0,0,4.05.31.6.6,0,0,1,.62.59.62.62,0,0,1-.59.62Z" transform="translate(-2.87 -3.41)"/><path class="cls-3" d="M144.77,334a.6.6,0,0,1-.48-.24.6.6,0,0,1,.11-.84s1.4-1.07,3.63-2.64c7.8-5.49,22.21-14.73,31-14.85a38.26,38.26,0,0,1,18.19,4.5.6.6,0,0,1,.23.82.62.62,0,0,1-.83.23,36.78,36.78,0,0,0-17.57-4.34c-8.83.12-24.18,10.27-30.36,14.63-2.21,1.55-3.58,2.59-3.6,2.6A.57.57,0,0,1,144.77,334Z" transform="translate(-2.87 -3.41)"/><path class="cls-3" d="M195.57,335.36a27.8,27.8,0,0,1-4.13-.36.61.61,0,0,1-.5-.69.62.62,0,0,1,.69-.51,21.32,21.32,0,0,0,5.23.29.6.6,0,1,1,.12,1.2C196.55,335.33,196.08,335.36,195.57,335.36Z" transform="translate(-2.87 -3.41)"/><path class="cls-3" d="M196.94,329.4a.56.56,0,0,1-.33-.1,26.46,26.46,0,0,0-4-2.07h-.05a38,38,0,0,0-8.52-2.4.59.59,0,0,1-.5-.69.6.6,0,0,1,.69-.5,39.86,39.86,0,0,1,8.75,2.46H193a25.67,25.67,0,0,1,4.24,2.2.6.6,0,0,1,.17.83A.58.58,0,0,1,196.94,329.4Z" transform="translate(-2.87 -3.41)"/><path class="cls-3" d="M196.91,338.31a.57.57,0,0,1-.41-.16,18.62,18.62,0,0,0-5.14-3.17l-.08,0a38.3,38.3,0,0,0-9.09-2.64.6.6,0,1,1,.19-1.19,39.29,39.29,0,0,1,9.32,2.7l.08,0a19.37,19.37,0,0,1,5.55,3.43.6.6,0,0,1,0,.85A.62.62,0,0,1,196.91,338.31Z" transform="translate(-2.87 -3.41)"/><path class="cls-3" d="M165.84,362.32a.61.61,0,0,1-.54-.33.6.6,0,0,1,.27-.81,38,38,0,0,0,3.31-1.87,45.08,45.08,0,0,0,6.3-4.87.61.61,0,0,1,.82.89,45.66,45.66,0,0,1-6.48,5,38.88,38.88,0,0,1-3.41,1.93A.63.63,0,0,1,165.84,362.32Z" transform="translate(-2.87 -3.41)"/><path class="cls-3" d="M190.45,342a.48.48,0,0,1-.2,0,34.78,34.78,0,0,0-8.55-1.65.61.61,0,0,1-.56-.65.62.62,0,0,1,.65-.55,36.28,36.28,0,0,1,8.86,1.71.61.61,0,0,1-.2,1.18Z" transform="translate(-2.87 -3.41)"/><path class="cls-3" d="M310.89,215.89H252.7a3,3,0,0,1-3-3V154.75a3,3,0,0,1,3-3h58.19a3,3,0,0,1,3,3v58.18A3,3,0,0,1,310.89,215.89ZM252.7,153a1.76,1.76,0,0,0-1.76,1.76v58.18a1.76,1.76,0,0,0,1.76,1.76h58.19a1.75,1.75,0,0,0,1.75-1.76V154.75a1.75,1.75,0,0,0-1.75-1.76Z" transform="translate(-2.87 -3.41)"/><path class="cls-3" d="M382.09,448.06a.59.59,0,0,1-.42-.17l-4-4-1.77-1.79c-1.28-1.29-2.74-2.76-4.31-4.37l-22.19-21.12.41-.44.43-.42,22.21,21.14c1.57,1.6,3,3.07,4.31,4.36l1.77,1.79c1.69,1.7,2.93,2.94,3.55,3.55L436.3,388a25.6,25.6,0,0,0-5.42-1,45.26,45.26,0,0,0-5.16-.14c-17.6.52-40.89,9.83-41.13,9.92a.61.61,0,0,1-.62-.11l-9.44-8.26.39-.46.42-.43h0l9.14,8c3-1.16,24.56-9.38,41.2-9.87a43.43,43.43,0,0,1,5.3.14,24.83,24.83,0,0,1,6.59,1.4.58.58,0,0,1,.37.42.61.61,0,0,1-.14.55l-55.28,59.74a.57.57,0,0,1-.43.19Z" transform="translate(-2.87 -3.41)"/><path class="cls-3" d="M372,437.92a.57.57,0,0,1-.18,0,.6.6,0,0,1-.4-.75L383.79,396a.6.6,0,0,1,1.16.34l-12.36,41.14A.59.59,0,0,1,372,437.92Z" transform="translate(-2.87 -3.41)"/><path class="cls-3" d="M378.14,444a.59.59,0,0,1-.41-.16.6.6,0,0,1,0-.85l52.81-57.08a.6.6,0,0,1,.85-.06.59.59,0,0,1,.06.85l0,0-52.81,57.07A.58.58,0,0,1,378.14,444Z" transform="translate(-2.87 -3.41)"/><path class="cls-3" d="M170,357.56a.7.7,0,0,1-.25-.05.63.63,0,0,1-.32-.34l-2.61-7a.58.58,0,0,1,.35-.77l23.06-8.61,0,0,6-2.25.22-68.32a.61.61,0,0,1,.4-.57L291.72,235a.63.63,0,0,1,.55.06.62.62,0,0,1,.26.48l2.18,68.56a.6.6,0,1,1-1.2,0l-2.16-67.72-93.61,34.21L197.51,339a.61.61,0,0,1-.39.57l-6.45,2.41h0l-22.45,8.39,2.19,5.85,26.53-10.24a.6.6,0,1,1,.43,1.13l-27.09,10.45A.57.57,0,0,1,170,357.56Z" transform="translate(-2.87 -3.41)"/><path class="cls-3" d="M203.44,341.43h0a.6.6,0,0,1-.6-.6l.21-73a.62.62,0,0,1,.61-.6h0a.6.6,0,0,1,.6.61l-.21,73A.6.6,0,0,1,203.44,341.43Z" transform="translate(-2.87 -3.41)"/><path class="cls-3" d="M254,297.88c-2.6,0-5.14-1.77-6.75-4.74l0-.07a14.14,14.14,0,0,1-1.56-5.3,14.49,14.49,0,0,1,.05-3.29c.59-4.63,3.3-8,6.75-8.31,2.83-.27,5.65,1.57,7.36,4.82a14.36,14.36,0,0,1,1.55,5.26,15.25,15.25,0,0,1,0,3.1c-.54,4.74-3.26,8.16-6.78,8.5A5.25,5.25,0,0,1,254,297.88Zm-5.76-5.44,0,.06c1.48,2.79,3.84,4.38,6.16,4.15,2.89-.28,5.23-3.34,5.7-7.43a14.25,14.25,0,0,0,0-2.85,13.23,13.23,0,0,0-1.41-4.82c-1.48-2.8-3.85-4.41-6.18-4.18-2.88.28-5.16,3.2-5.68,7.26a14,14,0,0,0,0,3A13.06,13.06,0,0,0,248.19,292.44Z" transform="translate(-2.87 -3.41)"/><path class="cls-3" d="M247.16,293.4c-3.77,0-6.19-1-6.69-2.84-.56-2,1.5-4.47,5.5-6.54a.6.6,0,0,1,.55,1.07c-3.3,1.71-5.27,3.78-4.89,5.15s2.71,2,6.05,1.94a29.94,29.94,0,0,0,12.72-3.43c3.08-1.67,4.84-3.6,4.48-4.92s-2.51-1.95-5.65-2h0a.6.6,0,1,1,0-1.2c3.83,0,6.31,1,6.81,2.84.54,2-1.31,4.27-5.06,6.3a29.91,29.91,0,0,1-6.27,2.48,29.47,29.47,0,0,1-7,1.1Z" transform="translate(-2.87 -3.41)"/><path class="cls-3" d="M185,182.1a.6.6,0,0,1-.43-.18.61.61,0,0,1,0-.85l4.29-4.29a.61.61,0,0,1,.85,0,.59.59,0,0,1,0,.85l-4.28,4.29A.61.61,0,0,1,185,182.1Z" transform="translate(-2.87 -3.41)"/><path class="cls-3" d="M177.32,189.8a.61.61,0,0,1-.43-1l4.29-4.29a.6.6,0,1,1,.85.85l-4.28,4.29A.6.6,0,0,1,177.32,189.8Z" transform="translate(-2.87 -3.41)"/><path class="cls-3" d="M189.31,189.8a.6.6,0,0,1-.43-.18l-4.29-4.29a.61.61,0,0,1,0-.85.6.6,0,0,1,.86,0l4.28,4.29a.61.61,0,0,1-.42,1Z" transform="translate(-2.87 -3.41)"/><path class="cls-3" d="M181.61,182.1a.6.6,0,0,1-.43-.18l-4.29-4.29a.61.61,0,0,1,0-.85.62.62,0,0,1,.86,0l4.28,4.29a.59.59,0,0,1,0,.85A.58.58,0,0,1,181.61,182.1Z" transform="translate(-2.87 -3.41)"/><path class="cls-3" d="M184.81,501.4a.6.6,0,0,1-.6-.61V484.11a.61.61,0,0,1,1.21,0v16.68A.61.61,0,0,1,184.81,501.4Z" transform="translate(-2.87 -3.41)"/><path class="cls-3" d="M172.93,521a.61.61,0,0,1,0-1.21,11.29,11.29,0,0,0,11.28-11.28V504a.61.61,0,0,1,1.21,0v4.53A12.5,12.5,0,0,1,172.93,521Z" transform="translate(-2.87 -3.41)"/><path class="cls-3" d="M156,521a12.51,12.51,0,0,1-12.5-12.49V473a.6.6,0,0,1,.6-.6h40.72a.6.6,0,0,1,.61.6v7.44a.61.61,0,1,1-1.21,0v-6.84H144.69v34.89A11.3,11.3,0,0,0,156,519.79a.61.61,0,0,1,0,1.21Z" transform="translate(-2.87 -3.41)"/><path class="cls-3" d="M191.9,506.54a14.31,14.31,0,0,1-7.4-2,.61.61,0,0,1-.2-.83.59.59,0,0,1,.83-.2A13.13,13.13,0,0,0,205,492.23a13.46,13.46,0,0,0-.23-2.45,13.13,13.13,0,0,0-19.65-8.8.6.6,0,0,1-.63-1A14.33,14.33,0,0,1,206,489.56a14.13,14.13,0,0,1,.26,2.67A14.34,14.34,0,0,1,191.9,506.54Z" transform="translate(-2.87 -3.41)"/><path class="cls-3" d="M191.9,502.34a10.1,10.1,0,0,1-7.53-3.37.59.59,0,0,1,0-.85.6.6,0,0,1,.85.05,8.91,8.91,0,0,0,15.54-5.94,8.64,8.64,0,0,0-.58-3.16,9,9,0,0,0-8.32-5.75,8.84,8.84,0,0,0-6.17,2.48c-.17.16-.32.31-.47.48a.6.6,0,1,1-.89-.81c.17-.19.35-.37.53-.55a10,10,0,0,1,7-2.81,10.17,10.17,0,0,1,9.45,6.53,9.86,9.86,0,0,1,.66,3.59A10.13,10.13,0,0,1,191.9,502.34Z" transform="translate(-2.87 -3.41)"/><path class="cls-3" d="M167.39,363.22a.56.56,0,0,1-.25-.05c-.6-.28-1.13-.54-1.63-.8-14.62-7.57-20-22.66-21.63-28.79-.4-1.52-.56-2.43-.57-2.46a.6.6,0,0,1,1.19-.21s.16.89.54,2.36c1.6,6,6.83,20.68,21,28,.49.25,1,.51,1.58.77a.6.6,0,0,1-.25,1.15Z" transform="translate(-2.87 -3.41)"/><path class="cls-3" d="M105.22,355.49a.63.63,0,0,1-.42-.17.6.6,0,0,1,0-.85c9.39-9.84,17.63-17.12,24.49-21.63s12.42-6.29,16.24-5.1a5.39,5.39,0,0,1,3.43,2.75.61.61,0,0,1-1.12.47,4.19,4.19,0,0,0-2.71-2.09c-2.38-.71-6.94-.43-15.17,5-6.79,4.46-15,11.67-24.28,21.45A.59.59,0,0,1,105.22,355.49Z" transform="translate(-2.87 -3.41)"/><path class="cls-3" d="M123.19,404a23.18,23.18,0,0,1-20-10.66,42.25,42.25,0,0,1-4.46-9.87c-4.05-12.36-5.62-28.45-4.2-43,1.3-13.42,4.93-25.24,10.8-35.13a61.13,61.13,0,0,1,29.58-25.67.6.6,0,1,1,.46,1.11C106.15,293,97.66,320,95.68,340.57c-1.4,14.44.15,30.35,4.15,42.56a40.89,40.89,0,0,0,4.32,9.57c6.33,9.52,16.79,12.49,29.46,8.35,8-2.62,16.42-8.1,23.67-15.43A58.72,58.72,0,0,0,167,373.27c5-9,1.76-13,1.73-13.06a.61.61,0,0,1,.92-.79c.16.19,3.83,4.65-1.6,14.43a59.61,59.61,0,0,1-9.92,12.62c-7.49,7.57-15.85,13-24.16,15.73A34.86,34.86,0,0,1,123.19,404Z" transform="translate(-2.87 -3.41)"/><path class="cls-3" d="M115.28,338.31a.6.6,0,0,1-.33-1.1c.35-.24,8.79-5.77,14.79-4.45a.6.6,0,0,1-.26,1.17c-5.5-1.2-13.78,4.23-13.87,4.28A.56.56,0,0,1,115.28,338.31Z" transform="translate(-2.87 -3.41)"/><path class="cls-3" d="M145.14,328.51a.63.63,0,0,1-.19,0,.6.6,0,0,1-.38-.77c1.25-3.65.81-9,.8-9.07a.6.6,0,0,1,.55-.65.59.59,0,0,1,.65.55c0,.23.47,5.67-.86,9.56A.6.6,0,0,1,145.14,328.51Z" transform="translate(-2.87 -3.41)"/><path class="cls-3" d="M197.11,287.61a.61.61,0,0,1-.37-.12l0,0h0c-15-11.81-36.67-7.49-36.89-7.45a.6.6,0,1,1-.24-1.18c.22,0,22.47-4.47,37.87,7.68l.08.06a.6.6,0,0,1,0,.86A.63.63,0,0,1,197.11,287.61Z" transform="translate(-2.87 -3.41)"/><path class="cls-3" d="M148.38,298l-.14,0a16.82,16.82,0,0,1-13.32-15.4c0-.75-.1-1.52-.17-2.3A48.31,48.31,0,0,0,132,267.1a.6.6,0,0,1,1.12-.44A49.49,49.49,0,0,1,136,280.14c.07.79.13,1.57.18,2.32a15.63,15.63,0,0,0,12.39,14.31.6.6,0,0,1-.14,1.19Z" transform="translate(-2.87 -3.41)"/><path class="cls-3" d="M149.16,298.13h-.1l-.4-.08h-.06a.6.6,0,0,1,.25-1.18h.06l.35.07a.6.6,0,0,1-.1,1.2Z" transform="translate(-2.87 -3.41)"/><path class="cls-3" d="M151.28,298.41h0l-.87-.09-.38-.05a.6.6,0,0,1,.17-1.19l.35,0,.81.09a.6.6,0,0,1,0,1.2Z" transform="translate(-2.87 -3.41)"/><path class="cls-3" d="M152.71,298.47c-.49,0-1,0-1.46-.06a.6.6,0,0,1,.1-1.2,17.25,17.25,0,0,0,2.69,0c4.15-.3,7.12-1.91,8.37-4.53a7.19,7.19,0,0,0-.68-7.05,23.53,23.53,0,0,1-3.12-5.88c-.89-2.77-.37-4.21-.2-4.56a.52.52,0,0,1,.11-.19.62.62,0,0,1,.46-.21.6.6,0,0,1,.6.6h0a.56.56,0,0,1-.09.31c-.07.16-.5,1.3.27,3.67a22.47,22.47,0,0,0,3,5.56,8.39,8.39,0,0,1,.79,8.25c-1.45,3-4.77,4.89-9.37,5.23C153.65,298.45,153.18,298.47,152.71,298.47Z" transform="translate(-2.87 -3.41)"/><path class="cls-3" d="M153.35,298.49c-.78,0-1.48,0-2.1-.08l-.87-.09-.17,0-.23,0-.94-.15-.44-.09-.4-.1a.61.61,0,0,1-.4-.75.6.6,0,0,1,.75-.4l.3.07.41.08.9.15.19,0,.18,0,.8.08A25.51,25.51,0,0,0,170,291.08a.6.6,0,1,1,.78.92A26.71,26.71,0,0,1,153.35,298.49Z" transform="translate(-2.87 -3.41)"/><path class="cls-3" d="M197.11,312.27a.59.59,0,0,1-.52-.29l-.09-.15c-2.8-4.38-8.66-12-8.72-12.06a.6.6,0,1,1,.95-.74c.06.08,6,7.73,8.77,12.13a1.17,1.17,0,0,1,.12.2.6.6,0,0,1-.2.82A.61.61,0,0,1,197.11,312.27Z" transform="translate(-2.87 -3.41)"/><path class="cls-3" d="M127.51,261.84a.61.61,0,0,1-.57-.4c-.22-.61-5.42-15-1.4-23.66a.6.6,0,1,1,1.09.51c-3.81,8.18,1.39,22.59,1.44,22.74a.59.59,0,0,1-.36.77A.65.65,0,0,1,127.51,261.84Z" transform="translate(-2.87 -3.41)"/><path class="cls-3" d="M133.66,267.62a5.13,5.13,0,0,1-1.24-.15,7.49,7.49,0,0,1-4.73-3.93,8.47,8.47,0,0,1-.77-2.16h0v0c-.58-2.81.46-5.43,2.57-6.53a4.52,4.52,0,0,1,1.85-.51,4.92,4.92,0,0,1,4.53,2.5c1,1.74,2.11,2.87,3,3.08a1.22,1.22,0,0,0,1-.17c1.64-1,1.45-9.29.79-14.82a.59.59,0,0,1,.29-.59.61.61,0,0,1,.66,0s5.52,4,9.4,3.17a4,4,0,0,0,2.74-2,.59.59,0,0,1,.82-.22s4.48,2.53,9,2.07a9,9,0,0,0,5.87-2.9c3.23-3.48,3.93-9.71,1.53-13.61-2.08-3.39-6-4.47-11.07-3a105.77,105.77,0,0,1-18,3.34,44.16,44.16,0,0,0-8.82,1.55.6.6,0,0,1-.76-.37.61.61,0,0,1,.37-.77,45.22,45.22,0,0,1,9.07-1.61,103.56,103.56,0,0,0,17.77-3.3c7.59-2.16,11,1.3,12.43,3.56,2.7,4.4,2,11.15-1.67,15.06a10.25,10.25,0,0,1-6.64,3.28,17.91,17.91,0,0,1-9.24-2,5.12,5.12,0,0,1-3.23,2.13c-3.3.69-7.34-1.46-9.26-2.65.4,3.87,1.05,13.12-1.48,14.7a2.38,2.38,0,0,1-1.92.32c-1.55-.38-2.89-2.19-3.74-3.65a3.73,3.73,0,0,0-3.41-1.9,3.38,3.38,0,0,0-1.37.38c-1.63.85-2.42,2.94-2,5.22v0a7.26,7.26,0,0,0,.66,1.84,6.31,6.31,0,0,0,3.94,3.31,3.8,3.8,0,0,0,2.6-.28.6.6,0,0,1,.56,1.07A4.7,4.7,0,0,1,133.66,267.62Z" transform="translate(-2.87 -3.41)"/><path class="cls-3" d="M339.38,428.49a.62.62,0,0,1-.32-.09c-.08,0-8.1-5.12-18.65-13.06a268.88,268.88,0,0,1-28.9-24.77,152.61,152.61,0,0,1-11.24-12.5c-1.08-1.36-2.09-2.68-3-3.93a68.27,68.27,0,0,1-8.76-15.62.6.6,0,0,1,1.13-.43,67.3,67.3,0,0,0,8.61,15.35c.89,1.23,1.88,2.53,2.95,3.88a150.4,150.4,0,0,0,11.16,12.4,266.62,266.62,0,0,0,28.77,24.66c9.12,6.86,16.34,11.57,18.14,12.73l43.87-49.36c-1.11-.91-4-3.34-8.25-6.84L366,363.52l-.51-.43q-8.85-7.43-19-16c-12.94-10.95-24.11-20.56-33.2-28.55-6.11-5.37-12.69-10.77-19.46-13.89a31.83,31.83,0,0,0-3.72-1.47c-15.84-5.05-27.06.37-41.27,7.23l-1.68.81c-13.25,6.38-27.84,16.49-43.35,30.05-2.09,1.81-4.21,3.72-6.33,5.66a354.36,354.36,0,0,0-26.64,27.23.6.6,0,0,1-.85.07.61.61,0,0,1-.07-.85,353,353,0,0,1,26.75-27.34c2.12-1.95,4.25-3.86,6.35-5.68,15.59-13.63,30.27-23.8,43.61-30.23l1.69-.81c13.88-6.7,25.86-12.49,42.15-7.28a33.37,33.37,0,0,1,3.86,1.51c6.91,3.2,13.58,8.66,19.75,14.09,9.09,8,20.26,17.58,33.19,28.53q10.15,8.58,19,16l.51.43,8.87,7.4c5.4,4.49,8.72,7.23,8.72,7.23a.62.62,0,0,1,.06.87l-44.63,50.2A.59.59,0,0,1,339.38,428.49Z" transform="translate(-2.87 -3.41)"/><path class="cls-3" d="M392.63,313a.59.59,0,0,1-.58-.44.6.6,0,0,1,.42-.74l28.86-7.85.36-.1.39-.1h0c3.33-.79,6.15-1.47,8.4-2s4-1,4.89-1.2l-22-76.73a24.56,24.56,0,0,0-3.69,4.1c-3.41,4.63-6.6,11.37-9.47,20a.61.61,0,0,1-.77.38.6.6,0,0,1-.38-.76c2.92-8.79,6.16-15.64,9.64-20.37a25.06,25.06,0,0,1,4.62-4.92.6.6,0,0,1,.56-.1.58.58,0,0,1,.39.41l22.45,78.22a.59.59,0,0,1-.05.47.63.63,0,0,1-.38.28s-2.06.52-5.5,1.35c-2.25.56-5.08,1.23-8.41,2h0L422,305l-.37.11-28.85,7.84A.47.47,0,0,1,392.63,313Z" transform="translate(-2.87 -3.41)"/><path class="cls-3" d="M381.48,276.83a.6.6,0,0,1-.15-1.19L392.91,272A188.07,188.07,0,0,1,399,247.55a.6.6,0,0,1,1.15.37A185.22,185.22,0,0,0,394,272.53a.61.61,0,0,1-.42.48l-12,3.79Z" transform="translate(-2.87 -3.41)"/><path class="cls-3" d="M422.22,304.91a.62.62,0,0,1-.45-.2L393,272.84A.6.6,0,0,1,393,272a.59.59,0,0,1,.85,0l28.78,31.87a.61.61,0,0,1,0,.85A.59.59,0,0,1,422.22,304.91Z" transform="translate(-2.87 -3.41)"/><path class="cls-3" d="M430.61,302.83a.59.59,0,0,1-.58-.44l-21.46-74.77a.6.6,0,0,1,.42-.74.59.59,0,0,1,.74.42l0,.07,21.44,74.69a.62.62,0,0,1-.42.75Z" transform="translate(-2.87 -3.41)"/><path class="cls-3" d="M346.92,347.25a.61.61,0,0,1-.16-1.19,278.09,278.09,0,0,0,26.42-8.91c12.16-4.74,21.25-9.11,23.34-10.13l-4.47-14.48s0,0,0-.05l-15-48.57c-2.28.8-11,3.83-22.66,7.81-16.43,5.62-40.26,13.67-60.5,20.09a.6.6,0,0,1-.75-.39.61.61,0,0,1,.39-.76c20.22-6.42,44.05-14.46,60.47-20.08,13.57-4.63,23.15-8,23.25-8a.61.61,0,0,1,.77.4l15.19,49.21s0,0,0,0l4.61,14.93a.61.61,0,0,1-.31.72c-.1.05-10,5-23.9,10.4a277.79,277.79,0,0,1-26.54,9A.45.45,0,0,1,346.92,347.25Z" transform="translate(-2.87 -3.41)"/><path class="cls-3" d="M277.77,374.39h-.1c-9.8-1.74-16.75-9-17-9.3a.6.6,0,1,1,.88-.82c.07.07,7,7.26,16.37,8.94a.6.6,0,0,1,.49.7A.61.61,0,0,1,277.77,374.39Z" transform="translate(-2.87 -3.41)"/><path class="cls-3" d="M270.63,391.64a.61.61,0,0,1-.43-1h0l.08-.07c.09-.06,8.35-5.89,9.87-13a.6.6,0,0,1,.59-.49.59.59,0,0,1,.6.59.61.61,0,0,1,0,.14c-1.58,7.4-10,13.44-10.34,13.7A.62.62,0,0,1,270.63,391.64Z" transform="translate(-2.87 -3.41)"/><path class="cls-3" d="M320.77,415.47a.58.58,0,0,1-.39-.15.6.6,0,0,1-.06-.85l45.13-52.24,0,0a.61.61,0,0,1,.85,0,.6.6,0,0,1,0,.86l-45.11,52.21A.64.64,0,0,1,320.77,415.47Z" transform="translate(-2.87 -3.41)"/><path class="cls-3" d="M373.4,338.31a.61.61,0,0,1-.58-.43l-19.21-66.54a.6.6,0,1,1,1.15-.34L374,337.54a.61.61,0,0,1-.41.75A.5.5,0,0,1,373.4,338.31Z" transform="translate(-2.87 -3.41)"/><path class="cls-3" d="M133.8,402.23a.61.61,0,0,1-.58-.42c-3.33-10.33-10-16.49-19.7-18.32a34.5,34.5,0,0,0-13.81.36.6.6,0,0,1-.32-1.16,34.81,34.81,0,0,1,14.31-.39c7,1.31,16.33,5.69,20.67,19.14a.6.6,0,0,1-.39.76A.57.57,0,0,1,133.8,402.23Z" transform="translate(-2.87 -3.41)"/><path class="cls-3" d="M462.52,319.2a.6.6,0,0,1-.43-.18.59.59,0,0,1,0-.85.6.6,0,1,1,.86.84h0A.59.59,0,0,1,462.52,319.2Z" transform="translate(-2.87 -3.41)"/><path class="cls-3" d="M243.35,493.61a218,218,0,0,1-28.6-1.91c-3.24-.42-6.43-.91-9.48-1.44a.6.6,0,0,1,.2-1.18c3,.52,6.21,1,9.44,1.43,59.72,7.86,113.89-8.72,161-49.29a.6.6,0,1,1,.78.91C337,476.36,292.2,493.61,243.35,493.61Z" transform="translate(-2.87 -3.41)"/><path class="cls-3" d="M200.78,489.45h-.11c-5.28-1-10.49-2.18-15.51-3.49a.61.61,0,0,1,.31-1.17c5,1.31,10.18,2.47,15.43,3.48a.6.6,0,0,1-.12,1.19Z" transform="translate(-2.87 -3.41)"/><path class="cls-3" d="M150.34,473.62a.59.59,0,0,1-.25-.05A209.84,209.84,0,0,1,114.43,453l-1.24-.9-.08-.06a.6.6,0,1,1,.71-1l.08.06,1.23.89a207.86,207.86,0,0,0,35.46,20.5.6.6,0,0,1-.25,1.15Z" transform="translate(-2.87 -3.41)"/><path class="cls-3" d="M105.22,445.78a.62.62,0,0,1-.38-.14c-3.48-2.79-6.93-5.75-10.27-8.79-3.07-2.79-6.1-5.71-9-8.68a.6.6,0,1,1,.86-.85c2.89,3,5.91,5.86,9,8.64,3.32,3,6.76,6,10.22,8.74a.6.6,0,0,1,.09.85A.6.6,0,0,1,105.22,445.78Z" transform="translate(-2.87 -3.41)"/><path class="cls-3" d="M76.05,417.55a.6.6,0,0,1-.46-.21c-45.14-52.27-59.39-115-62.68-133-.53-2.9-.76-4.52-.76-4.54a.61.61,0,0,1,1-.51s1.14,1.15,3.28,3.15A421.09,421.09,0,0,0,63.73,320c10.3,7.1,21,13.82,31.65,20a.61.61,0,0,1-.61,1.05c-10.72-6.18-21.39-12.92-31.72-20a423.31,423.31,0,0,1-47.41-37.65c-.82-.76-1.5-1.41-2-1.91.12.71.28,1.62.48,2.71,3.27,17.9,17.46,80.35,62.4,132.39a.6.6,0,0,1-.06.85A.58.58,0,0,1,76.05,417.55Z" transform="translate(-2.87 -3.41)"/><path class="cls-3" d="M375.3,371.05a.61.61,0,0,1-.56-.38.59.59,0,0,1,.33-.78,321,321,0,0,0,45-22.4,373.44,373.44,0,0,0,38.35-26.41.59.59,0,0,1,.84.1.61.61,0,0,1-.1.85,373.19,373.19,0,0,1-38.48,26.49A320.6,320.6,0,0,1,375.52,371,.59.59,0,0,1,375.3,371.05Z" transform="translate(-2.87 -3.41)"/><path class="cls-3" d="M425.71,386.82a.64.64,0,0,1-.35-.1.61.61,0,0,1-.15-.84,348.66,348.66,0,0,0,34.93-63,.6.6,0,0,1,.79-.32.59.59,0,0,1,.33.78,351.52,351.52,0,0,1-35.06,63.21A.61.61,0,0,1,425.71,386.82Z" transform="translate(-2.87 -3.41)"/><path class="cls-3" d="M269.44,391.64c-32.55,0-66-5.59-99.43-16.62l-2.67-.89a.6.6,0,0,1,.39-1.14c.88.3,1.77.6,2.65.88,33.72,11.13,67.46,16.68,100.25,16.56,7.05,0,14.21-.32,21.26-.89a.62.62,0,0,1,.65.56.6.6,0,0,1-.55.65c-7.09.56-14.27.86-21.36.88Z" transform="translate(-2.87 -3.41)"/><path class="cls-3" d="M265.19,521H118.51a.61.61,0,1,1,0-1.21H265.19a.61.61,0,0,1,0,1.21Z" transform="translate(-2.87 -3.41)"/><path class="cls-3" d="M82.49,521h-36a.61.61,0,0,1,0-1.21h36a.61.61,0,1,1,0,1.21Z" transform="translate(-2.87 -3.41)"/><path class="cls-3" d="M291.94,521H275.68a.61.61,0,0,1,0-1.21h16.26a.61.61,0,0,1,0,1.21Z" transform="translate(-2.87 -3.41)"/><path class="cls-3" d="M118.51,521h-36a.61.61,0,0,1-.6-.53l-6.68-55.24a.62.62,0,0,1,.15-.47.61.61,0,0,1,.45-.2h49.38a.58.58,0,0,1,.45.2.58.58,0,0,1,.15.47l-6.68,55.24A.61.61,0,0,1,118.51,521ZM83,519.79H118l6.54-54h-48Z" transform="translate(-2.87 -3.41)"/><path class="cls-3" d="M94.56,465.76a.59.59,0,0,1-.58-.44,60.29,60.29,0,0,0-11.27-19.76C73.42,434.51,61.18,427.25,46.32,424a.6.6,0,1,1,.26-1.18c15.12,3.32,27.59,10.72,37.06,22A61.58,61.58,0,0,1,95.14,465a.61.61,0,0,1-.42.75Z" transform="translate(-2.87 -3.41)"/><path class="cls-3" d="M109.6,459.08a.63.63,0,0,1-.37-.12.61.61,0,0,1-.11-.85,65.61,65.61,0,0,1,5.23-6.07,63.27,63.27,0,0,1,8.87-7.6l.09-.06c12.35-8.71,26.68-12.14,42.61-10.22a.6.6,0,0,1,.52.67.61.61,0,0,1-.67.53c-15.62-1.89-29.67,1.47-41.75,10l-.08.06a61.77,61.77,0,0,0-8.73,7.47,63.2,63.2,0,0,0-5.13,6A.6.6,0,0,1,109.6,459.08Z" transform="translate(-2.87 -3.41)"/><path class="cls-3" d="M108.56,460.48a.66.66,0,0,1-.35-.11.61.61,0,0,1-.14-.84c.32-.45.67-.92,1-1.41A.6.6,0,0,1,110,458a.6.6,0,0,1,.11.84l-1,1.38A.61.61,0,0,1,108.56,460.48Z" transform="translate(-2.87 -3.41)"/><path class="cls-3" d="M105.22,465.76a.66.66,0,0,1-.27-.06.6.6,0,0,1-.27-.81,46.36,46.36,0,0,1,3.39-5.36.61.61,0,0,1,.84-.14.62.62,0,0,1,.14.85,44.94,44.94,0,0,0-3.29,5.19A.61.61,0,0,1,105.22,465.76Z" transform="translate(-2.87 -3.41)"/><path class="cls-3" d="M97.67,465.76h0a.61.61,0,0,1-.59-.62,127.67,127.67,0,0,0-2.68-28.61C89.76,414,80,394.74,72.65,382.55a.6.6,0,0,1,1-.62c7.41,12.27,17.22,31.66,21.88,54.36a129.45,129.45,0,0,1,2.71,28.88A.61.61,0,0,1,97.67,465.76Z" transform="translate(-2.87 -3.41)"/><path class="cls-3" d="M128.74,234.87a.6.6,0,0,1-.52-.29c-1.44-2.36-2.4-5.66-1.46-7.41a2,2,0,0,1,1.74-1.08c2.73-.09,4.41,4,5,5.82a.6.6,0,0,1-1.14.38c-.79-2.33-2.25-5-3.82-5a.79.79,0,0,0-.73.44c-.53,1-.13,3.65,1.43,6.21a.59.59,0,0,1-.2.83A.61.61,0,0,1,128.74,234.87Z" transform="translate(-2.87 -3.41)"/><path class="cls-3" d="M130.09,236.69a.6.6,0,0,1-.44-.2,11.19,11.19,0,0,1-1.42-1.9.61.61,0,1,1,1-.62,9.84,9.84,0,0,0,1.27,1.71.6.6,0,0,1,0,.85A.59.59,0,0,1,130.09,236.69Z" transform="translate(-2.87 -3.41)"/><path class="cls-3" d="M127.33,239.24a.64.64,0,0,1-.23-.05,10.51,10.51,0,0,1-1.31-.63c-3-1.65-5.35-4.48-5.33-6.43a2,2,0,0,1,1.11-1.81c2.75-1.45,7.12,3,7.6,3.53a.61.61,0,0,1,0,.85.6.6,0,0,1-.84,0l0,0c-1.15-1.21-4.51-4.17-6.17-3.3a.78.78,0,0,0-.46.76c0,1.3,1.92,3.83,4.71,5.37a10.45,10.45,0,0,0,1.17.56.61.61,0,0,1-.22,1.17Z" transform="translate(-2.87 -3.41)"/><path class="cls-3" d="M190.94,445.17a37.57,37.57,0,0,1-25.53-10,.59.59,0,0,1-.15-.57.6.6,0,0,1,.4-.42c22.15-6.85,35.45,8.57,35.58,8.73a.6.6,0,0,1,.12.57.62.62,0,0,1-.43.4A40.12,40.12,0,0,1,190.94,445.17ZM167,435A36.8,36.8,0,0,0,199.63,443,33,33,0,0,0,167,435Z" transform="translate(-2.87 -3.41)"/><path class="cls-3" d="M138.82,437.47a.61.61,0,0,1-.59-.76c5.85-22.42,26-25.6,26.18-25.63a.61.61,0,0,1,.55.21.59.59,0,0,1,.11.57,37.86,37.86,0,0,1-26.13,25.6Zm24.78-25A33,33,0,0,0,139.68,436,36.82,36.82,0,0,0,163.6,412.48Z" transform="translate(-2.87 -3.41)"/><path class="cls-3" d="M108.56,460.49a.78.78,0,0,1-.21,0,.6.6,0,0,1-.36-.37,35.89,35.89,0,0,1-3.23-14.91,34,34,0,0,1,8.17-21.76.59.59,0,0,1,.55-.17.63.63,0,0,1,.45.37,37.74,37.74,0,0,1-.07,28.05,38.14,38.14,0,0,1-3.76,7.16l0,0c-.63.91-1,1.4-1,1.42A.58.58,0,0,1,108.56,460.49Zm4.6-35.49a33.71,33.71,0,0,0-7.2,20.18,34.51,34.51,0,0,0,2.75,13.51l.38-.55h0l0,0a35.62,35.62,0,0,0,3.63-6.91A36.49,36.49,0,0,0,113.16,425Z" transform="translate(-2.87 -3.41)"/><path class="cls-3" d="M30.31,427.71A38.12,38.12,0,0,1,9.87,421.8a.61.61,0,0,1-.25-.53.62.62,0,0,1,.32-.49,34.5,34.5,0,0,1,37,2.11.61.61,0,0,1,.22.56.66.66,0,0,1-.37.47l-.1,0h0A38,38,0,0,1,30.31,427.71Zm-18.89-6.34a37.06,37.06,0,0,0,33.93,1.87A33.25,33.25,0,0,0,11.42,421.37Z" transform="translate(-2.87 -3.41)"/><path class="cls-3" d="M39.92,450.29a19.52,19.52,0,0,1-2.36-.11.58.58,0,0,1-.47-.34.6.6,0,0,1,0-.58A34.54,34.54,0,0,1,70.61,433.4a.63.63,0,0,1,.45.37.6.6,0,0,1-.07.58A38.22,38.22,0,0,1,39.92,450.29Zm-1.21-1.23a37,37,0,0,0,30.69-14.6A33.31,33.31,0,0,0,38.71,449.06Z" transform="translate(-2.87 -3.41)"/><path class="cls-3" d="M73.17,382.91a.61.61,0,0,1-.3-.08,38.15,38.15,0,0,1-19.4-31.49.6.6,0,0,1,.87-.53,34.4,34.4,0,0,1,19.43,31.44v.05a.58.58,0,0,1-.3.52A.55.55,0,0,1,73.17,382.91ZM54.71,352.36a37,37,0,0,0,17.87,28.9A33.13,33.13,0,0,0,54.71,352.36Z" transform="translate(-2.87 -3.41)"/><path class="cls-3" d="M87.26,411h-.12a.61.61,0,0,1-.45-.37,38.19,38.19,0,0,1,5-36.65.61.61,0,0,1,.55-.21.59.59,0,0,1,.46.35,34.51,34.51,0,0,1-5,36.71A.58.58,0,0,1,87.26,411ZM92,375.58a37,37,0,0,0-4.53,33.68A33.25,33.25,0,0,0,92,375.58Z" transform="translate(-2.87 -3.41)"/><path class="cls-3" d="M83.17,445.78a.61.61,0,0,1-.49-.26,39.8,39.8,0,0,1-7.09-28.64A32.09,32.09,0,0,1,78,408.1a.6.6,0,0,1,1-.1,36.63,36.63,0,0,1,7.39,19.72,40.64,40.64,0,0,1-2.66,17.7.6.6,0,0,1-.5.35Zm-4.51-36.2a35.08,35.08,0,0,0-1.88,7.47A38.49,38.49,0,0,0,83,443.88a40.82,40.82,0,0,0,2.15-16.07h0A35.32,35.32,0,0,0,78.66,409.58Z" transform="translate(-2.87 -3.41)"/><path class="cls-3" d="M148.82,455.55a37.06,37.06,0,0,1-25.66-10.22.65.65,0,0,1-.16-.58.6.6,0,0,1,.38-.44l.15,0c22.12-6.54,35.23,9,35.36,9.1a.6.6,0,0,1,.1.58.57.57,0,0,1-.43.39A40.76,40.76,0,0,1,148.82,455.55Zm-24.09-10.37a36.42,36.42,0,0,0,32.54,8.23A33,33,0,0,0,124.73,445.18Z" transform="translate(-2.87 -3.41)"/><path class="cls-3" d="M12.75,284.94a5.19,5.19,0,0,1-5.18-5.18,5.13,5.13,0,0,1,2.32-4.31,5.07,5.07,0,0,1,2.86-.87,5.18,5.18,0,0,1,3.74,8.76.6.6,0,1,1-.87-.83,4,4,0,0,0-2.87-6.72,3.84,3.84,0,0,0-2.19.66,4,4,0,0,0,2.19,7.28,3.74,3.74,0,0,0,.65-.06.62.62,0,0,1,.7.5.61.61,0,0,1-.5.69A5,5,0,0,1,12.75,284.94Z" transform="translate(-2.87 -3.41)"/><path class="cls-3" d="M462.52,324.12a5,5,0,0,1-2.06-.44.59.59,0,0,1-.31-.78c.39-.95.72-1.76,1-2.44l-2,1.57a.63.63,0,0,1-.46.12.56.56,0,0,1-.4-.25,5.1,5.1,0,0,1-1-3,5.18,5.18,0,1,1,5.18,5.19Zm-1-1.34a3.86,3.86,0,0,0,1,.13,4,4,0,0,0,3-6.54h0a4,4,0,0,0-7,2.56,3.82,3.82,0,0,0,.4,1.73l3.19-2.54a.6.6,0,0,1,.73,0,.59.59,0,0,1,.21.7C462.82,319.49,462.31,320.81,461.5,322.78Z" transform="translate(-2.87 -3.41)"/><path class="cls-3" d="M466,316.59a.55.55,0,0,1-.4-.16.6.6,0,0,1-.05-.85L475.09,305a.61.61,0,0,1,.9.81l-9.52,10.63A.62.62,0,0,1,466,316.59Z" transform="translate(-2.87 -3.41)"/><path class="cls-3" d="M323.34,257.66A6.67,6.67,0,1,1,330,251,6.67,6.67,0,0,1,323.34,257.66Zm0-12.14a5.47,5.47,0,1,0,5.47,5.47A5.48,5.48,0,0,0,323.34,245.52Z" transform="translate(-2.87 -3.41)"/><path class="cls-2" d="M327.24,81.16a24.44,24.44,0,1,1-24.45,24.44A24.44,24.44,0,0,1,327.24,81.16ZM335.57,120v-9.26a7.43,7.43,0,0,0-7.42-7.43h-1.83a7.43,7.43,0,0,0-7.43,7.43V120ZM332,95.9a4.74,4.74,0,1,0-4.73,4.73A4.73,4.73,0,0,0,332,95.9Z" transform="translate(-2.87 -3.41)"/><path class="cls-1" d="M335.57,110.78V120H318.89v-9.26a7.43,7.43,0,0,1,7.43-7.43h1.83A7.43,7.43,0,0,1,335.57,110.78Z" transform="translate(-2.87 -3.41)"/><path class="cls-1" d="M327.24,91.16a4.74,4.74,0,1,1-4.75,4.74A4.73,4.73,0,0,1,327.24,91.16Z" transform="translate(-2.87 -3.41)"/><path class="cls-3" d="M327.24,130.69a25.09,25.09,0,1,1,25.08-25.09A25.13,25.13,0,0,1,327.24,130.69Zm0-48.87A23.78,23.78,0,1,0,351,105.6,23.81,23.81,0,0,0,327.24,81.82Z" transform="translate(-2.87 -3.41)"/><path class="cls-3" d="M327.24,101.29a5.4,5.4,0,1,1,5.39-5.39A5.4,5.4,0,0,1,327.24,101.29Zm0-9.48a4.09,4.09,0,1,0,4.08,4.09A4.09,4.09,0,0,0,327.24,91.81Z" transform="translate(-2.87 -3.41)"/><path class="cls-3" d="M335.57,120.69H318.89a.65.65,0,0,1-.65-.65v-9.26a8.09,8.09,0,0,1,8.08-8.08h1.83a8.1,8.1,0,0,1,8.08,8.08V120A.65.65,0,0,1,335.57,120.69Zm-16-1.31h15.38v-8.6a6.78,6.78,0,0,0-6.77-6.77h-1.83a6.78,6.78,0,0,0-6.78,6.77Z" transform="translate(-2.87 -3.41)"/><path class="cls-2" d="M249.64,4.07A24.43,24.43,0,1,1,225.2,28.5,24.43,24.43,0,0,1,249.64,4.07ZM258,42.94V33.69a7.43,7.43,0,0,0-7.43-7.43h-1.83a7.43,7.43,0,0,0-7.43,7.43v9.25ZM254.37,18.8a4.74,4.74,0,1,0-4.73,4.74A4.74,4.74,0,0,0,254.37,18.8Z" transform="translate(-2.87 -3.41)"/><path class="cls-1" d="M258,33.69v9.25H241.29V33.69a7.43,7.43,0,0,1,7.43-7.43h1.83A7.43,7.43,0,0,1,258,33.69Z" transform="translate(-2.87 -3.41)"/><path class="cls-1" d="M249.64,14.06a4.74,4.74,0,1,1-4.74,4.74A4.74,4.74,0,0,1,249.64,14.06Z" transform="translate(-2.87 -3.41)"/><path class="cls-3" d="M249.64,53.59A25.09,25.09,0,1,1,274.73,28.5,25.13,25.13,0,0,1,249.64,53.59Zm0-48.87A23.78,23.78,0,1,0,273.42,28.5,23.81,23.81,0,0,0,249.64,4.72Z" transform="translate(-2.87 -3.41)"/><path class="cls-3" d="M249.64,24.19A5.4,5.4,0,1,1,255,18.8,5.4,5.4,0,0,1,249.64,24.19Zm0-9.48a4.09,4.09,0,1,0,4.08,4.09A4.09,4.09,0,0,0,249.64,14.71Z" transform="translate(-2.87 -3.41)"/><path class="cls-3" d="M258,43.59H241.29a.65.65,0,0,1-.65-.65V33.69a8.09,8.09,0,0,1,8.08-8.09h1.83a8.1,8.1,0,0,1,8.08,8.09v9.25A.65.65,0,0,1,258,43.59Zm-16-1.3h15.37v-8.6a6.78,6.78,0,0,0-6.77-6.78h-1.83A6.78,6.78,0,0,0,242,33.69Z" transform="translate(-2.87 -3.41)"/><path class="cls-1" d="M74,32.59a2.69,2.69,0,1,1-2.68,2.68A2.68,2.68,0,0,1,74,32.59Z" transform="translate(-2.87 -3.41)"/><path class="cls-1" d="M74,42.79a2.69,2.69,0,1,1-2.68,2.68A2.68,2.68,0,0,1,74,42.79Z" transform="translate(-2.87 -3.41)"/><path class="cls-1" d="M74,53a2.68,2.68,0,1,1-2.68,2.68A2.68,2.68,0,0,1,74,53Z" transform="translate(-2.87 -3.41)"/><path class="cls-1" d="M63.65,32.59A2.69,2.69,0,1,1,61,35.27,2.68,2.68,0,0,1,63.65,32.59Z" transform="translate(-2.87 -3.41)"/><path class="cls-1" d="M63.65,42.79A2.69,2.69,0,1,1,61,45.47,2.68,2.68,0,0,1,63.65,42.79Z" transform="translate(-2.87 -3.41)"/><path class="cls-1" d="M63.65,53A2.68,2.68,0,1,1,61,55.67,2.68,2.68,0,0,1,63.65,53Z" transform="translate(-2.87 -3.41)"/><path class="cls-1" d="M53.33,32.59a2.69,2.69,0,1,1-2.68,2.68A2.68,2.68,0,0,1,53.33,32.59Z" transform="translate(-2.87 -3.41)"/><path class="cls-1" d="M53.33,42.79a2.69,2.69,0,1,1-2.68,2.68A2.68,2.68,0,0,1,53.33,42.79Z" transform="translate(-2.87 -3.41)"/><path class="cls-1" d="M53.33,53a2.68,2.68,0,1,1-2.68,2.68A2.68,2.68,0,0,1,53.33,53Z" transform="translate(-2.87 -3.41)"/><path class="cls-3" d="M63.65,38.56a3.29,3.29,0,1,1,3.28-3.29A3.29,3.29,0,0,1,63.65,38.56Zm0-5.37a2.08,2.08,0,1,0,2.08,2.08A2.08,2.08,0,0,0,63.65,33.19Z" transform="translate(-2.87 -3.41)"/><path class="cls-3" d="M53.33,38.56a3.29,3.29,0,1,1,3.29-3.29A3.28,3.28,0,0,1,53.33,38.56Zm0-5.37a2.08,2.08,0,1,0,2.08,2.08A2.09,2.09,0,0,0,53.33,33.19Z" transform="translate(-2.87 -3.41)"/><path class="cls-3" d="M74,38.56a3.29,3.29,0,1,1,3.29-3.29A3.28,3.28,0,0,1,74,38.56Zm0-5.37A2.08,2.08,0,1,0,76,35.27,2.08,2.08,0,0,0,74,33.19Z" transform="translate(-2.87 -3.41)"/><path class="cls-3" d="M63.65,59a3.29,3.29,0,1,1,3.28-3.28A3.29,3.29,0,0,1,63.65,59Zm0-5.36a2.08,2.08,0,1,0,2.08,2.08A2.08,2.08,0,0,0,63.65,53.59Z" transform="translate(-2.87 -3.41)"/><path class="cls-3" d="M53.33,59a3.29,3.29,0,1,1,3.29-3.28A3.28,3.28,0,0,1,53.33,59Zm0-5.36a2.08,2.08,0,1,0,2.08,2.08A2.08,2.08,0,0,0,53.33,53.59Z" transform="translate(-2.87 -3.41)"/><path class="cls-3" d="M74,59a3.29,3.29,0,1,1,3.29-3.28A3.28,3.28,0,0,1,74,59Zm0-5.36A2.08,2.08,0,1,0,76,55.67,2.08,2.08,0,0,0,74,53.59Z" transform="translate(-2.87 -3.41)"/><path class="cls-3" d="M63.65,48.76a3.29,3.29,0,1,1,3.28-3.29A3.3,3.3,0,0,1,63.65,48.76Zm0-5.37a2.08,2.08,0,1,0,2.08,2.08A2.08,2.08,0,0,0,63.65,43.39Z" transform="translate(-2.87 -3.41)"/><path class="cls-3" d="M53.33,48.76a3.29,3.29,0,1,1,3.29-3.29A3.29,3.29,0,0,1,53.33,48.76Zm0-5.37a2.08,2.08,0,1,0,2.08,2.08A2.08,2.08,0,0,0,53.33,43.39Z" transform="translate(-2.87 -3.41)"/><path class="cls-3" d="M74,48.76a3.29,3.29,0,1,1,3.29-3.29A3.29,3.29,0,0,1,74,48.76Zm0-5.37A2.08,2.08,0,1,0,76,45.47,2.08,2.08,0,0,0,74,43.39Z" transform="translate(-2.87 -3.41)"/><path class="cls-1" d="M433.34,65.58a2.68,2.68,0,1,1-2.68,2.68A2.68,2.68,0,0,1,433.34,65.58Z" transform="translate(-2.87 -3.41)"/><path class="cls-1" d="M433.34,75.77a2.69,2.69,0,1,1-2.68,2.68A2.68,2.68,0,0,1,433.34,75.77Z" transform="translate(-2.87 -3.41)"/><path class="cls-1" d="M433.34,86a2.69,2.69,0,1,1-2.68,2.68A2.68,2.68,0,0,1,433.34,86Z" transform="translate(-2.87 -3.41)"/><path class="cls-1" d="M423,65.58a2.68,2.68,0,1,1-2.68,2.68A2.68,2.68,0,0,1,423,65.58Z" transform="translate(-2.87 -3.41)"/><path class="cls-1" d="M423,75.77a2.69,2.69,0,1,1-2.68,2.68A2.68,2.68,0,0,1,423,75.77Z" transform="translate(-2.87 -3.41)"/><path class="cls-1" d="M423,86a2.69,2.69,0,1,1-2.68,2.68A2.68,2.68,0,0,1,423,86Z" transform="translate(-2.87 -3.41)"/><path class="cls-1" d="M412.71,65.58A2.68,2.68,0,1,1,410,68.26,2.68,2.68,0,0,1,412.71,65.58Z" transform="translate(-2.87 -3.41)"/><path class="cls-1" d="M412.71,75.77A2.69,2.69,0,1,1,410,78.45,2.68,2.68,0,0,1,412.71,75.77Z" transform="translate(-2.87 -3.41)"/><path class="cls-1" d="M412.71,86A2.69,2.69,0,1,1,410,88.65,2.68,2.68,0,0,1,412.71,86Z" transform="translate(-2.87 -3.41)"/><path class="cls-3" d="M423,71.55a3.29,3.29,0,1,1,3.29-3.29A3.29,3.29,0,0,1,423,71.55Zm0-5.37a2.08,2.08,0,1,0,2.08,2.08A2.08,2.08,0,0,0,423,66.18Z" transform="translate(-2.87 -3.41)"/><path class="cls-3" d="M412.71,71.55A3.29,3.29,0,1,1,416,68.26,3.3,3.3,0,0,1,412.71,71.55Zm0-5.37a2.08,2.08,0,1,0,2.08,2.08A2.08,2.08,0,0,0,412.71,66.18Z" transform="translate(-2.87 -3.41)"/><path class="cls-3" d="M433.34,71.55a3.29,3.29,0,1,1,3.28-3.29A3.3,3.3,0,0,1,433.34,71.55Zm0-5.37a2.08,2.08,0,1,0,2.08,2.08A2.08,2.08,0,0,0,433.34,66.18Z" transform="translate(-2.87 -3.41)"/><path class="cls-3" d="M423,91.94a3.29,3.29,0,1,1,3.29-3.29A3.28,3.28,0,0,1,423,91.94Zm0-5.37a2.08,2.08,0,1,0,2.08,2.08A2.09,2.09,0,0,0,423,86.57Z" transform="translate(-2.87 -3.41)"/><path class="cls-3" d="M412.71,91.94A3.29,3.29,0,1,1,416,88.65,3.29,3.29,0,0,1,412.71,91.94Zm0-5.37a2.08,2.08,0,1,0,2.08,2.08A2.08,2.08,0,0,0,412.71,86.57Z" transform="translate(-2.87 -3.41)"/><path class="cls-3" d="M433.34,91.94a3.29,3.29,0,1,1,3.28-3.29A3.29,3.29,0,0,1,433.34,91.94Zm0-5.37a2.08,2.08,0,1,0,2.08,2.08A2.08,2.08,0,0,0,433.34,86.57Z" transform="translate(-2.87 -3.41)"/><path class="cls-3" d="M423,81.75a3.29,3.29,0,1,1,3.29-3.3A3.29,3.29,0,0,1,423,81.75Zm0-5.38a2.09,2.09,0,1,0,2.08,2.08A2.09,2.09,0,0,0,423,76.37Z" transform="translate(-2.87 -3.41)"/><path class="cls-3" d="M412.71,81.75a3.29,3.29,0,1,1,3.28-3.3A3.3,3.3,0,0,1,412.71,81.75Zm0-5.38a2.09,2.09,0,1,0,2.08,2.08A2.08,2.08,0,0,0,412.71,76.37Z" transform="translate(-2.87 -3.41)"/><path class="cls-3" d="M433.34,81.75a3.29,3.29,0,1,1,3.28-3.3A3.3,3.3,0,0,1,433.34,81.75Zm0-5.38a2.09,2.09,0,1,0,2.08,2.08A2.08,2.08,0,0,0,433.34,76.37Z" transform="translate(-2.87 -3.41)"/><path class="cls-1" d="M38.47,131.87a2.69,2.69,0,1,1-2.68,2.69A2.68,2.68,0,0,1,38.47,131.87Z" transform="translate(-2.87 -3.41)"/><path class="cls-1" d="M38.47,142.07a2.69,2.69,0,1,1-2.68,2.68A2.68,2.68,0,0,1,38.47,142.07Z" transform="translate(-2.87 -3.41)"/><path class="cls-1" d="M38.47,152.27A2.68,2.68,0,1,1,35.79,155,2.68,2.68,0,0,1,38.47,152.27Z" transform="translate(-2.87 -3.41)"/><path class="cls-1" d="M28.15,131.87a2.69,2.69,0,1,1-2.68,2.69A2.68,2.68,0,0,1,28.15,131.87Z" transform="translate(-2.87 -3.41)"/><path class="cls-1" d="M28.15,142.07a2.69,2.69,0,1,1-2.68,2.68A2.68,2.68,0,0,1,28.15,142.07Z" transform="translate(-2.87 -3.41)"/><path class="cls-1" d="M28.15,152.27A2.68,2.68,0,1,1,25.47,155,2.68,2.68,0,0,1,28.15,152.27Z" transform="translate(-2.87 -3.41)"/><path class="cls-1" d="M17.84,131.87a2.69,2.69,0,1,1-2.68,2.69A2.68,2.68,0,0,1,17.84,131.87Z" transform="translate(-2.87 -3.41)"/><path class="cls-1" d="M17.84,142.07a2.69,2.69,0,1,1-2.68,2.68A2.68,2.68,0,0,1,17.84,142.07Z" transform="translate(-2.87 -3.41)"/><path class="cls-1" d="M17.84,152.27A2.68,2.68,0,1,1,15.16,155,2.68,2.68,0,0,1,17.84,152.27Z" transform="translate(-2.87 -3.41)"/><path class="cls-3" d="M28.16,137.84a3.29,3.29,0,1,1,3.28-3.28A3.28,3.28,0,0,1,28.16,137.84Zm0-5.36a2.08,2.08,0,1,0,2.07,2.08A2.09,2.09,0,0,0,28.16,132.48Z" transform="translate(-2.87 -3.41)"/><path class="cls-3" d="M17.84,137.84a3.29,3.29,0,1,1,3.29-3.28A3.29,3.29,0,0,1,17.84,137.84Zm0-5.36a2.08,2.08,0,1,0,2.08,2.08A2.08,2.08,0,0,0,17.84,132.48Z" transform="translate(-2.87 -3.41)"/><path class="cls-3" d="M38.47,137.84a3.29,3.29,0,1,1,3.29-3.28A3.29,3.29,0,0,1,38.47,137.84Zm0-5.36a2.08,2.08,0,1,0,2.08,2.08A2.08,2.08,0,0,0,38.47,132.48Z" transform="translate(-2.87 -3.41)"/><path class="cls-3" d="M28.16,158.24A3.29,3.29,0,1,1,31.44,155,3.29,3.29,0,0,1,28.16,158.24Zm0-5.37A2.08,2.08,0,1,0,30.23,155,2.09,2.09,0,0,0,28.16,152.87Z" transform="translate(-2.87 -3.41)"/><path class="cls-3" d="M17.84,158.24A3.29,3.29,0,1,1,21.13,155,3.3,3.3,0,0,1,17.84,158.24Zm0-5.37A2.08,2.08,0,1,0,19.92,155,2.08,2.08,0,0,0,17.84,152.87Z" transform="translate(-2.87 -3.41)"/><path class="cls-3" d="M38.47,158.24A3.29,3.29,0,1,1,41.76,155,3.3,3.3,0,0,1,38.47,158.24Zm0-5.37A2.08,2.08,0,1,0,40.55,155,2.08,2.08,0,0,0,38.47,152.87Z" transform="translate(-2.87 -3.41)"/><path class="cls-3" d="M28.16,148a3.29,3.29,0,1,1,3.28-3.29A3.29,3.29,0,0,1,28.16,148Zm0-5.37a2.09,2.09,0,1,0,2.07,2.08A2.09,2.09,0,0,0,28.16,142.67Z" transform="translate(-2.87 -3.41)"/><path class="cls-3" d="M17.84,148a3.29,3.29,0,1,1,3.29-3.29A3.3,3.3,0,0,1,17.84,148Zm0-5.37a2.09,2.09,0,1,0,2.08,2.08A2.08,2.08,0,0,0,17.84,142.67Z" transform="translate(-2.87 -3.41)"/><path class="cls-3" d="M38.47,148a3.29,3.29,0,1,1,3.29-3.29A3.3,3.3,0,0,1,38.47,148Zm0-5.37a2.09,2.09,0,1,0,2.08,2.08A2.08,2.08,0,0,0,38.47,142.67Z" transform="translate(-2.87 -3.41)"/><path class="cls-3" d="M388.6,35a2.8,2.8,0,0,1-2-.83l-4.75-4.74-4.74,4.74a2.86,2.86,0,0,1-4,0,2.86,2.86,0,0,1,0-4l4.75-4.75-4.75-4.74a2.86,2.86,0,0,1,0-4,2.82,2.82,0,0,1,2-.83h0a2.85,2.85,0,0,1,2,.83l4.74,4.75,4.75-4.75a2.85,2.85,0,0,1,4,0,2.84,2.84,0,0,1,.83,2,2.81,2.81,0,0,1-.84,2l-4.73,4.74,4.74,4.75a2.84,2.84,0,0,1,0,4A2.81,2.81,0,0,1,388.6,35Zm-6.76-7a.62.62,0,0,1,.43.18l5.17,5.17a1.69,1.69,0,0,0,2.31,0,1.64,1.64,0,0,0,0-2.32h0l-5.16-5.17a.59.59,0,0,1,0-.85l5.16-5.17a1.64,1.64,0,0,0,0-2.32,1.68,1.68,0,0,0-2.31,0l-5.17,5.18a.61.61,0,0,1-.43.17h0a.59.59,0,0,1-.42-.17l-5.18-5.18a1.59,1.59,0,0,0-1.15-.48h0a1.61,1.61,0,0,0-1.16.48,1.64,1.64,0,0,0,0,2.32L379.1,25a.61.61,0,0,1,0,.85L373.93,31a1.64,1.64,0,0,0,0,2.32,1.69,1.69,0,0,0,2.31,0l5.18-5.17A.6.6,0,0,1,381.84,28Z" transform="translate(-2.87 -3.41)"/><rect class="cls-5" x="254.11" y="162.49" width="54.67" height="43.25"/><path class="cls-1" d="M302.94,202.17h-6.47a5.86,5.86,0,0,0-11.26,0H257.66a1.69,1.69,0,0,0,0,3.37h27.56a5.86,5.86,0,0,0,11.25,0h6.46a1.69,1.69,0,1,0,0-3.37Zm-12.09,4.21a2.53,2.53,0,1,1,2.53-2.53,2.53,2.53,0,0,1-2.53,2.53Zm10.45-47.24h-40a5.29,5.29,0,0,0-5.29,5.3V191a5.29,5.29,0,0,0,5.29,5.3h40a5.29,5.29,0,0,0,5.29-5.3V164.44A5.29,5.29,0,0,0,301.3,159.14ZM303.22,191a1.94,1.94,0,0,1-1.92,1.93h-40a1.94,1.94,0,0,1-1.92-1.93V164.44a1.94,1.94,0,0,1,1.92-1.93h40a1.94,1.94,0,0,1,1.92,1.93Z" transform="translate(-2.87 -3.41)"/><path class="cls-1" d="M290.61,176.27l-13.49-8.44a1.7,1.7,0,0,0-2.33.54,1.67,1.67,0,0,0-.25.89v16.88a1.68,1.68,0,0,0,1.68,1.68,1.77,1.77,0,0,0,.9-.25l13.49-8.44a1.68,1.68,0,0,0,.55-2.32,1.7,1.7,0,0,0-.55-.55Zm-12.7,6.83V172.3l8.63,5.4Z" transform="translate(-2.87 -3.41)"/><path class="cls-1" d="M163.63,113.55h-6.17a5.6,5.6,0,0,0-10.75,0h-26.3a1.62,1.62,0,0,0,0,3.23h26.3a5.61,5.61,0,0,0,10.75,0h6.17a1.62,1.62,0,0,0,0-3.23Zm-11.54,4a2.42,2.42,0,1,1,2.42-2.42,2.42,2.42,0,0,1-2.42,2.42Zm10-45.11H123.85a5.06,5.06,0,0,0-5,5.06v25.33a5,5,0,0,0,5,5h38.22a5,5,0,0,0,5.05-5V77.53A5.06,5.06,0,0,0,162.07,72.47Zm1.83,30.39a1.83,1.83,0,0,1-1.83,1.83H123.85a1.83,1.83,0,0,1-1.83-1.83V77.53a1.83,1.83,0,0,1,1.83-1.83h38.22a1.83,1.83,0,0,1,1.83,1.83Z" transform="translate(-2.87 -3.41)"/><path class="cls-1" d="M151.87,88.83,139,80.77a1.61,1.61,0,0,0-2.22.52,1.58,1.58,0,0,0-.24.85V98.25A1.61,1.61,0,0,0,139,99.62l12.89-8.06a1.61,1.61,0,0,0,0-2.74Zm-12.13,6.52V85L148,90.19Z" transform="translate(-2.87 -3.41)"/></svg>