<svg id="Layer_1" data-name="Layer 1" xmlns="http://www.w3.org/2000/svg" viewBox="0 0 471.31 521.31"><defs><style>.cls-1{fill:#fff;}.cls-2{fill:#4a253e;}.cls-3{fill:#fcb017;}.cls-4{fill:#3db54a;}.cls-5{fill:#dfe3f4;}.cls-6{fill:#63425c;}</style></defs><path class="cls-1" d="M257.49,463.06c0,2.45-.08,5.35-.12,8.47-.17,12.38-.41,29.3-.45,32.52l43.2-21.13-.58-21C284.29,460.36,266.79,462,257.49,463.06Z" transform="translate(-4.28 -0.22)"/><path class="cls-1" d="M256.46,514.75c-.12,3-.2,5-.22,5.76H348a28.29,28.29,0,0,0-3.49-5.76Z" transform="translate(-4.28 -0.22)"/><path class="cls-1" d="M256.48,514.08h87.45c-12.17-15.26-41.18-29.47-43.47-30.58L256.9,504.81C256.73,508.39,256.59,511.54,256.48,514.08Z" transform="translate(-4.28 -0.22)"/><path class="cls-1" d="M256.7,471.21c.05-3,.08-5.72.12-8.07-3.73.46-6,.83-6,.83h-.05a.34.34,0,0,1-.06-.67s2.49-.4,6.46-.88c9.3-1.13,27.24-2.78,42.78-1.17.77.08,1.55.16,2.31.26a.34.34,0,0,1,.3.38.35.35,0,0,1-.38.29l-1.92-.22.12,4.46c11-2.74,15.16-23,12.41-60.2-.13-1.86-.29-3.69-.44-5.48-.53-6-1.14-11.56-1.62-15.79-.95.05-1.89.07-2.82.07C282.74,385,263,368.89,250.61,355a11.9,11.9,0,0,1-4.05.71,16.55,16.55,0,0,1-6.28-1.37c-5.09,5.58-10.28,10.77-15.45,15.44a254.84,254.84,0,0,0-2.9,31c-.05,1.81-.08,3.65-.08,5.48,0,27.11,6,60.39,34.78,65Z" transform="translate(-4.28 -0.22)"/><path class="cls-1" d="M239.63,354c-11.4-5.11-22-20.65-22.16-20.81a.34.34,0,0,1,.56-.38c.1.16,10.92,15.94,22.29,20.77,3.6,1.53,6.89,1.8,9.81.82a142.64,142.64,0,0,1-18.67-27,.33.33,0,0,1,.15-.45.33.33,0,0,1,.45.15A141.92,141.92,0,0,0,251,354.34c12.71,14.37,33.36,31.18,59.64,30h0a.34.34,0,0,1,.3-.37.33.33,0,0,1,.37.29v.05a69.56,69.56,0,0,0,27.49-7.89l-2.94-3.93a27.43,27.43,0,0,0-1.42,3.29.34.34,0,0,1-.32.24l-.1,0a.33.33,0,0,1-.22-.42,29.1,29.1,0,0,1,1.71-3.88c2.86-5.61,10-16.88,25.9-29.29h0c.55-.44,1.11-.87,1.68-1.3a.34.34,0,1,1,.41.53c-.47.35-.93.71-1.38,1.07l4.91,5.05c5.24-12.8-3.61-29.66-25.66-48.78-24.26-21-41-31.16-50.87-35.94l-15.32.07c1.06,1.87.62,3,0,3.57a3.89,3.89,0,0,1-2.84.9,17.48,17.48,0,0,1-5-1c2.84,2.3,4.57,4.55,4.71,6.22a2.09,2.09,0,0,1-.61,1.76,3.89,3.89,0,0,1-2.84.91,13.35,13.35,0,0,1-2.66-.33,4,4,0,0,1,1.28,2.29,2,2,0,0,1-.49,1.51c-2.52,3-12.54-.35-14.13-.9-1.24,1.18-9.8,9.07-21.55,12.36.52,1.87,1.49,10.81-19.1,27.22-24.34,19.39-47.45,28.91-70.32,28.91a83.08,83.08,0,0,1-9.71-.57,30.11,30.11,0,0,1-4.29-.84c-1.31.86-14.47,10-28.18,37.16a57.12,57.12,0,0,0,5.94,5,79.38,79.38,0,0,0,19.31,10.45.25.25,0,0,1,0-.17c.06-.13,6.12-13.35,8.11-23.81a.35.35,0,0,1,.17-.24.37.37,0,0,1,.29,0c.16.07,15.8,6.86,37.29,5.8a.31.31,0,0,1,.28.14L183.36,396c13.61-5.46,27.38-14.42,40.93-26.66C229.42,364.69,234.58,359.54,239.63,354Z" transform="translate(-4.28 -0.22)"/><path class="cls-1" d="M133.4,374.21c-2.08,10.48-8,23.43-8.08,23.56a.24.24,0,0,1-.08.09,75.34,75.34,0,0,0,8.4,2.54,77.66,77.66,0,0,0,35.75,0,95.1,95.1,0,0,0,13.33-4.16l-12.29-16.33A92.35,92.35,0,0,1,133.4,374.21Z" transform="translate(-4.28 -0.22)"/><path class="cls-1" d="M230.69,289.76a54.59,54.59,0,0,0,21.57-12.38.35.35,0,0,1,.35-.08c3.11,1.11,11.62,3.48,13.6,1.16a1.31,1.31,0,0,0,.33-1,4.74,4.74,0,0,0-2-2.72h0c-2.41-1.94-6.51-3.83-11.25-5.2a.34.34,0,0,1-.23-.42.34.34,0,0,1,.42-.23c4.78,1.38,8.94,3.3,11.42,5.28,3.07.83,5.17.8,6.08-.11a1.45,1.45,0,0,0,.41-1.23c-.15-1.76-2.49-4.44-6.1-7a43.75,43.75,0,0,0-9.6-5.05.33.33,0,0,1-.19-.43.34.34,0,0,1,.43-.2,44.45,44.45,0,0,1,9.7,5.11c4.77,1.76,7.93,2.06,9.12.87.86-.86.25-2.23-.42-3.24a21.83,21.83,0,0,0-5.85-5.38,44.21,44.21,0,0,0-9-4.66.33.33,0,1,1,.24-.62,44.64,44.64,0,0,1,9.12,4.7c4.64,1.67,7.71,1.94,8.88.77a1.78,1.78,0,0,0,.25-2,9.86,9.86,0,0,0-2.25-3.17l0,0c-3.61-3.69-11.39-8.4-19.91-10-5.2-1-13.88.58-25.1,4.53-1.17.41-2.21.79-3.16,1.16l0,0a.34.34,0,0,1-.31.22l-.12,0a.18.18,0,0,1-.07,0c-2.86,1.08-5.81,2.29-8.78,3.59-2.21,1-3.75,1.69-4.26,1.93C213.59,260.5,214.63,276.7,230.69,289.76Z" transform="translate(-4.28 -0.22)"/><path class="cls-1" d="M295.27,255.61h0l-16.57.33a2.26,2.26,0,0,1-.53,2.23,3.89,3.89,0,0,1-2.84.9,16.93,16.93,0,0,1-4.71-.85,19.79,19.79,0,0,1,4.16,4.14l24.09-.11,24.47-75.36L320,180.35l-24.39,75A.33.33,0,0,1,295.27,255.61Z" transform="translate(-4.28 -0.22)"/><path class="cls-1" d="M314.28,182.74a.34.34,0,0,1,.32.44l-22.81,69.16a.35.35,0,0,1-.32.23l-14.79.07a10,10,0,0,1,1.78,2.63l16.56-.33,24.43-75.13-33.87.16v2.9l28.7-.13Z" transform="translate(-4.28 -0.22)"/><path class="cls-1" d="M277,198.1h-7.71a.72.72,0,0,0-.6.33.69.69,0,0,0-.06.68l4.29,9.79a.32.32,0,0,1-.08.38.34.34,0,0,1-.39.05L253.62,199a7.82,7.82,0,0,0-3.7-.94h-1L231.1,246.19c11.15-3.87,19.49-5.34,24.78-4.33,8.58,1.64,16.43,6.37,20.16,10.11l15.19-.07,22.59-68.49-28.24.13v6A8.57,8.57,0,0,1,277,198.1Z" transform="translate(-4.28 -0.22)"/><path class="cls-1" d="M227.91,197.43h22a8.54,8.54,0,0,1,4,1l18,9.82L268,199.38a1.36,1.36,0,0,1,.11-1.31,1.38,1.38,0,0,1,1.16-.64H277a7.9,7.9,0,0,0,7.89-7.89V167.71a7.9,7.9,0,0,0-7.89-7.89H227.91a7.9,7.9,0,0,0-7.89,7.89v21.83A7.9,7.9,0,0,0,227.91,197.43Z" transform="translate(-4.28 -0.22)"/><path class="cls-1" d="M227.79,247.37l2.49-.9,18-48.37h-2.52Z" transform="translate(-4.28 -0.22)"/><path class="cls-1" d="M344.79,400.39H436.5a23.87,23.87,0,0,0-3.51-5.46H345C344.88,397.71,344.81,399.64,344.79,400.39Z" transform="translate(-4.28 -0.22)"/><path class="cls-1" d="M345,394.26h87.4C419,378.85,384.1,364.44,381.5,363.38l-36.05,21.3C345.28,388.41,345.13,391.66,345,394.26Z" transform="translate(-4.28 -0.22)"/><path class="cls-1" d="M336.16,371.77c1.1,1.46,2.26,3,3.37,4.52,3.92,5.25,5.25,7.07,5.7,7.74l35.7-21.09-19.34-19.89C346.13,355.18,339.05,366.17,336.16,371.77Z" transform="translate(-4.28 -0.22)"/><path class="cls-1" d="M164,261a31.85,31.85,0,0,1,8.73-4.82l-13.7.07a9.57,9.57,0,0,1-.66,4A11.27,11.27,0,0,1,164,261Z" transform="translate(-4.28 -0.22)"/><path class="cls-1" d="M137.54,207.34a25,25,0,0,1,2.12-3.42,26.59,26.59,0,0,1,7.4-7,15.88,15.88,0,0,1-2.32-2.67.34.34,0,0,1,.08-.47.33.33,0,0,1,.46.08,14.94,14.94,0,0,0,2.55,2.85c4.67,3.85,10.52.64,20.37-7.07l0,0,.06,0,.06,0h.07a.2.2,0,0,1,.13,0h0c1.45.84,2.54,1.09,3.25.76s1-1.37,1.16-2.31a26.5,26.5,0,0,1,2.7-8.25c5.37-10,1.46-18,.52-19.68-1.88,1.44-12.24,8.68-28.41,7.37a.29.29,0,0,1-.23-.12.32.32,0,0,1-.07-.26,8.27,8.27,0,0,0-.33-4,5.16,5.16,0,0,0-3.89-3.6,4.61,4.61,0,0,0-3.5.91,7.61,7.61,0,0,0-2.88,5c-.47,2.89.56,5.68,2.54,7h0a4.24,4.24,0,0,0,1.66.65.33.33,0,0,1,.28.38.34.34,0,0,1-.38.28,4.93,4.93,0,0,1-1.65-.58c-.94,1.36-5.6,7.86-11.24,11.76a21.82,21.82,0,0,1-3,1.74h0a15.77,15.77,0,0,1-2,.77C124.85,191,130.05,201.29,137.54,207.34Z" transform="translate(-4.28 -0.22)"/><path class="cls-1" d="M138.8,172.76a7.68,7.68,0,0,1-2.56-7.42,8.29,8.29,0,0,1,3.15-5.43,5.39,5.39,0,0,1,4-1,5.84,5.84,0,0,1,4.41,4,8.91,8.91,0,0,1,.41,4c17.33,1.26,27.78-7.39,27.88-7.48a.35.35,0,0,1,.26-.08.31.31,0,0,1,.23.15c.06.09,5.91,9.07-.3,20.68a25.71,25.71,0,0,0-2.63,8,3.42,3.42,0,0,1-1.53,2.81,2.31,2.31,0,0,1-1,.21,5.87,5.87,0,0,1-2.69-.88c-7,5.5-12.11,8.73-16.23,8.73a7.26,7.26,0,0,1-4.61-1.66,25.44,25.44,0,0,0-7.19,6.65h0c9.84,7.67,24.68,12.11,37.94,11.36-.82-2.51-4-15.59,8.18-41.42,3.44-7.33,2.88-14.46-1.62-20.61-6.66-9.11-21.38-14.7-34.24-13-14.69,2-22.78,16.21-22.78,40.13a26.24,26.24,0,0,0,.24,3.55C133.49,180.21,137.87,174.1,138.8,172.76Z" transform="translate(-4.28 -0.22)"/><path class="cls-2" d="M45.23,271.91a.68.68,0,0,1-.68-.65.69.69,0,0,1,.65-.72c.69,0,1.39-.06,2.09-.05a.69.69,0,1,1,0,1.37H47.2c-.65,0-1.29,0-1.93.05Z" transform="translate(-4.28 -0.22)"/><path class="cls-2" d="M15,291.16a.67.67,0,0,1-.33-.08.69.69,0,0,1-.28-.93,39.31,39.31,0,0,1,2.21-3.62.7.7,0,0,1,1-.17.69.69,0,0,1,.17.95,36.53,36.53,0,0,0-2.13,3.49A.68.68,0,0,1,15,291.16Zm7.64-9.8a.69.69,0,0,1-.46-1.2,36.89,36.89,0,0,1,3.3-2.66.68.68,0,0,1,.95.15.7.7,0,0,1-.15,1,35.71,35.71,0,0,0-3.18,2.57A.69.69,0,0,1,22.62,281.36Zm10.5-6.67a.68.68,0,0,1-.27-1.31l.92-.38c1-.38,2-.73,3.08-1a.7.7,0,0,1,.85.47.67.67,0,0,1-.47.85c-1,.29-2,.63-3,1l-.89.36A.63.63,0,0,1,33.12,274.69Z" transform="translate(-4.28 -0.22)"/><path class="cls-2" d="M11.42,300.9l-.14,0a.68.68,0,0,1-.53-.81c.15-.68.31-1.37.49-2a.69.69,0,0,1,1.33.36c-.18.64-.34,1.3-.48,2A.69.69,0,0,1,11.42,300.9Z" transform="translate(-4.28 -0.22)"/><path class="cls-2" d="M11.36,315.72a.69.69,0,0,1-.67-.55c-.14-.68-.26-1.38-.36-2.07a.69.69,0,0,1,.58-.78.7.7,0,0,1,.78.58c.09.67.21,1.34.34,2a.68.68,0,0,1-.53.81Z" transform="translate(-4.28 -0.22)"/><path class="cls-2" d="M36.62,343.45a.63.63,0,0,1-.19,0,38,38,0,0,1-4.18-1.54.69.69,0,1,1,.55-1.26,35.89,35.89,0,0,0,4,1.49.68.68,0,0,1,.46.85A.68.68,0,0,1,36.62,343.45ZM25,337.5a.66.66,0,0,1-.42-.14,37.41,37.41,0,0,1-3.37-2.91.69.69,0,0,1,0-1,.68.68,0,0,1,1,0,37.73,37.73,0,0,0,3.25,2.8.69.69,0,0,1,.13,1A.67.67,0,0,1,25,337.5Zm-8.8-9.65a.71.71,0,0,1-.58-.32,38,38,0,0,1-2.13-3.92.69.69,0,0,1,.33-.91.7.7,0,0,1,.92.33,34.37,34.37,0,0,0,2,3.77.68.68,0,0,1-.22.94A.64.64,0,0,1,16.2,327.85Z" transform="translate(-4.28 -0.22)"/><path class="cls-2" d="M47.23,345c-.68,0-1.36,0-2,0a.68.68,0,0,1-.65-.72.7.7,0,0,1,.72-.65c.67,0,1.35,0,2,0h0a.69.69,0,0,1,.69.69.68.68,0,0,1-.69.68Z" transform="translate(-4.28 -0.22)"/><path class="cls-2" d="M11.38,313.71a7.67,7.67,0,0,1-.82,0,7,7,0,1,1,.82,0Zm0-12.81a5.71,5.71,0,1,0,4.48,2.16A5.7,5.7,0,0,0,11.37,300.9Z" transform="translate(-4.28 -0.22)"/><path class="cls-3" d="M415.35,134.82c-.17,11.24-1.15,22.43-1.4,33.67-.28,12.54-.84,26.28-5.38,38.08A49.9,49.9,0,1,0,414.92,111C415.3,118.9,415.46,126.86,415.35,134.82Z" transform="translate(-4.28 -0.22)"/><path class="cls-4" d="M90.35,19.5a18,18,0,1,1,19.23,16.72A18,18,0,0,1,90.35,19.5Z" transform="translate(-4.28 -0.22)"/><path class="cls-2" d="M66.59,76.19a.69.69,0,0,1-.2,0,.68.68,0,0,1-.46-.85c.39-1.33.82-2.65,1.27-4a.69.69,0,0,1,1.3.45c-.45,1.28-.87,2.58-1.25,3.88A.69.69,0,0,1,66.59,76.19Zm4.35-11.54a.65.65,0,0,1-.29-.07.68.68,0,0,1-.33-.91c.58-1.25,1.2-2.5,1.84-3.72a.68.68,0,1,1,1.21.64c-.63,1.2-1.24,2.43-1.81,3.66A.68.68,0,0,1,70.94,64.65Zm6-10.78a.69.69,0,0,1-.57-1.07c.75-1.15,1.54-2.29,2.35-3.41a.69.69,0,1,1,1.11.81c-.8,1.09-1.57,2.22-2.32,3.36A.68.68,0,0,1,76.93,53.87Zm7.49-9.8a.69.69,0,0,1-.52-1.14c.92-1,1.87-2.06,2.83-3a.68.68,0,0,1,1,0,.69.69,0,0,1,0,1c-.95,1-1.88,2-2.78,3A.69.69,0,0,1,84.42,44.07Zm8.82-8.62a.67.67,0,0,1-.52-.24.68.68,0,0,1,.08-1c1-.88,2.14-1.76,3.23-2.59a.69.69,0,0,1,.84,1.09c-1.08.82-2.15,1.68-3.19,2.55A.66.66,0,0,1,93.24,35.45Z" transform="translate(-4.28 -0.22)"/><path class="cls-2" d="M228.85,76.19a.69.69,0,0,1-.66-.5c-.37-1.25-.78-2.52-1.2-3.75a.68.68,0,0,1,1.29-.45c.44,1.25.85,2.54,1.22,3.82a.68.68,0,0,1-.46.85A.63.63,0,0,1,228.85,76.19Zm-4.28-11.41a.7.7,0,0,1-.63-.4c-.56-1.23-1.17-2.46-1.79-3.66a.68.68,0,1,1,1.21-.63c.64,1.21,1.25,2.46,1.83,3.71a.68.68,0,0,1-.34.91A.58.58,0,0,1,224.57,64.78Zm-6-10.79a.69.69,0,0,1-.58-.31c-.74-1.13-1.52-2.26-2.31-3.36a.68.68,0,0,1,.15-1,.68.68,0,0,1,1,.15c.81,1.11,1.6,2.26,2.35,3.41a.68.68,0,0,1-.2,1A.66.66,0,0,1,218.61,54Zm-7.47-9.8a.71.71,0,0,1-.52-.23c-.89-1-1.83-2-2.77-3a.69.69,0,0,1,1-1c1,1,1.91,2,2.82,3a.69.69,0,0,1-.06,1A.7.7,0,0,1,211.14,44.19Zm-8.82-8.62a.68.68,0,0,1-.44-.16c-1-.88-2.1-1.74-3.18-2.56a.69.69,0,0,1,.84-1.09c1.09.84,2.18,1.71,3.23,2.6a.69.69,0,0,1-.45,1.21Zm-10-7.26a.71.71,0,0,1-.37-.1c-1.15-.72-2.33-1.42-3.51-2.08a.69.69,0,0,1-.27-.93.68.68,0,0,1,.93-.26c1.21.67,2.41,1.38,3.58,2.1a.69.69,0,0,1,.22.95A.69.69,0,0,1,192.36,28.31Zm-10.92-5.74a.92.92,0,0,1-.28-.05c-1.24-.55-2.51-1.06-3.78-1.54a.69.69,0,0,1,.49-1.29c1.28.49,2.58,1,3.84,1.57a.68.68,0,0,1,.36.9A.69.69,0,0,1,181.44,22.57ZM169.8,18.49a.57.57,0,0,1-.18,0c-1.31-.35-2.65-.68-4-1a.7.7,0,0,1-.53-.82.68.68,0,0,1,.82-.52c1.35.29,2.71.62,4,1a.69.69,0,0,1,.48.84A.68.68,0,0,1,169.8,18.49Zm-40.74-.84a.68.68,0,0,1-.67-.53.69.69,0,0,1,.52-.82c1.34-.3,2.7-.58,4.06-.81a.68.68,0,0,1,.8.55.7.7,0,0,1-.56.8c-1.34.23-2.68.5-4,.8Zm28.62-1.5h-.08c-1.34-.16-2.71-.29-4.06-.38a.68.68,0,0,1-.64-.73.69.69,0,0,1,.73-.64c1.37.1,2.76.23,4.13.39a.68.68,0,0,1-.08,1.36Zm-16.43-.32a.69.69,0,0,1-.68-.64.68.68,0,0,1,.63-.73l.58,0c1.18-.09,2.38-.15,3.56-.18a.69.69,0,1,1,0,1.37c-1.16,0-2.34.09-3.5.17l-.57,0Z" transform="translate(-4.28 -0.22)"/><path class="cls-2" d="M112,41.5a18.76,18.76,0,1,1,1.33,0C112.86,41.48,112.42,41.5,112,41.5Zm0-36c-.41,0-.82,0-1.23,0a17.33,17.33,0,0,0-10.17,30.37,17.17,17.17,0,0,0,12.58,4.21A17.33,17.33,0,0,0,123.38,9.71,17.18,17.18,0,0,0,112,5.46Z" transform="translate(-4.28 -0.22)"/><polygon class="cls-3" points="251.19 203.65 293.77 203.65 296.24 195.61 255.38 195.61 251.19 203.65"/><path class="cls-5" d="M221.6,400.72a252.5,252.5,0,0,1,2.92-31.16c-14.7,13.28-28.54,21.76-41.27,26.83l-12.66-16.82-2.54.09c.7,6.56,1.4,13.65,2,21.06Z" transform="translate(-4.28 -0.22)"/><path class="cls-3" d="M174.67,255.84l-.87.3a31.79,31.79,0,0,0-9.76,5.24,10.86,10.86,0,0,0-6.18-.77l-.05-.15c.58-.75.87-2.34.87-4.54l6.94,0Z" transform="translate(-4.28 -0.22)"/><path class="cls-3" d="M87,240.18a4.56,4.56,0,0,0,.58-1.86,3.11,3.11,0,0,0,0-.43,4.65,4.65,0,1,0-.61,2.29ZM137.87,208l.23.19c13.18,10.22,20.56,36.62,20.58,47.7,0,2.2-.29,3.79-.87,4.54l.05.15a10.86,10.86,0,0,1,6.18.77,31.79,31.79,0,0,1,9.76-5.24l.87-.3c19.43-6.75,40-15.28,43.14-4.7l.24.55c-2.75,1.2-4.44,2-4.44,2-.37,6.32.45,23.07,17,36.43,0,0,4,8.94-18.88,27.19S162.36,349.16,132,345.59a28.79,28.79,0,0,1-4.38-.88S113.67,353.18,99,382.3a54.31,54.31,0,0,0,6.15,5.18l-.24.32c-32.74,7.94-52.16-26.5-52.16-74.35a207.42,207.42,0,0,1,5.62-46.83c9.3-39.83,27.1-61.34,40.63-72.46a4.65,4.65,0,1,0,3.69-1.81,4.46,4.46,0,0,0-2,.45,65.66,65.66,0,0,1,14.59-8.86,15,15,0,0,1,3.4-1c6.12-.87,6.27,3.36,6.27,3.36a14.31,14.31,0,0,1-2.1.83l-.15.07c1.67,3.68,7,14.48,14.89,20.65Zm82.42,99.73a4.64,4.64,0,1,0-4.64,4.64A4.64,4.64,0,0,0,220.29,307.76Zm-19.13-41.14a4.65,4.65,0,1,0-4.65,4.65A4.65,4.65,0,0,0,201.16,266.62Zm-9.29,35.87a4.65,4.65,0,1,0-4.65,4.64A4.64,4.64,0,0,0,191.87,302.49Zm-19.47-25a4.65,4.65,0,1,0-4.65,4.64A4.66,4.66,0,0,0,172.4,277.52Zm-2.11,48.69a4.65,4.65,0,1,0-4.64,4.65A4.64,4.64,0,0,0,170.29,326.21Zm-27.54,15.08a4.65,4.65,0,1,0-4.65,4.65A4.65,4.65,0,0,0,142.75,341.29Zm-.45-95.62a4.65,4.65,0,1,0-4.64,4.64A4.64,4.64,0,0,0,142.3,245.67Zm-2.86,61a4.65,4.65,0,1,0-4.64,4.64A4.64,4.64,0,0,0,139.44,306.69Zm-3.71-31.6a4.64,4.64,0,1,0-4.64,4.65A4.64,4.64,0,0,0,135.73,275.09Zm-.93-57.94a4.65,4.65,0,1,0-4.65,4.65A4.65,4.65,0,0,0,134.8,217.15Zm-23.58,48.33a4.65,4.65,0,1,0-4.65,4.64A4.65,4.65,0,0,0,111.22,265.48Zm-2.49-32.24a4.65,4.65,0,1,0-4.64,4.65A4.64,4.64,0,0,0,108.73,233.24Zm-2.16,64.48a4.64,4.64,0,1,0-4.64,4.65A4.65,4.65,0,0,0,106.57,297.72Zm0,44.87a4.64,4.64,0,1,0-4.64,4.64A4.64,4.64,0,0,0,106.57,342.59Zm-14.7,33a4.64,4.64,0,1,0-4.64,4.65A4.64,4.64,0,0,0,91.87,375.63Zm-2.5-63.23A4.65,4.65,0,1,0,84.72,317,4.64,4.64,0,0,0,89.37,312.4ZM74.64,346.16A4.65,4.65,0,1,0,70,350.8,4.64,4.64,0,0,0,74.64,346.16Zm-2.85-77a4.64,4.64,0,1,0-4.64,4.65A4.64,4.64,0,0,0,71.79,269.2Zm-4.64,32.85a4.65,4.65,0,1,0-4.64,4.64A4.65,4.65,0,0,0,67.15,302.05Z" transform="translate(-4.28 -0.22)"/><polygon class="cls-6" points="438.21 308.62 432.73 308.62 412.06 308.62 412.06 293.95 453.39 293.95 453.39 237.24 466.8 237.24 466.8 308.62 438.21 308.62"/><path class="cls-5" d="M437,308.84v91.88a23.84,23.84,0,0,0-3.86-6.13C419.46,378.2,381.47,363,381.47,363l-14.32-14.73c7.63-17.36-11.83-37.73-25.56-49.64-24-20.8-40.73-31-51-36l8.51,0,24.59-75.71-3.77-7.4-34.67.17V167.71a8.25,8.25,0,0,0-8.23-8.22h-49.1a8.25,8.25,0,0,0-8.23,8.22v21.83a8.26,8.26,0,0,0,8.23,8.23H245.5L227.23,248c-3.59,1.34-6.79,2.69-9.18,3.74l-.24-.55c-3.17-10.58-23.71-2-43.14,4.7l-9,0-6.94,0c0-11.08-7.4-37.48-20.58-47.7l-.23-.19-.22-.16h0a23.3,23.3,0,0,1,2.28-3.74l.27.2c10.55,8.22,25.87,12.23,38.61,11.4,0,0-5.37-13.07,8-41.59,10.13-21.56-15.94-36.76-36.2-34.08-14.91,2-23.07,16.63-23.07,40.46a26.12,26.12,0,0,0,.26,3.79l.1.32a21.09,21.09,0,0,1-2.92,1.7s-.15-4.23-6.27-3.36a15,15,0,0,0-3.4,1,65.66,65.66,0,0,0-14.59,8.86A4.67,4.67,0,0,0,99,194.16C85.5,205.28,67.7,226.79,58.4,266.62a207.42,207.42,0,0,0-5.62,46.83V179.85a25.62,25.62,0,1,0,0-42.42V81H437v141.8h-5.09a2.51,2.51,0,1,0-5,0h-24v71.37h13.41v14.67Zm-8.84-158.95c0-1.44-3.35-2.6-7.49-2.6s-7.48,1.16-7.48,2.6,3.35,2.61,7.48,2.61S428.17,151.33,428.17,149.89Zm-18.33-28.78c2.92-2.92,4.47-6.11,3.45-7.13s-4.21.52-7.13,3.45-4.47,6.12-3.46,7.14S406.91,124,409.84,121.11Zm3.45,64.69c1-1-.53-4.21-3.45-7.14s-6.12-4.47-7.14-3.44.53,4.21,3.46,7.13S412.28,186.82,413.29,185.8Zm-6.93-35.91a29,29,0,1,0-29,29A29,29,0,0,0,406.36,149.89ZM380,106.59c0-4.13-1.17-7.49-2.61-7.49s-2.6,3.36-2.6,7.49,1.16,7.49,2.6,7.49S380,110.73,380,106.59Zm0,86.6c0-4.14-1.17-7.49-2.61-7.49s-2.6,3.35-2.6,7.49,1.16,7.49,2.6,7.49S380,197.33,380,193.19Zm-23.66,44.4a2.55,2.55,0,0,0,0-3.6,2.5,2.5,0,0,0-1.8-.75,2.56,2.56,0,0,0-1.81.75l-5.87,5.87L341,234a2.55,2.55,0,1,0-3.6,3.6l5.88,5.88-5.88,5.88A2.55,2.55,0,0,0,341,253l5.89-5.88,5.87,5.88a2.55,2.55,0,0,0,3.61-3.61l-5.88-5.88Zm-4.27-113c1-1-.53-4.22-3.46-7.14s-6.11-4.47-7.13-3.45.53,4.21,3.45,7.13S351,125.58,352.06,124.57Zm-3.46,57.78c2.93-2.92,4.47-6.12,3.46-7.13s-4.21.52-7.14,3.44-4.47,6.13-3.45,7.14S345.68,185.27,348.6,182.35Zm-7-32.46c0-1.44-3.36-2.6-7.49-2.6s-7.49,1.16-7.49,2.6,3.35,2.61,7.49,2.61S341.57,151.33,341.57,149.89Zm-107.1-28.47a3.06,3.06,0,1,0-3.05,3.06A3.06,3.06,0,0,0,234.47,121.42Zm0,11.6a3.06,3.06,0,1,0-3.05,3.06A3.06,3.06,0,0,0,234.47,133Zm0,11.6a3.06,3.06,0,1,0-3.05,3A3,3,0,0,0,234.47,144.62Zm-11.73-23.2a3.06,3.06,0,1,0-3.06,3.06A3.06,3.06,0,0,0,222.74,121.42Zm0,11.6a3.06,3.06,0,1,0-3.06,3.06A3.06,3.06,0,0,0,222.74,133Zm0,11.6a3.06,3.06,0,1,0-3.06,3A3.05,3.05,0,0,0,222.74,144.62ZM211,121.42a3.06,3.06,0,1,0-3,3.06A3.06,3.06,0,0,0,211,121.42Zm0,11.6a3.06,3.06,0,1,0-3,3.06A3.06,3.06,0,0,0,211,133Zm0,11.6a3.06,3.06,0,1,0-3,3A3,3,0,0,0,211,144.62ZM113.68,129.4V110.22h-9.59v-9.6H84.9v19.19h9.59v9.59Z" transform="translate(-4.28 -0.22)"/><path class="cls-6" d="M433.15,394.59H344.67c.11-2.69.27-6.15.46-10.11L381.47,363S419.46,378.2,433.15,394.59Z" transform="translate(-4.28 -0.22)"/><path class="cls-4" d="M420.68,147.29c4.14,0,7.49,1.16,7.49,2.6s-3.35,2.61-7.49,2.61-7.48-1.17-7.48-2.61S416.55,147.29,420.68,147.29Z" transform="translate(-4.28 -0.22)"/><path class="cls-4" d="M413.29,114c1,1-.53,4.21-3.45,7.13s-6.12,4.47-7.14,3.46.53-4.22,3.46-7.14S412.28,113,413.29,114Z" transform="translate(-4.28 -0.22)"/><path class="cls-4" d="M409.84,178.66c2.92,2.93,4.47,6.13,3.45,7.14s-4.21-.53-7.13-3.45-4.47-6.12-3.46-7.13S406.91,175.74,409.84,178.66Z" transform="translate(-4.28 -0.22)"/><path class="cls-4" d="M377.38,120.91a29,29,0,1,1-29,29A29,29,0,0,1,377.38,120.91Z" transform="translate(-4.28 -0.22)"/><ellipse class="cls-4" cx="373.1" cy="106.37" rx="2.61" ry="7.49"/><path class="cls-4" d="M377.38,185.7c1.44,0,2.61,3.35,2.61,7.49s-1.17,7.49-2.61,7.49-2.6-3.35-2.6-7.49S375.94,185.7,377.38,185.7Z" transform="translate(-4.28 -0.22)"/><path class="cls-4" d="M335.77,371.81l3.49,4.68A69.44,69.44,0,0,1,311,384.62C285,386,264.37,370,250.71,354.56c-3.39,1.31-7,.83-10.52-.67-5.32,5.85-10.55,11.05-15.67,15.67-14.7,13.28-28.54,21.76-41.27,26.83l-12.66-16.82c-21.83,1.08-37.44-5.83-37.44-5.83-2,10.63-8.14,23.89-8.14,23.89l-.16.45a79.34,79.34,0,0,1-19.67-10.6A54.31,54.31,0,0,1,99,382.3c14.64-29.12,28.54-37.59,28.54-37.59a28.79,28.79,0,0,0,4.38.88c30.41,3.57,56.88-10,79.78-28.27s18.88-27.19,18.88-27.19a54.5,54.5,0,0,0,21.89-12.51s11.4,4.06,14,1.06c1-1.13.22-2.65-1.73-4.22,2.77.77,5.3,1,6.46-.17,1.71-1.71-.92-5.34-5.73-8.74,3.81,1.41,7.93,2.38,9.5.81.85-.84.64-2.15-.37-3.66l16-.08c10.28,5,27,15.22,51,36,13.73,11.91,33.19,32.28,25.56,49.64l-5.53-5.68C345.8,355,338.64,366.17,335.77,371.81Z" transform="translate(-4.28 -0.22)"/><path class="cls-4" d="M348.6,117.43c2.93,2.92,4.47,6.12,3.46,7.14s-4.21-.53-7.14-3.46-4.47-6.11-3.45-7.13S345.68,114.5,348.6,117.43Z" transform="translate(-4.28 -0.22)"/><path class="cls-4" d="M352.06,175.22c1,1-.53,4.21-3.46,7.13s-6.11,4.47-7.13,3.45.53-4.21,3.45-7.14S351,174.19,352.06,175.22Z" transform="translate(-4.28 -0.22)"/><path class="cls-5" d="M345.13,384.47h0c-.19,4-.35,7.42-.46,10.11-.15,3.84-.23,6.13-.23,6.13H312.63c-.52-6-1.12-11.48-1.65-16.1a69.44,69.44,0,0,0,28.28-8.13C342.37,380.65,345.13,384.38,345.13,384.47Z" transform="translate(-4.28 -0.22)"/><path class="cls-6" d="M344.63,514.42H256.14c.1-2.65.26-6,.43-9.82l43.89-21.46S332.1,498.15,344.63,514.42Z" transform="translate(-4.28 -0.22)"/><path class="cls-4" d="M334.08,147.29c4.13,0,7.49,1.16,7.49,2.6s-3.36,2.61-7.49,2.61-7.49-1.17-7.49-2.61S329.94,147.29,334.08,147.29Z" transform="translate(-4.28 -0.22)"/><path class="cls-4" d="M257.16,462.77h0c0,2.5-.08,5.52-.13,8.75h-.46c-28.23-4.49-35.06-36-35.06-65.3q0-2.76.09-5.49a252.5,252.5,0,0,1,2.92-31.16c5.12-4.62,10.35-9.82,15.67-15.67,3.53,1.5,7.13,2,10.52.67C264.37,370,285,386,311,384.62c.53,4.62,1.13,10.14,1.65,16.1q.24,2.68.45,5.49c1.92,26.06,1.57,57.6-13.07,60.66l-.15-5.27h0C284.36,460,266.49,461.63,257.16,462.77Z" transform="translate(-4.28 -0.22)"/><path class="cls-1" d="M285.24,183.21v6.33a8.25,8.25,0,0,1-8.23,8.23h-7.7a1.05,1.05,0,0,0-1,1.48l4.28,9.78-18.85-10.28a8,8,0,0,0-3.86-1h-22a8.26,8.26,0,0,1-8.23-8.23V167.71a8.25,8.25,0,0,1,8.23-8.22H277a8.25,8.25,0,0,1,8.23,8.22v15.5Zm-12.85-4.76a4.32,4.32,0,1,0-4.32,4.31A4.33,4.33,0,0,0,272.39,178.45Zm-16.58,0a4.31,4.31,0,1,0-4.31,4.31A4.32,4.32,0,0,0,255.81,178.45Zm-16.57,0a4.32,4.32,0,1,0-4.31,4.31A4.32,4.32,0,0,0,239.24,178.45Z" transform="translate(-4.28 -0.22)"/><path class="cls-6" d="M215.65,303.11a4.65,4.65,0,1,1-4.64,4.65A4.64,4.64,0,0,1,215.65,303.11Z" transform="translate(-4.28 -0.22)"/><path class="cls-6" d="M196.51,262a4.65,4.65,0,1,1-4.64,4.64A4.65,4.65,0,0,1,196.51,262Z" transform="translate(-4.28 -0.22)"/><path class="cls-6" d="M187.22,297.85a4.64,4.64,0,1,1-4.64,4.64A4.64,4.64,0,0,1,187.22,297.85Z" transform="translate(-4.28 -0.22)"/><path class="cls-6" d="M150.64,140.05c20.26-2.68,46.33,12.52,36.2,34.08-13.39,28.52-8,41.59-8,41.59-12.74.83-28.06-3.18-38.61-11.4l-.27-.2a25.65,25.65,0,0,1,7.68-7.13c4.69,3.88,10.25,1.2,20.79-7.06h0c4.06,2.35,4.67-.25,4.91-1.79A26.29,26.29,0,0,1,176,180c6.19-11.57.33-20.34.33-20.34s-10.58,9-28.48,7.54a8.72,8.72,0,0,0-.34-4.17,5.52,5.52,0,0,0-4.15-3.83c-3.12-.5-6.15,2.27-6.77,6.19-.5,3.09.65,6,2.69,7.29,0,0-5,7.57-11.33,11.94l-.1-.32a26.12,26.12,0,0,1-.26-3.79C127.57,156.68,135.73,142,150.64,140.05Z" transform="translate(-4.28 -0.22)"/><path class="cls-6" d="M170.59,379.57l12.66,16.82a92.4,92.4,0,0,1-13.78,4.33,77,77,0,0,1-44.62-2.64l.16-.45s6.12-13.26,8.14-23.89C133.15,373.74,148.76,380.65,170.59,379.57Z" transform="translate(-4.28 -0.22)"/><path class="cls-6" d="M167.75,272.87a4.65,4.65,0,1,1-4.64,4.65A4.66,4.66,0,0,1,167.75,272.87Z" transform="translate(-4.28 -0.22)"/><path class="cls-6" d="M165.65,321.57a4.65,4.65,0,1,1-4.65,4.64A4.64,4.64,0,0,1,165.65,321.57Z" transform="translate(-4.28 -0.22)"/><path class="cls-6" d="M167.09,176.06c.63.46.49,1.71-.31,2.8s-1.95,1.61-2.58,1.15-.49-1.72.31-2.81S166.47,175.6,167.09,176.06Z" transform="translate(-4.28 -0.22)"/><path class="cls-6" d="M138.1,336.64a4.65,4.65,0,1,1-4.64,4.65A4.65,4.65,0,0,1,138.1,336.64Z" transform="translate(-4.28 -0.22)"/><path class="cls-6" d="M137.66,241a4.64,4.64,0,1,1-4.65,4.64A4.64,4.64,0,0,1,137.66,241Z" transform="translate(-4.28 -0.22)"/><path class="cls-6" d="M134.8,302.05a4.64,4.64,0,1,1-4.65,4.64A4.64,4.64,0,0,1,134.8,302.05Z" transform="translate(-4.28 -0.22)"/><path class="cls-6" d="M131.09,270.45a4.65,4.65,0,1,1-4.64,4.64A4.64,4.64,0,0,1,131.09,270.45Z" transform="translate(-4.28 -0.22)"/><path class="cls-6" d="M130.15,212.5a4.65,4.65,0,1,1-4.64,4.65A4.65,4.65,0,0,1,130.15,212.5Z" transform="translate(-4.28 -0.22)"/><path class="cls-5" d="M133.56,400.72H52.78V313.45c0,47.85,19.42,82.29,52.16,74.35l.24-.32a79.34,79.34,0,0,0,19.67,10.6A76.93,76.93,0,0,0,133.56,400.72Z" transform="translate(-4.28 -0.22)"/><path class="cls-6" d="M106.57,260.84a4.64,4.64,0,1,1-4.64,4.64A4.65,4.65,0,0,1,106.57,260.84Z" transform="translate(-4.28 -0.22)"/><path class="cls-6" d="M104.09,228.6a4.65,4.65,0,1,1-4.65,4.64A4.64,4.64,0,0,1,104.09,228.6Z" transform="translate(-4.28 -0.22)"/><path class="cls-6" d="M102.72,192.35A4.63,4.63,0,1,1,99,194.16c.59-.48,1.16-.93,1.72-1.36A4.46,4.46,0,0,1,102.72,192.35Z" transform="translate(-4.28 -0.22)"/><path class="cls-6" d="M101.93,293.07a4.65,4.65,0,1,1-4.64,4.65A4.65,4.65,0,0,1,101.93,293.07Z" transform="translate(-4.28 -0.22)"/><path class="cls-6" d="M101.93,338a4.64,4.64,0,1,1-4.64,4.64A4.64,4.64,0,0,1,101.93,338Z" transform="translate(-4.28 -0.22)"/><polygon class="cls-6" points="99.8 110 99.8 119.59 90.21 119.59 80.62 119.59 80.62 100.4 99.8 100.4 99.8 110"/><polygon class="cls-4" points="123.12 133.31 123.12 142.91 113.53 142.91 103.93 142.91 103.93 123.72 123.12 123.72 123.12 133.31"/><path class="cls-6" d="M99,194.16a4.67,4.67,0,0,1,1.72-1.36C100.19,193.23,99.62,193.68,99,194.16Z" transform="translate(-4.28 -0.22)"/><path class="cls-6" d="M87.23,371a4.65,4.65,0,1,1-4.64,4.64A4.64,4.64,0,0,1,87.23,371Z" transform="translate(-4.28 -0.22)"/><path class="cls-6" d="M84.72,307.76a4.64,4.64,0,1,1-4.64,4.64A4.64,4.64,0,0,1,84.72,307.76Z" transform="translate(-4.28 -0.22)"/><path class="cls-6" d="M87.62,237.89a3.11,3.11,0,0,1,0,.43c-.2.6-.39,1.23-.58,1.86a4.64,4.64,0,1,1,.61-2.29Z" transform="translate(-4.28 -0.22)"/><path class="cls-6" d="M87,240.18c.19-.63.38-1.26.58-1.86A4.56,4.56,0,0,1,87,240.18Z" transform="translate(-4.28 -0.22)"/><path class="cls-4" d="M70,133a25.65,25.65,0,1,1-14.37,4.41A25.63,25.63,0,0,1,70,133Zm8.74,40.76v-9.7A7.79,7.79,0,0,0,71,156.29H69a7.79,7.79,0,0,0-7.79,7.79v9.7ZM75,148.47a5,5,0,1,0-5,5A5,5,0,0,0,75,148.47Z" transform="translate(-4.28 -0.22)"/><path class="cls-6" d="M70,341.51a4.65,4.65,0,1,1-4.64,4.65A4.64,4.64,0,0,1,70,341.51Z" transform="translate(-4.28 -0.22)"/><path class="cls-6" d="M67.15,264.56a4.65,4.65,0,1,1-4.64,4.64A4.64,4.64,0,0,1,67.15,264.56Z" transform="translate(-4.28 -0.22)"/><path class="cls-6" d="M62.51,297.4a4.65,4.65,0,1,1-4.65,4.65A4.65,4.65,0,0,1,62.51,297.4Z" transform="translate(-4.28 -0.22)"/><path class="cls-6" d="M286.4,239.57h-42a.7.7,0,0,1-.65-.9l12.82-38.25a.7.7,0,0,1,.87-.44.69.69,0,0,1,.43.87L245.38,238.2H285.9l14-41.65h-17.6a.68.68,0,0,1-.69-.68.69.69,0,0,1,.69-.69h18.55a.7.7,0,0,1,.56.29.72.72,0,0,1,.09.62l-14.41,43A.7.7,0,0,1,286.4,239.57Z" transform="translate(-4.28 -0.22)"/><path class="cls-2" d="M273,233.11H261.63A3.84,3.84,0,0,1,258,228l1-3.08a3.86,3.86,0,0,1,3.65-2.63H274a3.86,3.86,0,0,1,3.65,5.08l-1,3.08h0A3.83,3.83,0,0,1,273,233.11Zm-10.31-9.41a2.48,2.48,0,0,0-2.35,1.69l-1,3.08a2.48,2.48,0,0,0,2.35,3.27H273a2.47,2.47,0,0,0,2.35-1.69l1-3.08A2.48,2.48,0,0,0,274,223.7ZM276,230.27h0Z" transform="translate(-4.28 -0.22)"/><path class="cls-6" d="M297.62,204.56H270.37a.69.69,0,0,1-.69-.69.68.68,0,0,1,.69-.68h27.25a.68.68,0,0,1,.69.68A.69.69,0,0,1,297.62,204.56Z" transform="translate(-4.28 -0.22)"/><path class="cls-6" d="M263.17,204.56h-7a.69.69,0,0,1-.69-.69.68.68,0,0,1,.69-.68h7a.68.68,0,0,1,.69.68A.69.69,0,0,1,263.17,204.56Z" transform="translate(-4.28 -0.22)"/><path class="cls-4" d="M233.36,178.45a4.31,4.31,0,1,1,4.31,4.31A4.31,4.31,0,0,1,233.36,178.45Z" transform="translate(-4.28 -0.22)"/><path class="cls-4" d="M249.93,178.45a4.32,4.32,0,1,1,4.31,4.31A4.31,4.31,0,0,1,249.93,178.45Z" transform="translate(-4.28 -0.22)"/><path class="cls-4" d="M266.5,178.45a4.32,4.32,0,1,1,4.32,4.31A4.31,4.31,0,0,1,266.5,178.45Z" transform="translate(-4.28 -0.22)"/><path class="cls-4" d="M426.91,222.79a2.5,2.5,0,1,1,2.5,2.5A2.5,2.5,0,0,1,426.91,222.79Z" transform="translate(-4.28 -0.22)"/><polygon class="cls-1" points="266.53 127.92 255.58 146.89 277.48 146.89 266.53 127.92"/><circle class="cls-6" cx="380.35" cy="318.5" r="1.88"/><circle class="cls-6" cx="380.35" cy="335" r="1.88"/><circle class="cls-6" cx="380.35" cy="326.75" r="1.88"/><path class="cls-6" d="M401.05,318.72a1.88,1.88,0,1,1,1.88,1.88A1.88,1.88,0,0,1,401.05,318.72Z" transform="translate(-4.28 -0.22)"/><path class="cls-6" d="M401.05,335.23a1.88,1.88,0,1,1,1.88,1.87A1.88,1.88,0,0,1,401.05,335.23Z" transform="translate(-4.28 -0.22)"/><path class="cls-6" d="M401.05,327a1.88,1.88,0,1,1,1.88,1.87A1.88,1.88,0,0,1,401.05,327Z" transform="translate(-4.28 -0.22)"/><circle class="cls-6" cx="389.5" cy="318.5" r="1.88"/><circle class="cls-6" cx="389.5" cy="335" r="1.88"/><circle class="cls-6" cx="389.5" cy="326.75" r="1.88"/><path class="cls-2" d="M437,401.41H344.44a.69.69,0,0,1-.49-.21.7.7,0,0,1-.2-.5s.08-2.3.24-6.14c.11-2.64.26-6,.44-9.91-.4-.58-2.07-2.86-5.72-7.75l-3.49-4.68a.7.7,0,0,1-.14-.41.69.69,0,0,1,.69-.69.67.67,0,0,1,.58.33c1.12,1.49,2.32,3.09,3.46,4.63,6,8,6,8.08,6,8.39-.18,4-.34,7.46-.45,10.15s-.18,4.46-.21,5.42H436a24.82,24.82,0,0,0-3.33-5c-13.42-16.06-51-31.23-51.41-31.38a.63.63,0,0,1-.23-.16l-19.85-20.42a.68.68,0,0,1,1-1h0l19.76,20.32c2.89,1.16,38.44,15.72,51.82,31.72a24.81,24.81,0,0,1,4,6.31.69.69,0,0,1-.64,1Z" transform="translate(-4.28 -0.22)"/><path class="cls-2" d="M348.46,521.53H255.89a.67.67,0,0,1-.49-.21.7.7,0,0,1-.2-.5s.09-2.41.25-6.44c.11-2.65.26-6,.44-9.82,0-.11.27-19.79.46-33.05,0-3.23.09-6.24.12-8.75a.69.69,0,0,1,.7-.67.67.67,0,0,1,.67.69c0,2.5-.07,5.51-.12,8.75-.19,13.7-.46,32.81-.46,33.07-.18,3.84-.33,7.19-.44,9.84s-.19,4.73-.22,5.72h90.81a28.64,28.64,0,0,0-3.33-5.32c-12.28-16-43.6-30.94-43.92-31.09a.69.69,0,0,1-.39-.6l-.59-21.53a.69.69,0,1,1,1.37,0l.58,21.11c3.64,1.78,32.3,16.06,44,31.31a28.16,28.16,0,0,1,3.92,6.59.69.69,0,0,1-.06.64A.68.68,0,0,1,348.46,521.53Z" transform="translate(-4.28 -0.22)"/><path class="cls-2" d="M345.13,385.16a.68.68,0,0,1-.35-1.27l36.34-21.47a.69.69,0,1,1,.7,1.18l-36.35,21.47A.69.69,0,0,1,345.13,385.16Z" transform="translate(-4.28 -0.22)"/><path class="cls-2" d="M256.57,505.28a.69.69,0,0,1-.3-1.3l43.89-21.47a.69.69,0,0,1,.6,1.24l-43.88,21.46A.67.67,0,0,1,256.57,505.28Z" transform="translate(-4.28 -0.22)"/><path class="cls-2" d="M354.53,254.39a3.22,3.22,0,0,1-2.29-.94l-5.39-5.4-5.4,5.4a3.26,3.26,0,0,1-4.58,0,3.25,3.25,0,0,1,0-4.58l5.4-5.4-5.4-5.4a3.24,3.24,0,0,1,4.58-4.57l5.4,5.39,5.39-5.39a3.23,3.23,0,0,1,5.52,2.29,3.19,3.19,0,0,1-.95,2.28l-5.39,5.4,5.39,5.4a3.17,3.17,0,0,1,.95,2.28,3.21,3.21,0,0,1-3.23,3.24Zm-7.68-8h0a.67.67,0,0,1,.48.2l5.88,5.89a1.86,1.86,0,0,0,3.18-1.33,1.83,1.83,0,0,0-.54-1.31h0L350,244a.7.7,0,0,1-.2-.49.66.66,0,0,1,.2-.48l5.89-5.89a1.83,1.83,0,0,0,.54-1.31,1.85,1.85,0,0,0-.54-1.32,1.91,1.91,0,0,0-2.65,0l-5.87,5.87a.68.68,0,0,1-1,0l-5.88-5.88a1.92,1.92,0,0,0-2.64,0,1.85,1.85,0,0,0-.54,1.32,1.83,1.83,0,0,0,.54,1.31l5.88,5.89a.67.67,0,0,1,.21.48.71.71,0,0,1-.21.49l-5.88,5.88a1.88,1.88,0,0,0,0,2.64,2,2,0,0,0,2.64,0l5.88-5.89A.68.68,0,0,1,346.85,246.39Z" transform="translate(-4.28 -0.22)"/><path class="cls-2" d="M272.63,209.72a.8.8,0,0,1-.33-.08l-18.85-10.29a7.35,7.35,0,0,0-3.53-.9h-22a8.92,8.92,0,0,1-8.91-8.91V167.71a8.92,8.92,0,0,1,8.91-8.91H277a8.93,8.93,0,0,1,8.92,8.91v21.83a8.92,8.92,0,0,1-8.92,8.91h-7.7a.38.38,0,0,0-.31.17.34.34,0,0,0,0,.35l4.28,9.79a.68.68,0,0,1-.63,1Zm-44.72-49.55a7.55,7.55,0,0,0-7.54,7.54v21.83a7.55,7.55,0,0,0,7.54,7.54h22a8.76,8.76,0,0,1,4.19,1.07l17.09,9.32-3.48-7.95a1.73,1.73,0,0,1,.13-1.65,1.76,1.76,0,0,1,1.46-.79H277a7.55,7.55,0,0,0,7.55-7.54V167.71a7.55,7.55,0,0,0-7.55-7.54Z" transform="translate(-4.28 -0.22)"/><path class="cls-2" d="M251.5,183.44a5,5,0,1,1,5-5A5,5,0,0,1,251.5,183.44Zm0-8.62a3.63,3.63,0,1,0,3.63,3.63A3.64,3.64,0,0,0,251.5,174.82Z" transform="translate(-4.28 -0.22)"/><path class="cls-2" d="M268.07,183.44a5,5,0,1,1,5-5A5,5,0,0,1,268.07,183.44Zm0-8.62a3.63,3.63,0,1,0,3.63,3.63A3.63,3.63,0,0,0,268.07,174.82Z" transform="translate(-4.28 -0.22)"/><path class="cls-2" d="M234.93,183.44a5,5,0,1,1,5-5A5,5,0,0,1,234.93,183.44Zm0-8.62a3.63,3.63,0,1,0,3.62,3.63A3.64,3.64,0,0,0,234.93,174.82Z" transform="translate(-4.28 -0.22)"/><path class="cls-2" d="M219.68,125.17a3.75,3.75,0,1,1,3.75-3.75A3.74,3.74,0,0,1,219.68,125.17Zm0-6.11a2.37,2.37,0,1,0,2.38,2.36A2.36,2.36,0,0,0,219.68,119.06Z" transform="translate(-4.28 -0.22)"/><path class="cls-2" d="M208,125.17a3.75,3.75,0,1,1,3.73-3.75A3.75,3.75,0,0,1,208,125.17Zm0-6.11a2.37,2.37,0,1,0,2.36,2.36A2.37,2.37,0,0,0,208,119.06Z" transform="translate(-4.28 -0.22)"/><path class="cls-2" d="M231.42,125.17a3.75,3.75,0,1,1,3.74-3.75A3.74,3.74,0,0,1,231.42,125.17Zm0-6.11a2.37,2.37,0,1,0,2.37,2.36A2.37,2.37,0,0,0,231.42,119.06Z" transform="translate(-4.28 -0.22)"/><path class="cls-2" d="M219.68,148.36a3.74,3.74,0,1,1,3.75-3.74A3.74,3.74,0,0,1,219.68,148.36Zm0-6.11a2.37,2.37,0,1,0,2.38,2.37A2.37,2.37,0,0,0,219.68,142.25Z" transform="translate(-4.28 -0.22)"/><path class="cls-2" d="M208,148.36a3.74,3.74,0,1,1,3.73-3.74A3.75,3.75,0,0,1,208,148.36Zm0-6.11a2.37,2.37,0,1,0,2.36,2.37A2.38,2.38,0,0,0,208,142.25Z" transform="translate(-4.28 -0.22)"/><path class="cls-2" d="M231.42,148.36a3.74,3.74,0,1,1,3.74-3.74A3.74,3.74,0,0,1,231.42,148.36Zm0-6.11a2.37,2.37,0,1,0,2.37,2.37A2.38,2.38,0,0,0,231.42,142.25Z" transform="translate(-4.28 -0.22)"/><path class="cls-2" d="M219.68,136.76a3.74,3.74,0,1,1,3.75-3.74A3.74,3.74,0,0,1,219.68,136.76Zm0-6.11a2.37,2.37,0,1,0,2.38,2.37A2.37,2.37,0,0,0,219.68,130.65Z" transform="translate(-4.28 -0.22)"/><path class="cls-2" d="M208,136.76a3.74,3.74,0,1,1,3.73-3.74A3.75,3.75,0,0,1,208,136.76Zm0-6.11a2.37,2.37,0,1,0,2.36,2.37A2.38,2.38,0,0,0,208,130.65Z" transform="translate(-4.28 -0.22)"/><path class="cls-2" d="M231.42,136.76a3.74,3.74,0,1,1,3.74-3.74A3.74,3.74,0,0,1,231.42,136.76Zm0-6.11a2.37,2.37,0,1,0,2.37,2.37A2.38,2.38,0,0,0,231.42,130.65Z" transform="translate(-4.28 -0.22)"/><path class="cls-2" d="M104.09,120.5H84.9a.68.68,0,0,1-.68-.69V100.62a.68.68,0,0,1,.68-.68h19.19a.68.68,0,0,1,.68.68v19.19A.68.68,0,0,1,104.09,120.5Zm-18.5-1.38H103.4V101.31H85.59Z" transform="translate(-4.28 -0.22)"/><path class="cls-2" d="M113.68,130.09H94.49a.69.69,0,0,1-.68-.69v-9.59a.69.69,0,1,1,1.37,0v8.91H113V110.9h-8.9a.68.68,0,0,1-.69-.68.69.69,0,0,1,.69-.69h9.59a.69.69,0,0,1,.69.69V129.4A.69.69,0,0,1,113.68,130.09Z" transform="translate(-4.28 -0.22)"/><path class="cls-2" d="M67.15,185a26.31,26.31,0,1,1,26.3-26.31A26.17,26.17,0,0,1,67.15,185Zm0-51.24a24.92,24.92,0,0,0-24.93,24.93,25,25,0,0,0,5.6,15.76h0a24.93,24.93,0,1,0,19.33-40.69Z" transform="translate(-4.28 -0.22)"/><path class="cls-2" d="M67.15,154.12a5.65,5.65,0,1,1,5.66-5.65A5.66,5.66,0,0,1,67.15,154.12Zm0-9.93a4.28,4.28,0,1,0,4.28,4.28A4.29,4.29,0,0,0,67.15,144.19Z" transform="translate(-4.28 -0.22)"/><path class="cls-2" d="M75.89,174.47H58.4a.69.69,0,0,1-.69-.69v-9.7a8.5,8.5,0,0,1,8.48-8.48H68.1a8.49,8.49,0,0,1,8.48,8.48v9.7A.69.69,0,0,1,75.89,174.47ZM59.08,173.1H75.21v-9A7.11,7.11,0,0,0,68.1,157H66.19a7.11,7.11,0,0,0-7.11,7.1Z" transform="translate(-4.28 -0.22)"/><path class="cls-2" d="M377.38,179.55A29.66,29.66,0,1,1,407,149.89,29.69,29.69,0,0,1,377.38,179.55Zm0-58a28.29,28.29,0,1,0,28.29,28.29A28.32,28.32,0,0,0,377.38,121.6Z" transform="translate(-4.28 -0.22)"/><path class="cls-2" d="M377.38,114.76c-2.16,0-3.29-4.11-3.29-8.17s1.13-8.17,3.29-8.17,3.29,4.11,3.29,8.17S379.54,114.76,377.38,114.76Zm0-15c-.65,0-1.92,2.4-1.92,6.8s1.27,6.8,1.92,6.8,1.92-2.4,1.92-6.8S378,99.79,377.38,99.79Z" transform="translate(-4.28 -0.22)"/><path class="cls-2" d="M377.38,201.37c-2.16,0-3.29-4.12-3.29-8.18s1.13-8.18,3.29-8.18,3.29,4.12,3.29,8.18S379.54,201.37,377.38,201.37Zm0-15c-.65,0-1.92,2.4-1.92,6.8s1.27,6.81,1.92,6.81,1.92-2.41,1.92-6.81S378,186.39,377.38,186.39Z" transform="translate(-4.28 -0.22)"/><path class="cls-2" d="M420.68,153.18c-4.06,0-8.17-1.13-8.17-3.29s4.11-3.29,8.17-3.29,8.18,1.13,8.18,3.29S424.75,153.18,420.68,153.18Zm0-5.21c-4.4,0-6.8,1.27-6.8,1.92s2.4,1.92,6.8,1.92,6.81-1.27,6.81-1.92S425.08,148,420.68,148Z" transform="translate(-4.28 -0.22)"/><path class="cls-2" d="M334.08,153.18c-4.06,0-8.17-1.13-8.17-3.29s4.11-3.29,8.17-3.29,8.17,1.13,8.17,3.29S338.14,153.18,334.08,153.18Zm0-5.21c-4.4,0-6.8,1.27-6.8,1.92s2.4,1.92,6.8,1.92,6.8-1.27,6.8-1.92S338.48,148,334.08,148Z" transform="translate(-4.28 -0.22)"/><path class="cls-2" d="M403.59,125.57a1.83,1.83,0,0,1-1.37-.52c-1.53-1.53.58-5.24,3.46-8.1,2.4-2.41,5-4,6.71-4h0a1.92,1.92,0,0,1,1.38.51c1.53,1.53-.58,5.24-3.45,8.11C408.12,123.81,405.42,125.57,403.59,125.57Zm8.81-11.22h0c-1.05,0-3.3,1.12-5.74,3.57h0c-3.11,3.1-3.91,5.7-3.45,6.17s3.05-.35,6.17-3.46,3.91-5.71,3.45-6.17A.64.64,0,0,0,412.4,114.35Zm-6.24,3.08h0Z" transform="translate(-4.28 -0.22)"/><path class="cls-2" d="M342.37,186.8a1.86,1.86,0,0,1-1.38-.51,1.84,1.84,0,0,1-.52-1.38c0-1.67,1.55-4.31,4-6.73h0c2.41-2.41,5.05-4,6.72-4h0a1.87,1.87,0,0,1,1.37.51c.51.51.9,1.55-.11,3.64a17.89,17.89,0,0,1-3.34,4.47,17.42,17.42,0,0,1-4.47,3.33A5.32,5.32,0,0,1,342.37,186.8Zm3-7.65c-2.45,2.46-3.56,4.71-3.56,5.76a.65.65,0,0,0,.11.41c.47.46,3.06-.34,6.17-3.45a16.08,16.08,0,0,0,3.07-4.1c.63-1.31.53-1.93.38-2.07a.64.64,0,0,0-.41-.11C350.11,175.59,347.86,176.7,345.4,179.15Z" transform="translate(-4.28 -0.22)"/><path class="cls-2" d="M412.4,186.8a5.35,5.35,0,0,1-2.26-.63,19.44,19.44,0,0,1-7.8-7.8c-1-2.09-.63-3.13-.12-3.64a1.88,1.88,0,0,1,1.38-.51h0c1.67,0,4.31,1.55,6.73,4h0c2.41,2.42,4,5.06,4,6.73a1.77,1.77,0,0,1-1.89,1.89Zm-8.8-11.21a.7.7,0,0,0-.41.11c-.15.14-.25.76.38,2.07a15.91,15.91,0,0,0,3.08,4.1c3.1,3.11,5.69,3.91,6.16,3.45a.65.65,0,0,0,.11-.41c0-1-1.11-3.3-3.56-5.76S404.66,175.59,403.6,175.59Z" transform="translate(-4.28 -0.22)"/><path class="cls-2" d="M351.16,125.57a5.32,5.32,0,0,1-2.25-.63,19.32,19.32,0,0,1-7.81-7.81c-1-2.09-.62-3.13-.11-3.64a1.88,1.88,0,0,1,1.38-.51h0c1.68,0,4.31,1.56,6.72,4,2.87,2.86,5,6.57,3.45,8.1A1.82,1.82,0,0,1,351.16,125.57Zm-8.79-11.22a.62.62,0,0,0-.41.11c-.21.2-.18.94.37,2.07a18,18,0,0,0,7.18,7.17c1.3.63,1.92.53,2.06.38.46-.46-.34-3.06-3.45-6.16h0c-2.45-2.45-4.7-3.57-5.75-3.57Z" transform="translate(-4.28 -0.22)"/><path class="cls-2" d="M457.67,294.86H402.93a.69.69,0,0,1-.69-.69V222.8a.69.69,0,0,1,.69-.69h24a.69.69,0,0,1,.69.69.68.68,0,0,1-.69.68H403.62v70H457V234.26L446.2,223.48H431.92a.69.69,0,0,1,0-1.37h14.58a.67.67,0,0,1,.48.2l11.18,11.19a.67.67,0,0,1,.21.48v60.19A.69.69,0,0,1,457.67,294.86Z" transform="translate(-4.28 -0.22)"/><path class="cls-2" d="M471.08,309.52H416.34a.67.67,0,0,1-.68-.68V294.17a.67.67,0,0,1,.68-.68.68.68,0,0,1,.69.68v14H470.4v-70H457.67a.69.69,0,0,1-.69-.69.68.68,0,0,1,.69-.68h13.41a.68.68,0,0,1,.69.68v71.38A.68.68,0,0,1,471.08,309.52Z" transform="translate(-4.28 -0.22)"/><path class="cls-2" d="M457.67,234.67h0l-11.19-.19a.69.69,0,0,1-.67-.68v-11a.69.69,0,1,1,1.37,0v10.32l10.51.17a.69.69,0,0,1,0,1.38Z" transform="translate(-4.28 -0.22)"/><path class="cls-2" d="M429.41,226a3.19,3.19,0,1,1,3.19-3.18A3.19,3.19,0,0,1,429.41,226Zm0-5a1.82,1.82,0,1,0,1.82,1.83A1.83,1.83,0,0,0,429.41,221Z" transform="translate(-4.28 -0.22)"/><path class="cls-2" d="M419.57,241.37h-9.3a.69.69,0,1,1,0-1.38h9.3a.69.69,0,0,1,0,1.38Z" transform="translate(-4.28 -0.22)"/><path class="cls-2" d="M452.08,241.37H431.92a.69.69,0,0,1,0-1.38h20.16a.69.69,0,0,1,0,1.38Z" transform="translate(-4.28 -0.22)"/><path class="cls-2" d="M452.08,246.56H410.27a.69.69,0,0,1,0-1.38h41.81a.69.69,0,0,1,0,1.38Z" transform="translate(-4.28 -0.22)"/><path class="cls-2" d="M452.08,251H410.27a.69.69,0,0,1,0-1.38h41.81a.69.69,0,0,1,0,1.38Z" transform="translate(-4.28 -0.22)"/><path class="cls-2" d="M430.3,269.45h-20a.69.69,0,1,1,0-1.37h20a.69.69,0,1,1,0,1.37Z" transform="translate(-4.28 -0.22)"/><path class="cls-2" d="M419.57,274.4h-9.3a.68.68,0,0,1-.69-.68.69.69,0,0,1,.69-.69h9.3a.69.69,0,0,1,.69.69A.68.68,0,0,1,419.57,274.4Z" transform="translate(-4.28 -0.22)"/><path class="cls-2" d="M152.2,199.42a7.63,7.63,0,0,1-5-1.9,15.38,15.38,0,0,1-2.73-3,.68.68,0,0,1,.16-.95.69.69,0,0,1,1,.16,14.11,14.11,0,0,0,2.48,2.77c4,3.32,8.86,1.6,19.93-7.07a.7.7,0,0,1,1,.12.68.68,0,0,1-.12,1C161.63,196.11,156.45,199.42,152.2,199.42Z" transform="translate(-4.28 -0.22)"/><path class="cls-2" d="M144,169.22h-.08a.7.7,0,0,1-.6-.76,6.57,6.57,0,0,0-2.52-5.38.68.68,0,0,1-.07-1,.69.69,0,0,1,1-.06,7.94,7.94,0,0,1,3,6.57A.67.67,0,0,1,144,169.22Z" transform="translate(-4.28 -0.22)"/><path class="cls-2" d="M139.76,168.12a.72.72,0,0,1-.32-.08.69.69,0,0,1-.28-.93c.06-.12,1.57-2.86,3.9-2.91a.69.69,0,0,1,0,1.37c-1.27,0-2.4,1.59-2.72,2.19A.69.69,0,0,1,139.76,168.12Z" transform="translate(-4.28 -0.22)"/><path class="cls-2" d="M170.77,176a.69.69,0,0,1-.62-.4c-1.33-2.88-5.45-3.3-5.49-3.3a.69.69,0,0,1,.13-1.37c.2,0,4.94.51,6.6,4.1a.69.69,0,0,1-.33.91A.72.72,0,0,1,170.77,176Z" transform="translate(-4.28 -0.22)"/><path class="cls-2" d="M159.45,190.24h-.11a5,5,0,0,1-4.45-5.55.69.69,0,0,1,.69-.62.67.67,0,0,1,.68.68h0v.07a3.63,3.63,0,0,0,3.3,4.06.68.68,0,0,1,.57.79A.7.7,0,0,1,159.45,190.24Z" transform="translate(-4.28 -0.22)"/><path class="cls-2" d="M155.63,191.21a.74.74,0,0,1-.25-.05,3.3,3.3,0,0,1-2.1-2.49.69.69,0,0,1,.6-.76.67.67,0,0,1,.76.58,1.91,1.91,0,0,0,1.24,1.39.68.68,0,0,1,.39.89A.7.7,0,0,1,155.63,191.21Z" transform="translate(-4.28 -0.22)"/><path class="cls-2" d="M155.46,185.44a3.26,3.26,0,0,1-1.89-.62.69.69,0,0,1-.16-1,.68.68,0,0,1,1-.16,1.84,1.84,0,0,0,1.19.36,2.27,2.27,0,0,0,1.07-.3.69.69,0,0,1,.95.22.68.68,0,0,1-.21.94,3.75,3.75,0,0,1-1.76.51Z" transform="translate(-4.28 -0.22)"/><path class="cls-2" d="M155.91,279.37a.69.69,0,0,1-.68-.61c0-.42-1-10.29,8.38-17.91a32.52,32.52,0,0,1,10-5.36l.44-.15.42-.15,5.62-2c14.5-5.14,28.2-10,34.83-6.64a7,7,0,0,1,3.58,4.36.69.69,0,0,1-1.32.39,5.52,5.52,0,0,0-2.88-3.53c-6.11-3.09-20.16,1.89-33.75,6.71l-5.62,2-.43.15-.44.15a31.35,31.35,0,0,0-9.56,5.12,20.24,20.24,0,0,0-7.88,16.7.68.68,0,0,1-.6.75Z" transform="translate(-4.28 -0.22)"/><path class="cls-2" d="M141.62,346.84a83.76,83.76,0,0,1-9.75-.57,28.79,28.79,0,0,1-4.49-.9c-20.21-5.68-32-32.1-38.29-53.26a184.46,184.46,0,0,1-5-21.19.68.68,0,0,1,.56-.79.69.69,0,0,1,.79.57,182.65,182.65,0,0,0,5,21c6.21,20.83,17.73,46.82,37.34,52.33a27.7,27.7,0,0,0,4.28.85c25.78,3,51.71-6.16,79.27-28.12,20.55-16.37,19-25.07,18.73-26.24-16.58-13.48-17.49-30.27-17.11-36.88a23.63,23.63,0,0,1,.28-2.65.7.7,0,0,1,.8-.55.69.69,0,0,1,.55.8,22.51,22.51,0,0,0-.26,2.48c-.37,6.42.53,22.76,16.75,35.86a.69.69,0,0,1,.2.25c.17.39,4,9.64-19.08,28C187.76,337.3,164.58,346.84,141.62,346.84Z" transform="translate(-4.28 -0.22)"/><path class="cls-2" d="M89.75,292.6h-.11c-11.83-1.86-12.75-13.74-12.76-13.86a.69.69,0,1,1,1.37-.09c0,.44.87,10.91,11.61,12.6a.69.69,0,0,1,.57.78A.69.69,0,0,1,89.75,292.6Z" transform="translate(-4.28 -0.22)"/><path class="cls-2" d="M140.18,286a.55.55,0,0,1-.18,0,.69.69,0,0,1-.49-.84c.25-.93,6.19-23,18.23-25.18a11.53,11.53,0,0,1,6.56.81.68.68,0,1,1-.52,1.26,10.3,10.3,0,0,0-5.8-.72c-11.18,2-17.08,24-17.14,24.18A.68.68,0,0,1,140.18,286Z" transform="translate(-4.28 -0.22)"/><path class="cls-2" d="M157.8,261.14a.7.7,0,0,1-.42-.15.67.67,0,0,1-.11-1c.22-.28.73-1.24.72-4.11,0-10.67-7.2-37-20.31-47.16a.69.69,0,1,1,.85-1.08C152,218.11,159.34,245,159.36,255.91c0,2.43-.33,4.1-1,5A.67.67,0,0,1,157.8,261.14Z" transform="translate(-4.28 -0.22)"/><path class="cls-2" d="M107.62,209.72a.66.66,0,0,1-.47-.19.67.67,0,0,1,0-1c.12-.14,12.76-13.29,29.85-2,.43.29.87.6,1.31.93a.69.69,0,1,1-.83,1.09c-.41-.31-.83-.6-1.23-.87-16.12-10.64-27.62,1.28-28.1,1.79A.68.68,0,0,1,107.62,209.72Z" transform="translate(-4.28 -0.22)"/><path class="cls-2" d="M84.72,251.82h-.08a.7.7,0,0,1-.6-.77A67.32,67.32,0,0,1,86.35,240a.68.68,0,1,1,1.31.39,67.56,67.56,0,0,0-2.26,10.85A.67.67,0,0,1,84.72,251.82Z" transform="translate(-4.28 -0.22)"/><path class="cls-2" d="M87.59,239a.6.6,0,0,1-.22,0,.67.67,0,0,1-.43-.86,66.42,66.42,0,0,1,11.58-21.42.69.69,0,0,1,1,.91,65,65,0,0,0-11.31,20.94A.69.69,0,0,1,87.59,239Z" transform="translate(-4.28 -0.22)"/><path class="cls-2" d="M275.31,259.43a21.42,21.42,0,0,1-6.89-1.57A.69.69,0,0,1,268,257a.7.7,0,0,1,.88-.42c6,2.18,7.94,1.49,8.55.88.13-.14.54-.54.17-1.6a9.48,9.48,0,0,0-2.18-3.06.69.69,0,0,1,0-1,.68.68,0,0,1,1,0,10.69,10.69,0,0,1,2.49,3.56,2.73,2.73,0,0,1-.49,3A4.23,4.23,0,0,1,275.31,259.43Z" transform="translate(-4.28 -0.22)"/><path class="cls-2" d="M213.61,254.39a.69.69,0,0,1-.3-1.31s1.74-.83,4.47-2c3.13-1.37,6.22-2.64,9.21-3.75,1-.39,2.09-.79,3.32-1.22,11.56-4.07,20.18-5.61,25.63-4.58,8.74,1.67,16.73,6.52,20.45,10.32a.68.68,0,0,1,0,1,.69.69,0,0,1-1,0c-3.58-3.65-11.28-8.32-19.73-9.93-5.13-1-13.75.59-24.91,4.52-1.23.43-2.3.83-3.3,1.21-3,1.11-6,2.36-9.14,3.72-2.71,1.18-4.41,2-4.42,2A.66.66,0,0,1,213.61,254.39Z" transform="translate(-4.28 -0.22)"/><path class="cls-2" d="M272.36,267.86a22,22,0,0,1-7.14-1.67.68.68,0,0,1,.48-1.28c4.52,1.67,7.72,2,8.78,1,.69-.69.13-1.9-.46-2.79a21.46,21.46,0,0,0-5.76-5.29,43.26,43.26,0,0,0-8.95-4.62.69.69,0,0,1,.49-1.28,45,45,0,0,1,9.23,4.76,22.87,22.87,0,0,1,6.13,5.67c1.67,2.51.9,3.91.29,4.52A4.19,4.19,0,0,1,272.36,267.86Z" transform="translate(-4.28 -0.22)"/><path class="cls-2" d="M268.61,275.78a16.14,16.14,0,0,1-4.06-.65.69.69,0,0,1,.37-1.33c2.92.81,5,.81,5.79,0a1.09,1.09,0,0,0,.31-.95c-.14-1.66-2.42-4.24-6-6.74a43,43,0,0,0-9.51-5,.69.69,0,0,1-.4-.89.7.7,0,0,1,.89-.4,45.36,45.36,0,0,1,9.82,5.18c4,2.81,6.35,5.63,6.53,7.74a2.49,2.49,0,0,1-.71,2A4.15,4.15,0,0,1,268.61,275.78Z" transform="translate(-4.28 -0.22)"/><path class="cls-2" d="M230.61,290.82a.68.68,0,0,1-.66-.51.69.69,0,0,1,.48-.84c12.56-3.4,21.5-12.25,21.59-12.34a.69.69,0,0,1,.71-.16c4.24,1.51,11.57,3.19,13.21,1.27a.94.94,0,0,0,.25-.75A4.45,4.45,0,0,0,264.3,275c-2.37-1.91-6.43-3.78-11.13-5.14a.68.68,0,0,1,.39-1.31c4.86,1.4,9.09,3.36,11.6,5.38,1.49,1.2,2.29,2.35,2.39,3.43a2.27,2.27,0,0,1-.57,1.76c-2.58,3-12,.07-14.31-.72-1.71,1.62-10.3,9.26-21.88,12.39Z" transform="translate(-4.28 -0.22)"/><path class="cls-2" d="M171.13,191.56a6.39,6.39,0,0,1-3-1,.7.7,0,0,1-.37-.61.68.68,0,0,1,.69-.68h0a.73.73,0,0,1,.35.09c1.32.76,2.33,1,2.92.74s.83-1.2,1-2.05a26.54,26.54,0,0,1,2.73-8.35c5-9.3,1.86-16.8.72-19-2.58,1.92-12.63,8.45-28.33,7.19a.66.66,0,0,1-.48-.26.67.67,0,0,1-.14-.53,7.92,7.92,0,0,0-.31-3.83,4.83,4.83,0,0,0-3.61-3.38,4.3,4.3,0,0,0-3.24.85,7.22,7.22,0,0,0-2.74,4.77c-.45,2.75.51,5.4,2.38,6.6a4,4,0,0,0,1.54.6.69.69,0,0,1-.22,1.36,5.23,5.23,0,0,1-2.06-.81c-2.32-1.49-3.53-4.69-3-8a8.7,8.7,0,0,1,3.29-5.66,5.69,5.69,0,0,1,4.27-1.09,6.14,6.14,0,0,1,4.68,4.27,9.12,9.12,0,0,1,.46,3.77c17,1.1,27.17-7.34,27.27-7.43a.71.71,0,0,1,.54-.16.73.73,0,0,1,.48.3c.24.37,6,9.25-.29,21a25.32,25.32,0,0,0-2.59,7.93c-.12.73-.39,2.43-1.73,3.07A2.68,2.68,0,0,1,171.13,191.56Z" transform="translate(-4.28 -0.22)"/><path class="cls-2" d="M137.66,208.55a.67.67,0,0,1-.28-.06.69.69,0,0,1-.35-.91,24.16,24.16,0,0,1,2.35-3.87,26.77,26.77,0,0,1,7.89-7.31.7.7,0,0,1,.94.24.69.69,0,0,1-.25.94,25.33,25.33,0,0,0-7.47,6.94,24.56,24.56,0,0,0-2.21,3.62A.67.67,0,0,1,137.66,208.55Z" transform="translate(-4.28 -0.22)"/><path class="cls-2" d="M122.91,187.83a.68.68,0,0,1-.2-1.34,14.33,14.33,0,0,0,2-.78,20.83,20.83,0,0,0,2.82-1.66c6.14-4.24,11.1-11.68,11.15-11.75a.68.68,0,0,1,.95-.19.69.69,0,0,1,.2.95c-.21.31-5.17,7.73-11.52,12.12a22.45,22.45,0,0,1-3,1.76,15.38,15.38,0,0,1-2.2.86A.69.69,0,0,1,122.91,187.83Z" transform="translate(-4.28 -0.22)"/><path class="cls-2" d="M175.45,216.51c-12.69,0-26.36-4.41-35.66-11.65a.69.69,0,0,1-.12-1,.68.68,0,0,1,1-.12c9.67,7.53,24.21,11.92,37.26,11.31-1-3.43-3.26-16.58,8.33-41.25,3.38-7.21,2.84-14.21-1.58-20.26-6.6-9-21.17-14.53-33.91-12.85-14.5,1.93-22.48,16.05-22.48,39.78a26.85,26.85,0,0,0,.26,3.7.69.69,0,0,1-1.36.19,28,28,0,0,1-.27-3.89c0-24.5,8.41-39.11,23.67-41.14,13.2-1.74,28.33,4,35.19,13.4,3.31,4.52,6.28,11.94,1.72,21.65-13.07,27.83-8.06,40.91-8,41a.68.68,0,0,1-.06.62.65.65,0,0,1-.53.32C177.74,216.48,176.6,216.51,175.45,216.51Z" transform="translate(-4.28 -0.22)"/><path class="cls-2" d="M100.75,193.48a.68.68,0,0,1-.42-1.22,66.63,66.63,0,0,1,14.74-8.95,14.76,14.76,0,0,1,3.57-1c2.41-.35,4.28,0,5.54,1.07a4.31,4.31,0,0,1,1.52,2.94.68.68,0,0,1-.66.71.7.7,0,0,1-.71-.66,2.93,2.93,0,0,0-1-2c-1-.78-2.45-1-4.44-.75a13.94,13.94,0,0,0-3.24.94,64.71,64.71,0,0,0-14.43,8.76A.66.66,0,0,1,100.75,193.48Z" transform="translate(-4.28 -0.22)"/><path class="cls-2" d="M95.74,389.64a31.86,31.86,0,0,1-20.18-7.08c-14.92-11.73-23.47-36.92-23.47-69.11a207.76,207.76,0,0,1,5.64-47c9.38-40.15,27.4-61.77,40.87-72.83a.67.67,0,0,1,1,.1.68.68,0,0,1-.09,1c-13.31,10.93-31.12,32.3-40.4,72.09a206,206,0,0,0-5.61,46.67c0,31.77,8.37,56.56,22.95,68,8.08,6.36,17.62,8.26,28.37,5.66a.68.68,0,0,1,.32,1.33A39.84,39.84,0,0,1,95.74,389.64Z" transform="translate(-4.28 -0.22)"/><path class="cls-2" d="M98,385.16a.8.8,0,0,1-.3-.06.69.69,0,0,1-.32-.92c.3-.61.6-1.21.89-1.81l.19-.37c14.56-29,28.21-37.52,28.79-37.87a.68.68,0,0,1,.71,1.17c-.13.08-13.92,8.75-28.27,37.31l-.19.38-.89,1.79A.67.67,0,0,1,98,385.16Z" transform="translate(-4.28 -0.22)"/><path class="cls-2" d="M138.1,208.9a.71.71,0,0,1-.41-.13l-.26-.21-.2-.15c-8.09-6.35-13.6-17.61-15.1-20.91-.37-.83-.57-1.31-.57-1.31a.69.69,0,0,1,.38-.89.67.67,0,0,1,.89.37s.19.47.55,1.26c1.47,3.23,6.85,14.24,14.7,20.4l.19.15.25.19a.69.69,0,0,1,.13,1A.67.67,0,0,1,138.1,208.9Z" transform="translate(-4.28 -0.22)"/><path class="cls-2" d="M151.31,403.51a76.48,76.48,0,0,1-17.91-2.12,78.12,78.12,0,0,1-8.79-2.66A80.85,80.85,0,0,1,104.77,388a54.79,54.79,0,0,1-6.23-5.25.68.68,0,0,1,0-1,.69.69,0,0,1,1,0,52.52,52.52,0,0,0,6.06,5.1,79.2,79.2,0,0,0,19.5,10.51,74.74,74.74,0,0,0,8.63,2.62,77.15,77.15,0,0,0,35.6,0,91.44,91.44,0,0,0,13.68-4.3c13.64-5.43,27.46-14.41,41.06-26.69,5.22-4.72,10.48-10,15.63-15.63a.68.68,0,0,1,1-.05.69.69,0,0,1,0,1c-5.18,5.69-10.47,11-15.72,15.72-13.73,12.4-27.68,21.46-41.47,27a93.86,93.86,0,0,1-13.89,4.36A81.71,81.71,0,0,1,151.31,403.51Z" transform="translate(-4.28 -0.22)"/><path class="cls-2" d="M307.86,385.38c-25.35,0-45.25-16.34-57.66-30.36a142.93,142.93,0,0,1-19.06-27.44.69.69,0,0,1,.31-.92.69.69,0,0,1,.92.31,142.39,142.39,0,0,0,18.85,27.14c12.72,14.38,33.41,31.22,59.72,29.82a69,69,0,0,0,28-8.05.69.69,0,0,1,.63,1.22A70.35,70.35,0,0,1,311,385.3C310,385.36,308.9,385.38,307.86,385.38Z" transform="translate(-4.28 -0.22)"/><path class="cls-2" d="M367.15,349a.71.71,0,0,1-.28-.06.7.7,0,0,1-.35-.91c7.05-16.05-9.91-35.42-25.38-48.84-24.28-21.07-41.06-31.16-50.86-35.92a.7.7,0,0,1-.32-.92.69.69,0,0,1,.92-.31c9.87,4.79,26.76,14.95,51.16,36.11,22.68,19.69,31.58,37.13,25.74,50.44A.7.7,0,0,1,367.15,349Z" transform="translate(-4.28 -0.22)"/><path class="cls-2" d="M334.08,376.32l-.21,0a.69.69,0,0,1-.44-.87,27.52,27.52,0,0,1,1.72-3.93c2.88-5.64,10.09-17,26-29.43.55-.44,1.12-.88,1.69-1.31a.69.69,0,0,1,.83,1.09c-.56.43-1.12.86-1.66,1.29-15.75,12.3-22.85,23.44-25.67,29a29.68,29.68,0,0,0-1.65,3.72A.68.68,0,0,1,334.08,376.32Z" transform="translate(-4.28 -0.22)"/><path class="cls-2" d="M246.56,356a17,17,0,0,1-6.64-1.49c-11.65-4.95-22.29-20.47-22.74-21.13a.69.69,0,0,1,1.14-.77c.1.16,10.86,15.84,22.14,20.64,3.7,1.57,7.07,1.8,10,.66a.71.71,0,0,1,.94.64.69.69,0,0,1-.49.66A12.24,12.24,0,0,1,246.56,356Z" transform="translate(-4.28 -0.22)"/><path class="cls-2" d="M433.15,395.28H344.67a.68.68,0,0,1-.68-.69.67.67,0,0,1,.68-.68h88.48a.68.68,0,0,1,.69.68A.69.69,0,0,1,433.15,395.28Z" transform="translate(-4.28 -0.22)"/><path class="cls-2" d="M344.69,515.11H256.22a.69.69,0,0,1,0-1.38h88.47a.69.69,0,0,1,0,1.38Z" transform="translate(-4.28 -0.22)"/><path class="cls-2" d="M125,398.32a.58.58,0,0,1-.28-.07.68.68,0,0,1-.34-.91c.06-.13,6.11-13.31,8.08-23.73a.7.7,0,0,1,.36-.48.71.71,0,0,1,.59,0c.16.07,15.74,6.83,37.13,5.77a.68.68,0,0,1,.58.28L183.8,396a.68.68,0,0,1,.14.41.69.69,0,0,1-.69.69.68.68,0,0,1-.59-.33l-12.4-16.48a93.47,93.47,0,0,1-36.6-5.58c-2.16,10.44-8,23.1-8,23.23A.7.7,0,0,1,125,398.32Z" transform="translate(-4.28 -0.22)"/><path class="cls-2" d="M256.57,472.2h-.1c-13.09-2.08-22.73-10.08-28.64-23.75-4.65-10.74-7-24.95-7-42.23,0-1.84,0-3.69.08-5.51a254.86,254.86,0,0,1,2.93-31.24.69.69,0,0,1,.78-.57.67.67,0,0,1,.57.78,256,256,0,0,0-2.91,31.07c-.05,1.81-.08,3.65-.08,5.47,0,17.09,2.31,31.12,6.88,41.68,5.73,13.22,15,20.94,27.6,22.95a.68.68,0,0,1-.11,1.36Z" transform="translate(-4.28 -0.22)"/><path class="cls-2" d="M300,467.55a.68.68,0,0,1-.67-.54.69.69,0,0,1,.53-.82c11.08-2.31,15.29-22.48,12.52-59.93-.13-1.74-.27-3.53-.44-5.48-.54-6.19-1.17-11.85-1.65-16.09l-.05-.36a.69.69,0,0,1,1.37-.15l0,.36c.48,4.25,1.11,9.92,1.65,16.12.18,2,.32,3.76.45,5.5,2.87,38.79-1.59,58.86-13.61,61.38Z" transform="translate(-4.28 -0.22)"/><path class="cls-2" d="M250.72,464.33a.69.69,0,0,1-.68-.58.69.69,0,0,1,.57-.78s2.49-.4,6.46-.89c9.33-1.13,27.29-2.78,42.86-1.17l2.33.26a.69.69,0,0,1,.59.77.68.68,0,0,1-.76.59c-.76-.09-1.53-.18-2.29-.25-15.45-1.6-33.29,0-42.56,1.17-3.94.48-6.39.87-6.41.87Z" transform="translate(-4.28 -0.22)"/><path class="cls-2" d="M274.59,263.38a.69.69,0,1,1,0-1.37l24-.11,24.34-75-3.45-6.76-34.24.16h0a.69.69,0,0,1,0-1.37l34.67-.16h0a.67.67,0,0,1,.61.37l3.77,7.39a.7.7,0,0,1,0,.53l-24.59,75.71a.7.7,0,0,1-.65.48l-24.51.11Z" transform="translate(-4.28 -0.22)"/><path class="cls-2" d="M227.16,248.82a.67.67,0,0,1-.24,0,.7.7,0,0,1-.41-.89l.07-.18,18.28-50.18a.68.68,0,1,1,1.28.47L227.8,248.37A.68.68,0,0,1,227.16,248.82Z" transform="translate(-4.28 -0.22)"/><path class="cls-2" d="M278.43,256.29a.69.69,0,0,1,0-1.37l16.83-.33a.69.69,0,1,1,0,1.37l-16.82.33Z" transform="translate(-4.28 -0.22)"/><path class="cls-2" d="M158.68,256.6a.69.69,0,0,1,0-1.37l16-.08h0a.69.69,0,0,1,0,1.38l-16,.07Z" transform="translate(-4.28 -0.22)"/><path class="cls-2" d="M295.27,256a.68.68,0,0,1-.69-.68h0a.52.52,0,0,1,0-.21l24.64-75.8a.68.68,0,0,1,.86-.44.69.69,0,0,1,.44.87l-24.63,75.78A.7.7,0,0,1,295.27,256Z" transform="translate(-4.28 -0.22)"/><path class="cls-2" d="M230.54,247.42a.67.67,0,0,1-.24,0,.69.69,0,0,1-.41-.88l18.2-49a.67.67,0,0,1,.88-.4.69.69,0,0,1,.4.88l-18.19,49A.68.68,0,0,1,230.54,247.42Z" transform="translate(-4.28 -0.22)"/><path class="cls-2" d="M275.91,253v-1.37l15.07-.07,22.36-67.79-28.08.14h0a.69.69,0,0,1-.68-.69.68.68,0,0,1,.68-.68l29-.14a.7.7,0,0,1,.56.28.68.68,0,0,1,.09.62l-22.81,69.16a.68.68,0,0,1-.65.47Z" transform="translate(-4.28 -0.22)"/><path class="cls-2" d="M221.51,406.89H47.29a.68.68,0,0,1-.69-.68V174.83a.69.69,0,0,1,1.38,0V405.52H221.51a.69.69,0,0,1,.69.69A.68.68,0,0,1,221.51,406.89Z" transform="translate(-4.28 -0.22)"/><path class="cls-2" d="M442.5,406.89H313.08a.68.68,0,0,1-.69-.68.69.69,0,0,1,.69-.69H441.81V308.84a.69.69,0,0,1,.69-.69.68.68,0,0,1,.68.68v97.38A.68.68,0,0,1,442.5,406.89Z" transform="translate(-4.28 -0.22)"/><path class="cls-2" d="M442.5,223.48a.69.69,0,0,1-.69-.69V76.19H48v66.26a.69.69,0,0,1-1.38,0V75.5a.69.69,0,0,1,.69-.69H442.5a.69.69,0,0,1,.68.69V222.79A.69.69,0,0,1,442.5,223.48Z" transform="translate(-4.28 -0.22)"/></svg>