<svg id="Layer_1" data-name="Layer 1" xmlns="http://www.w3.org/2000/svg" viewBox="0 0 468.69 339.81"><defs><style>.cls-1{fill:#fcbcc6;}.cls-2{fill:#fcb017;}.cls-3{fill:#3db54a;}.cls-4{fill:#84251e;}.cls-5{fill:#1e1e1e;}.cls-6{fill:#414144;}.cls-7{fill:#fff5e1;}.cls-8{fill:#fff;}.cls-9{fill:#575763;}</style></defs><path class="cls-1" d="M429.22,262.63c8.53,5.07,9.2,10,6.4,11.11-3.16,1.27-7.81-1.05-18.36-3.8s-16.45-2.95-21.72-15S377,211.42,371.7,198.85c-2.59-6.16-8.57-17.69-15.14-30.49-5.3-10.33-11-21.48-15.57-31.32,0,0,8.87-9.72,19.63-14s16.62-10.86,22.71-9.8h0c6.8,15.14,12.51,29.85,18.74,45.14,18.74,46,20,70.67,44.72,83.33,9.7,5,19.12,11.59,18.73,15.68,2.48,2.45,3.54,4.92.91,6.35a3.16,3.16,0,0,1,.41,2c-.42,2.95-4.64,2.52-13.5,0S429.67,262.65,429.22,262.63Z" transform="translate(0 -0.24)"/><path class="cls-2" d="M383.33,113.2h0c-3-.52-5.87.77-9.3,2.72-1.7,1-3.51,2.07-5.53,3.21a64.37,64.37,0,0,1-7.88,3.87,42.81,42.81,0,0,0-6.4,3.27,56.17,56.17,0,0,0-4.75,3.23A68.24,68.24,0,0,0,341,137c2.86,6.13,6.15,12.77,9.5,19.41q1.1,2.19,2.21,4.37l3.86,7.54-1.63,13s-4.55-1.71-11.41-4c-1.48-.5-3.06-1-4.72-1.57-3.2-1-6.7-2.15-10.37-3.23-1.63-.49-3.31-1-5-1.45-6.49-1.83-13.23-3.51-19.44-4.65-2.58-2.16-5.1-4.25-7.49-6.27-7.95-6.73-17.63-16.07-28.18-23.69-1.33-1-2.68-1.9-4-2.79-2.11-1.4-4.24-2.71-6.41-3.9h0a51.25,51.25,0,0,1-1.79-13.37c0-1.81.08-3.57.23-5.3,0-.52.1-1,.16-1.55l-.39,0A35.92,35.92,0,0,0,242.28,104c3.76-14.61,10.59-37.17,18.24-43.57a16.65,16.65,0,0,1,2.69-1.86,15.52,15.52,0,0,1,4.62-1.67,21.09,21.09,0,0,1,7,0,62.17,62.17,0,0,1,7.66,1.84A13.64,13.64,0,0,0,284,62.62h0a15,15,0,0,0,4.88,5.2,16.6,16.6,0,0,0,5.29,2.22c10.13,2.43,15.82,3.9,22.47,0,1.29-.75,2.57-1.39,3.8-2,2-.95,3.94-1.72,5.48-2.63,2.33-1.35,3.84-3,3.79-5.93a41.8,41.8,0,0,1,9.87-1.87,20.37,20.37,0,0,1,5,.44,19.41,19.41,0,0,1,4.63,1.62c4.85,2.39,10,7.19,15.14,16.13,3,5.16,5.73,10.19,8.3,15.14.76,1.46,1.5,2.9,2.22,4.34C377.9,101.4,380.69,107.33,383.33,113.2Z" transform="translate(0 -0.24)"/><path class="cls-3" d="M204,141.49c7.95-9.66,17-17.41,28.47-18.38,8.58-.72,17.17,2.1,25.42,6.65,14.59,8,28.12,21.49,38.63,30.38,2.39,2,4.91,4.11,7.49,6.27,22.05,4.06,50.93,14.93,50.93,14.93,6.64,20.88,9.17,51.89,5.38,66.69s-12,37.73-40.19,40.47a40.38,40.38,0,0,1-21.07-3.44c-15.46-7-26.29-22.55-38.74-33.26-17.41-15-19.22-25.84-19.22-25.84-4.43,18-7.56,20.26-14.22,33.83-.82,1.68-1.7,3.52-2.64,5.59-2.74-1.86-8.45-3.65-16.18-7.61-2.06-1-4.27-2.25-6.6-3.65-11.07-6.65-12.66-8.23-27.53-16.45a177.67,177.67,0,0,1-25.57-17.23h0q1.8-1.92,3.8-4c15.35-15.82,8.8-24,24.94-39.55,1.11-1.07,2.22-2.25,3.32-3.5C188.07,164.65,195.38,152,204,141.49Z" transform="translate(0 -0.24)"/><path class="cls-4" d="M335.46,45.27c-3.79,8.23,4.43,6,4.12,12.4a41.8,41.8,0,0,0-9.87,1.87c-2.78.77-5.2,1.43-7.16,1.12-8.22-1.26-6.88-14.83-6.88-14.83,12.14-.09,13.86-12.95,9.45-15.37s-7.54,3.17-7.54,3.17C306.92,23.18,309,11.31,309,11.31s-13.36-1.87-15.74,11.18c-2.05,11.22-4.9,20.38.17,26.23a7.75,7.75,0,0,1,2,4.92c0,2-.38,4.69-2.86,6s-6,.32-10.09-.85a62.17,62.17,0,0,0-7.66-1.84c-1.62-10.17,12.54-11.81,11-20.34s4.73-8.4.78-18.68,7.9-13.61,18.64-16.14C311,.39,314,1.06,315.56,2a12.31,12.31,0,0,0,4.93,1.65c3.9.43,9.91,2.75,10.86,12.87C332.77,31.66,339.26,37,335.46,45.27Z" transform="translate(0 -0.24)"/><path class="cls-1" d="M329.71,59.54c.1,6.05-6.43,6.62-13.07,10.51s-12.34,2.43-22.47,0a15.14,15.14,0,0,1-11.68-11.29c4.08,1.17,7.61,2.13,10.09.85s2.9-3.94,2.86-6a7.75,7.75,0,0,0-2-4.92c-5.07-5.85-2.22-15-.17-26.23C295.64,9.44,309,11.31,309,11.31s-2.08,11.87,8.58,22.32c0,0,3.14-5.59,7.54-3.17s2.69,15.28-9.45,15.37c0,0-1.34,13.57,6.88,14.83C324.51,61,326.93,60.31,329.71,59.54Zm-23.22-27c.58,0,1-.87,1-1.89s-.53-1.84-1.11-1.82-1,.87-1,1.89S305.9,32.53,306.49,32.51Zm-10.9-.17c.58,0,1-.86,1-1.89s-.53-1.83-1.11-1.81-1,.86-1,1.89S295,32.36,295.59,32.34Z" transform="translate(0 -0.24)"/><path class="cls-5" d="M307.47,30.62c0,1-.4,1.87-1,1.89s-1.08-.79-1.12-1.82.41-1.87,1-1.89S307.44,29.6,307.47,30.62Z" transform="translate(0 -0.24)"/><path class="cls-3" d="M299.05,285.06h0s-15,.34-33-7.39-35.56-13.17-39.14-17.89c6.66-13.57,9.79-15.8,14.22-33.83,0,0,1.81,10.86,19.22,25.84C272.76,262.51,283.59,278.07,299.05,285.06Z" transform="translate(0 -0.24)"/><path class="cls-5" d="M296.58,30.45c0,1-.41,1.87-1,1.89s-1.08-.79-1.11-1.81.41-1.87,1-1.89S296.55,29.43,296.58,30.45Z" transform="translate(0 -0.24)"/><path class="cls-1" d="M163.23,94.13l-.38,0a9.36,9.36,0,0,1-4.69-.89,9.8,9.8,0,0,1-5.34-6.18.83.83,0,0,1,0-.15,5.13,5.13,0,0,1,1.07-5.24,4.68,4.68,0,0,1,2.82-1.22,8.39,8.39,0,0,1,1.12,0c-.28-.13-.59-.26-.92-.39a32.86,32.86,0,0,0-4-1.34c-5.43-1.49-11.82-4.65-10.46-7.9,1.81-4.38,16.28-4.19,31.87,1.64,6.86,2.56,21.29,11.75,35.07,21,10.81,7.27,21.21,14.59,27.25,18.81l3.15,2.21c.51-2.29,1.37-6,2.52-10.47a35.92,35.92,0,0,1,13.81,5.47l.39,0a53,53,0,0,0,1.4,20.22h0c-8.25-4.55-16.84-7.37-25.42-6.65-11.47,1-20.52,8.72-28.47,18.38-12.07-10.39-29.48-23.25-36-28.41q-2.07-1.62-3.77-2.73a30.17,30.17,0,0,0-5.49-3c4.24-1.14,2.84-5.32.16-6.88a7.44,7.44,0,0,0,1.42,0C164.49,100.18,164.78,96.68,163.23,94.13Z" transform="translate(0 -0.24)"/><path class="cls-3" d="M208.05,257.77c7.73,4,13.44,5.75,16.18,7.61-8.54,18.85-14.87,27.33-14.87,27.33-3.34-5-10.13-7.83-19.24-11.76-8.12-3.5-18.08-7.9-29.08-15.57-5.35-3.73-10-6.88-13.89-9.52-13-8.67-18.52-11.79-18.75-11.91h0s6.39-9.12,19.95-23.52h0a177.67,177.67,0,0,0,25.57,17.23c14.87,8.22,16.46,9.8,27.53,16.45C203.78,255.52,206,256.72,208.05,257.77Z" transform="translate(0 -0.24)"/><path class="cls-6" d="M209.36,292.71s-7,.7-22.48-6.42l3.24-5.34C199.23,284.88,206,287.68,209.36,292.71Z" transform="translate(0 -0.24)"/><path class="cls-1" d="M168.68,297.45a44.57,44.57,0,0,1-9.33-1.46c-.29-.09-.59-.18-.89-.25a36.09,36.09,0,0,1-7.24-3h0c3.09-5.82-1.81-19.22-10.94-22.73l4.9-10.07,2-4c3.93,2.64,8.54,5.79,13.89,9.52,11,7.67,21,12.07,29.08,15.57l-3.24,5.34-6.22,10.27A46.37,46.37,0,0,1,168.68,297.45Z" transform="translate(0 -0.24)"/><path class="cls-2" d="M185.05,312.2a20.77,20.77,0,0,1,.76,8.84c-3.55,3.44-9.33,3.34-15.52,3.69,2.29-8.27-1.53-26.91-1.61-27.28a46.37,46.37,0,0,0,12-.89S182.84,303.61,185.05,312.2Z" transform="translate(0 -0.24)"/><path class="cls-7" d="M185.81,321a13.69,13.69,0,0,1-3.39,6.83c-7.73,8.8-16.09,4.12-48.12,9.63-33,5.65-55.93-2.74-65-13.89a11.9,11.9,0,0,1-2.23-10.78A11.24,11.24,0,0,1,69,309h0s2,8.15,20.1,14.55a71.76,71.76,0,0,0,11.87,3h0c2.81.49,5.63.83,8.42,1.06a146,146,0,0,0,30.39-1c10.69-1.4,19.47-.83,27-1.61,1.18-.12,2.36-.21,3.52-.27C176.48,324.38,182.26,324.48,185.81,321Z" transform="translate(0 -0.24)"/><path class="cls-3" d="M180.4,173.4h0c-1.1,1.25-2.21,2.43-3.32,3.5-16.14,15.51-9.59,23.73-24.94,39.55q-2,2.06-3.8,4C134.79,234.83,128.4,244,128.4,244h0c.14.18,3.74,5,12.73,12.61-3.82,2.1-8.71,4.68-13.47,7.17a109.09,109.09,0,0,0-10.17-20.82c-9.28-14.52-13.37-27.19-22.19-33.83,11.06-4,13-7.09,28.31-11.71l.56-.17h0a320.59,320.59,0,0,0,35.92-13.12C170.86,179.65,176.24,173.07,180.4,173.4Z" transform="translate(0 -0.24)"/><path class="cls-3" d="M168.68,297.45c.08.37,3.9,19,1.61,27.28-1.16.06-2.34.15-3.52.27-7.48.78-16.26.21-27,1.61a146,146,0,0,1-30.39,1s14.82-41.27,49-31.87c.3.07.6.16.89.25A44.57,44.57,0,0,0,168.68,297.45Z" transform="translate(0 -0.24)"/><path class="cls-1" d="M163.23,94.13c1.55,2.55,1.26,6.05-3,6.37a7.44,7.44,0,0,1-1.42,0,9.37,9.37,0,0,1-3.27-.87,10,10,0,0,1-3.67-2.91,9.49,9.49,0,0,1-1.71-3.42A5.13,5.13,0,0,1,151.27,88a4,4,0,0,1,1.55-.94,9.8,9.8,0,0,0,5.34,6.18,9.36,9.36,0,0,0,4.69.89Z" transform="translate(0 -0.24)"/><path class="cls-1" d="M158.85,100.48c2.68,1.56,4.08,5.74-.16,6.88h0a8,8,0,0,1-3.6.1h0l-.48-.11a8.41,8.41,0,0,1-5.51-4.48,4.4,4.4,0,0,1,.09-4.57,4.25,4.25,0,0,1,2.75-1.61,10,10,0,0,0,3.67,2.91A9.37,9.37,0,0,0,158.85,100.48Z" transform="translate(0 -0.24)"/><path class="cls-2" d="M97.05,296.29l1.79-.54c4.1-1.23,7.6-2.45,10.59-3.64,12.34-4.91,16-9.26,17-11.2a3.52,3.52,0,0,1,2-1.65,3.84,3.84,0,0,1,1.55-.17c2.66.3,7.35,2.26,15.23,9.32a33.12,33.12,0,0,0,6,4.29h0a36.09,36.09,0,0,0,7.24,3c-34.21-9.4-49,31.87-49,31.87-2.79-.23-5.61-.57-8.42-1.06h0c-6.11-22.09-20.42-24.61-20.64-24.65,2.29-.94,4.82-1.85,7.59-2.77S93.79,297.27,97.05,296.29Z" transform="translate(0 -0.24)"/><path class="cls-3" d="M140.28,270c9.13,3.51,14,16.91,10.94,22.73a33.12,33.12,0,0,1-6-4.29c-7.88-7.06-12.57-9-15.23-9.32a3.84,3.84,0,0,0-1.55.17,16.2,16.2,0,0,1,2.09-6.63h0c1.53-2.42,4.14-4.28,8.62-3C139.5,269.7,139.89,269.83,140.28,270Z" transform="translate(0 -0.24)"/><path class="cls-6" d="M147.15,255.86l-2,4c-1.46-1.16-2.81-2.28-4.05-3.34-9-7.66-12.59-12.43-12.73-12.61C128.63,244.07,134.2,247.19,147.15,255.86Z" transform="translate(0 -0.24)"/><path class="cls-3" d="M145.18,259.9,140.28,270c-.39-.14-.78-.27-1.17-.38-4.48-1.24-7.09.62-8.62,3,0-.11-.91-3.66-2.83-8.9,4.76-2.49,9.65-5.07,13.47-7.17C142.37,257.62,143.72,258.74,145.18,259.9Z" transform="translate(0 -0.24)"/><path class="cls-3" d="M127.66,263.73c1.92,5.24,2.8,8.79,2.83,8.9h0a16.2,16.2,0,0,0-2.09,6.63,3.52,3.52,0,0,0-2,1.65c-1.06,1.94-4.68,6.29-17,11.2a51.92,51.92,0,0,0-1.88-6c-2.83-7.66-8.61-19.82-19.17-38.66-1.2-2.14-2.37-4.1-3.49-5.9C73,222.32,65.38,221,65.38,221s4.45-4.41,22.59-9.59c2.86-.82,5.25-1.6,7.33-2.34,8.82,6.64,12.91,19.31,22.19,33.83A109.09,109.09,0,0,1,127.66,263.73Z" transform="translate(0 -0.24)"/><path class="cls-6" d="M107.55,286.08a51.92,51.92,0,0,1,1.88,6c-3,1.19-6.49,2.41-10.59,3.64l-1.79.54c1.53-3.26,2.48-5.54,2.48-5.54l7.58-4.51Z" transform="translate(0 -0.24)"/><path class="cls-1" d="M107.55,286.08l-.44.16-7.58,4.51a40.42,40.42,0,0,1-12.4-10.12,32.31,32.31,0,0,1-7.47-18.48c-.55-8.51-2-13.2-3.35-15.78l8.57-4.84h0c1.12,1.8,2.29,3.76,3.49,5.9C98.94,266.26,104.72,278.42,107.55,286.08Z" transform="translate(0 -0.24)"/><path class="cls-2" d="M99.53,290.75s-1,2.28-2.48,5.54c-3.26,1-6.3,1.92-9.09,2.84-1.69-1.74-3.65-3.62-5.74-5.72-1.29-1.3-2.54-2.57-3.79-3.9h0c1.84-2.94,8.69-8.88,8.69-8.88h0A40.42,40.42,0,0,0,99.53,290.75Z" transform="translate(0 -0.24)"/><path class="cls-8" d="M101,326.55a71.76,71.76,0,0,1-11.87-3C71,317.11,69,309,69,309h0a12.16,12.16,0,0,1,1.82-1.84A37.55,37.55,0,0,1,80.23,302a.75.75,0,0,1,.13-.06h0C80.59,301.94,94.9,304.46,101,326.55Z" transform="translate(0 -0.24)"/><path class="cls-3" d="M87.13,280.63h0s-6.85,5.94-8.69,8.88h0c-7-7.46-14.38-16.76-31.46-42.62a100.36,100.36,0,0,0-12-15.26h0c2.06,1,4.21,2.17,6.48,3.36,19.43,10.21,27.49,9.52,30.11,8.71a3.56,3.56,0,0,1,3.78,1.16,9.76,9.76,0,0,1,1,1.52c1.4,2.58,2.8,7.27,3.35,15.78A32.31,32.31,0,0,0,87.13,280.63Z" transform="translate(0 -0.24)"/><path class="cls-6" d="M84.89,241.52h0l-8.57,4.84a9.76,9.76,0,0,0-1-1.52A113.2,113.2,0,0,1,65.38,221S73,222.32,84.89,241.52Z" transform="translate(0 -0.24)"/><path class="cls-7" d="M82.22,293.41c2.09,2.1,4,4,5.74,5.72-2.77.92-5.3,1.83-7.59,2.77h0a.75.75,0,0,0-.13.06c-1.66-1.71-3.58-3.56-5.61-5.6-8.53-8.58-15.12-16.05-35.25-46.51C20,220.57,8,224.46,7.06,224.8a11.24,11.24,0,0,1,6.41-1.27c5.68.53,12.67,3.6,21.47,8.09h0a100.36,100.36,0,0,1,12,15.26c17.08,25.86,24.42,35.16,31.46,42.62C79.68,290.84,80.93,292.11,82.22,293.41Z" transform="translate(0 -0.24)"/><path class="cls-9" d="M74.62,296.36c2,2,3.95,3.89,5.61,5.6a37.55,37.55,0,0,0-9.38,5.16A12.16,12.16,0,0,0,69,309a11.24,11.24,0,0,0-2,3.87c-5.9-4.2-13.28-12-29.51-23.22C10,270.58-.49,248.54.83,234.23A11.89,11.89,0,0,1,7,224.83H7l0,0c.9-.34,13-4.23,32.31,25C59.5,280.31,66.09,287.78,74.62,296.36Z" transform="translate(0 -0.24)"/><path class="cls-7" d="M374.84,95.34c-7.5,5-17.42,10.2-25.93,10.2a14.63,14.63,0,0,1-11.08-4.47c-5.48-5.74-5.09-16.26,1.15-31.29,1.79-4.32,3.8-8.36,5.57-11.67a19.41,19.41,0,0,1,4.63,1.62c-6.57,12.13-14.5,31-7.83,38a10.15,10.15,0,0,0,7.69,3c7.07,0,16.16-4.72,23.58-9.67C373.38,92.46,374.12,93.9,374.84,95.34Z" transform="translate(0 -0.24)"/><path class="cls-7" d="M273.19,101.42c-3.05,7.07-8.8,12.1-17.1,15,0-1.81.08-3.57.23-5.3,6-2.48,10.13-6.36,12.39-11.59,5.58-12.94-1.13-31.32-5.5-40.9a15.52,15.52,0,0,1,4.62-1.67C272.54,67.29,279.48,86.82,273.19,101.42Z" transform="translate(0 -0.24)"/><path class="cls-7" d="M328.43,172.51c-1.63-.49-3.31-1-5-1.45-.79-11-4.45-35.64-21.55-43.8-9-4.32-18.05-3.28-26.79,3.06a43.83,43.83,0,0,0-6.77,6.13c-1.33-1-2.68-1.9-4-2.79a49.77,49.77,0,0,1,7.94-7.28c10.16-7.37,21.14-8.59,31.76-3.52C324.62,132.71,327.92,161.69,328.43,172.51Z" transform="translate(0 -0.24)"/><path class="cls-7" d="M374,115.92c-1.7,1-3.51,2.07-5.53,3.21-5.88-1.8-10.05-1.67-12.18.41-1.52,1.48-2.09,3.95-2.1,6.73a56.17,56.17,0,0,0-4.75,3.23c-.47-5,.09-10.17,3.44-13.44C357.06,112,364,112,374,115.92Z" transform="translate(0 -0.24)"/><path class="cls-7" d="M352.7,160.82a22.73,22.73,0,0,0-9.18,16.49c-1.48-.5-3.06-1-4.72-1.57a27.44,27.44,0,0,1,11.43-19.11l.26-.18Q351.59,158.64,352.7,160.82Z" transform="translate(0 -0.24)"/><path class="cls-7" d="M325.92,65.47c-1.8,10.15-5.58,23.55-13.29,29.9a15.6,15.6,0,0,1-10.12,3.75,16.36,16.36,0,0,1-2.4-.18c-14.54-2-16.35-23.46-16.11-36.31a15,15,0,0,0,4.88,5.2c.38,11.73,3,25,11.9,26.29a10.76,10.76,0,0,0,8.75-2.51c5.78-4.76,9.07-14.77,10.91-23.51C322.48,67.15,324.38,66.38,325.92,65.47Z" transform="translate(0 -0.24)"/><path class="cls-8" d="M256.09,36.17a13.41,13.41,0,1,1,13.4-13.4A13.41,13.41,0,0,1,256.09,36.17Zm0-22.76a9.36,9.36,0,1,0,9.35,9.36A9.36,9.36,0,0,0,256.09,13.41Z" transform="translate(0 -0.24)"/><path class="cls-5" d="M113.93,340.05c-23.37,0-38.59-7.86-45.19-16a12.64,12.64,0,0,1-2.38-11.44,12,12,0,0,1,2.1-4.12,12.34,12.34,0,0,1,1.93-2,37.74,37.74,0,0,1,9.53-5.26l.12-.05a.76.76,0,0,1,1,.38.71.71,0,0,1-.35.95l-.07,0-.08,0a36.61,36.61,0,0,0-9.2,5.05,11.06,11.06,0,0,0-1.7,1.72A10.69,10.69,0,0,0,67.77,313a11.17,11.17,0,0,0,2.1,10.12c8.12,10,29.83,19.54,64.3,13.63a251,251,0,0,1,28-3.2c10.4-.71,15.15-1,19.68-6.19a13,13,0,0,0,3.22-6.48,20.4,20.4,0,0,0-.75-8.53c-1.8-7-3.6-13-4.19-15a47.72,47.72,0,0,1-11.5.77,45.23,45.23,0,0,1-9.49-1.48.73.73,0,0,1-.51-.9.72.72,0,0,1,.89-.51,44.45,44.45,0,0,0,9.18,1.43,46.15,46.15,0,0,0,11.76-.87.73.73,0,0,1,.88.49c0,.07,2.2,7.16,4.4,15.68a21.61,21.61,0,0,1,.77,9.14,14.44,14.44,0,0,1-3.56,7.2c-4.93,5.6-10.2,6-20.68,6.68a251.72,251.72,0,0,0-27.87,3.18A121.38,121.38,0,0,1,113.93,340.05Z" transform="translate(0 -0.24)"/><path class="cls-5" d="M158.46,296.47l-.21,0a36.93,36.93,0,0,1-7.38-3.09.73.73,0,1,1,.71-1.28,35.45,35.45,0,0,0,7.09,3,.72.72,0,0,1,.49.91A.73.73,0,0,1,158.46,296.47Z" transform="translate(0 -0.24)"/><path class="cls-5" d="M80.37,302.63a.73.73,0,0,1-.28-1.41c2.14-.87,4.57-1.76,7.64-2.78,2.44-.81,5.17-1.66,9.11-2.85l1.79-.54c3.83-1.15,7.38-2.36,10.53-3.62,12.37-4.92,15.76-9.24,16.64-10.87a4.26,4.26,0,0,1,2.36-2,4.41,4.41,0,0,1,1.87-.2c3.81.42,9.07,3.62,15.64,9.49a32.11,32.11,0,0,0,5.91,4.2.73.73,0,0,1,.28,1,.73.73,0,0,1-1,.28,33.4,33.4,0,0,1-6.18-4.39c-7.89-7.06-12.41-8.86-14.82-9.13a2.85,2.85,0,0,0-1.23.14,2.77,2.77,0,0,0-1.55,1.3c-1.19,2.2-5,6.62-17.39,11.53-3.19,1.27-6.78,2.5-10.65,3.66l-1.79.54c-3.93,1.18-6.64,2-9.07,2.84-3,1-5.44,1.88-7.55,2.75A.86.86,0,0,1,80.37,302.63Z" transform="translate(0 -0.24)"/><path class="cls-5" d="M119.46,328.74c-3.47,0-6.84-.13-10.09-.4-2.91-.24-5.76-.6-8.48-1.07a.73.73,0,0,1,.24-1.44c2.69.46,5.5.82,8.36,1.05a142.3,142.3,0,0,0,30.23-1,157.4,157.4,0,0,1,16.91-1.11c3.58-.09,7-.18,10.06-.51,1.06-.11,2.22-.2,3.56-.27l1.93-.1c5.44-.27,10.14-.5,13.12-3.39a.74.74,0,0,1,1,0,.72.72,0,0,1,0,1c-3.4,3.29-8.59,3.55-14.08,3.82l-1.93.1c-1.31.07-2.45.16-3.49.27-3.15.32-6.56.42-10.17.51a159.35,159.35,0,0,0-16.76,1.1A158.59,158.59,0,0,1,119.46,328.74Z" transform="translate(0 -0.24)"/><path class="cls-5" d="M101,327.28h-.12a73,73,0,0,1-12-3.07c-18.25-6.46-20.48-14.71-20.56-15.06a.72.72,0,0,1,.53-.88.73.73,0,0,1,.89.53c0,.08,2.23,7.87,19.63,14a72.24,72.24,0,0,0,11.75,3,.73.73,0,0,1-.12,1.45Z" transform="translate(0 -0.24)"/><path class="cls-5" d="M101,327.28a.73.73,0,1,1,.73-.73h0A.73.73,0,0,1,101,327.28Z" transform="translate(0 -0.24)"/><path class="cls-5" d="M80.37,302.63a.73.73,0,1,1,0-1.46h0a.73.73,0,0,1,0,1.46Z" transform="translate(0 -0.24)"/><path class="cls-5" d="M151.22,293.44a.73.73,0,0,1-.73-.73.7.7,0,0,1,.09-.35c1.25-2.36,1.09-6.35-.43-10.42-2-5.41-5.82-9.63-10.13-11.28a11.1,11.1,0,0,0-1.11-.37c-3.43-1-6.06,0-7.8,2.73a.73.73,0,1,1-1.24-.78c1.46-2.32,4.29-4.78,9.43-3.36.44.13.85.26,1.24.41,4.7,1.8,8.8,6.34,11,12.14,1.69,4.5,1.82,8.83.37,11.59A.73.73,0,0,1,151.22,293.44Z" transform="translate(0 -0.24)"/><path class="cls-5" d="M128.4,280h-.05a.72.72,0,0,1-.68-.77,16.74,16.74,0,0,1,2.2-7,.73.73,0,0,1,1.24.78,15.46,15.46,0,0,0-2,6.29A.74.74,0,0,1,128.4,280Z" transform="translate(0 -0.24)"/><path class="cls-5" d="M97.05,297a.73.73,0,0,1-.73-.73.82.82,0,0,1,.07-.31c1-2.22,1.82-4,2.2-4.89a41.48,41.48,0,0,1-12-10,32.8,32.8,0,0,1-7.62-18.89c-.47-7.14-1.57-12.35-3.27-15.48a8.61,8.61,0,0,0-.93-1.41,2.83,2.83,0,0,0-3-.92c-2.65.82-10.94,1.6-30.67-8.77-2-1-4.26-2.23-6.47-3.35-8.69-4.43-15.62-7.49-21.21-8a10.47,10.47,0,0,0-6,1.19.73.73,0,0,1-.68-1.29,12,12,0,0,1,6.82-1.36c5.82.55,12.9,3.66,21.73,8.16,2.22,1.13,4.53,2.34,6.49,3.37C61,244.44,68.84,243.76,71.32,243a4.3,4.3,0,0,1,4.56,1.39A10.23,10.23,0,0,1,77,246c1.81,3.32,3,8.73,3.44,16.08a31.43,31.43,0,0,0,7.3,18.07,40.09,40.09,0,0,0,12.15,9.92.73.73,0,0,1,.36.94s-1,2.33-2.48,5.55A.73.73,0,0,1,97.05,297Z" transform="translate(0 -0.24)"/><path class="cls-5" d="M67.07,313.56a.69.69,0,0,1-.43-.14c-2.15-1.53-4.45-3.49-7.35-6a251.59,251.59,0,0,0-22.15-17.24C7.86,270-1.11,247.36.11,234.16a12.55,12.55,0,0,1,6.56-10,.73.73,0,0,1,.69,1.29,11.08,11.08,0,0,0-5.8,8.81C.38,247.1,9.21,269.12,38,289a256,256,0,0,1,22.27,17.32c2.87,2.47,5.15,4.41,7.25,5.9a.73.73,0,0,1-.42,1.33Z" transform="translate(0 -0.24)"/><path class="cls-5" d="M80.23,302.69a.7.7,0,0,1-.52-.22q-1.45-1.49-3.14-3.14l-2.47-2.45c-8.39-8.45-15-15.8-35.34-46.63C20,221.9,8.37,225.12,7.38,225.47a.74.74,0,0,1-1-1,.77.77,0,0,1,.34-.33l.13-.06c1.31-.5,13.65-4.17,33.15,25.34,20.3,30.71,26.83,38,35.16,46.4l2.46,2.44c1.12,1.11,2.18,2.16,3.15,3.16a.73.73,0,0,1-.52,1.24ZM7.66,225.17Zm0,0Z" transform="translate(0 -0.24)"/><path class="cls-5" d="M88,299.87a.7.7,0,0,1-.5-.21c-1-1-2.08-2.09-3.22-3.22-.82-.8-1.66-1.64-2.54-2.52-1.5-1.51-2.68-2.71-3.8-3.91-7-7.42-14.4-16.78-31.54-42.72a101.22,101.22,0,0,0-12-15.15.73.73,0,0,1,1-1,102,102,0,0,1,12.13,15.38C64.66,272.33,72,281.65,79,289c1.12,1.18,2.28,2.38,3.78,3.88.87.87,1.71,1.71,2.53,2.51,1.14,1.13,2.22,2.2,3.22,3.22a.75.75,0,0,1,0,1A.7.7,0,0,1,88,299.87Z" transform="translate(0 -0.24)"/><path class="cls-5" d="M241.09,116.18a.73.73,0,0,1-.42-.14l-.35-.24-1-.7-2.45-1.72-3.67-2.56c-6-4.2-15.07-10.55-24.26-16.73-17.53-11.79-29.28-18.84-34.93-21-15.5-5.79-29.35-5.85-30.93-2a1.67,1.67,0,0,0,.07,1.44c1.08,2.2,5.75,4.34,9.9,5.48a35.44,35.44,0,0,1,4.08,1.36c.33.13.65.27.94.4a.73.73,0,0,1-.6,1.34c-.27-.13-.57-.26-.89-.39a33.16,33.16,0,0,0-3.91-1.3c-4.35-1.2-9.47-3.46-10.83-6.25a3.1,3.1,0,0,1-.11-2.64c2.1-5.09,17.43-4.51,32.8,1.23,5.75,2.15,17.6,9.25,35.22,21.11,9.2,6.19,18.28,12.54,24.29,16.74l3.67,2.57,2.45,1.71,1,.71.34.24a.74.74,0,0,1,.18,1A.75.75,0,0,1,241.09,116.18Z" transform="translate(0 -0.24)"/><path class="cls-5" d="M162.17,94.93a10.19,10.19,0,0,1-4.32-1,10.46,10.46,0,0,1-5.72-6.61,2.17,2.17,0,0,1-.07-.24,5.78,5.78,0,0,1,1.27-5.9,5.33,5.33,0,0,1,3.26-1.42,7.19,7.19,0,0,1,1.23,0,17,17,0,0,1,5.46,1.2.73.73,0,0,1,.39,1,.74.74,0,0,1-1,.39,15.6,15.6,0,0,0-4.93-1.09,6.85,6.85,0,0,0-1,0,3.9,3.9,0,0,0-2.4,1c-1.1,1.08-1.39,2.61-.87,4.53v.07l0,.07a9,9,0,0,0,4.93,5.71,8.68,8.68,0,0,0,4.33.83l.35,0a3.71,3.71,0,0,0,2-.84.73.73,0,0,1,1,1.07,5.14,5.14,0,0,1-2.85,1.22l-.42,0C162.66,94.92,162.41,94.93,162.17,94.93Z" transform="translate(0 -0.24)"/><path class="cls-5" d="M165.54,88.12a.74.74,0,0,1-.6-.31,5.23,5.23,0,0,0-1.49-1.41.73.73,0,0,1,.76-1.25A6.59,6.59,0,0,1,166.13,87a.73.73,0,0,1-.17,1A.75.75,0,0,1,165.54,88.12Z" transform="translate(0 -0.24)"/><path class="cls-5" d="M159.63,101.26a8,8,0,0,1-.86-.05,10.2,10.2,0,0,1-3.5-.94,10.72,10.72,0,0,1-3.94-3.12,10.44,10.44,0,0,1-1.84-3.68c-.64-2.44-.21-4.5,1.27-6a4.6,4.6,0,0,1,1.83-1.11.73.73,0,1,1,.47,1.38,3.23,3.23,0,0,0-1.28.77c-1.09,1.08-1.39,2.6-.88,4.53a8.89,8.89,0,0,0,1.59,3.16,9.26,9.26,0,0,0,6.41,3.51,7.16,7.16,0,0,0,1.31,0,3.25,3.25,0,0,0,2.87-1.5,4,4,0,0,0-.47-3.76.73.73,0,0,1,1.24-.76,5.44,5.44,0,0,1,.53,5.19c-.49.94-1.58,2.1-4.06,2.29Q160,101.26,159.63,101.26Z" transform="translate(0 -0.24)"/><path class="cls-5" d="M154.9,108.18l.16-.71-.16.71-.5-.11a9.1,9.1,0,0,1-6-4.88,5.06,5.06,0,0,1,.15-5.3,5,5,0,0,1,3.2-1.91.74.74,0,0,1,.87.57.73.73,0,0,1-.57.86,3.55,3.55,0,0,0-2.3,1.31,3.65,3.65,0,0,0,0,3.84,7.58,7.58,0,0,0,5,4.09l.44.1Z" transform="translate(0 -0.24)"/><path class="cls-5" d="M156.69,108.36a9,9,0,0,1-1.77-.18.73.73,0,1,1,.28-1.43,7.25,7.25,0,0,0,3.25-.08h.05a2.57,2.57,0,0,0,2.14-1.94,4.09,4.09,0,0,0-2.16-3.6.73.73,0,1,1,.73-1.27,5.47,5.47,0,0,1,2.88,5.06c-.12.89-.69,2.47-3.19,3.15l-.05,0A8.64,8.64,0,0,1,156.69,108.36Zm2-1Z" transform="translate(0 -0.24)"/><path class="cls-5" d="M204,142.22a.74.74,0,0,1-.48-.17c-8.91-7.68-21-16.88-28.95-23-2.87-2.18-5.35-4.08-7.06-5.42-1.32-1-2.57-2-3.73-2.7a29.4,29.4,0,0,0-5.35-2.92.72.72,0,0,1-.41-.94.74.74,0,0,1,1-.42,31.36,31.36,0,0,1,5.62,3.06c1.19.77,2.47,1.71,3.82,2.77,1.71,1.34,4.18,3.23,7,5.41,8,6.1,20.05,15.3,29,23a.72.72,0,0,1,.28.57A.73.73,0,0,1,204,142.22Z" transform="translate(0 -0.24)"/><path class="cls-5" d="M156.67,81.22a.66.66,0,0,1-.3-.07.73.73,0,0,1-.36-1l.2-.43a.73.73,0,0,1,1-.36.74.74,0,0,1,.36,1l-.2.43A.74.74,0,0,1,156.67,81.22Z" transform="translate(0 -0.24)"/><path class="cls-5" d="M168.74,94.8a5.56,5.56,0,0,1-3.52-1.13,2.24,2.24,0,0,1-.38-.33c-1.37-1.37-1.35-3.85.06-6.32A13.83,13.83,0,0,1,170,82.17c7-4.09,14.2,1.63,14.5,1.88a.74.74,0,0,1,.11,1,.73.73,0,0,1-1,.1c-.07-.05-6.71-5.33-12.85-1.75a12.22,12.22,0,0,0-4.54,4.32c-1.06,1.85-1.17,3.68-.28,4.57a1,1,0,0,0,.22.19c1.68,1.34,5.21,1.13,8.26-1.5a.73.73,0,1,1,1,1.1A10.46,10.46,0,0,1,168.74,94.8Z" transform="translate(0 -0.24)"/><path class="cls-5" d="M76.31,247.1a.73.73,0,0,1-.36-1.37l8.57-4.84a.72.72,0,0,1,1,.28.72.72,0,0,1-.27,1L76.67,247A.7.7,0,0,1,76.31,247.1Z" transform="translate(0 -0.24)"/><path class="cls-5" d="M99.53,291.48a.73.73,0,0,1-.63-.35.74.74,0,0,1,.25-1l7.59-4.51a.73.73,0,1,1,.74,1.26l-7.58,4.51A.71.71,0,0,1,99.53,291.48Z" transform="translate(0 -0.24)"/><path class="cls-5" d="M180.66,297.29a.76.76,0,0,1-.38-.11.72.72,0,0,1-.25-1l9.46-15.61a.74.74,0,0,1,1-.24.73.73,0,0,1,.24,1l-9.46,15.6A.72.72,0,0,1,180.66,297.29Z" transform="translate(0 -0.24)"/><path class="cls-5" d="M465.52,258.08h-.07a.74.74,0,0,1-.66-.8c.3-3.12-7.24-9.27-18.33-15-18.37-9.42-23.9-25.22-33-51.39-3.3-9.42-7-20.1-12-32.31-1.5-3.68-3-7.33-4.44-11-4.7-11.67-9.14-22.69-14.3-34.18a398.27,398.27,0,0,0-19-37.26c-7.2-12.44-14.84-18.1-24.08-17.83a40.47,40.47,0,0,0-9.5,1.79l-.2.06c-2.73.75-5.31,1.47-7.46,1.14-8.81-1.35-7.55-15-7.49-15.63a.72.72,0,0,1,.72-.66c6.45-.05,9.73-3.93,10.64-7.55.71-2.8.05-5.58-1.54-6.45-3.72-2.05-6.44,2.69-6.55,2.89a.71.71,0,0,1-.53.36.74.74,0,0,1-.62-.2C307.7,25,307.9,14.84,308.18,12c-2.73-.17-12.26,0-14.2,10.66-.29,1.61-.61,3.18-.91,4.7-1.78,9-3.2,16.18.91,20.92a8.42,8.42,0,0,1,2.19,5.39c.06,3.26-1,5.49-3.25,6.63-2.8,1.45-6.6.36-10.63-.79l-.45-.13a56,56,0,0,0-7.12-1.69c-5.61-.85-10,.22-13.73,3.37-7.63,6.38-14.56,29.8-18,43.19-.9,3.49-1.74,7-2.52,10.45a.73.73,0,0,1-1.43-.32c.78-3.46,1.63-7,2.53-10.49,4.27-16.57,10.93-37.64,18.48-43.95,4.11-3.44,8.84-4.62,14.88-3.7a58.68,58.68,0,0,1,7.31,1.73l.45.13c3.74,1.07,7.28,2.08,9.56.9,1.7-.88,2.51-2.61,2.46-5.31a7,7,0,0,0-1.83-4.45c-4.58-5.29-3-13.11-1.24-22.16.3-1.52.61-3.08.9-4.68C295,8.77,309,10.56,309.1,10.58a.73.73,0,0,1,.49.3.69.69,0,0,1,.13.55c0,.11-1.79,11.16,7.74,21,1.49-2.09,4.5-4.58,8-2.65,2.22,1.22,3.15,4.55,2.25,8.09-1,4-4.54,8.32-11.37,8.63-.13,2.62-.17,12.41,6.3,13.4,1.84.29,4.28-.39,6.85-1.1l.2-.05a41,41,0,0,1,9.85-1.85c9.82-.29,17.89,5.6,25.39,18.55A403.93,403.93,0,0,1,384,112.9c5.16,11.51,9.61,22.54,14.32,34.22,1.46,3.63,2.93,7.27,4.43,10.95,5,12.25,8.74,22.94,12,32.38,9,25.83,14.48,41.42,32.34,50.57,4.62,2.38,19.68,10.57,19.12,16.4A.74.74,0,0,1,465.52,258.08Z" transform="translate(0 -0.24)"/><path class="cls-5" d="M319.05,38.38a.73.73,0,0,1-.45-1.31l5-3.91a.73.73,0,0,1,1,.13.72.72,0,0,1-.13,1l-5,3.92A.74.74,0,0,1,319.05,38.38Z" transform="translate(0 -0.24)"/><path class="cls-5" d="M323.57,39a.72.72,0,0,1-.7-.51l-1-3.33a.73.73,0,0,1,1.4-.42l1,3.32a.73.73,0,0,1-.48.91A.76.76,0,0,1,323.57,39Z" transform="translate(0 -0.24)"/><path class="cls-5" d="M311.07,29.67a.74.74,0,0,1-.61-.32,4.77,4.77,0,0,0-5-2.39.73.73,0,0,1-.9-.51.75.75,0,0,1,.51-.9,6.3,6.3,0,0,1,6.66,3,.72.72,0,0,1-.2,1A.78.78,0,0,1,311.07,29.67Z" transform="translate(0 -0.24)"/><path class="cls-5" d="M299.05,39.5a.75.75,0,0,1-.64-.38l-2-3.63a.74.74,0,0,1,.58-1.08,2.91,2.91,0,0,0,2.21-1.56,3.82,3.82,0,0,0-.57-4.6,3.93,3.93,0,0,0-4.6-1,4.57,4.57,0,0,0-1,.6.73.73,0,1,1-.93-1.13,6,6,0,0,1,1.28-.79,5.5,5.5,0,0,1,7.06,7.66,4.68,4.68,0,0,1-2.31,2l1.54,2.78a.72.72,0,0,1-.28,1A.68.68,0,0,1,299.05,39.5Z" transform="translate(0 -0.24)"/><path class="cls-5" d="M300.34,43.87a8.73,8.73,0,0,1-2.36-.31.73.73,0,0,1,.43-1.4h0a7.39,7.39,0,0,0,6-1,.73.73,0,0,1,1,.17.72.72,0,0,1-.17,1A8.29,8.29,0,0,1,300.34,43.87Z" transform="translate(0 -0.24)"/><path class="cls-5" d="M305.79,43.68a.74.74,0,0,1-.63-.36l-1.53-2.63a.74.74,0,0,1,.26-1,.73.73,0,0,1,1,.27l1.53,2.62a.72.72,0,0,1-.26,1A.71.71,0,0,1,305.79,43.68Z" transform="translate(0 -0.24)"/><path class="cls-5" d="M433.59,274.83c-2.08,0-4.7-.78-8.56-1.93-2.26-.67-4.82-1.43-7.95-2.25l-3.13-.78c-8.56-2.11-14.21-3.51-19.08-14.61-5.39-12.29-19-44.68-23.85-56.13-2.33-5.56-7.41-15.44-13.29-26.89l-1.82-3.55c-5.36-10.44-11-21.46-15.58-31.34-1.35-2.88-2.59-5.64-3.69-8.19C327,106.9,323,96.91,322.92,96.81a.73.73,0,0,1,1.36-.55c0,.1,4.11,10.07,13.7,32.32,1.09,2.54,2.33,5.28,3.67,8.15,4.6,9.86,10.21,20.87,15.56,31.29l1.82,3.56c5.9,11.47,11,21.38,13.34,27,4.8,11.44,18.45,43.82,23.83,56.1,4.59,10.45,9.39,11.63,18.1,13.78,1,.24,2.05.5,3.15.79,3.15.82,5.73,1.58,8,2.26,5.11,1.52,7.92,2.36,9.91,1.56a1.52,1.52,0,0,0,1-1.39c.14-1.74-1.75-5-7.51-8.41-1.1-.65-2.34-1.31-3.67-1.94a.75.75,0,0,1-.35-1,.73.73,0,0,1,1-.34c1.37.65,2.65,1.33,3.78,2,5.38,3.2,8.46,6.85,8.23,9.78a3,3,0,0,1-1.93,2.64A6.15,6.15,0,0,1,433.59,274.83Z" transform="translate(0 -0.24)"/><path class="cls-5" d="M463.52,268.52c-2.18,0-5.42-.68-10.38-2.09-8.24-2.36-22.33-3-23.91-3.07a.76.76,0,0,1-.73-.74.71.71,0,0,1,.71-.72h.08c2.61.11,16,.77,24.25,3.12,5,1.42,10.28,2.72,12,1.62a1.35,1.35,0,0,0,.6-1,2.42,2.42,0,0,0-.33-1.56c-1.08-1.95-4.55-4-10.6-6.3a161.85,161.85,0,0,0-18.25-5.25.73.73,0,1,1,.32-1.42,160.27,160.27,0,0,1,18.45,5.3c6.48,2.45,10.09,4.66,11.36,7a3.88,3.88,0,0,1,.5,2.48,2.8,2.8,0,0,1-1.25,2A5.13,5.13,0,0,1,463.52,268.52Z" transform="translate(0 -0.24)"/><path class="cls-5" d="M466.43,264.43a.71.71,0,0,1-.64-.38.72.72,0,0,1,.29-1,1.88,1.88,0,0,0,1.13-1.34c.14-.94-.65-2.31-2.21-3.85a33.34,33.34,0,0,0-7.78-5.42,45.61,45.61,0,0,0-9.46-3.71.73.73,0,0,1,.35-1.42,47.1,47.1,0,0,1,9.78,3.83,35.12,35.12,0,0,1,8.14,5.68c2,1.93,2.84,3.64,2.63,5.09a3.27,3.27,0,0,1-1.88,2.42A.63.63,0,0,1,466.43,264.43Z" transform="translate(0 -0.24)"/><path class="cls-5" d="M242.38,221.74a.58.58,0,0,1-.19,0,.74.74,0,0,1-.52-.9c1.3-4.79,2.64-9.11,3.83-12.92,3.14-10.11,5.41-17.42,4.59-25.21a.73.73,0,0,1,1.45-.15c.85,8.09-1.57,15.9-4.65,25.79-1.18,3.8-2.51,8.1-3.81,12.88A.74.74,0,0,1,242.38,221.74Z" transform="translate(0 -0.24)"/><path class="cls-5" d="M209.36,293.44h0a.73.73,0,0,1-.58-.33c-3.12-4.68-9.37-7.37-18-11.1l-.91-.39A157.89,157.89,0,0,1,160.62,266c-4.87-3.4-9.54-6.6-13.88-9.51-13-8.74-18.63-11.85-18.68-11.88a.73.73,0,0,1-.3-1,.74.74,0,0,1,1-.29c.06,0,5.49,3,18.8,11.95,4.35,2.91,9,6.12,13.91,9.52,10.46,7.3,19.66,11.49,28.95,15.5l.91.39c8.36,3.61,14.54,6.27,18,10.78,1.75-2.55,7.27-11.05,14.21-26.37.85-1.88,1.71-3.72,2.64-5.61,1.77-3.61,3.31-6.44,4.66-8.93,3.78-7,6.28-11.6,9.51-24.76.4-1.62.83-3.29,1.29-5a.73.73,0,0,1,.89-.52.74.74,0,0,1,.52.9c-.45,1.66-.88,3.32-1.28,4.93-3.28,13.35-5.81,18-9.65,25.1-1.34,2.49-2.87,5.3-4.62,8.88-.93,1.88-1.79,3.7-2.63,5.57-8.48,18.71-14.89,27.38-15,27.46A.73.73,0,0,1,209.36,293.44Z" transform="translate(0 -0.24)"/><path class="cls-5" d="M128.4,244.68a.8.8,0,0,1-.42-.13.74.74,0,0,1-.18-1c.07-.09,6.58-9.33,20-23.6,1.26-1.33,2.54-2.67,3.81-4,7.4-7.61,9.67-13.52,11.86-19.23,2.32-6,4.72-12.29,13.1-20.34,1-1,2.13-2.14,3.28-3.45A183.94,183.94,0,0,0,191.71,157c3.72-5.37,7.56-10.93,11.71-16,6.15-7.48,15.85-17.54,29-18.64,8-.67,16.41,1.53,25.84,6.73,11.32,6.24,21.83,15.56,31.11,23.79,2.69,2.39,5.24,4.64,7.63,6.67,1.79,1.51,3.65,3.06,5.55,4.65l1.94,1.62c17.11,14.3,33.09,28.53,40.68,45.26a.74.74,0,0,1-.37,1,.72.72,0,0,1-1-.36c-7.46-16.46-23.32-30.56-40.29-44.75l-1.94-1.62c-1.9-1.59-3.76-3.14-5.55-4.65-2.41-2-5-4.3-7.66-6.7-9.22-8.18-19.66-17.44-30.85-23.6-9.17-5.06-17.35-7.2-25-6.56-9.57.81-18.46,6.56-28,18.12-4.11,5-7.94,10.52-11.64,15.87A182.35,182.35,0,0,1,181,173.89c-1.18,1.34-2.28,2.5-3.37,3.54-8.14,7.83-10.38,13.65-12.75,19.82-2.24,5.84-4.57,11.89-12.17,19.72-1.27,1.31-2.54,2.64-3.79,4-13.36,14.18-19.82,23.34-19.88,23.43A.74.74,0,0,1,128.4,244.68Z" transform="translate(0 -0.24)"/><path class="cls-5" d="M242.37,221.74a.75.75,0,0,1-.51-.21.74.74,0,0,1,0-1h0a.92.92,0,0,1,.3-.18c.08,0,8.58-2.94,17.58-14.73a.73.73,0,1,1,1.16.89c-9,11.78-17.61,15-18.25,15.22A.81.81,0,0,1,242.37,221.74Z" transform="translate(0 -0.24)"/><path class="cls-5" d="M315.79,289.44a40.56,40.56,0,0,1-17-3.71c-10.52-4.76-18.91-13.42-27-21.79-4-4.16-7.84-8.09-11.9-11.59-17.4-15-19.38-25.82-19.46-26.27a.73.73,0,0,1,1.44-.24c0,.13,2.05,10.84,19,25.41,4.1,3.53,8.11,7.67,12,11.67,8,8.28,16.31,16.83,26.57,21.48A39.65,39.65,0,0,0,320,287.77c26.95-2.61,35.48-24,39.56-39.92,3.72-14.5,1.26-45.22-5.26-65.95-3.28-1.21-30-11-50.47-14.77a.74.74,0,0,1-.59-.85.73.73,0,0,1,.85-.59c21.87,4,50.76,14.86,51.05,15a.72.72,0,0,1,.44.46c6.67,20.95,9.19,52.3,5.39,67.09-4.18,16.31-13,38.31-40.82,41A43.79,43.79,0,0,1,315.79,289.44Z" transform="translate(0 -0.24)"/><path class="cls-5" d="M257.88,130.49a.74.74,0,0,1-.7-.54,53.43,53.43,0,0,1-1.42-20.49,69.65,69.65,0,0,1,9.64-27.55.73.73,0,1,1,1.21.81,68.33,68.33,0,0,0-9.4,26.91,52.11,52.11,0,0,0,1.38,19.93.73.73,0,0,1-.51.9A.69.69,0,0,1,257.88,130.49Z" transform="translate(0 -0.24)"/><path class="cls-5" d="M354.93,182.07h-.09a.73.73,0,0,1-.64-.82l1.63-13a.73.73,0,1,1,1.45.18l-1.63,13A.72.72,0,0,1,354.93,182.07Z" transform="translate(0 -0.24)"/><path class="cls-5" d="M140.27,270.71a.87.87,0,0,1-.31-.07.73.73,0,0,1-.34-1l6.87-14.12a.73.73,0,0,1,1-.33.72.72,0,0,1,.33,1l-6.86,14.11A.76.76,0,0,1,140.27,270.71Z" transform="translate(0 -0.24)"/><path class="cls-5" d="M341,137.77a.73.73,0,0,1-.54-1.22c.37-.41,9.11-9.9,19.9-14.23a77.11,77.11,0,0,0,10.74-5.54c4.71-2.79,8.43-5,12.36-4.3a.73.73,0,0,1,.6.84.74.74,0,0,1-.85.6c-3.4-.59-6.91,1.49-11.36,4.11a76.78,76.78,0,0,1-10.95,5.65c-10.47,4.2-19.27,13.76-19.36,13.85A.71.71,0,0,1,341,137.77Z" transform="translate(0 -0.24)"/><path class="cls-5" d="M256.09,110.23a.72.72,0,0,1-.42-.13,35.12,35.12,0,0,0-13.49-5.34.73.73,0,0,1-.62-.83.72.72,0,0,1,.82-.62,36.29,36.29,0,0,1,14.12,5.59.73.73,0,0,1-.41,1.33Z" transform="translate(0 -0.24)"/><path class="cls-5" d="M307.87,73.18c-3.81,0-8-1-13.34-2.29l-.53-.13a16,16,0,0,1-12.23-11.87.72.72,0,0,1,.6-.84.71.71,0,0,1,.84.59h0c.06.34,1.61,8.42,11.13,10.7l.53.13c9.75,2.34,15.12,3.63,21.4,0a54.1,54.1,0,0,1,5.47-2.71c4.24-1.9,7.3-3.28,7.24-7.15a.73.73,0,1,1,1.46,0c.08,4.84-3.71,6.54-8.1,8.51A51.53,51.53,0,0,0,317,70.68,17.25,17.25,0,0,1,307.87,73.18Z" transform="translate(0 -0.24)"/><path class="cls-5" d="M208.75,293.46c-2.12,0-9.17-.54-22.17-6.51a.73.73,0,0,1,.61-1.33c15.08,6.93,22,6.37,22.1,6.36a.73.73,0,0,1,.8.66.72.72,0,0,1-.65.79A5.27,5.27,0,0,1,208.75,293.46Z" transform="translate(0 -0.24)"/><path class="cls-5" d="M145.18,260.64a.7.7,0,0,1-.48-.19c-1.42-1.13-2.78-2.25-4-3.33-9-7.69-12.61-12.42-12.83-12.72a.73.73,0,0,1,1.08-1h0l.09.09s3.6,4.81,12.6,12.48c1.27,1.08,2.62,2.2,4,3.33l.07.07a.73.73,0,0,1,0,1A.74.74,0,0,1,145.18,260.64Z" transform="translate(0 -0.24)"/><path class="cls-5" d="M224.23,266.11a.71.71,0,0,1-.41-.13,44,44,0,0,0-6.24-3c-2.69-1.15-6-2.59-9.86-4.55-2.32-1.18-4.49-2.38-6.64-3.67-3.83-2.3-6.47-4-9-5.56-4.71-3-8.77-5.51-18.49-10.88A180,180,0,0,1,147.88,221a.73.73,0,1,1,.94-1.12A179,179,0,0,0,174.27,237c9.76,5.39,13.84,8,18.56,10.92,2.55,1.6,5.18,3.25,9,5.54,2.12,1.28,4.27,2.47,6.55,3.63,3.78,1.93,7.1,3.36,9.77,4.51a43.69,43.69,0,0,1,6.49,3.14.73.73,0,0,1-.41,1.34Z" transform="translate(0 -0.24)"/><path class="cls-5" d="M323.2,278.41a27.9,27.9,0,0,1-23.64-12.64c-4.2-6.6-11.22-12.46-17.42-17.64-7.39-6.17-13.77-11.5-14.22-16.81a7.44,7.44,0,0,1,2-5.52c5.65-6.62,2.58-16.05-1.29-28-2.15-6.62-4.59-14.12-5.84-22.24-1.12-7.28-3.52-11.28-6.93-11.56-5.1-.41-12.14,7.62-15.37,17.55a122,122,0,0,1-4.85,12.51c-2.53,5.81-4.37,10-5.57,20.88-1.41,12.65-4.77,17.54-9.85,24.94-1.88,2.74-4,5.85-6.39,9.85-1.74,2.92-3.47,5.75-5.12,8.41-6.61,10.64-11.94,18.45-12,18.53a.75.75,0,0,1-1,.19.74.74,0,0,1-.19-1c.05-.08,5.37-7.86,12-18.47,1.65-2.66,3.37-5.48,5.1-8.39,2.41-4,4.56-7.17,6.45-9.93,5.13-7.47,8.23-12,9.59-24.27,1.23-11.09,3.11-15.37,5.7-21.3a125.3,125.3,0,0,0,4.79-12.39c3-9.33,10.35-19.08,16.88-18.54,2.9.23,6.7,2.64,8.26,12.78,1.23,8,3.64,15.45,5.78,22,4,12.37,7.19,22.14,1,29.38a5.86,5.86,0,0,0-1.61,4.45c.39,4.7,6.56,9.85,13.7,15.81,6.28,5.25,13.4,11.19,17.72,18a26.51,26.51,0,0,0,23.91,11.91C336.09,276.29,346,269.05,352,257a.73.73,0,0,1,1.31.64c-6.2,12.51-16.59,20.06-28.51,20.69C324.26,278.39,323.73,278.41,323.2,278.41Z" transform="translate(0 -0.24)"/><path class="cls-5" d="M109.43,292.84a.72.72,0,0,1-.71-.57,51.57,51.57,0,0,0-1.85-5.94c-3.21-8.68-9.65-21.65-19.13-38.55-1.13-2-2.3-4-3.47-5.88-8.81-14.16-15.22-18.45-17.78-19.69A114.71,114.71,0,0,0,76,244.49a.73.73,0,0,1-1.28.72,115,115,0,0,1-10-24,.74.74,0,0,1,.83-.91c.33.06,8,1.59,20,20.84,1.19,1.9,2.36,3.9,3.5,5.93,9.52,17,16,30,19.23,38.77a52,52,0,0,1,1.9,6.12.73.73,0,0,1-.55.87A.44.44,0,0,1,109.43,292.84Z" transform="translate(0 -0.24)"/><path class="cls-5" d="M124.18,197.93a.73.73,0,0,1-.21-1.43,301.11,301.11,0,0,0,32.69-11.79l3.16-1.31a66.23,66.23,0,0,0,12.23-6.87c3.49-2.35,6-4.05,8.41-3.85a.73.73,0,0,1-.11,1.45c-1.9-.15-4.24,1.43-7.49,3.61a67.12,67.12,0,0,1-12.48,7l-3.16,1.31a303.53,303.53,0,0,1-32.83,11.84Z" transform="translate(0 -0.24)"/><path class="cls-5" d="M65.38,221.74a.7.7,0,0,1-.52-.22.73.73,0,0,1,0-1c.18-.19,4.79-4.61,22.9-9.78,2.68-.76,5.06-1.52,7.28-2.32a87.71,87.71,0,0,0,10.67-4.67,97.76,97.76,0,0,1,17.67-7.05l.58-.17a.73.73,0,1,1,.4,1.4l-.55.17a96.42,96.42,0,0,0-17.45,7,92.51,92.51,0,0,1-10.82,4.74c-2.25.8-4.67,1.57-7.38,2.35-17.63,5-22.23,9.37-22.28,9.41A.73.73,0,0,1,65.38,221.74Z" transform="translate(0 -0.24)"/><path class="cls-5" d="M130.49,273.36a.73.73,0,0,1-.72-.59c-.19-.74-1.07-4.09-2.8-8.79a108.79,108.79,0,0,0-10.1-20.68c-3.21-5-5.85-9.9-8.17-14.21-4.39-8.14-8.18-15.17-13.84-19.43a.72.72,0,0,1-.14-1,.73.73,0,0,1,1-.15c5.91,4.46,9.77,11.61,14.25,19.9,2.31,4.29,4.93,9.15,8.11,14.13a109.76,109.76,0,0,1,10.25,21c1.78,4.86,2.68,8.31,2.84,8.95a.69.69,0,0,1,0,.2A.73.73,0,0,1,130.49,273.36Z" transform="translate(0 -0.24)"/><path class="cls-5" d="M110.32,273.36A.73.73,0,0,1,110,272c.08,0,8.53-4.32,17.33-8.9,5.56-2.9,10.09-5.31,13.46-7.16a.74.74,0,0,1,1,.29.72.72,0,0,1-.29,1c-3.38,1.86-7.91,4.27-13.48,7.18-8.82,4.58-17.27,8.86-17.36,8.91A.71.71,0,0,1,110.32,273.36Z" transform="translate(0 -0.24)"/><path class="cls-5" d="M298.84,285.8a90.12,90.12,0,0,1-33.12-7.45c-5.5-2.36-11.07-4.55-16-6.48-11.64-4.58-20.84-8.19-23.45-11.64a.73.73,0,0,1,1.16-.88c2.37,3.12,11.85,6.84,22.83,11.16,4.92,1.94,10.5,4.13,16,6.49,17.67,7.58,32.6,7.34,32.75,7.34a.71.71,0,0,1,.74.71.73.73,0,0,1-.71.75Z" transform="translate(0 -0.24)"/><path class="cls-5" d="M339.58,58.41h0a.73.73,0,0,1-.71-.73h0c.12-2.45-1.08-3.38-2.47-4.46-1.86-1.44-4-3.08-1.58-8.25,2.07-4.48.94-8-.78-13.28a66.18,66.18,0,0,1-3.4-15.14c-.87-9.27-6-11.76-10.21-12.21a13.13,13.13,0,0,1-5.22-1.75c-1.35-.78-4.15-1.44-9.81-.11-7.84,1.85-15.71,4-18.11,8.59-1,1.87-1,4,0,6.58,2.31,6,1.22,8.73.17,11.36a11.59,11.59,0,0,0-.91,7.45c.82,4.5-2.33,7.25-5.38,9.91-3.27,2.86-6.37,5.56-5.59,10.45,0,0,0,.07,0,.11a.73.73,0,0,1-1.46.09c-.89-5.67,2.82-8.9,6.08-11.75,3-2.61,5.58-4.86,4.9-8.55a13.12,13.12,0,0,1,1-8.26c1-2.47,1.92-4.8-.19-10.29-1.12-2.93-1.09-5.55.09-7.78,2.69-5.09,10.89-7.4,19.07-9.33C310-.11,313.62,0,315.92,1.32a11.72,11.72,0,0,0,4.64,1.56c3.87.42,10.51,2.73,11.52,13.52a64.46,64.46,0,0,0,3.33,14.83c1.76,5.42,3,9.34.72,14.35-1.9,4.11-.62,5.1,1.14,6.48,1.43,1.1,3.19,2.47,3,5.65A.74.74,0,0,1,339.58,58.41Z" transform="translate(0 -0.24)"/></svg>