<svg id="Layer_1" data-name="Layer 1" xmlns="http://www.w3.org/2000/svg" viewBox="0 0 213.8 340.29"><defs><style>.cls-1{fill:#414144;}.cls-2{fill:#fcb017;}.cls-3{fill:#fff5e1;}.cls-4{fill:#3db54a;}.cls-5{fill:#fcbcc6;}.cls-6{fill:#84251e;}.cls-7{fill:#1e1e1e;}.cls-8{fill:#fff1c5;}</style></defs><path class="cls-1" d="M86.66,124.4h0c0,3.46,1.06,4.71,3.69,1.52h0C89.1,125.44,87.87,124.93,86.66,124.4Z" transform="translate(-3.83 0)"/><path class="cls-1" d="M99.37,95.87s-.16-7.1-3.75-2.18A40,40,0,0,0,99.37,95.87Z" transform="translate(-3.83 0)"/><path class="cls-2" d="M74.17,316.65a38.88,38.88,0,0,0-3.16,8.8c3.42,2.3,12.35,2.85,21.11,3.27a65.35,65.35,0,0,0-3.33-17c-9.55,1.35-10.26-2.41-10.26-2.41C76.51,309.16,76.82,311.5,74.17,316.65Z" transform="translate(-3.83 0)"/><path class="cls-3" d="M10.59,325.45c-.61,4.46,1.35,6.84,2.24,7.73,5.27,5.34,24.36,6.06,34,4.62,10.69-1.61,11.48-5.63,10.34-10.16-.91,1.23-3.92,3.17-13.88,2.78C30.15,329.9,14.77,330.42,10.59,325.45Z" transform="translate(-3.83 0)"/><path class="cls-3" d="M71,325.45c-.88,4-.87,7.79,1.29,9.26,3.89,2.65,18.7,1.72,29.45,3.27s49.24,4.52,50.17-4.05a7.11,7.11,0,0,0-2.62-6.05l-.07.08s-1.95,2.79-15,2.51-21.36-.5-32.18-1.25c-3.05-.21-6.45-.35-9.89-.5C83.36,328.3,74.43,327.75,71,325.45Z" transform="translate(-3.83 0)"/><path class="cls-4" d="M13.45,317.89a20.93,20.93,0,0,0-2.86,7.56c4.18,5,19.56,4.45,32.68,5,10,.39,13-1.55,13.88-2.78-.23-.9-.53-1.82-.85-2.74-.89-2.59-2.35-5.47-3.56-8.55a29.87,29.87,0,0,0-5.85-9.82h0c-10-10.54-23.92-2-31.1,7.81A39.11,39.11,0,0,0,13.45,317.89Z" transform="translate(-3.83 0)"/><path class="cls-4" d="M113.85,301.67c-4.16-4.07-5.87-3.06-5.87-3.06s-3.74,9.92-16.17,12.57c-1.09.24-2.09.41-3,.54a65.35,65.35,0,0,1,3.33,17c3.44.15,6.84.29,9.89.5,10.82.75,19.09,1,32.18,1.25s15-2.51,15-2.51l.07-.08c-4.68-4.42-14.26-6.84-17.79-9.05-6.12-3.83-10.44-9.05-15.89-15.28C115,302.82,114.4,302.2,113.85,301.67Z" transform="translate(-3.83 0)"/><path class="cls-3" d="M116.37,93.16a10,10,0,0,0-2.81,7.77c2.61.65,5.47,1.24,8.57,1.75-4.24-3.5-5.63-6.8-5.74-9.52Z" transform="translate(-3.83 0)"/><path class="cls-3" d="M119.25,86a10.12,10.12,0,0,0-2.86,7.17c.11,2.72,1.5,6,5.74,9.52h0c4.08.69,8.61,1.24,13.62,1.65a29.73,29.73,0,0,1-14.2-12.12A19.23,19.23,0,0,1,119.25,86Z" transform="translate(-3.83 0)"/><path class="cls-2" d="M68.84,124.08a86.62,86.62,0,0,1,11.13,0l.31,0a19.14,19.14,0,0,1-.31-2.27c-5.92-2.65-12.6-11.15-18-22.22a22.21,22.21,0,0,0-.21,6.25,26.23,26.23,0,0,0,1.09,5.32c2,6.38-1.88,10.82,4.12,15.61A17.25,17.25,0,0,1,68.84,124.08Z" transform="translate(-3.83 0)"/><path class="cls-2" d="M70.92,36.32c-2,.65-2.42,3.26-1.81,6.38a25.24,25.24,0,0,0,5.33,10.91C79,58.67,82.31,59.3,83,58.75s.84-2.34,1-5.45a44.32,44.32,0,0,0,0-5.17h0c.16.13,2.74,2.32,4.63,4.28s3.09,2.59,3.64,1.35S93,47,90.87,43.56a21.53,21.53,0,0,0-4.13-4.93,3.82,3.82,0,0,0-2.2-1.15h-.19c-.13,2.88,1.62,6.75.21,8.57-2.94,3.8-9.3-1.52-12.21-5.77a7.24,7.24,0,0,1-1.42-3.82.71.71,0,0,1,0-.14Z" transform="translate(-3.83 0)"/><path class="cls-4" d="M8.94,273.13C3.05,288,4.55,295.79,4.55,295.79c2.05-1.91,5.31-2.28,9.5-2.1a46.69,46.69,0,0,1,2.35-8.38c.9-2.49,1.51-7.48,2.61-13.06a48.28,48.28,0,0,0-10.07.88Z" transform="translate(-3.83 0)"/><path class="cls-4" d="M39.86,222.41c6.6-11.17,6.31-11.8,9.26-25.29s14-44.69,14.18-45.12a22.86,22.86,0,0,1-9.51,3.61c-1.11,2.95-2.13,5.79-3,8.36-4.56,14-6.66,35.41-16.13,47.73S23.48,243.55,13,264.24c-1.63,3.2-3,6.16-4,8.89h0A48.28,48.28,0,0,1,19,272.25c1.18-5.92,2.9-12.51,6.11-17.48,6.23-9.66,8-20.88,14.65-32.2Z" transform="translate(-3.83 0)"/><path class="cls-1" d="M4.55,295.79c2.77,2.71,8.16,3.7,14.37,4.06h0c.69-3.28,1.06-5.58,1.08-5.7-2.14-.2-4.13-.38-5.95-.46C9.86,293.51,6.6,293.88,4.55,295.79Z" transform="translate(-3.83 0)"/><path class="cls-4" d="M20,294.15a106.75,106.75,0,0,0,19.61.59,37.32,37.32,0,0,1,9,.17c7.9,1.25,8.53,5.44,8.53,5.44,2-4.63,3-13.36,4.92-22.8,0,0-2.35-4.86-18.55-4.39-11,.32-17.74-.83-24.5-.91-1.1,5.58-1.71,10.57-2.61,13.06a46.69,46.69,0,0,0-2.35,8.38C15.87,293.77,17.86,294,20,294.15Z" transform="translate(-3.83 0)"/><path class="cls-5" d="M13.45,317.89a39.11,39.11,0,0,1,2.34-3.55c7.18-9.8,21.13-18.35,31.1-7.81.23-1.78.53-3.9.82-5.84.47-3.13.9-5.78.9-5.78a37.32,37.32,0,0,0-9-.17A106.75,106.75,0,0,1,20,294.15c0,.12-.39,2.42-1.08,5.7C17.85,305,16,312.46,13.45,317.89Z" transform="translate(-3.83 0)"/><path class="cls-4" d="M94.71,195.31a208.41,208.41,0,0,0,11-27.69l.47-1.51c-1.73-3.43-1.82-6.18-1.11-10.44l4.55-24.62A110.57,110.57,0,0,1,92,126.51c-1.93,3.1-4.09,4.43-6,4.34,0,0-11.3,14.25-22.63,21.15h0c-.15.43-11.25,31.66-14.18,45.12s-2.66,14.12-9.26,25.29l-.09.16c-6.7,11.32-8.42,22.54-14.65,32.2-3.21,5-4.93,11.56-6.11,17.48,6.76.08,13.5,1.23,24.5.91,16.2-.47,18.55,4.39,18.55,4.39,1.71-8.43,4.19-17.41,8.89-24.53a56.62,56.62,0,0,0,3.16-5.42c6.74-13.16,7.27-26.46,17.86-46.82q1.44-2.78,2.74-5.47Z" transform="translate(-3.83 0)"/><path class="cls-1" d="M48.61,294.91s-.43,2.65-.9,5.78c7,.19,9.43-.34,9.43-.34h0S56.51,296.16,48.61,294.91Z" transform="translate(-3.83 0)"/><path class="cls-2" d="M52.72,71a68.32,68.32,0,0,0,1.61,8A111.84,111.84,0,0,0,58,90.39c1.21,3.19,2.55,6.26,4,9.16,5.42,11.07,12.1,19.57,18,22.22a19.14,19.14,0,0,0,.31,2.27c0,.15.07.31.11.46a11.23,11.23,0,0,0,1.77,4.07,5,5,0,0,0,3.77,2.28c1.95.09,4.11-1.24,6-4.34q-.81-.29-1.62-.6h0c-2.63,3.19-3.68,1.94-3.69-1.52h0c0-7.39,4.67-24.83,9-30.71,3.59-4.92,3.75,2.18,3.75,2.18q.78.41,1.62.78a58.2,58.2,0,0,0,6.42,2.52h0c.25-7.54-5.86-18.06-10.18-27.29S84.24,48.52,84,48.14h0a44.32,44.32,0,0,1,0,5.17c-.16,3.11-.29,4.91-1,5.45s-4-.08-8.56-5.14A25.24,25.24,0,0,1,69.11,42.7h0a19,19,0,0,1-5.86,5.4A23.35,23.35,0,0,0,52.72,71Z" transform="translate(-3.83 0)"/><path class="cls-4" d="M67,126.73c-3.2,5.24-8.1,16-12.06,26-.38,1-.74,1.91-1.1,2.85A22.86,22.86,0,0,0,63.3,152h0c11.33-6.9,22.63-21.15,22.63-21.15-2.57-.1-4.79-2.65-5.65-6.81l-.31,0a86.62,86.62,0,0,0-11.13,0A17.25,17.25,0,0,0,67,126.73Z" transform="translate(-3.83 0)"/><path class="cls-6" d="M72.18,9.53c2.63-.43,8.13-.49,10.7,5.65C88.83-4.2,68-2.43,60.27,9.48c-.35-1.13-1-2.34-2.08-1.88-1.63.71-.48,8.39-.48,8.39C56,25.48,59.19,29.9,62.58,32c-1.86-2.36-2-5.52-.54-6.76,2.73-2.24,5.62,1.22,5.62,1.22a11.58,11.58,0,0,0,2.34-10A7,7,0,0,0,72.18,9.53Z" transform="translate(-3.83 0)"/><path class="cls-5" d="M67.66,26.41a11.58,11.58,0,0,0,2.34-10,7,7,0,0,0,2.18-6.9c2.63-.43,8.13-.49,10.7,5.65l.15.38c2.85,7.43,6,13.35,3.35,18A6.1,6.1,0,0,1,85.3,35a3.5,3.5,0,0,0-1,2.45c-.13,2.88,1.62,6.75.21,8.57-2.94,3.8-9.3-1.52-12.21-5.77a7.24,7.24,0,0,1-1.42-3.82.71.71,0,0,1,0-.14,6.14,6.14,0,0,0-.36-1.72c-3.79.68-6.45-.71-8-2.65h0c-1.86-2.36-2-5.52-.54-6.76C64.77,23,67.66,26.41,67.66,26.41Zm7.53-2.21c.41-.06.65-.69.54-1.4s-.53-1.24-.93-1.18-.64.69-.54,1.4S74.79,24.26,75.19,24.2Zm7.51-1.52c.41-.06.64-.69.54-1.4s-.53-1.24-.93-1.18-.64.69-.54,1.4S82.3,22.74,82.7,22.68Z" transform="translate(-3.83 0)"/><path class="cls-4" d="M70.46,276.74c-2.8,10.05-1.17,23.61-1.17,23.61a31,31,0,0,1,10.65-2.59c2.12-.2,4.37-.31,6.73-.38,0-.22.81-8.8,1.56-13.31a58.92,58.92,0,0,0,.78-7.53C81.59,276.38,75.05,275.77,70.46,276.74Z" transform="translate(-3.83 0)"/><path class="cls-1" d="M69.29,300.35h0c1.08,1.42,4.3,2.53,10.14,3.06.25-1.91.48-3.92.54-5.39l0-.26A31,31,0,0,0,69.29,300.35Z" transform="translate(-3.83 0)"/><path class="cls-4" d="M74.11,247.6c-2.76,6.2-.84,19.09-3.65,29.14,4.59-1,11.13-.36,18.55-.2.34-9-2-12.88-.78-20.68,1.55-9.66,1.4-11.84,1.4-23.68,0-11.66,4.92-36.1,5.08-36.87q-1.3,2.7-2.74,5.47C81.38,221.14,80.85,234.44,74.11,247.6Z" transform="translate(-3.83 0)"/><path class="cls-7" d="M74.8,21.62c-.4.06-.64.69-.54,1.4s.53,1.24.93,1.18.65-.69.54-1.4S75.2,21.56,74.8,21.62Z" transform="translate(-3.83 0)"/><path class="cls-5" d="M86.67,297.38c-2.36.07-4.61.18-6.73.38l0,.26c-.06,1.47-.29,3.48-.54,5.39-.41,3.07-.9,5.9-.9,5.9s.71,3.76,10.26,2.41c.93-.13,1.93-.3,3-.54,12.43-2.65,16.17-12.57,16.17-12.57V296.5l-1.29.11C99.4,297.26,92.66,297.2,86.67,297.38Z" transform="translate(-3.83 0)"/><path class="cls-7" d="M82.31,20.1c-.41.06-.64.69-.54,1.4s.53,1.24.93,1.18.64-.69.54-1.4S82.71,20,82.31,20.1Z" transform="translate(-3.83 0)"/><path class="cls-2" d="M113.89,54.38A50.9,50.9,0,0,1,115.26,46h0l-1.63-1.13c-14.26-9.66-26.89-6.25-26.89-6.25a21.53,21.53,0,0,1,4.13,4.93c2.11,3.43,1.95,9,1.41,10.21s-1.7.68-3.64-1.35S84.17,48.27,84,48.14c.23.38,8.95,14.63,13.22,23.74s10.43,19.75,10.18,27.29h0c1.89.63,3.93,1.22,6.15,1.76a10,10,0,0,1,2.81-7.77h0A10.12,10.12,0,0,1,119.25,86a16.82,16.82,0,0,1-.26-1.87,22.17,22.17,0,0,0-1.51-6.18A52,52,0,0,1,113.89,54.38Z" transform="translate(-3.83 0)"/><path class="cls-5" d="M161.9,115.31c2.38-1.78,3.06-3.77,2.51-5a2.11,2.11,0,0,0-1.5-1.21,3,3,0,0,0-1.76.12,45.68,45.68,0,0,1-12.26,1.94c4.33-1,6.59-2.34,6-4.22s-2-1.69-10.13-2c-3.17-.13-6.18-.32-9-.55-5-.41-9.54-1-13.62-1.65h0c-3.1-.51-6-1.1-8.57-1.75-2.22-.54-4.26-1.13-6.15-1.76A58.2,58.2,0,0,1,101,96.65q-.84-.37-1.62-.78a40,40,0,0,1-3.75-2.18c-4.29,5.88-9,23.32-9,30.71,1.21.53,2.44,1,3.69,1.51q.81.32,1.62.6a110.57,110.57,0,0,0,17.63,4.54c1.79.32,3.55.59,5.28.84,5.34.75,10.37,1.17,14.65,1.41,2,.11,3.82.17,5.44.21,4.94.13,8,0,8,0,9.29-.51,13-2.53,14.64-4.9,5.81-2.17,6.67-6,4.53-7.27,3.29-2.31,3.22-5.19,1-5.93A2.87,2.87,0,0,0,161.9,115.31Z" transform="translate(-3.83 0)"/><path class="cls-4" d="M88.23,284.07c-.75,4.51-1.54,13.09-1.56,13.31,6-.18,12.73-.12,20-.77l1.29-.11c14-1.07,14.1,2.06,14.09,2.21,1.78-5.61,1.12-14.42.52-22.78,0,0-6.63-1.74-19.56,0a88.57,88.57,0,0,1-14,.61A58.92,58.92,0,0,1,88.23,284.07Z" transform="translate(-3.83 0)"/><path class="cls-4" d="M105.69,167.62h0a208.41,208.41,0,0,1-11,27.69h0c-.16.77-5.08,25.21-5.08,36.87,0,11.84.15,14-1.4,23.68-1.26,7.8,1.12,11.64.78,20.68a88.57,88.57,0,0,0,14-.61c12.93-1.74,19.56,0,19.56,0-.18-2.45-.35-4.86-.45-7.13-.45-10.06,1.61-16.36,4.65-28.52S128,208,132.17,184.65A195.33,195.33,0,0,0,134.71,162c-7.28-2.1-5.19-28.41-5.19-28.41v-.27c-4.28-.24-9.31-.66-14.65-1.41C114.88,131.89,109.61,158.09,105.69,167.62Z" transform="translate(-3.83 0)"/><path class="cls-4" d="M105.05,155.67c-.71,4.26-.62,7,1.11,10.44l-.47,1.51h0c3.92-9.53,9.19-35.73,9.19-35.73-1.73-.25-3.49-.52-5.28-.84Z" transform="translate(-3.83 0)"/><path class="cls-1" d="M108,296.5v2.11s1.71-1,5.87,3.06c6.48-1.38,8.22-3,8.22-3S122,295.43,108,296.5Z" transform="translate(-3.83 0)"/><path class="cls-2" d="M188.22,72.67c-1.93-5.47-9.95-2.35-18.23,2.77C181.43,82.4,189.58,76.54,188.22,72.67Zm-29.35-21c2.07-19.35-21.46-17.26-3.08,9.33.2.3.41.6.62.89A44.41,44.41,0,0,0,158.87,51.71ZM115.26,46a51.71,51.71,0,1,1,49.15,64.26,2.11,2.11,0,0,0-1.5-1.21,3,3,0,0,0-1.76.12,45.68,45.68,0,0,1-12.26,1.94c4.33-1,6.59-2.34,6-4.22s-2-1.69-10.13-2c-3.17-.13-6.18-.32-9-.55a29.73,29.73,0,0,1-14.2-12.12A19.23,19.23,0,0,1,119.25,86a16.82,16.82,0,0,1-.26-1.87,22.17,22.17,0,0,0-1.51-6.18,52,52,0,0,1-3.59-23.56A50.9,50.9,0,0,1,115.26,46Z" transform="translate(-3.83 0)"/><path class="cls-4" d="M129.52,133.57s-2.09,26.31,5.19,28.41c.91-15.59.26-28.47.26-28.47-1.62,0-3.45-.1-5.44-.21Z" transform="translate(-3.83 0)"/><path class="cls-2" d="M158.87,51.71c2.07-19.35-21.46-17.26-3.08,9.33.2.3.41.6.62.89A44.41,44.41,0,0,0,158.87,51.71Z" transform="translate(-3.83 0)"/><path class="cls-2" d="M170,75.44c11.44,7,19.59,1.1,18.23-2.77C186.29,67.2,178.27,70.32,170,75.44Z" transform="translate(-3.83 0)"/><path class="cls-3" d="M105.53,47.35a2.28,2.28,0,1,0-2.28,2.27A2.28,2.28,0,0,0,105.53,47.35Z" transform="translate(-3.83 0)"/><circle class="cls-3" cx="94.4" cy="61.93" r="2.27"/><path class="cls-3" d="M113.89,66.92a2.27,2.27,0,1,0-2.27,2.27A2.27,2.27,0,0,0,113.89,66.92Z" transform="translate(-3.83 0)"/><path class="cls-3" d="M114.3,87.81A2.27,2.27,0,1,0,112,90.08,2.27,2.27,0,0,0,114.3,87.81Z" transform="translate(-3.83 0)"/><path class="cls-3" d="M97.49,81.53a2.27,2.27,0,1,0-2.27,2.27A2.27,2.27,0,0,0,97.49,81.53Z" transform="translate(-3.83 0)"/><path class="cls-3" d="M79.52,64.2a2.27,2.27,0,1,0-2.27,2.28A2.27,2.27,0,0,0,79.52,64.2Z" transform="translate(-3.83 0)"/><path class="cls-3" d="M68.51,53.67a2.28,2.28,0,1,0-2.27,2.27A2.27,2.27,0,0,0,68.51,53.67Z" transform="translate(-3.83 0)"/><path class="cls-3" d="M63.94,68.19a2.27,2.27,0,1,0-2.27,2.27A2.27,2.27,0,0,0,63.94,68.19Z" transform="translate(-3.83 0)"/><circle class="cls-3" cx="71.14" cy="78.73" r="2.27"/><circle class="cls-3" cx="55.57" cy="86.78" r="2.27"/><circle class="cls-3" cx="68.87" cy="93.91" r="2.27"/><path class="cls-3" d="M90.59,90.38a2.27,2.27,0,1,0-2.27,2.28A2.27,2.27,0,0,0,90.59,90.38Z" transform="translate(-3.83 0)"/><circle class="cls-3" cx="71.9" cy="110.87" r="2.27"/><circle class="cls-3" cx="68.52" cy="121.78" r="2.27"/><path class="cls-3" d="M90.59,105a2.27,2.27,0,1,0-2.27,2.27A2.28,2.28,0,0,0,90.59,105Z" transform="translate(-3.83 0)"/><path class="cls-3" d="M80.39,124.5a11.23,11.23,0,0,0,1.77,4.07,2.28,2.28,0,0,0-1.35-4.11A3,3,0,0,0,80.39,124.5Z" transform="translate(-3.83 0)"/><ellipse class="cls-8" cx="198.78" cy="45.08" rx="10.85" ry="21.11" transform="translate(-5.89 79.83) rotate(-22.59)"/><path class="cls-7" d="M80,122.32a.54.54,0,0,0,.54-.54.54.54,0,0,0-.3-.49h0c-5.61-2.51-12.24-10.72-17.76-22-1.42-2.91-2.75-6-3.94-9.12a109.42,109.42,0,0,1-3.63-11.32A67.8,67.8,0,0,1,53.25,71a22.81,22.81,0,0,1,10.29-22.4,19.79,19.79,0,0,0,6-5.56.54.54,0,0,0-.15-.75.55.55,0,0,0-.75.15A18.63,18.63,0,0,1,63,47.65,23.9,23.9,0,0,0,52.18,71.1a67.47,67.47,0,0,0,1.63,8,109.34,109.34,0,0,0,3.67,11.44c1.2,3.16,2.54,6.26,4,9.21,5.61,11.45,12.44,19.85,18.27,22.47A.46.46,0,0,0,80,122.32Z" transform="translate(-3.83 0)"/><path class="cls-7" d="M67.17,29.92a.56.56,0,0,0,.48-.29.55.55,0,0,0-.23-.73l-4-2.06a.55.55,0,0,0-.73.24.53.53,0,0,0,.23.72l4,2.06A.54.54,0,0,0,67.17,29.92Z" transform="translate(-3.83 0)"/><path class="cls-7" d="M64.13,30.91a.53.53,0,0,0,.53-.48L64.93,28a.53.53,0,0,0-.47-.6.55.55,0,0,0-.6.48l-.27,2.42a.54.54,0,0,0,.48.6Z" transform="translate(-3.83 0)"/><path class="cls-7" d="M71.56,22.87a.53.53,0,0,0,.49-.33,3.36,3.36,0,0,1,3.17-2.29.53.53,0,0,0,.58-.49.54.54,0,0,0-.49-.58,4.43,4.43,0,0,0-4.25,2.94.54.54,0,0,0,.29.71A.52.52,0,0,0,71.56,22.87Z" transform="translate(-3.83 0)"/><path class="cls-7" d="M81.14,28.1a.55.55,0,0,0,.51-.36L82.57,25a.54.54,0,0,0-.56-.71,2,2,0,0,1-1.71-.78,2.66,2.66,0,0,1-.19-3.23,2.75,2.75,0,0,1,3-1.27,3.26,3.26,0,0,1,.74.29.54.54,0,0,0,.73-.22.53.53,0,0,0-.22-.73,3.93,3.93,0,0,0-1-.39,3.8,3.8,0,0,0-4.2,1.75,3.75,3.75,0,0,0,.29,4.5,3.25,3.25,0,0,0,1.84,1.12l-.7,2.09a.55.55,0,0,0,.35.69A.47.47,0,0,0,81.14,28.1Z" transform="translate(-3.83 0)"/><path class="cls-7" d="M79.75,31.39a6.37,6.37,0,0,0,2.77-.63.54.54,0,0,0-.51-1,5.21,5.21,0,0,1-4.24.07.53.53,0,0,0-.71.26.54.54,0,0,0,.26.72A5.63,5.63,0,0,0,79.75,31.39Z" transform="translate(-3.83 0)"/><path class="cls-7" d="M77,31.87a.54.54,0,0,0,.51-.36l.72-2a.53.53,0,0,0-.33-.68.54.54,0,0,0-.69.32l-.71,2a.54.54,0,0,0,.32.69A.57.57,0,0,0,77,31.87Z" transform="translate(-3.83 0)"/><path class="cls-7" d="M91.45,55a1,1,0,0,0,.24,0,1.43,1.43,0,0,0,1.08-1c.64-1.45.75-7.15-1.44-10.7a21.71,21.71,0,0,0-4.25-5.06c-1.1-.93-2-1.36-2.62-1.27a.54.54,0,0,0-.46.61.55.55,0,0,0,.61.46c.17,0,.75.16,1.78,1a20.77,20.77,0,0,1,4,4.79c2,3.24,1.85,8.58,1.36,9.71-.06.14-.16.31-.28.33s-.85-.14-2.47-1.83c-2-2-4.65-4.3-4.67-4.32a.55.55,0,0,0-.76.06.53.53,0,0,0,.06.76s2.66,2.24,4.59,4.24C89.7,54.31,90.66,55,91.45,55Z" transform="translate(-3.83 0)"/><path class="cls-7" d="M82.35,59.45a1.58,1.58,0,0,0,1-.28c.9-.69,1-2.48,1.2-5.84a43.76,43.76,0,0,0,0-5.24.54.54,0,0,0-1.08.08,46.44,46.44,0,0,1,0,5.1c-.11,2.27-.23,4.62-.79,5s-3.53-.26-7.83-5.07a25,25,0,0,1-5.2-10.65c-.29-1.5-.74-5.07,1.44-5.76a.54.54,0,0,0-.33-1c-2.15.68-2.92,3.17-2.17,7A25.87,25.87,0,0,0,74,54C77.6,58,80.69,59.45,82.35,59.45Z" transform="translate(-3.83 0)"/><path class="cls-7" d="M148.89,111.66l.12,0c3.43-.76,5.46-1.74,6.21-3a2.27,2.27,0,0,0,.21-1.87c-.6-2-2.11-2.07-9.34-2.36l-1.28,0c-3.11-.13-6.15-.31-9-.55-4.83-.39-9.4-.94-13.58-1.64a.54.54,0,0,0-.17,1.07c4.2.7,8.8,1.25,13.66,1.65,2.88.23,5.93.42,9.06.55l1.28,0c6.83.27,8,.35,8.35,1.59a1.22,1.22,0,0,1-.11,1c-.4.67-1.68,1.66-5.51,2.51a.53.53,0,0,0-.41.64A.54.54,0,0,0,148.89,111.66Z" transform="translate(-3.83 0)"/><path class="cls-7" d="M122.13,103.22a.54.54,0,0,0,.09-1.07c-3-.49-5.85-1.08-8.53-1.74-2.13-.53-4.19-1.12-6.11-1.75a56.39,56.39,0,0,1-6.37-2.5c-.53-.24-1.07-.5-1.59-.77a39.14,39.14,0,0,1-3.7-2.15.54.54,0,1,0-.6.9,42.67,42.67,0,0,0,3.8,2.21c.54.28,1.09.54,1.64.79a61.21,61.21,0,0,0,6.48,2.55c2,.64,4,1.23,6.19,1.77,2.71.67,5.61,1.26,8.61,1.75Z" transform="translate(-3.83 0)"/><path class="cls-7" d="M149.7,119.55h0c6.8-.53,10.54-2.36,12.48-3.81a.53.53,0,0,0,.11-.75.54.54,0,0,0-.76-.11c-1.82,1.36-5.38,3.09-11.91,3.59a.55.55,0,0,0-.5.58A.54.54,0,0,0,149.7,119.55Z" transform="translate(-3.83 0)"/><path class="cls-7" d="M161.9,115.85a.54.54,0,0,0,.32-.11c2.87-2.13,3.24-4.39,2.69-5.68a2.63,2.63,0,0,0-1.86-1.52,3.58,3.58,0,0,0-2.08.13,45.2,45.2,0,0,1-12.1,1.91c-2.77.1-4.74,0-4.76,0a.54.54,0,0,0-.05,1.08s2,.09,4.85,0a46.72,46.72,0,0,0,12.41-2,2.59,2.59,0,0,1,1.46-.11,1.58,1.58,0,0,1,1.13.9c.43,1-.12,2.75-2.33,4.4a.53.53,0,0,0-.11.75A.54.54,0,0,0,161.9,115.85Z" transform="translate(-3.83 0)"/><path class="cls-7" d="M149.41,124.93h0c7.14,0,11-1.73,13.05-3.14s3-3.15,2.79-4.72a2.68,2.68,0,0,0-1.88-2.17,3.36,3.36,0,0,0-1.53-.13.54.54,0,1,0,.13,1.07,2.39,2.39,0,0,1,1.05.08,1.62,1.62,0,0,1,1.16,1.31c.13.89-.42,2.32-2.34,3.67s-5.57,2.92-12.44,3a.52.52,0,0,0-.53.54A.53.53,0,0,0,149.41,124.93Z" transform="translate(-3.83 0)"/><path class="cls-7" d="M147.88,130.66h0a29.76,29.76,0,0,0,9.91-1.54c4.18-1.56,5.81-3.94,5.95-5.65a2.61,2.61,0,0,0-1.33-2.59.54.54,0,1,0-.54.93,1.56,1.56,0,0,1,.79,1.57c-.1,1.32-1.54,3.34-5.24,4.72a28.42,28.42,0,0,1-9.55,1.48.54.54,0,0,0-.54.54A.55.55,0,0,0,147.88,130.66Z" transform="translate(-3.83 0)"/><path class="cls-7" d="M139.15,134.11c2.41,0,3.83-.06,3.85-.06,8.2-.45,13-2.08,15.06-5.14a.54.54,0,0,0-.14-.75.55.55,0,0,0-.75.15c-1.84,2.71-6.5,4.24-14.22,4.66,0,0-3.11.12-8,0-1.77,0-3.59-.11-5.43-.21-5-.28-9.93-.75-14.6-1.41-1.81-.25-3.58-.53-5.26-.83A110,110,0,0,1,92.15,126l-1.6-.59c-1.24-.47-2.48-1-3.67-1.51a.54.54,0,1,0-.44,1c1.22.54,2.47,1,3.72,1.53l1.63.6a110.85,110.85,0,0,0,17.72,4.56c1.69.3,3.47.58,5.3.84,4.7.66,9.64,1.14,14.69,1.42,1.85.1,3.69.17,5.46.21C136.56,134.09,138,134.11,139.15,134.11Z" transform="translate(-3.83 0)"/><path class="cls-7" d="M87.93,128.3c.79,0,1.7-.66,2.84-2a.54.54,0,1,0-.83-.69c-1.48,1.8-2,1.66-2.11,1.64s-.63-.3-.63-2.81c0-7.33,4.62-24.59,8.85-30.39.91-1.24,1.53-1.59,1.8-1.5.59.18,1,2.08,1,3.37a.54.54,0,0,0,.54.53h0a.54.54,0,0,0,.53-.55c0-.65-.17-3.89-1.74-4.38-.88-.28-1.86.34-3,1.89-4.33,5.94-9.09,23.56-9.06,31,0,2.28.43,3.5,1.35,3.82A1.21,1.21,0,0,0,87.93,128.3Z" transform="translate(-3.83 0)"/><path class="cls-7" d="M101,97.19a.54.54,0,0,0,.54-.52c0-.27.12-6.57-2.83-8.31-1.23-.72-2.77-.56-4.56.49a17,17,0,0,0-2.54,1.91.54.54,0,1,0,.73.8,14.88,14.88,0,0,1,2.36-1.78c1.43-.83,2.59-1,3.46-.49,2,1.18,2.33,5.71,2.3,7.35a.53.53,0,0,0,.52.55Z" transform="translate(-3.83 0)"/><path class="cls-7" d="M94.42,89.86a.54.54,0,0,0,.37-.16.53.53,0,0,0,0-.76c-2.78-2.83-6.27-8-8.7-11.88-2.76-4.35-4.87-8.09-4.89-8.13a.55.55,0,0,0-.74-.21.54.54,0,0,0-.2.74s2.14,3.8,4.91,8.18c2.47,3.9,6,9.15,8.85,12A.56.56,0,0,0,94.42,89.86Z" transform="translate(-3.83 0)"/><path class="cls-7" d="M86.11,131.4c2.23,0,4.47-1.63,6.31-4.61a.54.54,0,1,0-.91-.57c-1.69,2.72-3.65,4.18-5.55,4.1-2.38-.1-4.35-2.55-5.15-6.39a17.15,17.15,0,0,1-.3-2.2,23.08,23.08,0,0,1,.07-4.22c1-9.4,5.07-19.62,5.11-19.72a.54.54,0,0,0-1-.4c0,.1-4.16,10.45-5.18,20a24.27,24.27,0,0,0-.08,4.41,17.58,17.58,0,0,0,.33,2.34c.9,4.35,3.25,7.13,6.15,7.24Z" transform="translate(-3.83 0)"/><path class="cls-7" d="M94.71,195.84a.53.53,0,0,0,.48-.3,208,208,0,0,0,11-27.75c.17-.53.33-1,.47-1.53a.56.56,0,0,0,0-.4c-1.74-3.44-1.71-6.2-1-10.1l4.54-24.61a.53.53,0,0,0-.43-.63.54.54,0,0,0-.63.43l-4.55,24.62c-.68,4.06-.71,7,1.06,10.58-.13.43-.27.86-.41,1.31a206.33,206.33,0,0,1-11,27.61.54.54,0,0,0,.25.72A.52.52,0,0,0,94.71,195.84Z" transform="translate(-3.83 0)"/><path class="cls-7" d="M57.14,300.88a.55.55,0,0,0,.5-.32c1.41-3.21,2.3-8.31,3.34-14.22.49-2.79,1-5.68,1.61-8.68,1.5-7.4,3.87-16.85,8.81-24.34a57.71,57.71,0,0,0,3.19-5.47c3-5.86,4.81-11.85,6.73-18.19,2.45-8.11,5.23-17.3,11.12-28.63,1-1.83,1.88-3.67,2.75-5.48a.54.54,0,1,0-1-.47c-.87,1.8-1.79,3.64-2.73,5.45-5.94,11.42-8.74,20.66-11.2,28.82-2,6.57-3.71,12.24-6.66,18a54.42,54.42,0,0,1-3.13,5.37c-5,7.65-7.45,17.23-9,24.73-.62,3-1.12,5.91-1.61,8.71a90,90,0,0,1-2.79,12.74c-.86-1.46-3-3.67-8.44-4.53a38.66,38.66,0,0,0-9.13-.17,102,102,0,0,1-18.83-.53l-.68-.06c-2.19-.21-4.15-.38-6-.46-3.18-.13-6.67,0-9.1,1.61-.18-2.45-.16-9.75,4.46-21.43,1.14-2.88,2.49-5.86,4-8.85,4.8-9.45,7.83-18.79,10.5-27C27.21,227.37,30,218.67,35.13,212c6.64-8.65,9.73-21.84,12.45-33.47,1.22-5.23,2.38-10.16,3.76-14.42.81-2.49,1.81-5.3,3-8.34.35-.93.72-1.89,1.09-2.84,4.13-10.51,9-20.93,12-25.94a.56.56,0,0,0-.18-.75.55.55,0,0,0-.74.18c-3.09,5.06-8,15.55-12.1,26.12-.38,1-.75,1.91-1.1,2.85-1.16,3.06-2.16,5.88-3,8.38-1.41,4.31-2.56,9.27-3.79,14.51-2.7,11.53-5.76,24.6-12.26,33.06-5.21,6.79-8.06,15.58-11.35,25.75-2.66,8.2-5.67,17.5-10.44,26.87-1.53,3-2.89,6-4.05,8.94C2.56,287.8,4,295.57,4,295.89a.53.53,0,0,0,.37.41.52.52,0,0,0,.53-.11c1.69-1.58,4.41-2.16,9.11-2,1.8.07,3.74.25,5.92.45l.67.07a103.3,103.3,0,0,0,19,.53,36.94,36.94,0,0,1,8.86.16c7.36,1.16,8.06,4.84,8.09,5a.54.54,0,0,0,.46.45Z" transform="translate(-3.83 0)"/><path class="cls-7" d="M67,127.27a.53.53,0,0,0,.46-.26,18,18,0,0,1,1.69-2.41,86.32,86.32,0,0,1,10.83,0,.54.54,0,0,0,.09-1.08,90.38,90.38,0,0,0-11.21,0,.56.56,0,0,0-.36.17,17.61,17.61,0,0,0-2,2.74.54.54,0,0,0,.17.74A.6.6,0,0,0,67,127.27Z" transform="translate(-3.83 0)"/><path class="cls-7" d="M115.26,46.55a.51.51,0,0,0,.44-.24.54.54,0,0,0-.13-.75l-.44-.3c-.39-.27-.79-.55-1.2-.82-14.3-9.69-27.21-6.36-27.33-6.33a.54.54,0,0,0,.28,1c.12,0,12.58-3.23,26.44,6.17l1.2.82.43.3A.52.52,0,0,0,115.26,46.55Z" transform="translate(-3.83 0)"/><path class="cls-7" d="M113.89,54.92a.59.59,0,0,0,.22-.05.53.53,0,0,0,.27-.71c-.72-1.64-2.19-4.83-2.21-4.87a.53.53,0,0,0-.71-.26.55.55,0,0,0-.27.72s1.48,3.21,2.21,4.85A.53.53,0,0,0,113.89,54.92Z" transform="translate(-3.83 0)"/><path class="cls-7" d="M66.58,127.13c-3.92-3.14-3.8-6.24-3.68-9.52a17.51,17.51,0,0,0-.59-6.33,25.77,25.77,0,0,1-1.1-5.43,22.77,22.77,0,0,1,.21-6.42.54.54,0,1,1,1.06.24,21.46,21.46,0,0,0-.2,6.08,25.67,25.67,0,0,0,1.06,5.2,18.81,18.81,0,0,1,.64,6.7c-.12,3.27-.22,5.85,3.3,8.66a.34.34,0,0,1,.09.08.61.61,0,0,1,.12.34.54.54,0,0,1-.54.54A.55.55,0,0,1,66.58,127.13Zm.36-.4h0Z" transform="translate(-3.83 0)"/><path class="cls-7" d="M81.94,47.89a3.7,3.7,0,0,0,3-1.51c1-1.31.66-3.32.28-5.45a16.36,16.36,0,0,1-.38-3.43,3,3,0,0,1,.78-2.08,6.67,6.67,0,0,0,1.18-1.56c2.38-4.24.31-9.4-2.09-15.38-.4-1-.81-2-1.22-3.11-.05-.14-.11-.27-.17-.4-2.76-6.6-8.81-6.38-11.28-6a.56.56,0,0,0-.45.62.54.54,0,0,0,.62.44C75,9.61,80,9.7,82.38,15.39l.15.36c.41,1.08.83,2.12,1.23,3.13,2.39,6,4.27,10.67,2.15,14.45a5.84,5.84,0,0,1-1,1.32,3.9,3.9,0,0,0-1.1,2.8,16.8,16.8,0,0,0,.39,3.67c.33,1.88.65,3.66-.07,4.6a2.64,2.64,0,0,1-2.3,1.09c-2.79-.08-6.79-3.54-9-6.83a6.73,6.73,0,0,1-1.32-3.54v-.16a7.07,7.07,0,0,0-.4-1.89.54.54,0,0,0-.59-.32c-4.22.75-6.49-1.21-7.46-2.45a.53.53,0,0,0-.76-.09.54.54,0,0,0-.09.76,8.41,8.41,0,0,0,8,2.92,6.6,6.6,0,0,1,.19,1.16v.13a7.77,7.77,0,0,0,1.51,4.09c2,2.88,6.24,7.19,9.91,7.3Z" transform="translate(-3.83 0)"/><path class="cls-7" d="M62.58,32.49a.57.57,0,0,0,.33-.11.53.53,0,0,0,.09-.76c-1.78-2.27-1.8-5-.62-6,2.29-1.88,4.77,1,4.87,1.15a.53.53,0,0,0,.41.19h0a.57.57,0,0,0,.42-.19A12.08,12.08,0,0,0,70.6,16.61a7.46,7.46,0,0,0,2.11-7.19A9.13,9.13,0,0,0,72,7.36a.54.54,0,0,0-1,.48h0a8.06,8.06,0,0,1,.58,1.8,6.4,6.4,0,0,1-2,6.38.52.52,0,0,0-.16.55,11.22,11.22,0,0,1-1.85,9c-1.3-1.27-3.73-2.62-5.93-.81-1.77,1.45-1.55,5,.46,7.51A.53.53,0,0,0,62.58,32.49Z" transform="translate(-3.83 0)"/><path class="cls-7" d="M62.3,32.41c-3.33-2-6.93-6.51-5.12-16.52a.54.54,0,0,1,1.07.19c-1.35,7.43.24,12.74,4.57,15.39a.54.54,0,1,1-.52.94Zm.28-.46Z" transform="translate(-3.83 0)"/><path class="cls-7" d="M82.88,15.72a.53.53,0,0,0,.51-.38C86.4,5.56,82.54,2.09,80,.89c-5.92-2.77-15.53,1.19-20.15,8.3a.53.53,0,0,0,.16.74.52.52,0,0,0,.74-.15C65.49,2.45,74.57-.44,79.51,1.87,83.4,3.68,84.41,8.35,82.36,15a.55.55,0,0,0,.36.67A.45.45,0,0,0,82.88,15.72Z" transform="translate(-3.83 0)"/><path class="cls-7" d="M57.71,16.53h.08a.54.54,0,0,0,.46-.61c-.59-3.88-.51-7.52.16-7.81a.48.48,0,0,1,.42,0,2.6,2.6,0,0,1,.93,1.56,10.44,10.44,0,0,1,.35,1.6.55.55,0,0,0,.6.47.54.54,0,0,0,.47-.61,10.92,10.92,0,0,0-.39-1.78A3.41,3.41,0,0,0,59.28,7.1a1.55,1.55,0,0,0-1.3,0c-1.82.78-1.17,6.52-.8,9A.54.54,0,0,0,57.71,16.53Z" transform="translate(-3.83 0)"/><path class="cls-7" d="M69.29,300.89a.48.48,0,0,0,.24-.06A30.27,30.27,0,0,1,80,298.3c1.84-.18,3.9-.29,6.7-.38,1.59-.05,3.2-.08,4.92-.11,4.79-.09,9.75-.18,15.13-.66L108,297c12.88-1,13.51,1.65,13.52,1.68a.53.53,0,0,0,.52.54.53.53,0,0,0,.55-.54,1.63,1.63,0,0,0-.6-1.19c-1.18-1.11-4.57-2.29-14.07-1.57l-1.3.11c-5.34.48-10.28.57-15,.66-1.72,0-3.34.06-4.93.11-2.82.09-4.91.21-6.77.38a32.8,32.8,0,0,0-10.14,2.32c-.28-3-1.14-14.15,1.23-22.65,1.41-5,1.64-10.83,1.85-15.95s.42-10.08,1.77-13.12a.54.54,0,0,0-.27-.71.53.53,0,0,0-.71.27c-1.44,3.23-1.65,8.23-1.87,13.52-.2,5.06-.44,10.79-1.81,15.7-2.8,10-1.2,23.68-1.18,23.81a.51.51,0,0,0,.28.41A.47.47,0,0,0,69.29,300.89Z" transform="translate(-3.83 0)"/><path class="cls-7" d="M122.07,299.25a.55.55,0,0,0,.52-.38c1.78-5.63,1.16-14.29.56-22.66l0-.31c-.17-2.39-.34-4.85-.45-7.13-.38-8.66,1.08-14.39,3.51-23.88.36-1.41.74-2.89,1.14-4.48,1.44-5.77,1.78-13.32,2.19-22.06.45-10,1-21.27,3.19-33.6A194.3,194.3,0,0,0,135.25,162c.9-15.44.27-28.39.26-28.52a.54.54,0,1,0-1.08,0c0,.13.64,13-.26,28.41a192.16,192.16,0,0,1-2.53,22.61c-2.24,12.4-2.75,23.74-3.21,33.74-.4,8.68-.74,16.18-2.16,21.85q-.6,2.37-1.14,4.47c-2.36,9.26-3.93,15.38-3.53,24.2.1,2.29.28,4.76.45,7.15l0,.32c.59,8.27,1.21,16.82-.51,22.26a.54.54,0,0,0,.35.67Z" transform="translate(-3.83 0)"/><path class="cls-7" d="M68.74,124.62h.16a.55.55,0,0,0,.48-.6.54.54,0,0,0-.59-.48c-.1,0-2.33.12-2.7-4.34a.54.54,0,1,0-1.07.09c.18,2.19.81,3.75,1.87,4.62A3,3,0,0,0,68.74,124.62Z" transform="translate(-3.83 0)"/><path class="cls-7" d="M105.68,168.19a.55.55,0,0,0,.49-.31l0-.07c3.89-9.49,9.16-35.55,9.21-35.82a.54.54,0,1,0-1-.21c-.06.26-5.31,26.26-9.17,35.64,0,0,0,0,0,.05a.55.55,0,0,0,.28.66A.53.53,0,0,0,105.68,168.19Z" transform="translate(-3.83 0)"/><path class="cls-7" d="M53.79,156.15h.05a23.15,23.15,0,0,0,9.74-3.69.54.54,0,0,0,.18-.74.53.53,0,0,0-.74-.18,22.25,22.25,0,0,1-9.27,3.54.54.54,0,0,0,0,1.07Z" transform="translate(-3.83 0)"/><path class="cls-7" d="M63.3,152.54a.57.57,0,0,0,.28-.08c11.28-6.87,22.66-21.13,22.78-21.27a.54.54,0,1,0-.85-.67c-.11.14-11.38,14.25-22.49,21a.53.53,0,0,0-.18.74A.55.55,0,0,0,63.3,152.54Z" transform="translate(-3.83 0)"/><path class="cls-7" d="M134.71,162.52a.54.54,0,0,0,.15-1.06c-5.62-1.62-5.37-20.65-4.8-27.85a.54.54,0,0,0-1.08-.08c-.08,1.09-2,26.77,5.58,29A.39.39,0,0,0,134.71,162.52Z" transform="translate(-3.83 0)"/><path class="cls-7" d="M62.06,278.09a.54.54,0,0,0,.48-.77c-.1-.21-2.69-5.17-19-4.7a151.83,151.83,0,0,1-16.57-.5c-2.74-.2-5.34-.38-7.9-.41a49,49,0,0,0-10.18.89.53.53,0,0,0-.43.63.55.55,0,0,0,.63.43,47.63,47.63,0,0,1,10-.87c2.53,0,5.1.21,7.83.41a153.8,153.8,0,0,0,16.68.5c15.49-.45,18,4.05,18,4.1A.56.56,0,0,0,62.06,278.09Z" transform="translate(-3.83 0)"/><path class="cls-7" d="M70.46,277.28h.12c3.41-.73,8-.56,13.22-.36,1.68.07,3.41.13,5.2.17a89.67,89.67,0,0,0,14.1-.61c12.68-1.71,19.28,0,19.35,0a.54.54,0,1,0,.27-1c-.27-.07-6.87-1.75-19.76,0A88.59,88.59,0,0,1,89,276c-1.79,0-3.52-.1-5.19-.17-5.33-.2-9.94-.37-13.49.38a.53.53,0,0,0-.41.64A.52.52,0,0,0,70.46,277.28Z" transform="translate(-3.83 0)"/><path class="cls-7" d="M86.67,297.92a.54.54,0,0,0,.54-.5v-.06c.19-2.09.88-9.22,1.54-13.2a57.75,57.75,0,0,0,.79-7.6,55.61,55.61,0,0,0-.62-10A32.89,32.89,0,0,1,88.76,256c1.43-8.85,1.42-11.39,1.41-20.85v-2.92c0-11.66,5-36.51,5.07-36.76v0a.31.31,0,0,0,0-.1.54.54,0,0,0-.54-.54.56.56,0,0,0-.52.39s0,.06,0,.1c-.21,1-5.08,25.36-5.08,36.94v2.92c0,9.39,0,11.91-1.4,20.68a34.38,34.38,0,0,0,.17,11,53.84,53.84,0,0,1,.61,9.79,57.37,57.37,0,0,1-.78,7.46c-.66,4-1.35,11.18-1.55,13.28v.12A.54.54,0,0,0,86.67,297.92Z" transform="translate(-3.83 0)"/><path class="cls-7" d="M14.05,294.23a.54.54,0,0,0,.54-.46,47.18,47.18,0,0,1,2.31-8.27,52.89,52.89,0,0,0,1.64-7.64c.29-1.68.62-3.57,1-5.51,1-4.92,2.67-12.08,6-17.29,3.2-4.95,5.19-10.24,7.3-15.83a100.53,100.53,0,0,1,7.36-16.39l.1-.15c6-10.21,6.37-11.78,8.57-22,.22-1.05.47-2.19.74-3.45,2.81-12.86,13-41.76,14.15-45l0,0a.57.57,0,0,0,0-.18.54.54,0,0,0-.54-.54.53.53,0,0,0-.52.39h0c-1.16,3.26-11.37,32.22-14.19,45.14-.27,1.26-.52,2.4-.75,3.46-2.21,10.3-2.5,11.62-8.44,21.67l-.09.16a101.51,101.51,0,0,0-7.45,16.55c-2.09,5.55-4.06,10.78-7.2,15.64-3.42,5.3-5.1,12.23-6.17,17.66-.39,1.95-.72,3.85-1,5.53a55.06,55.06,0,0,1-1.59,7.46,47.27,47.27,0,0,0-2.37,8.48.53.53,0,0,0,.45.61Z" transform="translate(-3.83 0)"/><path class="cls-7" d="M42.88,230.49a.52.52,0,0,0,.27-.07.53.53,0,0,0,.2-.73,34.34,34.34,0,0,1-3-7.43,41.15,41.15,0,0,1-1.17-5.4.54.54,0,0,0-1.07.14,42,42,0,0,0,1.2,5.56,35.24,35.24,0,0,0,3.07,7.66A.56.56,0,0,0,42.88,230.49Z" transform="translate(-3.83 0)"/><path class="cls-7" d="M12.44,333.56c-1.41-1.42-3-4-2.38-8.19A21.47,21.47,0,0,1,13,317.62a39.81,39.81,0,0,1,2.38-3.6c4.3-5.87,11.79-12.33,19.91-12.84a14.76,14.76,0,0,1,12,5l0,0a30.65,30.65,0,0,1,5.93,9.95c.52,1.34,1.09,2.63,1.64,3.89.73,1.65,1.41,3.2,1.92,4.68.36,1,.64,1.91.86,2.79.46,1.83.81,4.2-.56,6.27-1.51,2.26-4.85,3.74-10.22,4.55a71.55,71.55,0,0,1-10.13.64C27.44,339,16.4,337.57,12.44,333.56Zm22.9-31.3c-7.76.49-15.15,7-19.11,12.39a40.49,40.49,0,0,0-2.31,3.51,20.45,20.45,0,0,0-2.79,7.36c-.52,3.75.84,6,2.08,7.28,4.91,5,23.42,6,33.52,4.46,5.05-.75,8.15-2.09,9.48-4.08.89-1.34,1-3,.41-5.41-.21-.84-.48-1.68-.83-2.7-.49-1.43-1.17-3-1.88-4.59-.56-1.27-1.14-2.58-1.67-3.93a29.43,29.43,0,0,0-5.74-9.65l0,0A13.66,13.66,0,0,0,35.34,302.26Z" transform="translate(-3.83 0)"/><path class="cls-7" d="M45.78,331c7.83,0,10.75-1.62,11.8-3.05a.54.54,0,0,0-.12-.76.54.54,0,0,0-.75.12c-.66.9-3.29,2.95-13.42,2.56-2.08-.08-4.26-.14-6.37-.2-11.09-.28-22.56-.58-25.92-4.58a.54.54,0,0,0-.76-.07.55.55,0,0,0-.06.76c3.67,4.37,14.86,4.67,26.71,5,2.1.06,4.28.12,6.36.2C44.15,331,45,331,45.78,331Z" transform="translate(-3.83 0)"/><path class="cls-7" d="M46.89,307.07a.53.53,0,0,0,.54-.49c.24-1.92.58-4.24.81-5.81.47-3.09.9-5.75.9-5.78a.54.54,0,1,0-1.06-.17s-.44,2.69-.9,5.79c-.24,1.58-.58,3.92-.82,5.85a.17.17,0,0,0,0,.07A.54.54,0,0,0,46.89,307.07Z" transform="translate(-3.83 0)"/><path class="cls-7" d="M13.45,318.43a.53.53,0,0,0,.49-.31c2.54-5.43,4.4-12.87,5.51-18.15.72-3.41,1.08-5.72,1.08-5.74a.25.25,0,0,0,0-.08.54.54,0,0,0-1.08-.06c0,.23-.39,2.44-1.07,5.65C17.3,305,15.46,312.32,13,317.66a.55.55,0,0,0,.26.72A.64.64,0,0,0,13.45,318.43Z" transform="translate(-3.83 0)"/><path class="cls-7" d="M18.92,300.39a.54.54,0,0,0,0-1.07c-7.28-.43-11.74-1.68-14-3.91a.55.55,0,0,0-.38-.16.54.54,0,0,0-.54.54.55.55,0,0,0,.2.42c2.52,2.44,7.05,3.73,14.68,4.18Z" transform="translate(-3.83 0)"/><path class="cls-7" d="M50.59,301.27a36.64,36.64,0,0,0,6.67-.39.54.54,0,0,0,.41-.64.54.54,0,0,0-.64-.42s-2.52.51-9.31.33h0a.54.54,0,0,0-.54.52.55.55,0,0,0,.53.56C48.76,301.26,49.73,301.27,50.59,301.27Z" transform="translate(-3.83 0)"/><path class="cls-7" d="M101.67,338.52c-4.23-.61-9-.84-13.69-1-7.25-.34-13.51-.63-16-2.31-2.65-1.8-2.29-6.34-1.51-9.83a38.78,38.78,0,0,1,3.2-8.93,40.75,40.75,0,0,0,2-4.48c.78-2,1.24-3.28,2.93-3.15a.55.55,0,0,1,.49.43s.86,3.23,9.66,2c1-.14,2-.31,3-.54a22,22,0,0,0,15.78-12.23.51.51,0,0,1,.23-.27c.21-.13,2.18-1.11,6.51,3.13.56.55,1.17,1.19,1.8,1.91l1.24,1.43c4.81,5.5,8.95,10.26,14.54,13.75a39.52,39.52,0,0,0,5.54,2.5c4.12,1.65,9.26,3.72,12.33,6.62a7.61,7.61,0,0,1,2.79,6.5,4,4,0,0,1-1.68,2.71c-3.52,2.73-12.66,3.59-22.34,3.59A213.55,213.55,0,0,1,101.67,338.52Zm6.71-39.47a23.16,23.16,0,0,1-16.45,12.66c-1.06.23-2.09.41-3.06.55-8.09,1.14-10.19-1.34-10.71-2.4-.56.09-.83.65-1.51,2.44a43.44,43.44,0,0,1-2,4.6,37.86,37.86,0,0,0-3.11,8.66c-1,4.48-.61,7.57,1.06,8.7,2.23,1.52,8.64,1.82,15.43,2.13,4.68.22,9.51.44,13.8,1.06,10,1.45,41.24,3.86,48.29-1.61a2.88,2.88,0,0,0,1.26-2c.22-2-.58-3.84-2.45-5.6-2.93-2.76-8-4.78-12-6.4a40.67,40.67,0,0,1-5.72-2.59c-5.71-3.57-9.91-8.38-14.77-14l-1.24-1.42c-.61-.7-1.2-1.32-1.74-1.85-2.71-2.65-4.26-3-4.89-3Z" transform="translate(-3.83 0)"/><path class="cls-7" d="M136,331c11.39,0,13.46-2.47,13.67-2.77a.54.54,0,0,0-.14-.75.55.55,0,0,0-.74.12c-.06.07-2.32,2.56-14.59,2.3-12.74-.28-21.11-.48-32.16-1.25-2.5-.17-5.18-.29-8-.42l-1.88-.08c-8.77-.41-17.59-1-20.83-3.18a.53.53,0,0,0-.75.15.54.54,0,0,0,.14.75c3.48,2.34,12.1,2.92,21.39,3.35l1.88.09c2.83.13,5.51.25,8,.42,11.08.77,19.46,1,32.21,1.25Z" transform="translate(-3.83 0)"/><path class="cls-7" d="M92.12,329.25h0a.54.54,0,0,0,.52-.55,66.64,66.64,0,0,0-3.36-17.16.54.54,0,1,0-1,.36,65.47,65.47,0,0,1,3.29,16.83A.53.53,0,0,0,92.12,329.25Z" transform="translate(-3.83 0)"/><path class="cls-7" d="M108,299.15a.54.54,0,0,0,.54-.54V296.5a.54.54,0,0,0-1.08,0v2.11A.54.54,0,0,0,108,299.15Z" transform="translate(-3.83 0)"/><path class="cls-7" d="M78.53,309.85a.53.53,0,0,0,.53-.45s.5-2.87.9-5.92c.21-1.58.48-3.8.55-5.44a.54.54,0,0,0-.52-.56.53.53,0,0,0-.56.51c-.05,1.27-.24,3.12-.54,5.35-.4,3-.89,5.85-.89,5.88a.54.54,0,0,0,.44.62Z" transform="translate(-3.83 0)"/><path class="cls-7" d="M79.43,304a.54.54,0,0,0,0-1.08c-7.1-.65-9.16-2.06-9.76-2.85a.54.54,0,0,0-.86.66c1.25,1.64,4.79,2.74,10.52,3.27Z" transform="translate(-3.83 0)"/><path class="cls-7" d="M113.84,302.21H114c6.54-1.4,8.4-3,8.48-3.09a.55.55,0,0,0,0-.76.54.54,0,0,0-.76,0s-1.83,1.52-8,2.83a.54.54,0,0,0,.09,1.07Z" transform="translate(-3.83 0)"/><path class="cls-7" d="M165.39,110.82a52.23,52.23,0,1,0-50.65-64.94A52.3,52.3,0,0,0,117,78.14a21.46,21.46,0,0,1,1.47,6,19.29,19.29,0,0,0,.27,1.92,19.58,19.58,0,0,0,2.37,6.4,30.41,30.41,0,0,0,14.45,12.33.54.54,0,0,0,.71-.27.53.53,0,0,0-.28-.71,29.41,29.41,0,0,1-14-11.9,18.67,18.67,0,0,1-2.24-6c-.11-.59-.2-1.2-.26-1.82A22.38,22.38,0,0,0,118,77.74a51.61,51.61,0,0,1-3.55-23.32,51,51,0,0,1,9.32-25.52,51.11,51.11,0,0,1,92,20.68,51.08,51.08,0,0,1-51.32,60.15v1.08Z" transform="translate(-3.83 0)"/><path class="cls-7" d="M142.67,86.07a.5.5,0,0,0,.41-.19c.1-.1,9.23-10.92,13.84-23.77a.53.53,0,0,0-.33-.69.54.54,0,0,0-.69.33c-4.54,12.65-13.55,23.33-13.64,23.43a.56.56,0,0,0,.06.77A.57.57,0,0,0,142.67,86.07Z" transform="translate(-3.83 0)"/><path class="cls-7" d="M156,62.25c-.22-.3-.43-.59-.64-.9-7.9-11.44-8.21-18.62-5.86-21.53a4,4,0,0,1,4.85-1.11c3.08,1.28,5.85,5.81,5.07,13.06a44.72,44.72,0,0,1-2.48,10.34.55.55,0,0,1-.43.36h-.08A.53.53,0,0,1,156,62.25ZM150.32,40.5c-2,2.48-1.66,9.27,5.91,20.24l0,0a43.1,43.1,0,0,0,2.08-9.11c.72-6.69-1.7-10.82-4.42-11.94a3.45,3.45,0,0,0-1.37-.29A2.78,2.78,0,0,0,150.32,40.5Z" transform="translate(-3.83 0)"/><path class="cls-7" d="M170,76a.55.55,0,0,0,.46-.26.54.54,0,0,0-.18-.74c-4.59-2.8-9.1-7.29-13.42-13.36a.54.54,0,0,0-.88.62c4.4,6.2,9,10.79,13.74,13.66A.54.54,0,0,0,170,76Z" transform="translate(-3.83 0)"/><path class="cls-7" d="M169.71,75.9a.52.52,0,0,1-.26-.46.53.53,0,0,1,.25-.46c7.61-4.7,13.07-6.52,16.24-5.4a4.46,4.46,0,0,1,2.79,2.91c.53,1.52-.16,3.3-1.8,4.63a10.68,10.68,0,0,1-6.73,2.11A20.42,20.42,0,0,1,169.71,75.9Zm1.33-.47c7.05,4,12.57,3,15.21.85,1.28-1,1.84-2.35,1.46-3.43a3.38,3.38,0,0,0-2.13-2.25,5,5,0,0,0-1.71-.26C181,70.34,176.61,72.07,171,75.43Z" transform="translate(-3.83 0)"/><path class="cls-7" d="M149.11,91.68a.54.54,0,0,0,.36-.14,183.62,183.62,0,0,1,20.8-15.64.55.55,0,0,0,.17-.75.53.53,0,0,0-.74-.17,183.4,183.4,0,0,0-20.94,15.75.53.53,0,0,0,0,.76A.51.51,0,0,0,149.11,91.68Z" transform="translate(-3.83 0)"/><path class="cls-7" d="M107.41,99.71a.54.54,0,0,0,.54-.52c.21-6.23-3.77-14.32-7.62-22.14-.88-1.79-1.79-3.64-2.61-5.4-4-8.44-11.7-21.24-13.21-23.72l0-.07-.08-.1a.53.53,0,0,0-.39-.17.54.54,0,0,0-.54.54.6.6,0,0,0,.1.32l0,0c1.5,2.47,9.22,15.23,13.15,23.62.83,1.77,1.74,3.62,2.62,5.41,3.79,7.71,7.71,15.67,7.51,21.63a.54.54,0,0,0,.52.56Z" transform="translate(-3.83 0)"/><path class="cls-7" d="M85.64,77.89a.53.53,0,0,0,.5-.35c1.69-4.53-2.42-11.6-2.59-11.9a.55.55,0,0,0-.74-.19.54.54,0,0,0-.19.74c0,.07,4,6.92,2.51,11a.55.55,0,0,0,.32.7A.63.63,0,0,0,85.64,77.89Z" transform="translate(-3.83 0)"/><path class="cls-7" d="M122.13,103.22a.54.54,0,0,0,.39-.91l0,0c-3.56-2.93-5.43-6-5.55-9.12a9.64,9.64,0,0,1,2.69-6.76.54.54,0,0,0-.74-.78,10.54,10.54,0,0,0-3,7.58c.14,3.44,2.13,6.78,5.93,9.91A.53.53,0,0,0,122.13,103.22Z" transform="translate(-3.83 0)"/><path class="cls-7" d="M113.56,101.47h0a.53.53,0,0,0,.48-.6,9.57,9.57,0,0,1,2.65-7.32.54.54,0,0,0-.74-.78,10.5,10.5,0,0,0-3,8.22A.53.53,0,0,0,113.56,101.47Z" transform="translate(-3.83 0)"/></svg>