<?xml version="1.0" encoding="utf-8"?>
<!-- Generator: Adobe Illustrator 24.0.0, SVG Export Plug-In . SVG Version: 6.00 Build 0)  -->
<svg version="1.1" id="Layer_1" xmlns="http://www.w3.org/2000/svg" xmlns:xlink="http://www.w3.org/1999/xlink" x="0px" y="0px"
	 viewBox="0 0 3242.26 1279" style="enable-background:new 0 0 3242.26 1279;" xml:space="preserve">
<style type="text/css">
	.st0{fill:#3DB54A;}
	.st1{fill:#FFFFFF;}
	.st2{fill:#FCB017;}
</style>
<g>
	<g>
		<path class="st0" d="M1095.33,661.18c0-40.44,5.86-75.87,17.6-106.28c11.73-30.4,27.39-55.8,47-76.18
			c19.6-20.38,42.37-35.66,68.3-45.85c25.93-10.19,53.09-15.28,81.5-15.28c28.4,0,55.57,4.71,81.5,14.12
			c25.93,9.42,48.7,23.85,68.3,43.3c19.6,19.45,35.27,44.07,47,73.86c11.73,29.8,17.6,65.06,17.6,105.81
			c0,40.45-5.87,76.26-17.6,107.43c-11.74,31.19-27.4,57.42-47,78.72c-19.61,21.3-42.37,37.44-68.3,48.39
			c-25.93,10.96-53.1,16.44-81.5,16.44c-28.41,0-55.57-5.17-81.5-15.51c-25.93-10.34-48.7-25.7-68.3-46.08
			c-19.61-20.38-35.27-45.84-47-76.41C1101.19,737.13,1095.33,701.63,1095.33,661.18z M1380.12,656.55c0-24.7-0.85-48.54-2.55-71.55
			c-1.7-23-5.02-43.45-9.96-61.36c-4.94-17.9-12.04-32.18-21.3-42.83c-9.26-10.65-21.46-15.98-36.58-15.98
			c-15.13,0-27.32,5.64-36.58,16.9c-9.26,11.27-16.37,26.09-21.3,44.46c-4.94,18.37-8.18,39.29-9.73,62.75
			c-1.55,23.46-2.32,47.54-2.32,72.24c0,24.7,0.77,48.85,2.32,72.47c1.54,23.62,4.78,44.69,9.73,63.21
			c4.93,18.52,12.04,33.42,21.3,44.69c9.26,11.27,21.45,16.9,36.58,16.9c15.12,0,27.32-5.86,36.58-17.6
			c9.26-11.73,16.36-27.16,21.3-46.31c4.94-19.14,8.26-40.75,9.96-64.83C1379.27,705.64,1380.12,681.25,1380.12,656.55z"/>
		<path class="st0" d="M1753.83,857.53c0,4.02-0.69,8.8-2.08,14.36c-1.39,5.56-4.63,10.81-9.72,15.75
			c-5.09,4.94-12.5,9.19-22.23,12.73c-9.72,3.54-22.77,5.33-39.13,5.33c-16.37,0-29.17-1.93-38.44-5.79
			c-9.26-3.86-16.14-8.41-20.61-13.66c-4.48-5.25-7.26-10.65-8.34-16.21c-1.09-5.56-1.62-10.03-1.62-13.43V259.23
			c0-8.95-2.08-16.74-6.25-23.39c-4.17-6.63-11.19-9.96-21.07-9.96c-5.25,0-9.8,0.85-13.66,2.55c-3.86,1.7-7.95,4.25-12.27,7.64
			l-9.26-11.11c7.1-5.86,14.97-11.65,23.62-17.37c8.64-5.71,18.13-10.72,28.48-15.05c10.34-4.32,21.37-7.87,33.11-10.65
			c11.73-2.78,24.08-4.17,37.05-4.17c20.06,0,35.66,2.71,46.77,8.1c11.11,5.41,19.29,12.04,24.54,19.91
			c5.25,7.87,8.41,16.21,9.49,25.01c1.08,8.8,1.62,16.6,1.62,23.39V857.53z"/>
		<path class="st0" d="M2098.82,209.68c-8.65,0-16.83,1.85-24.54,5.56c-7.72,3.71-14.43,9.65-20.14,17.83
			c-5.72,8.18-10.27,18.6-13.66,31.26c-3.4,12.66-5.09,27.94-5.09,45.84v113.92h101.42v33.34h-101.42v364.91
			c0,41.99-5.48,80.73-16.44,116.23c-10.96,35.5-27.55,66.14-49.78,91.92c-22.23,25.77-50.01,45.92-83.35,60.43
			c-33.34,14.51-72.24,21.76-116.7,21.76c-15.75,0-30.87-1.32-45.38-3.94c-14.51-2.63-27.32-6.25-38.44-10.88
			c-11.11-4.63-19.98-10.12-26.63-16.44c-6.63-6.33-9.96-13.36-9.96-21.07c0-5.56,0.77-11.19,2.32-16.9
			c1.55-5.72,3.86-10.88,6.95-15.51c3.09-4.63,6.87-8.41,11.35-11.35c4.48-2.94,9.65-4.4,15.51-4.4c3.4,0,6.41,1.69,9.03,5.09
			c2.63,3.39,5.33,7.56,8.1,12.5c2.78,4.93,5.95,10.42,9.49,16.44c3.55,6.02,8.1,11.5,13.66,16.44c5.56,4.93,12.43,9.1,20.61,12.5
			c8.18,3.39,18.14,5.09,29.87,5.09c15.74,0,29.64-3.17,41.68-9.49c12.04-6.33,22.38-15.05,31.03-26.16
			c8.64-11.11,15.9-24.24,21.76-39.36c5.86-15.13,10.49-31.34,13.89-48.62c3.39-17.29,5.79-35.35,7.18-54.18
			c1.39-18.83,2.08-37.66,2.08-56.5V457.43h-85.21v-33.34h85.21V369.9c0-27.16,3.31-50.86,9.96-71.08
			c6.63-20.22,15.43-37.43,26.4-51.63c10.95-14.2,23.39-25.77,37.28-34.73c13.89-8.95,28.02-16.05,42.37-21.3
			c14.36-5.25,28.32-8.8,41.91-10.65c13.58-1.85,25.47-2.78,35.66-2.78c21.92,0,41.37,1.62,58.35,4.86
			c16.97,3.24,31.18,7.57,42.6,12.97c11.42,5.41,20.06,11.66,25.93,18.75c5.86,7.11,8.8,14.36,8.8,21.76
			c0,5.56-0.85,11.19-2.55,16.9c-1.7,5.72-4.09,10.96-7.18,15.75c-3.09,4.79-6.87,8.65-11.34,11.58c-4.48,2.94-9.49,4.4-15.05,4.4
			c-3.4,0-6.48-1.85-9.26-5.56c-2.78-3.7-5.72-8.33-8.8-13.89c-3.09-5.56-6.48-11.58-10.19-18.06c-3.71-6.48-8.26-12.5-13.66-18.06
			c-5.41-5.56-11.81-10.19-19.22-13.89C2117.81,211.53,2109.01,209.68,2098.82,209.68z"/>
		<path class="st0" d="M2116.42,424.08h85.21v-55.11c0-36.12,5.86-66.37,17.6-90.76c11.73-24.38,27.16-43.99,46.31-58.81
			c19.14-14.82,40.82-25.47,65.06-31.95c24.23-6.48,48.85-9.72,73.86-9.72c18.21,0,36.19,1.39,53.95,4.17
			c17.75,2.78,33.57,7.41,47.47,13.89c13.89,6.48,25.16,15.05,33.8,25.7c8.64,10.65,12.97,23.85,12.97,39.59
			c0,6.18-1.16,12.35-3.47,18.52c-2.32,6.18-5.56,11.81-9.72,16.9s-8.96,9.26-14.36,12.5c-5.41,3.24-11.35,4.86-17.83,4.86
			c-6.79,0-12.35-2.55-16.67-7.64c-4.33-5.09-8.34-11.5-12.04-19.22c-3.71-7.71-7.41-16.13-11.11-25.24
			c-3.71-9.1-8.03-17.52-12.97-25.24c-4.94-7.71-10.88-14.12-17.83-19.22s-15.67-7.64-26.16-7.64c-8.65,0-16.98,1.62-25.01,4.86
			c-8.03,3.24-15.13,8.88-21.3,16.9c-6.18,8.03-11.11,19.07-14.82,33.11c-3.7,14.05-5.56,31.88-5.56,53.49v106.05h188.01
			c20.06,0,35.66,2.71,46.77,8.1c11.11,5.41,19.29,12.04,24.54,19.91c5.25,7.87,8.41,16.29,9.49,25.24
			c1.08,8.96,1.62,16.83,1.62,23.62v358.42c0,4.02-0.69,8.73-2.08,14.12c-1.39,5.4-4.63,10.5-9.72,15.28
			c-5.09,4.79-12.5,8.8-22.23,12.04s-22.77,4.86-39.13,4.86c-16.37,0-29.17-1.93-38.44-5.79c-9.26-3.86-16.14-8.41-20.61-13.66
			c-4.48-5.25-7.26-10.65-8.34-16.21c-1.08-5.56-1.62-10.03-1.62-13.43V490.3c0-8.64-2.08-16.28-6.25-22.92
			c-4.17-6.64-11.04-9.96-20.61-9.96h-101.42v364.91c0,41.99-5.48,80.73-16.44,116.23c-10.96,35.5-27.55,66.14-49.78,91.92
			c-22.23,25.77-50.01,45.92-83.35,60.43c-33.34,14.51-72.24,21.76-116.7,21.76c-15.75,0-30.87-1.32-45.38-3.94
			c-14.51-2.63-27.32-6.25-38.44-10.88c-11.11-4.63-19.99-10.12-26.63-16.44c-6.64-6.33-9.96-13.36-9.96-21.07
			c0-5.56,0.77-11.19,2.32-16.9c1.55-5.72,3.86-10.88,6.95-15.51c3.09-4.63,6.87-8.41,11.35-11.35c4.48-2.94,9.65-4.4,15.51-4.4
			c3.4,0,6.41,1.69,9.03,5.09c2.63,3.39,5.33,7.56,8.1,12.5c2.78,4.93,5.95,10.42,9.49,16.44c3.55,6.02,8.1,11.5,13.66,16.44
			c5.56,4.93,12.43,9.1,20.61,12.5c8.18,3.39,18.14,5.09,29.87,5.09c15.74,0,29.64-3.17,41.68-9.49
			c12.04-6.33,22.38-15.05,31.03-26.16c8.64-11.11,15.9-24.24,21.76-39.36c5.86-15.13,10.49-31.34,13.89-48.62
			c3.39-17.29,5.79-35.35,7.18-54.18c1.39-18.83,2.08-37.66,2.08-56.5V457.43h-85.21V424.08z"/>
		<path class="st0" d="M2865.68,455.57c-10.5,0-20.22,1.24-29.17,3.7c-8.96,2.47-16.67,5.56-23.15,9.26
			c-6.48,3.71-11.58,7.8-15.28,12.27c-3.7,4.48-5.56,8.73-5.56,12.74c0,4.63,2.39,7.95,7.18,9.96c4.78,2.01,10.11,4.33,15.98,6.95
			c5.86,2.63,11.19,6.33,15.98,11.11c4.78,4.79,7.18,12.12,7.18,22c0,6.48-1.32,12.43-3.94,17.83c-2.63,5.41-6.18,10.19-10.65,14.36
			c-4.48,4.17-9.72,7.41-15.74,9.72c-6.02,2.32-12.27,3.47-18.75,3.47c-17.29,0-31.26-5.86-41.91-17.6
			c-10.65-11.73-15.98-27.32-15.98-46.77c0-18.83,4.93-34.96,14.82-48.39c9.88-13.43,22.76-24.46,38.67-33.11
			c15.9-8.64,33.88-15.05,53.95-19.22c20.06-4.17,40.13-6.25,60.2-6.25c24.08,0,47.07,2.63,69,7.87
			c21.92,5.25,41.29,13.59,58.12,25.01c16.82,11.42,30.25,25.93,40.29,43.53c10.03,17.6,15.05,38.9,15.05,63.91v261.64
			c0,2.78,0.15,5.87,0.46,9.26c0.3,3.4,1.08,6.48,2.32,9.26c1.23,2.78,3.08,5.09,5.56,6.95c2.47,1.85,6.02,2.78,10.65,2.78
			c5.56,0,10.72-2.08,15.51-6.25c4.78-4.17,9.03-8.41,12.74-12.73l11.58,9.72c-4.63,6.48-10.19,13.59-16.67,21.3
			c-6.48,7.72-14.36,14.98-23.62,21.76c-9.26,6.79-20.07,12.5-32.42,17.13c-12.35,4.63-26.4,6.95-42.14,6.95
			c-19.45,0-36.74-5.79-51.87-17.37c-15.13-11.58-25.01-29.41-29.64-53.49c-9.88,13.28-20.14,24.39-30.79,33.34
			c-10.65,8.96-21.53,16.21-32.65,21.77c-11.11,5.56-22.31,9.57-33.57,12.04c-11.27,2.47-22.62,3.7-34.04,3.7
			c-14.82,0-29.17-2.32-43.07-6.95c-13.89-4.63-26.32-11.96-37.28-22c-10.96-10.03-19.76-23.07-26.4-39.13
			c-6.64-16.05-9.96-35.66-9.96-58.81c0-28.09,5.56-51.09,16.67-69c11.11-17.9,25.7-32.95,43.76-45.15
			c18.06-12.19,38.59-22.61,61.59-31.26c23-8.64,46.54-17.75,70.62-27.32c17.9-7.1,30.95-17.67,39.13-31.72
			c8.18-14.04,12.27-28.48,12.27-43.3c0-22.84-6.71-41.13-20.14-54.88C2907.13,462.45,2888.84,455.57,2865.68,455.57z
			 M2939.31,658.4c0-7.71-2.47-13.58-7.41-17.6c-4.94-4.01-11.27-6.02-18.99-6.02c-10.81,0-21.07,2.47-30.79,7.41
			c-9.72,4.94-18.29,12.2-25.7,21.76c-7.41,9.57-13.28,21.38-17.6,35.43c-4.33,14.05-6.48,30.33-6.48,48.85
			c0,17.91,1.31,32.73,3.94,44.46c2.62,11.74,6.17,21.07,10.65,28.02c4.47,6.95,9.64,11.81,15.51,14.59
			c5.86,2.78,12.04,4.17,18.52,4.17c8.02,0,15.59-2.08,22.69-6.25c7.1-4.17,13.27-9.49,18.52-15.98c5.25-6.48,9.41-13.73,12.5-21.76
			c3.08-8.02,4.63-16.05,4.63-24.08V658.4z"/>
	</g>
	<g>
		<path class="st0" d="M829,415.44c-12.78-5.75-23.62-15.57-30.63-28.31c-1.77-3.22-2.4-6.75-2.02-10.13
			c-2.62,1.62-5.7,2.54-8.94,2.54c-1.09,0-2.18-0.11-3.25-0.32c-13.7-2.67-26.38-9.11-36.69-18.62
			c-19.32-17.66-27.91-43.53-22.95-69.2c0.09-0.53,0.2-1.05,0.34-1.57c1.6-7.67,3.75-15.52,6.42-23.43
			c-3.12-0.12-6.36-0.18-9.71-0.18c-11.74,0-22.92,1.24-33.57,3.7c-10.66,2.48-19.84,6.26-27.56,11.35
			c-7.72,5.09-13.35,11.42-16.9,18.99c-3.55,7.56-3.78,16.43-0.69,26.62l44.91,147.26c-5.25,22.23-11.19,44.85-17.82,67.84
			c-6.65,23-13.51,45.7-20.61,68.07c-6.12,19.26-12.34,38-18.67,56.23c20.82-9.79,41.77-20.48,62.67-32.01
			c7.33-23.16,14.59-46.59,21.76-70.29l14.96,49.17l132.29-90.38L829,415.44z M1108.94,229.4c-0.47-4.78-1.16-9.72-2.09-14.81
			c-0.92-5.1-2.16-9.96-3.7-14.59c-3.4-8.95-9.42-15.28-18.06-18.99c-8.65-3.7-19.15-5.55-31.49-5.55c-5.56,0-11.43,0.69-17.6,2.08
			c-6.18,1.39-11.89,3.63-17.13,6.71c-5.26,3.09-9.58,6.88-12.97,11.35c-3.4,4.48-5.09,9.95-5.09,16.44
			c0,4.94,1.39,10.35,4.16,16.21c2.78,5.86,5.94,13.35,9.5,22.46c3.54,9.1,6.71,20.45,9.49,34.03c2.78,13.59,4.17,30.56,4.17,50.94
			c0,13.84-0.91,28.77-2.73,44.81c20.29-19.88,40.65-40.62,60.84-62.02c0.21-0.23,0.43-0.46,0.65-0.69L1071.73,305
			c-5.2-4.39-7.72-11.03-6.72-17.76c1-6.74,5.32-12.37,11.58-15.06l32.94-14.19c0.07-1.81,0.1-3.54,0.1-5.2v-9.96
			C1109.63,238.67,1109.4,234.19,1108.94,229.4z M1096.53,291.9l8.15,6.86c0.67-3.88,1.28-7.59,1.82-11.15L1096.53,291.9z
			 M961.26,637.33c-3.76,11.36-7.56,22.57-11.39,33.62c-7.72,22.23-15.13,42.91-22.23,62.05l-18.42-59.28L790.59,753.5
			c-0.53,0.37-1.08,0.72-1.64,1.04c-4.52,2.57-9.04,5.1-13.57,7.6l31.86,104.69c1.23,3.4,2.93,7.26,5.09,11.58
			c2.16,4.33,5.56,8.34,10.19,12.04c4.63,3.7,10.88,6.79,18.76,9.26c7.87,2.47,17.98,3.71,30.33,3.71c6.78,0,13.35-0.32,19.68-0.93
			c6.32-0.62,12.19-2.08,17.59-4.4c5.4-2.31,10.19-5.63,14.36-9.95c4.17-4.33,7.48-10.19,9.96-17.6c3.7-9.88,9.03-24.93,15.97-45.15
			c6.95-20.22,14.97-43.68,24.08-70.39c9.11-26.7,18.76-55.8,28.95-87.29c9.34-28.88,18.61-58.33,27.83-88.38
			C1007.46,599.5,984.42,618.94,961.26,637.33z M811.23,358.21l-1.68-5.41c-0.16,1.01-0.34,2.01-0.45,2.99
			c-0.28,1.68-0.56,3.28-0.8,4.73c-0.14,0.84-0.32,1.6-0.47,2.3c0.52-0.28,1.08-0.57,1.69-0.94c0.79-0.39,1.61-0.81,2.46-1.24
			L811.23,358.21z M818.99,383.2l-1.35-4.36l-0.79-2.54c-0.42,0.32-0.82,0.63-1.19,0.91c-0.89,0.65-1.69,1.26-2.39,1.73
			c2.09,3.8,4.66,7.25,7.59,10.29L818.99,383.2z M490.49,358.37c-5.55-17.9-11.89-36.04-18.98-54.41
			c-7.11-18.36-16.75-34.96-28.95-49.78c-12.2-14.82-28.17-26.93-47.93-36.35c-19.76-9.42-45.07-14.13-75.94-14.13
			c-27.48,0-54.18,3.94-80.11,11.81c-25.94,7.87-49.09,19.84-69.46,35.89c-20.38,16.06-36.75,36.05-49.09,59.97
			c-12.35,23.93-18.52,51.94-18.52,84.05c0,13.59,2.08,26.32,6.25,38.2c4.16,11.89,10.18,22.31,18.06,31.26
			c7.87,8.96,17.59,16.06,29.17,21.3c11.58,5.25,24.78,7.87,39.59,7.87c9.57,0,19.22-1.46,28.95-4.4
			c9.72-2.93,18.36-7.4,25.93-13.43c7.56-6.01,13.73-13.5,18.52-22.45c4.78-8.95,7.18-19.61,7.18-31.96c0-8.64-1.24-15.97-3.7-21.99
			c-2.48-6.02-5.49-10.89-9.03-14.59c-3.56-3.7-7.41-6.4-11.58-8.1s-8.11-2.55-11.81-2.55c-4.63,0-8.73,1.32-12.27,3.94
			c-3.55,2.62-7.34,5.4-11.35,8.33c-4.01,2.94-8.49,5.72-13.43,8.34s-11.27,3.93-18.98,3.93c-1.55,0-4.1-0.38-7.64-1.15
			c-3.56-0.77-7.03-2.62-10.42-5.56c-3.4-2.93-6.41-7.33-9.03-13.2c-2.63-5.86-3.94-13.73-3.94-23.62
			c0-16.05,3.55-30.17,10.65-42.37c7.1-12.19,15.82-22.38,26.17-30.56c10.34-8.18,21.22-14.36,32.64-18.52
			c11.42-4.17,21.46-6.26,30.1-6.26c10.49,0,19.37,1.09,26.63,3.24c7.25,2.17,13.43,5.56,18.52,10.19
			c5.1,4.63,9.42,10.58,12.97,17.83c3.55,7.26,6.87,16.14,9.96,26.63l124,414.52c11.38-2.35,23.34-5.13,35.86-8.4
			c0.22-0.06,0.45-0.13,0.68-0.19c20.53-5.38,41.62-11.87,62.68-19.29c15.82-5.57,31.89-11.75,48-18.48L490.49,358.37z
			 M581.42,845.8c-0.25,0.07-0.45,0.13-0.64,0.19l-56.48,15.59c-0.33,0.1-0.65,0.19-0.97,0.27c-12.52,3-25.06,5.72-37.6,8.15
			c1.08,2.58,2.44,5.38,4.07,8.41c2.31,4.33,5.79,8.34,10.42,12.04s10.88,6.79,18.75,9.26c7.87,2.47,17.98,3.71,30.33,3.71
			c6.49,0,12.81-0.32,18.99-0.93c6.17-0.62,11.96-2.08,17.37-4.4c5.39-2.31,10.34-5.63,14.81-9.95c4.48-4.33,8.26-10.19,11.35-17.6
			c3.69-8.8,8.81-22.24,15.38-40.31C611.92,835.86,596.65,841.05,581.42,845.8z"/>
		<path class="st1" d="M798.16,316.13c-0.31,2.22-0.66,4.39-0.92,6.52c-0.18,1.13-0.33,2.3-0.47,3.38c-0.23,1.12-0.42,2.25-0.6,3.32
			c-0.43,2.16-0.85,4.27-1.22,6.29c-0.43,2.01-0.94,3.98-1.36,5.85c-0.47,1.83-0.85,3.66-1.31,5.3c-0.47,1.64-0.94,3.19-1.36,4.69
			c-0.38,1.4-0.8,2.76-1.18,4.03c-0.37,1.31-0.84,2.53-1.22,3.65c-0.42,1.31-0.79,2.39-1.12,3.38c-10.78-2.11-20.57-7.22-28.4-14.44
			c-14.15-12.93-21.94-32.71-17.72-53.85c0-0.05,0-0.09,0.05-0.14c1.65-8.05,4.04-16.82,7.45-26.28c0.04,0,0.07,0.01,0.11,0.01
			c8.03,1.09,15.05,3.01,21.07,5.79c6.02,2.78,11.04,6.71,15.05,11.81c4.01,5.09,7.25,11.65,9.73,19.68L798.16,316.13z"/>
		<path class="st0" d="M1261.6,220.77l-42.11,174.7l-28.88-24.29l-8.3,10.59c-3.11,3.97-8.34,10.52-15.58,19.25
			c-14.41,17.43-38.42,45.29-70.98,79c-16.58,17.15-33.64,34.02-50.95,50.39c-6.99,6.62-14.02,13.15-21.08,19.58
			c-15.72,14.33-31.71,28.31-47.85,41.85c-13.98,11.73-28.08,23.13-42.21,34.11l-32.48,21.85l-125.26,84.24l-0.07,0.04
			c-2.74,1.56-5.47,3.1-8.21,4.62c-42.73,23.84-85.88,44.35-128.95,61.32c-21.68,8.55-43.33,16.2-64.9,22.92L517,836.63
			c-13,3.12-26.03,5.92-39.06,8.38c-44.3,8.43-88.65,13.09-132.31,13.92c-1.63,0.03-3.33,0.05-5.06,0.05
			c-11.53,0-29.9-0.76-52.12-4.39l-0.63-0.27l-1.41-0.24c-25.04-4.33-47.71-11.13-67.37-20.23c-40.15-18.59-65.03-45.5-73.96-79.98
			c-11.65-45.03,3.85-102.42,46.11-171.04c-7.49,19.14-12.15,37.18-13.92,53.92c-4.16,39.44,7.57,71.09,34.85,94.06
			c17.78,14.98,42.39,26.33,73.16,33.72l1.1,0.62l2.13,0.39c1.69,0.3,17.35,2.99,44.92,2.99c26.39,0,66.55-2.51,117.68-13.24
			c11.23-2.36,22.99-5.11,35.25-8.32l0.61-0.17c21.14-5.56,42.84-12.24,64.51-19.87c15.51-5.46,31.26-11.49,47.06-18.03
			c6.67-2.76,13.34-5.61,20.02-8.54c1.71-0.76,3.43-1.52,5.14-2.28c19.32-8.64,38.79-18.07,58.25-28.22
			c18.66-9.72,37.33-20.1,55.9-31.09c2.77-1.64,5.54-3.3,8.31-4.97c29.78-17.9,60.05-37.83,89.94-59.21
			c11.93-8.49,23.51-17.03,34.46-25.37c0.91-0.7,1.82-1.39,2.72-2.08c45-34.24,90.58-72.85,135.45-114.75
			c3.48-3.24,6.96-6.51,10.44-9.82c25.13-23.79,50.48-49.05,75.6-75.33c3.45-3.61,6.89-7.24,10.33-10.88
			c3.29-3.45,6.55-6.95,9.68-10.3l9.8-10.55l-19.9-16.75c0.67-3.88,1.28-7.59,1.82-11.15L1261.6,220.77z"/>
		<path class="st0" d="M1106.5,287.61c-0.54,3.56-1.15,7.27-1.82,11.15l-8.15-6.86L1106.5,287.61z"/>
		<path class="st2" d="M974.79,349.37c-0.96,1.55-2.5,2.47-4.13,2.47c-0.64,0-1.3-0.14-1.95-0.45c-0.16-0.02-0.42-0.04-0.79-0.04
			c-3.03,0-14.98,1.4-41.43,19.31c-7.07,4.78-14.79,10.49-22.93,16.97c-7.51,5.95-14.9,10.95-21.97,14.86
			c-8.02,4.47-16.67,6.75-25.7,6.75c-19.53,0-37.54-10.69-47-27.89c-1.25-2.28-0.55-5.13,1.61-6.57c0.46-0.31,0.96-0.68,1.51-1.09
			l0.69-0.51l0.62-0.48c0.64-0.48,1.34-1.01,2.06-1.52c0.38-0.26,0.73-0.49,1.1-0.73c0.55-0.36,1.13-0.74,1.72-1.18
			c0.07-0.05,0.14-0.09,0.21-0.14c1.06-0.69,2.16-1.42,3.3-2.2c0.85-0.58,1.76-1.12,2.63-1.64c0.47-0.28,0.95-0.56,1.43-0.86
			c0.04-0.02,0.08-0.05,0.11-0.07c0.52-0.3,1.04-0.62,1.58-0.94c0.89-0.54,1.81-1.09,2.76-1.63c0.79-0.45,1.6-0.89,2.42-1.34
			c0.76-0.41,1.52-0.82,2.28-1.25c0.04-0.02,0.88-0.47,0.88-0.47c0.59-0.31,1.2-0.64,1.81-0.95c0,0,2.59-1.29,2.63-1.31
			c0.75-0.35,1.49-0.72,2.23-1.08c1.04-0.51,2.08-1.02,3.15-1.52c0.06-0.02,0.11-0.05,0.17-0.07c0.93-0.39,1.86-0.79,2.8-1.19
			c2.85-1.22,5.78-2.48,8.92-3.57c0.41-0.17,0.83-0.32,1.25-0.48c-0.4,0.1-0.81,0.2-1.2,0.3c-0.06,0.02-0.12,0.03-0.18,0.04
			c-3.18,0.71-6.33,1.63-9.37,2.52c-1,0.29-1.99,0.58-2.97,0.86c-1.24,0.39-2.43,0.8-3.62,1.21c-0.72,0.25-1.44,0.49-2.16,0.73
			c-0.27,0.1-0.54,0.21-0.78,0.31c-0.16,0.07-0.32,0.13-0.49,0.18c-0.5,0.15-1.01,0.3-1.51,0.5c-0.04,0.01-0.09,0.03-0.13,0.05
			c-0.65,0.22-1.27,0.47-1.9,0.73l-0.67,0.27l-1.96,0.76c-1.13,0.44-2.24,0.87-3.33,1.28c-0.63,0.28-1.26,0.57-1.87,0.85
			c-0.98,0.46-1.94,0.9-2.87,1.29c-1.14,0.54-2.23,1.03-3.3,1.51l-1.09,0.49c-1.37,0.73-2.69,1.41-3.97,2.05
			c-1.18,0.63-2.36,1.22-3.45,1.77c-0.47,0.28-0.91,0.52-1.33,0.74l-0.38,0.21c-0.75,0.41-1.57,0.61-2.39,0.61
			c-1.05,0-2.09-0.33-2.97-0.98c-1.57-1.15-2.32-3.11-1.94-5.01c0.06-0.27,0.12-0.54,0.18-0.82c0.09-0.41,0.18-0.84,0.26-1.31
			c0.14-0.87,0.3-1.83,0.48-2.83l0.3-1.79c0.1-0.82,0.23-1.66,0.37-2.5c0.07-0.42,0.13-0.85,0.2-1.27l0.11-0.68
			c0.06-0.33,0.12-0.67,0.17-1.04c0.01-0.03,0.01-0.07,0.02-0.1c0.17-0.97,0.29-2.04,0.41-3.17c0.09-0.8,0.18-1.61,0.29-2.44
			c0.09-0.89,0.19-1.8,0.29-2.73c0.12-1.13,0.25-2.28,0.35-3.45c0.07-1,0.14-2.02,0.21-3.04c0.09-1.25,0.18-2.5,0.26-3.77
			c0.05-0.67,0.08-1.24,0.11-1.8c0.04-0.6,0.07-1.2,0.12-1.8c0.04-1.09,0.04-2.2,0.04-3.37c0.02-0.93,0.04-1.77,0.06-2.62
			c0.04-1.62,0.08-3.25,0.08-4.91l-0.07-2.59c-0.1-4.2-0.2-8.54-0.61-12.79c-0.01-0.07-0.01-0.14-0.02-0.21
			c-0.18-3.55-0.63-7.12-1.1-10.9c-0.2-1.6-0.41-3.21-0.59-4.83c-0.13-0.74-0.26-1.48-0.38-2.22c0.03,0.73,0.07,1.45,0.11,2.18
			c0.01,0.1,0.01,0.21,0.01,0.32c-0.02,1.48-0.02,2.95-0.01,4.42c0,3.66,0.01,7.44-0.23,11.18c-0.11,3.63-0.43,7.15-0.74,10.55
			c-0.14,1.52-0.28,3.02-0.4,4.51c-0.01,0.1-0.02,0.2-0.03,0.3c-0.12,0.89-0.25,1.78-0.38,2.67c-0.21,1.44-0.42,2.87-0.59,4.28
			c-0.01,0.07-0.02,0.15-0.04,0.22c-0.14,0.88-0.26,1.79-0.37,2.66l-0.07,0.53c-0.01,0.13-0.04,0.25-0.06,0.38
			c-0.2,0.95-0.36,1.9-0.52,2.82c0,0-0.07,0.41-0.08,0.44l-0.29,1.5c-0.32,1.62-0.63,3.21-0.92,4.74c0,0.04-0.01,0.07-0.02,0.11
			c-0.26,1.24-0.55,2.46-0.84,3.66c-0.19,0.77-0.37,1.53-0.53,2.27c-0.02,0.05-0.03,0.1-0.04,0.15c-0.18,0.71-0.35,1.42-0.52,2.12
			c-0.25,1.09-0.52,2.22-0.83,3.3c-0.21,0.75-0.42,1.47-0.63,2.18c-0.25,0.85-0.49,1.68-0.72,2.49c-0.29,1.07-0.62,2.18-0.93,3.24
			l-0.26,0.86c-0.28,0.98-0.61,1.92-0.91,2.76c-0.12,0.36-0.25,0.71-0.36,1.05c-0.28,0.86-0.55,1.66-0.8,2.4l-0.32,0.98
			c-0.7,2.07-2.63,3.42-4.75,3.42c-0.31,0-0.64-0.03-0.96-0.1c-11.49-2.24-22.15-7.66-30.83-15.66
			c-16.31-14.91-23.51-36.69-19.27-58.3c0.04-0.27,0.1-0.54,0.18-0.8c2.01-9.7,4.95-19.73,8.75-29.81
			c26.96-71.31,17.4-88.68,17.3-88.85c-1.22-1.88-1.03-4.34,0.46-6.03c0.97-1.09,2.34-1.67,3.74-1.67c0.75,0,1.5,0.16,2.21,0.51
			c0.38,0.18,0.74,0.41,1.17,0.74c5.62,4.01,53.35,38.96,77.46,83.43c0.08,0.14,0.15,0.29,0.21,0.44
			c8.42,15.62,13.08,30.88,13.84,45.36c0.08,1.09,0.12,2.2,0.14,3.32c1.2-0.06,2.41-0.09,3.63-0.09h0.26
			c13.45,0,28.83,3.17,45.73,9.43c0.13,0.03,0.26,0.07,0.38,0.12c8.62,3.22,17.69,7.29,26.95,12.1
			c19.97,10.32,33.86,20.46,34.44,20.89C975.29,344.12,976.16,347.15,974.79,349.37z"/>
		<path class="st2" d="M879.24,286.11c9.18,6.69,20.74,7.75,30.56,3.83c5.39-2.14,10.27-5.78,13.94-10.81
			c10.36-14.21,7.25-34.14-6.97-44.51c-14.22-10.36-34.14-7.23-44.5,6.98c-3.67,5.04-5.65,10.78-6.03,16.57
			C865.52,268.73,870.06,279.41,879.24,286.11z"/>
	</g>
</g>
</svg>
