<svg id="Layer_1" data-name="Layer 1" xmlns="http://www.w3.org/2000/svg" viewBox="0 0 515.57 511.46"><defs><style>.cls-1{fill:#fff;}.cls-2{fill:#3fb54a;}.cls-3{fill:#4a263f;}.cls-4{fill:#fcb01a;}.cls-5{fill:#64435d;}.cls-6{fill:#dfe3f3;}</style></defs><path class="cls-1" d="M136.69,179.38a53.17,53.17,0,0,0,53.11-53.1A53.1,53.1,0,1,0,88.33,148.21,53.22,53.22,0,0,0,136.69,179.38Z" transform="translate(-2.72 -4.77)"/><path class="cls-1" d="M490.68,434.9A17.17,17.17,0,0,0,465,423.39h0l-.06,0-.08,0h-.06l-.08,0-.06,0a.1.1,0,0,1-.05,0l-.05-.05,0,0v0l0-.07s0-.05,0-.07v-9.18H413.13v45A14.84,14.84,0,0,0,428,473.72H449.6a14.84,14.84,0,0,0,14.82-14.82v-5.81s0,0,0-.07l0-.07v0l0,0,.05-.06.06,0,.05,0,.08,0h.13l.07,0h0a17.24,17.24,0,0,0,17.83-.09h0a17.17,17.17,0,0,0,7.87-17.82ZM477.73,450a12.3,12.3,0,0,1-3.9.63,12.5,12.5,0,0,1-8.69-3.53v2a.36.36,0,1,1-.72,0V427.73a.36.36,0,0,1,.72,0v1.37l0,0a12.39,12.39,0,0,1,8.66-3.49,12.56,12.56,0,0,1,11.68,8.07,12.32,12.32,0,0,1,.82,4.44A12.49,12.49,0,0,1,477.73,450Z" transform="translate(-2.72 -4.77)"/><path class="cls-1" d="M418.82,363a15.85,15.85,0,0,0,11-7,21.65,21.65,0,0,0,3.46-13.69c-.61-6.55-4-12.22-7.77-12.92a3.83,3.83,0,0,0-2.12.21c-1.79.73-2.65,2.26-2.95,5.25a20.05,20.05,0,0,1,4.12,10.75C425.06,351.26,423.79,358.59,418.82,363Z" transform="translate(-2.72 -4.77)"/><path class="cls-1" d="M426.7,322a4.44,4.44,0,0,1,.84-.54,7.43,7.43,0,0,1-1.48-3.25c-1.32.54-5.4,2.38-7.86,5.29a27.23,27.23,0,0,0-2.69,4.55c-.75,1.44-1.57,3-2.52,4.58a6,6,0,0,1,.67-.33c2-.79,4.16-.1,6.12,1.87.39-2.85,1.4-4.44,3.32-5.22a4.48,4.48,0,0,1,2.17-.29C424.56,325.46,425,323.46,426.7,322Z" transform="translate(-2.72 -4.77)"/><path class="cls-1" d="M441.45,344.29h0a.06.06,0,0,0,0,0,20.21,20.21,0,0,0-1-12.61c-2.8-6.53-8.45-11-12.17-9.69a.27.27,0,0,1-.17.06,4.12,4.12,0,0,0-1,.59c-1.51,1.26-1.85,3-1.16,6a.4.4,0,0,1,0,.19c3.91,1,7.39,6.82,8,13.47a22.47,22.47,0,0,1-3,13.27A16,16,0,0,0,441.45,344.29Z" transform="translate(-2.72 -4.77)"/><path class="cls-1" d="M427.28,315.77a3.61,3.61,0,0,0-.53,1.94,6.25,6.25,0,0,0,1.48,3.5c4.11-1.31,10,3.24,12.92,10.13a21.15,21.15,0,0,1,1.24,12c5.06-4.64,6.2-9.6,6.24-13A16.52,16.52,0,0,0,443.34,318a19.31,19.31,0,0,0-7-4C432.12,312.72,428.59,313.42,427.28,315.77Z" transform="translate(-2.72 -4.77)"/><path class="cls-1" d="M377.07,340.94c-.8,6.65,1.27,12.74,5.67,16.69a31.5,31.5,0,0,0,9,5.59,41.72,41.72,0,0,0,17.73,2.91,15.07,15.07,0,0,0,8-2.87c5.54-4.15,6.95-11.78,6.41-17.55a19.2,19.2,0,0,0-4.05-10.47c-1.87-2.16-4-3-5.84-2.23a3.88,3.88,0,0,0-1.79,1.38c-1.23,1.74-1.39,4.73-1.25,9.3a5.68,5.68,0,0,1-1.53,4.26c-2.33,2.44-6.43,2.53-6.6,2.53a.36.36,0,1,1,0-.72s4-.09,6.08-2.31a5,5,0,0,0,1.34-3.74,27.76,27.76,0,0,1,.46-7.65,14.56,14.56,0,0,1-7.88,5.5h-.09a.36.36,0,0,1-.35-.27.36.36,0,0,1,.27-.44c3.25-.79,6.12-3.08,8.78-7a62.31,62.31,0,0,0,3.51-6.12,29.13,29.13,0,0,1,2.77-4.68c2.78-3.28,7.35-5.19,8.39-5.59a4.52,4.52,0,0,1,.61-2.06c1.44-2.58,5.13-3.43,9.46-2.23a7,7,0,0,0-1.79-6.46c-2.63-2.59-7.74-3.38-13.66-2.1-.65.14-1.23.28-1.78.43-4.82,1.33-10.09,4.18-15.66,8.47-1.35,1.05-2.64,2-3.92,2.89l0,0a100.94,100.94,0,0,1-10.66,6.6C382.52,326.29,378,333.32,377.07,340.94Z" transform="translate(-2.72 -4.77)"/><path class="cls-1" d="M283.24,134.58a8.8,8.8,0,0,1,8.44,6.36,25.59,25.59,0,1,0-9.26-6.31A6.56,6.56,0,0,1,283.24,134.58Z" transform="translate(-2.72 -4.77)"/><path class="cls-1" d="M280.25,150.89a8.08,8.08,0,0,0,11.06-7.5,7.52,7.52,0,0,0-.28-2.08,8.07,8.07,0,0,0-7.79-6,5.93,5.93,0,0,0-.91.06,8.05,8.05,0,0,0-7.17,8,5.88,5.88,0,0,0,0,.6A29.39,29.39,0,0,1,280.25,150.89Z" transform="translate(-2.72 -4.77)"/><path class="cls-1" d="M222.85,165.28a28,28,0,0,1,3.78-9.69c6.07-9.47,14.78-9.87,14.87-9.88a.36.36,0,0,1,.32.17,161.78,161.78,0,0,1,14.35,29.23,9.86,9.86,0,0,1,3.51-2.41,6.51,6.51,0,0,1,6.67.78,6,6,0,0,1,2,4.14,9.3,9.3,0,0,1-2.29,6.66,9.62,9.62,0,0,1-4.81,3.15,25.41,25.41,0,0,0,.16,4.36c12.63-3.74,21.41-15,21.41-27.58a27.38,27.38,0,0,0-3.18-12.86,29.18,29.18,0,0,0-5.11-6.95,31.06,31.06,0,0,0-22.21-9.09c-16.82,0-30.5,13-30.5,28.9a27.45,27.45,0,0,0,.37,4.45C222.41,167.55,222.61,166.43,222.85,165.28Z" transform="translate(-2.72 -4.77)"/><path class="cls-1" d="M228.72,167.66a6.15,6.15,0,0,1-2,.35,5,5,0,0,1-3.41-1.32c-.26,1.41-.5,2.8-.67,4.14-1.33,10.19-.1,17.94,3.59,22.41a12.17,12.17,0,0,0,9,4.35c10.91.67,17.63-5.2,21.36-10.24a.33.33,0,0,1,.22-.14l0,0a4.82,4.82,0,0,1-1.31-.82.35.35,0,0,1-.05-.51.36.36,0,0,1,.51,0,4.83,4.83,0,0,0,1.14.71,5.83,5.83,0,0,0,3.74.27,8.85,8.85,0,0,0,4.69-3,8.53,8.53,0,0,0,2.13-6.13,5.2,5.2,0,0,0-1.8-3.65,5.81,5.81,0,0,0-5.93-.66,9.25,9.25,0,0,0-3.64,2.67.39.39,0,0,1-.34.13.38.38,0,0,1-.28-.24,159.24,159.24,0,0,0-14.37-29.47c-1.31.12-8.74,1.18-14.08,9.52a24.93,24.93,0,0,0-1.9,3.63,5.51,5.51,0,0,1,6.79,1.93.36.36,0,0,1-.06.51.35.35,0,0,1-.22.08.37.37,0,0,1-.29-.14,4.82,4.82,0,0,0-6.63-1.37,30.55,30.55,0,0,0-1.37,4.81c0,.13-.05.26-.08.39a4.36,4.36,0,0,0,5,1.15.36.36,0,0,1,.23.69Z" transform="translate(-2.72 -4.77)"/><path class="cls-1" d="M235.61,213.79a6.46,6.46,0,0,0,4.3,7.89c4.92,1.75,15.6-.27,24.5-18.91a23.38,23.38,0,0,1-1.48-2.88,28.52,28.52,0,0,1-2.14-7.57v0h0a25.29,25.29,0,0,1-.22-4.67,6.66,6.66,0,0,1-3.34-.23.35.35,0,0,1,0,.42,25,25,0,0,1-20.3,10.58l-1.11,0a19.67,19.67,0,0,1,1,7.58.4.4,0,0,1,0,.15.42.42,0,0,1,0,.16A38.8,38.8,0,0,1,235.61,213.79Z" transform="translate(-2.72 -4.77)"/><path class="cls-1" d="M173.94,241.56c-11.62,13.56-21.66,25.27-37.07,34.11l-4,2.28c-20.17,11.5-41,23.4-36.27,37.95a98.67,98.67,0,0,0,10.48,6.49,23.3,23.3,0,0,1,10.18,11.81c-3.37-11.56-12.53-19.3-12.64-19.4a.36.36,0,1,1,.46-.56c.15.13,15.25,12.89,14.07,30.28h0a20.76,20.76,0,0,1-.93,5.59h0v0h0a17.72,17.72,0,0,1-5.12,8,29.74,29.74,0,0,1-4.46,3.3c5,.92,30.78,3.91,61.61-23h0a156.7,156.7,0,0,0,16.89-17.35,81.49,81.49,0,0,0,4.78-21c1.59-21-5.94-59.34-6-59.73a.35.35,0,0,1,.28-.42.37.37,0,0,1,.43.28c.07.39,7.62,38.83,6,59.93a84,84,0,0,1-4.84,21.27c-.4,1.16-.8,2.29-1.19,3.38C184,332.2,181.94,338,184,342.5a7.41,7.41,0,0,0,.5.95,10.34,10.34,0,0,0,3.19,3s1,.54,2.5,1.44c10.92,5.48,33.55,8.81,57.48,3.17a109.22,109.22,0,0,0,22-7.74.37.37,0,0,1,.49.17.36.36,0,0,1-.18.48,110.19,110.19,0,0,1-20,7.26c36.42,2.85,50.34-10.25,55.57-21.9h0a29.86,29.86,0,0,0,2.74-11.46c-14.8-18.51-25.93-39.22-30.54-56.85-5.34-20.47-1.39-32,2.87-38,4.63-6.59,10.46-8.28,10.71-8.34a.36.36,0,0,1,.45.25.37.37,0,0,1-.25.45,21.14,21.14,0,0,0-10.35,8.1c-4.15,5.93-8,17.23-2.72,37.39C283,278.38,294.15,299,308.94,317.5v0c2.45,3.06,5.05,6.12,7.73,9.08h0c25.47,28.06,52.93,41.74,73.74,36.84a31.53,31.53,0,0,1-8.19-5.28c-4.59-4.11-6.74-10.43-5.91-17.32.95-7.84,5.63-15.09,11.92-18.46a101.65,101.65,0,0,0,10.44-6.45c1.25-15.16-15.66-25.63-35.23-37.74l-5.05-3.14c-13.35-8.34-21.87-20.3-31.73-34.15-6.23-8.75-12.68-17.8-21.07-27-19.79-21.61-39.14-15.09-41.88-14a20.07,20.07,0,0,0,1.38,2.6.38.38,0,0,1,0,.36c-6.75,14.22-15.32,20-22,20a10.29,10.29,0,0,1-3.5-.59,7.14,7.14,0,0,1-4.76-8.75,38.32,38.32,0,0,0,1.11-7.24,55.88,55.88,0,0,0-46.32,17.41C183.79,230.08,178.78,235.92,173.94,241.56Z" transform="translate(-2.72 -4.77)"/><path class="cls-1" d="M315.71,326.59c-2.32-2.57-4.57-5.21-6.72-7.87a31.74,31.74,0,0,1-2.47,10.16A66.24,66.24,0,0,1,315.71,326.59Z" transform="translate(-2.72 -4.77)"/><path class="cls-1" d="M186.5,323.05a155.89,155.89,0,0,1-15.16,15.48A55.51,55.51,0,0,1,183,342c-1.59-4.6.44-10.29,3-17.39C186.13,324.09,186.32,323.57,186.5,323.05Z" transform="translate(-2.72 -4.77)"/><path class="cls-1" d="M53,343.37a21.06,21.06,0,0,1,1.24-12c3-6.88,8.8-11.43,12.91-10.13a6.18,6.18,0,0,0,1.48-3.49,3.69,3.69,0,0,0-.52-2c-1.31-2.35-4.85-3-9-1.79a19.19,19.19,0,0,0-7,4,1,1,0,0,0-.15.14,16.56,16.56,0,0,0-5.14,12.38C46.79,333.87,48,338.79,53,343.37Z" transform="translate(-2.72 -4.77)"/><path class="cls-1" d="M72.25,329c1.92.77,2.93,2.36,3.32,5.22,2-2,4.16-2.66,6.12-1.87a6.33,6.33,0,0,1,.69.34c-.95-1.57-1.78-3.15-2.54-4.59a28.46,28.46,0,0,0-2.68-4.55c-2.47-2.91-6.54-4.74-7.87-5.29a7.36,7.36,0,0,1-1.47,3.25,4.44,4.44,0,0,1,.84.54c1.71,1.43,2.13,3.42,1.43,6.66A4.44,4.44,0,0,1,72.25,329Z" transform="translate(-2.72 -4.77)"/><path class="cls-1" d="M54.88,331.63a20.31,20.31,0,0,0-1,12.64,0,0,0,0,1,0,0,16,16,0,0,0,10.47,11.27,22.47,22.47,0,0,1-3-13.27c.62-6.65,4.1-12.44,8-13.46a.46.46,0,0,1,0-.2c.68-3,.34-4.78-1.16-6a3.82,3.82,0,0,0-1.06-.62C63.44,320.54,57.71,325.05,54.88,331.63Z" transform="translate(-2.72 -4.77)"/><path class="cls-1" d="M76.54,363c-5-4.44-6.25-11.78-5.73-17.39a20,20,0,0,1,4.12-10.75c-.3-3-1.15-4.52-3-5.25a3.8,3.8,0,0,0-2.11-.21c-3.75.7-7.16,6.37-7.78,12.92a21.65,21.65,0,0,0,3.46,13.69A15.85,15.85,0,0,0,76.54,363Z" transform="translate(-2.72 -4.77)"/><path class="cls-1" d="M68.72,315.42a4.59,4.59,0,0,1,.6,2.05c1,.4,5.61,2.31,8.39,5.59a27.93,27.93,0,0,1,2.78,4.68,63.21,63.21,0,0,0,3.5,6.11c2.65,3.93,5.52,6.22,8.78,7a.36.36,0,0,1,.27.44.36.36,0,0,1-.35.27H92.6a14.47,14.47,0,0,1-7.87-5.5,28.19,28.19,0,0,1,.46,7.65,5,5,0,0,0,1.33,3.74c2.11,2.22,6,2.3,6.09,2.31a.36.36,0,0,1,.36.36.35.35,0,0,1-.37.36c-.17,0-4.28-.09-6.61-2.53a5.68,5.68,0,0,1-1.53-4.26c.14-4.46,0-7.57-1.25-9.3A3.91,3.91,0,0,0,81.42,333c-1.84-.75-4,.07-5.84,2.23a19.28,19.28,0,0,0-4,10.47c-.53,5.77.87,13.41,6.42,17.55a15,15,0,0,0,7.94,2.87,28.79,28.79,0,0,0,4,0,39,39,0,0,0,17.59-4.83h0a30.26,30.26,0,0,0,5.14-3.7,17.06,17.06,0,0,0,4.9-7.69v0h0a29.58,29.58,0,0,0,.91-5.44c.29-8.78-4.52-17.59-11.69-21.44a100.41,100.41,0,0,1-10.66-6.6l0,0c-1.34-.93-2.65-1.9-3.91-2.88-5.56-4.28-10.82-7.14-15.65-8.47-6.49-1.8-12.36-1.21-15.31,1.54a7,7,0,0,0-1.93,6.59C63.58,312,67.27,312.84,68.72,315.42Z" transform="translate(-2.72 -4.77)"/><path class="cls-1" d="M407.36,366.93a42.92,42.92,0,0,1-15.8-3,37.88,37.88,0,0,1-9.78,1.24c-19.61,0-43.32-13.56-65.48-37.93a65.07,65.07,0,0,0-10.17,2.52c-4.88,10.71-16.95,22.59-46.46,22.59-3.7,0-7.66-.18-11.92-.58a110.91,110.91,0,0,1-25.27,2.93c-11.47,0-21.51-1.82-28.6-4.44,5.05,3.44,11.77,8.92,12.86,14.31l4.18,1.67c9.41,3.78,18.86,5,27.19,6.16,9.53,1.27,17.08,2.29,21.21,6.51,17.19-15.37,58.87-34.67,59.29-34.86a.35.35,0,0,1,.48.18.35.35,0,0,1-.17.48c-.42.19-42,19.44-59.11,34.74,2,2.31,2.89,5.38,2.73,9.39a.36.36,0,0,1-.36.35h0a.37.37,0,0,1-.35-.38c.15-4-.76-7-2.78-9.15-3.89-4.25-11.45-5.26-21-6.54-8.38-1.12-17.87-2.4-27.37-6.2-1.48-.6-2.92-1.18-4.35-1.74h0c-23.2-9.16-40.26-14.74-40.42-14.79a.36.36,0,1,1,.22-.69c.17.05,16.94,5.54,39.83,14.55-1.71-6.47-11.76-13.12-16.12-15.74-2.92-1.48-5-3.1-6-4.69a8,8,0,0,1-.48-.89c-1-.42-7.93-3.28-12.76-3.76-23.35,20.28-43.85,23.6-54.74,23.6a38.55,38.55,0,0,1-8.16-.74,39.89,39.89,0,0,1-17.62,4.85c-6.7,8-15.26,24.51,1.62,45.51H153a.38.38,0,0,1,.34.24l15.23,41.22c2.55.95,36,13.15,58.94,11.45,1.63-.12,3.19-.31,4.65-.56l1.32-.25h0c19.2-3.95,19.78-17.28,19.64-20.43l-1.21-.62-8.76-.52c.28,1.22.6,2.48,1,3.77a.36.36,0,0,1-.24.45h-.11a.35.35,0,0,1-.34-.26c-.43-1.47-.8-2.91-1.1-4.28-5.28-24.54,6-47.05,9.6-53.41h0v0c.71-1.25,1.14-1.92,1.16-1.95a.37.37,0,0,1,.5-.1.36.36,0,0,1,.11.5s-.32.5-.84,1.39c2.8.11,5.93.23,9.23.33,15.42.5,34.76.76,40.36-.78l-.57-2.15a3.33,3.33,0,0,1,6-2.72,3.5,3.5,0,0,1,.47,1l15.8,61.56c18.57-7,34.45-14.63,47.21-22.68h0l0,0c24.71-15.61,33.65-30.28,36.79-39.84,3-9.25,1.4-15.6,1-16.88C408.89,366.9,408.25,366.93,407.36,366.93Z" transform="translate(-2.72 -4.77)"/><path class="cls-1" d="M232.31,465.46c-1.4.24-2.9.42-4.46.54l-5.36,20.9c1.94-1.18,3.91-2.47,6-4l4.59-17.63Z" transform="translate(-2.72 -4.77)"/><path class="cls-1" d="M253.89,443.82c.17,2.83,0,17.13-20,21.33l-4.46,17.11c20.81-15.16,35.3-36.83,35.45-37.05a.35.35,0,0,1,.28-.17l6.94-.4-18.22-1.09C253.88,443.63,253.88,443.72,253.89,443.82Z" transform="translate(-2.72 -4.77)"/><path class="cls-1" d="M291.49,445.21s.92,1.38,2.56,3.61a80.43,80.43,0,0,1,21.38-10.73L302.7,389.27c-3.27.89-11,1.19-19.85,1.19-6.7,0-14.07-.17-20.71-.38-3.45-.11-6.72-.23-9.62-.35-3.65,6.48-14.53,28.47-9.48,52.45L291.21,445A.35.35,0,0,1,291.49,445.21Z" transform="translate(-2.72 -4.77)"/><path class="cls-1" d="M291,445.76,278.22,445h0l-3.83.23c4.41,9.67,19.54,9.2,22.89,9-1.5-1.88-2.75-3.54-3.58-4.65C292.21,447.56,291.28,446.2,291,445.76Z" transform="translate(-2.72 -4.77)"/><path class="cls-1" d="M294.48,449.4c.91,1.21,2.22,2.93,3.77,4.87,6.31,7.86,16.36,19,28.69,28l-11.33-43.47A79.93,79.93,0,0,0,294.48,449.4Z" transform="translate(-2.72 -4.77)"/><path class="cls-1" d="M323.61,446.92h0l-15.92-62a2.82,2.82,0,0,0-.36-.81,2.62,2.62,0,0,0-2.91-1,2.59,2.59,0,0,0-1.76,3.14l.65,2.5v0l12.89,49.45h0l11.66,44.72c2,1.44,4,2.77,6,4l-10.26-40Z" transform="translate(-2.72 -4.77)"/><path class="cls-1" d="M183.73,496.87l-31-83.75h-8.09l33.69,91.44h70.87v-7.42H184.13A.35.35,0,0,1,183.73,496.87Z" transform="translate(-2.72 -4.77)"/><polygon class="cls-1" points="21.58 408.35 51.74 499.78 174.88 499.78 141.19 408.35 21.58 408.35"/><circle class="cls-2" cx="464.17" cy="237.64" r="54.11" transform="translate(140.32 643.73) rotate(-79.1)"/><path class="cls-3" d="M87.52,162.63a.75.75,0,0,1-.63-.35c-.38-.61-.79-1.22-1.21-1.82a.74.74,0,0,1,.17-1,.75.75,0,0,1,1,.17c.43.62.86,1.25,1.26,1.89a.73.73,0,0,1-.23,1A.72.72,0,0,1,87.52,162.63Z" transform="translate(-2.72 -4.77)"/><path class="cls-3" d="M80.65,154.23a.75.75,0,0,1-.52-.21c-1-1-2.1-1.91-3.21-2.79a.73.73,0,0,1-.12-1,.75.75,0,0,1,1-.13c1.15.91,2.27,1.88,3.32,2.89a.74.74,0,0,1-.51,1.28Zm-10.53-7.52a.69.69,0,0,1-.34-.09c-1.26-.65-2.56-1.25-3.87-1.77a.75.75,0,0,1-.41-1,.74.74,0,0,1,1-.41c1.35.54,2.69,1.16,4,1.83a.75.75,0,0,1-.34,1.41ZM40.7,142.5a.75.75,0,0,1-.14-1.48c1.43-.28,2.89-.49,4.35-.63a.73.73,0,0,1,.81.66.76.76,0,0,1-.67.82c-1.4.13-2.82.34-4.21.61Zm17.2,0h-.14c-1.39-.27-2.8-.47-4.21-.6a.75.75,0,0,1-.67-.81.76.76,0,0,1,.81-.68c1.45.14,2.92.35,4.35.63a.73.73,0,0,1,.59.87A.75.75,0,0,1,57.9,142.46Z" transform="translate(-2.72 -4.77)"/><path class="cls-3" d="M30.36,145.84a.74.74,0,0,1-.31-1.41c.68-.32,1.38-.62,2.08-.91a.76.76,0,0,1,1,.42.74.74,0,0,1-.41,1c-.68.28-1.36.57-2,.87A.67.67,0,0,1,30.36,145.84Z" transform="translate(-2.72 -4.77)"/><path class="cls-3" d="M15.86,156.51a.72.72,0,0,1-.49-.19.74.74,0,0,1-.06-1c.51-.56,1-1.11,1.56-1.64a.74.74,0,1,1,1.05,1.05c-.51.51-1,1-1.5,1.59A.76.76,0,0,1,15.86,156.51Z" transform="translate(-2.72 -4.77)"/><path class="cls-3" d="M21.7,222.56a.73.73,0,0,1-.45-.16c-1.11-.85-2.18-1.77-3.2-2.71a.74.74,0,0,1,0-1.05.73.73,0,0,1,1,0c1,.92,2,1.8,3.1,2.63a.74.74,0,0,1,.13,1A.72.72,0,0,1,21.7,222.56Zm-8.65-8.83a.77.77,0,0,1-.6-.3c-.83-1.12-1.62-2.3-2.34-3.49a.74.74,0,0,1,1.27-.77c.7,1.15,1.46,2.29,2.27,3.37a.75.75,0,0,1-.16,1A.73.73,0,0,1,13.05,213.73ZM7.13,202.87a.74.74,0,0,1-.7-.48c-.49-1.3-.93-2.65-1.31-4a.73.73,0,0,1,.52-.91.74.74,0,0,1,.92.51c.36,1.3.78,2.6,1.26,3.87a.73.73,0,0,1-.43.95A.63.63,0,0,1,7.13,202.87ZM4.36,190.82a.74.74,0,0,1-.74-.68c-.12-1.35-.18-2.73-.18-4.09v-.11a.74.74,0,0,1,.74-.74h0a.74.74,0,0,1,.74.75v.1c0,1.31.06,2.65.18,4a.75.75,0,0,1-.67.81ZM5,178.46H4.82a.73.73,0,0,1-.59-.87c.25-1.37.58-2.74,1-4.09a.76.76,0,0,1,.92-.51.74.74,0,0,1,.51.92c-.37,1.3-.68,2.63-.93,4A.75.75,0,0,1,5,178.46ZM8.9,166.74a.76.76,0,0,1-.33-.08.75.75,0,0,1-.34-1c.62-1.24,1.31-2.48,2-3.67a.74.74,0,0,1,1.26.78c-.71,1.16-1.38,2.35-2,3.56A.74.74,0,0,1,8.9,166.74Z" transform="translate(-2.72 -4.77)"/><path class="cls-3" d="M30.69,228a.7.7,0,0,1-.31-.07c-.68-.31-1.37-.64-2-1a.75.75,0,0,1-.32-1,.74.74,0,0,1,1-.32c.65.33,1.31.66,2,1a.74.74,0,0,1-.31,1.42Z" transform="translate(-2.72 -4.77)"/><path class="cls-3" d="M24,158.44a8.41,8.41,0,0,1-2.22-.29,8.64,8.64,0,1,1,2.22.29Zm0-15.82A7.17,7.17,0,1,0,27.59,156a7.1,7.1,0,0,0,3.33-4.36h0a7.17,7.17,0,0,0-5.1-8.76A7.26,7.26,0,0,0,24,142.62Z" transform="translate(-2.72 -4.77)"/><circle class="cls-2" cx="394.59" cy="24.31" r="19.54" transform="translate(253.23 389.77) rotate(-73)"/><path class="cls-3" d="M355.67,206.56c-.79,0-1.58,0-2.36,0a.75.75,0,0,1,0-1.49c1.48,0,3,0,4.43,0a.74.74,0,0,1,.76.72.75.75,0,0,1-.73.76Q356.73,206.56,355.67,206.56Zm11-.66a.75.75,0,0,1-.74-.66.74.74,0,0,1,.65-.82c1.46-.18,2.93-.39,4.38-.64a.75.75,0,1,1,.25,1.47c-1.47.25-3,.47-4.45.64Zm-22.25,0h-.09c-1.48-.19-3-.41-4.45-.66a.74.74,0,0,1-.6-.86.76.76,0,0,1,.86-.61c1.44.25,2.92.47,4.37.65a.74.74,0,0,1-.09,1.48Zm35.37-2.53a.74.74,0,0,1-.19-1.46c1.42-.38,2.84-.81,4.24-1.26a.73.73,0,0,1,.93.47.74.74,0,0,1-.47.94c-1.42.46-2.87.89-4.31,1.29Zm-48.48-.06-.2,0c-1.44-.4-2.89-.84-4.31-1.3a.74.74,0,1,1,.47-1.41c1.39.45,2.82.88,4.23,1.27a.74.74,0,0,1-.19,1.46Zm61.09-4.38a.75.75,0,0,1-.68-.45.74.74,0,0,1,.39-1c1.34-.59,2.69-1.22,4-1.87a.74.74,0,0,1,1,.33.75.75,0,0,1-.33,1c-1.34.66-2.71,1.3-4.08,1.9A.8.8,0,0,1,392.41,198.9Zm-73.69-.09a.77.77,0,0,1-.3-.06c-1.37-.6-2.74-1.25-4.07-1.91a.75.75,0,0,1-.34-1,.74.74,0,0,1,1-.33c1.31.65,2.66,1.29,4,1.88a.75.75,0,0,1,.38,1A.77.77,0,0,1,318.72,198.81Zm85.52-6.15a.73.73,0,0,1-.63-.35.74.74,0,0,1,.23-1c1.25-.78,2.49-1.6,3.7-2.44a.74.74,0,0,1,1,.19.73.73,0,0,1-.19,1c-1.22.85-2.48,1.69-3.75,2.48A.7.7,0,0,1,404.24,192.66Zm-97.33-.12a.71.71,0,0,1-.4-.11c-1.26-.79-2.52-1.63-3.74-2.49a.74.74,0,1,1,.85-1.21c1.2.84,2.44,1.66,3.68,2.44a.74.74,0,0,1-.39,1.37ZM415,184.76a.73.73,0,0,1-.56-.26.74.74,0,0,1,.08-1.05c1.12-.95,2.23-1.94,3.3-2.95a.75.75,0,0,1,1,1.09c-1.09,1-2.22,2-3.35,3A.76.76,0,0,1,415,184.76Zm-118.88-.14a.74.74,0,0,1-.48-.18c-1.13-1-2.26-2-3.34-3a.74.74,0,0,1,1-1.09c1.07,1,2.18,2,3.3,3a.74.74,0,0,1,.08,1.05A.76.76,0,0,1,296.14,184.62Zm128.42-9.23a.7.7,0,0,1-.49-.19.74.74,0,0,1-.07-1c1-1.1,1.93-2.24,2.84-3.39a.75.75,0,0,1,1.05-.11.73.73,0,0,1,.11,1c-.93,1.17-1.9,2.33-2.89,3.45A.75.75,0,0,1,424.56,175.39Zm-137.93-.17a.76.76,0,0,1-.56-.26c-1-1.12-1.95-2.28-2.88-3.45a.74.74,0,0,1,1.17-.92c.91,1.15,1.86,2.29,2.83,3.39a.74.74,0,0,1-.07,1.05A.7.7,0,0,1,286.63,175.22Zm146-10.48a.78.78,0,0,1-.41-.12.75.75,0,0,1-.22-1c.8-1.23,1.58-2.5,2.32-3.77a.75.75,0,0,1,1.29.75c-.75,1.29-1.55,2.58-2.36,3.83A.74.74,0,0,1,432.64,164.74Zm-154.06-.19a.74.74,0,0,1-.63-.34c-.81-1.26-1.6-2.55-2.34-3.84a.74.74,0,0,1,1.28-.74c.74,1.27,1.51,2.54,2.31,3.77a.75.75,0,0,1-.22,1A.77.77,0,0,1,278.58,164.55ZM439.07,153a.8.8,0,0,1-.3-.06.75.75,0,0,1-.37-1c.61-1.33,1.19-2.7,1.74-4.07a.74.74,0,0,1,1.38.56c-.55,1.38-1.15,2.77-1.77,4.13A.74.74,0,0,1,439.07,153Zm-166.9-.21a.74.74,0,0,1-.68-.43c-.62-1.36-1.21-2.75-1.76-4.14a.74.74,0,0,1,.42-1,.73.73,0,0,1,1,.41c.54,1.37,1.13,2.74,1.73,4.07a.74.74,0,0,1-.37,1A.8.8,0,0,1,272.17,152.81Zm171.56-12.32-.21,0a.75.75,0,0,1-.51-.92c.41-1.41.79-2.85,1.13-4.28a.75.75,0,0,1,1.45.35c-.35,1.45-.73,2.91-1.15,4.34A.74.74,0,0,1,443.73,140.49Zm-176.19-.22a.74.74,0,0,1-.71-.54c-.41-1.43-.8-2.89-1.14-4.35a.74.74,0,0,1,.56-.89.73.73,0,0,1,.89.55c.34,1.43.71,2.87,1.12,4.28a.75.75,0,0,1-.51.92Zm179-12.86h-.1a.76.76,0,0,1-.64-.84c.2-1.46.37-2.94.5-4.4a.73.73,0,0,1,.8-.67.74.74,0,0,1,.68.8c-.13,1.49-.3,3-.51,4.47A.74.74,0,0,1,446.51,127.41Zm-181.71-.23a.74.74,0,0,1-.74-.64c-.2-1.48-.37-3-.49-4.47a.73.73,0,0,1,.67-.8.74.74,0,0,1,.81.67c.12,1.47.29,3,.48,4.4a.74.74,0,0,1-.63.84Zm182.56-13.11a.74.74,0,0,1-.74-.74c0-1.46-.06-3-.15-4.42a.75.75,0,0,1,1.49-.08c.08,1.49.13,3,.15,4.49a.75.75,0,0,1-.74.75ZM264,113.84h0a.75.75,0,0,1-.74-.75c0-1.49.07-3,.16-4.5a.75.75,0,0,1,1.49.09c-.09,1.47-.14,3-.16,4.42A.75.75,0,0,1,264,113.84Zm182.3-13.1a.73.73,0,0,1-.73-.63c-.23-1.45-.49-2.91-.79-4.35a.75.75,0,1,1,1.46-.3c.3,1.46.57,3,.79,4.43a.74.74,0,0,1-.62.85Zm-181.19-.22H265a.74.74,0,0,1-.62-.85c.23-1.48.5-3,.81-4.43a.73.73,0,0,1,.87-.57.74.74,0,0,1,.58.88c-.3,1.43-.56,2.9-.79,4.35A.75.75,0,0,1,265.09,100.52Zm178.19-12.8a.74.74,0,0,1-.71-.53c-.44-1.4-.91-2.81-1.41-4.19a.74.74,0,1,1,1.39-.51c.51,1.4,1,2.84,1.44,4.26a.74.74,0,0,1-.49.93A.6.6,0,0,1,443.28,87.72ZM268.13,87.5a.57.57,0,0,1-.22,0,.75.75,0,0,1-.49-.93c.44-1.42.93-2.85,1.44-4.26a.75.75,0,0,1,1.4.51c-.51,1.38-1,2.79-1.42,4.19A.75.75,0,0,1,268.13,87.5ZM438.4,75.27a.75.75,0,0,1-.67-.43c-.63-1.32-1.31-2.65-2-3.94a.74.74,0,0,1,.3-1,.75.75,0,0,1,1,.3c.7,1.32,1.39,2.67,2,4a.73.73,0,0,1-.34,1A.8.8,0,0,1,438.4,75.27ZM273,75.06a.72.72,0,0,1-.32-.08.74.74,0,0,1-.35-1c.65-1.34,1.34-2.69,2.05-4a.75.75,0,1,1,1.31.71c-.7,1.29-1.38,2.61-2,3.94A.75.75,0,0,1,273,75.06Zm158.73-11.4a.72.72,0,0,1-.61-.32c-.82-1.22-1.69-2.43-2.57-3.61a.75.75,0,0,1,.15-1,.74.74,0,0,1,1,.15c.9,1.2,1.78,2.43,2.61,3.66a.75.75,0,0,1-.2,1A.79.79,0,0,1,431.76,63.66ZM279.7,63.47a.81.81,0,0,1-.42-.12.75.75,0,0,1-.19-1c.83-1.23,1.71-2.46,2.61-3.66a.75.75,0,0,1,1.19.9c-.89,1.17-1.75,2.38-2.57,3.6A.75.75,0,0,1,279.7,63.47ZM423.5,53.15a.74.74,0,0,1-.55-.24c-.85-.93-1.73-1.86-2.62-2.76l-.44-.44a.74.74,0,1,1,1.05-1.05l.45.45c.9.91,1.79,1.85,2.66,2.8A.75.75,0,0,1,424,53,.73.73,0,0,1,423.5,53.15ZM288,53a.74.74,0,0,1-.5-.2.75.75,0,0,1-.05-1c1-1.1,2.05-2.19,3.12-3.24a.74.74,0,0,1,1.05,0,.73.73,0,0,1,0,1c-1,1-2.07,2.11-3.06,3.19A.76.76,0,0,1,288,53Zm125.82-9.05a.73.73,0,0,1-.47-.17c-1.14-.93-2.31-1.85-3.49-2.72a.74.74,0,0,1-.15-1,.75.75,0,0,1,1-.16c1.19.89,2.38,1.82,3.54,2.77a.75.75,0,0,1,.1,1.05A.72.72,0,0,1,413.81,43.94Zm-116.1-.14a.75.75,0,0,1-.58-.28.74.74,0,0,1,.11-1c1.15-.95,2.35-1.88,3.54-2.76a.74.74,0,1,1,.89,1.19c-1.18.88-2.36,1.79-3.49,2.72A.78.78,0,0,1,297.71,43.8Zm10.94-7.69a.74.74,0,0,1-.38-1.38c1.27-.76,2.59-1.51,3.91-2.21a.74.74,0,1,1,.7,1.31c-1.3.69-2.59,1.42-3.85,2.18A.75.75,0,0,1,308.65,36.11Zm11.94-6a.72.72,0,0,1-.68-.46.74.74,0,0,1,.4-1c1.38-.57,2.79-1.11,4.19-1.62a.75.75,0,0,1,.95.45.73.73,0,0,1-.45.95c-1.38.5-2.77,1-4.12,1.59A.75.75,0,0,1,320.59,30.11Zm12.7-4.19a.74.74,0,0,1-.18-1.46c1.45-.37,2.92-.7,4.39-1a.74.74,0,0,1,.29,1.46c-1.44.28-2.9.61-4.32,1Zm41.61-.73-.16,0L373,24.81a.74.74,0,1,1,.28-1.46l1.81.37a.74.74,0,0,1-.15,1.47Zm-28.44-1.57a.74.74,0,0,1-.07-1.48c1.48-.15,3-.26,4.48-.34a.74.74,0,1,1,.08,1.48c-1.47.08-3,.19-4.42.34Zm17.82-.06h-.07c-1.47-.14-2.95-.24-4.42-.31a.73.73,0,0,1-.71-.77.75.75,0,0,1,.78-.71c1.49.07,3,.17,4.48.31a.74.74,0,0,1,.67.81A.73.73,0,0,1,364.28,23.56Z" transform="translate(-2.72 -4.77)"/><path class="cls-3" d="M393.45,50.82A20.27,20.27,0,1,1,407.71,45,20.2,20.2,0,0,1,393.45,50.82ZM379.71,16.66l.52.53a18.78,18.78,0,1,0,13.32-5.44,18.81,18.81,0,0,0-13.32,5.44Z" transform="translate(-2.72 -4.77)"/><path class="cls-2" d="M132.69,131.59l-23.64,14.85a1.89,1.89,0,0,1-2-3.2l23.39-14.72A6.76,6.76,0,0,0,132.69,131.59Z" transform="translate(-2.72 -4.77)"/><path class="cls-2" d="M140,102v18.45a6.7,6.7,0,0,0-6.53,0V102a3.27,3.27,0,0,1,6.53,0Z" transform="translate(-2.72 -4.77)"/><path class="cls-4" d="M50.35,205a28.78,28.78,0,0,0-34.91,28.11,28.75,28.75,0,0,0,22.35,28h0A28.77,28.77,0,1,0,50.35,205ZM44.2,216.15a5.58,5.58,0,1,1-5.58,5.57A5.57,5.57,0,0,1,44.2,216.15Zm9.82,34H34.39V239a8.44,8.44,0,0,1,8.44-8.45h2.75A8.45,8.45,0,0,1,54,239Z" transform="translate(-2.72 -4.77)"/><path class="cls-4" d="M403.53,159.33H328a9.27,9.27,0,0,0-9.25,9.24v24.5a9.27,9.27,0,0,0,9.25,9.24h8.64a1.19,1.19,0,0,1,1.09,1.66l-4.81,11,21.16-11.55a9,9,0,0,1,4.35-1.11h45.09a9.26,9.26,0,0,0,9.24-9.24v-24.5A9.26,9.26,0,0,0,403.53,159.33Zm-59.76,27a5.73,5.73,0,1,1,5.73-5.72A5.72,5.72,0,0,1,343.77,186.34Zm22,0a5.73,5.73,0,1,1,5.72-5.72A5.73,5.73,0,0,1,365.77,186.34Zm22,0a5.73,5.73,0,1,1,5.72-5.72A5.73,5.73,0,0,1,387.76,186.34Z" transform="translate(-2.72 -4.77)"/><path class="cls-4" d="M291.19,445.41l-13-.78h0l-4.36.26c4.78,11.76,24.15,9.6,24.15,9.6-1.6-2-2.94-3.76-4-5.18C292.16,446.88,291.19,445.41,291.19,445.41Z" transform="translate(-2.72 -4.77)"/><path class="cls-4" d="M391.59,363.55c-23.59,6.34-52.25-11.46-75.15-36.69h0a66.09,66.09,0,0,0-10.56,2.61h0c-5,11.11-19,25.6-58.14,21.93-24.79,5.85-47.17,2.12-57.74-3.2-2.89-1.46-4.9-3-5.83-4.56a7.86,7.86,0,0,1-.53-1s-7.82-3.38-13.13-3.85h0c-34.79,30.3-62.83,22.84-62.83,22.84a39.87,39.87,0,0,1-17.75,4.89h0c-7,8.29-15.56,25,1.63,46.22H153l15.29,41.38s35.18,13.31,59.25,11.54c1.61-.12,3.18-.31,4.68-.57l1.33-.25c19.78-4.05,20.14-17.82,19.95-21-.47-.25-.95-.5-1.46-.75l-9.33-.56c-5.26-24.39,5.87-46.64,9.57-53.17,3,.12,6.3.24,9.84.35,15.88.52,35.66.76,40.81-.89l-.66-2.5a3,3,0,0,1,5.33-2.41,3.19,3.19,0,0,1,.41.92L321.1,435.7l1.56,6.08,1.29,5c20.2-7.6,35.74-15.35,47.69-22.88,48.1-30.38,37.86-57.41,37.86-57.41A41.93,41.93,0,0,1,391.59,363.55Z" transform="translate(-2.72 -4.77)"/><path class="cls-2" d="M190,348.2c-2.89-1.46-4.9-3-5.83-4.56a7.86,7.86,0,0,1-.53-1c-2.38-5.28.7-12.18,3.86-21.31a157.2,157.2,0,0,1-17,17.46h0c-34.79,30.3-62.83,22.84-62.83,22.84a30,30,0,0,0,5.2-3.74,17.5,17.5,0,0,0,5-7.86h0a20.59,20.59,0,0,0,.92-5.54c.29-8.59-4.34-17.74-11.88-21.78a101,101,0,0,1-10.63-6.58c-5.3-15.87,18.89-28.42,40.4-40.77s32.11-29.83,52.74-51.83a55.64,55.64,0,0,1,47-17.47,37.6,37.6,0,0,1-1.14,7.64c-2.56,10.34,16.4,16.81,29.57-11a20.94,20.94,0,0,1-1.56-3S284.2,190,305.9,213.7s31,47.49,52.72,61.05,42,24.62,40.44,41.38h0a100.88,100.88,0,0,1-10.62,6.58c-11.95,6.4-16.6,25.62-5.94,35.19a31.52,31.52,0,0,0,9.09,5.65c-23.59,6.34-52.25-11.46-75.15-36.69h0q-4-4.44-7.78-9.13a29.77,29.77,0,0,1-2.78,11.74h0c-5,11.11-19,25.6-58.14,21.93C222.94,357.25,200.56,353.52,190,348.2Z" transform="translate(-2.72 -4.77)"/><path class="cls-2" d="M464.78,446.2A12.14,12.14,0,0,0,486,438.1a11.87,11.87,0,0,0-.8-4.31,12.12,12.12,0,0,0-19.75-4.45c-.22.21-.43.42-.64.65V446.2ZM491,434.83A17.59,17.59,0,0,1,483,453a17.62,17.62,0,0,1-18.21.09v5.78a15.18,15.18,0,0,1-15.18,15.18H428a15.18,15.18,0,0,1-15.19-15.18V413.57h52v9.51A17.55,17.55,0,0,1,491,434.83Z" transform="translate(-2.72 -4.77)"/><path class="cls-5" d="M387.76,174.89a5.73,5.73,0,1,1-5.73,5.73A5.73,5.73,0,0,1,387.76,174.89Z" transform="translate(-2.72 -4.77)"/><polygon class="cls-5" points="384.56 232.87 384.56 243.35 374.08 243.35 363.61 243.35 363.61 222.39 384.56 222.39 384.56 232.87"/><circle class="cls-5" cx="363.05" cy="175.85" r="5.72"/><circle class="cls-5" cx="341.06" cy="175.85" r="5.72"/><path class="cls-5" d="M316.51,440.8l11,42.36C314.74,474,304.32,462.41,298,454.5c-1.6-2-2.94-3.76-4-5.18a78.78,78.78,0,0,1,21.9-11Z" transform="translate(-2.72 -4.77)"/><path class="cls-5" d="M301.07,91.26a25.92,25.92,0,1,1-9.69,50,8.42,8.42,0,0,0-8.14-6.27,6,6,0,0,0-1,.06,25.91,25.91,0,0,1,18.79-43.75Z" transform="translate(-2.72 -4.77)"/><path class="cls-6" d="M316.43,326.86a66.09,66.09,0,0,0-10.56,2.61,29.77,29.77,0,0,0,2.78-11.74Q312.4,322.43,316.43,326.86Z" transform="translate(-2.72 -4.77)"/><path class="cls-1" d="M291.38,141.22a7.79,7.79,0,0,1,.29,2.17,8.45,8.45,0,0,1-11.65,7.8h0a29.28,29.28,0,0,0-5.18-7.05,6.19,6.19,0,0,1,0-.75,8.43,8.43,0,0,1,7.48-8.38,6,6,0,0,1,1-.06A8.42,8.42,0,0,1,291.38,141.22Z" transform="translate(-2.72 -4.77)"/><path class="cls-5" d="M280,151.19a27.77,27.77,0,0,1,3.23,13c0,13.26-9.32,24.46-22.09,28.06a25.11,25.11,0,0,1-.2-5.12,9.25,9.25,0,0,0,4.88-3.1c2.87-3.42,3-8,.28-10.29a6.12,6.12,0,0,0-6.29-.72,9.5,9.5,0,0,0-3.79,2.77,159.22,159.22,0,0,0-14.52-29.73s-8.54.29-14.58,9.71a28,28,0,0,0-3.73,9.57q-.57,2.76-.91,5.42h0a27.48,27.48,0,0,1-.78-6.57c0-16.15,13.81-29.26,30.86-29.26a31.59,31.59,0,0,1,22.46,9.19A29.28,29.28,0,0,1,280,151.19Z" transform="translate(-2.72 -4.77)"/><path class="cls-5" d="M278.18,444.63h0l-4.36.26-8.65.51s-14.8,22.34-36.36,37.75l4.77-18.31c19.78-4.05,20.14-17.82,19.95-21,0-.43-.06-.67-.06-.67Z" transform="translate(-2.72 -4.77)"/><path class="cls-6" d="M187.49,321.34c-3.16,9.13-6.24,16-3.86,21.31,0,0-7.82-3.38-13.13-3.85A157.2,157.2,0,0,0,187.49,321.34Z" transform="translate(-2.72 -4.77)"/><path class="cls-5" d="M144.16,412.75l34,92.17H54.19l-3.11-9.44L33.64,442.6l-9.85-29.85H144.16ZM97.65,465.16c2.32-.6,3.21-5,2-9.76s-4.14-8.18-6.46-7.57-3.21,5-2,9.75S95.32,465.76,97.65,465.16Z" transform="translate(-2.72 -4.77)"/><path class="cls-1" d="M172.9,87.93a52.74,52.74,0,1,1-36.21-14.38A52.6,52.6,0,0,1,172.9,87.93Zm11.26,38.35a47.46,47.46,0,1,0-47.47,47.45A47.52,47.52,0,0,0,184.16,126.28Z" transform="translate(-2.72 -4.77)"/><path class="cls-5" d="M133.43,120.48a6.65,6.65,0,1,1-.74,11.11,6.76,6.76,0,0,1-2.26-3.07,6.58,6.58,0,0,1-.38-2.24A6.67,6.67,0,0,1,133.43,120.48Z" transform="translate(-2.72 -4.77)"/><path class="cls-1" d="M54,239v11.19H34.39V239a8.44,8.44,0,0,1,8.44-8.45h2.75A8.45,8.45,0,0,1,54,239Z" transform="translate(-2.72 -4.77)"/><path class="cls-1" d="M44.2,216.15a5.58,5.58,0,1,1-5.58,5.57A5.57,5.57,0,0,1,44.2,216.15Z" transform="translate(-2.72 -4.77)"/><path class="cls-2" d="M105.64,208.7a3,3,0,1,1,3,3A3,3,0,0,1,105.64,208.7Z" transform="translate(-2.72 -4.77)"/><path class="cls-2" d="M118.76,208.7a3,3,0,1,1,3,3A3,3,0,0,1,118.76,208.7Z" transform="translate(-2.72 -4.77)"/><path class="cls-2" d="M132,208.7a3,3,0,1,1,3,3A3,3,0,0,1,132,208.7Z" transform="translate(-2.72 -4.77)"/><circle class="cls-2" cx="105.94" cy="216.96" r="3.02"/><path class="cls-2" d="M118.76,221.73a3,3,0,1,1,3,3A3,3,0,0,1,118.76,221.73Z" transform="translate(-2.72 -4.77)"/><circle class="cls-2" cx="132.29" cy="216.96" r="3.02"/><path class="cls-2" d="M105.64,234.75a3,3,0,1,1,3,3A3,3,0,0,1,105.64,234.75Z" transform="translate(-2.72 -4.77)"/><path class="cls-2" d="M118.76,234.75a3,3,0,1,1,3,3A3,3,0,0,1,118.76,234.75Z" transform="translate(-2.72 -4.77)"/><path class="cls-2" d="M132,234.75a3,3,0,1,1,3,3A3,3,0,0,1,132,234.75Z" transform="translate(-2.72 -4.77)"/><path class="cls-5" d="M73.63,237.34a35.5,35.5,0,0,1-35.38,35.49c0-.25,0-.49-.06-.74-.3-3.61-.43-7.25-.4-10.89a28.83,28.83,0,0,0,34.95-24.4,27.62,27.62,0,0,0,.23-3.65,29,29,0,0,0-.24-3.74A35,35,0,0,1,73.63,237.34Z" transform="translate(-2.72 -4.77)"/><path class="cls-5" d="M257.73,187.15s-2.84,16.71-21.74,23a28.07,28.07,0,0,0-.73-12.16A24.53,24.53,0,0,0,257,186.86Z" transform="translate(-2.72 -4.77)"/><path class="cls-5" d="M183.47,150.66A61.3,61.3,0,0,1,73.32,166.21a224.11,224.11,0,0,1,15.34-18.15,52.76,52.76,0,0,0,94.81,2.6Z" transform="translate(-2.72 -4.77)"/><path class="cls-1" d="M233.86,225.23a2.65,2.65,0,1,1,2.64,2.64A2.64,2.64,0,0,1,233.86,225.23Z" transform="translate(-2.72 -4.77)"/><path class="cls-1" d="M233.86,246.92a2.65,2.65,0,1,1,2.64,2.64A2.65,2.65,0,0,1,233.86,246.92Z" transform="translate(-2.72 -4.77)"/><path class="cls-1" d="M233.86,268.6a2.65,2.65,0,1,1,2.64,2.65A2.64,2.64,0,0,1,233.86,268.6Z" transform="translate(-2.72 -4.77)"/><path class="cls-1" d="M233.86,290.29a2.65,2.65,0,1,1,2.64,2.65A2.64,2.64,0,0,1,233.86,290.29Z" transform="translate(-2.72 -4.77)"/><path class="cls-1" d="M233.86,312a2.65,2.65,0,1,1,2.64,2.64A2.65,2.65,0,0,1,233.86,312Z" transform="translate(-2.72 -4.77)"/><path class="cls-1" d="M233.86,333.67a2.65,2.65,0,1,1,2.64,2.64A2.65,2.65,0,0,1,233.86,333.67Z" transform="translate(-2.72 -4.77)"/><path class="cls-1" d="M212.46,225.23a2.65,2.65,0,1,1,2.65,2.64A2.65,2.65,0,0,1,212.46,225.23Z" transform="translate(-2.72 -4.77)"/><path class="cls-1" d="M212.46,246.92a2.65,2.65,0,1,1,2.65,2.64A2.65,2.65,0,0,1,212.46,246.92Z" transform="translate(-2.72 -4.77)"/><path class="cls-1" d="M212.46,268.6a2.65,2.65,0,1,1,2.65,2.65A2.65,2.65,0,0,1,212.46,268.6Z" transform="translate(-2.72 -4.77)"/><path class="cls-1" d="M212.46,290.29a2.65,2.65,0,1,1,2.65,2.65A2.65,2.65,0,0,1,212.46,290.29Z" transform="translate(-2.72 -4.77)"/><path class="cls-1" d="M212.46,312a2.65,2.65,0,1,1,2.65,2.64A2.65,2.65,0,0,1,212.46,312Z" transform="translate(-2.72 -4.77)"/><path class="cls-1" d="M212.46,333.67a2.65,2.65,0,1,1,2.65,2.64A2.65,2.65,0,0,1,212.46,333.67Z" transform="translate(-2.72 -4.77)"/><path class="cls-1" d="M276.66,203.54a2.65,2.65,0,1,1,2.64,2.65A2.64,2.64,0,0,1,276.66,203.54Z" transform="translate(-2.72 -4.77)"/><path class="cls-1" d="M276.66,225.23a2.65,2.65,0,1,1,2.64,2.64A2.64,2.64,0,0,1,276.66,225.23Z" transform="translate(-2.72 -4.77)"/><path class="cls-1" d="M276.66,246.92a2.65,2.65,0,1,1,2.64,2.64A2.65,2.65,0,0,1,276.66,246.92Z" transform="translate(-2.72 -4.77)"/><circle class="cls-1" cx="276.59" cy="263.83" r="2.64"/><path class="cls-1" d="M276.66,290.29a2.65,2.65,0,1,1,2.64,2.65A2.64,2.64,0,0,1,276.66,290.29Z" transform="translate(-2.72 -4.77)"/><path class="cls-1" d="M276.66,312a2.65,2.65,0,1,1,2.64,2.64A2.65,2.65,0,0,1,276.66,312Z" transform="translate(-2.72 -4.77)"/><path class="cls-1" d="M276.66,333.67a2.65,2.65,0,1,1,2.64,2.64A2.65,2.65,0,0,1,276.66,333.67Z" transform="translate(-2.72 -4.77)"/><path class="cls-1" d="M255.26,203.54a2.65,2.65,0,1,1,2.64,2.65A2.64,2.64,0,0,1,255.26,203.54Z" transform="translate(-2.72 -4.77)"/><path class="cls-1" d="M255.26,225.23a2.65,2.65,0,1,1,2.64,2.64A2.64,2.64,0,0,1,255.26,225.23Z" transform="translate(-2.72 -4.77)"/><path class="cls-1" d="M255.26,246.92a2.65,2.65,0,1,1,2.64,2.64A2.65,2.65,0,0,1,255.26,246.92Z" transform="translate(-2.72 -4.77)"/><path class="cls-1" d="M255.26,268.6a2.65,2.65,0,1,1,2.64,2.65A2.64,2.64,0,0,1,255.26,268.6Z" transform="translate(-2.72 -4.77)"/><path class="cls-1" d="M255.26,290.29a2.65,2.65,0,1,1,2.64,2.65A2.64,2.64,0,0,1,255.26,290.29Z" transform="translate(-2.72 -4.77)"/><path class="cls-1" d="M255.26,312a2.65,2.65,0,1,1,2.64,2.64A2.65,2.65,0,0,1,255.26,312Z" transform="translate(-2.72 -4.77)"/><path class="cls-1" d="M255.26,333.67a2.65,2.65,0,1,1,2.64,2.64A2.65,2.65,0,0,1,255.26,333.67Z" transform="translate(-2.72 -4.77)"/><path class="cls-1" d="M319.46,246.92a2.64,2.64,0,1,1,2.64,2.64A2.65,2.65,0,0,1,319.46,246.92Z" transform="translate(-2.72 -4.77)"/><circle class="cls-1" cx="319.38" cy="263.83" r="2.64"/><path class="cls-1" d="M319.46,290.29a2.64,2.64,0,1,1,2.64,2.65A2.64,2.64,0,0,1,319.46,290.29Z" transform="translate(-2.72 -4.77)"/><path class="cls-1" d="M319.46,312a2.64,2.64,0,1,1,2.64,2.64A2.65,2.65,0,0,1,319.46,312Z" transform="translate(-2.72 -4.77)"/><path class="cls-1" d="M298.06,225.23a2.64,2.64,0,1,1,2.64,2.64A2.64,2.64,0,0,1,298.06,225.23Z" transform="translate(-2.72 -4.77)"/><path class="cls-1" d="M298.06,246.92a2.64,2.64,0,1,1,2.64,2.64A2.65,2.65,0,0,1,298.06,246.92Z" transform="translate(-2.72 -4.77)"/><path class="cls-1" d="M298.06,268.6a2.64,2.64,0,1,1,2.64,2.65A2.64,2.64,0,0,1,298.06,268.6Z" transform="translate(-2.72 -4.77)"/><path class="cls-1" d="M298.06,290.29a2.64,2.64,0,1,1,2.64,2.65A2.64,2.64,0,0,1,298.06,290.29Z" transform="translate(-2.72 -4.77)"/><path class="cls-1" d="M298.06,312a2.64,2.64,0,1,1,2.64,2.64A2.65,2.65,0,0,1,298.06,312Z" transform="translate(-2.72 -4.77)"/><path class="cls-1" d="M298.06,333.67a2.64,2.64,0,1,1,2.64,2.64A2.65,2.65,0,0,1,298.06,333.67Z" transform="translate(-2.72 -4.77)"/><path class="cls-1" d="M362.25,290.29a2.65,2.65,0,1,1,2.65,2.65A2.65,2.65,0,0,1,362.25,290.29Z" transform="translate(-2.72 -4.77)"/><path class="cls-1" d="M362.25,312a2.65,2.65,0,1,1,2.65,2.64A2.65,2.65,0,0,1,362.25,312Z" transform="translate(-2.72 -4.77)"/><path class="cls-1" d="M362.25,333.67a2.65,2.65,0,1,1,2.65,2.64A2.65,2.65,0,0,1,362.25,333.67Z" transform="translate(-2.72 -4.77)"/><path class="cls-1" d="M362.25,355.35A2.65,2.65,0,1,1,364.9,358,2.65,2.65,0,0,1,362.25,355.35Z" transform="translate(-2.72 -4.77)"/><path class="cls-1" d="M340.86,268.6a2.64,2.64,0,1,1,2.64,2.65A2.64,2.64,0,0,1,340.86,268.6Z" transform="translate(-2.72 -4.77)"/><path class="cls-1" d="M340.86,290.29a2.64,2.64,0,1,1,2.64,2.65A2.64,2.64,0,0,1,340.86,290.29Z" transform="translate(-2.72 -4.77)"/><path class="cls-1" d="M340.86,312a2.64,2.64,0,1,1,2.64,2.64A2.65,2.65,0,0,1,340.86,312Z" transform="translate(-2.72 -4.77)"/><path class="cls-1" d="M340.86,333.67a2.64,2.64,0,1,1,2.64,2.64A2.65,2.65,0,0,1,340.86,333.67Z" transform="translate(-2.72 -4.77)"/><path class="cls-1" d="M383.65,312a2.65,2.65,0,1,1,2.65,2.64A2.65,2.65,0,0,1,383.65,312Z" transform="translate(-2.72 -4.77)"/><path class="cls-1" d="M148.27,268.6a2.64,2.64,0,1,1,2.64,2.65A2.64,2.64,0,0,1,148.27,268.6Z" transform="translate(-2.72 -4.77)"/><path class="cls-1" d="M148.27,290.29a2.64,2.64,0,1,1,2.64,2.65A2.64,2.64,0,0,1,148.27,290.29Z" transform="translate(-2.72 -4.77)"/><path class="cls-1" d="M148.27,312a2.64,2.64,0,1,1,2.64,2.64A2.65,2.65,0,0,1,148.27,312Z" transform="translate(-2.72 -4.77)"/><path class="cls-1" d="M148.27,333.67a2.64,2.64,0,1,1,2.64,2.64A2.65,2.65,0,0,1,148.27,333.67Z" transform="translate(-2.72 -4.77)"/><path class="cls-1" d="M126.87,290.29a2.64,2.64,0,1,1,2.64,2.65A2.64,2.64,0,0,1,126.87,290.29Z" transform="translate(-2.72 -4.77)"/><path class="cls-1" d="M126.87,312a2.64,2.64,0,1,1,2.64,2.64A2.65,2.65,0,0,1,126.87,312Z" transform="translate(-2.72 -4.77)"/><path class="cls-1" d="M126.87,333.67a2.64,2.64,0,1,1,2.64,2.64A2.65,2.65,0,0,1,126.87,333.67Z" transform="translate(-2.72 -4.77)"/><path class="cls-1" d="M126.87,355.35a2.64,2.64,0,1,1,2.64,2.65A2.64,2.64,0,0,1,126.87,355.35Z" transform="translate(-2.72 -4.77)"/><path class="cls-1" d="M191.06,225.23a2.65,2.65,0,1,1,2.65,2.64A2.65,2.65,0,0,1,191.06,225.23Z" transform="translate(-2.72 -4.77)"/><path class="cls-1" d="M191.06,246.92a2.65,2.65,0,1,1,2.65,2.64A2.65,2.65,0,0,1,191.06,246.92Z" transform="translate(-2.72 -4.77)"/><circle class="cls-1" cx="190.99" cy="263.83" r="2.64"/><path class="cls-1" d="M191.06,290.29a2.65,2.65,0,1,1,2.65,2.65A2.65,2.65,0,0,1,191.06,290.29Z" transform="translate(-2.72 -4.77)"/><path class="cls-1" d="M191.06,312a2.65,2.65,0,1,1,2.65,2.64A2.65,2.65,0,0,1,191.06,312Z" transform="translate(-2.72 -4.77)"/><path class="cls-1" d="M191.06,333.67a2.65,2.65,0,1,1,2.65,2.64A2.65,2.65,0,0,1,191.06,333.67Z" transform="translate(-2.72 -4.77)"/><path class="cls-1" d="M169.67,246.92a2.64,2.64,0,1,1,2.64,2.64A2.65,2.65,0,0,1,169.67,246.92Z" transform="translate(-2.72 -4.77)"/><path class="cls-1" d="M169.67,268.6a2.64,2.64,0,1,1,2.64,2.65A2.64,2.64,0,0,1,169.67,268.6Z" transform="translate(-2.72 -4.77)"/><path class="cls-1" d="M169.67,290.29a2.64,2.64,0,1,1,2.64,2.65A2.64,2.64,0,0,1,169.67,290.29Z" transform="translate(-2.72 -4.77)"/><path class="cls-1" d="M169.67,312a2.64,2.64,0,1,1,2.64,2.64A2.65,2.65,0,0,1,169.67,312Z" transform="translate(-2.72 -4.77)"/><path class="cls-1" d="M169.67,333.67a2.64,2.64,0,1,1,2.64,2.64A2.65,2.65,0,0,1,169.67,333.67Z" transform="translate(-2.72 -4.77)"/><path class="cls-1" d="M105.47,312a2.65,2.65,0,1,1,2.64,2.64A2.65,2.65,0,0,1,105.47,312Z" transform="translate(-2.72 -4.77)"/><polygon class="cls-1" points="421.57 120.85 409.7 141.42 433.44 141.42 421.57 120.85"/><path class="cls-5" d="M426.82,431.9a2,2,0,1,1,2,2A2,2,0,0,1,426.82,431.9Z" transform="translate(-2.72 -4.77)"/><path class="cls-5" d="M426.82,449.79a2,2,0,1,1,2,2A2,2,0,0,1,426.82,449.79Z" transform="translate(-2.72 -4.77)"/><path class="cls-5" d="M426.82,440.85a2,2,0,1,1,2,2A2,2,0,0,1,426.82,440.85Z" transform="translate(-2.72 -4.77)"/><path class="cls-5" d="M446.65,431.9a2,2,0,1,1,2,2A2,2,0,0,1,446.65,431.9Z" transform="translate(-2.72 -4.77)"/><path class="cls-5" d="M446.65,449.79a2,2,0,1,1,2,2A2,2,0,0,1,446.65,449.79Z" transform="translate(-2.72 -4.77)"/><path class="cls-5" d="M446.65,440.85a2,2,0,1,1,2,2A2,2,0,0,1,446.65,440.85Z" transform="translate(-2.72 -4.77)"/><path class="cls-5" d="M436.74,431.9a2,2,0,1,1,2,2A2,2,0,0,1,436.74,431.9Z" transform="translate(-2.72 -4.77)"/><path class="cls-5" d="M436.74,449.79a2,2,0,1,1,2,2A2,2,0,0,1,436.74,449.79Z" transform="translate(-2.72 -4.77)"/><path class="cls-5" d="M436.74,440.85a2,2,0,1,1,2,2A2,2,0,0,1,436.74,440.85Z" transform="translate(-2.72 -4.77)"/><path class="cls-3" d="M227.57,114.58A3.61,3.61,0,0,1,224,111v-8.59h-8.6a3.61,3.61,0,1,1,0-7.21H224V86.56a3.62,3.62,0,0,1,3.61-3.6,3.61,3.61,0,0,1,3.6,3.6v8.61h8.6a3.61,3.61,0,0,1,0,7.21h-8.6V111a3.62,3.62,0,0,1-3.6,3.61ZM215.36,96.65a2.12,2.12,0,0,0-2.12,2.12,2.15,2.15,0,0,0,2.12,2.12h9.34a.75.75,0,0,1,.75.74V111a2.12,2.12,0,0,0,2.12,2.12,2.12,2.12,0,0,0,2.11-2.12v-9.34a.75.75,0,0,1,.75-.74h9.34a2.12,2.12,0,0,0,0-4.24h-9.34a.75.75,0,0,1-.75-.74V86.56a2.12,2.12,0,0,0-4.23,0v9.35a.75.75,0,0,1-.75.74Z" transform="translate(-2.72 -4.77)"/><path class="cls-3" d="M332.93,215.71a.74.74,0,0,1-.5-.2.72.72,0,0,1-.18-.84l4.81-11a.44.44,0,0,0-.41-.61H328a10,10,0,0,1-10-10v-24.5a10,10,0,0,1,10-10h75.52a10,10,0,0,1,10,10v24.5a10,10,0,0,1-10,10H358.44a8.35,8.35,0,0,0-4,1l-21.17,11.55A.73.73,0,0,1,332.93,215.71ZM328,160.07a8.51,8.51,0,0,0-8.5,8.5v24.5a8.51,8.51,0,0,0,8.5,8.5h8.64a1.92,1.92,0,0,1,1.77,2.7l-3.94,9,19.26-10.5a9.72,9.72,0,0,1,4.7-1.2h45.09a8.5,8.5,0,0,0,8.49-8.5v-24.5a8.5,8.5,0,0,0-8.49-8.5Z" transform="translate(-2.72 -4.77)"/><path class="cls-3" d="M365.77,187.09a6.47,6.47,0,1,1,6.46-6.47A6.47,6.47,0,0,1,365.77,187.09Zm0-11.45a5,5,0,1,0,5,5A5,5,0,0,0,365.77,175.64Z" transform="translate(-2.72 -4.77)"/><path class="cls-3" d="M343.77,187.09a6.47,6.47,0,1,1,6.47-6.47A6.47,6.47,0,0,1,343.77,187.09Zm0-11.45a5,5,0,1,0,5,5A5,5,0,0,0,343.77,175.64Z" transform="translate(-2.72 -4.77)"/><path class="cls-3" d="M387.76,187.09a6.47,6.47,0,1,1,6.47-6.47A6.47,6.47,0,0,1,387.76,187.09Zm0-11.45a5,5,0,1,0,5,5A5,5,0,0,0,387.76,175.64Z" transform="translate(-2.72 -4.77)"/><path class="cls-3" d="M118.86,212.88a4.18,4.18,0,1,1,4.18-4.17A4.17,4.17,0,0,1,118.86,212.88Zm0-6.87a2.69,2.69,0,1,0,2.69,2.7A2.7,2.7,0,0,0,118.86,206Z" transform="translate(-2.72 -4.77)"/><path class="cls-3" d="M105.68,212.88a4.18,4.18,0,1,1,4.18-4.17A4.17,4.17,0,0,1,105.68,212.88Zm0-6.87a2.69,2.69,0,1,0,2.7,2.7A2.69,2.69,0,0,0,105.68,206Z" transform="translate(-2.72 -4.77)"/><path class="cls-3" d="M132,212.88a4.18,4.18,0,1,1,4.18-4.17A4.17,4.17,0,0,1,132,212.88Zm0-6.87a2.69,2.69,0,1,0,2.69,2.7A2.69,2.69,0,0,0,132,206Z" transform="translate(-2.72 -4.77)"/><path class="cls-3" d="M118.86,238.92a4.17,4.17,0,1,1,4.18-4.17A4.17,4.17,0,0,1,118.86,238.92Zm0-6.85a2.68,2.68,0,1,0,2.69,2.68A2.69,2.69,0,0,0,118.86,232.07Z" transform="translate(-2.72 -4.77)"/><path class="cls-3" d="M105.68,238.92a4.17,4.17,0,1,1,4.18-4.17A4.17,4.17,0,0,1,105.68,238.92Zm0-6.85a2.68,2.68,0,1,0,2.7,2.68A2.68,2.68,0,0,0,105.68,232.07Z" transform="translate(-2.72 -4.77)"/><path class="cls-3" d="M132,238.92a4.17,4.17,0,1,1,4.18-4.17A4.17,4.17,0,0,1,132,238.92Zm0-6.85a2.68,2.68,0,1,0,2.69,2.68A2.68,2.68,0,0,0,132,232.07Z" transform="translate(-2.72 -4.77)"/><path class="cls-3" d="M118.86,225.9a4.18,4.18,0,1,1,4.18-4.18A4.18,4.18,0,0,1,118.86,225.9Zm0-6.86a2.69,2.69,0,1,0,2.69,2.68A2.69,2.69,0,0,0,118.86,219Z" transform="translate(-2.72 -4.77)"/><path class="cls-3" d="M105.68,225.9a4.18,4.18,0,1,1,4.18-4.18A4.18,4.18,0,0,1,105.68,225.9Zm0-6.86a2.69,2.69,0,1,0,2.7,2.68A2.68,2.68,0,0,0,105.68,219Z" transform="translate(-2.72 -4.77)"/><path class="cls-3" d="M132,225.9a4.18,4.18,0,1,1,4.18-4.18A4.18,4.18,0,0,1,132,225.9Zm0-6.86a2.69,2.69,0,1,0,2.69,2.68A2.68,2.68,0,0,0,132,219Z" transform="translate(-2.72 -4.77)"/><path class="cls-3" d="M44.2,262.66a30,30,0,0,1-6.57-.73l-.1,0a29.51,29.51,0,0,1,6.67-58.26,29.46,29.46,0,0,1,29.52,29.51A29.55,29.55,0,0,1,44.2,262.66Zm-6.15-2.16a32.15,32.15,0,1,0-.09,0Z" transform="translate(-2.72 -4.77)"/><path class="cls-3" d="M44.2,228.05a6.33,6.33,0,1,1,6.33-6.33A6.34,6.34,0,0,1,44.2,228.05Zm0-11.16A4.84,4.84,0,1,0,49,221.72,4.84,4.84,0,0,0,44.2,216.89Z" transform="translate(-2.72 -4.77)"/><path class="cls-3" d="M54,250.9H34.39a.76.76,0,0,1-.75-.75V239a9.2,9.2,0,0,1,9.19-9.19h2.75A9.19,9.19,0,0,1,54.76,239v11.19A.75.75,0,0,1,54,250.9Zm-18.89-1.49H53.28V239a7.72,7.72,0,0,0-7.7-7.71H42.83a7.72,7.72,0,0,0-7.7,7.71Z" transform="translate(-2.72 -4.77)"/><path class="cls-3" d="M236.92,198.74c-.56,0-1.12,0-1.71-.05a13.22,13.22,0,0,1-9.83-4.75c-3.88-4.71-5.2-12.75-3.82-23.25.22-1.76.53-3.61.91-5.48a28.68,28.68,0,0,1,3.84-9.82c6.17-9.64,14.81-10,15.18-10.06a.76.76,0,0,1,.65.34,163.69,163.69,0,0,1,14.19,28.74,10,10,0,0,1,3.21-2.07,6.89,6.89,0,0,1,7,.85,6.33,6.33,0,0,1,2.19,4.4,9.63,9.63,0,0,1-2.38,6.93,10,10,0,0,1-5.28,3.36,7.18,7.18,0,0,1-3.51,0,.57.57,0,0,1-.08.13A25.41,25.41,0,0,1,236.92,198.74Zm4.21-51.88c-1.73.21-8.57,1.53-13.57,9.33a27.16,27.16,0,0,0-3.63,9.31c-.38,1.84-.68,3.65-.9,5.38-1.32,10.08-.11,17.73,3.5,22.12a11.83,11.83,0,0,0,8.78,4.21c10.59.65,17.19-5,20.89-9.9a6.66,6.66,0,0,1-.93-.64.76.76,0,0,1-.09-1,.74.74,0,0,1,1.05-.09,4.19,4.19,0,0,0,1,.65,5.43,5.43,0,0,0,3.5.25,8.54,8.54,0,0,0,4.48-2.86,8.19,8.19,0,0,0,2-5.85,4.85,4.85,0,0,0-1.66-3.39,5.41,5.41,0,0,0-5.55-.6,8.74,8.74,0,0,0-3.49,2.56.74.74,0,0,1-.7.25.75.75,0,0,1-.57-.49A160,160,0,0,0,241.13,146.86Z" transform="translate(-2.72 -4.77)"/><path class="cls-3" d="M257.73,180.82a.78.78,0,0,1-.5-.2.74.74,0,0,1-.05-1,8.89,8.89,0,0,1,7.75-2.28.73.73,0,0,1,.63.83.75.75,0,0,1-.84.64,7.43,7.43,0,0,0-6.44,1.81A.72.72,0,0,1,257.73,180.82Z" transform="translate(-2.72 -4.77)"/><path class="cls-3" d="M261.75,183.57a.75.75,0,0,1-.7-1c.27-.72.78-2.84-.14-3.95a.75.75,0,0,1,.11-1.05.73.73,0,0,1,1,.11c1.65,2,.44,5.28.38,5.42A.73.73,0,0,1,261.75,183.57Z" transform="translate(-2.72 -4.77)"/><path class="cls-3" d="M247.73,166.35a.75.75,0,0,1-.62-.32,6.14,6.14,0,0,0-7.52-2.07.75.75,0,1,1-.59-1.37c5.79-2.47,9.31,2.55,9.34,2.6a.74.74,0,0,1-.61,1.16Z" transform="translate(-2.72 -4.77)"/><path class="cls-3" d="M231.85,162.51a.74.74,0,0,1-.58-.28,4.49,4.49,0,0,0-6.14-1.28.75.75,0,0,1-1-.21.74.74,0,0,1,.2-1,5.94,5.94,0,0,1,8.13,1.59.76.76,0,0,1-.12,1A.74.74,0,0,1,231.85,162.51Z" transform="translate(-2.72 -4.77)"/><path class="cls-3" d="M232.88,179.81l-.16,0c-2.35-.51-3.69-1.31-4.19-2.51-.59-1.39.15-2.91,1-4.2a45.21,45.21,0,0,0,3.07-6.05.76.76,0,0,1,1-.42.74.74,0,0,1,.41,1,45.08,45.08,0,0,1-3.19,6.29c-.84,1.36-1.11,2.23-.85,2.83s1.37,1.25,3.14,1.64a.74.74,0,0,1-.16,1.47Z" transform="translate(-2.72 -4.77)"/><path class="cls-3" d="M234,185a12.82,12.82,0,0,1-7.87-2.76.74.74,0,0,1,.9-1.18,11,11,0,0,0,10.55,1.82.74.74,0,0,1,.6,1.36A11,11,0,0,1,234,185Z" transform="translate(-2.72 -4.77)"/><path class="cls-3" d="M231.75,187.89a3.76,3.76,0,0,1-2.3-.8.74.74,0,0,1,.9-1.18,2.18,2.18,0,0,0,2.08.38.75.75,0,0,1,1,.4.74.74,0,0,1-.38,1A3.5,3.5,0,0,1,231.75,187.89Z" transform="translate(-2.72 -4.77)"/><path class="cls-3" d="M239.3,185.52a.72.72,0,0,1-.29-.06,3.5,3.5,0,0,1-1.77-1.6,4.2,4.2,0,0,1-.52-2,.75.75,0,0,1,1.49,0,2.82,2.82,0,0,0,.34,1.22,2,2,0,0,0,1,.94.74.74,0,0,1,.39,1A.73.73,0,0,1,239.3,185.52Z" transform="translate(-2.72 -4.77)"/><path class="cls-3" d="M381.47,115.74a.75.75,0,0,1-.52-1.27l5.47-5.47a.74.74,0,1,1,1.05,1L382,115.52A.75.75,0,0,1,381.47,115.74Z" transform="translate(-2.72 -4.77)"/><path class="cls-3" d="M371.64,125.57a.77.77,0,0,1-.53-.21.75.75,0,0,1,0-1.06l5.48-5.48a.74.74,0,0,1,1.05,0,.75.75,0,0,1,0,1.06l-5.48,5.48A.73.73,0,0,1,371.64,125.57Z" transform="translate(-2.72 -4.77)"/><path class="cls-3" d="M387,125.57a.77.77,0,0,1-.53-.21L381,119.88a.75.75,0,0,1,0-1.06.73.73,0,0,1,1.05,0l5.47,5.47a.75.75,0,0,1,0,1.06A.73.73,0,0,1,387,125.57Z" transform="translate(-2.72 -4.77)"/><path class="cls-3" d="M377.12,115.74a.79.79,0,0,1-.53-.22l-5.48-5.47a.74.74,0,1,1,1.05-1l5.48,5.47a.75.75,0,0,1-.52,1.27Z" transform="translate(-2.72 -4.77)"/><path class="cls-3" d="M464.78,449.79A.75.75,0,0,1,464,449V427.73a.74.74,0,1,1,1.48,0V449A.75.75,0,0,1,464.78,449.79Z" transform="translate(-2.72 -4.77)"/><path class="cls-3" d="M449.6,474.83H428A16,16,0,0,1,412,458.9V413.57a.75.75,0,0,1,.75-.74h52a.74.74,0,0,1,.74.74v9.51a.74.74,0,1,1-1.48,0v-8.76H413.51V458.9A14.46,14.46,0,0,0,428,473.34H449.6A14.46,14.46,0,0,0,464,458.9v-5.78a.74.74,0,1,1,1.48,0v5.78A15.94,15.94,0,0,1,449.6,474.83Z" transform="translate(-2.72 -4.77)"/><path class="cls-3" d="M473.83,456.36a18.17,18.17,0,0,1-9.43-2.61.74.74,0,1,1,.76-1.27A16.79,16.79,0,0,0,490.6,438.1a17.11,17.11,0,0,0-.29-3.13,16.8,16.8,0,0,0-25.15-11.25.75.75,0,0,1-1-.25.76.76,0,0,1,.25-1,18.27,18.27,0,1,1,9.44,33.92Z" transform="translate(-2.72 -4.77)"/><path class="cls-3" d="M473.83,451a12.92,12.92,0,0,1-9.61-4.29.75.75,0,0,1,.06-1.05.73.73,0,0,1,1.05.06,11.43,11.43,0,0,0,8.5,3.79,11.23,11.23,0,0,0,3.55-.57,11.39,11.39,0,0,0,7.84-10.83,11.27,11.27,0,0,0-.74-4.05,11.47,11.47,0,0,0-10.65-7.36,11.29,11.29,0,0,0-7.9,3.19c-.21.2-.41.4-.6.61a.74.74,0,1,1-1.1-1,9,9,0,0,1,.68-.7,12.73,12.73,0,0,1,8.92-3.59,13,13,0,0,1,12,8.31,12.65,12.65,0,0,1,.84,4.58,12.86,12.86,0,0,1-8.86,12.24A12.72,12.72,0,0,1,473.83,451Z" transform="translate(-2.72 -4.77)"/><path class="cls-3" d="M249.6,505.66H54.19a.73.73,0,0,1-.7-.51L23.09,413a.73.73,0,0,1,.1-.67.75.75,0,0,1,.6-.31H153a.72.72,0,0,1,.69.49L184.6,496h65a.74.74,0,0,1,.74.74v8.14A.74.74,0,0,1,249.6,505.66ZM54.73,504.18H248.86v-6.66h-64.7a.76.76,0,0,1-.8-.54L152.51,413.5H24.82Z" transform="translate(-2.72 -4.77)"/><path class="cls-3" d="M178.12,505.66a.74.74,0,0,1-.7-.48l-34-92.17a.75.75,0,0,1,1.4-.51l34,92.16a.75.75,0,0,1-.44,1A.82.82,0,0,1,178.12,505.66Z" transform="translate(-2.72 -4.77)"/><path class="cls-3" d="M97.11,466c-2.58,0-5.39-3.39-6.64-8.2a15.75,15.75,0,0,1-.36-6.78c.43-2.14,1.44-3.51,2.86-3.88a3.4,3.4,0,0,1,2.62.46c2,1.18,3.83,4.11,4.75,7.64h0a15.79,15.79,0,0,1,.36,6.79c-.43,2.13-1.45,3.51-2.87,3.88A2.84,2.84,0,0,1,97.11,466Zm-3.4-17.47a1.57,1.57,0,0,0-.37.05c-.82.21-1.47,1.21-1.77,2.73a14.14,14.14,0,0,0,.34,6.12c1.22,4.68,3.9,7.47,5.55,7,.82-.21,1.47-1.21,1.78-2.74a14.1,14.1,0,0,0-.34-6.11h0c-.81-3.12-2.4-5.76-4.06-6.73A2.22,2.22,0,0,0,93.71,448.5Z" transform="translate(-2.72 -4.77)"/><path class="cls-3" d="M282.78,390.84c-6.69,0-14-.17-20.65-.38-3-.1-6.24-.21-9.85-.36a.75.75,0,0,1,.06-1.49c3.6.15,6.82.27,9.83.36,22.19.72,36.6.41,40.56-.86a.77.77,0,0,1,1,.71.75.75,0,0,1-.58.73C300,390.52,292,390.84,282.78,390.84Z" transform="translate(-2.72 -4.77)"/><path class="cls-3" d="M334.44,488.42a.7.7,0,0,1-.37-.11c-2.26-1.33-4.6-2.86-6.95-4.55-12.81-9.15-23.24-20.71-29.73-28.8-1.7-2.11-3.1-4-4-5.19-1.35-1.82-2.23-3.09-2.6-3.64l-48.09-2.86a.74.74,0,0,1-.69-.79.73.73,0,0,1,.78-.69l48.45,2.87a.75.75,0,0,1,.58.34s1,1.48,2.76,3.88c.9,1.21,2.3,3.06,4,5.15,6.43,8,16.76,19.47,29.43,28.52,2.32,1.66,4.62,3.17,6.84,4.48a.75.75,0,0,1-.38,1.39Z" transform="translate(-2.72 -4.77)"/><path class="cls-3" d="M334.44,488.42a.75.75,0,0,1-.73-.61L307.32,385a2.2,2.2,0,0,0-2.79-1.56,2.22,2.22,0,0,0-1.5,2.69l.65,2.49s0,0,0,.06L328.27,483a.63.63,0,0,1,0,.19.76.76,0,0,1-.75.75.74.74,0,0,1-.73-.61L302.24,389a.11.11,0,0,1,0,0l-.64-2.46a3.71,3.71,0,0,1,6.65-3,3.63,3.63,0,0,1,.52,1.15l26.4,102.85a.57.57,0,0,1,0,.18A.76.76,0,0,1,334.44,488.42Z" transform="translate(-2.72 -4.77)"/><path class="cls-3" d="M294,450.07a.75.75,0,0,1-.45-1.34,80.21,80.21,0,0,1,22.12-11.11.74.74,0,0,1,.45,1.42,79.15,79.15,0,0,0-21.67,10.87A.69.69,0,0,1,294,450.07Z" transform="translate(-2.72 -4.77)"/><path class="cls-3" d="M221.92,488.42a.75.75,0,0,1-.38-1.39c2.2-1.3,4.44-2.77,6.84-4.48,21.19-15.14,36-37.33,36.17-37.55a.75.75,0,0,1,.58-.34l13-.76a.74.74,0,1,1,.08,1.48l-12.64.75c-1.89,2.76-16.29,23.31-36.34,37.63-2.43,1.74-4.71,3.23-7,4.55A.75.75,0,0,1,221.92,488.42Z" transform="translate(-2.72 -4.77)"/><path class="cls-3" d="M221.92,488.42a.74.74,0,0,1-.75-.74.63.63,0,0,1,0-.19l5.65-22a.73.73,0,0,1,.9-.53.74.74,0,0,1,.54.9l-5.65,22A.75.75,0,0,1,221.92,488.42Z" transform="translate(-2.72 -4.77)"/><path class="cls-3" d="M228.81,483.9l-.19,0a.74.74,0,0,1-.53-.91l4.77-18.31a.74.74,0,0,1,.91-.53.75.75,0,0,1,.53.91l-4.77,18.31A.75.75,0,0,1,228.81,483.9Z" transform="translate(-2.72 -4.77)"/><path class="cls-3" d="M253.52,444.58a.84.84,0,0,1-.34-.08h0l-1.43-.74a.75.75,0,0,1-.34-1,.76.76,0,0,1,1-.33c.51.25,1,.51,1.46.75a.75.75,0,0,1-.34,1.41Z" transform="translate(-2.72 -4.77)"/><path class="cls-3" d="M278.1,422.54a.71.71,0,0,1-.37-.1.74.74,0,0,1-.26-1c.08-.13,2-3.37,5-3.5,1.83-.08,3.55,1,5.14,3.23a.75.75,0,1,1-1.21.87q-1.92-2.68-3.86-2.61c-2.16.09-3.77,2.74-3.79,2.77A.74.74,0,0,1,278.1,422.54Z" transform="translate(-2.72 -4.77)"/><path class="cls-3" d="M387.27,248.87H366.32a.75.75,0,0,1-.74-.75v-21a.75.75,0,0,1,.74-.75h20.95a.76.76,0,0,1,.75.75v21A.76.76,0,0,1,387.27,248.87Zm-20.2-1.49h19.46V227.91H367.07Z" transform="translate(-2.72 -4.77)"/><path class="cls-3" d="M397.75,259.34h-21a.74.74,0,0,1-.74-.74V248.12a.74.74,0,0,1,1.48,0v9.74H397V238.38h-9.74a.74.74,0,0,1,0-1.48h10.48a.74.74,0,0,1,.74.74v21A.74.74,0,0,1,397.75,259.34Z" transform="translate(-2.72 -4.77)"/><path class="cls-3" d="M136.69,179.76A53.6,53.6,0,0,1,88,148.36h0a53,53,0,0,1-4.76-22.08,53.48,53.48,0,1,1,53.47,53.48Zm0-105.47a52.05,52.05,0,0,0-52,52,51.45,51.45,0,0,0,4.64,21.47h0a52,52,0,0,0,99.35-21.47,52,52,0,0,0-52-52Z" transform="translate(-2.72 -4.77)"/><path class="cls-3" d="M136.69,174.48a48.21,48.21,0,1,1,48.21-48.2A48.25,48.25,0,0,1,136.69,174.48Zm0-94.92a46.72,46.72,0,1,0,46.72,46.72A46.77,46.77,0,0,0,136.69,79.56Z" transform="translate(-2.72 -4.77)"/><path class="cls-3" d="M136.69,133.67a7.35,7.35,0,0,1-4.44-1.49,7.45,7.45,0,0,1-2.52-3.4h0a7.43,7.43,0,0,1,3.33-9,7.57,7.57,0,0,1,7.27,0,7.4,7.4,0,0,1-3.64,13.84Zm0-13.3a5.8,5.8,0,0,0-2.89.76,5.93,5.93,0,0,0-3,5.15,6,6,0,0,0,.34,2h0a6,6,0,0,0,2,2.73,5.91,5.91,0,1,0,3.55-10.63Z" transform="translate(-2.72 -4.77)"/><path class="cls-3" d="M140,121.23a.73.73,0,0,1-.74-.73V102a2.53,2.53,0,0,0-5.05,0v18.45a.75.75,0,0,1-.74.75.73.73,0,0,1-.74-.73V102a4,4,0,0,1,8,0v18.45A.75.75,0,0,1,140,121.23Z" transform="translate(-2.72 -4.77)"/><path class="cls-3" d="M108.05,147.47a2.6,2.6,0,0,1-.61-.07,2.55,2.55,0,0,1-1.62-1.17,2.59,2.59,0,0,1-.34-2,2.66,2.66,0,0,1,1.16-1.64L130,127.9a.69.69,0,0,1,.39-.12.74.74,0,0,1,.34,1.41l-23.34,14.68a1.15,1.15,0,0,0-.5.71,1.08,1.08,0,0,0,.15.86,1.11,1.11,0,0,0,.7.52,1.18,1.18,0,0,0,.88-.15L132.28,131a.76.76,0,0,1,.94.08.74.74,0,0,1,0,1,.81.81,0,0,1-.14.12l-23.64,14.85A2.61,2.61,0,0,1,108.05,147.47Z" transform="translate(-2.72 -4.77)"/><path class="cls-3" d="M136.69,90.62a3.84,3.84,0,1,1,3.85-3.85A3.85,3.85,0,0,1,136.69,90.62Zm0-6.2a2.36,2.36,0,1,0,2.36,2.35A2.36,2.36,0,0,0,136.69,84.42Z" transform="translate(-2.72 -4.77)"/><path class="cls-3" d="M136.69,169.6a3.84,3.84,0,1,1,3.85-3.84A3.84,3.84,0,0,1,136.69,169.6Zm0-6.19a2.35,2.35,0,1,0,2.36,2.35A2.36,2.36,0,0,0,136.69,163.41Z" transform="translate(-2.72 -4.77)"/><path class="cls-3" d="M176.19,130.11a3.84,3.84,0,1,1,3.84-3.84A3.84,3.84,0,0,1,176.19,130.11Zm0-6.19a2.35,2.35,0,1,0,2.35,2.35A2.35,2.35,0,0,0,176.19,123.92Z" transform="translate(-2.72 -4.77)"/><path class="cls-3" d="M97.2,130.11a3.84,3.84,0,1,1,3.84-3.84A3.85,3.85,0,0,1,97.2,130.11Zm0-6.19a2.35,2.35,0,1,0,2.36,2.35A2.35,2.35,0,0,0,97.2,123.92Z" transform="translate(-2.72 -4.77)"/><path class="cls-3" d="M460.88,252.18a25.55,25.55,0,0,1-4.88-.47,25.07,25.07,0,1,1,4.88.47Zm0-48.54a23.53,23.53,0,0,0-4.59,46.61h0a23.54,23.54,0,0,0,12.24-45.34A23.61,23.61,0,0,0,460.88,203.64Z" transform="translate(-2.72 -4.77)"/><path class="cls-3" d="M117.88,350.77a.91.91,0,0,1-.23,0,.74.74,0,0,1-.48-.94,19.63,19.63,0,0,0,.89-5.33c.29-8.65-4.44-17.32-11.49-21.1a100.83,100.83,0,0,1-10.71-6.64c-1.35-.94-2.68-1.92-4-2.91-5.52-4.25-10.74-7.08-15.52-8.4-6.37-1.77-12.1-1.21-15,1.44-1.7,1.59-2.31,3.87-1.76,6.62a.74.74,0,0,1-1.46.29c-.66-3.28.11-6,2.21-8,3.28-3,9.39-3.72,16.35-1.8,5,1.38,10.37,4.29,16,8.67,1.25,1,2.56,1.94,3.9,2.87a99.44,99.44,0,0,0,10.55,6.54c7.53,4,12.58,13.27,12.27,22.46a20.58,20.58,0,0,1-1,5.73A.73.73,0,0,1,117.88,350.77Z" transform="translate(-2.72 -4.77)"/><path class="cls-3" d="M88,367.32c-1.36,0-2.17-.08-2.22-.08a16.32,16.32,0,0,1-8.51-3.09c-5.91-4.42-7.41-12.47-6.85-18.54a20.1,20.1,0,0,1,4.31-11.09c2.21-2.55,4.79-3.47,7.1-2.54a5.08,5.08,0,0,1,2.27,1.76c1.42,2,1.61,5.17,1.46,10a4.54,4.54,0,0,0,1.22,3.45c2,2.1,5.79,2.19,5.83,2.19a.75.75,0,0,1,0,1.49c-.18,0-4.44-.09-6.88-2.64a6.06,6.06,0,0,1-1.64-4.54c.14-4.38,0-7.43-1.18-9.07a3.54,3.54,0,0,0-1.62-1.25c-1.68-.68-3.65.1-5.41,2.13a18.77,18.77,0,0,0-4,10.26c-.53,5.66.84,13.16,6.26,17.21a14.93,14.93,0,0,0,7.76,2.8,31.26,31.26,0,0,0,3.94,0A38.69,38.69,0,0,0,107.29,361a30,30,0,0,0,5.07-3.65,16.64,16.64,0,0,0,4.8-7.53.75.75,0,0,1,.93-.49.76.76,0,0,1,.49.94,18.14,18.14,0,0,1-5.22,8.18,31.4,31.4,0,0,1-5.33,3.84,40.21,40.21,0,0,1-18.09,5C89.21,367.3,88.57,367.32,88,367.32Z" transform="translate(-2.72 -4.77)"/><path class="cls-3" d="M77.73,364.3h-.06a17,17,0,0,1-13-7.62A22.73,22.73,0,0,1,61,342.26c.66-7,4.47-13.12,8.68-13.91a4.85,4.85,0,0,1,2.72.28c2.82,1.13,3.43,3.82,3.66,6.31a.74.74,0,0,1-.68.8.72.72,0,0,1-.8-.67c-.27-2.92-1.06-4.39-2.73-5.06a3.34,3.34,0,0,0-1.9-.19c-3.53.65-6.88,6.3-7.47,12.58a21.22,21.22,0,0,0,3.39,13.44,15.59,15.59,0,0,0,11.93,7,.75.75,0,0,1-.06,1.49Z" transform="translate(-2.72 -4.77)"/><path class="cls-3" d="M53.55,345.12a.76.76,0,0,1-.72-.56,21.45,21.45,0,0,1,1-13.37C57,324,63.23,319.27,67.54,320.94a4.91,4.91,0,0,1,1.37.8c2.32,1.94,2.08,4.69,1.53,7.13a.74.74,0,0,1-1.45-.33c.64-2.87.34-4.51-1-5.66a3.49,3.49,0,0,0-.94-.56c-3.53-1.36-9,3.06-11.79,9.46a19.91,19.91,0,0,0-.95,12.4.74.74,0,0,1-.53.91A.63.63,0,0,1,53.55,345.12Z" transform="translate(-2.72 -4.77)"/><path class="cls-3" d="M65.25,357a.93.93,0,0,1-.23,0c-8.07-2.58-11.08-8.17-12.18-12.39a.75.75,0,0,1,.53-.91.74.74,0,0,1,.91.53c1,3.87,3.77,9,11.19,11.35a.75.75,0,0,1,.49.94A.77.77,0,0,1,65.25,357Z" transform="translate(-2.72 -4.77)"/><path class="cls-3" d="M53.56,345.12a.73.73,0,0,1-.52-.21h0c-6-5-7.34-10.6-7.41-14.41a17.72,17.72,0,0,1,5.45-13.17,2.18,2.18,0,0,1,.22-.21,20.28,20.28,0,0,1,7.45-4.19c4.68-1.42,8.73-.51,10.31,2.31a4.83,4.83,0,0,1,.66,2.52,7.46,7.46,0,0,1-1.85,4.33l-.06.07a.75.75,0,0,1-1.06,0,.74.74,0,0,1,0-1,6,6,0,0,0,1.52-3.43,3.32,3.32,0,0,0-.47-1.77c-1.23-2.18-4.59-2.81-8.58-1.6a18.78,18.78,0,0,0-6.9,3.88l-.12.11,0,.06a16.19,16.19,0,0,0-5,12.06c.06,3.5,1.32,8.65,6.92,13.34,0,0,0,0,0,.05a.74.74,0,0,1,0,1A.73.73,0,0,1,53.56,345.12Z" transform="translate(-2.72 -4.77)"/><path class="cls-3" d="M92.69,342l-.18,0c-3.54-.85-6.63-3.29-9.43-7.46a61.82,61.82,0,0,1-3.57-6.22,28.24,28.24,0,0,0-2.65-4.48c-2.88-3.41-8.09-5.33-8.14-5.34a.74.74,0,1,1,.5-1.4c.23.08,5.63,2.06,8.78,5.78a30.07,30.07,0,0,1,2.83,4.75,60.27,60.27,0,0,0,3.48,6.08c2.59,3.84,5.39,6.08,8.55,6.85a.75.75,0,0,1-.17,1.47Z" transform="translate(-2.72 -4.77)"/><path class="cls-3" d="M399.06,316.87a.72.72,0,0,1-.61-.32.74.74,0,0,1,.18-1c1.28-.89,2.55-1.83,3.91-2.87,5.68-4.38,11.08-7.3,16-8.67.57-.16,1.17-.3,1.84-.45,6.28-1.35,11.77-.45,14.67,2.4a8.23,8.23,0,0,1,2,7.84.74.74,0,0,1-1.46-.29A6.79,6.79,0,0,0,434,307c-2.54-2.5-7.52-3.25-13.31-2-.64.13-1.21.27-1.76.43-4.77,1.31-10,4.14-15.53,8.4-1.37,1.06-2.66,2-4,2.92A.72.72,0,0,1,399.06,316.87Z" transform="translate(-2.72 -4.77)"/><path class="cls-3" d="M407.23,367.32a42.69,42.69,0,0,1-15.92-3.08,32.41,32.41,0,0,1-9.31-5.78c-4.67-4.2-6.87-10.64-6-17.65,1-8,5.72-15.33,12.12-18.75a101.42,101.42,0,0,0,10.54-6.53.74.74,0,1,1,.86,1.21,102.8,102.8,0,0,1-10.7,6.63c-6,3.2-10.44,10.12-11.34,17.62-.79,6.52,1.23,12.49,5.55,16.36a31,31,0,0,0,8.88,5.52,41.59,41.59,0,0,0,17.55,2.89,14.87,14.87,0,0,0,7.75-2.8c5.42-4.06,6.79-11.55,6.26-17.21a18.77,18.77,0,0,0-4-10.26c-1.76-2-3.73-2.81-5.41-2.13a3.57,3.57,0,0,0-1.62,1.25c-1.16,1.64-1.31,4.69-1.18,9.07a6,6,0,0,1-1.64,4.54c-2.43,2.55-6.69,2.64-6.87,2.64a.76.76,0,0,1-.75-.73.75.75,0,0,1,.73-.76s3.82-.09,5.82-2.18a4.64,4.64,0,0,0,1.23-3.47c-.15-4.8,0-8,1.45-10a5,5,0,0,1,2.28-1.78c2.3-.93,4.88,0,7.09,2.54a20.1,20.1,0,0,1,4.31,11.09c.56,6.06-.94,14.12-6.85,18.54a16.26,16.26,0,0,1-8.51,3.09C409.45,367.25,408.61,367.32,407.23,367.32Z" transform="translate(-2.72 -4.77)"/><path class="cls-3" d="M417.63,364.3a.75.75,0,0,1-.07-1.49,15.57,15.57,0,0,0,11.93-7,21.24,21.24,0,0,0,3.39-13.45c-.58-6.27-3.93-11.92-7.46-12.57a3.36,3.36,0,0,0-1.91.19c-1.67.67-2.46,2.14-2.72,5.06a.75.75,0,0,1-1.49-.13c.22-2.34.83-5.17,3.66-6.31a4.89,4.89,0,0,1,2.73-.28c4.21.79,8,6.89,8.67,13.91a22.73,22.73,0,0,1-3.64,14.41,17,17,0,0,1-13,7.62Z" transform="translate(-2.72 -4.77)"/><path class="cls-3" d="M430.1,357a.75.75,0,0,1-.22-1.46c7.43-2.38,10.19-7.48,11.2-11.35a.74.74,0,0,1,.91-.53.75.75,0,0,1,.53.91c-1.1,4.22-4.11,9.8-12.19,12.39A.85.85,0,0,1,430.1,357Z" transform="translate(-2.72 -4.77)"/><path class="cls-3" d="M441.81,345.12a.58.58,0,0,1-.19,0,.74.74,0,0,1-.53-.91,19.85,19.85,0,0,0-1-12.4c-2.75-6.4-8.26-10.83-11.78-9.46a3.49,3.49,0,0,0-.94.56c-1.39,1.16-1.69,2.8-1,5.66a.74.74,0,1,1-1.45.33c-.78-3.45-.32-5.58,1.53-7.13a4.9,4.9,0,0,1,1.37-.81c4.3-1.67,10.57,3,13.68,10.26a21.52,21.52,0,0,1,1,13.37A.76.76,0,0,1,441.81,345.12Z" transform="translate(-2.72 -4.77)"/><path class="cls-3" d="M441.8,345.12a.76.76,0,0,1-.55-.25.72.72,0,0,1,0-1l.05-.05c5.65-4.73,6.88-9.93,6.92-13.47a16.14,16.14,0,0,0-5.16-12.1,18.89,18.89,0,0,0-6.91-3.88c-4-1.21-7.35-.58-8.57,1.6a3.31,3.31,0,0,0-.48,1.75,6.09,6.09,0,0,0,1.54,3.47.75.75,0,0,1-.06,1,.73.73,0,0,1-1,0l0,0-.06-.07a7.57,7.57,0,0,1-1.85-4.34,4.81,4.81,0,0,1,.67-2.51c1.57-2.82,5.62-3.73,10.3-2.3a20.23,20.23,0,0,1,7.46,4.18,17.71,17.71,0,0,1,5.67,13.24c0,3.85-1.37,9.5-7.46,14.59A.74.74,0,0,1,441.8,345.12Z" transform="translate(-2.72 -4.77)"/><path class="cls-3" d="M402.66,342a.75.75,0,0,1-.17-1.47c3.16-.76,5.95-3,8.55-6.84a60.43,60.43,0,0,0,3.49-6.08,28.67,28.67,0,0,1,2.82-4.76c3.15-3.72,8.55-5.7,8.78-5.78a.74.74,0,1,1,.5,1.4c-.05,0-5.26,1.93-8.14,5.34a28.32,28.32,0,0,0-2.64,4.48,62.94,62.94,0,0,1-3.58,6.23c-2.81,4.16-5.9,6.6-9.43,7.45Z" transform="translate(-2.72 -4.77)"/><path class="cls-3" d="M244.11,173.12a6,6,0,0,1-4.57-2,.75.75,0,0,1,.13-1,.74.74,0,0,1,1,.13c.08.09,1.82,2.19,5.31,1.13a.73.73,0,0,1,.92.49.74.74,0,0,1-.49.93A8.08,8.08,0,0,1,244.11,173.12Z" transform="translate(-2.72 -4.77)"/><path class="cls-3" d="M226.73,168.39a5.29,5.29,0,0,1-4.23-2,.75.75,0,0,1,1.22-.86,4,4,0,0,0,4.65,1.11.74.74,0,1,1,.47,1.41A6.48,6.48,0,0,1,226.73,168.39Z" transform="translate(-2.72 -4.77)"/><path class="cls-3" d="M243.82,447.53a.75.75,0,0,1-.71-.53c-.43-1.47-.8-2.92-1.1-4.31-5.32-24.7,6.05-47.35,9.66-53.7.72-1.25,1.15-1.93,1.17-2a.74.74,0,0,1,1.25.81s-.44.67-1.13,1.89c-3.54,6.23-14.7,28.46-9.49,52.64.29,1.36.65,2.77,1.07,4.21a.74.74,0,0,1-.51.92Z" transform="translate(-2.72 -4.77)"/><path class="cls-3" d="M243.16,223.33a10.74,10.74,0,0,1-3.62-.61,7.51,7.51,0,0,1-5-9.2,38,38,0,0,0,1.12-7.49c.21-5.16-1-7.72-1.06-7.74a.74.74,0,0,1,1.32-.68c.06.11,1.46,2.88,1.23,8.48a39.69,39.69,0,0,1-1.17,7.79,6.08,6.08,0,0,0,4.06,7.44c6.19,2.21,16.3-2.66,23.94-18.53a24.31,24.31,0,0,1-1.4-2.74,28.58,28.58,0,0,1-2.16-7.68,26.58,26.58,0,0,1-.22-5.26.75.75,0,0,1,.77-.7.73.73,0,0,1,.72.74,25.38,25.38,0,0,0,.2,5,27.17,27.17,0,0,0,2.06,7.29,20.06,20.06,0,0,0,1.5,2.88.76.76,0,0,1,.05.73C258.68,217.44,250,223.33,243.16,223.33Z" transform="translate(-2.72 -4.77)"/><path class="cls-3" d="M96.29,316.87a.73.73,0,0,1-.72-.56c-5.11-15.44,16.18-27.58,36.77-39.32l4-2.28c15.24-8.75,24.75-19.83,36.78-33.87,4.85-5.65,9.86-11.5,15.79-17.82a56.91,56.91,0,0,1,47.62-17.7.76.76,0,0,1,.64.74.74.74,0,0,1-.74.74h-.13A55.29,55.29,0,0,0,190,224c-5.91,6.3-10.91,12.13-15.75,17.77-11.65,13.58-21.71,25.31-37.17,34.19l-4,2.28C113,289.74,92.21,301.58,97,315.89a1,1,0,0,1,0,.24A.75.75,0,0,1,96.29,316.87Z" transform="translate(-2.72 -4.77)"/><path class="cls-3" d="M117.87,350.79h0a.75.75,0,0,1-.74-.75.67.67,0,0,1,0-.24,29.68,29.68,0,0,0,.89-5.36c1.14-16.81-13.53-29.22-13.68-29.35a.74.74,0,0,1,1-1.14c.16.13,15.4,13,14.21,30.59a30.46,30.46,0,0,1-.94,5.68l-.06.15A.75.75,0,0,1,117.87,350.79Zm0-.76Z" transform="translate(-2.72 -4.77)"/><path class="cls-3" d="M399.06,316.87a.74.74,0,0,1-.75-.74s0-.05,0-.07c1.39-15-15.49-25.44-35-37.54l-5-3.14c-13.41-8.38-22-20.37-31.84-34.25-6.23-8.74-12.66-17.78-21-26.93-21.09-23-41.57-13.87-41.77-13.78a.74.74,0,0,1-.63-1.35c.22-.1,21.68-9.69,43.49,14.13,8.44,9.22,14.91,18.29,21.16,27.07C337.4,254,345.86,265.9,359,274.12l5,3.14c20,12.35,37.21,23,35.74,38.93A.74.74,0,0,1,399.06,316.87Z" transform="translate(-2.72 -4.77)"/><path class="cls-3" d="M381.52,365.6c-8.68,0-18.09-2.64-28.11-7.9-12.47-6.55-25.45-17-37.52-30.34a.74.74,0,1,1,1.1-1c25.8,28.42,53.62,42.06,74.41,36.47a.75.75,0,0,1,.39,1.44A39.3,39.3,0,0,1,381.52,365.6Z" transform="translate(-2.72 -4.77)"/><path class="cls-3" d="M316.43,327.6a.75.75,0,0,1-.55-.24c-2.71-3-5.33-6.07-7.81-9.16a.76.76,0,0,1,.12-1.05.74.74,0,0,1,1,.12c2.46,3.07,5.06,6.12,7.75,9.09a.74.74,0,0,1-.05,1.05A.73.73,0,0,1,316.43,327.6Z" transform="translate(-2.72 -4.77)"/><path class="cls-3" d="M308.65,318.47a.77.77,0,0,1-.58-.28c-14.87-18.57-26.06-39.38-30.68-57.1-5.38-20.61-1.39-32.23,2.92-38.34a21.86,21.86,0,0,1,10.92-8.5.74.74,0,0,1,.4,1.43h0a20.92,20.92,0,0,0-10.17,8c-5.85,8.41-6.77,21.21-2.64,37,4.58,17.52,15.66,38.13,30.41,56.54a.74.74,0,0,1-.58,1.21Z" transform="translate(-2.72 -4.77)"/><path class="cls-3" d="M170.5,339.54a.73.73,0,0,1-.56-.26.74.74,0,0,1,.07-1,156.22,156.22,0,0,0,16.91-17.37.75.75,0,0,1,1.14,1A160.14,160.14,0,0,1,171,339.36.76.76,0,0,1,170.5,339.54Z" transform="translate(-2.72 -4.77)"/><path class="cls-3" d="M116,363.2a36.18,36.18,0,0,1-8.54-.84.74.74,0,1,1,.38-1.44c.28.08,28.1,7,62.15-22.69a.75.75,0,0,1,1.05.08.74.74,0,0,1-.07,1.05c-18.1,15.76-34.37,21.18-44.83,23A61.32,61.32,0,0,1,116,363.2Z" transform="translate(-2.72 -4.77)"/><path class="cls-3" d="M261.15,193a.74.74,0,0,1-.15-1.47c12.66-3.59,21.49-14.82,21.49-27.33a27,27,0,0,0-3.14-12.68,28.42,28.42,0,0,0-5-6.86,30.67,30.67,0,0,0-21.94-9c-16.61,0-30.12,12.8-30.12,28.52a27.46,27.46,0,0,0,.76,6.4.75.75,0,0,1-.55.9.75.75,0,0,1-.9-.55,28.85,28.85,0,0,1-.8-6.75c0-16.54,14.18-30,31.61-30a32.14,32.14,0,0,1,23,9.42,30,30,0,0,1,5.31,7.22A28.49,28.49,0,0,1,284,164.21c0,13.19-9.3,25-22.62,28.77A.76.76,0,0,1,261.15,193Z" transform="translate(-2.72 -4.77)"/><path class="cls-3" d="M283.24,152.57a9.2,9.2,0,0,1-3.51-.7.74.74,0,1,1,.57-1.37,7.78,7.78,0,0,0,2.94.58,7.7,7.7,0,0,0,7.69-7.69,7.44,7.44,0,0,0-.26-2,7.69,7.69,0,0,0-7.43-5.73,7,7,0,0,0-.86.05,7.68,7.68,0,0,0-6.84,7.65,6.19,6.19,0,0,0,0,.67.74.74,0,0,1-1.47.17,6.65,6.65,0,0,1-.05-.84,9.16,9.16,0,0,1,8.14-9.12,7.78,7.78,0,0,1,1.05-.07A9.17,9.17,0,0,1,292.1,141a8.68,8.68,0,0,1,.32,2.36A9.19,9.19,0,0,1,283.24,152.57Z" transform="translate(-2.72 -4.77)"/><path class="cls-3" d="M301.07,143.83a26.74,26.74,0,0,1-10-1.92.78.78,0,0,1-.26-.17.75.75,0,0,1,0-1.06.73.73,0,0,1,.86-.13,25.19,25.19,0,1,0-8.91-6.05.73.73,0,0,1,0,1.05.74.74,0,0,1-1.05,0,26.65,26.65,0,1,1,19.33,8.31Z" transform="translate(-2.72 -4.77)"/><path class="cls-3" d="M222.49,355.07c-13.93,0-25.78-2.66-32.83-6.21-3-1.51-5.13-3.18-6.14-4.84a8.82,8.82,0,0,1-.57-1.08c-2.2-4.87-.06-10.87,2.64-18.47.39-1.09.79-2.22,1.19-3.37a81.35,81.35,0,0,0,4.78-21c1.58-20.94-5.93-59.24-6-59.62a.74.74,0,1,1,1.46-.29c.08.38,7.63,38.88,6,60a84.08,84.08,0,0,1-4.85,21.37c-.4,1.17-.81,2.29-1.19,3.39-2.6,7.28-4.65,13-2.69,17.37a8.15,8.15,0,0,0,.48.91c.87,1.41,2.78,2.9,5.54,4.29,10.84,5.45,33.38,8.76,57.23,3.14a108.88,108.88,0,0,0,22-7.72.75.75,0,0,1,.64,1.35,110.66,110.66,0,0,1-47.67,10.76Z" transform="translate(-2.72 -4.77)"/><path class="cls-3" d="M259.67,352.73c-3.73,0-7.72-.18-12-.59a.74.74,0,0,1-.67-.81.76.76,0,0,1,.81-.67c37.84,3.55,52.1-9.73,57.39-21.49a.74.74,0,1,1,1.35.61C301.66,340.63,289.52,352.73,259.67,352.73Z" transform="translate(-2.72 -4.77)"/><path class="cls-3" d="M305.87,330.21a.66.66,0,0,1-.3-.07.73.73,0,0,1-.37-1,29,29,0,0,0,2.71-11.41l1.49,0h0a30.7,30.7,0,0,1-2.85,12A.73.73,0,0,1,305.87,330.21Z" transform="translate(-2.72 -4.77)"/><path class="cls-3" d="M262.18,389.57h0a.75.75,0,0,1-.71-.78c.15-3.86-.73-6.76-2.68-8.88-3.8-4.14-11.3-5.14-20.79-6.41-8.4-1.13-17.92-2.4-27.46-6.23q-2.22-.9-4.36-1.74c-23.19-9.15-40.23-14.72-40.4-14.78a.74.74,0,1,1,.46-1.41c.17.05,17.25,5.64,40.48,14.81,1.44.56,2.89,1.14,4.37,1.74,9.37,3.76,18.79,5,27.1,6.13,9.8,1.31,17.53,2.35,21.7,6.89,2.22,2.42,3.23,5.67,3.06,9.94A.74.74,0,0,1,262.18,389.57Z" transform="translate(-2.72 -4.77)"/><path class="cls-3" d="M259.31,380.15a.75.75,0,0,1-.55-.24.74.74,0,0,1,.05-1.05c17.08-15.45,59.22-35,59.64-35.16a.74.74,0,0,1,.63,1.35c-.43.2-42.36,19.61-59.27,34.91A.73.73,0,0,1,259.31,380.15Z" transform="translate(-2.72 -4.77)"/><path class="cls-3" d="M324,447.53a.74.74,0,0,1-.7-.48.76.76,0,0,1,.43-1c18.73-7,34.73-14.72,47.56-22.81,24.58-15.52,33.48-30.09,36.62-39.57,3.38-10.22,1-16.89.94-16.95a.74.74,0,1,1,1.39-.53c.11.29,2.61,7.13-.88,17.81-3.19,9.75-12.24,24.68-37.27,40.49-12.92,8.15-29,15.88-47.83,23A.63.63,0,0,1,324,447.53Z" transform="translate(-2.72 -4.77)"/><path class="cls-3" d="M223,466.57c-23.61,0-54.6-11.61-54.93-11.74a.74.74,0,1,1,.52-1.39c.35.13,35.31,13.23,58.93,11.48,1.62-.12,3.17-.3,4.61-.55l1.31-.25c18.86-3.86,19.58-16.47,19.35-20.24a3.38,3.38,0,0,0-.05-.6.74.74,0,0,1,.62-.84.73.73,0,0,1,.85.61s0,.27.07.75c.17,2.89,0,17.57-20.54,21.78l-1.35.25c-1.49.26-3.09.45-4.76.58C226.12,466.52,224.57,466.57,223,466.57Z" transform="translate(-2.72 -4.77)"/><path class="cls-3" d="M91.54,413.5a.74.74,0,0,1-.58-.28c-17.61-21.78-8.58-38.9-1.62-47.16a.75.75,0,0,1,1-.1.76.76,0,0,1,.09,1.05c-6.66,7.92-15.31,24.33,1.63,45.28a.73.73,0,0,1-.11,1A.73.73,0,0,1,91.54,413.5Z" transform="translate(-2.72 -4.77)"/><path class="cls-3" d="M294.28,455.41c-6,0-17.5-1.23-21.15-10.23a.74.74,0,1,1,1.37-.56c4.52,11.11,23.2,9.16,23.39,9.14a.74.74,0,0,1,.82.66.75.75,0,0,1-.66.82C297.84,455.26,296.4,455.41,294.28,455.41Z" transform="translate(-2.72 -4.77)"/><path class="cls-3" d="M206.42,365.58a.74.74,0,0,1-.73-.61c-1.15-6.52-11.63-13.45-16.08-16.13-1.49-.9-2.46-1.42-2.47-1.43a.73.73,0,0,1-.31-1,.74.74,0,0,1,1-.31s1,.54,2.55,1.46c5.74,3.46,15.57,10.29,16.77,17.15a.75.75,0,0,1-.6.86Z" transform="translate(-2.72 -4.77)"/><path class="cls-3" d="M412.77,430.78l-.14,0c-12.5-2.31-26.33-4.36-41.08-6.12a.73.73,0,0,1-.65-.82.74.74,0,0,1,.83-.65c14.78,1.75,28.63,3.82,41.17,6.13a.75.75,0,0,1-.13,1.48Z" transform="translate(-2.72 -4.77)"/><path class="cls-3" d="M247.73,516.23c-55.56,0-107.92-3.66-151.41-10.58a.74.74,0,1,1,.23-1.46c43.42,6.9,95.7,10.55,151.18,10.55,65.2,0,126.49-5.11,172.58-14.39,45.09-9.08,70.95-21.49,70.95-34.05,0-4.26-2.93-8.52-8.7-12.67a.75.75,0,1,1,.87-1.21c6.18,4.45,9.32,9.12,9.32,13.88,0,13.53-25.62,26.14-72.15,35.51C374.42,511.11,313,516.23,247.73,516.23Z" transform="translate(-2.72 -4.77)"/><path class="cls-3" d="M477.62,450.38a.71.71,0,0,1-.37-.1,102.7,102.7,0,0,0-12.74-5.88.74.74,0,0,1,.54-1.38A102.86,102.86,0,0,1,478,449a.74.74,0,0,1,.29,1A.76.76,0,0,1,477.62,450.38Z" transform="translate(-2.72 -4.77)"/><path class="cls-3" d="M51.08,496.22l-.2,0c-31.51-8.6-48.16-18.94-48.16-29.9,0-8.75,10.31-17,30.65-24.4a.75.75,0,0,1,1,.44.74.74,0,0,1-.45,1C14.47,450.4,4.2,458.35,4.2,466.3c0,10.07,16.72,20.18,47.07,28.46a.74.74,0,0,1-.19,1.46Z" transform="translate(-2.72 -4.77)"/><path class="cls-3" d="M183.63,343.39a.79.79,0,0,1-.29-.06c-.08,0-7.77-3.33-12.9-3.79a.75.75,0,1,1,.12-1.49c5.37.49,13,3.77,13.37,3.91a.75.75,0,0,1-.3,1.43Z" transform="translate(-2.72 -4.77)"/><path class="cls-3" d="M305.87,330.21a.73.73,0,0,1-.52-.21.75.75,0,0,1,0-1.05h0a.8.8,0,0,1,.32-.19l.12,0a66.25,66.25,0,0,1,10.56-2.59.74.74,0,1,1,.15,1.48,64.57,64.57,0,0,0-10.25,2.53l-.11,0A.75.75,0,0,1,305.87,330.21Z" transform="translate(-2.72 -4.77)"/></svg>