<svg id="Layer_1" data-name="Layer 1" xmlns="http://www.w3.org/2000/svg" viewBox="0 0 464.99 387.12"><defs><style>.cls-1{fill:#fff;}.cls-2{fill:#fcb01a;}.cls-3{fill:#1a1a1a;}.cls-4{fill:#e0e0e0;}</style></defs><path class="cls-1" d="M338.9,301.19H459.19a8,8,0,0,0,8-8V200.91a8,8,0,0,0-8-8H325.08C303.7,236.39,338.9,301.19,338.9,301.19Z" transform="translate(-3.16 -8.25)"/><path class="cls-1" d="M197.88,236.39c3.19-6.33,4.38-11.49,4.38-16,0-13.29-10.45-20.67-10.45-34.81,0-19.31,52-45,57.78-45,17,0,21.94,27.06,21.94,40.71,0,18.83-10.41,21-10.41,44,0,1.73,0,3.49,0,5.26,0,16.69-5.49,32.77-30.59,32.77-13.62,0-27.4-6.84-31-19.89Z" transform="translate(-3.16 -8.25)"/><path class="cls-1" d="M381.31,166.74H407.7a8,8,0,0,0,8-8V129.5a8.08,8.08,0,0,0-8-8.09H301l10.21,10.28v27a8.07,8.07,0,0,0,8.05,8.05Z" transform="translate(-3.16 -8.25)"/><path class="cls-1" d="M317.2,56.29l-15.83-7.53c-.9-16.62-13.74-19.49-16.05-19.87a.35.35,0,0,0-.2-.05h0C280.7,22.09,271,13.4,249.43,10.18c-26.12-3.9-58.05,1.7-58.37,1.76-10,1.77-14.44,23.62-10,48.69a108.06,108.06,0,0,0,5.89,21C192.33,95,199.51,103,205.89,103a7.55,7.55,0,0,0,.83,0,.39.39,0,0,0,.34-.43.37.37,0,0,0-.42-.33c-6.17.68-13.35-7.15-18.81-20.49a38,38,0,0,1,30.55-1,41.13,41.13,0,0,1,6.21,3.14c14.61,9,32.42,17.62,42.57,17.62a11.62,11.62,0,0,0,4.06-.63,5.79,5.79,0,0,0,3.7-3.81,9.44,9.44,0,0,0,.45-2.85l19.48,9.27a8.45,8.45,0,0,0,11.22-4l15.12-31.93A8.45,8.45,0,0,0,317.2,56.29Z" transform="translate(-3.16 -8.25)"/><circle class="cls-2" cx="48.02" cy="270.28" r="48.02"/><circle class="cls-3" cx="349.96" cy="357.87" r="24.2"/><rect class="cls-4" x="388.75" y="235.32" width="22.28" height="43.02" rx="4.4"/><path class="cls-2" d="M320.78,67.43l-15,31.5a8.54,8.54,0,0,1-11.44,4L274.9,93.56c-1.12-8-12.75-9-18.72-9L218.7,66.44a8.59,8.59,0,0,1-4.07-11.29L228.72,24.2A8.55,8.55,0,0,1,240.14,20L268.8,33.47c1.75,4.75,5.36,14,12,14.44,5.48.34,7.55-3,8-5L316.68,56A8.58,8.58,0,0,1,320.78,67.43Z" transform="translate(-3.16 -8.25)"/><path class="cls-2" d="M205.11,102.52S168.9,110.24,162,139.19s5.67,49.72,21.54,57.05,24.85,39.15,24.85,39.15,6.74,5.9,18.79,6.2,15.28-6.22,15.2-8.61-1.15-10.3-1.15-10.3,11.73.17,13.5,15.21c0,0,33.39,9.52,52.6,39.77s26.49,56.48,29.74,77.43c0,0-50.12,52.65-139.86,35.88,0,0-41.84-11.09-55.31-22.86,0,0,6.27-9.12-2.42-17s-17.64,1.64-17.64,1.64l-13.5-13.61s10.09-36.4-.76-71.81-18.44-46.65-25.9-69.24-14.5-51.84-5.88-85.79S120.24,45.56,136,35.78s31.85-20.33,51.43-22.92l5.19-.54s-9.5-.79-11.95,17.8S183.8,94.39,205.11,102.52Z" transform="translate(-3.16 -8.25)"/><ellipse class="cls-2" cx="123.31" cy="362.09" rx="11.91" ry="12.29"/><ellipse class="cls-2" cx="376.85" cy="76.29" rx="11.91" ry="12.29"/><circle class="cls-2" cx="87.97" cy="23.66" r="19.59"/><path class="cls-1" d="M257.73,75.07h0a2.36,2.36,0,0,0,1.46-.08L292,62.1a2.83,2.83,0,0,0,1.27-4.27h0a2.8,2.8,0,0,0-3.38-1l-26.73,9.87c-.8.33-2.56,1.43-2.66.57L258.21,49a2.35,2.35,0,0,0-2.33-2.06h-.54A2.35,2.35,0,0,0,253,49.54l3,23.56A2.34,2.34,0,0,0,257.73,75.07Z" transform="translate(-3.16 -8.25)"/><polygon class="cls-2" points="397.53 274.7 398.93 308.82 408.9 302.49 418.68 317.95 427.53 312.33 417.75 296.86 427.71 290.54 397.53 274.7"/><circle class="cls-2" cx="409.5" cy="200.75" r="3.84"/><circle class="cls-2" cx="341.12" cy="135.45" r="4.61"/><circle class="cls-2" cx="364.17" cy="135.45" r="4.61"/><circle class="cls-2" cx="387.99" cy="135.45" r="4.61"/><circle class="cls-2" cx="428.71" cy="200.75" r="3.84"/><circle class="cls-2" cx="447.14" cy="200.75" r="3.84"/><path class="cls-1" d="M120,100.92a1.57,1.57,0,0,1-1.21-2.56,9.74,9.74,0,0,0-1.35-13.67,9.67,9.67,0,0,0-13.63,1.36,1.57,1.57,0,0,1-2.43-2,12.83,12.83,0,1,1,19.83,16.28A1.56,1.56,0,0,1,120,100.92Z" transform="translate(-3.16 -8.25)"/><path class="cls-1" d="M155.6,202a1.57,1.57,0,0,1-1.21-2.56A9.74,9.74,0,0,0,153,185.76a9.67,9.67,0,0,0-13.63,1.36,1.56,1.56,0,1,1-2.42-2,12.81,12.81,0,0,1,18-1.8,12.89,12.89,0,0,1,1.79,18.07A1.57,1.57,0,0,1,155.6,202Z" transform="translate(-3.16 -8.25)"/><path class="cls-1" d="M241.8,289.61a1.57,1.57,0,0,1-1.21-2.56,9.74,9.74,0,0,0-1.35-13.67,9.67,9.67,0,0,0-13.63,1.36,1.56,1.56,0,0,1-2.42-2,12.81,12.81,0,0,1,18-1.8A12.89,12.89,0,0,1,243,289,1.57,1.57,0,0,1,241.8,289.61Z" transform="translate(-3.16 -8.25)"/><path class="cls-1" d="M226,390.49a1.54,1.54,0,0,1-1-.35,1.56,1.56,0,0,1-.22-2.2,9.74,9.74,0,0,0-1.35-13.67,9.68,9.68,0,0,0-13.63,1.35,1.56,1.56,0,1,1-2.42-2,12.8,12.8,0,0,1,18-1.79,12.88,12.88,0,0,1,1.79,18.07A1.56,1.56,0,0,1,226,390.49Z" transform="translate(-3.16 -8.25)"/><path class="cls-1" d="M81.39,173.85a1.56,1.56,0,0,1-1.44-1,12.86,12.86,0,0,1,6.88-16.8A12.82,12.82,0,0,1,103.6,163a1.56,1.56,0,1,1-2.89,1.2,9.69,9.69,0,1,0-17.87,7.49,1.57,1.57,0,0,1-1.45,2.17Z" transform="translate(-3.16 -8.25)"/><path class="cls-1" d="M189,283.91a1.54,1.54,0,0,1-1-.35,1.56,1.56,0,0,1-.22-2.2,9.74,9.74,0,0,0-1.35-13.67A9.68,9.68,0,0,0,172.78,269a1.56,1.56,0,0,1-2.42-2,12.8,12.8,0,0,1,18-1.79,12.87,12.87,0,0,1,1.78,18.07A1.55,1.55,0,0,1,189,283.91Z" transform="translate(-3.16 -8.25)"/><path class="cls-1" d="M114.76,255.78a1.57,1.57,0,0,1-1.44-1A12.85,12.85,0,0,1,120.2,238a12.8,12.8,0,0,1,16.77,6.9,1.56,1.56,0,0,1-2.89,1.2,9.69,9.69,0,0,0-12.67-5.22,9.74,9.74,0,0,0-5.2,12.71,1.57,1.57,0,0,1-1.45,2.17Z" transform="translate(-3.16 -8.25)"/><path class="cls-1" d="M144.33,145.4a12.71,12.71,0,0,1-2.8-.31,12.85,12.85,0,0,1-9.73-15.32,1.56,1.56,0,1,1,3,.68A9.71,9.71,0,0,0,142.21,142a9.66,9.66,0,0,0,11.55-7.37,1.57,1.57,0,0,1,3.06.68,12.82,12.82,0,0,1-12.49,10.06Z" transform="translate(-3.16 -8.25)"/><path class="cls-1" d="M133.21,332.67a12.71,12.71,0,0,1-2.8-.31A12.85,12.85,0,0,1,120.68,317a1.56,1.56,0,1,1,3,.68,9.73,9.73,0,0,0,7.36,11.58,9.66,9.66,0,0,0,11.55-7.37,1.57,1.57,0,0,1,3.06.68,12.82,12.82,0,0,1-12.49,10.06Z" transform="translate(-3.16 -8.25)"/><path class="cls-1" d="M261.13,348.82a12.84,12.84,0,0,1-12.54-15.63,1.57,1.57,0,0,1,3.06.68A9.72,9.72,0,0,0,259,345.45a9.7,9.7,0,0,0,11.56-7.37,1.57,1.57,0,0,1,3.06.68,12.86,12.86,0,0,1-12.49,10.06Z" transform="translate(-3.16 -8.25)"/><path class="cls-1" d="M311.3,351.84a12.71,12.71,0,0,1-2.8-.31,12.87,12.87,0,0,1-9.74-15.32,1.57,1.57,0,0,1,3.06.68,9.71,9.71,0,0,0,7.36,11.58,9.66,9.66,0,0,0,11.55-7.37,1.57,1.57,0,0,1,3.06.68,12.82,12.82,0,0,1-12.49,10.06Z" transform="translate(-3.16 -8.25)"/><path class="cls-1" d="M164.91,86.41a1.61,1.61,0,0,1-.6-.12,12.85,12.85,0,0,1-.1-23.73,12.71,12.71,0,0,1,9.8,0,1.57,1.57,0,1,1-1.18,2.9,9.67,9.67,0,0,0-12.63,5.31,9.74,9.74,0,0,0,5.3,12.67,1.56,1.56,0,0,1-.59,3Z" transform="translate(-3.16 -8.25)"/><path class="cls-1" d="M199.41,340.66a1.51,1.51,0,0,1-.59-.11,12.88,12.88,0,0,1-7-16.75,12.82,12.82,0,0,1,16.71-7,1.57,1.57,0,0,1-1.18,2.9A9.67,9.67,0,0,0,194.7,325a9.73,9.73,0,0,0,5.3,12.66,1.56,1.56,0,0,1-.59,3Z" transform="translate(-3.16 -8.25)"/><path class="cls-1" d="M295.19,288.16a1.61,1.61,0,0,1-.6-.12,12.85,12.85,0,0,1-.1-23.73,12.71,12.71,0,0,1,9.8,0,1.57,1.57,0,1,1-1.19,2.9,9.67,9.67,0,0,0-12.62,5.31,9.73,9.73,0,0,0,5.3,12.66,1.57,1.57,0,0,1-.59,3Z" transform="translate(-3.16 -8.25)"/><rect class="cls-2" x="354.18" y="206.13" width="22.28" height="72.22" rx="5.95"/><circle class="cls-3" cx="331.52" cy="42.87" r="1.92"/><circle class="cls-3" cx="350.72" cy="42.87" r="1.92"/><circle class="cls-3" cx="341.5" cy="42.87" r="1.92"/><circle class="cls-3" cx="331.52" cy="59.77" r="1.92"/><circle class="cls-3" cx="350.72" cy="59.77" r="1.92"/><circle class="cls-3" cx="341.5" cy="59.77" r="1.92"/><circle class="cls-3" cx="331.52" cy="51.32" r="1.92"/><circle class="cls-3" cx="350.72" cy="51.32" r="1.92"/><circle class="cls-3" cx="341.5" cy="51.32" r="1.92"/><path class="cls-3" d="M283.67,328.24l19.24,48.93S287.3,385.4,275.3,388.3c0,0,.93-16.14,0-20.89C275.3,367.41,289.57,352.89,283.67,328.24Z" transform="translate(-3.16 -8.25)"/><path class="cls-3" d="M217.51,214.59,242.72,233l-1.14-13.24s-16.52,1.51-24.07-7.2Z" transform="translate(-3.16 -8.25)"/><path class="cls-3" d="M264.8,177.32c.11-12.11-3.48-23.36-11.85-28.25h0c2.08-7.14.75-14.53-5.47-19.7h0s18.48-6.53,23.72,11.3,5.76,36,33.49,41.59c10.37,2.1,16.73,6,20.31,11.07,6,8.5,4.24,20.32.62,32.64-2.74,9.3.78,15.95,5.89,22.65,6.49,8.53,15.57,17.11,17.65,31.27a18.82,18.82,0,0,1-.3,7.08c-1.19,5.16-4.57,10.28-10.48,14.69a53.21,53.21,0,0,1-14.19,7.27c-24.87-60.55-69.61-70.73-69.61-70.73h0a22.25,22.25,0,0,0-.71-4.71A13.54,13.54,0,0,0,241.09,223a32.68,32.68,0,0,1-.16-3.28,21.22,21.22,0,0,0,3.37-.81C256.67,214.57,264.66,195,264.8,177.32Z" transform="translate(-3.16 -8.25)"/><path class="cls-3" d="M247.66,128.93c6.24,5.18,7.56,12.58,5.48,19.73a31.64,31.64,0,0,1-13.31,17.25A44.21,44.21,0,0,1,216.61,173a15.56,15.56,0,0,1-8-2.25,8.27,8.27,0,0,0-4.56-1.09c-7.81.31-16.36,15.89-.8,23.15,0,0,15.63,6.87,14,19.73a17.1,17.1,0,0,1-1.06,4.08c-3.36,8.63-6,13.75-7.71,18.77A44.34,44.34,0,0,0,206,248.91c-.48,11.79,10.21,39-8,51.56a26.46,26.46,0,0,1-10,4.07,45.48,45.48,0,0,1-14.13.68C162,303.86,156.47,290,163.67,280.34a17.26,17.26,0,0,0,2.45-4.65c7.08-19.87-22.53-41.22-3.41-60.38,8.57-8.58,12.62-16.27,14.38-24.1,2.16-9.65.87-19.52.29-31.55-1-21.79,47.25-44,66.86-33.07A21.39,21.39,0,0,1,247.66,128.93Z" transform="translate(-3.16 -8.25)"/><path class="cls-3" d="M172.63,120.25a44.08,44.08,0,0,0-4.8,6.07c-29.35-26.54-30.93-72.13-30.1-91.74q3.53-2.4,6.9-4.46C143.79,49.05,145.12,93.32,172.63,120.25Z" transform="translate(-3.16 -8.25)"/><path class="cls-3" d="M218.53,80.36l-.22.56c-1.16,12.08-5.1,20.53-11.05,21.6l-.45.07c-6.62.75-14-7.76-19.36-21.1A38.09,38.09,0,0,1,218.53,80.36Z" transform="translate(-3.16 -8.25)"/><path class="cls-3" d="M259.16,177.58c1.22.17,2,1.94,1.7,4s-1.51,3.51-2.73,3.34-2-1.95-1.68-4S258,177.4,259.16,177.58Z" transform="translate(-3.16 -8.25)"/><path class="cls-3" d="M237.77,174.55c1.22.17,2,1.94,1.69,4s-1.5,3.52-2.72,3.34-2-1.94-1.69-4S236.55,174.37,237.77,174.55Z" transform="translate(-3.16 -8.25)"/><path class="cls-3" d="M99,174.29a.94.94,0,0,1,0-1.88c1.65-.06,3.3-.17,4.93-.34a.93.93,0,0,1,1,.83.94.94,0,0,1-.83,1c-1.67.17-3.38.29-5.06.34Zm-12.48-.68h-.13c-1.67-.24-3.35-.54-5-.9a.94.94,0,1,1,.4-1.84c1.6.35,3.24.65,4.86.88a.94.94,0,0,1-.13,1.87Zm29.75-2.07a.93.93,0,0,1-.9-.67.94.94,0,0,1,.64-1.17c1.58-.46,3.15-1,4.69-1.54a.94.94,0,1,1,.65,1.76c-1.58.58-3.2,1.12-4.82,1.59A1.09,1.09,0,0,1,116.22,171.54ZM69.6,169a1.15,1.15,0,0,1-.36-.07c-1.55-.65-3.11-1.36-4.62-2.12a.94.94,0,1,1,.84-1.68c1.47.74,3,1.43,4.5,2.06A.94.94,0,0,1,69.6,169Zm62.67-4.37a.94.94,0,0,1-.48-1.75c1.42-.83,2.82-1.73,4.17-2.66a.94.94,0,0,1,1.06,1.55c-1.38,1-2.82,1.87-4.27,2.73A1,1,0,0,1,132.27,164.62ZM54.4,160.33a1,1,0,0,1-.56-.18c-1.35-1-2.68-2.08-4-3.18a.94.94,0,1,1,1.23-1.42c1.24,1.07,2.54,2.11,3.85,3.09a.94.94,0,0,1-.56,1.69ZM146.13,154a.91.91,0,0,1-.67-.28.94.94,0,0,1,0-1.33c1.17-1.15,2.31-2.36,3.4-3.59a.93.93,0,0,1,1.32-.09,1,1,0,0,1,.09,1.33c-1.12,1.26-2.29,2.51-3.48,3.69A1,1,0,0,1,146.13,154ZM41.78,148.22a.91.91,0,0,1-.72-.35c-1.07-1.3-2.1-2.66-3.06-4a.94.94,0,0,1,1.54-1.08c.94,1.34,1.94,2.67,3,3.94a.94.94,0,0,1-.13,1.32A1,1,0,0,1,41.78,148.22Zm115.18-8a.87.87,0,0,1-.49-.14.94.94,0,0,1-.32-1.29c.85-1.4,1.66-2.85,2.41-4.31a.94.94,0,1,1,1.67.85c-.76,1.5-1.6,3-2.47,4.44A1,1,0,0,1,157,140.22ZM32.52,133.4a.94.94,0,0,1-.86-.55c-.71-1.52-1.37-3.09-2-4.66a.94.94,0,1,1,1.76-.67c.58,1.53,1.23,3.06,1.92,4.54a.94.94,0,0,1-.46,1.25A.92.92,0,0,1,32.52,133.4Zm131.57-9.15a1.26,1.26,0,0,1-.27,0,1,1,0,0,1-.63-1.18c.48-1.57.91-3.17,1.27-4.77a.94.94,0,1,1,1.83.42c-.37,1.64-.81,3.29-1.3,4.9A.94.94,0,0,1,164.09,124.25Zm-136.91-7.5a.92.92,0,0,1-.92-.76c-.32-1.65-.57-3.34-.77-5a1,1,0,0,1,.83-1,.94.94,0,0,1,1,.83c.19,1.63.44,3.27.74,4.88a.94.94,0,0,1-.75,1.1ZM167.07,107h0a1,1,0,0,1-.9-1c.06-1.12.08-2.26.08-3.4,0-.51,0-1,0-1.54a.94.94,0,0,1,.92-1,1,1,0,0,1,1,.92c0,.53,0,1.06,0,1.58,0,1.17,0,2.34-.08,3.49A.94.94,0,0,1,167.07,107Zm-141-7.72h0a.94.94,0,0,1-.89-1c.1-1.68.26-3.38.48-5a.94.94,0,0,1,1.87.24c-.22,1.63-.37,3.28-.47,4.92A.93.93,0,0,1,26.08,99.3Zm139.69-9.72a.94.94,0,0,1-.92-.75c-.32-1.61-.71-3.23-1.14-4.81a.94.94,0,0,1,1.81-.5c.45,1.62.84,3.29,1.17,4.94a.92.92,0,0,1-.73,1.1A.65.65,0,0,1,165.77,89.58ZM29.26,82.1a.9.9,0,0,1-.28,0,.94.94,0,0,1-.61-1.18c.51-1.61,1.08-3.22,1.71-4.78a.94.94,0,1,1,1.74.69c-.61,1.53-1.16,3.09-1.66,4.66A.94.94,0,0,1,29.26,82.1Zm131-9.1a.94.94,0,0,1-.85-.54c-.71-1.48-1.48-2.95-2.29-4.37a.94.94,0,1,1,1.63-.93c.83,1.46,1.63,3,2.35,4.49a.93.93,0,0,1-.44,1.25A.85.85,0,0,1,160.24,73ZM36.58,66.22a1,1,0,0,1-.49-.14.94.94,0,0,1-.3-1.3c.89-1.43,1.84-2.84,2.83-4.21a.94.94,0,1,1,1.52,1.1c-1,1.33-1.89,2.71-2.76,4.11A1,1,0,0,1,36.58,66.22Zm114.21-7.94a1,1,0,0,1-.72-.33c-1-1.27-2.16-2.51-3.29-3.69a.94.94,0,1,1,1.35-1.3c1.17,1.22,2.31,2.49,3.39,3.78a1,1,0,0,1-.13,1.33A.93.93,0,0,1,150.79,58.28ZM47.58,52.62a1,1,0,0,1-.68-.29.94.94,0,0,1,0-1.33c1.21-1.17,2.48-2.31,3.77-3.39a.94.94,0,0,1,1.32.11,1,1,0,0,1-.12,1.33c-1.25,1.05-2.49,2.16-3.67,3.3A.92.92,0,0,1,47.58,52.62ZM138,46.32a.93.93,0,0,1-.55-.18c-1.33-1-2.71-1.9-4.1-2.77a.94.94,0,1,1,1-1.59c1.43.89,2.84,1.85,4.2,2.84a.94.94,0,0,1,.21,1.31A.93.93,0,0,1,138,46.32ZM61.56,42.11a.92.92,0,0,1-.81-.47.93.93,0,0,1,.34-1.28c.68-.39,1.37-.77,2.06-1.13A.94.94,0,1,1,64,40.89c-.68.36-1.34.72-2,1.1A1,1,0,0,1,61.56,42.11Zm61.18-4.26a.84.84,0,0,1-.35-.07c-1.53-.61-3.09-1.17-4.66-1.67a1,1,0,0,1-.61-1.18.94.94,0,0,1,1.19-.61c1.6.51,3.21,1.09,4.78,1.72a.94.94,0,0,1-.35,1.81Zm-16.92-4.42h-.13c-1.62-.21-3.28-.37-4.91-.47a.94.94,0,1,1,.11-1.87c1.68.1,3.38.26,5,.48a.94.94,0,0,1-.12,1.87Z" transform="translate(-3.16 -8.25)"/><path class="cls-3" d="M81.14,52.44a20.53,20.53,0,1,1,20.54-20.53A20.55,20.55,0,0,1,81.14,52.44Zm0-39.18A18.65,18.65,0,1,0,99.79,31.91,18.67,18.67,0,0,0,81.14,13.26Z" transform="translate(-3.16 -8.25)"/><path class="cls-3" d="M54.16,304a1,1,0,0,1-.67-.27,1,1,0,0,1,0-1.33l3.65-3.66a.94.94,0,1,1,1.33,1.33l-3.65,3.66A.93.93,0,0,1,54.16,304Z" transform="translate(-3.16 -8.25)"/><path class="cls-3" d="M44.71,313.48a.9.9,0,0,1-.66-.28.94.94,0,0,1,0-1.33l3.65-3.65A.94.94,0,1,1,49,309.54l-3.65,3.66A.94.94,0,0,1,44.71,313.48Z" transform="translate(-3.16 -8.25)"/><path class="cls-3" d="M57.87,313.54a.93.93,0,0,1-.66-.27l-3.65-3.66a.94.94,0,0,1,1.33-1.33l3.65,3.66a.94.94,0,0,1,0,1.33A1,1,0,0,1,57.87,313.54Z" transform="translate(-3.16 -8.25)"/><path class="cls-3" d="M48.43,304.08a.94.94,0,0,1-.67-.28l-3.65-3.66a.94.94,0,1,1,1.33-1.32l3.65,3.65a.94.94,0,0,1,0,1.33A.9.9,0,0,1,48.43,304.08Z" transform="translate(-3.16 -8.25)"/><path class="cls-3" d="M295.84,133.68a.91.91,0,0,1-.67-.28.92.92,0,0,1,0-1.32l3.65-3.66a.94.94,0,1,1,1.33,1.32l-3.65,3.66A.9.9,0,0,1,295.84,133.68Z" transform="translate(-3.16 -8.25)"/><path class="cls-3" d="M286.39,143.14a.93.93,0,0,1-.66-.27.94.94,0,0,1,0-1.33l3.66-3.66a.92.92,0,0,1,1.32,0,.94.94,0,0,1,0,1.33l-3.66,3.66A.93.93,0,0,1,286.39,143.14Z" transform="translate(-3.16 -8.25)"/><path class="cls-3" d="M299.55,143.21a.9.9,0,0,1-.66-.28l-3.65-3.65a.94.94,0,1,1,1.33-1.33l3.65,3.66a1,1,0,0,1,0,1.33A1,1,0,0,1,299.55,143.21Z" transform="translate(-3.16 -8.25)"/><path class="cls-3" d="M290.11,133.74a1,1,0,0,1-.67-.27l-3.65-3.66a.94.94,0,0,1,1.33-1.33l3.65,3.66a.94.94,0,0,1-.66,1.6Z" transform="translate(-3.16 -8.25)"/><path class="cls-3" d="M421.84,327.14l-.2,0a1,1,0,0,1-.59-.42L411.77,312l-9.17,5.82a1,1,0,0,1-.94,0,.93.93,0,0,1-.5-.8L399.75,283a.94.94,0,0,1,.44-.83,1,1,0,0,1,.94,0l7.11,3.74.07,0,23,12.07a.93.93,0,0,1,.5.8,1,1,0,0,1-.43.83l-9.17,5.82,9.28,14.68a.94.94,0,0,1-.3,1.29L422.35,327A1,1,0,0,1,421.84,327.14Zm-9.78-17.34.21,0a1,1,0,0,1,.59.42l9.27,14.66,7.27-4.61-9.28-14.68a.93.93,0,0,1,.29-1.29l8.59-5.46-21.5-11.28-.07,0-5.73-3L403,315.4l8.59-5.46A1,1,0,0,1,412.06,309.8Z" transform="translate(-3.16 -8.25)"/><path class="cls-3" d="M209.22,182.82a.93.93,0,0,1-.57-.19l-6.46-4.94a.93.93,0,0,1-.17-1.31.94.94,0,0,1,1.31-.18l6.46,4.93a1,1,0,0,1,.18,1.32A.93.93,0,0,1,209.22,182.82Z" transform="translate(-3.16 -8.25)"/><path class="cls-3" d="M203.13,184.11a.93.93,0,0,1-.57-.19,1,1,0,0,1-.18-1.32l2.86-3.75a.93.93,0,0,1,1.32-.18,1,1,0,0,1,.18,1.32l-2.86,3.75A1,1,0,0,1,203.13,184.11Z" transform="translate(-3.16 -8.25)"/><path class="cls-3" d="M236.93,220.68c-7.36,0-15.26-2.8-20.35-7.44a.94.94,0,1,1,1.26-1.39c5.63,5.12,15.35,7.91,23.12,6.63a21.31,21.31,0,0,0,3.22-.78c12.28-4.32,19.76-24.12,19.89-40.77.11-13.15-4-23.16-11.4-27.46a.94.94,0,0,1,1-1.62c8,4.65,12.45,15.25,12.33,29.1-.14,17.3-8.09,37.93-21.16,42.52a21.38,21.38,0,0,1-3.53.86A26.82,26.82,0,0,1,236.93,220.68Z" transform="translate(-3.16 -8.25)"/><path class="cls-3" d="M178.64,306.43a43.18,43.18,0,0,1-4.86-.27,15.88,15.88,0,0,1-12.9-9.57,16.75,16.75,0,0,1,2-16.81,16.48,16.48,0,0,0,2.32-4.41c2.92-8.2-.64-16.59-4.4-25.48-5-11.73-10.13-23.87,1.22-35.24,7.75-7.78,12.24-15.29,14.12-23.65,1.71-7.62,1.23-15.41.67-24.42-.14-2.22-.28-4.5-.4-6.87-.41-8.64,6.51-18,19-25.77,14.69-9.1,36.94-15,49.26-8.17a23.38,23.38,0,0,1,3.57,2.44c6,5,8.14,12.57,5.77,20.71a32.41,32.41,0,0,1-13.71,17.78,45,45,0,0,1-23.7,7.24,16.35,16.35,0,0,1-8.52-2.38,7.35,7.35,0,0,0-4.05-1c-3.63.14-7.47,4.11-8.38,8.67-1.05,5.22,1.84,9.84,7.94,12.68.64.29,16.23,7.31,14.51,20.71A18.07,18.07,0,0,1,217,217c-1.62,4.17-3.06,7.5-4.33,10.44s-2.48,5.73-3.37,8.3A43.27,43.27,0,0,0,206.93,249,66.71,66.71,0,0,0,208,260c2,13.29,4.65,31.48-9.48,41.23a27.5,27.5,0,0,1-10.35,4.21A48.76,48.76,0,0,1,178.64,306.43Zm52.57-181.81c-11.23,0-24.78,4.73-34.78,10.92-11.89,7.37-18.49,16.14-18.11,24.08.11,2.36.25,4.63.39,6.84.57,9.16,1.06,17.07-.71,25-2,8.71-6.6,16.52-14.62,24.56-10.45,10.47-5.78,21.5-.82,33.18,3.74,8.83,7.61,18,4.44,26.84a18.46,18.46,0,0,1-2.58,4.91,14.86,14.86,0,0,0-1.82,14.93A14,14,0,0,0,174,304.29a45,45,0,0,0,13.84-.67,25.48,25.48,0,0,0,9.65-3.92c13.17-9.08,10.58-26.61,8.69-39.41a67.72,67.72,0,0,1-1.12-11.42,45.34,45.34,0,0,1,2.5-13.79c.91-2.64,2.07-5.32,3.41-8.43,1.27-2.92,2.7-6.23,4.31-10.37a16.23,16.23,0,0,0,1-3.85c1.54-12-13.28-18.7-13.43-18.76-9.88-4.61-9.59-11.87-9-14.77,1.09-5.43,5.64-10,10.14-10.18a9.29,9.29,0,0,1,5.07,1.22,14.52,14.52,0,0,0,7.55,2.12,43.16,43.16,0,0,0,22.72-6.94,31,31,0,0,0,12.92-16.72h0c2.15-7.4.26-14.23-5.18-18.75a21,21,0,0,0-3.28-2.24A25.83,25.83,0,0,0,231.21,124.62Z" transform="translate(-3.16 -8.25)"/><path class="cls-3" d="M242.29,203.19a8.82,8.82,0,0,1-7.72-5,.94.94,0,0,1,1.7-.8c.1.21,2.44,4.94,7.75,3.68a.94.94,0,1,1,.43,1.82A8.87,8.87,0,0,1,242.29,203.19Z" transform="translate(-3.16 -8.25)"/><path class="cls-3" d="M232.94,199a6.84,6.84,0,0,1-2.62-.56.94.94,0,1,1,.72-1.74c4,1.67,5.92-2.26,6.12-2.71a.94.94,0,0,1,1.72.75C238.14,196.46,236.09,199,232.94,199Z" transform="translate(-3.16 -8.25)"/><path class="cls-3" d="M247.66,193.89a.94.94,0,0,1-.2-1.85,4,4,0,0,0,2.85-2c.29-.83,0-1.86-1-3.06-3.53-4.57-.93-7.84-.82-8A.94.94,0,1,1,250,180.2c-.08.1-1.73,2.31.85,5.64,1.35,1.75,1.76,3.38,1.23,4.85-.64,1.79-2.59,2.82-4.2,3.18A.75.75,0,0,1,247.66,193.89Z" transform="translate(-3.16 -8.25)"/><path class="cls-3" d="M227,242.55c-6.52,0-13.77-2-19.13-6.44a.94.94,0,1,1,1.2-1.44c8.17,6.78,21.76,7.51,28.45,3.64,2.17-1.26,4.61-3.6,3.92-7.57-.51-2.94-.87-5.62-1.07-8a32.8,32.8,0,0,1-.17-3.39.94.94,0,0,1,1.88.05,30.22,30.22,0,0,0,.16,3.17c.2,2.3.55,4.93,1,7.82.69,3.93-1,7.31-4.83,9.51A23.4,23.4,0,0,1,227,242.55Z" transform="translate(-3.16 -8.25)"/><path class="cls-3" d="M244.24,255.62a.93.93,0,0,1-.84-.52.94.94,0,0,1,.42-1.26c6.63-3.29,10.28-9.09,10-15.92a21.45,21.45,0,0,0-.68-4.52,12.55,12.55,0,0,0-11.88-9.78.94.94,0,1,1,0-1.87A14.4,14.4,0,0,1,255,232.93a24,24,0,0,1,.74,4.92c.29,7.6-3.73,14-11.05,17.68A1.06,1.06,0,0,1,244.24,255.62Z" transform="translate(-3.16 -8.25)"/><path class="cls-3" d="M205.85,103.57c-6.68,0-13.87-8-19.4-21.73a108,108,0,0,1-5.92-21.11c-4.58-25.81,0-47.48,10.43-49.34.32-.05,32.34-5.67,58.55-1.76,21.78,3.26,31.64,12.11,36.08,19a26.49,26.49,0,0,1,3.9,9.63,10.85,10.85,0,0,1-.19,5.13,7.34,7.34,0,0,1-6.95,5.41c-4.48.13-10.63-3.56-14.73-14.21a.92.92,0,0,1-.34-.72v-.35a.94.94,0,0,1,.78-.92.92.92,0,0,1,1,.6c3.76,10.29,9.29,13.83,13.19,13.72a5.45,5.45,0,0,0,5.21-4.08,8.94,8.94,0,0,0,.14-4.24,24.55,24.55,0,0,0-3.63-9c-4.22-6.53-13.69-15-34.78-18.12-25.89-3.87-57.62,1.7-57.94,1.75-9.08,1.62-13.16,23.22-8.91,47.16a106.3,106.3,0,0,0,5.81,20.74c5.38,13.33,12.42,21.19,18.38,20.51a.94.94,0,0,1,.22,1.87A7.3,7.3,0,0,1,205.85,103.57Z" transform="translate(-3.16 -8.25)"/><path class="cls-3" d="M207.26,103.46a.93.93,0,0,1-.92-.77.94.94,0,0,1,.76-1.1c5.27-.94,9.12-8.7,10.27-20.76a.94.94,0,1,1,1.87.18c-1.26,13.14-5.56,21.31-11.81,22.43Z" transform="translate(-3.16 -8.25)"/><path class="cls-3" d="M267.22,102C256.9,102,239,93.36,224.3,84.34a41,41,0,0,0-6.12-3.11,37.42,37.42,0,0,0-30.26,1.08,1,1,0,0,1-1.28-.36.94.94,0,0,1,.35-1.28,38.69,38.69,0,0,1,31.89-1.18,42.74,42.74,0,0,1,6.4,3.24c15.81,9.72,37.2,20,45.48,16.88a4.48,4.48,0,0,0,2.9-3,7.68,7.68,0,0,0,.37-3c-.54-6.06-9.62-8.78-18.32-8.34a38.1,38.1,0,0,0-4.21.45.94.94,0,0,1-.3-1.86,37.28,37.28,0,0,1,4.41-.46c9.3-.48,19.62,2.46,20.29,10a9.74,9.74,0,0,1-.45,3.71,6.31,6.31,0,0,1-4,4.16A12,12,0,0,1,267.22,102Z" transform="translate(-3.16 -8.25)"/><path class="cls-3" d="M177.08,192.15a.9.9,0,0,1-.47-.13c-.23-.13-23-13.65-16.39-49.07a45.63,45.63,0,0,1,11.72-23.35c12.8-13.68,31.17-17.34,34.72-17.94l.48-.07a.94.94,0,1,1,.24,1.86l-.42.06c-3.44.58-21.27,4.14-33.65,17.38a43.78,43.78,0,0,0-11.24,22.41c-6.34,34,15.26,47,15.48,47.1a.94.94,0,0,1-.47,1.75Z" transform="translate(-3.16 -8.25)"/><path class="cls-3" d="M337.11,356a.93.93,0,0,1-.92-.8,208.25,208.25,0,0,0-12.59-46.17c-24.43-59.49-68.59-70.16-69-70.26A.94.94,0,1,1,255,237c.47.11,11.55,2.71,25.85,12.82,13.15,9.31,31.56,27,44.51,58.55a209.8,209.8,0,0,1,12.7,46.6.94.94,0,0,1-.78,1.07Z" transform="translate(-3.16 -8.25)"/><path class="cls-3" d="M324.47,309.64a.94.94,0,0,1-.31-1.83,52,52,0,0,0,13.95-7.15c5.42-4,8.93-8.94,10.14-14.16a18,18,0,0,0,.29-6.74c-1.67-11.37-8.1-19.26-13.77-26.21-1.31-1.6-2.55-3.12-3.73-4.66-5.61-7.37-8.79-14.19-6.05-23.52,3.2-10.88,5.65-23.18-.48-31.87-3.71-5.26-10.18-8.77-19.75-10.7-24.57-5-28.33-19.59-32.3-35.07-.61-2.37-1.24-4.82-1.95-7.23-1.42-4.84-4-8.24-7.62-10.1-6.67-3.42-14.83-.62-14.91-.59a.94.94,0,0,1-1.2-.58.93.93,0,0,1,.57-1.19c.37-.13,9-3.1,16.38.68,4.12,2.11,7,5.89,8.59,11.25.71,2.44,1.34,4.91,2,7.29,4,15.55,7.43,29,30.85,33.7,10.07,2,16.91,5.78,20.92,11.46,6.59,9.34,4.07,22.17.75,33.48-2.53,8.6.32,14.74,5.74,21.85,1.16,1.52,2.38,3,3.68,4.61,5.83,7.14,12.43,15.24,14.18,27.13a19.78,19.78,0,0,1-.32,7.43c-1.31,5.67-5.06,10.94-10.85,15.25a53.79,53.79,0,0,1-14.45,7.41A.85.85,0,0,1,324.47,309.64Z" transform="translate(-3.16 -8.25)"/><path class="cls-3" d="M407.7,167.68H319.3a9,9,0,0,1-9-9V132.08l-9.94-10a.95.95,0,0,1,.67-1.61H407.71a9,9,0,0,1,9,9v29.21A9,9,0,0,1,407.7,167.68ZM303.3,122.35l8.61,8.68a.91.91,0,0,1,.28.66v27a7.12,7.12,0,0,0,7.11,7.11h88.4a7.1,7.1,0,0,0,7.09-7.09V129.5a7.13,7.13,0,0,0-7.08-7.15Z" transform="translate(-3.16 -8.25)"/><path class="cls-3" d="M340.3,149.58a5.67,5.67,0,1,1,5.65-5.67A5.66,5.66,0,0,1,340.3,149.58Zm0-9.45a3.79,3.79,0,1,0,3.77,3.78A3.77,3.77,0,0,0,340.3,140.13Z" transform="translate(-3.16 -8.25)"/><path class="cls-3" d="M387.71,149.58a5.67,5.67,0,1,1,5.65-5.67A5.67,5.67,0,0,1,387.71,149.58Zm0-9.45a3.79,3.79,0,1,0,3.77,3.78A3.78,3.78,0,0,0,387.71,140.13Z" transform="translate(-3.16 -8.25)"/><path class="cls-3" d="M364,149.58a5.67,5.67,0,1,1,5.66-5.67A5.67,5.67,0,0,1,364,149.58Zm0-9.45a3.79,3.79,0,1,0,3.78,3.78A3.77,3.77,0,0,0,364,140.13Z" transform="translate(-3.16 -8.25)"/><path class="cls-3" d="M408.78,213.56a4.73,4.73,0,1,1,4.72-4.72A4.73,4.73,0,0,1,408.78,213.56Zm0-7.57a2.85,2.85,0,1,0,2.84,2.85A2.86,2.86,0,0,0,408.78,206Z" transform="translate(-3.16 -8.25)"/><path class="cls-3" d="M446.79,213.56a4.73,4.73,0,1,1,4.72-4.72A4.73,4.73,0,0,1,446.79,213.56Zm0-7.57a2.85,2.85,0,1,0,2.84,2.85A2.85,2.85,0,0,0,446.79,206Z" transform="translate(-3.16 -8.25)"/><path class="cls-3" d="M427.79,213.56a4.73,4.73,0,1,1,4.71-4.72A4.73,4.73,0,0,1,427.79,213.56Zm0-7.57a2.85,2.85,0,1,0,2.83,2.85A2.86,2.86,0,0,0,427.79,206Z" transform="translate(-3.16 -8.25)"/><path class="cls-3" d="M374.87,102.71a13.6,13.6,0,1,1,13.58-13.59A13.6,13.6,0,0,1,374.87,102.71Zm0-25.32a11.73,11.73,0,1,0,11.7,11.73A11.73,11.73,0,0,0,374.87,77.39Z" transform="translate(-3.16 -8.25)"/><path class="cls-3" d="M131.54,374.52a13.58,13.58,0,1,1,11.17-5.87h0A13.58,13.58,0,0,1,131.54,374.52Zm0-25.32a11.72,11.72,0,1,0,9.62,18.38h0a11.74,11.74,0,0,0-9.63-18.38Z" transform="translate(-3.16 -8.25)"/><path class="cls-3" d="M255.66,85.33a1,1,0,0,1-.41-.09l-37.94-18a9,9,0,0,1-4.25-12l15.13-31.94A9,9,0,0,1,240.14,19l28.62,13.62a.94.94,0,0,1-.81,1.69L239.33,20.71a7.11,7.11,0,0,0-9.44,3.38L214.76,56a7.12,7.12,0,0,0,3.36,9.47l37.94,18.06a.93.93,0,0,1-.4,1.78Z" transform="translate(-3.16 -8.25)"/><path class="cls-3" d="M298.43,104.83a8.82,8.82,0,0,1-3.82-.87l-20-9.53a.94.94,0,1,1,.81-1.69l20,9.53a7.13,7.13,0,0,0,9.45-3.38L320,67a7.13,7.13,0,0,0-3.36-9.48l-28.5-13.55a1,1,0,0,1-.45-1.26.94.94,0,0,1,1.25-.44l28.51,13.56a9,9,0,0,1,4.25,12L306.57,99.69a9,9,0,0,1-8.14,5.14Z" transform="translate(-3.16 -8.25)"/><path class="cls-3" d="M301,50.08a.94.94,0,0,1-.93-.9c-.74-17.11-14.66-19-15.26-19a.94.94,0,0,1,.12-1.87h.18a1.11,1.11,0,0,1,.37.07c2.65.46,15.72,3.6,16.46,20.75a.94.94,0,0,1-.9,1Z" transform="translate(-3.16 -8.25)"/><path class="cls-3" d="M108.38,340.08l-.24,0a1,1,0,0,1-.67-1.15,137.17,137.17,0,0,0-.4-70.06c-2.31-8.65-6.55-19.08-11.47-31.17-7.27-17.86-15.52-38.12-20.45-59.82C66,137.45,71.65,104.47,92.55,77,105.89,59.5,120.91,45,137.2,33.81c2.33-1.59,4.67-3.11,7-4.5,26.38-16.15,46.83-17.91,47-17.93a.94.94,0,0,1,.15,1.88c-.2,0-20.23,1.76-46.2,17.66-2.26,1.37-4.57,2.87-6.87,4.44-16.12,11-31,25.44-44.21,42.79-20.54,27-26.12,59.46-17.06,99.29C81.88,199,90.09,219.16,97.34,237c4.94,12.15,9.21,22.63,11.54,31.4a139.08,139.08,0,0,1,.41,71A.94.94,0,0,1,108.38,340.08Z" transform="translate(-3.16 -8.25)"/><path class="cls-3" d="M265,374.27a.94.94,0,0,1-.43-1.78c31.24-15.7,14.51-58.22,14.33-58.65a.94.94,0,0,1,1.75-.7,76.94,76.94,0,0,1,4.81,24.14c.47,17.31-6.46,30.06-20,36.89A.92.92,0,0,1,265,374.27Z" transform="translate(-3.16 -8.25)"/><path class="cls-3" d="M275.3,389.24h-.14a.93.93,0,0,1-.79-1.06c.56-3.91,1.65-13.86-.28-21.92a.94.94,0,1,1,1.83-.43c2,8.36.88,18.6.31,22.61A.94.94,0,0,1,275.3,389.24Z" transform="translate(-3.16 -8.25)"/><path class="cls-3" d="M172.63,121.19a.93.93,0,0,1-.66-.27C144,93.56,142.89,48.27,143.7,30.07a.94.94,0,1,1,1.87.09c-.8,17.94.3,62.58,27.72,89.42a.94.94,0,0,1,0,1.33A1,1,0,0,1,172.63,121.19Z" transform="translate(-3.16 -8.25)"/><path class="cls-3" d="M167.83,127.26a.94.94,0,0,1-.63-.24c-29.83-27-31.2-73.66-30.4-92.48a.94.94,0,0,1,1.87.08c-.78,18.56.55,64.56,29.79,91a1,1,0,0,1,.07,1.33A.94.94,0,0,1,167.83,127.26Z" transform="translate(-3.16 -8.25)"/><path class="cls-3" d="M258.56,75.52a3.89,3.89,0,0,1-2-.57,4,4,0,0,1-1.88-2.87l-2.88-21.74a3.95,3.95,0,1,1,7.83-1l2.22,16.78L290,55.34a4,4,0,0,1,2.81,7.4L260,75.26A4,4,0,0,1,258.56,75.52Zm-2.89-27.78-.27,0a2.08,2.08,0,0,0-1.77,2.33l2.88,21.74a2.06,2.06,0,0,0,1,1.51,2,2,0,0,0,1.79.16L292.12,61a2,2,0,0,0,1.15-1.09,2,2,0,0,0,.05-1.59,2,2,0,0,0-1.08-1.15,2.07,2.07,0,0,0-1.6,0L261.38,68.26a1,1,0,0,1-.82-.07,1,1,0,0,1-.45-.69l-2.37-18A2.09,2.09,0,0,0,255.67,47.74Z" transform="translate(-3.16 -8.25)"/><path class="cls-3" d="M459.19,302.13h-32.7a.94.94,0,1,1,0-1.88h32.7a7.1,7.1,0,0,0,7.08-7.1V200.91a7.11,7.11,0,0,0-7.08-7.11H325.08a.94.94,0,1,1,0-1.87H459.19a9,9,0,0,1,9,9v92.24A9,9,0,0,1,459.19,302.13Z" transform="translate(-3.16 -8.25)"/><path class="cls-3" d="M401.45,302.13H338.9a.94.94,0,0,1,0-1.88h62.55a.94.94,0,0,1,0,1.88Z" transform="translate(-3.16 -8.25)"/><path class="cls-3" d="M374.47,287.43a.94.94,0,1,1,0-1.88,4.19,4.19,0,0,0,4.21-4.16V219.47a4.15,4.15,0,0,0-4.15-4.15H362.45a4.17,4.17,0,0,0-4.17,4.16v61.91a4.2,4.2,0,0,0,4.22,4.16.94.94,0,0,1,0,1.88,6.08,6.08,0,0,1-6.1-6V219.48a6.06,6.06,0,0,1,6.05-6h12.08a6,6,0,0,1,6,6v61.92A6.07,6.07,0,0,1,374.47,287.43Z" transform="translate(-3.16 -8.25)"/><path class="cls-3" d="M409.1,287.54h-1.82a.94.94,0,0,1,0-1.88h1.82a4.17,4.17,0,0,0,4.16-4.16V248.68a4.17,4.17,0,0,0-4.17-4.17h-12a4.17,4.17,0,0,0-4.21,4.12v32.91a4.15,4.15,0,0,0,4,4.11h3.58a.94.94,0,0,1,0,1.88h-3.7a6,6,0,0,1-5.76-6V248.63a6.05,6.05,0,0,1,6.09-6h12a6.06,6.06,0,0,1,6.05,6.05V281.5A6,6,0,0,1,409.1,287.54Z" transform="translate(-3.16 -8.25)"/><path class="cls-3" d="M397.29,287.54h-48.4a.94.94,0,0,1,0-1.88h48.37a1,1,0,0,1,.95.94A.92.92,0,0,1,397.29,287.54Z" transform="translate(-3.16 -8.25)"/><path class="cls-3" d="M437.25,287.54H409.59a.94.94,0,0,1,0-1.88h27.66a.94.94,0,0,1,0,1.88Z" transform="translate(-3.16 -8.25)"/><path class="cls-3" d="M412.9,266.64c-6.3,0-13.14-1.65-20.85-5A125,125,0,0,1,379.24,255c-2.56-1.5-5-3-7.34-4.44l-2.32-1.42a36.56,36.56,0,0,0-12.05-4.78,35.6,35.6,0,0,0-25.2,4.75.94.94,0,1,1-1.08-1.54,36.91,36.91,0,0,1,26.65-5.06,38.56,38.56,0,0,1,12.66,5l2.32,1.42c2.34,1.44,4.76,2.93,7.31,4.42a121,121,0,0,0,12.61,6.53c8.09,3.54,15.14,5.12,21.58,4.84,12.29-.56,22.14-7.89,30.13-22.42a.94.94,0,1,1,1.64.91c-8.21,14.94-18.87,22.81-31.68,23.38C414,266.63,413.42,266.64,412.9,266.64Z" transform="translate(-3.16 -8.25)"/><path class="cls-3" d="M352.68,122.28a.92.92,0,0,1-.7-.32,162.67,162.67,0,0,0-41.3-33.3A.94.94,0,0,1,311.6,87a164.67,164.67,0,0,1,41.78,33.69,1,1,0,0,1-.08,1.33A.93.93,0,0,1,352.68,122.28Z" transform="translate(-3.16 -8.25)"/><path class="cls-3" d="M230.84,395.37a163.49,163.49,0,0,1-89.41-26.47.94.94,0,1,1,1-1.57,162.57,162.57,0,0,0,235-66.32.94.94,0,0,1,1.7.81,164.13,164.13,0,0,1-148.31,93.55Z" transform="translate(-3.16 -8.25)"/><path class="cls-3" d="M121.92,353.69a1,1,0,0,1-.63-.24,165.34,165.34,0,0,1-13.58-13.68l0-.07A165.35,165.35,0,0,1,75.22,177.34a.93.93,0,0,1,1.19-.58A.94.94,0,0,1,77,178a163.4,163.4,0,0,0,32.12,160.57l.06.07a161.7,161.7,0,0,0,13.37,13.46,1,1,0,0,1,.07,1.33A.93.93,0,0,1,121.92,353.69Z" transform="translate(-3.16 -8.25)"/><path class="cls-3" d="M390,193.9a.94.94,0,0,1-.92-.73,161.21,161.21,0,0,0-8.6-26.31.94.94,0,0,1,.5-1.23.92.92,0,0,1,1.23.49,162.87,162.87,0,0,1,8.7,26.63.94.94,0,0,1-.7,1.13Z" transform="translate(-3.16 -8.25)"/><path class="cls-3" d="M244.24,371.13a1,1,0,0,1-.42-.1,219.63,219.63,0,0,0-21.93-9.22A115,115,0,0,0,200,356a.94.94,0,0,1-.79-1.07.92.92,0,0,1,1.06-.79A117.26,117.26,0,0,1,222.52,360a221.88,221.88,0,0,1,22.14,9.31.94.94,0,0,1-.42,1.78Z" transform="translate(-3.16 -8.25)"/><path class="cls-3" d="M188.53,369.43a84.35,84.35,0,0,1-21-2.49.94.94,0,0,1,.52-1.81c.28.08,28.18,7.93,53.69-5a.93.93,0,0,1,1.26.41.94.94,0,0,1-.41,1.26C210.81,367.77,198.5,369.43,188.53,369.43Z" transform="translate(-3.16 -8.25)"/><path class="cls-3" d="M242.08,171a.92.92,0,0,1-.36-.07,13.13,13.13,0,0,0-8.55-.47,1,1,0,0,1-1.2-.57.93.93,0,0,1,.56-1.2,14.85,14.85,0,0,1,9.9.5.94.94,0,0,1-.35,1.81Z" transform="translate(-3.16 -8.25)"/><path class="cls-3" d="M265,177.89a1,1,0,0,1-.66-.27,2,2,0,0,1-.17-.23c-2-3.78-7.21-3.84-7.26-3.84a.94.94,0,1,1,0-1.87c.26,0,6.3,0,8.89,4.76a1,1,0,0,1,.14.51A.94.94,0,0,1,265,177.89Z" transform="translate(-3.16 -8.25)"/></svg>