<svg id="Layer_1" data-name="Layer 1" xmlns="http://www.w3.org/2000/svg" viewBox="0 0 468.69 340.29"><defs><style>.cls-1{fill:#fff;}.cls-2{fill:#fcb01a;}.cls-3{fill:#e0e0e0;}.cls-4{fill:#1a1a1a;}</style></defs><path class="cls-1" d="M370.65,261.87V185.82H354.73a9.38,9.38,0,0,0-5.72-5.88s-17.35-30.16-61.62-29.09l-3.55-5.17s11.6-11.66,5.3-25.06-26.6-35-41.8-23.64c0,0-13.07-8.62-21.65,1.88s1.61,20.74,7,21.29L231.08,135s-8,5.36,0,7.35c.18,4.29,1.32,19.92,8.64,23.72,0,0-18.85,2.21-35.35,26.35s-19.29,33.21-37.22,35.4-28-22.81-28-22.81-4.43-8.39-12.21-7c0,0-3-7.28-19-8.63s-18-.47-25.12-5.08-11.63-6.61-10.69,1.53c0,0-2.54-5.74-7-3.92s1,21.33,13,26S92.84,216,92.84,216s0,11.5,8.15,12.93c0,0,3.07,39.7,46.29,54.5,0,0,26.32,11.34,71-8.47,0,0,2,25.38,6.17,30C224.49,304.91,391.55,262.81,370.65,261.87Z" transform="translate(-1.31 -55.08)"/><ellipse class="cls-1" cx="389.22" cy="248.73" rx="36.51" ry="36.59"/><path class="cls-1" d="M350.65,310.67a21.68,21.68,0,0,1,1.16-7.62L346,290.22H335.84l.06,1.24a7.48,7.48,0,0,0-.12-1.06,17.15,17.15,0,0,0-34,0c-.12.78-29.11,0-29.11,0a5.83,5.83,0,0,0-5.82,5.83v29.3h-.13a17.2,17.2,0,0,0,2.4,34.22l-2.27.07v29a5.85,5.85,0,0,0,5.83,5.84h92.73a5.86,5.86,0,0,0,5.84-5.84V345.9l-5.38-11.84C357,330,351.11,320.93,350.65,310.67Z" transform="translate(-1.31 -55.08)"/><path class="cls-1" d="M162.51,364.88H115a6.26,6.26,0,0,1-6.25-6.24V336.28a6.24,6.24,0,0,1,6.23-6.2h68.61l6.15-11.16.08,39.76a6.24,6.24,0,0,1-6.23,6.2Z" transform="translate(-1.31 -55.08)"/><path class="cls-1" d="M45.33,300.65a35.86,35.86,0,1,1,27.35-42.71,36.33,36.33,0,0,1,.83,7.71A35.59,35.59,0,0,1,45.33,300.65Z" transform="translate(-1.31 -55.08)"/><path class="cls-1" d="M354.78,136.68a35.75,35.75,0,1,1,35.75,35.83,35.76,35.76,0,0,1-35.75-35.83Z" transform="translate(-1.31 -55.08)"/><path class="cls-1" d="M82.76,177.59H53.84A5.86,5.86,0,0,1,48,171.75V79a5.86,5.86,0,0,1,5.84-5.84h92.73A5.84,5.84,0,0,1,152.4,79v29Z" transform="translate(-1.31 -55.08)"/><circle class="cls-2" cx="320.03" cy="31.09" r="31.09"/><path class="cls-3" d="M231.54,142.37l-.51-.12v-1.09S240.41,144.3,231.54,142.37Z" transform="translate(-1.31 -55.08)"/><path class="cls-2" d="M124.08,229.93a1.37,1.37,0,0,1-.49-.09,10.58,10.58,0,0,1,8-19.58,1.3,1.3,0,1,1-1,2.39,8,8,0,0,0-6,14.8,1.29,1.29,0,0,1-.51,2.48Z" transform="translate(-1.31 -55.08)"/><path class="cls-2" d="M240.45,282.64a1.25,1.25,0,0,1-.19-.46,10.55,10.55,0,0,1,16.35-10.66,10.45,10.45,0,0,1,4.4,6.78,1.29,1.29,0,1,1-2.49.65,1.16,1.16,0,0,1,0-.18,8,8,0,1,0-15.68,3,1.29,1.29,0,0,1-1,1.5A1.27,1.27,0,0,1,240.45,282.64Z" transform="translate(-1.31 -55.08)"/><path class="cls-2" d="M207.89,273.92a1.19,1.19,0,0,1-.49-.1,10.58,10.58,0,0,1,8-19.58,1.3,1.3,0,1,1-1,2.39,8,8,0,0,0-6,14.8,1.29,1.29,0,0,1-.48,2.49Z" transform="translate(-1.31 -55.08)"/><path class="cls-2" d="M204.33,225.84a1.24,1.24,0,0,1,.23.44,10.56,10.56,0,0,1-20.12,6.42c0-.11-.07-.22-.1-.33a1.31,1.31,0,0,1,.87-1.61,1.29,1.29,0,0,1,1.6.85v0A8,8,0,0,0,202.1,227a1.29,1.29,0,0,1,2.23-1.18Z" transform="translate(-1.31 -55.08)"/><path class="cls-2" d="M242.84,190.88a1.42,1.42,0,0,1,.23.44,10.56,10.56,0,1,1-20.23,6.05h0a1.29,1.29,0,0,1,.85-1.6h0a1.29,1.29,0,0,1,1.61.86h0A8,8,0,0,0,241,193.24a8.55,8.55,0,0,0-.36-1.19,1.3,1.3,0,0,1,.87-1.61,1.28,1.28,0,0,1,1.37.43Z" transform="translate(-1.31 -55.08)"/><path class="cls-2" d="M237.55,235.61a1.26,1.26,0,0,1,.4.28,10.56,10.56,0,1,1-14.3,15.55q-.42-.41-.81-.84a1.29,1.29,0,0,1,1.85-1.79,8,8,0,0,0,11.46-11.12,1.3,1.3,0,0,1,0-1.83A1.27,1.27,0,0,1,237.55,235.61Z" transform="translate(-1.31 -55.08)"/><path class="cls-2" d="M176.51,254.63a1.26,1.26,0,0,1,.4.28,10.57,10.57,0,1,1-14.72,15.17c-.15-.14-.3-.3-.44-.45a1.29,1.29,0,1,1,1.85-1.8,8,8,0,0,0,11.46-11.12,1.29,1.29,0,0,1,1.45-2.08Z" transform="translate(-1.31 -55.08)"/><path class="cls-2" d="M120.47,259.37a1.32,1.32,0,0,1,.19-.46,10.56,10.56,0,1,1,17.53,11.78,1.29,1.29,0,0,1-2.14-1.44,8,8,0,1,0-13.21-8.88,1.29,1.29,0,0,1-2.33-1Z" transform="translate(-1.31 -55.08)"/><path class="cls-2" d="M157.84,226.44a9,9,0,0,1-.46.79,8,8,0,0,1-14.44-3,1.29,1.29,0,0,0-2.53.49,10.55,10.55,0,0,0,19.1,3.95,11.24,11.24,0,0,0,.88-1.59A16.13,16.13,0,0,1,157.84,226.44Z" transform="translate(-1.31 -55.08)"/><path class="cls-2" d="M250.84,221.7a1.51,1.51,0,0,1,.2-.45A10.56,10.56,0,0,1,268.57,233a1.29,1.29,0,1,1-2.14-1.43,8,8,0,0,0-2.19-11.1h0a8,8,0,0,0-11.06,2.19,1.28,1.28,0,0,1-1.78.39,1.29,1.29,0,0,1-.56-1.39Z" transform="translate(-1.31 -55.08)"/><path class="cls-2" d="M297,167.55a1.4,1.4,0,0,1,0-.5,10.55,10.55,0,0,1,21,1.88,10.44,10.44,0,0,1-.22,1.38,1.29,1.29,0,1,1-2.57-.19.76.76,0,0,1,0-.21,8,8,0,1,0-15.77-2.46,1.29,1.29,0,0,1-1.47,1.07A1.27,1.27,0,0,1,297,167.55Z" transform="translate(-1.31 -55.08)"/><rect class="cls-4" x="182.69" y="30.77" width="18.98" height="18.98"/><rect class="cls-1" x="170.04" y="18.75" width="18.98" height="18.98"/><circle class="cls-2" cx="388.01" cy="139.91" r="2.85"/><circle class="cls-2" cx="401.93" cy="139.91" r="2.85"/><circle class="cls-2" cx="415.85" cy="139.91" r="2.85"/><circle class="cls-2" cx="388.01" cy="152.57" r="2.85"/><circle class="cls-2" cx="401.93" cy="152.57" r="2.85"/><circle class="cls-2" cx="415.85" cy="152.57" r="2.85"/><circle class="cls-2" cx="388.01" cy="165.86" r="2.85"/><circle class="cls-2" cx="401.93" cy="165.86" r="2.85"/><circle class="cls-2" cx="415.85" cy="165.86" r="2.85"/><path class="cls-1" d="M171.29,193.94l5.15-5.15a2.32,2.32,0,0,0,.21-3.11,2.23,2.23,0,0,0-3.15-.28l-.15.13-5.23,5.24a1.72,1.72,0,0,1-2.42,0l0,0-5.06-5.08a2.25,2.25,0,0,0-3.17,0h0a2.26,2.26,0,0,0,0,3.18l5.07,5.07a1.74,1.74,0,0,1,0,2.45l-5,5a2.35,2.35,0,0,0-.22,3.11,2.25,2.25,0,0,0,3.17.28l.14-.13,5-5.07a1.73,1.73,0,0,1,2.44,0l5.14,5.15a2.31,2.31,0,0,0,3.1.22,2.25,2.25,0,0,0,.28-3.17.86.86,0,0,0-.13-.14l-5.2-5.27A1.74,1.74,0,0,1,171.29,193.94Z" transform="translate(-1.31 -55.08)"/><circle class="cls-2" cx="459.83" cy="192.75" r="8.86"/><path class="cls-4" d="M390.53,257.27a46.51,46.51,0,1,0,46.4,46.62v-.12A46.46,46.46,0,0,0,390.53,257.27Zm0,83.12a36.64,36.64,0,1,1,36.56-36.72v.08a36.59,36.59,0,0,1-36.56,36.62Z" transform="translate(-1.31 -55.08)"/><path class="cls-3" d="M266.89,321.22V296.37a6.21,6.21,0,0,0-6.2-6.18h-28.6a17.42,17.42,0,0,1-7.6,14.38h0l8.06,16.61Z" transform="translate(-1.31 -55.08)"/><path class="cls-2" d="M133.84,344.11a3.67,3.67,0,1,1-3.66,3.68v0a3.66,3.66,0,0,1,3.66-3.66Z" transform="translate(-1.31 -55.08)"/><path class="cls-2" d="M152.25,344.11a3.67,3.67,0,1,1-3.66,3.68v0a3.66,3.66,0,0,1,3.66-3.66Z" transform="translate(-1.31 -55.08)"/><path class="cls-2" d="M170.64,344.11a3.67,3.67,0,1,1-3.66,3.68v0a3.66,3.66,0,0,1,3.64-3.66Z" transform="translate(-1.31 -55.08)"/><ellipse class="cls-2" cx="394.01" cy="66.27" rx="6.46" ry="6.47"/><path class="cls-2" d="M408,145.54v9.91H382v-9.91a13,13,0,0,1,25.95,0Z" transform="translate(-1.31 -55.08)"/><path class="cls-4" d="M266.89,365.78v23a5.85,5.85,0,0,1-5.83,5.82H168.3a5.86,5.86,0,0,1-5.81-5.89V364.88h21a6.27,6.27,0,0,0,6.21-6.3l-.07-39.72-6.14,11.22h-21v-34a5.83,5.83,0,0,1,5.81-5.83h22a75.43,75.43,0,0,0,75.29,75.57h0Z" transform="translate(-1.31 -55.08)"/><path class="cls-2" d="M371.29,241.71V261.6a46.53,46.53,0,0,0-24.82,28.62h-5.33a75.46,75.46,0,0,0-74.25-75.36V191.64a5.83,5.83,0,0,1,5.83-5.82h92.73a5.84,5.84,0,0,1,5.84,5.82Z" transform="translate(-1.31 -55.08)"/><path class="cls-2" d="M463.12,366.5a3.65,3.65,0,0,1,0,5.15L457.78,377a3.62,3.62,0,0,1-5.12,0h0l-23.53-23.57a3.66,3.66,0,0,1,0-5.1h0l5.34-5.35a3.63,3.63,0,0,1,5.13,0h0Z" transform="translate(-1.31 -55.08)"/><path class="cls-4" d="M434.61,342.78l-.15.15-5.34,5.35h0l-.09.1-8.84-8.85h0c1.09-.91,2.15-1.87,3.18-2.9q1.32-1.32,2.49-2.7Z" transform="translate(-1.31 -55.08)"/><path class="cls-4" d="M341,290.22h-5a17.15,17.15,0,0,0-34,0H272.71a5.85,5.85,0,0,1-5.82-5.83V255.13a17.24,17.24,0,0,0,0-34.48v-6A75.47,75.47,0,0,1,341,290.22Z" transform="translate(-1.31 -55.08)"/><path class="cls-4" d="M247.32,97.3c.21-.18,11.79-10,25.88,3.55,13.76,13.23,27.25,28.58,10.58,44.85a43.35,43.35,0,0,1-3.36,3,9.45,9.45,0,0,0,1.82-4.92,9.15,9.15,0,0,0-1.95-6.47c-3.32-4.12-7.43-1.89-9.32.08a10.33,10.33,0,0,1-7.13,3.49,7.11,7.11,0,0,1-2.94-.64,8.15,8.15,0,0,1-4.6-5.54c-1.41-5.92-4.67-12-10.19-12.92-3.27-.52-7.07-.83-11.29-1.32a15.28,15.28,0,0,1-2-.37,13.46,13.46,0,0,1-10.34-13.38,12.76,12.76,0,0,1,4.63-9.34C235,90.71,242.48,93.73,247.32,97.3Z" transform="translate(-1.31 -55.08)"/><path class="cls-2" d="M266.89,296.54h0v29.28a17.17,17.17,0,0,0,0,34v6.32h-1.32a75.34,75.34,0,0,1-75.24-75.43v-.5h7.21c0,10.28,7.44,17.35,16.93,17.35,3.44,0,6.64-.58,9.32-2.46,4.74-3.32,8.12-8.33,8.12-14.89h29.16a6.09,6.09,0,0,1,5.82,6.32Z" transform="translate(-1.31 -55.08)"/><path class="cls-4" d="M241.4,134.82c.11,1.57-.57,2.89-1.52,3s-1.79-1.14-1.9-2.71.56-2.89,1.51-3S241.29,133.26,241.4,134.82Z" transform="translate(-1.31 -55.08)"/><path class="cls-4" d="M197.44,134.37a1.58,1.58,0,1,1-1.6,1.6,1.57,1.57,0,0,1,1.54-1.6Z" transform="translate(-1.31 -55.08)"/><path class="cls-4" d="M197.44,140.84a1.58,1.58,0,1,1-.25,0Z" transform="translate(-1.31 -55.08)"/><path class="cls-4" d="M197.44,147.28a1.58,1.58,0,1,1-1.6,1.57,1.57,1.57,0,0,1,1.57-1.57Z" transform="translate(-1.31 -55.08)"/><path class="cls-4" d="M190.07,134.37A1.58,1.58,0,1,1,188.5,136h0A1.58,1.58,0,0,1,190.07,134.37Z" transform="translate(-1.31 -55.08)"/><path class="cls-4" d="M190.07,140.84a1.58,1.58,0,1,1-1.57,1.59v-.06A1.57,1.57,0,0,1,190.07,140.84Z" transform="translate(-1.31 -55.08)"/><path class="cls-4" d="M190.07,147.28a1.58,1.58,0,1,1-1.57,1.59v0A1.59,1.59,0,0,1,190.07,147.28Z" transform="translate(-1.31 -55.08)"/><path class="cls-4" d="M182.71,134.37a1.58,1.58,0,1,1-1.57,1.59h0A1.58,1.58,0,0,1,182.71,134.37Z" transform="translate(-1.31 -55.08)"/><path class="cls-4" d="M182.71,140.84a1.58,1.58,0,1,1-1.57,1.59v-.06A1.57,1.57,0,0,1,182.71,140.84Z" transform="translate(-1.31 -55.08)"/><path class="cls-4" d="M182.71,147.28a1.58,1.58,0,1,1-1.57,1.59v0A1.59,1.59,0,0,1,182.71,147.28Z" transform="translate(-1.31 -55.08)"/><path class="cls-2" d="M82.68,177.56H74.94v-1.73a75.46,75.46,0,0,1,75.37-75.46h1.42v8a17.2,17.2,0,0,1,0,34.05V171.8a5.84,5.84,0,0,1-5.83,5.83H116.67a17.15,17.15,0,0,1-7.44,11.89c-5.13-.55-9.09-.57-12.53-.73A27.86,27.86,0,0,1,87.23,187,17,17,0,0,1,82.68,177.56Z" transform="translate(-1.31 -55.08)"/><path class="cls-2" d="M90.57,340.55a2.33,2.33,0,0,1,.81,3.2,2.38,2.38,0,0,1-.81.8l-4.38,2.53-18.3,10.59a2.32,2.32,0,0,1-3.48-2V329.43a2.32,2.32,0,0,1,3.48-2Z" transform="translate(-1.31 -55.08)"/><path class="cls-4" d="M53.12,250.22a3,3,0,0,1,3.65-.91,2.92,2.92,0,0,1,1.3,3.93,2.41,2.41,0,0,1-.3.48L36.64,280.87A2.93,2.93,0,0,1,34.43,282h-.09a3,3,0,0,1-2.18-1L17.84,264.77A2.92,2.92,0,1,1,22,260.66a2.62,2.62,0,0,1,.22.25l12,13.6Z" transform="translate(-1.31 -55.08)"/><path class="cls-4" d="M74,190.45a.79.79,0,0,1-.64-.33l-.12-.19a.77.77,0,1,1,1.32-.8l.07.11a.75.75,0,0,1-.16,1.06A.8.8,0,0,1,74,190.45Z" transform="translate(-1.31 -55.08)"/><path class="cls-4" d="M126.61,198.74a.79.79,0,0,1-.68-.41c-2.68-4.92-9.23-7.12-12.32-7.59-1.43-.21-2.83-.39-4.29-.55-3.8-.41-7-.52-9.74-.62l-2.74-.11a29.15,29.15,0,0,1-9.73-1.8,28.79,28.79,0,0,1-8.06-5.14c-2.2-1.89-4.41-2.41-5.62-1.34s-1.47,4,1,7.85a.78.78,0,0,1-1.3.85c-3-4.61-2.58-8.27-.78-9.86,1.49-1.28,4.28-1.65,7.71,1.35a27.2,27.2,0,0,0,7.63,4.88,27.12,27.12,0,0,0,9.22,1.7l2.72.1c2.81.1,6,.22,9.85.63,1.48.16,2.91.34,4.36.56.4.06,9.74,1.56,13.45,8.38a.77.77,0,0,1-.28,1h0A.79.79,0,0,1,126.61,198.74Z" transform="translate(-1.31 -55.08)"/><path class="cls-4" d="M74.25,190.84a.74.74,0,0,1-.6-.3,1.33,1.33,0,0,1-.14-.19,1.22,1.22,0,0,1-.12-.19.78.78,0,0,1,.35-1,.77.77,0,0,1,1,.35h0l.09.11a.77.77,0,0,1-.13,1.09.78.78,0,0,1-.48.17Z" transform="translate(-1.31 -55.08)"/><path class="cls-4" d="M93.13,203.48a.75.75,0,0,1-.26,0c-.48-.17-11.72-4.33-17.69-11-.53-.59-1-1.21-1.5-1.84a.77.77,0,0,1,1.25-.91h0c.44.59.91,1.17,1.4,1.72,5.72,6.37,17,10.53,17.07,10.57a.77.77,0,0,1,.47,1v0A.75.75,0,0,1,93.13,203.48Z" transform="translate(-1.31 -55.08)"/><path class="cls-4" d="M169.73,287.37c-20.28,0-34.88-7.29-44.79-15.27-19.16-15.44-26.07-37.45-24.79-43.44a.77.77,0,0,1,.91-.6h0a.78.78,0,0,1,.6.92c-1.18,5.54,5.87,27.1,24.25,41.91,9.69,7.8,24,14.92,43.84,14.92,13.41,0,29.37-3.24,48.18-11.72a.78.78,0,0,1,1,.38.79.79,0,0,1-.39,1C199.53,284.12,183.35,287.37,169.73,287.37Z" transform="translate(-1.31 -55.08)"/><path class="cls-4" d="M92.89,217h-.25a.77.77,0,0,1-.52-.2c-2.57-2.31-5.78-3.75-10-5.53a32.56,32.56,0,0,1-14-10.73,35.39,35.39,0,0,1-5-9.74c-1.14-3.39-1.24-6-.3-7.73a4,4,0,0,1,2.53-2,4.68,4.68,0,0,1,5.12,2.21c1.34,2.27,3.06,4.77,4,6.06v.07l.12.17v.07h0v.12l.12.16h0a.78.78,0,0,1,0,1,.75.75,0,0,1-1,.09.69.69,0,0,1-.24-.24v-.08l-.07-.1-.06-.09,0-.06a1.3,1.3,0,0,1-.1-.15l-.06-.09-.08-.12c-.89-1.26-2.64-3.79-4-6.11a3.13,3.13,0,0,0-3.4-1.5,2.37,2.37,0,0,0-1.56,1.2c-.5.93-.84,2.81.41,6.5a33.77,33.77,0,0,0,4.75,9.32,31,31,0,0,0,13.31,10.22c4.29,1.8,7.56,3.26,10.26,5.62a.77.77,0,0,1,0,1.54Zm-18.68-27-.18.14.26-.17Z" transform="translate(-1.31 -55.08)"/><path class="cls-4" d="M456.84,141.76a5.09,5.09,0,1,1,5-5.18v.1A5.09,5.09,0,0,1,456.84,141.76Zm0-8.62a3.54,3.54,0,1,0,3.53,3.55h0A3.54,3.54,0,0,0,456.84,133.14Z" transform="translate(-1.31 -55.08)"/><path class="cls-4" d="M456.84,251a9.28,9.28,0,1,1,9.26-9.3v0A9.27,9.27,0,0,1,456.84,251Zm0-17a7.73,7.73,0,1,0,7.71,7.75v0a7.72,7.72,0,0,0-7.71-7.73Z" transform="translate(-1.31 -55.08)"/><path class="cls-4" d="M183.54,365.65H115a7,7,0,0,1-7-7V336.28a7,7,0,0,1,7-7H183.1L189,318.51a.77.77,0,0,1,1.45.38l.07,39.75a7,7,0,0,1-7,7Zm-68.61-34.8a5.45,5.45,0,0,0-5.45,5.43v22.36a5.48,5.48,0,0,0,5.47,5.47h68.59a5.45,5.45,0,0,0,5.45-5.43l-.06-36.77-4.71,8.54a.78.78,0,0,1-.68.4Z" transform="translate(-1.31 -55.08)"/><path class="cls-4" d="M167,352.21a4.44,4.44,0,1,1,4.43-4.45h0A4.44,4.44,0,0,1,167,352.21Zm0-7.33a2.89,2.89,0,1,0,2.86,2.92v0A2.87,2.87,0,0,0,167,344.88Z" transform="translate(-1.31 -55.08)"/><path class="cls-4" d="M130.21,352.21a4.44,4.44,0,1,1,4.43-4.45h0A4.44,4.44,0,0,1,130.21,352.21Zm0-7.33a2.89,2.89,0,1,0,2.89,2.89,2.89,2.89,0,0,0-2.89-2.89Z" transform="translate(-1.31 -55.08)"/><path class="cls-4" d="M148.6,352.21a4.44,4.44,0,1,1,4.43-4.45h0A4.44,4.44,0,0,1,148.6,352.21Zm0-7.33a2.89,2.89,0,1,0,2.88,2.9h0A2.9,2.9,0,0,0,148.6,344.88Z" transform="translate(-1.31 -55.08)"/><path class="cls-4" d="M354.78,186.15a.78.78,0,0,1-.75-.57,6.86,6.86,0,0,0-4.73-4.52,7.89,7.89,0,0,0-2-.25,5.13,5.13,0,0,0-4.2,1.9,6.79,6.79,0,0,0-1.3,2.8.78.78,0,0,1-.9.63.77.77,0,0,1-.63-.89h0a8.38,8.38,0,0,1,1.63-3.51,6.68,6.68,0,0,1,5.4-2.47,9.6,9.6,0,0,1,2.39.29,8.41,8.41,0,0,1,5.83,5.61.75.75,0,0,1-.51.94h0A.64.64,0,0,1,354.78,186.15Z" transform="translate(-1.31 -55.08)"/><path class="cls-4" d="M325.84,186.23h-.12a.78.78,0,0,1-.64-.89,10.72,10.72,0,0,1,1.5-3.73l.05-.07a8.64,8.64,0,0,1,7.58-4,10.76,10.76,0,0,1,8.94,4.28.78.78,0,0,1-.15,1.09.79.79,0,0,1-1.09-.15,9.23,9.23,0,0,0-7.71-3.67,7,7,0,0,0-6.31,3.34v.06a9.26,9.26,0,0,0-1.23,3.08A.78.78,0,0,1,325.84,186.23Z" transform="translate(-1.31 -55.08)"/><path class="cls-4" d="M308.84,186.15h-.13a.78.78,0,0,1-.64-.89,12.05,12.05,0,0,1,1.38-3.62,9.42,9.42,0,0,1,8.56-4.85,11.76,11.76,0,0,1,9.76,4.67.78.78,0,0,1-1.24.93,10.22,10.22,0,0,0-8.52-4,7.83,7.83,0,0,0-7.17,4,10.37,10.37,0,0,0-1.19,3.09A.77.77,0,0,1,308.84,186.15Z" transform="translate(-1.31 -55.08)"/><path class="cls-4" d="M291.51,186.15h-.13a.77.77,0,0,1-.64-.88h0c0-.08,1.48-8.47,9.94-8.47a11.74,11.74,0,0,1,9.75,4.67.77.77,0,0,1-1.23.93,10.22,10.22,0,0,0-8.52-4c-7.13,0-8.36,6.88-8.41,7.17A.76.76,0,0,1,291.51,186.15Z" transform="translate(-1.31 -55.08)"/><path class="cls-4" d="M400.21,211.37a3.59,3.59,0,1,1,3.57-3.61v0a3.57,3.57,0,0,1-3.56,3.58Zm0-5.62a2,2,0,1,0,2,2,2,2,0,0,0-2-2Z" transform="translate(-1.31 -55.08)"/><path class="cls-4" d="M386.45,211.37a3.59,3.59,0,1,1,3.58-3.6v0a3.57,3.57,0,0,1-3.56,3.58Zm0-5.62a2,2,0,1,0,2,2,2,2,0,0,0-2-2Z" transform="translate(-1.31 -55.08)"/><path class="cls-4" d="M413.42,211.37a3.59,3.59,0,1,1,3.57-3.61v0A3.59,3.59,0,0,1,413.42,211.37Zm0-5.62a2,2,0,1,0,2,2,2,2,0,0,0-2-2Z" transform="translate(-1.31 -55.08)"/><path class="cls-4" d="M400.21,198.75a3.58,3.58,0,1,1,3.57-3.59h0A3.59,3.59,0,0,1,400.21,198.75Zm0-5.62a2,2,0,1,0,2,2,2,2,0,0,0-2-2Z" transform="translate(-1.31 -55.08)"/><path class="cls-4" d="M386.45,198.75a3.58,3.58,0,1,1,3.58-3.58h0A3.58,3.58,0,0,1,386.45,198.75Zm0-5.62a2,2,0,1,0,2,2,2,2,0,0,0-2-2Z" transform="translate(-1.31 -55.08)"/><path class="cls-4" d="M413.42,198.75a3.58,3.58,0,1,1,3.57-3.59h0A3.59,3.59,0,0,1,413.42,198.75Zm0-5.62a2,2,0,1,0,2,2,2,2,0,0,0-2-2Z" transform="translate(-1.31 -55.08)"/><path class="cls-4" d="M400.21,224.37a3.58,3.58,0,1,1,3.57-3.59h0A3.59,3.59,0,0,1,400.21,224.37Zm0-5.61a2,2,0,1,0,2,2,2,2,0,0,0-2-2Z" transform="translate(-1.31 -55.08)"/><path class="cls-4" d="M386.45,224.37a3.58,3.58,0,1,1,3.58-3.58h0A3.58,3.58,0,0,1,386.45,224.37Zm0-5.61a2,2,0,1,0,2,2,2,2,0,0,0-2-2Z" transform="translate(-1.31 -55.08)"/><path class="cls-4" d="M413.42,224.37a3.58,3.58,0,1,1,3.57-3.59h0A3.59,3.59,0,0,1,413.42,224.37Zm0-5.61a2,2,0,1,0,2,2,2,2,0,0,0-2-2Z" transform="translate(-1.31 -55.08)"/><path class="cls-4" d="M311.89,114.37a.82.82,0,0,1-.55-.22.78.78,0,0,1,0-1.1L314,110.4a.77.77,0,0,1,1.09,0h0a.76.76,0,0,1,0,1.07l0,0-2.64,2.68A.8.8,0,0,1,311.89,114.37Z" transform="translate(-1.31 -55.08)"/><path class="cls-4" d="M305.05,121.26a.76.76,0,0,1-.55-.23.77.77,0,0,1,0-1.09h0l2.64-2.66a.77.77,0,0,1,1.09,0h0a.76.76,0,0,1,0,1.07l0,0L305.58,121A.8.8,0,0,1,305.05,121.26Z" transform="translate(-1.31 -55.08)"/><path class="cls-4" d="M314.59,121.3a.82.82,0,0,1-.55-.22l-2.65-2.65a.78.78,0,0,1,1.1-1.1l2.64,2.65a.77.77,0,0,1,0,1.09h0A.77.77,0,0,1,314.59,121.3Z" transform="translate(-1.31 -55.08)"/><path class="cls-4" d="M307.74,114.44a.75.75,0,0,1-.55-.23l-2.65-2.64a.78.78,0,0,1,1.1-1.1l2.65,2.65a.77.77,0,0,1,0,1.09h0A.75.75,0,0,1,307.74,114.44Z" transform="translate(-1.31 -55.08)"/><path class="cls-4" d="M175.07,206.2a3,3,0,0,1-2.1-.87l-5-5.05a1.35,1.35,0,0,0-1.87,0L161,205.37a2.92,2.92,0,0,1-2.22.87,3,3,0,0,1-1.88-5.13l5-5a1.33,1.33,0,0,0,0-1.88l-5-5a3,3,0,0,1,.06-4.24l.14-.13a3,3,0,0,1,4.06.26l5,5a1.31,1.31,0,0,0,.93.39h0a1.33,1.33,0,0,0,.94-.39l5-5a3,3,0,0,1,4.17,0l.19.21a3,3,0,0,1-.26,4.08l-5,5a1.33,1.33,0,0,0,0,1.88l5,5a3.05,3.05,0,0,1,.27,4.08,3,3,0,0,1-2.15,1.06Zm-16.23-20.53a1.34,1.34,0,0,0-.86.3,1.42,1.42,0,0,0-.18,2l.08.09,5,5.05a2.9,2.9,0,0,1,0,4.07l-5,5a1.5,1.5,0,0,0-.16,2,1.39,1.39,0,0,0,2.06.09l5-5.05a2.85,2.85,0,0,1,4,0l0,0,5,5.05a1.42,1.42,0,0,0,2,0l.07-.08a1.5,1.5,0,0,0-.17-2h0l-5-5a2.92,2.92,0,0,1,0-4.08l5-5a1.5,1.5,0,0,0,.17-2,1.39,1.39,0,0,0-1-.5,1.41,1.41,0,0,0-1.06.41l-5,5.05a2.81,2.81,0,0,1-2,.85h0a2.85,2.85,0,0,1-2-.85l-5-5A1.63,1.63,0,0,0,158.84,185.67Z" transform="translate(-1.31 -55.08)"/><path class="cls-4" d="M243.44,157.88a4.72,4.72,0,0,1-3.1-1.17.79.79,0,0,1-.1-1.09.77.77,0,0,1,1.09-.09h0a3.39,3.39,0,0,0,4.26.08.79.79,0,0,1,1.09.13.78.78,0,0,1-.13,1.08A5.19,5.19,0,0,1,243.44,157.88Z" transform="translate(-1.31 -55.08)"/><path class="cls-4" d="M249.18,158.24h-.06a4.78,4.78,0,0,1-4.44-5.11c0-.06,0-.11,0-.16a.77.77,0,0,1,.81-.73.76.76,0,0,1,.73.8h0c0,.35,0,3.43,3,3.65a.79.79,0,0,1,.72.83A.77.77,0,0,1,249.18,158.24Z" transform="translate(-1.31 -55.08)"/><path class="cls-4" d="M273.2,146.13a.76.76,0,0,1-.55-.23.77.77,0,0,1,0-1.09h0l4.19-4.16a.78.78,0,1,1,1.1,1.1l-4.17,4.15A.81.81,0,0,1,273.2,146.13Z" transform="translate(-1.31 -55.08)"/><path class="cls-4" d="M277.69,146.48a.76.76,0,0,1-.55-.23l-2.41-2.43a.78.78,0,0,1,0-1.1.77.77,0,0,1,1.08,0v0l2.41,2.43a.76.76,0,0,1,0,1.07l0,0A.77.77,0,0,1,277.69,146.48Z" transform="translate(-1.31 -55.08)"/><path class="cls-4" d="M262.53,172.53a.77.77,0,0,1-.65-.35,3.16,3.16,0,0,0-3.65-1.25,19.52,19.52,0,0,1-7.74.84,20.73,20.73,0,0,1-11.83-5.18.77.77,0,0,1-.06-1.09h0a.76.76,0,0,1,1.07-.08l0,0a19.17,19.17,0,0,0,10.94,4.79,18.11,18.11,0,0,0,7.13-.77,4.76,4.76,0,0,1,5.42,1.87.77.77,0,0,1-.65,1.2Z" transform="translate(-1.31 -55.08)"/><path class="cls-4" d="M239.17,166.79a.74.74,0,0,1-.51-.2,20.88,20.88,0,0,1-6.24-10,61.32,61.32,0,0,1-1.91-13.54c-1.15-.27-3.44-1.06-3.76-3.09-.42-2.64,2.61-4.54,3.77-5.16.07-1.59.16-3.2.28-4.77.45-5.71,1.15-9.77,1.15-9.81a.78.78,0,0,1,1.53.27s-.7,4-1.14,9.66c-.13,1.7-.22,3.44-.29,5.16a.77.77,0,0,1-.45.68c-1,.46-3.59,2-3.32,3.73.23,1.5,3.05,1.92,3.08,1.92a.77.77,0,0,1,.67.74,60,60,0,0,0,1.88,13.8,19.34,19.34,0,0,0,5.78,9.29.78.78,0,0,1,.08,1.09.79.79,0,0,1-.6.26Z" transform="translate(-1.31 -55.08)"/><path class="cls-4" d="M273.69,152.84a.77.77,0,0,1-.08-1.54l.73-.1h.1a8.89,8.89,0,0,0,3-1.06,7.3,7.3,0,0,0,2.18-1.92.78.78,0,0,1,1.09-.15.79.79,0,0,1,.15,1.09,8.77,8.77,0,0,1-2.64,2.32,10.45,10.45,0,0,1-3.64,1.26h-.08l-.76.1Z" transform="translate(-1.31 -55.08)"/><path class="cls-4" d="M280.42,149.45a.76.76,0,0,1-.46-.16.77.77,0,0,1-.15-1.08h0a8.75,8.75,0,0,0,1.66-4.53,8.35,8.35,0,0,0-1.79-5.91,4.81,4.81,0,0,0-3.51-2,6.54,6.54,0,0,0-4.64,2.15,11,11,0,0,1-7.69,3.74,7.77,7.77,0,0,1-3.25-.71,9,9,0,0,1-5-6.07c-.62-2.64-3.15-11.31-9.55-12.34-2.11-.33-4.48-.58-7-.85-1.37-.14-2.79-.29-4.27-.47a13.73,13.73,0,0,1-2.11-.38,14.15,14.15,0,0,1-10.92-14.16,13.55,13.55,0,0,1,5-9.93c8.21-6.92,16-3.86,21.17-.07a29.48,29.48,0,0,1,5.58,5.41.77.77,0,0,1-.16,1.08.78.78,0,0,1-1.08-.16,28.34,28.34,0,0,0-5.41-5.08c-4.67-3.46-11.81-6.27-19.25,0a12,12,0,0,0-4.4,8.8A12.61,12.61,0,0,0,233,119.37a13.79,13.79,0,0,0,1.9.35c1.48.17,2.9.32,4.27.46,2.53.27,4.92.52,7.06.86,7.15,1.15,10,9.83,10.82,13.51a7.41,7.41,0,0,0,4.17,5,6.4,6.4,0,0,0,2.62.57,9.54,9.54,0,0,0,6.61-3.29c.63-.65,2.9-2.76,5.82-2.63a6.26,6.26,0,0,1,4.66,2.61,10,10,0,0,1,2.12,7,10.3,10.3,0,0,1-2,5.33A.77.77,0,0,1,280.42,149.45Z" transform="translate(-1.31 -55.08)"/><path class="cls-4" d="M244.48,130.37a.74.74,0,0,1-.53-.21h0a6.25,6.25,0,0,0-5.33-1.41.77.77,0,1,1-.32-1.51h0A7.77,7.77,0,0,1,245,129a.77.77,0,0,1-.53,1.33Z" transform="translate(-1.31 -55.08)"/><path class="cls-4" d="M84,295.19a.76.76,0,0,1-.55-.23.77.77,0,0,1,0-1.09h0l2.65-2.66a.77.77,0,0,1,1.09,0h0a.78.78,0,0,1,0,1.1L84.58,295A.78.78,0,0,1,84,295.19Z" transform="translate(-1.31 -55.08)"/><path class="cls-4" d="M77.19,302.05a.76.76,0,0,1-.55-.23.77.77,0,0,1,0-1.09h0l2.65-2.65a.77.77,0,1,1,1.09,1.09l-2.64,2.65A.81.81,0,0,1,77.19,302.05Z" transform="translate(-1.31 -55.08)"/><path class="cls-4" d="M86.73,302.1a.76.76,0,0,1-.55-.23l-2.64-2.65a.78.78,0,0,1,0-1.1.77.77,0,0,1,1.09,0h0l2.65,2.66a.77.77,0,0,1,0,1.09h0A.81.81,0,0,1,86.73,302.1Z" transform="translate(-1.31 -55.08)"/><path class="cls-4" d="M79.89,295.24a.76.76,0,0,1-.55-.23l-2.65-2.64a.77.77,0,0,1,0-1.09h0a.78.78,0,0,1,1.1,0l2.65,2.66a.78.78,0,0,1,0,1.1.75.75,0,0,1-.53.22Z" transform="translate(-1.31 -55.08)"/><path class="cls-4" d="M390.47,351a47,47,0,0,1-19.93-4.42h0a47.19,47.19,0,1,1,55.86-12.16c-.82,1-1.68,1.89-2.53,2.74-1,1.05-2.14,2.05-3.24,3A47.17,47.17,0,0,1,390.47,351Zm0-92.92a45.72,45.72,0,0,0-19.25,87.1h0A45.66,45.66,0,0,0,419.66,339c1.07-.88,2.12-1.85,3.13-2.86.83-.83,1.66-1.72,2.45-2.66a45.68,45.68,0,0,0-34.77-75.35Z" transform="translate(-1.31 -55.08)"/><path class="cls-4" d="M390.53,341.17a37,37,0,0,1-26.37-10.95,37.48,37.48,0,0,1,0-52.84,37.08,37.08,0,0,1,26.37-10.94h0a37,37,0,0,1,26.36,10.93,37.46,37.46,0,0,1,0,52.84,37,37,0,0,1-26.36,11Zm0-73.18a35.42,35.42,0,0,0-25.27,10.49,35.92,35.92,0,0,0,0,50.65,35.5,35.5,0,0,0,25.27,10.49h0a35.51,35.51,0,0,0,25.31-10.49,35.92,35.92,0,0,0,0-50.65A35.42,35.42,0,0,0,390.57,268Z" transform="translate(-1.31 -55.08)"/><path class="cls-4" d="M375.32,306.68a14.09,14.09,0,1,1,14.06-14.12v0A14.09,14.09,0,0,1,375.32,306.68Zm0-26.63a12.54,12.54,0,1,0,12.52,12.56v0A12.54,12.54,0,0,0,375.32,280.05Z" transform="translate(-1.31 -55.08)"/><path class="cls-4" d="M429,349.21h0a.76.76,0,0,1-.55-.23l-8.84-8.86a.77.77,0,0,1,0-1.09h0a.78.78,0,0,1,1.1,0l8.52,8.54a.78.78,0,0,1,.41.22.77.77,0,0,1,0,1.09h0l-.1.1A.78.78,0,0,1,429,349.21Z" transform="translate(-1.31 -55.08)"/><path class="cls-4" d="M434.46,343.7a.77.77,0,0,1-.54-.22.8.8,0,0,1-.23-.53l-8.42-8.44a.77.77,0,0,1,1.08-1.1h0l8.8,8.82a.77.77,0,0,1,0,1.09h0l-.15.15A.73.73,0,0,1,434.46,343.7Z" transform="translate(-1.31 -55.08)"/><path class="cls-4" d="M455.22,378.84a4.4,4.4,0,0,1-3.12-1.29L428.57,354a4.44,4.44,0,0,1-.08-6.15l.08-.08,5.35-5.36a4.39,4.39,0,0,1,6.21,0h0L463.67,366a4.42,4.42,0,0,1,0,6.23l-5.34,5.36A4.36,4.36,0,0,1,455.22,378.84ZM437,342.64a2.8,2.8,0,0,0-2,.84l-5.34,5.35h0a2.87,2.87,0,0,0,0,4l23.53,23.57a2.84,2.84,0,0,0,4,0l5.34-5.35a2.86,2.86,0,0,0,0-4h0L439,343.43A2.79,2.79,0,0,0,437,342.64Zm-8,5.69Z" transform="translate(-1.31 -55.08)"/><path class="cls-4" d="M37.77,302.23a36.49,36.49,0,1,1,7.72-.82A36.49,36.49,0,0,1,37.77,302.23Zm0-71.66a35.06,35.06,0,1,0,7.39,69.33h0a35.06,35.06,0,0,0-7.39-69.33Z" transform="translate(-1.31 -55.08)"/><path class="cls-4" d="M390.53,173.28a36.6,36.6,0,1,1,36.53-36.67v.07A36.6,36.6,0,0,1,390.53,173.28Zm0-71.65a35.05,35.05,0,1,0,35,35.1v0A35,35,0,0,0,390.53,101.63Z" transform="translate(-1.31 -55.08)"/><path class="cls-4" d="M34.34,282.76a3.65,3.65,0,0,1-2.76-1.25l-14.3-16.23a3.62,3.62,0,0,1-.91-2.67,3.68,3.68,0,0,1,6.47-2.24l11.36,12.9,18.34-23.56a3.69,3.69,0,1,1,5.88,4.46h0l-21.17,27.2a3.7,3.7,0,0,1-2.8,1.41ZM20,260.69a2.14,2.14,0,0,0-1.6,3.56l14.3,16.24a2.13,2.13,0,0,0,1.6.73h.09a2.13,2.13,0,0,0,1.6-.83l21.14-27.14a2.19,2.19,0,0,0,.4-1.8A2.11,2.11,0,0,0,56.42,250a2.18,2.18,0,0,0-2.68.69L34.84,275a.75.75,0,0,1-.59.29.8.8,0,0,1-.61-.26l-12-13.6a2.12,2.12,0,0,0-1.48-.72Z" transform="translate(-1.31 -55.08)"/><path class="cls-4" d="M403.56,156.22h-26a.79.79,0,0,1-.77-.77v-9.91a13.75,13.75,0,0,1,27.49,0v9.91A.78.78,0,0,1,403.56,156.22Zm-25.17-1.55h24.39v-9.13a12.2,12.2,0,0,0-24.39,0Z" transform="translate(-1.31 -55.08)"/><path class="cls-4" d="M390.53,128.59a7.24,7.24,0,1,1,7.23-7.25v0A7.24,7.24,0,0,1,390.53,128.59Zm0-12.94a5.7,5.7,0,1,0,5.68,5.72v0a5.69,5.69,0,0,0-5.68-5.7Z" transform="translate(-1.31 -55.08)"/><path class="cls-4" d="M456.71,234a.77.77,0,0,1-.78-.76h0V140.89a.78.78,0,0,1,1.55,0v92.38A.76.76,0,0,1,456.71,234Z" transform="translate(-1.31 -55.08)"/><path class="cls-4" d="M280.41,149.45a.74.74,0,0,1-.53-.21.78.78,0,0,1,0-1.1l.13-.1a42.59,42.59,0,0,0,3.26-2.89c5.06-4.94,7.51-10,7.49-15.31,0-10.25-9.35-20-18.07-28.43-13.48-13-24.38-3.91-24.83-3.52a.78.78,0,0,1-1.09-.16.8.8,0,0,1,0-1h0c.54-.46,12.48-10.36,26.95,3.54,8.95,8.6,18.5,18.69,18.55,29.55,0,5.71-2.65,11.24-8,16.42-1.06,1-2.21,2-3.41,3l-.14.08A.79.79,0,0,1,280.41,149.45Z" transform="translate(-1.31 -55.08)"/><path class="cls-4" d="M252.35,173.28a.74.74,0,0,1-.45-.15,18.84,18.84,0,0,1-1.88-1.57.78.78,0,1,1,1.1-1.1,16.7,16.7,0,0,0,1.71,1.44.77.77,0,0,1-.46,1.4Z" transform="translate(-1.31 -55.08)"/><path class="cls-4" d="M262.53,176.61a17.9,17.9,0,0,1-10.63-3.47.77.77,0,0,1,.91-1.25h0a16.49,16.49,0,0,0,23-3.59,16.76,16.76,0,0,0,1.89-3.35.79.79,0,0,1,1-.41.77.77,0,0,1,.41,1A18,18,0,0,1,262.53,176.61Z" transform="translate(-1.31 -55.08)"/><path class="cls-4" d="M278.5,165.91a.72.72,0,0,1-.29-.06.76.76,0,0,1-.42-1h0a16.59,16.59,0,0,0-.48-13.7.77.77,0,1,1,1.39-.68,17.88,17.88,0,0,1,1.88,8,18.08,18.08,0,0,1-1.36,6.92A.78.78,0,0,1,278.5,165.91Z" transform="translate(-1.31 -55.08)"/><path class="cls-4" d="M265.18,185.8a.73.73,0,0,1-.35-.09c-7.28-3.7-12.52-11.82-13.12-12.77a.79.79,0,0,1,.11-1,.77.77,0,0,1,1.08,0v0h0l.09.12c.54.87,5.36,8.35,12,12A58.4,58.4,0,0,0,277.68,165v-.14a.76.76,0,0,1,1.4.6v.12a58.59,58.59,0,0,1-13.46,20A.78.78,0,0,1,265.18,185.8Z" transform="translate(-1.31 -55.08)"/><path class="cls-4" d="M266.89,326.42a.77.77,0,0,1-.78-.76h0V296.21a6.63,6.63,0,0,1,6.6-6.61.78.78,0,0,1,0,1.55,5.06,5.06,0,0,0-5,5.06v29.44a.76.76,0,0,1-.77.77Z" transform="translate(-1.31 -55.08)"/><path class="cls-4" d="M365.45,395.37H272.72a6.62,6.62,0,0,1-6.61-6.61v-29a.78.78,0,0,1,1.55-.18.54.54,0,0,1,0,.18v29a5.08,5.08,0,0,0,5.06,5.06h92.73a5.07,5.07,0,0,0,5.06-5.06V345.9a.78.78,0,0,1,1.55-.18.54.54,0,0,1,0,.18v42.88A6.61,6.61,0,0,1,365.45,395.37Z" transform="translate(-1.31 -55.08)"/><path class="cls-4" d="M269.16,360.52a19.13,19.13,0,0,1-2.51-.17,18,18,0,0,1,0-35.59,17.55,17.55,0,0,1,2.51-.18.78.78,0,0,1,.77.78.76.76,0,0,1-.77.77,17.63,17.63,0,0,0-2.29.16,16.43,16.43,0,0,0,0,32.52,16.07,16.07,0,0,0,2.3.17.77.77,0,1,1,0,1.54h0Z" transform="translate(-1.31 -55.08)"/><path class="cls-4" d="M336,293.58a.77.77,0,0,1-.77-.77,16.07,16.07,0,0,0-.16-2.3,16.38,16.38,0,0,0-32.45,0,16.07,16.07,0,0,0-.16,2.3.78.78,0,0,1-.86.69.79.79,0,0,1-.69-.69,17.69,17.69,0,0,1,.18-2.52,17.93,17.93,0,0,1,35.51,0,17.69,17.69,0,0,1,.18,2.52.76.76,0,0,1-.77.77Z" transform="translate(-1.31 -55.08)"/><path class="cls-4" d="M346,291H335.84a.78.78,0,0,1,0-1.55H346a.78.78,0,0,1,0,1.55Z" transform="translate(-1.31 -55.08)"/><path class="cls-4" d="M371.29,262.52a.78.78,0,0,1-.78-.78V191.65a5.07,5.07,0,0,0-5.06-5.06H272.72a5.08,5.08,0,0,0-5.06,5.06v29a.78.78,0,0,1-.86.69.79.79,0,0,1-.69-.69v-29a6.62,6.62,0,0,1,6.61-6.61h92.73a6.62,6.62,0,0,1,6.61,6.61v70.09A.78.78,0,0,1,371.29,262.52Z" transform="translate(-1.31 -55.08)"/><path class="cls-4" d="M301.69,291h-29a6.62,6.62,0,0,1-6.6-6.6v-29a.78.78,0,0,1,1.55-.18.54.54,0,0,1,0,.18v29a5,5,0,0,0,5,5h29.05a.78.78,0,0,1,0,1.55Z" transform="translate(-1.31 -55.08)"/><path class="cls-4" d="M266.74,256.07a.78.78,0,0,1-.18-1.55.54.54,0,0,1,.18,0,16.47,16.47,0,0,0,0-32.94.77.77,0,0,1-.78-.76h0a.78.78,0,0,1,.78-.78,18,18,0,1,1,0,36Z" transform="translate(-1.31 -55.08)"/><path class="cls-4" d="M162.49,330.85a.77.77,0,0,1-.78-.76h0v-34a6.63,6.63,0,0,1,6.6-6.61h29.18a.78.78,0,0,1,0,1.55H168.31a5.06,5.06,0,0,0-5.05,5.06v34A.76.76,0,0,1,162.49,330.85Z" transform="translate(-1.31 -55.08)"/><path class="cls-4" d="M261.06,395.37H168.31a6.61,6.61,0,0,1-6.6-6.61v-23.9a.78.78,0,0,1,1.55,0v23.9a5.06,5.06,0,0,0,5.05,5.06h92.75a5,5,0,0,0,5-5v-29a.78.78,0,0,1,1.55-.18.54.54,0,0,1,0,.18v29A6.6,6.6,0,0,1,261.06,395.37Z" transform="translate(-1.31 -55.08)"/><path class="cls-4" d="M266.89,325.79a.78.78,0,0,1-.78-.77V296a5,5,0,0,0-5-5.07h-29a.78.78,0,0,1-.18-1.55h29.18a6.62,6.62,0,0,1,6.6,6.61v29a.78.78,0,0,1-.78.78Z" transform="translate(-1.31 -55.08)"/><path class="cls-4" d="M214.47,308.37a18,18,0,0,1-18-18,.78.78,0,0,1,1.55,0,16.43,16.43,0,0,0,32.86,0,.78.78,0,0,1,1.55,0,18,18,0,0,1-18,18Z" transform="translate(-1.31 -55.08)"/><path class="cls-4" d="M82.76,178.37H53.84a6.61,6.61,0,0,1-6.61-6.61h0V79a6.61,6.61,0,0,1,6.61-6.61h92.73A6.62,6.62,0,0,1,153.18,79v29a.78.78,0,0,1-.86.69.79.79,0,0,1-.69-.69V79A5.07,5.07,0,0,0,146.57,74H53.84A5.07,5.07,0,0,0,48.78,79v92.72a5.07,5.07,0,0,0,5.06,5.07h29a.77.77,0,0,1,0,1.54Z" transform="translate(-1.31 -55.08)"/><path class="cls-4" d="M145.9,178.37h-29a.77.77,0,0,1,0-1.54h29a5.07,5.07,0,0,0,5.06-5.06v-29a.77.77,0,1,1,1.54,0h0v29A6.61,6.61,0,0,1,145.9,178.37Z" transform="translate(-1.31 -55.08)"/><path class="cls-4" d="M149.5,143.37a.77.77,0,1,1,0-1.54,15.94,15.94,0,0,0,2.29-.17,16.42,16.42,0,0,0,0-32.51,16.07,16.07,0,0,0-2.3-.17.76.76,0,0,1-.77-.75v0a.78.78,0,0,1,.76-.78h0a17.55,17.55,0,0,1,2.51.18,18,18,0,0,1,0,35.59A19,19,0,0,1,149.5,143.37Z" transform="translate(-1.31 -55.08)"/><path class="cls-4" d="M109.4,190.2a.75.75,0,0,1-.64-.35.77.77,0,0,1,.19-1.06h0a16.41,16.41,0,0,0,7.11-11.35,16.07,16.07,0,0,0,.16-2.3.77.77,0,0,1,.77-.77h0a.75.75,0,0,1,.77.75v0a17.69,17.69,0,0,1-.18,2.52,17.94,17.94,0,0,1-7.77,12.41A.77.77,0,0,1,109.4,190.2Z" transform="translate(-1.31 -55.08)"/><path class="cls-4" d="M87.4,187.72a.8.8,0,0,1-.56-.24,17.79,17.79,0,0,1-4.74-9.84,19.13,19.13,0,0,1-.17-2.51.77.77,0,0,1,1.54,0A16.65,16.65,0,0,0,88,186.43a.77.77,0,0,1,0,1.09h0A.76.76,0,0,1,87.4,187.72Z" transform="translate(-1.31 -55.08)"/><path class="cls-4" d="M223.84,305.6a.77.77,0,0,1-.71-.48c-2.55-6.08-4.34-16.26-5.31-30.26-.94-13.46-1-28-.79-37.88.15-9.6.49-16.29.49-16.36a.78.78,0,0,1,1.55.08c0,.06-.34,6.74-.5,16.3-.15,9.82-.15,24.34.79,37.76,1,13.83,2.71,23.84,5.2,29.76a.78.78,0,0,1-.42,1A.74.74,0,0,1,223.84,305.6Z" transform="translate(-1.31 -55.08)"/><path class="cls-4" d="M217.76,237.77a.77.77,0,0,1-.44-.14c-6.66-4-7.89-13.4-7.94-13.8a.77.77,0,0,1,1.53-.19h0c0,.09,1.2,9.09,7.24,12.69l.15.11a.78.78,0,0,1-.54,1.33Z" transform="translate(-1.31 -55.08)"/><path class="cls-4" d="M287.22,168.93h-.28a.8.8,0,0,1-.44-1,21.15,21.15,0,0,0-.12-16.75,18.29,18.29,0,0,0-3.14-4.87.75.75,0,0,1,0-1.07v0a.77.77,0,0,1,1.09,0h0a18.83,18.83,0,0,1,3.51,5.26,22.7,22.7,0,0,1,.16,18A.78.78,0,0,1,287.22,168.93Z" transform="translate(-1.31 -55.08)"/><path class="cls-4" d="M349.5,181.09a.8.8,0,0,1-.56-.24h0l-.09-.11a68.69,68.69,0,0,0-15.64-15.55,71.1,71.1,0,0,0-46.09-13.62A.77.77,0,0,1,287,150a72.56,72.56,0,0,1,47.08,13.9,69.36,69.36,0,0,1,16,15.94.79.79,0,0,1-.23,1.09.74.74,0,0,1-.41.13Z" transform="translate(-1.31 -55.08)"/><path class="cls-4" d="M448.48,242.27H370.65a.78.78,0,0,1,0-1.55h77.83a.78.78,0,0,1,0,1.55Z" transform="translate(-1.31 -55.08)"/><path class="cls-4" d="M452.28,137.24H426.33a.78.78,0,0,1,0-1.55h25.95a.78.78,0,0,1,0,1.55Z" transform="translate(-1.31 -55.08)"/><path class="cls-4" d="M66.73,358.78a3.11,3.11,0,0,1-3.09-3.1V329.43a3.09,3.09,0,0,1,4.63-2.68L91,339.88a3.09,3.09,0,0,1,0,5.35L68.27,358.37A3.09,3.09,0,0,1,66.73,358.78Zm0-30.9a1.56,1.56,0,0,0-1.54,1.55v26.25a1.55,1.55,0,0,0,1.53,1.55,1.5,1.5,0,0,0,.78-.21l18.34-10.59h0l4.38-2.53a1.55,1.55,0,0,0,.56-2.12,1.58,1.58,0,0,0-.56-.56L67.5,328.09A1.49,1.49,0,0,0,66.73,327.88Z" transform="translate(-1.31 -55.08)"/><path class="cls-4" d="M265.7,366.93a76.32,76.32,0,0,1-76.15-76.05v-.27a.78.78,0,0,1,1.55,0,74.78,74.78,0,0,0,74.6,74.76H267c40.47-.69,73.36-34.23,73.36-74.76S307.42,216.54,267,215.85a.78.78,0,0,1,0-1.55,76.32,76.32,0,0,1,0,152.62h-1.3Z" transform="translate(-1.31 -55.08)"/><path class="cls-4" d="M75.14,178.37a.8.8,0,0,1-.78-.76v-1.75a76.33,76.33,0,0,1,76.16-76.31H152a.78.78,0,0,1,0,1.55h-1.41a74.77,74.77,0,0,0-74.61,74.77v1.71a.76.76,0,0,1-.73.79h-.07Z" transform="translate(-1.31 -55.08)"/><path class="cls-4" d="M46.52,231.66a.67.67,0,0,1-.31-.07.77.77,0,0,1-.4-1c.55-1.26,1.13-2.54,1.74-3.78a.79.79,0,0,1,1-.36.78.78,0,0,1,.35,1c-.6,1.22-1.17,2.47-1.71,3.72A.77.77,0,0,1,46.52,231.66Zm6.76-12.75a.79.79,0,0,1-.42-.12.76.76,0,0,1-.23-1.06h0c.74-1.16,1.52-2.32,2.31-3.46a.78.78,0,0,1,1.1-.07.77.77,0,0,1,.17,1c-.78,1.12-1.55,2.26-2.28,3.4A.75.75,0,0,1,53.28,218.91ZM62,207.37a.77.77,0,0,1-.58-1.29c.92-1,1.87-2.06,2.83-3a.77.77,0,1,1,1.11,1.08h0c-.94,1-1.88,2-2.78,3A.76.76,0,0,1,62,207.37Z" transform="translate(-1.31 -55.08)"/><path class="cls-4" d="M102.93,355.21a.89.89,0,0,1-.23,0c-1.32-.41-2.65-.86-3.94-1.34a.78.78,0,0,1-.48-1v0a.78.78,0,0,1,1-.46c1.27.47,2.57.91,3.87,1.31a.78.78,0,0,1-.23,1.52ZM89.55,349.8a.81.81,0,0,1-.34-.08c-1.24-.62-2.48-1.27-3.68-1.94a.78.78,0,0,1,.75-1.36c1.19.67,2.4,1.31,3.62,1.92a.77.77,0,0,1,.34,1A.75.75,0,0,1,89.55,349.8Z" transform="translate(-1.31 -55.08)"/><path class="cls-4" d="M62.63,329.37a.8.8,0,0,1-.58-.26c-.92-1-1.84-2.08-2.72-3.14a.79.79,0,0,1,.1-1.1.78.78,0,0,1,1.1.1h0c.86,1,1.76,2.09,2.67,3.1a.77.77,0,0,1,0,1.09h0A.79.79,0,0,1,62.63,329.37ZM53.84,317.9a.77.77,0,0,1-.65-.35c-.75-1.16-1.49-2.35-2.19-3.54a.78.78,0,0,1,.28-1.06.77.77,0,0,1,1,.28c.69,1.17,1.42,2.34,2.16,3.47a.79.79,0,0,1-.22,1.08A.81.81,0,0,1,53.84,317.9Zm-6.9-12.67a.77.77,0,0,1-.7-.46c-.57-1.26-1.11-2.55-1.61-3.83a.77.77,0,1,1,1.44-.57h0c.49,1.26,1,2.53,1.58,3.77a.77.77,0,0,1-.39,1,.67.67,0,0,1-.34.09Z" transform="translate(-1.31 -55.08)"/><path class="cls-4" d="M105.29,230.61a13.24,13.24,0,0,1-4.66-.84,13.44,13.44,0,0,1-8.79-13.28,4.69,4.69,0,0,1,0-.53.78.78,0,0,1,.7-.67A57,57,0,0,0,126,197.62a.72.72,0,0,1,.22-.17c.31-.15,7.85-3.72,15.08,10.34.2.39.39.8.58,1.21,1.47,3.13,9.55,18.71,24.9,18.19,15-.51,22.15-12,30.46-25.28,8.93-14.29,19.05-30.48,41.36-36.37a.8.8,0,0,1,.4-.11h.12a.77.77,0,0,1,.2,1.52c-22,5.67-32,21.66-40.77,35.78-8.55,13.66-15.92,25.46-31.71,26-16.31.56-24.82-15.79-26.36-19.08-.18-.39-.36-.77-.56-1.15-6.09-11.85-12-10.07-12.9-9.71a59.16,59.16,0,0,1-33.7,18A12,12,0,0,0,106.84,229a.79.79,0,0,1,.81.75.78.78,0,0,1-.61.79A14.55,14.55,0,0,1,105.29,230.61Z" transform="translate(-1.31 -55.08)"/><path class="cls-4" d="M253.45,173.25s2.1,6.16,11.73,11.77c0,0,8.56-8.69,11.31-15.36C276.49,169.66,265,180,253.45,173.25Z" transform="translate(-1.31 -55.08)"/></svg>