<?xml version="1.0" encoding="utf-8"?>
<!-- Generator: Adobe Illustrator 24.2.1, SVG Export Plug-In . SVG Version: 6.00 Build 0)  -->
<svg version="1.1" id="Layer_1" xmlns="http://www.w3.org/2000/svg" xmlns:xlink="http://www.w3.org/1999/xlink" x="0px" y="0px"
	 viewBox="0 0 471.3 395.4" style="enable-background:new 0 0 471.3 395.4;" xml:space="preserve">
<style type="text/css">
	.st0{fill:#FFFFFF;}
	.st1{fill:#FF0000;}
	.st2{fill:#FCB01A;}
	.st3{fill:#1A1A1A;}
	.st4{fill:#E0E0E0;}
</style>
<path class="st0" d="M261.9,113.4H258c-0.9,0-1.7-0.6-1.9-1.5c-0.7-2.9-1.8-5.6-3.2-8.1c-0.4-0.8-0.3-1.7,0.3-2.3l1.8-1.9
	c0.7-0.8,0.7-2,0-2.7l-5.2-5.4c-0.8-0.8-2-0.8-2.8,0c0,0,0,0,0,0l-1.6,1.7c-0.2,0.2-0.4,0.3-0.6,0.4c-0.6,0.3-1.2,0.2-1.8-0.1
	c-2.4-1.5-4.9-2.6-7.6-3.3c-0.9-0.2-1.4-1-1.5-1.9v-2.6c0-1.1-0.9-2-2-2h-7.2c-1.1,0-2,0.9-2,2v3.8c0,0.9-0.6,1.7-1.5,1.9
	c-0.4,0.1-0.8,0.2-1.1,0.3c-2.4,0.7-4.6,1.6-6.7,2.9c-0.8,0.4-1.7,0.3-2.4-0.3l-1.8-1.7c-0.8-0.7-2-0.7-2.8,0l-5.2,5.1
	c-0.8,0.8-0.8,2,0,2.8c0,0,0,0,0,0l1.6,1.6c0.6,0.6,0.8,1.6,0.3,2.4c-1.4,2.3-2.5,4.9-3.2,7.6c-0.2,0.9-1,1.4-1.9,1.5h-2.5
	c-1.1,0-2,0.8-2,1.9c0,0,0,0,0,0v7.2c0,1.1,0.9,2,2,2h3.2c0.9,0,1.7,0.6,1.9,1.5c0.7,2.8,1.7,5.4,3.2,7.9c0.4,0.8,0.3,1.7-0.3,2.4
	l-1.7,1.8c-0.7,0.8-0.7,2,0,2.8l5.2,5.3c0.7,0.7,1.9,0.8,2.7,0c0,0,0,0,0,0l1.7-1.7c0.6-0.6,1.6-0.8,2.4-0.3
	c2.3,1.4,4.9,2.5,7.6,3.2c0.9,0.2,1.4,1,1.5,1.9v2.5c0,1.1,0.9,2,2,2h7.3c0.6,0,1.1-0.3,1.4-0.7c0.3-0.4,0.5-0.8,0.5-1.3v-2.6
	c0-0.9,0.6-1.7,1.5-1.9c2.8-0.7,5.4-1.8,7.9-3.3c0.8-0.5,1.8-0.3,2.4,0.3l1.8,1.8c0.8,0.7,2,0.7,2.8,0l5.3-5.3c0.8-0.8,0.8-2,0-2.8
	l-1.8-1.8c-0.6-0.6-0.8-1.6-0.3-2.4c1.2-2,2.1-4.1,2.8-6.3l0.4,0.1c0.2-0.5,0.3-1,0.4-1.5c0.2-0.9,1-1.5,1.9-1.5h2.8
	c1.1,0,2-0.9,2-2v-7.2C263.8,114.3,263,113.4,261.9,113.4C261.9,113.4,261.9,113.4,261.9,113.4z M232.3,131.9
	c-1.2,0.3-2.4,0.5-3.7,0.5c-0.9,0-1.9-0.1-2.8-0.3c-7.4-1.5-12.2-8.8-10.7-16.3c1.5-7.4,8.8-12.2,16.3-10.7s12.2,8.8,10.7,16.3
	C241.1,126.5,237.3,130.5,232.3,131.9z"/>
<path class="st0" d="M205.6,187.1c0-2.9-4.9-4.2-4.9-4.2c-0.3-2.9-0.8-5.8-1.6-8.6c9.3-17.9-5.9-24.5-24.4-24.5
	c-8.7,0-17.4,1.3-25.8,3.8c-23.6,7.2-20.5,24-20.5,24s1.3,21.3-19.3,29.8l-5.7,2.3c-7.6,3-15.9,6.4-23.6,10.7
	C66.9,227.4,56,237,53.7,251.5C51,268,66.6,281.8,89,288.2c21.7,6.2,49.7,5.6,73.6-6c24.5-11.9,21.8-28.9,14.5-45
	c-0.5-1.1-1-2.3-1.6-3.4c-0.9-1.9-1.7-3.6-2.3-5.3c0,0,0-0.1,0-0.1c1.6-1.4,3.8-2.8,5.1-2.6c11.9,1.6,23.1-7.3,24.3-19.7
	c0.4-5.2,0.2-10.4-0.6-15.5C202.1,190.6,205.7,189.5,205.6,187.1z"/>
<path class="st0" d="M220.3,90.5c0.2-2.1-0.7-4.2-2.5-5.4c-2.1-1.5-5.3-1-8.6,1.5c0.5-3.2,0.1-5.5-2.3-7.2c-1-0.7-2.3-1-3.6-0.8
	c-4.2,0.5-9.7,5.3-13.6,14.3c-1.8,3.9-3,8-3.6,12.3c-4-5.8-8.9-9.3-12.7-6.3c-2.9,2.3-0.6,8.8,1,15.3c0.9,3.4,1.6,6.9,2,10.4
	c0.3,2,0.5,4,0.5,6.1c0.2,6.4-0.7,12.8-2.5,19c-7.3,37.6-15.8,84.4,2.5,87.5c0,0,4.5-3.5,11.6,1.4l-0.1,0.1c4.2-1.2,8.6-1.7,13-1.3
	l-0.4-0.1l0.4-0.4c10.7-12.8,16.5-32,19.6-48.7c2.1-11.4,3.4-23,3.7-34.6l0.9-21.4c0,0,0.3-9.3,1.4-18.3c0.4-3.1,0.8-6.2,1.4-8.9
	L220.3,90.5z"/>
<rect x="88.6" y="195.6" transform="matrix(0.7662 -0.6427 0.6427 0.7662 -104.9678 102.6724)" class="st1" width="0" height="0"/>
<polygon class="st1" points="88.6,195.6 88.6,195.6 88.7,195.5 "/>
<path class="st0" d="M89,89.9L71.6,75.3c35.1-41.8,96.3-49.9,141-18.5l-13.2,18.5C164.4,50.8,116.5,57.2,89,89.9z"/>
<polygon class="st0" points="71,210 88.1,195.6 95.3,202.6 104.3,210.8 80.7,220.9 76.1,216.8 "/>
<path class="st0" d="M277.6,134.9h-20.1l-19.4-53.5V35.8c0-3.5,2.9-6.4,6.4-6.4h167c3.5,0,6.4,2.9,6.4,6.4v92.7
	c0,3.5-2.9,6.4-6.4,6.4H277.6z"/>
<path class="st0" d="M379.9,247.3c-0.5,0-1,0-1.5,0c1.4-3.3,23.3-55.5,4.4-68.9l0,0c-1.3-13.2-8.4-16.3-9.7-16.8
	c-1.3-6.4-4.7-10.4-8.5-10c-0.6,0.1-1.2,0.2-1.8,0.4c-3.5,1.4-4.5,5.9-5.9,12.6c-0.5,2.3-1,4.9-1.7,7.8c-0.8,3.5-2,7-3.5,10.3
	c-2.4-7.2-6.5-12.9-10.2-14.4c-1.8-0.8-3.8-0.3-5.1,1.2c-2.6,2.7-1.8,8.3-1,14.9l0.1,0.9c0.5,3.4,0.8,6.9,0.8,10.3c0.1,2,0,4-0.2,6
	c-0.4,4.7-1.4,9.4-2.9,13.9c-1,2.9-2.1,5.8-3.5,8.5c-4,7.9-10.6,19.1-19.6,27.2c-1.4,1.2-2.8,2.3-4.1,3.3c-0.2,0.1-0.2,0.3-0.1,0.5
	c0,0,0,0,0,0c0,0,0.1,0.1,0.1,0.1c0,0.1-0.1,0.2-0.1,0.3l0,0c0.4,1.7,1.1,3.4,2,4.9c-0.2,0.1-0.2,0.3-0.1,0.5
	c5.3,10.7,16.4,27.3,39.7,45.2c0.1,0,0.1,0.1,0.2,0.1c0.1,0,0.1,0,0.2-0.1c1.1,1.7,2.3,3.3,3.7,4.9c14,15.6,38.1,16.8,53.7,2.8
	c6.8-6.1,11.1-14.5,12.3-23.6c0.2-1.6,0.3-3.1,0.3-4.7C417.8,264.3,400.8,247.3,379.9,247.3z"/>
<circle class="st2" cx="34" cy="75.9" r="34"/>
<rect x="124.3" y="107.8" class="st3" width="20.8" height="20.8"/>
<rect x="110.4" y="94" class="st0" width="20.8" height="20.8"/>
<rect x="207.5" y="19.7" class="st0" width="10.4" height="10.4"/>
<rect x="34" y="203.6" class="st0" width="10.4" height="10.4"/>
<path class="st4" d="M288.6,54.4h0.2c1.9,0,3.4,1.5,3.4,3.4v49.5c0,1.9-1.5,3.4-3.4,3.4h-0.2c-1.9,0-3.4-1.5-3.4-3.4V57.8
	C285.3,55.9,286.8,54.4,288.6,54.4z"/>
<path class="st4" d="M340,54.4h0.2c1.9,0,3.4,1.5,3.4,3.4v49.5c0,1.9-1.5,3.4-3.4,3.4H340c-1.9,0-3.4-1.5-3.4-3.4V57.8
	C336.6,55.9,338.2,54.4,340,54.4z"/>
<circle class="st2" cx="409.2" cy="224.8" r="5.9"/>
<path class="st0" d="M257,135.6h-1.6l1.6,10.6l-14.9,7.5h-9.4c-1.4,11.5-5.1,22.5-11,32.5c-3.1,17.9-8.5,35.6-17.2,47.9
	c32.5-18.8,52.6-53.4,52.7-91C257.3,140.5,257.2,138.1,257,135.6z"/>
<circle class="st2" cx="102.4" cy="145.7" r="12.8"/>
<path class="st2" d="M276.1,68.3h0.2c1.9,0,3.4,1.5,3.4,3.4v21c0,1.9-1.5,3.4-3.4,3.4h-0.2c-1.9,0-3.4-1.5-3.4-3.4v-21
	C272.8,69.8,274.3,68.3,276.1,68.3z"/>
<path class="st2" d="M326.8,68.3h0.2c1.9,0,3.4,1.5,3.4,3.4v21c0,1.9-1.5,3.4-3.4,3.4h-0.2c-1.9,0-3.4-1.5-3.4-3.4v-21
	C323.5,69.8,325,68.3,326.8,68.3z"/>
<path class="st2" d="M301.8,65.5h0.2c1.9,0,3.4,1.5,3.4,3.4v28c0,1.9-1.5,3.4-3.4,3.4h-0.2c-1.9,0-3.4-1.5-3.4-3.4v-28
	C298.5,67,300,65.5,301.8,65.5z"/>
<path class="st2" d="M352.5,65.5h0.2c1.9,0,3.4,1.5,3.4,3.4v28c0,1.9-1.5,3.4-3.4,3.4h-0.2c-1.9,0-3.4-1.5-3.4-3.4v-28
	C349.1,67,350.6,65.5,352.5,65.5z"/>
<path class="st2" d="M365.7,54.4h0.2c1.9,0,3.4,1.5,3.4,3.4v49.5c0,1.9-1.5,3.4-3.4,3.4h-0.2c-1.9,0-3.4-1.5-3.4-3.4V57.8
	C362.3,55.9,363.8,54.4,365.7,54.4z"/>
<circle class="st2" cx="451.2" cy="179.3" r="20.1"/>
<circle class="st2" cx="449.5" cy="240.8" r="5.9"/>
<path class="st2" d="M352.3,364.1l-5.4-5.5c-0.9-0.9-0.9-2.4,0-3.3l5.4-5.5c0.9-0.9,1-2.3,0.2-3.3c-0.8-1-2.3-1.2-3.4-0.3
	c-0.1,0.1-0.1,0.1-0.2,0.2l-5.5,5.5c-0.9,0.9-2.3,0.9-3.2,0c0,0,0,0,0,0l-5.5-5.5c-0.9-0.9-2.3-1-3.3-0.2c-1,0.9-1.2,2.4-0.3,3.4
	c0,0.1,0.1,0.1,0.1,0.2l5.5,5.5c0.9,0.9,0.9,2.4,0,3.3l-5.4,5.5c-0.9,0.9-1,2.3-0.2,3.3c0.8,1,2.3,1.2,3.4,0.3
	c0.1-0.1,0.1-0.1,0.2-0.2l5.5-5.5c0.9-0.9,2.3-0.9,3.2,0c0,0,0,0,0,0l5.5,5.5c0.9,0.9,2.4,0.9,3.4,0c0.1-0.1,0.1-0.1,0.2-0.2
	C353.3,366.4,353.2,365,352.3,364.1z"/>
<path class="st2" d="M367,139.2c0.7,0.8,0.7,2.1-0.2,2.8c0,0-0.1,0.1-0.1,0.1l-4.6,3.9c-0.7,0.6-0.9,1.7-0.5,2.5
	c0.6,1.1,1.1,2.2,1.5,3.4c-4.5,1.8-4.6,9-7.4,20.2c-0.9,3.8-2.2,7.5-3.8,11l-0.2-0.1c-2.3-7-6.4-13.3-10.2-14.8l0,0
	c-1-12.2-11.7-21.3-24-20.3s-21.3,11.7-20.3,24c1,12.2,11.7,21.3,24,20.3c5.7-0.5,11-3.1,14.7-7.3l0,0c0.5,3.4,0.8,6.9,0.8,10.4
	c0.1,2,0,4.1-0.2,6.1c-0.4,4.8-1.4,9.5-3,14l0,0c-2.4,0.8-4.8,1.3-7.3,1.7c-0.9,0.1-1.7,0.9-1.7,1.9l-0.5,6c-0.1,1.1-1.1,2-2.2,1.9
	l-14.3-1.2c-1.1-0.1-2-1.1-1.9-2.2c0,0,0,0,0,0l0.5-6c0.1-1-0.5-1.8-1.4-2.1c-4.9-1.6-9.5-4-13.7-7.1c-0.8-0.6-1.8-0.5-2.5,0.1
	l-4.6,3.9c-0.8,0.7-2.1,0.7-2.8-0.2c0,0-0.1-0.1-0.1-0.1l-9.3-11c-0.7-0.9-0.6-2.2,0.2-2.9c0,0,0,0,0,0l4.6-3.9
	c0.7-0.6,0.9-1.6,0.5-2.5c-2.4-4.6-3.9-9.6-4.7-14.7c-0.1-1-0.9-1.7-1.9-1.7l-6-0.5c-1.1-0.1-2-1.1-1.9-2.2c0,0,0,0,0,0l1.2-14.3
	c0.1-1.1,1.1-2,2.2-1.9l6,0.5c1,0.1,1.8-0.5,2.1-1.4c1.6-4.9,4-9.5,7.1-13.7c0.6-0.8,0.5-1.8-0.1-2.6l-3.9-4.6l0-0.1
	c-0.7-0.9-0.6-2.1,0.3-2.9l10.9-9.3c0.8-0.7,2.1-0.7,2.8,0.2c0,0,0.1,0.1,0.1,0.1l3.9,4.6c0.6,0.7,1.7,1,2.5,0.5
	c4.6-2.4,9.5-3.9,14.6-4.7c0.9-0.1,1.7-0.9,1.7-1.9l0.5-6c0.1-1.1,1.1-2,2.2-1.9c0,0,0,0,0,0l14.3,1.2c1.1,0.1,2,1.1,1.9,2.2l-0.5,6
	c-0.1,1,0.5,1.8,1.4,2.1c4.9,1.6,9.5,4,13.7,7.1c0.8,0.6,1.8,0.5,2.5-0.1l4.6-3.9c0.9-0.7,2.2-0.6,2.9,0.2c0,0,0,0,0,0l5.3,6.3
	L367,139.2z"/>
<path class="st3" d="M257.8,135.2c0.2,2.6,0.3,5.3,0.3,8c0,39.2-21.6,75.3-56.3,93.6c10.7-12.8,16.5-32,19.6-48.7
	c6.9-10.6,11.2-22.7,12.7-35.3c0.3-0.4,0.5-0.8,0.5-1.3V149c0-0.9,0.6-1.7,1.5-1.9c2.8-0.7,5.4-1.8,7.9-3.3c0.8-0.5,1.8-0.3,2.4,0.3
	l1.8,1.8c0.8,0.7,2,0.7,2.8,0l5.3-5.3c0.8-0.8,0.8-2,0-2.8l-1.8-1.8c-0.6-0.6-0.7-1.6-0.3-2.4c1.2-2,2.1-4.1,2.8-6.3
	C257.3,130,257.6,132.6,257.8,135.2z"/>
<path class="st3" d="M228.6,104.9c7.6,0,13.7,6.2,13.7,13.8c0,6.1-4.1,11.5-10,13.2c-0.9-6.2-2.6-12.3-5.1-18.1
	C227.6,110.7,228.1,107.6,228.6,104.9z"/>
<path class="st3" d="M206.9,79.2c-1-0.7-2.3-1-3.5-0.8l0,0c-1.3-1-2.6-2-3.9-2.9l13.7-19.1c13.6,9.6,24.8,22.2,32.7,36.9
	c-0.6,0.3-1.3,0.2-1.8-0.1c-2.5-1.5-5.1-2.6-7.9-3.3c-0.9-0.2-1.5-1-1.5-1.9v-2.5c0-1.1-0.9-2-2-2h-7.9c-1.1,0-2,0.9-2,2V88
	c0,0.9-0.6,1.7-1.5,1.9l-1.1,0.3c0.2-2.1-0.7-4.2-2.5-5.4c-2.1-1.5-5.3-1-8.5,1.5C209.7,83.1,209.3,80.9,206.9,79.2z"/>
<path class="st2" d="M71.1,75.3l18,15c-25.4,30.4-25.5,74.6-0.4,105.2l-18.1,14.9l0,0C38.3,171.1,38.5,114.4,71.1,75.3z"/>
<path class="st2" d="M347.8,306c-23.8-18.3-34.8-35.2-39.6-45.1c-0.4,1.8-2,3-3.8,2.9c-1.9-0.1-3.4-1.7-3.5-3.6c0-2,1.6-3.7,3.6-3.7
	c0,0,0,0,0,0c0.6,0,1.3,0.2,1.8,0.5c-0.3-0.7-0.5-1.3-0.7-1.8l0.6-0.1c1.4-1,2.8-2.2,4.1-3.3c-0.1-0.2-2.3-8.3-12.5-2.8
	s-25.1,20.9-51.2,6.1c-17.6-10-32.6-16.7-45.4-17.5h-0.4c-4-0.3-8.1,0.2-12,1.3l0,0c-7.1-4.9-11.6-1.4-11.6-1.4
	c7.3,16,9.9,33.1-14.6,45c-23.9,11.6-51.9,12.2-73.7,6c-0.2,0.7-15.6,53.4-17.5,106.2h169.2c-0.5-13,2.8-41.5,3.6-48.9
	c11.5,1.3,25.7,1.1,42.6-2.1c47-8.9,64.6-32.4,64.6-32.4C350.2,309.5,348.9,307.8,347.8,306z M82.3,388.4c-2,0-3.7-1.6-3.7-3.7
	c0-2,1.6-3.7,3.7-3.7c2,0,3.7,1.6,3.7,3.7c0,0,0,0.1,0,0.1C86,386.8,84.4,388.4,82.3,388.4z M86,336.8c-2,0-3.7-1.6-3.7-3.7
	s1.6-3.7,3.7-3.7s3.7,1.6,3.7,3.7l0,0C89.7,335.1,88,336.8,86,336.8C86,336.8,86,336.8,86,336.8z M98.9,364.4c-2,0-3.7-1.6-3.7-3.7
	c0-2,1.6-3.7,3.7-3.7c2,0,3.7,1.6,3.7,3.7c0,0,0,0,0,0C102.6,362.7,100.9,364.3,98.9,364.4L98.9,364.4z M98.9,312.7
	c-2,0-3.7-1.6-3.7-3.7s1.6-3.7,3.7-3.7s3.7,1.6,3.7,3.7l0,0C102.6,311.1,101,312.7,98.9,312.7C98.9,312.8,98.9,312.8,98.9,312.7
	L98.9,312.7z M115.5,388.4c-2,0-3.7-1.6-3.7-3.7s1.6-3.7,3.7-3.7c2,0,3.7,1.6,3.7,3.7c0,0,0,0,0,0
	C119.1,386.7,117.5,388.4,115.5,388.4L115.5,388.4z M115.5,336.8c-2,0-3.7-1.6-3.7-3.7s1.6-3.7,3.7-3.7s3.7,1.6,3.7,3.7c0,0,0,0,0,0
	C119.1,335.1,117.5,336.8,115.5,336.8L115.5,336.8z M132,364.4c-2,0-3.7-1.6-3.7-3.7s1.6-3.7,3.7-3.7s3.7,1.6,3.7,3.7c0,0,0,0,0,0
	C135.7,362.7,134.1,364.3,132,364.4L132,364.4z M132,312.7c-2,0-3.7-1.6-3.7-3.7s1.6-3.7,3.7-3.7s3.7,1.6,3.7,3.7c0,0,0,0,0,0
	C135.7,311.1,134.1,312.7,132,312.7C132.1,312.8,132.1,312.8,132,312.7L132,312.7z M148.6,388.4c-2,0-3.7-1.6-3.7-3.7
	c0-2,1.6-3.7,3.7-3.7c2,0,3.7,1.6,3.7,3.7c0,0,0,0,0,0C152.3,386.7,150.6,388.4,148.6,388.4L148.6,388.4z M148.6,336.8
	c-2,0-3.7-1.6-3.7-3.7s1.6-3.7,3.7-3.7c2,0,3.7,1.6,3.7,3.7l0,0C152.3,335.1,150.6,336.8,148.6,336.8L148.6,336.8z M165.2,364.4
	c-2,0-3.7-1.6-3.7-3.7s1.6-3.7,3.7-3.7s3.7,1.6,3.7,3.7c0,0,0,0,0,0C168.8,362.7,167.2,364.3,165.2,364.4L165.2,364.4z M165.2,312.7
	c-2,0-3.7-1.6-3.7-3.7s1.6-3.7,3.7-3.7s3.7,1.6,3.7,3.7c0,0,0,0,0,0C168.9,311.1,167.2,312.7,165.2,312.7
	C165.2,312.8,165.2,312.8,165.2,312.7L165.2,312.7z M181.7,388.4c-2,0-3.7-1.6-3.7-3.7c0-2,1.6-3.7,3.7-3.7c2,0,3.7,1.6,3.7,3.7
	c0,0,0,0,0,0C185.4,386.7,183.8,388.4,181.7,388.4L181.7,388.4z M181.7,336.8c-2,0-3.7-1.6-3.7-3.7s1.6-3.7,3.7-3.7
	c2,0,3.7,1.6,3.7,3.7l0,0C185.4,335.1,183.8,336.8,181.7,336.8C181.7,336.8,181.7,336.8,181.7,336.8L181.7,336.8z M181.7,287.7
	c-2,0-3.7-1.6-3.7-3.7s1.6-3.7,3.7-3.7c2,0,3.7,1.6,3.7,3.7l0,0C185.4,286,183.8,287.7,181.7,287.7
	C181.7,287.7,181.7,287.7,181.7,287.7L181.7,287.7z M198.3,364.4c-2,0-3.7-1.7-3.7-3.7c0-2,1.7-3.7,3.7-3.7c2,0,3.7,1.7,3.7,3.7
	C202,362.7,200.3,364.4,198.3,364.4L198.3,364.4L198.3,364.4z M198.3,312.7c-2,0-3.7-1.6-3.7-3.7s1.6-3.7,3.7-3.7s3.7,1.6,3.7,3.7
	c0,0,0,0,0,0C202,311.1,200.4,312.7,198.3,312.7C198.3,312.8,198.3,312.8,198.3,312.7L198.3,312.7z M198.3,263.6
	c-2,0-3.7-1.6-3.7-3.7s1.6-3.7,3.7-3.7s3.7,1.6,3.7,3.7c0,0,0,0,0,0C202,262,200.3,263.6,198.3,263.6L198.3,263.6z M214.9,388.4
	c-2,0-3.7-1.6-3.7-3.7c0-2,1.6-3.7,3.7-3.7c2,0,3.7,1.6,3.7,3.7c0,0,0,0,0,0C218.5,386.7,216.9,388.4,214.9,388.4L214.9,388.4z
	 M214.9,336.8c-2,0-3.7-1.6-3.7-3.7s1.6-3.7,3.7-3.7c2,0,3.7,1.6,3.7,3.7l0,0C218.5,335.1,216.9,336.8,214.9,336.8
	C214.9,336.8,214.9,336.8,214.9,336.8L214.9,336.8z M214.9,287.7c-2,0-3.7-1.6-3.7-3.7s1.6-3.7,3.7-3.7c2,0,3.7,1.6,3.7,3.7l0,0
	C218.5,286,216.9,287.7,214.9,287.7C214.9,287.7,214.9,287.7,214.9,287.7L214.9,287.7z M234.4,312.7c-2,0-3.7-1.6-3.7-3.7
	s1.6-3.7,3.7-3.7s3.7,1.6,3.7,3.7c0,0,0,0,0,0c0.1,2-1.5,3.7-3.6,3.8C234.5,312.8,234.5,312.8,234.4,312.7L234.4,312.7z
	 M234.4,263.6c-2,0-3.7-1.6-3.7-3.7s1.6-3.7,3.7-3.7s3.7,1.6,3.7,3.7c0,0,0,0,0,0C238.1,261.9,236.5,263.6,234.4,263.6
	C234.5,263.6,234.5,263.6,234.4,263.6L234.4,263.6z M251,336.8c-2,0-3.7-1.6-3.7-3.7s1.6-3.7,3.7-3.7c2,0,3.7,1.6,3.7,3.7l0,0
	C254.7,335.1,253,336.8,251,336.8z M251,287.7c-2,0-3.7-1.6-3.7-3.7s1.6-3.7,3.7-3.7c2,0,3.7,1.6,3.7,3.7l0,0
	C254.7,286,253,287.7,251,287.7z M267.6,312.7c-2,0-3.7-1.6-3.7-3.7c0-2,1.6-3.7,3.7-3.7c2,0,3.7,1.6,3.7,3.7l0,0
	c0.1,2-1.5,3.7-3.6,3.8C267.6,312.8,267.6,312.8,267.6,312.7L267.6,312.7z M284.1,336.8c-2,0-3.7-1.6-3.7-3.7c0-2,1.6-3.7,3.7-3.7
	c2,0,3.7,1.6,3.7,3.7l0,0C287.8,335.1,286.2,336.8,284.1,336.8z M284.1,287.7c-2,0-3.7-1.6-3.7-3.7c0-2,1.6-3.7,3.7-3.7
	c2,0,3.7,1.6,3.7,3.7l0,0C287.8,286,286.2,287.7,284.1,287.7z M304.5,312.7c-2,0-3.7-1.6-3.7-3.7c0-2,1.6-3.7,3.7-3.7
	c2,0,3.7,1.6,3.7,3.7l0,0C308.2,311,306.6,312.7,304.5,312.7C304.6,312.8,304.5,312.8,304.5,312.7L304.5,312.7z M341.8,312.7
	c-2,0-3.7-1.6-3.7-3.7c0-2,1.6-3.7,3.7-3.7c2,0,3.7,1.6,3.7,3.7l0,0c0.1,2-1.5,3.7-3.6,3.8C341.9,312.8,341.9,312.8,341.8,312.7
	L341.8,312.7z"/>
<path class="st3" d="M89,288.2c-22.4-6.4-38-20.2-35.3-36.7c2.4-14.5,13.3-24.1,26.1-31.2c7.7-4.3,16.1-7.7,23.6-10.7l5.7-2.3
	c20.6-8.5,19.3-29.8,19.3-29.8s-3.1-16.8,20.5-24c8.4-2.5,17.1-3.7,25.8-3.8c18.5,0,33.8,6.6,24.3,24.7c-0.5-1.6-1.3-3.2-2.2-4.7
	c-1.2-2.1-3.1-3.8-5.4-4.8c-1.6,10.5-7.6,19.8-16.4,25.7c0,0-5.4-6.5-11.9-1.7c-5.3,3.9-4.1,14.2,2.7,17.4c2.9,1.4,4.6,4.3,4.6,7.5
	c0.1,5,1.1,9.9,2.9,14.6c0.6,1.7,1.4,3.5,2.3,5.3c0.5,1.1,1.1,2.2,1.6,3.4c7.3,16,10,33.1-14.5,45C138.8,293.8,110.7,294.4,89,288.2
	z"/>
<path class="st3" d="M341.8,305.4c2,0,3.7,1.6,3.7,3.7c0,2-1.6,3.7-3.7,3.7c-2,0-3.7-1.6-3.7-3.7c0,0,0,0,0,0
	C338.2,307,339.8,305.4,341.8,305.4z"/>
<path class="st3" d="M308.2,259.9c0,0.2,0,0.5-0.1,0.7c-0.7-1.5-1.3-2.8-1.8-3.9C307.5,257.4,308.2,258.6,308.2,259.9z"/>
<path class="st3" d="M308.1,260.7c-0.4,2-2.4,3.3-4.3,2.9c-2-0.4-3.3-2.4-2.9-4.3c0.4-1.7,1.9-2.9,3.6-2.9c0.6,0,1.3,0.2,1.8,0.5
	C306.8,257.9,307.4,259.2,308.1,260.7z"/>
<path class="st3" d="M304.5,305.4c2,0,3.7,1.6,3.7,3.7c0,2-1.6,3.7-3.7,3.7c-2,0-3.7-1.6-3.7-3.7l0,0
	C300.8,307,302.5,305.4,304.5,305.4z"/>
<path class="st3" d="M284.1,280.3c2,0,3.7,1.6,3.7,3.7c0,2-1.6,3.7-3.7,3.7c-2,0-3.7-1.6-3.7-3.7l0,0
	C280.5,282,282.1,280.3,284.1,280.3z"/>
<path class="st3" d="M284.1,329.4c2,0,3.7,1.6,3.7,3.7c0,2-1.6,3.7-3.7,3.7c-2,0-3.7-1.6-3.7-3.7l0,0
	C280.5,331.1,282.1,329.4,284.1,329.4z"/>
<path class="st3" d="M267.6,305.4c2,0,3.7,1.6,3.7,3.7c0,2-1.6,3.7-3.7,3.7c-2,0-3.7-1.6-3.7-3.7c0,0,0,0,0,0
	C263.9,307,265.5,305.4,267.6,305.4z"/>
<path class="st3" d="M251,280.3c2,0,3.7,1.6,3.7,3.7s-1.6,3.7-3.7,3.7c-2,0-3.7-1.6-3.7-3.7l0,0C247.3,282,249,280.3,251,280.3z"/>
<path class="st3" d="M251,329.4c2,0,3.7,1.6,3.7,3.7s-1.6,3.7-3.7,3.7c-2,0-3.7-1.6-3.7-3.7l0,0C247.3,331.1,249,329.4,251,329.4z"
	/>
<path class="st3" d="M234.4,256.3c2,0,3.7,1.6,3.7,3.7s-1.6,3.7-3.7,3.7s-3.7-1.6-3.7-3.7c0,0,0,0,0,0
	C230.8,257.9,232.4,256.3,234.4,256.3C234.4,256.3,234.4,256.3,234.4,256.3z"/>
<path class="st3" d="M234.4,305.4c2,0,3.7,1.6,3.7,3.7s-1.6,3.7-3.7,3.7s-3.7-1.6-3.7-3.7c0,0,0,0,0,0
	C230.8,307,232.4,305.4,234.4,305.4C234.4,305.4,234.4,305.4,234.4,305.4z"/>
<ellipse class="st3" cx="214.9" cy="284" rx="3.7" ry="3.7"/>
<path class="st3" d="M214.9,329.4c2,0,3.7,1.6,3.7,3.7s-1.6,3.7-3.7,3.7s-3.7-1.6-3.7-3.7c0,0,0,0,0,0
	C211.2,331.1,212.8,329.4,214.9,329.4z"/>
<path class="st3" d="M214.9,381c2,0,3.7,1.6,3.7,3.7s-1.6,3.7-3.7,3.7c-2,0-3.7-1.6-3.7-3.6C211.2,382.7,212.8,381.1,214.9,381
	C214.8,381,214.9,381,214.9,381z"/>
<ellipse class="st3" cx="198.3" cy="260" rx="3.7" ry="3.7"/>
<path class="st3" d="M198.3,305.4c2,0,3.7,1.6,3.7,3.7s-1.6,3.7-3.7,3.7c-2,0-3.7-1.6-3.7-3.7l0,0
	C194.6,307,196.3,305.4,198.3,305.4C198.3,305.4,198.3,305.4,198.3,305.4z"/>
<ellipse class="st3" cx="198.3" cy="360.7" rx="3.7" ry="3.7"/>
<path class="st3" d="M231.9,357c2,0,3.7,1.6,3.7,3.7c0,2-1.6,3.7-3.7,3.7c-2,0-3.7-1.6-3.7-3.7c0,0,0,0,0,0
	C228.3,358.6,229.9,357,231.9,357z"/>
<path class="st3" d="M195.5,185.8c0.3,1.7-0.3,3.2-1.3,3.4s-2.1-1-2.4-2.7s0.3-3.2,1.3-3.4S195.3,184.1,195.5,185.8z"/>
<ellipse class="st3" cx="181.7" cy="284" rx="3.7" ry="3.7"/>
<path class="st3" d="M181.7,329.4c2,0,3.7,1.6,3.7,3.7s-1.6,3.7-3.7,3.7s-3.7-1.6-3.7-3.7c0,0,0,0,0,0
	C178.1,331.1,179.7,329.4,181.7,329.4z"/>
<path class="st3" d="M181.7,381c2,0,3.7,1.6,3.7,3.7c0,2-1.6,3.7-3.7,3.7c-2,0-3.7-1.6-3.7-3.7c0,0,0,0,0,0
	C178.1,382.7,179.7,381,181.7,381z"/>
<path class="st3" d="M165.2,305.4c2,0,3.7,1.6,3.7,3.7s-1.6,3.7-3.7,3.7c-2,0-3.7-1.6-3.7-3.7l0,0
	C161.5,307,163.1,305.4,165.2,305.4C165.2,305.4,165.2,305.4,165.2,305.4z"/>
<path class="st3" d="M165.2,357c2,0,3.7,1.6,3.7,3.7s-1.6,3.7-3.7,3.7s-3.7-1.6-3.7-3.7c0,0,0,0,0,0
	C161.5,358.6,163.1,357,165.2,357C165.2,357,165.2,357,165.2,357z"/>
<path class="st3" d="M164.8,73.6c1,0,1.7,0.8,1.7,1.8c0,1-0.8,1.7-1.8,1.7c-0.9,0-1.7-0.8-1.7-1.7C163,74.4,163.8,73.6,164.8,73.6
	C164.7,73.6,164.7,73.6,164.8,73.6z"/>
<path class="st3" d="M164.8,80.8c1,0,1.7,0.8,1.7,1.8c0,1-0.8,1.7-1.8,1.7s-1.7-0.8-1.7-1.8c0,0,0,0,0,0
	C163,81.5,163.8,80.8,164.8,80.8z"/>
<path class="st3" d="M164.8,87.8c1,0,1.7,0.8,1.7,1.8s-0.8,1.7-1.8,1.7c-0.9,0-1.7-0.8-1.7-1.7C163,88.6,163.8,87.8,164.8,87.8
	C164.7,87.8,164.7,87.8,164.8,87.8z"/>
<path class="st3" d="M156.7,73.6c1,0,1.7,0.7,1.8,1.7c0,1-0.7,1.7-1.7,1.8c-1,0-1.7-0.7-1.8-1.7c0,0,0,0,0,0
	C155,74.4,155.7,73.7,156.7,73.6z"/>
<path class="st3" d="M156.7,80.8c1,0,1.7,0.7,1.8,1.7c0,1-0.7,1.7-1.7,1.8c-1,0-1.7-0.7-1.8-1.7c0,0,0-0.1,0-0.1
	C155,81.5,155.8,80.8,156.7,80.8z"/>
<path class="st3" d="M156.7,87.8c1,0,1.7,0.7,1.8,1.7c0,1-0.7,1.7-1.7,1.8c-1,0-1.7-0.7-1.8-1.7c0,0,0,0,0,0
	C155,88.6,155.7,87.8,156.7,87.8z"/>
<path class="st3" d="M148.6,329.4c2,0,3.7,1.6,3.7,3.7s-1.6,3.7-3.7,3.7c-2,0-3.7-1.6-3.7-3.7l0,0
	C144.9,331.1,146.6,329.4,148.6,329.4z"/>
<path class="st3" d="M148.6,381c2,0,3.7,1.6,3.7,3.7s-1.6,3.7-3.7,3.7s-3.7-1.6-3.7-3.7c0,0,0,0,0,0
	C144.9,382.7,146.6,381,148.6,381z"/>
<path class="st3" d="M148.6,73.6c1,0,1.7,0.8,1.7,1.7c0,1-0.8,1.7-1.7,1.7c-1,0-1.7-0.8-1.7-1.7l0,0
	C146.9,74.4,147.7,73.6,148.6,73.6z"/>
<path class="st3" d="M148.6,80.8c1,0,1.7,0.8,1.7,1.7c0,1-0.8,1.7-1.7,1.7c-1,0-1.7-0.8-1.7-1.7l0,0
	C146.9,81.5,147.7,80.8,148.6,80.8z"/>
<path class="st3" d="M148.6,87.8c1,0,1.7,0.8,1.7,1.7c0,1-0.8,1.7-1.7,1.7c-1,0-1.7-0.8-1.7-1.7l0,0
	C146.9,88.5,147.7,87.8,148.6,87.8z"/>
<path class="st3" d="M132.1,305.4c2,0,3.7,1.6,3.7,3.7s-1.6,3.7-3.7,3.7c-2,0-3.7-1.6-3.7-3.7l0,0C128.4,307,130,305.4,132.1,305.4z
	"/>
<path class="st3" d="M132.1,357c2,0,3.7,1.6,3.7,3.7s-1.6,3.7-3.7,3.7s-3.7-1.6-3.7-3.7c0,0,0,0,0,0C128.4,358.6,130,357,132.1,357z
	"/>
<path class="st3" d="M115.5,329.4c2,0,3.7,1.6,3.7,3.7s-1.6,3.7-3.7,3.7s-3.7-1.6-3.7-3.7l0,0C111.8,331.1,113.4,329.4,115.5,329.4
	C115.5,329.4,115.5,329.4,115.5,329.4z"/>
<path class="st3" d="M115.5,381c2,0,3.7,1.6,3.7,3.7s-1.6,3.7-3.7,3.7c-2,0-3.7-1.6-3.7-3.6C111.8,382.7,113.4,381.1,115.5,381
	C115.4,381,115.5,381,115.5,381z"/>
<path class="st3" d="M98.9,305.4c2,0,3.7,1.6,3.7,3.7s-1.6,3.7-3.7,3.7s-3.7-1.6-3.7-3.7l0,0C95.2,307,96.9,305.4,98.9,305.4z"/>
<path class="st3" d="M98.9,357c2,0,3.7,1.6,3.7,3.7c0,2-1.6,3.7-3.7,3.7s-3.7-1.6-3.7-3.7c0,0,0,0,0,0C95.2,358.6,96.9,357,98.9,357
	z"/>
<path class="st3" d="M86,329.4c2,0,3.7,1.6,3.7,3.7s-1.6,3.7-3.7,3.7s-3.7-1.6-3.7-3.7c0,0,0,0,0,0C82.3,331.1,84,329.4,86,329.4z"
	/>
<path class="st3" d="M82.3,381c2,0,3.7,1.6,3.7,3.7s-1.6,3.7-3.7,3.7c-2,0-3.7-1.6-3.7-3.6C78.6,382.7,80.3,381.1,82.3,381
	C82.3,381,82.3,381,82.3,381z"/>
<path class="st3" d="M188.6,182.1c-0.3,0-0.5-0.1-0.7-0.3c-0.3-0.4-0.2-0.9,0.1-1.2c0,0,0,0,0,0c2.4-1.6,5.2-2.4,8.1-2.2
	c0.5,0,0.9,0.4,0.9,0.8c0,0.5-0.4,0.9-0.8,0.9c0,0-0.1,0-0.1,0c-2.5-0.2-4.9,0.5-7,1.8C189,182,188.8,182.1,188.6,182.1z"/>
<path class="st3" d="M259.6,395.4H65.3c-0.5,0-0.9-0.4-0.9-0.9s0.4-0.9,0.9-0.9h194.4c0.5,0,0.9,0.4,0.9,0.9
	S260.1,395.4,259.6,395.4z"/>
<path class="st3" d="M274.9,395.4h-9.7c-0.5,0-0.9-0.4-0.9-0.9s0.4-0.9,0.9-0.9h9.7c0.5,0,0.9,0.4,0.9,0.9S275.3,395.4,274.9,395.4z
	"/>
<path class="st3" d="M348.8,188.9c-0.5,0-0.8-0.4-0.8-0.9c0-0.2,0.1-0.5,0.3-0.6c1.2-1.2,2.1-2.7,2.8-4.2c1.6-3.5,2.9-7.1,3.8-10.8
	c0.7-2.9,1.3-5.5,1.7-7.8c1.4-6.9,2.4-11.5,6.2-13c0.6-0.2,1.2-0.4,1.9-0.4c4.1-0.4,7.7,3.8,9.1,10.6c0.6,3.4,0.8,7,0.4,10.4
	c-0.5,4.8-1.6,9.6-3.3,14.2c-0.2,0.4-0.6,0.7-1.1,0.5c0,0,0,0,0,0c-0.4-0.2-0.7-0.6-0.5-1.1c0,0,0,0,0,0c1.7-4.4,2.7-9.1,3.2-13.8
	c0.4-3.3,0.2-6.7-0.4-10c-1.2-5.8-4.1-9.6-7.2-9.2c-0.5,0-1,0.2-1.4,0.3c-3,1.2-3.8,5.4-5.1,11.7c-0.5,2.3-1,4.9-1.8,7.8
	c-0.9,3.8-2.2,7.6-3.9,11.1c-1.7,3.5-3,4.6-3.2,4.8C349.2,188.7,349,188.8,348.8,188.9z"/>
<path class="st3" d="M306.2,255.7c-0.5,0-0.9-0.4-0.9-0.8c0-0.3,0.1-0.5,0.4-0.7c1.4-1,2.8-2.1,4.1-3.3c9-8,15.6-19.1,19.5-27
	c1.4-2.7,2.5-5.6,3.5-8.5c1.5-4.5,2.5-9.1,2.9-13.8c0.2-2,0.3-4,0.2-6v-0.1c0-3.4-0.3-6.8-0.8-10.2c0,0,0-0.1,0-0.1v-0.1l-0.1-0.7
	c-0.9-6.7-1.6-12.4,1.1-15.3c1.4-1.6,3.7-2.1,5.7-1.3c3.9,1.5,8.2,7.6,10.7,15.2c0.1,0.4-0.1,0.9-0.5,1.1c-0.4,0.1-0.9-0.1-1.1-0.6
	c-2.3-7-6.3-12.9-9.7-14.2c-1.3-0.6-2.9-0.2-3.8,0.9c-2.2,2.3-1.4,7.9-0.7,13.9l0.1,0.7c0,0,0,0.1,0,0.1v0.1c0.5,3.5,0.8,7,0.8,10.5
	c0.1,2.1,0,4.1-0.2,6.2c-0.5,4.8-1.5,9.6-3,14.1c-1,3-2.2,5.9-3.6,8.7c-4,8-10.7,19.3-19.9,27.5c-1.3,1.2-2.7,2.3-4.2,3.4
	C306.5,255.6,306.4,255.7,306.2,255.7z"/>
<path class="st3" d="M186.3,106.1h-0.1c-0.5-0.1-0.8-0.5-0.7-1c0,0,0,0,0,0c0.6-4.3,1.8-8.5,3.6-12.4c3.6-8.3,9.1-14.2,14.2-14.8
	c1.5-0.2,2.9,0.1,4.2,0.9c3.1,2.2,3.1,5.3,2.6,8c-0.2,1.4-0.6,2.9-1,4.3c-0.2,0.4-0.6,0.7-1.1,0.5c-0.4-0.1-0.6-0.6-0.5-1
	c0.4-1.3,0.8-2.7,1-4.1c0.5-3.2,0-5-1.9-6.3c-0.9-0.6-2-0.8-3-0.6c-3.4,0.4-8.8,4.3-12.9,13.8c-1.7,3.8-2.9,7.9-3.5,12
	C187.1,105.7,186.7,106.1,186.3,106.1z"/>
<path class="st3" d="M220.3,91.3L220.3,91.3c-0.5,0-0.8-0.4-0.8-0.9c0,0,0,0,0,0c0.2-1.8-0.6-3.7-2.2-4.7c-1.9-1.3-4.7-0.7-7.6,1.5
	c-0.4,0.3-0.9,0.2-1.2-0.2c-0.3-0.4-0.2-0.9,0.1-1.2c0,0,0,0,0,0c3.5-2.7,7.1-3.3,9.6-1.5c2,1.3,3.1,3.7,2.9,6.1
	C221.1,91,220.8,91.3,220.3,91.3z"/>
<path class="st3" d="M174.7,150.6c-0.5,0-0.9-0.4-0.8-0.9c0-0.1,0-0.1,0-0.2c1.8-6.1,2.6-12.4,2.4-18.8c0-2-0.2-4-0.5-6
	c0,0,0-0.1,0-0.1c-0.4-3.5-1.1-6.9-2-10.3c-0.2-0.8-0.4-1.7-0.6-2.5c-1.5-5.8-3-11.3-0.1-13.6c1.2-1,2.8-1.5,4.4-1.2
	c3,0.4,6.4,3.2,9.5,7.7c2.2,3.3,4,6.8,5.3,10.6c0.2,0.4-0.1,0.9-0.5,1.1s-0.9-0.1-1.1-0.5c-1.2-3.6-2.9-7-5.1-10.1
	c-2.8-4.1-5.9-6.6-8.4-7c-1.1-0.2-2.2,0.1-3.1,0.9c-2.1,1.7-0.7,6.9,0.7,11.9c0.2,0.8,0.4,1.7,0.6,2.5c1,3.4,1.6,6.9,2.1,10.5
	c0.3,2,0.5,4.1,0.5,6.2c0.2,6.5-0.7,13-2.5,19.3C175.5,150.3,175.2,150.6,174.7,150.6z"/>
<path class="st3" d="M350.7,369.1c-0.9,0-1.7-0.3-2.3-1l-5.5-5.6c-0.3-0.3-0.6-0.4-1-0.4l0,0c-0.4,0-0.7,0.2-1,0.4l-5.5,5.6
	c-1.3,1.3-3.3,1.3-4.6,0c-0.1-0.1-0.1-0.1-0.2-0.2c-1.1-1.3-0.9-3.3,0.3-4.5l5.5-5.5c0.6-0.6,0.6-1.5,0-2.1l-5.5-5.5
	c-0.6-0.6-1-1.5-1-2.5c0-0.9,0.5-1.8,1.2-2.4c1.3-1.1,3.3-1,4.5,0.3l5.5,5.5c0.3,0.3,0.6,0.4,1,0.4l0,0c0.4,0,0.7-0.2,1-0.4l5.5-5.6
	c1.3-1.3,3.3-1.3,4.6,0c0.1,0.1,0.1,0.1,0.2,0.2c1.1,1.3,0.9,3.3-0.3,4.5l-5.5,5.5c-0.6,0.6-0.6,1.5,0,2.1l5.5,5.5l0,0
	c1.2,1.2,1.3,3.1,0.3,4.5c-0.6,0.7-1.4,1.1-2.4,1.2H350.7z M341.9,360.5L341.9,360.5c0.8,0,1.6,0.3,2.2,0.9l5.5,5.5
	c0.6,0.6,1.6,0.6,2.2,0c0,0,0.1-0.1,0.1-0.1c0.5-0.7,0.4-1.6-0.2-2.2l-5.5-5.5c-1.2-1.2-1.2-3.2,0-4.5c0,0,0,0,0,0l5.5-5.5
	c0.6-0.6,0.7-1.5,0.2-2.2c-0.3-0.3-0.7-0.5-1.1-0.6c-0.4,0-0.9,0.1-1.2,0.5l-5.5,5.6c-0.6,0.6-1.4,0.9-2.2,0.9l0,0
	c-0.8,0-1.6-0.3-2.2-0.9l-5.5-5.5c-0.6-0.6-1.5-0.7-2.2-0.2c-0.3,0.3-0.5,0.7-0.6,1.1c0,0.4,0.1,0.9,0.5,1.2l5.5,5.6
	c1.2,1.2,1.2,3.2,0,4.5l-5.4,5.5c-0.6,0.6-0.7,1.5-0.2,2.2c0.3,0.3,0.7,0.5,1.1,0.5c0.4,0,0.9-0.1,1.2-0.5l5.5-5.6
	C340.2,360.8,341,360.5,341.9,360.5L341.9,360.5z"/>
<path class="st3" d="M190.9,209.8c-0.9,0-1.8-0.2-2.7-0.6c-0.4-0.2-0.6-0.7-0.4-1.1c0.2-0.4,0.7-0.6,1.1-0.4c0,0,0.1,0,0.1,0.1l0,0
	c1.6,0.8,3.5,0.4,4.6-0.9c0.3-0.4,0.8-0.4,1.2-0.1c0.4,0.3,0.4,0.8,0.1,1.2l0,0C193.9,209.1,192.4,209.8,190.9,209.8z"/>
<path class="st3" d="M185.5,211.2c-0.5,0-0.9-0.4-0.9-0.8c0-0.4,0.3-0.8,0.7-0.8c3.4-0.8,2.6-4.4,2.6-4.5c-0.1-0.5,0.2-0.9,0.6-1
	s0.9,0.2,1,0.6l0,0c0.4,1.8,0.1,5.6-3.8,6.6L185.5,211.2z"/>
<path class="st3" d="M376.1,342.8c-0.2,0-0.4-0.1-0.6-0.3c-0.3-0.3-0.3-0.9,0-1.2l3.6-3.6c0.4-0.3,0.9-0.3,1.2,0.1
	c0.3,0.3,0.3,0.8,0,1.1l-3.6,3.6C376.6,342.7,376.4,342.8,376.1,342.8z"/>
<path class="st3" d="M366.8,352.3c-0.2,0-0.4-0.1-0.6-0.3c-0.3-0.3-0.3-0.9,0-1.2l3.6-3.6c0.3-0.4,0.8-0.4,1.2-0.1
	c0.4,0.3,0.4,0.8,0.1,1.2c0,0,0,0-0.1,0.1l-3.6,3.6C367.2,352.2,367,352.3,366.8,352.3z"/>
<path class="st3" d="M379.9,352.3c-0.2,0-0.4-0.1-0.6-0.3l-3.6-3.6c-0.3-0.4-0.3-0.9,0.1-1.2c0.3-0.3,0.8-0.3,1.1,0l3.6,3.6
	c0.3,0.3,0.3,0.9,0,1.2C380.3,352.2,380.1,352.3,379.9,352.3z"/>
<path class="st3" d="M370.5,342.9c-0.2,0-0.4-0.1-0.6-0.3l-3.6-3.6c-0.3-0.4-0.3-0.9,0.1-1.2c0.3-0.3,0.8-0.3,1.1,0l3.6,3.6
	c0.3,0.3,0.3,0.8,0,1.2c0,0,0,0,0,0C370.9,342.8,370.7,342.9,370.5,342.9z"/>
<path class="st3" d="M379.9,324.3c-11,0-21.5-4.7-28.9-12.9c-1.5-1.6-2.8-3.4-4-5.2c-11.5-18.2-6-42.3,12.2-53.8
	c5.6-3.6,12.1-5.6,18.8-5.9c0.6,0,1.2-0.1,1.9-0.1c21.5,0,38.9,17.5,38.9,38.9c0,1.6-0.1,3.2-0.3,4.8
	C416,309.7,399.5,324.3,379.9,324.3z M379.9,248.2c-0.6,0-1.2,0-1.8,0c-20.5,0.9-36.4,18.4-35.5,38.9c0.9,20.5,18.4,36.4,38.9,35.5
	c18.1-0.8,33-14.6,35.2-32.6c0.2-1.5,0.3-3.1,0.3-4.6C417,264.9,400.4,248.2,379.9,248.2L379.9,248.2z"/>
<path class="st3" d="M379.9,324.3c-13.3,0-24.1-17.5-24.1-38.9s10.8-38.9,24.1-38.9s24.1,17.5,24.1,38.9S393.1,324.3,379.9,324.3z
	 M379.9,248.2c-12.4,0-22.4,16.7-22.4,37.2s10,37.2,22.4,37.2s22.4-16.7,22.4-37.2S392.2,248.2,379.9,248.2L379.9,248.2z"/>
<path class="st3" d="M379.7,324.6c-0.5,0-0.9-0.4-0.9-0.9l0,0v-76.4c-0.1-0.5,0.3-0.9,0.8-0.9c0.5-0.1,0.9,0.3,0.9,0.8
	c0,0.1,0,0.1,0,0.2v76.4C380.5,324.2,380.1,324.6,379.7,324.6z"/>
<path class="st3" d="M417.9,286.4h-76.3c-0.5,0-0.9-0.4-0.9-0.9s0.4-0.9,0.9-0.9h76.4c0.5,0,0.9,0.4,0.9,0.9
	S418.3,286.4,417.9,286.4L417.9,286.4L417.9,286.4z"/>
<path class="st3" d="M445.2,247c-3.6,0-6.5-2.9-6.5-6.5c0-3.6,2.9-6.5,6.5-6.5c3.6,0,6.5,2.9,6.5,6.5c0,0,0,0,0,0
	C451.7,244.1,448.8,247,445.2,247z M445.2,235.7c-2.7,0-4.8,2.1-4.8,4.8s2.1,4.8,4.8,4.8c2.7,0,4.8-2.1,4.8-4.8c0,0,0,0,0,0
	C450,237.9,447.8,235.8,445.2,235.7L445.2,235.7z"/>
<path class="st3" d="M445.2,95.5c-2.8,0-5-2.2-5-5s2.2-5,5-5s5,2.2,5,5S448,95.5,445.2,95.5z M445.2,87.1c-1.8,0-3.3,1.5-3.4,3.3
	s1.5,3.3,3.3,3.3c1.8,0,3.3-1.5,3.4-3.3c0,0,0,0,0,0C448.5,88.6,447.1,87.1,445.2,87.1z"/>
<path class="st3" d="M445.2,294.6c-2.4,0-4.4-2-4.4-4.4c0-2.4,2-4.4,4.4-4.4s4.4,2,4.4,4.4c0,0,0,0,0,0
	C449.6,292.6,447.6,294.6,445.2,294.6z M445.2,287.5c-1.5,0-2.7,1.2-2.7,2.7c0,1.5,1.2,2.7,2.7,2.7s2.7-1.2,2.7-2.7c0,0,0,0,0,0
	C447.9,288.7,446.7,287.5,445.2,287.5z"/>
<path class="st3" d="M445.2,199.5c-11.4,0-20.7-9.2-20.8-20.7c0-11.4,9.2-20.7,20.7-20.8c11.4,0,20.7,9.2,20.8,20.7c0,0,0,0,0,0
	C465.9,190.2,456.6,199.5,445.2,199.5z M445.2,159.7c-10.5,0-19,8.5-19,19s8.5,19,19,19s19-8.5,19-19l0,0
	C464.2,168.2,455.7,159.8,445.2,159.7L445.2,159.7z"/>
<path class="st3" d="M444.9,235.8c-0.5,0-0.9-0.4-0.9-0.8v0v-36.1c0-0.5,0.4-0.9,0.9-0.9s0.9,0.4,0.9,0.9v36.1
	C445.8,235.3,445.5,235.7,444.9,235.8C445,235.8,444.9,235.8,444.9,235.8z"/>
<path class="st3" d="M173.7,200.6c-0.2,0-0.4-0.1-0.6-0.3l-4.6-4.6c-0.4-0.3-0.4-0.8-0.1-1.2c0.3-0.4,0.8-0.4,1.2-0.1
	c0,0,0,0,0.1,0.1l4.6,4.6c0.3,0.3,0.3,0.9,0,1.2c0,0,0,0,0,0C174.1,200.5,173.9,200.6,173.7,200.6z"/>
<path class="st3" d="M168.7,201c-0.5,0-0.8-0.4-0.9-0.8c0-0.2,0.1-0.5,0.3-0.6l2.6-2.7c0.4-0.3,0.9-0.3,1.2,0.1
	c0.3,0.3,0.3,0.8,0,1.1l-2.6,2.7C169.2,200.9,169,201,168.7,201z"/>
<path class="st3" d="M381.6,194h-0.1c-0.5-0.1-0.8-0.5-0.7-1c0,0,0,0,0,0c0.9-4.7,1.2-9.4,0.8-14.2c-1.2-13.6-8.8-16-9.1-16.1
	c-0.4-0.1-0.7-0.6-0.5-1.1c0.1-0.4,0.6-0.7,1-0.6c0.4,0.1,9,2.8,10.3,17.6c0.3,4.9,0.1,9.8-0.9,14.6C382.4,193.7,382,194,381.6,194z
	"/>
<path class="st3" d="M378,248.2c-0.1,0-0.2,0-0.3-0.1c-0.4-0.2-0.6-0.7-0.5-1.1c0.2-0.6,23.2-54.6,4.9-67.5
	c-0.4-0.3-0.5-0.8-0.2-1.2c0.3-0.4,0.8-0.5,1.2-0.2c19.4,13.7-3.3,67.3-4.3,69.6C378.7,248,378.3,248.2,378,248.2z"/>
<path class="st3" d="M267.8,262c-6.2,0-13.4-1.7-21.6-6.4c-20.3-11.5-33.8-16.7-45-17.4h-0.4c-3.9-0.3-7.9,0.2-11.7,1.3
	c-1.6,0.5-3.2,1.1-4.7,1.9c-0.4,0.3-0.9,0.1-1.2-0.3s-0.1-0.9,0.3-1.2c0.1,0,0.1-0.1,0.2-0.1c1.6-0.8,3.2-1.5,4.9-2
	c4-1.2,8.1-1.6,12.3-1.4h0.4c11.5,0.8,25.2,6.1,45.8,17.6c21.7,12.2,35.3,3.5,45.2-3c1.8-1.2,3.6-2.3,5.2-3.2c3.8-2.1,7-2.6,9.6-1.4
	c2,0.9,3.5,2.7,4.1,4.8c0,0.1,0,0.2,0,0.2c0,0.5-0.4,0.9-0.9,0.9c-0.4,0-0.8-0.3-0.8-0.7c-0.5-1.6-1.6-2.9-3.1-3.6
	c-2.1-0.9-4.8-0.4-8.1,1.4c-1.6,0.9-3.3,2-5.1,3.1C286.6,256.8,278.5,262,267.8,262z"/>
<path class="st3" d="M347.7,306.6c-0.2,0-0.4-0.1-0.5-0.2c-23.4-18-34.6-34.6-39.9-45.4c-0.2-0.4,0-0.9,0.4-1.1
	c0.4-0.2,0.9,0,1.1,0.4c5.2,10.6,16.3,27,39.4,44.8c0.4,0.3,0.4,0.8,0.1,1.2C348.2,306.5,348,306.6,347.7,306.6z"/>
<path class="st3" d="M306.3,257.6c-0.3,0-0.7-0.2-0.8-0.5c-0.3-0.7-0.5-1.3-0.7-1.9c-0.4-1.2-0.8-2.3-1.1-3.5
	c-0.1-0.5,0.2-0.9,0.6-1c0.5-0.1,0.9,0.2,1,0.6l0,0c0.3,1.1,0.6,2.2,1.1,3.3c0.2,0.5,0.4,1.1,0.7,1.8c0.2,0.4,0,0.9-0.5,1.1
	C306.5,257.6,306.4,257.6,306.3,257.6z"/>
<path class="st3" d="M257.9,347c-4.7,0-9.3-0.3-13.9-0.8c-4.3-0.5-8.6-1.2-12.8-2.2c-16.7-4-24.9-10.4-25.2-10.7
	c-0.4-0.3-0.4-0.8-0.1-1.2c0,0,0,0,0,0c0.3-0.4,0.8-0.4,1.2-0.1c0,0,0,0,0,0c0.1,0.1,8.2,6.5,24.5,10.4c4.2,1,8.4,1.7,12.6,2.2
	c14.2,1.4,28.6,0.7,42.6-2.1c46.1-8.8,64-31.8,64.1-32c0.3-0.4,0.8-0.4,1.2-0.2c0.4,0.3,0.5,0.8,0.2,1.2c0,0,0,0,0,0
	c-0.2,0.2-18.3,23.8-65.2,32.7C277.5,346,267.7,347,257.9,347z"/>
<path class="st3" d="M213.8,344.5c-2.6,0-5.3-0.6-7.7-1.6c-0.4-0.2-0.6-0.7-0.4-1.1c0.2-0.4,0.7-0.6,1.1-0.4c0.1,0,8.2,3.9,15.4-1.2
	c0.4-0.3,0.9-0.2,1.2,0.2c0.3,0.4,0.2,0.9-0.2,1.2c0,0,0,0,0,0C220.5,343.4,217.2,344.5,213.8,344.5z"/>
<path class="st3" d="M240.6,395.2c-0.5,0-0.8-0.4-0.9-0.8c-0.6-15,3.4-48.7,3.4-49.1c0.1-0.5,0.5-0.8,0.9-0.7
	c0.5,0.1,0.8,0.5,0.7,0.9c0,0,0,0,0,0c0,0.3-4,34-3.4,48.8C241.5,394.8,241.1,395.2,240.6,395.2L240.6,395.2z"/>
<path class="st3" d="M71.5,395.2L71.5,395.2c-0.5,0-0.8-0.4-0.8-0.9c0,0,0,0,0,0c1.9-51.8,16.9-104.1,17.5-106.3
	c0-0.2,0.1-0.3,0.2-0.4c0.3-0.3,0.9-0.3,1.2,0c0.2,0.2,0.3,0.6,0.2,0.9c-0.9,3.1-15.6,54.8-17.5,105.9
	C72.4,394.8,72,395.2,71.5,395.2C71.5,395.2,71.5,395.2,71.5,395.2z"/>
<path class="st3" d="M444.9,287.8c-0.5,0-0.9-0.4-0.9-0.9l0,0v-41c0-0.5,0.4-0.9,0.9-0.9s0.9,0.4,0.9,0.9v41
	C445.8,287.4,445.4,287.8,444.9,287.8L444.9,287.8z"/>
<path class="st3" d="M441.5,291.3h-23.6c-0.5,0-0.9-0.4-0.9-0.9s0.4-0.9,0.9-0.9h23.6c0.5,0,0.9,0.4,0.9,0.9
	S441.9,291.3,441.5,291.3z"/>
<path class="st3" d="M412.3,234.8c-3.7,0-6.7-3-6.7-6.7c0-3.7,3-6.7,6.7-6.7c3.7,0,6.7,3,6.7,6.7c0,0,0,0,0,0
	C418.9,231.8,416,234.8,412.3,234.8z M412.3,223.1c-2.8,0-5,2.2-5,5s2.2,5,5,5s5-2.2,5-5C417.3,225.3,415,223,412.3,223.1
	C412.3,223,412.3,223,412.3,223.1L412.3,223.1z"/>
<path class="st3" d="M444.9,160.1c-0.5,0-0.9-0.4-0.9-0.8v0V94.7c0-0.5,0.4-0.9,0.9-0.9s0.9,0.4,0.9,0.9v64.6
	C445.8,159.7,445.4,160.1,444.9,160.1z"/>
<path class="st3" d="M440.8,91.3h-22.9c-0.5,0-0.9-0.4-0.9-0.8c0-0.5,0.4-0.9,0.8-0.9c0,0,0,0,0,0h22.9c0.5,0,0.9,0.4,0.9,0.8
	C441.6,91,441.2,91.3,440.8,91.3C440.8,91.3,440.8,91.3,440.8,91.3z"/>
<path class="st3" d="M112.1,166.7c-7.6,0-13.8-6.2-13.9-13.8s6.2-13.8,13.8-13.9c7.6,0,13.8,6.2,13.9,13.8c0,0,0,0,0,0
	C125.9,160.5,119.7,166.7,112.1,166.7z M112.1,140.7c-6.7,0-12.1,5.4-12.2,12.1s5.4,12.1,12.1,12.2c6.7,0,12.1-5.4,12.2-12.1
	c0,0,0,0,0,0c-0.1-6.6-5.5-12-12.1-12V140.7z"/>
<path class="st3" d="M188.8,239.4c-0.2,0-0.3-0.1-0.5-0.1c-6.4-4.4-10.4-1.5-10.6-1.4c-0.4,0.2-0.9,0-1.1-0.4
	c-0.2-0.3-0.1-0.7,0.1-1c0.2-0.2,5.1-3.8,12.6,1.4c0.4,0.3,0.5,0.8,0.2,1.2C189.3,239.3,189.1,239.4,188.8,239.4L188.8,239.4z"/>
<path class="st3" d="M232,154.5h-7.2c-1.6,0-2.8-1.3-2.8-2.8v-2.5c0-0.5-0.3-0.9-0.8-1.1c-2.7-0.7-5.4-1.8-7.8-3.3
	c-0.4-0.3-1-0.2-1.4,0.2l-1.7,1.7c-1.1,1.1-2.8,1.1-3.9,0.1c0,0,0,0-0.1-0.1l-5.2-5.3c-1.1-1.1-1.1-2.8,0-3.9l1.7-1.8
	c0.3-0.4,0.4-0.9,0.2-1.3c-1.5-2.5-2.6-5.3-3.3-8.1c-0.1-0.5-0.6-0.8-1.1-0.8h-3.2c-1.6,0-2.8-1.3-2.8-2.8v0v-7.2
	c0-1.5,1.3-2.8,2.8-2.8h2.5c0.5,0,0.9-0.3,1.1-0.8c0.7-2.7,1.8-5.4,3.3-7.8c0.3-0.4,0.2-1-0.2-1.4l-1.6-1.6c-0.5-0.5-0.9-1.2-0.9-2
	c0-0.8,0.3-1.5,0.9-2l5.2-5.2c1.1-1.1,2.9-1.1,4,0l1.8,1.7c0.4,0.3,0.9,0.4,1.3,0.2c2.2-1.3,4.5-2.3,6.9-3l1.2-0.3
	c0.5-0.1,0.9-0.6,0.9-1.1v-3.8c0-1.6,1.2-2.8,2.8-2.8c0,0,0,0,0,0h7.2c1.6,0,2.8,1.3,2.8,2.8v0v2.7c0,0.5,0.3,1,0.8,1.1
	c2.8,0.7,5.4,1.9,7.8,3.4c0.3,0.2,0.6,0.2,0.9,0.1c0.1-0.1,0.2-0.1,0.3-0.2l1.6-1.7c1.1-1.1,2.9-1.2,4-0.1c0,0,0.1,0.1,0.1,0.1
	l5.1,5.4c1,1.1,1,2.8,0,3.9l-1.8,1.9c-0.3,0.4-0.4,0.9-0.2,1.3c1.5,2.6,2.6,5.4,3.3,8.4c0.1,0.5,0.6,0.8,1.1,0.8h3.9
	c1.5,0,2.8,1.2,2.8,2.8v7.2c0,1.6-1.3,2.8-2.8,2.8H259c-0.5,0-1,0.4-1.1,0.9c-0.1,0.6-0.3,1.1-0.5,1.6c-0.1,0.3-0.3,0.5-0.6,0.6
	c-0.7,2-1.6,4-2.7,5.8c-0.3,0.4-0.2,1,0.2,1.4l1.8,1.8c1.1,1.1,1.1,2.9,0,4l-5.3,5.3c-1.1,1.1-2.9,1.1-4,0c0,0,0,0,0,0l-1.8-1.8
	c-0.4-0.4-0.9-0.4-1.3-0.2c-2.5,1.5-5.2,2.6-8.1,3.4c-0.5,0.1-0.8,0.6-0.8,1.1v2.6c0,0.7-0.2,1.3-0.7,1.8
	C233.6,154.1,232.8,154.5,232,154.5z M212.8,142.9c0.5,0,1,0.1,1.5,0.4c2.3,1.4,4.7,2.4,7.3,3.1c1.2,0.3,2.1,1.4,2.1,2.7v2.5
	c0,0.6,0.5,1.1,1.1,1.1h7.2c0.3,0,0.6-0.1,0.8-0.4c0.2-0.2,0.3-0.5,0.3-0.7v-2.6c0-1.3,0.9-2.4,2.1-2.7c2.7-0.7,5.3-1.7,7.6-3.2
	c1.1-0.7,2.5-0.5,3.4,0.4l1.8,1.8c0.4,0.4,1.1,0.4,1.6,0l5.3-5.3c0.4-0.4,0.4-1.1,0-1.6c0,0,0,0,0,0l-1.7-1.7
	c-0.9-0.9-1.1-2.3-0.4-3.4c1.1-1.9,2.1-4,2.7-6.1c0.1-0.3,0.3-0.5,0.6-0.6c0.1-0.3,0.1-0.5,0.2-0.8c0.3-1.3,1.4-2.1,2.7-2.1h2.8
	c0.6,0,1.1-0.5,1.1-1.1v-7.2c0-0.6-0.5-1.1-1.1-1.1H258c-1.3,0-2.4-0.9-2.7-2.2c-0.7-2.8-1.7-5.4-3.1-7.9c-0.6-1.1-0.5-2.4,0.4-3.3
	l1.8-1.9c0.4-0.4,0.4-1.1,0-1.6l-5.1-5.4c-0.4-0.4-1.2-0.5-1.6,0c0,0,0,0,0,0l-1.6,1.7c-0.2,0.3-0.5,0.5-0.8,0.6
	c-0.8,0.4-1.8,0.3-2.6-0.2c-2.3-1.4-4.8-2.5-7.4-3.2c-1.2-0.3-2.1-1.4-2.1-2.7v-2.7c0-0.6-0.5-1.1-1.1-1.1c0,0,0,0,0,0h-7.2
	c-0.6,0-1.1,0.5-1.1,1.1v3.8c0,1.3-0.9,2.4-2.1,2.7c-0.4,0.1-0.8,0.2-1.1,0.3c-2.3,0.7-4.5,1.6-6.5,2.8c-1.1,0.7-2.5,0.5-3.4-0.4
	l-1.8-1.7c-0.2-0.2-0.5-0.3-0.7-0.3c-0.3,0-0.7,0.1-0.9,0.3l-5.2,5.1c-0.2,0.2-0.3,0.5-0.3,0.8c0,0.3,0.1,0.6,0.3,0.8l1.6,1.6
	c0.9,0.9,1.1,2.4,0.4,3.5c-1.4,2.3-2.4,4.8-3.1,7.3c-0.3,1.2-1.4,2.1-2.7,2.1h-2.5c-0.6,0-1.1,0.5-1.1,1.1c0,0,0,0,0,0v7.2
	c0,0.6,0.5,1.1,1.1,1.1h3.2c1.3,0,2.4,0.9,2.7,2.1c0.7,2.7,1.7,5.3,3.1,7.7c0.6,1.1,0.4,2.5-0.4,3.4l-1.7,1.8
	c-0.4,0.4-0.4,1.1,0,1.6l5.2,5.3c0.4,0.4,1.1,0.4,1.5,0l1.7-1.7C211.3,143.3,212,142.9,212.8,142.9L212.8,142.9z"/>
<path class="st3" d="M228.6,133.3c-1,0-2-0.1-3-0.3l0,0c-7.9-1.6-13-9.4-11.3-17.3s9.4-13,17.3-11.3c7.9,1.6,13,9.4,11.3,17.3
	c-1.1,5.3-5.1,9.6-10.4,11.1C231.3,133.1,230,133.3,228.6,133.3z M226,131.3c7,1.5,13.8-3,15.3-10c1.5-7-3-13.8-10-15.3
	c-7-1.5-13.8,3-15.3,10c-0.2,0.9-0.3,1.8-0.3,2.7C215.8,124.7,220,130,226,131.3L226,131.3z"/>
<path class="st3" d="M322.1,227.9h-0.3l-14.2-1.2c-1.6-0.1-2.8-1.5-2.6-3.1l0.5-6c0-0.6-0.3-1.1-0.8-1.2c-5-1.6-9.7-4-13.9-7.2
	c-0.4-0.3-1.1-0.3-1.5,0.1l-4.6,3.9c-0.6,0.5-1.3,0.7-2.1,0.7c-0.8,0-1.5-0.4-2-1l-9.2-10.9c-1-1.2-0.9-3.1,0.4-4.1l4.6-3.9
	c0.4-0.4,0.6-1,0.3-1.5c-2.4-4.7-4-9.7-4.7-14.9c-0.1-0.5-0.5-1-1.1-1l-6-0.5c-0.8,0-1.5-0.4-2-1c-0.5-0.6-0.7-1.4-0.7-2.1l1.2-14.2
	c0.1-1.6,1.5-2.8,3.1-2.7c0,0,0,0,0,0l6,0.5c0.6,0.1,1.1-0.3,1.2-0.8c1.6-5,4-9.7,7.1-13.9c0.3-0.4,0.3-1.1-0.1-1.5l-3.9-4.7
	c-1-1.2-0.8-3,0.4-4l10.9-9.2c0.6-0.5,1.4-0.8,2.1-0.7c0.8,0.1,1.5,0.4,2,1l3.9,4.6c0.4,0.4,1,0.5,1.5,0.3c4.7-2.4,9.7-4,14.8-4.8
	c0.5-0.1,1-0.5,1-1.1l0.5-6c0.1-1.6,1.5-2.8,3.1-2.7c0,0,0,0,0,0l14.2,1.2c1.6,0.1,2.8,1.5,2.6,3.1l-0.5,6c-0.1,0.6,0.3,1.1,0.8,1.2
	c5,1.6,9.7,4,13.9,7.2c0.4,0.3,1.1,0.3,1.5-0.1l4.6-3.9c1.2-1,3-0.9,4.1,0.3c0,0,0,0,0,0l9.2,10.9c0.5,0.6,0.8,1.3,0.7,2.1
	c0,0.8-0.4,1.5-1,2l-4.6,3.9c-0.4,0.4-0.5,1-0.3,1.5c0.5,1,1,2,1.4,3c0.1,0.2,0.2,0.4,0.2,0.6v0.1c0,0.5-0.4,0.9-0.8,0.9
	c-0.4,0-0.7-0.2-0.8-0.5c-0.5-1.1-1-2.2-1.5-3.3c-0.6-1.2-0.3-2.7,0.7-3.5l4.6-3.9c0.2-0.2,0.4-0.5,0.4-0.8c0-0.3-0.1-0.6-0.3-0.9
	l-9.2-10.9c-0.2-0.2-0.5-0.4-0.8-0.4c-0.3,0-0.6,0.1-0.9,0.3l-4.6,3.9c-1,0.9-2.5,0.9-3.6,0.1c-4-3-8.6-5.3-13.4-6.9
	c-1.3-0.4-2.1-1.7-2-3l0.5-6c0.1-0.7-0.4-1.3-1.1-1.3l-14.2-1.2c-0.7-0.1-1.2,0.4-1.3,1.1l-0.5,6c-0.1,1.3-1.1,2.4-2.5,2.6
	c-5,0.7-9.8,2.3-14.3,4.6c-1.2,0.6-2.7,0.3-3.5-0.7l-3.8-4.6c-0.2-0.2-0.5-0.4-0.8-0.4c-0.3,0-0.6,0.1-0.9,0.3l-10.9,9.2
	c-0.5,0.4-0.6,1.1-0.2,1.7l0.1,0.1l3.8,4.5c0.9,1,0.9,2.5,0.1,3.6c-3,4.1-5.3,8.6-6.9,13.4c-0.4,1.3-1.7,2.1-3,2l-6-0.5
	c-0.3,0-0.6,0.1-0.9,0.3c-0.2,0.2-0.4,0.5-0.4,0.8l-1.2,14.2c-0.1,0.7,0.4,1.2,1.1,1.3c0,0,0,0,0,0l6,0.5c1.3,0.1,2.4,1.1,2.6,2.4
	c0.7,5,2.3,9.8,4.6,14.4c0.6,1.2,0.3,2.7-0.7,3.5l-4.6,3.9c-0.5,0.4-0.6,1.2-0.1,1.7l9.2,10.9c0.4,0.5,1.2,0.6,1.7,0.1l4.6-3.9
	c1-0.9,2.5-0.9,3.6-0.1c4,3,8.6,5.3,13.4,6.9c1.3,0.4,2.1,1.7,2,3l-0.5,6c-0.1,0.7,0.4,1.2,1.1,1.3l14.2,1.2c0.3,0,0.6-0.1,0.9-0.3
	c0.2-0.2,0.4-0.5,0.4-0.8l0.5-6c0.1-1.3,1.1-2.4,2.5-2.6c2.4-0.4,4.8-0.9,7.1-1.6c0.4-0.2,0.9,0.1,1.1,0.5c0.2,0.4-0.1,0.9-0.5,1.1
	c0,0,0,0-0.1,0c-2.4,0.8-4.9,1.3-7.4,1.7c-0.5,0.1-1,0.5-1,1.1l-0.5,6C324.9,226.8,323.6,227.9,322.1,227.9L322.1,227.9z"/>
<path class="st3" d="M319.4,193.5c-0.6,0-1.3,0-1.9-0.1c-12.7-1-22.1-12.1-21.1-24.8c1-12.7,12.1-22.1,24.8-21.1
	c11.2,0.9,20.1,9.8,21.1,21c0.1,0.5-0.2,0.9-0.7,1c-0.5,0.1-0.9-0.2-1-0.7c0,0,0-0.1,0-0.1c-1-11.7-11.3-20.4-23-19.4
	c-11.7,1-20.4,11.3-19.4,23s11.3,20.4,23,19.4c5.4-0.5,10.5-3,14.1-7.1c0.3-0.3,0.9-0.3,1.2,0c0.3,0.3,0.3,0.8,0.1,1.1
	C332.2,190.7,325.9,193.5,319.4,193.5z"/>
<path class="st3" d="M117.8,293c-9.8,0-19.6-1.3-29-4c-24.4-7-38.5-21.8-36-37.6c2-12.6,10.7-23,26.5-31.8
	c7.7-4.1,15.6-7.7,23.7-10.8l5.7-2.3c19.4-8,18.8-27.9,18.8-28.9c-0.2-1.2-2.2-17.8,21.1-24.9c8.5-2.5,17.2-3.8,26.1-3.9
	c13.4,0,22.7,3.3,26.4,9.3c2.6,4.3,2.2,9.8-1.1,16.4c0.8,2.5,1.3,5.1,1.6,7.7c1.4,0.5,5,2,5,4.9c0,2.3-2.3,3.5-3.5,4.1
	c0.7,5,0.9,10,0.5,15c-0.6,6.2-3.7,12-8.7,15.8c-4.7,3.7-10.7,5.4-16.6,4.6c-1.6-0.2-3.1,0.6-3.7,2c0,0.1-0.1,0.1-0.1,0.2
	c0.6,1.5,1.3,3.1,2,4.6c0.6,1.2,1.1,2.3,1.6,3.4c6.7,14.8,11.1,33.4-14.9,46.1C148.8,289.5,133.4,293,117.8,293z M174.8,150.6
	c-8.7,0.1-17.3,1.3-25.6,3.8c-22.6,6.9-20.1,22.4-20,23c0,0,0,0.1,0,0.1c0,0.2,1.1,22-19.8,30.6c-1.8,0.8-3.7,1.5-5.7,2.3
	c-7.4,3-15.8,6.4-23.5,10.7c-15.5,8.6-23.7,18.3-25.6,30.6c-2.4,15,11.2,29,34.8,35.7c23.9,6.9,51.2,4.6,73.1-6
	c24.6-11.9,20.9-28.9,14.1-43.9c-0.5-1.1-1-2.2-1.6-3.3c-0.9-1.8-1.7-3.6-2.4-5.4c-1.9-4.7-2.9-9.8-3-14.9c0.1-2.8-1.5-5.5-4.1-6.7
	c-3.7-1.8-6.1-5.4-6.4-9.5c-0.4-3.9,0.9-7.3,3.6-9.3c5.8-4.3,10.9-0.3,12.5,1.3c13.8-9.3,15.5-24.6,15.5-24.7c0-0.3,0.2-0.5,0.4-0.6
	c0.2-0.1,0.5-0.2,0.8-0.1c2.4,1.1,4.5,2.9,5.8,5.1c0.6,1,1.1,2,1.6,3c2.4-5.4,2.6-9.8,0.5-13.3C196.4,153.7,187.3,150.6,174.8,150.6
	L174.8,150.6z M168,188.1c-1.6,0-3.2,0.6-4.5,1.6c-2.1,1.6-3.2,4.5-2.9,7.8c0.3,3.5,2.3,6.6,5.4,8.1c3.2,1.5,5.1,4.8,5.1,8.3
	c0,4.4,0.8,8.8,2.4,12.9c1.2-1.4,3-2.2,4.8-1.9c5.5,0.7,11-0.8,15.3-4.3c4.6-3.6,7.4-8.9,8-14.7c0.4-5.1,0.2-10.2-0.6-15.3
	c-0.1-0.4,0.2-0.8,0.6-0.9c0,0,3-1,3-2.7c0-1.9-3.1-3.1-4.3-3.4c-0.3-0.1-0.6-0.4-0.6-0.8c-0.2-2.8-0.8-5.5-1.6-8.2l0,0
	c-0.5-1.6-1.2-3.1-2.1-4.5c-1-1.6-2.4-3-4-4c-1.9,10.3-7.9,19.4-16.7,25.2c-0.4,0.2-0.8,0.2-1.1-0.2
	C174.2,191.1,171.6,188.1,168,188.1z"/>
<path class="st3" d="M201.2,238.1c-0.2,0-0.4-0.1-0.5-0.2c-0.4-0.3-0.4-0.8-0.1-1.2c0,0,0,0,0,0l0.4-0.4
	c8.9-10.6,15.4-26.9,19.5-48.4c2.1-11.4,3.4-22.9,3.7-34.4c0-0.5,0.4-0.8,0.9-0.8c0.5,0,0.8,0.4,0.8,0.8
	c-0.4,11.7-1.6,23.3-3.8,34.7c-4.1,21.8-10.8,38.3-19.8,49.1l-0.4,0.4C201.7,238,201.4,238.1,201.2,238.1z"/>
<path class="st3" d="M200.9,238.1c-0.5,0-0.9-0.4-0.9-0.8c0-0.3,0.2-0.6,0.5-0.8l0.8-0.4c34.4-18.2,55.9-54,55.8-92.9
	c0-2.7-0.1-5.4-0.3-8s-0.5-5.2-0.9-7.7c0,0,0-0.1,0-0.1v-0.1c-0.1-0.5,0.3-0.9,0.8-0.9c0.5-0.1,0.9,0.3,0.9,0.8c0,0.1,0,0.1,0,0.2
	v0.1c0.4,2.5,0.7,5.2,0.9,7.8s0.3,5.4,0.3,8.1c0.1,39.5-21.8,75.9-56.7,94.4l-0.8,0.4C201.2,238.1,201.1,238.1,200.9,238.1z"/>
<path class="st3" d="M79.7,221.2c-0.2,0-0.4-0.1-0.6-0.2c-41-38.8-44.9-102.8-8.7-146.2C108,29.6,175.1,23.5,220.3,61.1
	c7,5.8,13.2,12.6,18.5,20c2.7,3.8,5.2,7.8,7.4,12c0.2,0.4,0.1,0.9-0.3,1.2c-0.4,0.2-0.9,0.1-1.2-0.3l0,0
	C237,79.4,226,66.9,212.5,57.3C168,25.9,106.7,33.9,71.7,75.9c-35.6,42.7-31.8,105.7,8.6,143.8c0.3,0.3,0.3,0.9,0,1.2
	C80.1,221.1,79.9,221.2,79.7,221.2z"/>
<path class="st3" d="M221.2,189c-0.2,0-0.3-0.1-0.5-0.1c-0.4-0.2-0.5-0.8-0.3-1.1c0,0,0,0,0,0c6.8-10.5,11.1-22.5,12.5-34.9
	c0.1-0.5,0.5-0.8,0.9-0.8s0.8,0.5,0.8,0.9c-1.5,12.7-5.9,24.9-12.8,35.6C221.7,188.8,221.5,189,221.2,189z"/>
<path class="st3" d="M103.3,210.5c-0.2,0-0.4-0.1-0.5-0.2c-37-27.4-44.9-79.6-17.4-116.7c1-1.3,1.9-2.6,3-3.8
	c27.7-33.3,76.3-39.7,111.6-14.7c1.3,1,2.6,1.9,3.9,2.9c0.2,0.2,0.4,0.4,0.4,0.7c0,0.5-0.4,0.8-0.8,0.8c0,0,0,0,0,0l0,0
	c-0.2,0-0.4-0.1-0.5-0.2c-1.2-1-2.5-1.9-3.8-2.9c-34.6-24.4-82.2-18.1-109.4,14.4c-28.9,34.6-24.2,86.2,10.4,115.1
	c1.2,1,2.5,2,3.7,2.9c0.4,0.3,0.4,0.8,0.2,1.2C103.9,210.3,103.6,210.5,103.3,210.5z"/>
<path class="st3" d="M70.5,211.3c-0.3,0-0.5-0.1-0.7-0.3c-0.3-0.4-0.2-0.9,0.1-1.2c0,0,0,0,0,0l18.1-14.9c0.3-0.3,0.9-0.3,1.2,0
	c0.3,0.3,0.3,0.9,0,1.2c0,0-0.1,0.1-0.1,0.1l-18.1,14.9C70.9,211.2,70.7,211.3,70.5,211.3z"/>
<path class="st3" d="M89,91.2c-0.2,0-0.4-0.1-0.5-0.2l-18-15l0,0c-0.3-0.3-0.3-0.9,0-1.2c0.3-0.3,0.9-0.3,1.2,0c0,0,0,0,0,0l17.9,15
	c0.4,0.3,0.4,0.8,0.1,1.2c-0.2,0.2-0.4,0.3-0.7,0.3L89,91.2z"/>
<path class="st3" d="M199.5,76.6c-0.2,0-0.4-0.1-0.6-0.3c-0.3-0.3-0.3-0.8-0.1-1.1l13.5-19.1c0.3-0.4,0.8-0.5,1.2-0.2
	s0.5,0.8,0.2,1.2l0,0l-13.6,19.1c0,0-0.1,0.1-0.1,0.1C199.9,76.5,199.7,76.6,199.5,76.6z"/>
<path class="st3" d="M411.5,135.8H363c-0.5,0.1-0.9-0.3-0.9-0.8c-0.1-0.5,0.3-0.9,0.8-0.9c0.1,0,0.1,0,0.2,0h48.4
	c3.1,0,5.6-2.5,5.5-5.6V35.8c0-3.1-2.5-5.6-5.5-5.6h-167c-3.1,0-5.6,2.5-5.6,5.6v45.6c0.1,0.5-0.3,0.9-0.8,0.9
	c-0.5,0.1-0.9-0.3-0.9-0.8c0-0.1,0-0.1,0-0.2V35.8c0-4,3.2-7.3,7.3-7.3h167c4,0,7.3,3.3,7.3,7.3v92.7
	C418.7,132.5,415.5,135.7,411.5,135.8z"/>
<path class="st3" d="M277.6,135.8h-20.1c-0.5,0.1-0.9-0.3-0.9-0.8c-0.1-0.5,0.3-0.9,0.8-0.9c0.1,0,0.1,0,0.2,0h20.1
	c0.5-0.1,0.9,0.3,0.9,0.8c0.1,0.5-0.3,0.9-0.8,0.9C277.8,135.8,277.7,135.8,277.6,135.8z"/>
<path class="st3" d="M225.8,133L225.8,133c-0.5,0-0.8-0.4-0.8-0.8c0,0,0,0,0,0c0-0.1,0.3-9.4,1.4-18.4c0.4-3.5,0.9-6.6,1.4-9
	c0.1-0.5,0.5-0.7,1-0.7c0.4,0.1,0.7,0.5,0.7,1c0,0,0,0,0,0c-0.5,2.4-1,5.4-1.4,8.8c-1.1,8.9-1.4,18.2-1.4,18.3
	C226.7,132.6,226.3,133,225.8,133z"/>
<path class="st3" d="M232.3,132.8c-0.4,0-0.8-0.3-0.9-0.8c-0.8-6.1-2.5-12.1-5-17.8c-0.2-0.4-0.1-0.9,0.3-1.2
	c0.4-0.2,0.9-0.1,1.2,0.3c0,0,0,0.1,0.1,0.1c2.6,5.8,4.3,12,5.2,18.4c0.1,0.5-0.3,0.9-0.7,0.9c0,0,0,0,0,0L232.3,132.8z"/>
<path class="st3" d="M326.9,97.3c-2.4,0-4.3-1.9-4.3-4.3V72c0-2.4,1.9-4.3,4.3-4.3c0.5,0,1,0.1,1.4,0.2c1.7,0.6,2.9,2.3,2.9,4.1
	v20.8c0,1.8-1,3.4-2.6,4.1C328.1,97.2,327.5,97.3,326.9,97.3z M326.9,69.4c-0.5,0-1.1,0.2-1.5,0.5c-0.7,0.5-1.1,1.3-1.1,2.1v20.9
	c0,0.7,0.3,1.4,0.8,1.9c1,1,2.7,1,3.7,0c0.5-0.5,0.8-1.2,0.8-2V72.1c0-1.1-0.7-2.1-1.7-2.5C327.5,69.5,327.2,69.4,326.9,69.4
	L326.9,69.4z"/>
<path class="st3" d="M301.9,101.3c-2.4,0-4.3-1.9-4.3-4.3V68c0-2.4,1.9-4.3,4.3-4.3c0.3,0,0.6,0,0.9,0.1c2,0.5,3.4,2.3,3.4,4.3v28.8
	c0,1.9-1.3,3.6-3.1,4.2C302.7,101.3,302.3,101.3,301.9,101.3z M301.9,65.3c-0.6,0-1.2,0.2-1.6,0.6c-0.6,0.5-1,1.2-1,2v29
	c0,0.7,0.3,1.4,0.8,1.9c0.7,0.7,1.7,0.9,2.6,0.7c1.1-0.4,1.8-1.4,1.9-2.6V68.1c0-1.2-0.8-2.3-2-2.7
	C302.4,65.4,302.1,65.4,301.9,65.3L301.9,65.3z"/>
<path class="st3" d="M314.4,111.7c-1.1,0-2.2-0.5-3-1.3c-0.8-0.8-1.3-1.9-1.3-3.1V57.6c0-2.4,1.9-4.3,4.3-4.3c0.5,0,1,0.1,1.4,0.2
	c1.8,0.6,2.9,2.3,2.9,4.1v49.7c0,2.4-1.8,4.3-4.2,4.4C314.5,111.7,314.5,111.7,314.4,111.7L314.4,111.7z M314.4,55
	c-0.5,0-1.1,0.2-1.5,0.5c-0.7,0.5-1.1,1.3-1.1,2.1v49.8c0,0.7,0.3,1.4,0.8,1.9c1,1,2.7,1,3.7,0c0.5-0.5,0.8-1.2,0.8-1.9V57.6
	c0-1.1-0.7-2.1-1.7-2.5C315,55,314.7,55,314.4,55L314.4,55z"/>
<path class="st3" d="M276.3,97.3c-0.5,0-1-0.1-1.4-0.2c-1.8-0.6-2.9-2.3-2.9-4.1V72.1c-0.1-2.4,1.8-4.4,4.2-4.4
	c1.2,0,2.3,0.4,3.2,1.3c0.8,0.8,1.3,1.9,1.3,3.1v20.9c0,1.4-0.7,2.7-1.8,3.5C278,97,277.2,97.3,276.3,97.3z M276.3,69.4
	c-0.3,0-0.7,0.1-1,0.2c-1,0.4-1.6,1.4-1.6,2.5v20.8c0,1.4,1.2,2.6,2.6,2.6s2.6-1.2,2.6-2.6c0,0,0,0,0,0V72
	C278.9,70.6,277.8,69.4,276.3,69.4L276.3,69.4z"/>
<path class="st3" d="M288.8,111.7c-0.5,0-1-0.1-1.4-0.2c-1.8-0.6-2.9-2.3-2.9-4.1V57.7c-0.1-2.4,1.7-4.4,4.1-4.5
	c2.4-0.1,4.4,1.7,4.5,4.1c0,0.1,0,0.3,0,0.4v49.8c0,1.4-0.7,2.7-1.8,3.5C290.5,111.4,289.7,111.7,288.8,111.7z M288.8,55
	c-0.3,0-0.7,0.1-1,0.2c-1,0.4-1.6,1.4-1.6,2.5v49.7c-0.1,1.4,1,2.7,2.5,2.8c1.4,0.1,2.7-1,2.8-2.5c0-0.1,0-0.2,0-0.3V57.6
	C291.4,56.1,290.3,55,288.8,55L288.8,55L288.8,55z"/>
<path class="st3" d="M352.6,101.3c-2.4,0-4.3-1.9-4.3-4.2c0-0.1,0-0.1,0-0.2V68.1c0-1.9,1.3-3.6,3.1-4.2c2.3-0.7,4.7,0.7,5.4,2.9
	c0.1,0.4,0.2,0.8,0.2,1.2v29C356.9,99.4,355,101.3,352.6,101.3C352.6,101.3,352.6,101.3,352.6,101.3L352.6,101.3z M352.6,65.4
	c-0.3,0-0.5,0-0.8,0.1c-1.1,0.4-1.8,1.4-1.9,2.6v28.8c0,1.2,0.8,2.3,2,2.7c1.4,0.3,2.8-0.6,3.1-2c0-0.2,0.1-0.4,0.1-0.6V68
	C355.2,66.5,354,65.4,352.6,65.4L352.6,65.4z"/>
<path class="st3" d="M340.1,111.7c-0.9,0-1.8-0.3-2.5-0.8c-1.1-0.8-1.8-2.1-1.8-3.5V57.6c0-2.4,1.9-4.3,4.3-4.3
	c2.4,0,4.3,1.9,4.3,4.3v49.7c0,1.9-1.1,3.5-2.9,4.1C341.1,111.6,340.6,111.7,340.1,111.7z M340.1,55c-1.4,0-2.6,1.2-2.6,2.6
	c0,0,0,0,0,0v49.7c0,0.8,0.4,1.6,1.1,2.1c1.2,0.8,2.8,0.6,3.6-0.6c0.3-0.5,0.5-1,0.5-1.6V57.6c0-0.7-0.3-1.4-0.7-1.8
	C341.5,55.3,340.8,55,340.1,55z"/>
<path class="st3" d="M378.3,97.3c-2.4,0-4.3-2-4.3-4.3V72c0-2.4,1.9-4.3,4.3-4.4c0.3,0,0.6,0,0.9,0.1c2,0.5,3.4,2.3,3.4,4.3v20.8
	c0,1.9-1.3,3.6-3.1,4.2C379.1,97.2,378.7,97.3,378.3,97.3z M378.3,69.4c-1.4,0-2.6,1.2-2.6,2.6v20.9c0,1.5,1.2,2.6,2.6,2.6
	c0.3,0,0.5,0,0.7-0.1c1.1-0.4,1.8-1.4,1.9-2.6V72.1c0-1.2-0.8-2.3-2-2.7C378.7,69.4,378.5,69.4,378.3,69.4L378.3,69.4z"/>
<path class="st3" d="M365.8,111.7c-2.4,0-4.3-1.9-4.3-4.3V57.7c0-2.4,1.9-4.3,4.3-4.3s4.3,1.9,4.3,4.3l0,0v49.7
	C370.1,109.8,368.2,111.7,365.8,111.7z M365.8,55c-0.3,0-0.6,0.1-0.9,0.2c-1.1,0.4-1.7,1.4-1.7,2.5v49.7c0,0.7,0.3,1.4,0.8,1.9
	c1,1,2.7,1,3.7,0c0.5-0.5,0.8-1.2,0.8-1.9V57.6c0-0.8-0.4-1.6-1.1-2.1C366.9,55.2,366.3,55,365.8,55L365.8,55z"/>
</svg>
