<svg id="Layer_1" data-name="Layer 1" xmlns="http://www.w3.org/2000/svg" viewBox="0 0 469.68 376.64"><defs><style>.cls-1{fill:#fff;}.cls-2{fill:#fcb01a;}.cls-3{fill:#1a1a1a;}.cls-4{fill:#e0e0e0;}</style></defs><path class="cls-1" d="M155.21,331l.48,1.15-2.43-5.92c-.41-.26-.85-.48-1.27-.72-1.52-.46-3.05-.84-4.61-1.17-.55,0-1.09-.09-1.64-.12a32.15,32.15,0,0,1-21.3-9.3l-3.26.78-20.57-10.42.11-.09-.17.06-.12-.06-7-3.53A9.8,9.8,0,0,0,82,303.59L70.06,316,52.8,333.88c-3.34-.3-6.23-.46-8.88-.68-7.82-.67-13.45-2-21.77-9.6a10.51,10.51,0,0,0-5-2.84c-4.65-.79-6.68,4.95-1.66,12.69-1-1.53-3.43-5.09-5.32-8.35a5,5,0,0,0-5.36-2.63c-2.53.63-4.44,3.6-1.75,11.4.15.45.32.89.48,1.33A45.64,45.64,0,0,0,36,363.54c21.51,5.07,76.59,12.44,120.46-29.44C156,333.06,155.63,332,155.21,331Z" transform="translate(-0.81 -18.73)"/><path class="cls-1" d="M398.5,245.42C395,224.27,383.35,220.11,380,222.65s-1.66,6.29.4,11l-.91-.49c-3.19-4.71-8-9.85-12.09-9.94a4.54,4.54,0,0,0-3,1c-2.82,2.28-2.64,5-1.43,8.19-.33.24-.67.49-1,.77a25.73,25.73,0,0,0-2.77-3c-3.29-3-6.92-4.84-9.93-2.72-4.6,3.25-.79,9.74,2.06,15.45l-.36.37a29.55,29.55,0,0,0-2.62-3.87c-2.57-3.2-5.6-5.47-8.66-4-3.89,1.9-2.23,6.29-1.52,11a99.52,99.52,0,0,1,1.16,13.25,12,12,0,0,0-.91,4.18c0,.4,0,.81,0,1.2,0,21.9-33,6.28-33,23.39,0,.07,5.24,49.89,7.48,55h-.08l.11.05a.77.77,0,0,0,.1.18l.31,0c12,6,34.33,10.95,53.57-2.06a4.76,4.76,0,0,0,2-1.45l.48-.35,0-.13h-.19c2.49-3.92.68-12.18,6.92-22.21l0-.06c.28-.45.57-.9.89-1.36,6.22-9,14.31-12.85,17-15.85l.08.42c.1-.28.18-.56.28-.84a2.55,2.55,0,0,0,.58-1.48c0-.07,0-.16,0-.27C404.84,267.24,398.5,245.42,398.5,245.42Z" transform="translate(-0.81 -18.73)"/><path class="cls-1" d="M37.44,295.12H34.87a9.29,9.29,0,0,1-9.26-9.26V95.24A9.29,9.29,0,0,1,34.87,86H355.56a9.29,9.29,0,0,1,9.26,9.26V203.48Z" transform="translate(-0.81 -18.73)"/><circle class="cls-2" cx="96.48" cy="36.21" r="36.21"/><rect class="cls-3" x="167.43" y="39.17" width="15.52" height="16.26"/><rect class="cls-1" x="157.08" y="28.08" width="15.52" height="16.26"/><path class="cls-4" d="M158.55,332.26c.3,19.3.87,39.09,1.23,50.52A234.67,234.67,0,0,1,92.3,366.45,118,118,0,0,0,158.55,332.26Z" transform="translate(-0.81 -18.73)"/><path class="cls-4" d="M160.11,330.52s-.53.63-1.56,1.74c0-1.3,0-2.6-.06-3.88C159.53,329.73,160.11,330.52,160.11,330.52Z" transform="translate(-0.81 -18.73)"/><circle class="cls-2" cx="423.5" cy="322.58" r="46.19"/><circle class="cls-3" cx="7.43" cy="130.44" r="7.02"/><circle class="cls-3" cx="230.24" cy="19.95" r="4.43"/><rect class="cls-1" x="1.89" y="203.23" width="11.09" height="11.09"/><path class="cls-3" d="M104.18,53.52a.92.92,0,0,1-.64-.26.9.9,0,0,1,0-1.28L108,47.57a.9.9,0,1,1,1.28,1.27l-4.41,4.42A.93.93,0,0,1,104.18,53.52Z" transform="translate(-0.81 -18.73)"/><path class="cls-3" d="M92.78,65a.93.93,0,0,1-.64-.26.91.91,0,0,1,0-1.28L96.54,59a.9.9,0,0,1,1.28,0,.88.88,0,0,1,0,1.27l-4.4,4.42A.9.9,0,0,1,92.78,65Z" transform="translate(-0.81 -18.73)"/><path class="cls-3" d="M108.67,65a.87.87,0,0,1-.64-.27l-4.41-4.41a.9.9,0,1,1,1.27-1.28l4.41,4.42a.88.88,0,0,1,0,1.27A.86.86,0,0,1,108.67,65Z" transform="translate(-0.81 -18.73)"/><path class="cls-3" d="M97.26,53.61a.9.9,0,0,1-.64-.27l-4.4-4.42a.9.9,0,1,1,1.28-1.27l4.4,4.42a.89.89,0,0,1,0,1.27A.9.9,0,0,1,97.26,53.61Z" transform="translate(-0.81 -18.73)"/><path class="cls-3" d="M117.25,175.86v20.38a7.26,7.26,0,0,1-7.23,7.24H56.49a7.26,7.26,0,0,1-7.23-7.24v-7.38s14.86-12.72,29.95-5.52C98.48,192.52,106.85,186.88,117.25,175.86Z" transform="translate(-0.81 -18.73)"/><path class="cls-2" d="M117.25,156v19.5c-10.4,11-18.77,16.66-38,7.48-15.09-7.19-29.95,5.52-29.95,5.52V156a7.26,7.26,0,0,1,7.23-7.24H110A7.26,7.26,0,0,1,117.25,156Zm-14.31,10.54a5.67,5.67,0,1,0-5.67,5.68A5.67,5.67,0,0,0,102.94,166.57Z" transform="translate(-0.81 -18.73)"/><path class="cls-3" d="M438.12,175.83A24.13,24.13,0,1,1,414.05,200,24.11,24.11,0,0,1,438.12,175.83Z" transform="translate(-0.81 -18.73)"/><path class="cls-2" d="M271.45,38.6A13.51,13.51,0,1,1,258,52.11,13.5,13.5,0,0,1,271.45,38.6Z" transform="translate(-0.81 -18.73)"/><path class="cls-2" d="M438.12,268.06a6.85,6.85,0,1,1-6.84,6.85A6.85,6.85,0,0,1,438.12,268.06Z" transform="translate(-0.81 -18.73)"/><path class="cls-2" d="M413.4,114.92a3,3,0,0,1-.28,4l-6.62,6.64a2.8,2.8,0,0,0,0,4l6.62,6.64a3,3,0,0,1,.28,4,2.91,2.91,0,0,1-4.29.19l-6.73-6.74a2.8,2.8,0,0,0-4,0l-6.72,6.74a2.93,2.93,0,0,1-4.31-.19,3,3,0,0,1,.29-4l6.62-6.64a2.82,2.82,0,0,0,0-4l-6.73-6.74a2.93,2.93,0,0,1,.2-4.31,3,3,0,0,1,4,.29l6.62,6.63a2.8,2.8,0,0,0,4,0l6.73-6.75A2.9,2.9,0,0,1,413.4,114.92Z" transform="translate(-0.81 -18.73)"/><path class="cls-3" d="M393.64,162a1.85,1.85,0,1,1-1.84,1.84A1.84,1.84,0,0,1,393.64,162Z" transform="translate(-0.81 -18.73)"/><path class="cls-3" d="M393.64,169.49a1.84,1.84,0,1,1-1.84,1.84A1.83,1.83,0,0,1,393.64,169.49Z" transform="translate(-0.81 -18.73)"/><path class="cls-3" d="M393.64,177a1.84,1.84,0,1,1-1.84,1.84A1.83,1.83,0,0,1,393.64,177Z" transform="translate(-0.81 -18.73)"/><path class="cls-3" d="M385,162a1.85,1.85,0,1,1-1.84,1.84A1.84,1.84,0,0,1,385,162Z" transform="translate(-0.81 -18.73)"/><path class="cls-3" d="M385,169.49a1.84,1.84,0,1,1-1.84,1.84A1.83,1.83,0,0,1,385,169.49Z" transform="translate(-0.81 -18.73)"/><path class="cls-3" d="M385,177a1.84,1.84,0,1,1-1.84,1.84A1.83,1.83,0,0,1,385,177Z" transform="translate(-0.81 -18.73)"/><path class="cls-3" d="M376.43,162a1.85,1.85,0,1,1-1.83,1.84A1.84,1.84,0,0,1,376.43,162Z" transform="translate(-0.81 -18.73)"/><path class="cls-3" d="M376.43,169.49a1.84,1.84,0,1,1-1.83,1.84A1.84,1.84,0,0,1,376.43,169.49Z" transform="translate(-0.81 -18.73)"/><path class="cls-3" d="M376.43,177a1.84,1.84,0,1,1-1.83,1.84A1.84,1.84,0,0,1,376.43,177Z" transform="translate(-0.81 -18.73)"/><path class="cls-2" d="M367,204.9a4.45,4.45,0,0,1,4.53,5.76l-3.89,12.55a4.57,4.57,0,0,0-3,1c-3.43,2.78-2.41,6.27-.5,10.33h0l-.27.87a29.93,29.93,0,0,0-4.45-5.22c-3.3-3-6.92-4.84-9.93-2.72-6.62,4.67,4.14,16,4.46,22.14a31.38,31.38,0,0,0-5.38-10.19c-2.57-3.2-5.61-5.47-8.66-4-3.9,1.9-2.24,6.29-1.53,11a92.76,92.76,0,0,1,1.15,16.73l-2.16-2.74a2.82,2.82,0,0,0-4-.47l-24.88,19.51-96.41,75.6a9.8,9.8,0,0,1-10.48,1l-41.24-20.89-3.19-1.62L101,305.18l-7-3.53a9.8,9.8,0,0,0-11.5,1.94L70.58,316l-17.28,18c-3.45-.33-6.43-.48-9.15-.71-7.83-.67-13.45-2-21.77-9.6a10.51,10.51,0,0,0-5-2.84,9.78,9.78,0,0,1,2.73-7.49l17.19-17.84,37.3-38.75a9.8,9.8,0,0,1,11.5-2l37.4,19,36.88,18.68L197.16,311a9.77,9.77,0,0,0,10.48-1l102-80a2.84,2.84,0,0,0,.48-4l-7.72-9.8A4.45,4.45,0,0,1,305.6,209l13.3-.89,45.7-3.05Z" transform="translate(-0.81 -18.73)"/><path class="cls-2" d="M364.82,95.34V111.1H237.32a32.26,32.26,0,0,0-11.6-3.39c-11.27-1.19-17.24,1-20.39,3.39H25.61V95.34A9.34,9.34,0,0,1,34.87,86H355.56A9.34,9.34,0,0,1,364.82,95.34Zm-27.2,3.71A2.92,2.92,0,1,0,334.7,102,2.93,2.93,0,0,0,337.62,99.05Zm-269.75,0A2.92,2.92,0,1,0,65,102,2.93,2.93,0,0,0,67.87,99.05Zm-12.66,0A2.93,2.93,0,1,0,52.28,102,2.94,2.94,0,0,0,55.21,99.05Zm-12.67,0A2.93,2.93,0,1,0,39.61,102,2.94,2.94,0,0,0,42.54,99.05Z" transform="translate(-0.81 -18.73)"/><path class="cls-3" d="M338.33,157.84a5,5,0,1,1,8.58-3.57,5,5,0,0,1-8.58,3.57Z" transform="translate(-0.81 -18.73)"/><path class="cls-3" d="M339,263.23h0a51.9,51.9,0,0,1-2.51,15.12c-11.5,3.3-28.21,4.63-28.21,4.63l-.28-3.46L332.83,260a2.82,2.82,0,0,1,4,.47Z" transform="translate(-0.81 -18.73)"/><path class="cls-3" d="M318.9,177.32a5,5,0,1,1-8.58,3.55,5.18,5.18,0,0,1,.43-2l4.59,2Z" transform="translate(-0.81 -18.73)"/><path class="cls-3" d="M318.9,177.32l-3.56,3.55-4.59-2a5,5,0,0,1,4.59-3A5,5,0,0,1,318.9,177.32Z" transform="translate(-0.81 -18.73)"/><path class="cls-3" d="M160.11,292.36l-36.88-18.68c3.38-6.08,9.67-16.6,21.24-34,26.37-39.72,59.08-44.54,59.08-44.54,3.87,5.37,8.93,10,14.95,11.6a24.24,24.24,0,0,0,40.29-18.23,24.77,24.77,0,0,0-.62-5.49l.11,0s41.2,2.54,60.39,25.13l-13.3.89a4.45,4.45,0,0,0-3.19,7.19l7.73,9.8a2.85,2.85,0,0,1-.49,4l-102,80a9.77,9.77,0,0,1-10.48,1Z" transform="translate(-0.81 -18.73)"/><path class="cls-3" d="M312.75,343.18c1.13,19.62,1.92,39.15,1.57,51H160.11V334.94l41.25,20.9a9.83,9.83,0,0,0,10.48-1l96.41-75.61.28,3.47C309.26,291.8,311.29,317.58,312.75,343.18Z" transform="translate(-0.81 -18.73)"/><path class="cls-3" d="M252.49,130.58h0c6.82,2.83,14.23,9.92,11.79,27.53-.06.44-.13.9-.21,1.36a8.46,8.46,0,0,0-.93-2.22c-3.52-5.93-12.58-4.44-14.34,2.24-.82,3.16-2.48,7.17-5.57,7.51-6.46.72-7.88-14.75-7.88-14.75-8.34-2-12-6.71-13.61-10.26-9.09,1-15-.13-18.76-1.74l0,.06c-7,5-9.78,14.67-9.35,25.1,0,0-23.46-5.33-22.85-26.79.5-17.51,16.81-23,30.75-22.43v0A8.51,8.51,0,0,1,205,111c3.16-2.43,9.15-4.56,20.44-3.37A32.43,32.43,0,0,1,237.09,111C249.54,117.46,252.43,130.34,252.49,130.58Z" transform="translate(-0.81 -18.73)"/><path class="cls-3" d="M222.1,166.71c.42,1.78-.1,3.44-1.18,3.69s-2.29-1-2.71-2.76.1-3.44,1.18-3.69S221.68,164.93,222.1,166.71Z" transform="translate(-0.81 -18.73)"/><path class="cls-3" d="M202.39,171.9c.42,1.78-.11,3.44-1.19,3.69s-2.29-1-2.71-2.76.11-3.43,1.18-3.69S202,170.12,202.39,171.9Z" transform="translate(-0.81 -18.73)"/><path class="cls-3" d="M193.29,185.69a5,5,0,1,1-9.36,2.55,4.94,4.94,0,0,1,1.54-3.61l3.49,3.61Z" transform="translate(-0.81 -18.73)"/><path class="cls-3" d="M193.29,185.69,189,188.24l-3.49-3.61A4.94,4.94,0,0,1,189,183.2,5,5,0,0,1,193.29,185.69Z" transform="translate(-0.81 -18.73)"/><path class="cls-3" d="M139.79,137.39a4.92,4.92,0,0,1-3.49,1.43,5.07,5.07,0,1,1,3.49-1.43Z" transform="translate(-0.81 -18.73)"/><path class="cls-3" d="M252.27,167.48a.88.88,0,0,1-.62-.25.9.9,0,0,1,0-1.28l5.44-5.68a.91.91,0,1,1,1.3,1.26l-5.44,5.67A.9.9,0,0,1,252.27,167.48Z" transform="translate(-0.81 -18.73)"/><path class="cls-3" d="M258.28,167.8a.88.88,0,0,1-.62-.25l-3.3-3.16a.9.9,0,0,1,0-1.28.91.91,0,0,1,1.28,0l3.29,3.17a.9.9,0,0,1,0,1.28A.89.89,0,0,1,258.28,167.8Z" transform="translate(-0.81 -18.73)"/><path class="cls-3" d="M222.92,208.21a18.25,18.25,0,0,1-4.65-.6c-5.52-1.45-10.87-5.59-15.45-12a52,52,0,0,1-6.34-12,59.29,59.29,0,0,1-3.78-18.3c-.48-11.78,3-20.93,9.69-25.77a.91.91,0,1,1,1.06,1.47c-6.13,4.4-9.39,13.24-8.95,24.23A57.73,57.73,0,0,0,198.17,183a49.93,49.93,0,0,0,6.12,11.59c3,4.2,8,9.56,14.44,11.26a16.56,16.56,0,0,0,6.24.41c5.87-.73,14.62-3.37,22.92-17.73a.9.9,0,1,1,1.56.91c-6.53,11.3-14.46,17.39-24.25,18.61A16.9,16.9,0,0,1,222.92,208.21Z" transform="translate(-0.81 -18.73)"/><path class="cls-3" d="M217.54,191.87a9.8,9.8,0,0,1-1.3-.09.9.9,0,0,1,.25-1.79,6.58,6.58,0,0,0,7.12-4.26.91.91,0,1,1,1.71.61A8.44,8.44,0,0,1,217.54,191.87Z" transform="translate(-0.81 -18.73)"/><path class="cls-3" d="M226.45,187a6.79,6.79,0,0,1-5.58-3.58.9.9,0,0,1,1.58-.88h0c.23.42,2.42,4,6.14,2.06a.91.91,0,0,1,1.22.38.89.89,0,0,1-.37,1.22A6.42,6.42,0,0,1,226.45,187Z" transform="translate(-0.81 -18.73)"/><path class="cls-3" d="M212.24,183.38h-.11a5.5,5.5,0,0,1-4.34-2.69c-.65-1.36-.39-3,.75-4.77,2.18-3.46.38-5.43.3-5.51a.91.91,0,0,1,0-1.27.9.9,0,0,1,1.27,0c.12.13,2.91,3-.07,7.75-.78,1.24-1,2.27-.64,3a3.84,3.84,0,0,0,2.94,1.66.9.9,0,0,1-.12,1.8Z" transform="translate(-0.81 -18.73)"/><path class="cls-3" d="M215.54,160.83a.9.9,0,0,1-.42-1.7,14.34,14.34,0,0,1,9.48-1.4.9.9,0,0,1-.45,1.75h0a12.75,12.75,0,0,0-8.2,1.25A.86.86,0,0,1,215.54,160.83Z" transform="translate(-0.81 -18.73)"/><path class="cls-3" d="M194.07,169.55a1,1,0,0,1-.35-.07.91.91,0,0,1-.48-1.19c2-4.83,7.9-5.44,8.15-5.46a.9.9,0,0,1,.17,1.8c-.08,0-5.05.55-6.66,4.36A.9.9,0,0,1,194.07,169.55Z" transform="translate(-0.81 -18.73)"/><path class="cls-3" d="M81.19,347.51a.91.91,0,0,1-.8-.48c-3.54-6.64-11.81-9.82-15.68-10.57S57.13,335.2,53,334.81c-2.06-.2-3.92-.33-5.72-.46l-3.43-.25c-7.47-.64-13.45-1.72-22.3-9.83A9.7,9.7,0,0,0,17,321.65a2.71,2.71,0,0,0-2.89,1.08C13,324.32,13,328,16.21,333a.9.9,0,1,1-1.52,1c-3.11-4.8-3.93-9.47-2.13-12.2a4.45,4.45,0,0,1,4.7-1.87,11.32,11.32,0,0,1,5.5,3.07c8.43,7.72,14.12,8.75,21.24,9.36,1.08.09,2.21.17,3.4.25,1.81.13,3.68.26,5.76.46,4.2.39,8,.93,11.89,1.68.5.09,12.11,2.44,16.94,11.49a.92.92,0,0,1-.37,1.23A1,1,0,0,1,81.19,347.51Z" transform="translate(-0.81 -18.73)"/><path class="cls-3" d="M39.83,352.43a1,1,0,0,1-.35-.07c-.6-.25-14.68-6.17-22.33-15.15a30.53,30.53,0,0,1-1.91-2.47.89.89,0,0,1,.22-1.25.9.9,0,0,1,1.26.22c.53.76,1.14,1.54,1.8,2.33,7.37,8.64,21.51,14.59,21.65,14.65a.9.9,0,0,1-.34,1.74Z" transform="translate(-0.81 -18.73)"/><path class="cls-3" d="M70.37,368.41a153.25,153.25,0,0,1-34.6-4A46.4,46.4,0,0,1,2.65,335.51c-.16-.44-.33-.89-.48-1.35-1.59-4.6-1.78-8.06-.58-10.28a4.53,4.53,0,0,1,3-2.29,6,6,0,0,1,6.36,3.05c2.14,3.69,4.78,7.56,5.28,8.3l.12.18h0l0,0,.14.22.13.18a.8.8,0,0,1,.09.14.86.86,0,0,1,.18.54.9.9,0,0,1-.9.9.88.88,0,0,1-.65-.27.81.81,0,0,1-.17-.24L15,334.4l-.17-.24s-.05-.08-.06-.11l0,0c-.55-.8-3.23-4.72-5.39-8.46A4.14,4.14,0,0,0,5,323.35a2.69,2.69,0,0,0-1.8,1.39c-.66,1.21-1.07,3.72.7,8.84.15.44.31.88.47,1.3a44.58,44.58,0,0,0,31.84,27.78C57.78,367.75,112.71,375,156.29,333a.91.91,0,0,1,1.26,1.3C129.22,361.62,96.2,368.41,70.37,368.41Z" transform="translate(-0.81 -18.73)"/><path class="cls-3" d="M315.34,181.78a.94.94,0,0,1-.36-.08l-51.33-22.84a.9.9,0,0,1,.73-1.65l50.76,22.58,26.1-26.15a.91.91,0,1,1,1.28,1.28L316,181.51A.91.91,0,0,1,315.34,181.78Z" transform="translate(-0.81 -18.73)"/><path class="cls-3" d="M189,189.14a.91.91,0,0,1-.65-.27l-3.49-3.61-49.17-50.85a.91.91,0,1,1,1.3-1.26l52.17,53.95,7.75-4.55a.9.9,0,1,1,.91,1.56L189.42,189A.93.93,0,0,1,189,189.14Z" transform="translate(-0.81 -18.73)"/><path class="cls-3" d="M334.7,102.88a3.84,3.84,0,1,1,3.82-3.83A3.84,3.84,0,0,1,334.7,102.88Zm0-5.86a2,2,0,1,0,2,2A2,2,0,0,0,334.7,97Z" transform="translate(-0.81 -18.73)"/><path class="cls-3" d="M39.61,102.88a3.84,3.84,0,1,1,3.83-3.83A3.83,3.83,0,0,1,39.61,102.88Zm0-5.86a2,2,0,1,0,2,2A2,2,0,0,0,39.61,97Z" transform="translate(-0.81 -18.73)"/><path class="cls-3" d="M65,102.88a3.84,3.84,0,1,1,3.82-3.83A3.83,3.83,0,0,1,65,102.88ZM65,97a2,2,0,1,0,2,2A2,2,0,0,0,65,97Z" transform="translate(-0.81 -18.73)"/><path class="cls-3" d="M52.28,102.88a3.84,3.84,0,1,1,3.84-3.83A3.84,3.84,0,0,1,52.28,102.88Zm0-5.86a2,2,0,1,0,2,2A2,2,0,0,0,52.28,97Z" transform="translate(-0.81 -18.73)"/><path class="cls-3" d="M350.49,103.43a.88.88,0,0,1-.64-.26l-7-7a.9.9,0,1,1,1.28-1.27l7,7a.91.91,0,0,1,0,1.28A.89.89,0,0,1,350.49,103.43Z" transform="translate(-0.81 -18.73)"/><path class="cls-3" d="M343.52,103.43a.89.89,0,0,1-.64-.26.91.91,0,0,1,0-1.28l7-7a.89.89,0,0,1,1.27,0,.9.9,0,0,1,0,1.28l-7,7A.89.89,0,0,1,343.52,103.43Z" transform="translate(-0.81 -18.73)"/><path class="cls-3" d="M326.39,103.14h-6.65a.91.91,0,1,1,0-1.81h6.65a.91.91,0,0,1,0,1.81Z" transform="translate(-0.81 -18.73)"/><path class="cls-3" d="M37.44,296H34.87a10.17,10.17,0,0,1-10.16-10.16V95.24A10.18,10.18,0,0,1,34.87,85.07H355.56a10.18,10.18,0,0,1,10.16,10.17V203.48a.91.91,0,0,1-1.81,0V95.24a8.36,8.36,0,0,0-8.35-8.36H34.87a8.36,8.36,0,0,0-8.35,8.36V285.86a8.35,8.35,0,0,0,8.35,8.35h2.57a.91.91,0,0,1,0,1.81Z" transform="translate(-0.81 -18.73)"/><path class="cls-3" d="M364.3,112H237a.91.91,0,0,1,0-1.81H364.3a.91.91,0,0,1,0,1.81Z" transform="translate(-0.81 -18.73)"/><path class="cls-3" d="M205.19,112H25.61a.91.91,0,0,1,0-1.81H205.19a.91.91,0,1,1,0,1.81Z" transform="translate(-0.81 -18.73)"/><path class="cls-3" d="M411.17,142.21a3.8,3.8,0,0,1-2.7-1.12l-6.73-6.74a2,2,0,0,0-2.69,0l-6.72,6.74a3.84,3.84,0,0,1-5.64-.25,4,4,0,0,1,.34-5.27l6.62-6.64a1.91,1.91,0,0,0,0-2.69l-6.73-6.74a3.83,3.83,0,0,1,.26-5.64,3.91,3.91,0,0,1,5.25.34l6.62,6.63a2,2,0,0,0,2.69,0l6.73-6.74a3.83,3.83,0,0,1,2.86-1.12,3.87,3.87,0,0,1,2.77,1.37,3.94,3.94,0,0,1-.34,5.26l-6.62,6.64a1.91,1.91,0,0,0,0,2.69l6.63,6.64h0a4,4,0,0,1,.34,5.27,3.82,3.82,0,0,1-2.77,1.36Zm-21.6-27.4a1.9,1.9,0,0,0-1.23.43,2,2,0,0,0-.14,3l6.73,6.75a3.72,3.72,0,0,1,0,5.24l-6.62,6.64a2.13,2.13,0,0,0-.23,2.83,2,2,0,0,0,3,.13l6.72-6.74A3.73,3.73,0,0,1,400.4,132a3.68,3.68,0,0,1,2.62,1.09l6.73,6.74a2,2,0,0,0,1.5.59,2,2,0,0,0,1.46-.72,2.13,2.13,0,0,0-.23-2.83l-6.62-6.64a3.69,3.69,0,0,1,0-5.24l6.62-6.64a2.13,2.13,0,0,0,.23-2.83,2,2,0,0,0-3-.14L403,122.11a3.68,3.68,0,0,1-2.62,1.09,3.73,3.73,0,0,1-2.63-1.09l-6.62-6.63A2.26,2.26,0,0,0,389.57,114.81Z" transform="translate(-0.81 -18.73)"/><path class="cls-3" d="M438.12,59.87a7.76,7.76,0,1,1,7.74-7.76A7.76,7.76,0,0,1,438.12,59.87Zm0-13.71a6,6,0,1,0,5.94,6A5.95,5.95,0,0,0,438.12,46.16Z" transform="translate(-0.81 -18.73)"/><path class="cls-3" d="M438.12,282.67a7.76,7.76,0,1,1,7.74-7.76A7.76,7.76,0,0,1,438.12,282.67Zm0-13.71a6,6,0,1,0,5.94,6A5.95,5.95,0,0,0,438.12,269Z" transform="translate(-0.81 -18.73)"/><path class="cls-3" d="M438.12,225a25,25,0,1,1,25-25A25,25,0,0,1,438.12,225Zm0-48.24A23.22,23.22,0,1,0,461.29,200,23.22,23.22,0,0,0,438.12,176.74Z" transform="translate(-0.81 -18.73)"/><path class="cls-3" d="M271.45,66.53a14.42,14.42,0,1,1,14.39-14.42A14.42,14.42,0,0,1,271.45,66.53Zm0-27A12.61,12.61,0,1,0,284,52.11,12.61,12.61,0,0,0,271.45,39.51Z" transform="translate(-0.81 -18.73)"/><path class="cls-3" d="M431.33,52.89H285a.91.91,0,0,1,0-1.81H431.33a.91.91,0,0,1,0,1.81Z" transform="translate(-0.81 -18.73)"/><path class="cls-3" d="M438,177a.9.9,0,0,1-.9-.9V58.63a.9.9,0,0,1,1.8,0V176.14A.9.9,0,0,1,438,177Z" transform="translate(-0.81 -18.73)"/><path class="cls-3" d="M415.61,388.76a47.12,47.12,0,0,1-47-47.12c0-.65,0-1.29,0-1.93a47,47,0,1,1,47,49.05Zm0-92.43a45.2,45.2,0,0,0-45.18,43.46c0,.62,0,1.23,0,1.85a45.22,45.22,0,1,0,45.22-45.31Z" transform="translate(-0.81 -18.73)"/><path class="cls-3" d="M415.61,388.76c-16.06,0-29.12-21.14-29.12-47.12s13.06-47.12,29.12-47.12,29.12,21.14,29.12,47.12S431.66,388.76,415.61,388.76Zm0-92.43c-15.06,0-27.32,20.32-27.32,45.31S400.55,387,415.61,387s27.31-20.32,27.31-45.31S430.67,296.33,415.61,296.33Z" transform="translate(-0.81 -18.73)"/><path class="cls-3" d="M415.81,388.4a.9.9,0,0,1-.9-.91V295.12a.9.9,0,1,1,1.8,0v92.37A.9.9,0,0,1,415.81,388.4Z" transform="translate(-0.81 -18.73)"/><path class="cls-3" d="M461.63,342.58H369.25a.91.91,0,0,1,0-1.81h92.38a.91.91,0,0,1,0,1.81Z" transform="translate(-0.81 -18.73)"/><path class="cls-3" d="M438,268.68a.9.9,0,0,1-.9-.91v-43.6a.9.9,0,1,1,1.8,0v43.6A.9.9,0,0,1,438,268.68Z" transform="translate(-0.81 -18.73)"/><path class="cls-3" d="M431.33,276.07h-31a.91.91,0,0,1,0-1.81h31a.91.91,0,0,1,0,1.81Z" transform="translate(-0.81 -18.73)"/><path class="cls-3" d="M87.79,218.43H52.72a4.52,4.52,0,0,1-4.18-3.07A4.22,4.22,0,0,1,52.6,210H87.68A4.52,4.52,0,0,1,91.86,213a4.25,4.25,0,0,1-4.07,5.39ZM52.6,211.77a2.43,2.43,0,0,0-2.32,3.11,2.74,2.74,0,0,0,2.44,1.74H87.79a2.43,2.43,0,0,0,2.32-3.11,2.73,2.73,0,0,0-2.43-1.74Z" transform="translate(-0.81 -18.73)"/><path class="cls-3" d="M89,244.29H51.44a3.32,3.32,0,0,1-3-2.06,3.13,3.13,0,0,1,.73-3.26,3.1,3.1,0,0,1,2.2-.92H89a3.33,3.33,0,0,1,3,2.06,3.15,3.15,0,0,1-.74,3.26A3.1,3.1,0,0,1,89,244.29Zm-37.67-4.43a1.29,1.29,0,0,0-.92.38,1.33,1.33,0,0,0-.31,1.4,1.59,1.59,0,0,0,1.31.84H89a1.28,1.28,0,0,0,.92-.38,1.33,1.33,0,0,0,.31-1.4,1.56,1.56,0,0,0-1.31-.84Z" transform="translate(-0.81 -18.73)"/><path class="cls-3" d="M110,233.94H51.34a3.31,3.31,0,0,1-3-2.06,3.13,3.13,0,0,1,.74-3.26,3.1,3.1,0,0,1,2.2-.92h58.68a3.32,3.32,0,0,1,3,2.07,3.14,3.14,0,0,1-.74,3.26A3.09,3.09,0,0,1,110,233.94Zm-58.76-4.43a1.27,1.27,0,0,0-.92.39,1.32,1.32,0,0,0-.31,1.39,1.57,1.57,0,0,0,1.31.85H110a1.27,1.27,0,0,0,.92-.39,1.33,1.33,0,0,0,.31-1.4,1.58,1.58,0,0,0-1.31-.84Z" transform="translate(-0.81 -18.73)"/><path class="cls-3" d="M339.29,350.86a59.64,59.64,0,0,1-27-6.56.9.9,0,1,1,.84-1.6C327.3,350.05,350.4,353.51,369,339a.91.91,0,0,1,1.11,1.43A49.36,49.36,0,0,1,339.29,350.86Z" transform="translate(-0.81 -18.73)"/><path class="cls-3" d="M394.15,301.63a.93.93,0,0,1-.29-.05.91.91,0,0,1-.57-1.15c10.83-31.57,4.41-54.53,4.34-54.75a.43.43,0,0,1,0-.11c-2.82-16.93-10.47-21.22-12.75-22.13s-3.65-.59-4.34-.07c-2.63,2-1.46,5,.84,10.27.5,1.14,1,2.31,1.5,3.54a28.44,28.44,0,0,1,1.9,6.86.9.9,0,0,1-1.79.23,26.56,26.56,0,0,0-1.79-6.43c-.47-1.19-1-2.35-1.48-3.47-2.14-4.89-4.17-9.5-.27-12.44,1.41-1.07,3.7-1.13,6.1-.17s10.88,5.64,13.85,23.47c.36,1.31,6.38,24.41-4.38,55.79A.91.91,0,0,1,394.15,301.63Z" transform="translate(-0.81 -18.73)"/><path class="cls-3" d="M368.68,248.77a.91.91,0,0,1-.91-.85,18.91,18.91,0,0,0-1.46-6c-.65-1.66-1.44-3.25-2.21-4.79-.37-.74-.73-1.47-1.07-2.18a.91.91,0,0,1,1.64-.77c.33.7.69,1.41,1.05,2.15.78,1.57,1.59,3.2,2.27,4.92a21,21,0,0,1,1.59,6.53.91.91,0,0,1-.85,1Z" transform="translate(-0.81 -18.73)"/><path class="cls-3" d="M382,238.41a.88.88,0,0,1-.81-.5c-2.72-5.58-9.22-13.7-13.86-13.79a3.58,3.58,0,0,0-2.43.85c-2.8,2.27-2.25,5-.25,9.23A.91.91,0,0,1,363,235c-1.78-3.78-3.34-8.09.76-11.41a5.38,5.38,0,0,1,3.6-1.25c6.22.13,13.21,10.22,15.44,14.81a.9.9,0,0,1-.42,1.2A.77.77,0,0,1,382,238.41Z" transform="translate(-0.81 -18.73)"/><path class="cls-3" d="M353.66,250.57a.92.92,0,0,1-.9-.86c-.1-2-1.5-4.74-3-7.66-2.81-5.54-6-11.81-1.11-15.26,3-2.09,6.68-1.15,11.05,2.78a30.17,30.17,0,0,1,4.6,5.38,49.56,49.56,0,0,1,3.64,6.27c.12.25.23.47.33.69a.89.89,0,0,1-.44,1.19.9.9,0,0,1-1.2-.44c-.09-.2-.19-.4-.29-.6a47.51,47.51,0,0,0-3.53-6.09,28.36,28.36,0,0,0-4.32-5.05c-3.66-3.3-6.62-4.19-8.79-2.66-3.36,2.37-1.43,6.87,1.67,13,1.56,3.09,3,6,3.17,8.38a.9.9,0,0,1-.86.94Z" transform="translate(-0.81 -18.73)"/><path class="cls-3" d="M322.16,298a.91.91,0,0,1-.51-1.65c4.88-3.37,10.91-8.48,14.22-18.28a51.18,51.18,0,0,0,2.47-14.86.91.91,0,1,1,1.81.06,53.4,53.4,0,0,1-2.56,15.38,37.07,37.07,0,0,1-14.92,19.19A.93.93,0,0,1,322.16,298Z" transform="translate(-0.81 -18.73)"/><path class="cls-3" d="M339.25,264.13h0a.91.91,0,0,1-.88-.93,92.78,92.78,0,0,0-1.14-16.57c-.11-.77-.26-1.53-.39-2.27-.72-3.83-1.45-7.79,2.41-9.68,3-1.48,6.32-.06,9.76,4.23a32,32,0,0,1,5.54,10.48.89.89,0,0,1-.58,1.13.91.91,0,0,1-1.14-.58,30.18,30.18,0,0,0-5.23-9.9c-2.83-3.54-5.38-4.8-7.55-3.73-2.51,1.22-2.2,3.61-1.44,7.72.15.76.29,1.54.41,2.33a95.54,95.54,0,0,1,1.16,16.9A.9.9,0,0,1,339.25,264.13Z" transform="translate(-0.81 -18.73)"/><path class="cls-3" d="M110,204.38H56.49a8.16,8.16,0,0,1-8.13-8.18V156.07a8.16,8.16,0,0,1,8.13-8.18H110a8.16,8.16,0,0,1,8.13,8.18V196.2A8.16,8.16,0,0,1,110,204.38ZM56.49,149.7a6.36,6.36,0,0,0-6.33,6.37V196.2a6.36,6.36,0,0,0,6.33,6.38H110a6.36,6.36,0,0,0,6.33-6.38V156.07A6.36,6.36,0,0,0,110,149.7Z" transform="translate(-0.81 -18.73)"/><path class="cls-3" d="M49.36,189.4a.89.89,0,0,1-.69-.31.9.9,0,0,1,.1-1.27c.15-.14,15.48-13,30.9-5.65,19.32,9.21,27.18,3.1,37-7.28a.91.91,0,0,1,1.32,1.24c-10,10.62-18.68,17.39-39.06,7.67C64.54,177,50.09,189.07,50,189.19A.93.93,0,0,1,49.36,189.4Z" transform="translate(-0.81 -18.73)"/><path class="cls-3" d="M97.27,173.15a6.58,6.58,0,1,1,6.57-6.58A6.58,6.58,0,0,1,97.27,173.15Zm0-11.35a4.78,4.78,0,1,0,4.76,4.77A4.77,4.77,0,0,0,97.27,161.8Z" transform="translate(-0.81 -18.73)"/><path class="cls-3" d="M363.81,236.36a.84.84,0,0,1-.27,0,.89.89,0,0,1-.59-1.13l.25-.83a.94.94,0,0,1,.88-.71.87.87,0,0,1,.9.87,1.32,1.32,0,0,1,0,.34l-.27.87A.9.9,0,0,1,363.81,236.36Z" transform="translate(-0.81 -18.73)"/><path class="cls-3" d="M16.74,321.89a.9.9,0,0,1-.9-.91v-.22a10.73,10.73,0,0,1,3-8.12l54.48-56.58a10.65,10.65,0,0,1,12.56-2.14L197,310.2a8.92,8.92,0,0,0,9.52-.93l102-80a2,2,0,0,0,.33-2.72l-7.72-9.8A5.35,5.35,0,0,1,305,208.1L366.3,204a5.34,5.34,0,0,1,5.45,6.92l-3.88,12.56a.9.9,0,1,1-1.73-.53L370,210.39a3.55,3.55,0,0,0-3.61-4.59l-61.35,4.1a3.54,3.54,0,0,0-2.54,5.73l7.72,9.8a3.77,3.77,0,0,1-.63,5.26l-102,80a10.75,10.75,0,0,1-11.45,1.13L85.05,255.53a8.86,8.86,0,0,0-10.44,1.78L20.13,313.9a8.93,8.93,0,0,0-2.48,6.8V321A.91.91,0,0,1,16.74,321.89Z" transform="translate(-0.81 -18.73)"/><path class="cls-3" d="M205.48,358.11a10.68,10.68,0,0,1-4.83-1.14L93.05,302.45a8.86,8.86,0,0,0-10.44,1.77L53.43,334.53a.9.9,0,1,1-1.3-1.25L81.31,303a10.64,10.64,0,0,1,12.56-2.13l107.6,54.51a8.92,8.92,0,0,0,9.51-.93l121.29-95.11a3.72,3.72,0,0,1,5.22.62l2.17,2.74a.89.89,0,0,1,.2.56v.11a.91.91,0,0,1-1.78.25l-2-2.54a1.93,1.93,0,0,0-2.7-.32L212.1,355.84A10.77,10.77,0,0,1,205.48,358.11Z" transform="translate(-0.81 -18.73)"/><path class="cls-3" d="M70.35,316.86a.9.9,0,0,1-.9-.88.91.91,0,0,1,.88-.93c.18,0,18.46-.6,29.8-10.55a.9.9,0,0,1,1.27.08.91.91,0,0,1-.08,1.28c-11.83,10.39-30.17,11-30.94,11Z" transform="translate(-0.81 -18.73)"/><path class="cls-3" d="M160.11,395.05a.9.9,0,0,1-.9-.9V335a.91.91,0,0,1,1.81,0v59.13A.91.91,0,0,1,160.11,395.05Z" transform="translate(-0.81 -18.73)"/><path class="cls-3" d="M326.39,395.05H140.16a.91.91,0,0,1,0-1.81H326.39a.91.91,0,0,1,0,1.81Z" transform="translate(-0.81 -18.73)"/><path class="cls-3" d="M347.08,395.05H334.52a.91.91,0,0,1,0-1.81h12.56a.91.91,0,1,1,0,1.81Z" transform="translate(-0.81 -18.73)"/><path class="cls-3" d="M123.23,274.58a1,1,0,0,1-.44-.11.91.91,0,0,1-.35-1.23c3.2-5.74,9.48-16.32,21.28-34.07,26.28-39.59,59.37-44.89,59.7-44.93a.9.9,0,1,1,.27,1.78c-.33,0-32.65,5.27-58.47,44.15-11.76,17.71-18,28.23-21.2,34A.93.93,0,0,1,123.23,274.58Z" transform="translate(-0.81 -18.73)"/><path class="cls-3" d="M234.54,213.71a25.14,25.14,0,0,1-16.64-6.3.91.91,0,0,1,1.2-1.36,23.33,23.33,0,0,0,38.78-17.55,24,24,0,0,0-.59-5.28,23.13,23.13,0,0,0-3.18-7.47.9.9,0,0,1,.27-1.25.89.89,0,0,1,1.25.26,25.19,25.19,0,0,1,3.42,8.05,25.92,25.92,0,0,1,.64,5.69A25.21,25.21,0,0,1,234.54,213.71Z" transform="translate(-0.81 -18.73)"/><path class="cls-3" d="M318.67,209a.92.92,0,0,1-.69-.32c-18.71-22-59.35-24.79-59.75-24.81a.91.91,0,0,1,.11-1.81c.41,0,41.8,2.82,61,25.45a.9.9,0,0,1-.1,1.27A.88.88,0,0,1,318.67,209Z" transform="translate(-0.81 -18.73)"/><path class="cls-3" d="M314.32,395.37h0a.91.91,0,0,1-.88-.93c.31-10.28-.21-27.4-1.56-50.89-1.44-25.09-3.43-50.66-4.22-60.48l-.29-3.47a.9.9,0,0,1,1.8-.15l.29,3.47c.79,9.83,2.78,35.41,4.22,60.53,1.35,23.53,1.88,40.71,1.57,51A.91.91,0,0,1,314.32,395.37Z" transform="translate(-0.81 -18.73)"/><path class="cls-3" d="M308.53,283.9a.91.91,0,0,1-.07-1.81c.16,0,16.75-1.36,28-4.6a.91.91,0,1,1,.5,1.74c-11.45,3.29-28.21,4.65-28.38,4.66Z" transform="translate(-0.81 -18.73)"/><path class="cls-3" d="M160.11,293.26a.91.91,0,0,1-.91-.9c0-21.3-7.66-42.18-7.73-42.38a.91.91,0,0,1,.53-1.17.9.9,0,0,1,1.16.54c.08.21,7.8,21.37,7.85,43a.9.9,0,0,1-.9.9Z" transform="translate(-0.81 -18.73)"/><path class="cls-3" d="M156.92,269l-.19,0c-8-1.75-12-12-12.17-12.43a.91.91,0,0,1,.53-1.17.9.9,0,0,1,1.16.53c0,.09,3.79,9.76,10.86,11.3a.91.91,0,0,1-.19,1.79Z" transform="translate(-0.81 -18.73)"/><path class="cls-3" d="M215.15,143.25a32,32,0,0,1-12.56-2.17c-5.46-2.32-6.8-5.72-6.85-5.86a.91.91,0,0,1,1.69-.65s1.19,2.86,5.87,4.85c4.51,1.92,10.65,2.48,18.24,1.66a.9.9,0,0,1,1,.8.89.89,0,0,1-.8,1A59.5,59.5,0,0,1,215.15,143.25Z" transform="translate(-0.81 -18.73)"/><path class="cls-3" d="M253.35,176.41a.9.9,0,0,1-.1-1.8c.5-.06,1-.14,1.42-.24l.35-.08a10.48,10.48,0,0,0,6.77-4.82,13.06,13.06,0,0,0,1.15-9.84,8,8,0,0,0-.83-2,6.65,6.65,0,0,0-6.76-3.18,7,7,0,0,0-5.88,5.18c-1.31,5-3.5,7.85-6.33,8.16a4.69,4.69,0,0,1-3.57-1.11c-3.67-3-4.91-11.36-5.2-13.77-8.21-2.13-11.9-6.9-13.55-10.57a14.8,14.8,0,0,1-1.31-4.73.91.91,0,0,1,1.81-.11h0a13.06,13.06,0,0,0,1.15,4.1c1.52,3.39,5,7.83,12.94,9.71a.92.92,0,0,1,.69.8c0,.1,1,10.21,4.61,13.17A2.9,2.9,0,0,0,243,166c2.68-.29,4.14-4.4,4.78-6.82a8.74,8.74,0,0,1,7.37-6.51,8.43,8.43,0,0,1,8.56,4.05,9.4,9.4,0,0,1,1,2.44,14.89,14.89,0,0,1-1.33,11.23,12.26,12.26,0,0,1-7.89,5.66l-.42.09a13.71,13.71,0,0,1-1.58.26Z" transform="translate(-0.81 -18.73)"/><path class="cls-3" d="M263.81,160.3h-.14a.91.91,0,0,1-.75-1l0-.11c.06-.41.13-.82.18-1.23,2.36-17-4.78-23.8-11.2-26.46a.89.89,0,0,1-.48-1.18.91.91,0,0,1,1.18-.49c7,2.91,14.81,10.19,12.29,28.38-.05.41-.12.84-.19,1.26l0,.11A.9.9,0,0,1,263.81,160.3Z" transform="translate(-0.81 -18.73)"/><path class="cls-3" d="M252.27,131.51a.87.87,0,0,1-.35-.07,24.38,24.38,0,0,0-9.5-1.78.9.9,0,1,1-.11-1.8,25.65,25.65,0,0,1,10.31,1.91.92.92,0,0,1,.49,1.19A.93.93,0,0,1,252.27,131.51Z" transform="translate(-0.81 -18.73)"/><path class="cls-3" d="M193.6,166.22l-.2,0c-.24-.06-24.09-5.73-23.47-27.6.19-6.44,2.45-11.71,6.72-15.69,5.6-5.22,14.67-8,24.86-7.53,5.85.25,11.42,1.57,15.28,3.62a.9.9,0,0,1-.85,1.59c-3.62-1.93-8.91-3.17-14.51-3.41-9.72-.41-18.3,2.16-23.55,7-3.9,3.64-6,8.49-6.14,14.42-.58,20.4,21.83,25.73,22.06,25.78a.91.91,0,0,1-.2,1.79Z" transform="translate(-0.81 -18.73)"/><path class="cls-3" d="M252.49,131.51a.9.9,0,0,1-.88-.71c0-.12-2.9-12.69-14.88-18.88a31.68,31.68,0,0,0-11.27-3.26c-11.33-1.19-17,1.07-19.72,3.18a7.76,7.76,0,0,0-3.15,4.51.91.91,0,0,1-1.8-.23,9.41,9.41,0,0,1,3.85-5.72c4.37-3.35,11.44-4.54,21-3.54a33.3,33.3,0,0,1,11.91,3.46c11.27,5.83,14.89,16.68,15.65,19.45a.93.93,0,0,1,.18.55v.29a.91.91,0,0,1-.8.9Z" transform="translate(-0.81 -18.73)"/><path class="cls-4" d="M157,274.88a4.35,4.35,0,0,1-1.73-.38,4.42,4.42,0,0,1-2.32-2.29,2.13,2.13,0,0,0-2.82-1.23,4.45,4.45,0,0,1-3.26-.12,4.5,4.5,0,0,1-2.33-2.3,2.07,2.07,0,0,0-1.15-1.21,1.21,1.21,0,0,1-.62-1.59,1.19,1.19,0,0,1,1.58-.62,4.42,4.42,0,0,1,2.32,2.29,2.13,2.13,0,0,0,2.82,1.23,4.45,4.45,0,0,1,3.26.12,4.5,4.5,0,0,1,2.33,2.3,2.13,2.13,0,0,0,1.15,1.21,2.11,2.11,0,0,0,1.67,0,4.41,4.41,0,0,1,3.26.13,1.2,1.2,0,0,1-1,2.21,2.11,2.11,0,0,0-1.67,0A5.74,5.74,0,0,1,157,274.88Z" transform="translate(-0.81 -18.73)"/><path class="cls-4" d="M304.79,383.52a4.35,4.35,0,0,1-1.73-.38,4.44,4.44,0,0,1-2.32-2.3,2.15,2.15,0,0,0-1.16-1.21,2.08,2.08,0,0,0-1.66,0,4.41,4.41,0,0,1-3.26-.13,4.49,4.49,0,0,1-2.33-2.29,2.07,2.07,0,0,0-1.15-1.21,1.21,1.21,0,0,1-.62-1.59,1.19,1.19,0,0,1,1.58-.62,4.42,4.42,0,0,1,2.32,2.29,2.1,2.1,0,0,0,1.15,1.21,2.07,2.07,0,0,0,1.67,0,4.52,4.52,0,0,1,5.59,2.43,2.13,2.13,0,0,0,2.82,1.22,4.41,4.41,0,0,1,3.26.13,1.19,1.19,0,0,1,.62,1.58,1.2,1.2,0,0,1-1.58.63,2.11,2.11,0,0,0-1.67,0A5.34,5.34,0,0,1,304.79,383.52Z" transform="translate(-0.81 -18.73)"/><path class="cls-4" d="M283,208.05a4.39,4.39,0,0,1-1.74-.38,4.47,4.47,0,0,1-2.32-2.3,2.13,2.13,0,0,0-2.82-1.22,4.51,4.51,0,0,1-5.58-2.42,2.15,2.15,0,0,0-1.15-1.22,1.2,1.2,0,0,1-.63-1.58,1.22,1.22,0,0,1,1.59-.63,4.44,4.44,0,0,1,2.32,2.3,2.13,2.13,0,0,0,2.82,1.22,4.51,4.51,0,0,1,5.58,2.42,2.13,2.13,0,0,0,2.82,1.23,4.41,4.41,0,0,1,3.26.13,1.2,1.2,0,0,1-.95,2.21,2.11,2.11,0,0,0-1.67,0A5.4,5.4,0,0,1,283,208.05Z" transform="translate(-0.81 -18.73)"/><path class="cls-4" d="M194.48,298.3a1.21,1.21,0,0,1-.58-2.27,4.49,4.49,0,0,1,3.24-.41,2.11,2.11,0,0,0,1.66-.15,2.14,2.14,0,0,0,1-1.31,4.52,4.52,0,0,1,5.35-2.9,2.13,2.13,0,0,0,1.67-.15,2.18,2.18,0,0,0,1-1.31,4.47,4.47,0,0,1,2.11-2.49,1.21,1.21,0,1,1,1.15,2.12,2.12,2.12,0,0,0-1,1.31,4.44,4.44,0,0,1-2.12,2.48,4.39,4.39,0,0,1-3.24.41,2.15,2.15,0,0,0-1.66.16,2.12,2.12,0,0,0-1,1.31,4.5,4.5,0,0,1-2.11,2.49,4.43,4.43,0,0,1-3.24.4,2.15,2.15,0,0,0-1.66.16A1.18,1.18,0,0,1,194.48,298.3Z" transform="translate(-0.81 -18.73)"/><path class="cls-4" d="M199.59,262.56a4.35,4.35,0,0,1-1.73-.38,4.4,4.4,0,0,1-2.32-2.3,2.13,2.13,0,0,0-2.82-1.22,4.51,4.51,0,0,1-5.58-2.42A2.09,2.09,0,0,0,186,255a1.21,1.21,0,0,1-.62-1.59,1.19,1.19,0,0,1,1.58-.62,4.49,4.49,0,0,1,2.33,2.29,2,2,0,0,0,1.15,1.21,2.08,2.08,0,0,0,1.66,0,4.45,4.45,0,0,1,3.26.12,4.5,4.5,0,0,1,2.33,2.3,2.13,2.13,0,0,0,1.15,1.21,2.11,2.11,0,0,0,1.67,0,4.41,4.41,0,0,1,3.26.13,1.2,1.2,0,0,1,.63,1.58,1.22,1.22,0,0,1-1.59.63,2.07,2.07,0,0,0-1.67,0A5.74,5.74,0,0,1,199.59,262.56Z" transform="translate(-0.81 -18.73)"/><path class="cls-4" d="M302.12,313.24a4.39,4.39,0,0,1-1.74-.38,4.47,4.47,0,0,1-2.32-2.3,2.13,2.13,0,0,0-2.82-1.22,4.51,4.51,0,0,1-5.58-2.42,2.15,2.15,0,0,0-1.15-1.22,1.2,1.2,0,0,1-.63-1.58,1.22,1.22,0,0,1,1.59-.63,4.47,4.47,0,0,1,2.32,2.3,2.13,2.13,0,0,0,2.82,1.22,4.51,4.51,0,0,1,5.58,2.42,2.13,2.13,0,0,0,2.82,1.23,4.41,4.41,0,0,1,3.26.13,1.2,1.2,0,0,1,.63,1.58,1.22,1.22,0,0,1-1.59.63,2.08,2.08,0,0,0-1.66,0A5.4,5.4,0,0,1,302.12,313.24Z" transform="translate(-0.81 -18.73)"/><path class="cls-4" d="M247.43,356.75a4.35,4.35,0,0,1-1.73-.38,4.42,4.42,0,0,1-2.32-2.29,2.13,2.13,0,0,0-2.82-1.23,4.45,4.45,0,0,1-3.26-.12,4.5,4.5,0,0,1-2.33-2.3,2.1,2.1,0,0,0-1.15-1.21,1.21,1.21,0,0,1-.62-1.59,1.19,1.19,0,0,1,1.58-.62,4.42,4.42,0,0,1,2.32,2.29,2.13,2.13,0,0,0,2.82,1.23,4.45,4.45,0,0,1,3.26.12,4.5,4.5,0,0,1,2.33,2.3,2.07,2.07,0,0,0,1.15,1.21,2.11,2.11,0,0,0,1.67,0,4.46,4.46,0,0,1,3.26.13,1.2,1.2,0,0,1-1,2.21,2.11,2.11,0,0,0-1.67,0A5.74,5.74,0,0,1,247.43,356.75Z" transform="translate(-0.81 -18.73)"/><path class="cls-4" d="M186.73,386.77a4.31,4.31,0,0,1-1.73-.38,4.49,4.49,0,0,1-2.33-2.29,2.12,2.12,0,0,0-2.81-1.23,4.5,4.5,0,0,1-5.59-2.42,2.1,2.1,0,0,0-1.15-1.21,1.22,1.22,0,0,1-.63-1.59,1.21,1.21,0,0,1,1.59-.62,4.42,4.42,0,0,1,2.32,2.29,2.15,2.15,0,0,0,2.82,1.23A4.49,4.49,0,0,1,184.8,383a2.15,2.15,0,0,0,1.16,1.21,2.08,2.08,0,0,0,1.66,0,4.49,4.49,0,0,1,3.27.13,1.19,1.19,0,0,1,.62,1.58,1.2,1.2,0,0,1-1.58.63,2.11,2.11,0,0,0-1.67,0A5.81,5.81,0,0,1,186.73,386.77Z" transform="translate(-0.81 -18.73)"/><path class="cls-4" d="M247.1,230a4.52,4.52,0,0,1-2.71-.94,2.12,2.12,0,0,0-1.58-.52,1.2,1.2,0,1,1-.21-2.4,4.5,4.5,0,0,1,3.14.92,2,2,0,0,0,1.58.52,2.11,2.11,0,0,0,1.47-.77,4.5,4.5,0,0,1,6.07-.51,2.13,2.13,0,0,0,3.06-.26,4.44,4.44,0,0,1,2.94-1.43,1.2,1.2,0,1,1,.2,2.4,2.11,2.11,0,0,0-1.48.78,4.44,4.44,0,0,1-2.94,1.43,4.49,4.49,0,0,1-3.13-.92,2.08,2.08,0,0,0-1.58-.53,2.17,2.17,0,0,0-1.48.78,4.48,4.48,0,0,1-2.93,1.44Z" transform="translate(-0.81 -18.73)"/><path class="cls-4" d="M284.25,349.31a4.51,4.51,0,0,1-2.7-.94,2.1,2.1,0,0,0-1.59-.53,1.2,1.2,0,0,1-1.3-1.1,1.21,1.21,0,0,1,1.1-1.3,4.42,4.42,0,0,1,3.13.93,2.13,2.13,0,0,0,1.59.52,2.11,2.11,0,0,0,1.47-.78,4.51,4.51,0,0,1,6.06-.51,2.07,2.07,0,0,0,1.59.52,2.15,2.15,0,0,0,1.48-.77,4.44,4.44,0,0,1,2.93-1.44,1.2,1.2,0,0,1,1.3,1.1,1.19,1.19,0,0,1-1.1,1.3,2.12,2.12,0,0,0-1.47.78,4.51,4.51,0,0,1-2.94,1.44,4.42,4.42,0,0,1-3.13-.93,2.13,2.13,0,0,0-1.59-.52,2.11,2.11,0,0,0-1.47.78,4.44,4.44,0,0,1-2.93,1.43Z" transform="translate(-0.81 -18.73)"/><path class="cls-4" d="M213.77,379.07a4.46,4.46,0,0,1-2.71-.94,2.11,2.11,0,0,0-1.58-.52,1.2,1.2,0,1,1-.2-2.4,4.49,4.49,0,0,1,3.13.92,2.08,2.08,0,0,0,1.58.53,2.12,2.12,0,0,0,1.47-.78,4.51,4.51,0,0,1,2.94-1.44,4.42,4.42,0,0,1,3.13.93,2.13,2.13,0,0,0,3.06-.26,4.44,4.44,0,0,1,2.94-1.43,1.2,1.2,0,0,1,.2,2.4,2.11,2.11,0,0,0-1.48.78,4.44,4.44,0,0,1-2.93,1.43,4.5,4.5,0,0,1-3.14-.92,2,2,0,0,0-1.58-.52,2.15,2.15,0,0,0-1.48.77,4.41,4.41,0,0,1-2.93,1.44Z" transform="translate(-0.81 -18.73)"/><path class="cls-4" d="M161.68,240.26a1.2,1.2,0,0,1-.91-2,4.42,4.42,0,0,1,2.87-1.55,2.13,2.13,0,0,0,2-2.34,4.52,4.52,0,0,1,4-4.63,2.14,2.14,0,0,0,2-2.34,4.46,4.46,0,0,1,1.08-3.08,1.21,1.21,0,0,1,1.84,1.56,2.09,2.09,0,0,0-.51,1.6,4.52,4.52,0,0,1-4,4.63,2.09,2.09,0,0,0-1.49.74,2.13,2.13,0,0,0-.51,1.6,4.52,4.52,0,0,1-4,4.63,2.09,2.09,0,0,0-1.49.74A1.21,1.21,0,0,1,161.68,240.26Z" transform="translate(-0.81 -18.73)"/><path class="cls-4" d="M269.9,250.6a1.19,1.19,0,0,1-.79-.29,1.2,1.2,0,0,1-.13-1.69,4.42,4.42,0,0,1,2.88-1.55,2.09,2.09,0,0,0,1.49-.74,2.17,2.17,0,0,0,.51-1.6,4.41,4.41,0,0,1,1.08-3.08,4.47,4.47,0,0,1,2.87-1.55,2.11,2.11,0,0,0,1.5-.74,2.17,2.17,0,0,0,.51-1.6,4.41,4.41,0,0,1,1.08-3.08,1.2,1.2,0,0,1,1.83,1.56,2.17,2.17,0,0,0-.51,1.6,4.52,4.52,0,0,1-4,4.63,2.11,2.11,0,0,0-1.49.74,2.17,2.17,0,0,0-.51,1.6,4.41,4.41,0,0,1-1.08,3.08,4.47,4.47,0,0,1-2.87,1.55,2.11,2.11,0,0,0-1.5.74A1.19,1.19,0,0,1,269.9,250.6Z" transform="translate(-0.81 -18.73)"/><path class="cls-4" d="M226.73,267.59a1.24,1.24,0,0,1-.79-.29,1.21,1.21,0,0,1-.13-1.7,4.47,4.47,0,0,1,2.88-1.55,2.09,2.09,0,0,0,1.49-.74,2.16,2.16,0,0,0,.51-1.6,4.5,4.5,0,0,1,3.95-4.62,2.12,2.12,0,0,0,1.5-.75,2.16,2.16,0,0,0,.51-1.6,4.42,4.42,0,0,1,1.08-3.08,1.21,1.21,0,0,1,1.83,1.57,2.16,2.16,0,0,0-.51,1.6,4.5,4.5,0,0,1-4,4.62,2.16,2.16,0,0,0-2,2.34,4.5,4.5,0,0,1-4,4.63,2.12,2.12,0,0,0-1.5.75A1.2,1.2,0,0,1,226.73,267.59Z" transform="translate(-0.81 -18.73)"/><path class="cls-4" d="M261,336.55a1.19,1.19,0,0,1-.79-.29,1.21,1.21,0,0,1-.13-1.7,4.44,4.44,0,0,1,2.88-1.54,2.12,2.12,0,0,0,1.49-.75,2.15,2.15,0,0,0,.51-1.59,4.52,4.52,0,0,1,3.95-4.63,2.13,2.13,0,0,0,2-2.34,4.47,4.47,0,0,1,1.09-3.08,1.2,1.2,0,1,1,1.83,1.56,2.13,2.13,0,0,0-.51,1.6,4.41,4.41,0,0,1-1.08,3.08,4.47,4.47,0,0,1-2.88,1.55,2.09,2.09,0,0,0-1.49.74,2.13,2.13,0,0,0-.51,1.6,4.41,4.41,0,0,1-1.08,3.08,4.47,4.47,0,0,1-2.87,1.55,2.11,2.11,0,0,0-1.5.74A1.19,1.19,0,0,1,261,336.55Z" transform="translate(-0.81 -18.73)"/><path class="cls-4" d="M166,363.72a1.21,1.21,0,0,1-.92-2,4.47,4.47,0,0,1,2.88-1.54,2.16,2.16,0,0,0,2-2.34,4.52,4.52,0,0,1,4-4.63,2.12,2.12,0,0,0,1.49-.75,2.15,2.15,0,0,0,.51-1.59,4.44,4.44,0,0,1,1.08-3.09,1.21,1.21,0,0,1,1.83,1.57,2.17,2.17,0,0,0-.51,1.6,4.41,4.41,0,0,1-1.08,3.08,4.47,4.47,0,0,1-2.87,1.55,2.13,2.13,0,0,0-2,2.34,4.52,4.52,0,0,1-4,4.62,2.16,2.16,0,0,0-1.5.75A1.17,1.17,0,0,1,166,363.72Z" transform="translate(-0.81 -18.73)"/><path class="cls-4" d="M252.83,386.77a1.15,1.15,0,0,1-.78-.29,1.2,1.2,0,0,1-.14-1.7,4.47,4.47,0,0,1,2.88-1.54,2.16,2.16,0,0,0,2-2.34,4.52,4.52,0,0,1,4-4.63,2.12,2.12,0,0,0,1.49-.75,2.15,2.15,0,0,0,.51-1.59,4.41,4.41,0,0,1,1.08-3.08,1.2,1.2,0,1,1,1.83,1.56,2.12,2.12,0,0,0-.5,1.6,4.54,4.54,0,0,1-4,4.63,2.13,2.13,0,0,0-2,2.34,4.47,4.47,0,0,1-1.09,3.08,4.4,4.4,0,0,1-2.87,1.54,2.12,2.12,0,0,0-1.49.75A1.21,1.21,0,0,1,252.83,386.77Z" transform="translate(-0.81 -18.73)"/><path class="cls-4" d="M217,232.9a1.19,1.19,0,0,1-1-.52,2.11,2.11,0,0,0-1.41-.89,4.53,4.53,0,0,1-3.46-5,2.12,2.12,0,0,0-.34-1.64,2.14,2.14,0,0,0-1.41-.89,4.43,4.43,0,0,1-2.7-1.84,4.48,4.48,0,0,1-.76-3.17,2.07,2.07,0,0,0-.34-1.64,1.21,1.21,0,0,1,2-1.37,4.5,4.5,0,0,1,.76,3.18,2.11,2.11,0,0,0,.33,1.64,2.17,2.17,0,0,0,1.41.89,4.51,4.51,0,0,1,3.46,5,2.15,2.15,0,0,0,.34,1.64,2.12,2.12,0,0,0,1.41.9,4.43,4.43,0,0,1,2.7,1.83,1.21,1.21,0,0,1-.3,1.68A1.24,1.24,0,0,1,217,232.9Z" transform="translate(-0.81 -18.73)"/></svg>