<svg id="Layer_1" data-name="Layer 1" xmlns="http://www.w3.org/2000/svg" viewBox="0 0 464.38 356.15"><defs><style>.cls-1{fill:#fff;}.cls-2{fill:#1a1a1a;}.cls-3{fill:#fcb01a;}.cls-4{fill:#e0e0e0;}</style></defs><path class="cls-1" d="M375.5,213.51h66.83a16.61,16.61,0,0,0,16.54-16.58V73.67a16.61,16.61,0,0,0-16.54-16.58H425.67l-23.61.74H280.6a16.59,16.59,0,0,0-16.52,16.55v34.36Z" transform="translate(-3.46 -39.22)"/><path class="cls-1" d="M286.54,119.66a84.19,84.19,0,0,0-14.86,1.44l10.85-12.36h-262A16.24,16.24,0,0,0,4.37,125V302.8A16.25,16.25,0,0,0,20.55,319H98.07l40.56-46.23c8.09,22.18,35.52,36.62,53.07,36.62,28.3,0,187.68-65.85,187.68-109.94C379.38,190.13,308.7,119.66,286.54,119.66Z" transform="translate(-3.46 -39.22)"/><path class="cls-2" d="M28.94,231.85H82.06a0,0,0,0,1,0,0v7.38a0,0,0,0,1,0,0H28.94a3.69,3.69,0,0,1-3.69-3.69v0a3.69,3.69,0,0,1,3.69-3.69Z"/><ellipse class="cls-3" cx="169.5" cy="18.61" rx="17.34" ry="17.71"/><circle class="cls-3" cx="84.28" cy="324.08" r="6.64"/><path class="cls-3" d="M439.49,241.09,445,247a3.2,3.2,0,0,1-.07,4.43l-5.73,5.74a2.83,2.83,0,0,0,0,4h0a2.82,2.82,0,0,0,4,0l5.41-5.31a3.81,3.81,0,0,1,5.35,0l5.26,5.2a2.79,2.79,0,0,0,4.05-.14h0a2.8,2.8,0,0,0-.16-3.87l-5.85-5.6a3.19,3.19,0,0,1-.06-4.54l5.74-5.79a2.7,2.7,0,0,0-.23-4h0a2.69,2.69,0,0,0-3.57.16l-6.32,6.17a2.28,2.28,0,0,1-3.12.06l-6.68-6a2.5,2.5,0,0,0-3.39,0h0A2.53,2.53,0,0,0,439.49,241.09Z" transform="translate(-3.46 -39.22)"/><circle class="cls-2" cx="29.31" cy="24.88" r="1.84"/><circle class="cls-2" cx="47.02" cy="24.88" r="1.84"/><circle class="cls-2" cx="38.16" cy="24.88" r="1.84"/><circle class="cls-2" cx="29.31" cy="39.64" r="1.84"/><circle class="cls-2" cx="47.02" cy="39.64" r="1.84"/><circle class="cls-2" cx="38.16" cy="39.64" r="1.84"/><circle class="cls-2" cx="29.31" cy="32.26" r="1.84"/><circle class="cls-2" cx="47.02" cy="32.26" r="1.84"/><circle class="cls-2" cx="38.16" cy="32.26" r="1.84"/><path class="cls-3" d="M154.9,245.61s10.64,37,39.85,37.05c37.91.09,49.19-72.92,100.43-72.88,0,0,6.12-16.57,37.15-14.11,0,0,21.29-2.77,23.5,13.67,0,0,30.23.12,48,27s31.71,60.69,34.32,88.38-4.95,50.56-36.12,61.11v8.48H228.58l2.18-32.41s-60,23.94-115.11-23.72c0,0-30.63-24.47-39.25-67.17,0,0,2.32,6.57,17.54,1.89S140.3,254.58,154.9,245.61Z" transform="translate(-3.46 -39.22)"/><path class="cls-2" d="M235.15,358.44c-34.41,16.31-66.26,8.13-78,3.37,7.43-10,22.76-16.9,40.46-16.9C213.24,344.91,227,350.28,235.15,358.44Z" transform="translate(-3.46 -39.22)"/><path class="cls-2" d="M105,284.48c1.08,3.18.36,6.35-1.61,7.09s-4.43-1.24-5.51-4.42-.35-6.34,1.61-7.08S103.87,281.31,105,284.48Z" transform="translate(-3.46 -39.22)"/><path class="cls-2" d="M116.76,305.88c1.07,3.17.35,6.35-1.61,7.08s-4.44-1.23-5.51-4.41-.36-6.34,1.61-7.08S115.68,302.7,116.76,305.88Z" transform="translate(-3.46 -39.22)"/><circle class="cls-3" cx="59.93" cy="298.99" r="11.07"/><path class="cls-3" d="M123.27,176.35,147,162.46a3.7,3.7,0,0,1,5.08,1.37h0a3.71,3.71,0,0,1-1.24,5l-25,15.8S122.76,180.46,123.27,176.35Z" transform="translate(-3.46 -39.22)"/><path class="cls-3" d="M75.21,205.74l-9.78,5.89A4.23,4.23,0,0,0,64,217.37h0a4.21,4.21,0,0,0,5.83,1.5l5.9-3.57Z" transform="translate(-3.46 -39.22)"/><path class="cls-3" d="M394.68,42.49v33h33s.75,31-31.86,33a13.59,13.59,0,0,1-2.21,0c-32-2.87-37.21-36.34-26.64-50.83C377.64,43,394.68,42.49,394.68,42.49Z" transform="translate(-3.46 -39.22)"/><path class="cls-2" d="M402.06,42V68.16h26.06S428.84,44.58,402.06,42Z" transform="translate(-3.46 -39.22)"/><rect class="cls-3" x="270.95" y="27.46" width="14.02" height="14.02" rx="3.88"/><path class="cls-3" d="M292.12,108v15.61L284.19,139H4.37V124.63A16.53,16.53,0,0,1,20.78,108Z" transform="translate(-3.46 -39.22)"/><circle class="cls-1" cx="21.93" cy="85.38" r="4.06"/><circle class="cls-1" cx="38.16" cy="85.38" r="4.06"/><circle class="cls-1" cx="54.4" cy="85.38" r="4.06"/><circle class="cls-1" cx="251.03" cy="84.28" r="3.69"/><rect class="cls-3" x="360.23" y="119.69" width="18.45" height="28.78"/><rect class="cls-4" x="411.14" y="80.59" width="18.45" height="68.62"/><rect class="cls-4" x="386.05" y="99.77" width="18.45" height="48.7"/><path class="cls-2" d="M287.23,320.64l-34.62,73.64H228.77l1.6-33.2S256.69,355.2,287.23,320.64Z" transform="translate(-3.46 -39.22)"/><path class="cls-2" d="M351.12,176.94a49.62,49.62,0,0,0-1.44,10.87,26.29,26.29,0,0,1-.67,5.64,8.17,8.17,0,0,1-2.58,4.21,7.6,7.6,0,0,1-6.54,1.78,13.72,13.72,0,0,1-5.93-3.06c-5.72-4.76-9.28-13.07-9.4-13.35,8.18,1.53,12.89-4.82,13.46-10.79a8,8,0,0,0-11-8.14.11.11,0,0,0-.07,0,6.9,6.9,0,0,0-2.93,3.15c-6.12,10.77-15.52,4.78-13.16-2.76.85-2.72,1.56-5.45,2.13-7.82a18.75,18.75,0,0,0-9.16-20.79c-3.59-2-7.89-3.92-12.62-6.25a20.07,20.07,0,0,1-2.18-1.27,16.67,16.67,0,0,1-6.5-19.92,15.67,15.67,0,0,1,9.35-9C312,92,319.56,116.27,319.56,116.27c46.75,6.74,39.67,39.34,33.45,54.81A43.48,43.48,0,0,0,351.12,176.94Z" transform="translate(-3.46 -39.22)"/><path class="cls-2" d="M459.05,278.19a7.91,7.91,0,1,1-7.89,7.91A7.9,7.9,0,0,1,459.05,278.19Z" transform="translate(-3.46 -39.22)"/><path class="cls-2" d="M92.12,273.06l.09.39c-7.23,1.65-12.49,1.7-14.68-.39a3.89,3.89,0,0,1-1.16-1.91c-1.17-5.08,10.8-11,10.8-11C90,267.94,92.12,273.06,92.12,273.06Z" transform="translate(-3.46 -39.22)"/><path class="cls-2" d="M293.08,145c1.05.35,1.43,2,.86,3.77s-1.9,2.86-2.95,2.51-1.43-2-.84-3.78S292,144.66,293.08,145Z" transform="translate(-3.46 -39.22)"/><path class="cls-2" d="M254.1,169.38a4.24,4.24,0,0,1,2.87,7.35l-2.87-3.12-2.88,3.11a4.24,4.24,0,0,1,2.88-7.34Z" transform="translate(-3.46 -39.22)"/><path class="cls-2" d="M254.1,173.61l2.87,3.12a4.21,4.21,0,0,1-5.75,0Z" transform="translate(-3.46 -39.22)"/><path class="cls-2" d="M227.12,202.64a4.23,4.23,0,1,1-7.11,3.1,4.24,4.24,0,0,1,1.23-3l3,3Z" transform="translate(-3.46 -39.22)"/><path class="cls-2" d="M227.12,202.64l-2.88,3.1-3-3a4.22,4.22,0,0,1,3-1.24A4.14,4.14,0,0,1,227.12,202.64Z" transform="translate(-3.46 -39.22)"/><path class="cls-2" d="M183.93,161.32a4.25,4.25,0,0,1,3,7.23l-3-3-3.79,1.87a4.19,4.19,0,0,1-.44-1.87A4.24,4.24,0,0,1,183.93,161.32Z" transform="translate(-3.46 -39.22)"/><path class="cls-2" d="M186.94,168.55a4.26,4.26,0,0,1-3,1.25,4.21,4.21,0,0,1-3.79-2.37l3.79-1.87Z" transform="translate(-3.46 -39.22)"/><path class="cls-2" d="M32.83,240.24a4.19,4.19,0,0,1,.44,1.87,4.24,4.24,0,1,1-.44-1.87Z" transform="translate(-3.46 -39.22)"/><path class="cls-2" d="M73.81,109.8h0a.9.9,0,0,1-.86-.94c.07-1.62.21-3.26.4-4.86a.9.9,0,1,1,1.79.21c-.19,1.57-.32,3.16-.39,4.73A.9.9,0,0,1,73.81,109.8Zm2.94-16.53a.84.84,0,0,1-.27,0,.9.9,0,0,1-.58-1.14c.49-1.54,1-3.08,1.65-4.58a.91.91,0,0,1,1.18-.5.89.89,0,0,1,.49,1.17c-.59,1.46-1.13,3-1.61,4.46A.89.89,0,0,1,76.75,93.27Zm7.18-15.18a.87.87,0,0,1-.49-.14.9.9,0,0,1-.27-1.25c.88-1.36,1.83-2.7,2.81-4a.9.9,0,1,1,1.43,1.1c-1,1.25-1.87,2.55-2.72,3.87A.89.89,0,0,1,83.93,78.09ZM94.84,65.34a.89.89,0,0,1-.67-.3.91.91,0,0,1,.07-1.28c1.21-1.08,2.47-2.13,3.75-3.12a.9.9,0,0,1,1.1,1.43c-1.24,1-2.47,2-3.65,3A.9.9,0,0,1,94.84,65.34Zm13.87-9.48a.9.9,0,0,1-.41-1.71c1.45-.72,2.94-1.41,4.44-2a.9.9,0,1,1,.69,1.67c-1.46.6-2.91,1.26-4.32,2A1,1,0,0,1,108.71,55.86Zm15.87-5.47a.9.9,0,0,1-.18-1.79c1.59-.32,3.21-.58,4.82-.78a.91.91,0,0,1,1,.79.9.9,0,0,1-.79,1c-1.56.2-3.14.45-4.68.76Zm21.54-.6H146c-1.56-.23-3.14-.39-4.71-.5a.89.89,0,0,1-.84-1,.91.91,0,0,1,1-.84c1.61.11,3.24.28,4.85.51a.91.91,0,0,1-.13,1.8Z" transform="translate(-3.46 -39.22)"/><path class="cls-2" d="M200.12,105.88a.91.91,0,0,1-.9-.81c-.17-1.57-.4-3.14-.68-4.69a.91.91,0,0,1,1.78-.33c.29,1.59.52,3.22.69,4.83a.89.89,0,0,1-.8,1Zm-4-16.32a.9.9,0,0,1-.84-.57c-.58-1.47-1.21-2.94-1.89-4.36a.9.9,0,0,1,.42-1.2.92.92,0,0,1,1.21.42c.7,1.47,1.35,3,1.94,4.48a.9.9,0,0,1-.52,1.17A.87.87,0,0,1,196.16,89.56ZM188,74.86a.91.91,0,0,1-.72-.36c-.94-1.27-1.94-2.51-3-3.71a.9.9,0,0,1,1.37-1.18c1.06,1.23,2.08,2.51,3.05,3.81a.91.91,0,0,1-.73,1.44Z" transform="translate(-3.46 -39.22)"/><path class="cls-2" d="M173,76.44h-.22a17.91,17.91,0,0,1-12.84-5.61,18.89,18.89,0,0,1,.3-26.3h0a18,18,0,0,1,25.81.31,18.91,18.91,0,0,1-.3,26.3A17.94,17.94,0,0,1,173,76.44ZM161.48,45.8a17.1,17.1,0,0,0-.27,23.78,16.18,16.18,0,0,0,23.23.27,17.08,17.08,0,0,0,.27-23.78,16.18,16.18,0,0,0-23.23-.27Z" transform="translate(-3.46 -39.22)"/><path class="cls-2" d="M217.19,69.58a.93.93,0,0,1-.64-.26.91.91,0,0,1,0-1.28l3.28-3.28A.9.9,0,1,1,221.1,66l-3.27,3.28A.9.9,0,0,1,217.19,69.58Z" transform="translate(-3.46 -39.22)"/><path class="cls-2" d="M208.71,78.08a.91.91,0,0,1-.64-1.54l3.28-3.29a.91.91,0,1,1,1.28,1.28l-3.28,3.28A.9.9,0,0,1,208.71,78.08Z" transform="translate(-3.46 -39.22)"/><path class="cls-2" d="M220.53,78.14a.87.87,0,0,1-.64-.27l-3.28-3.28a.91.91,0,0,1,1.28-1.28l3.27,3.29a.88.88,0,0,1,0,1.27A.86.86,0,0,1,220.53,78.14Z" transform="translate(-3.46 -39.22)"/><path class="cls-2" d="M212.05,69.64a.9.9,0,0,1-.64-.27l-3.28-3.28a.91.91,0,0,1,0-1.28.9.9,0,0,1,1.28,0l3.28,3.28a.91.91,0,0,1-.64,1.54Z" transform="translate(-3.46 -39.22)"/><path class="cls-2" d="M83.31,371.57a7.92,7.92,0,1,1,7.55-7.91A7.75,7.75,0,0,1,83.31,371.57Zm0-14a6.12,6.12,0,1,0,5.74,6.11A5.94,5.94,0,0,0,83.31,357.55Z" transform="translate(-3.46 -39.22)"/><path class="cls-2" d="M428.12,69.06H402.06a.9.9,0,0,1-.9-.9V42a.9.9,0,0,1,.9-.9,27,27,0,0,1,27,27A.9.9,0,0,1,428.12,69.06ZM403,67.25H427.2A25.17,25.17,0,0,0,403,43Z" transform="translate(-3.46 -39.22)"/><path class="cls-2" d="M394.68,109.48a34,34,0,0,1-28.49-52.3,33.84,33.84,0,0,1,28.49-15.59.9.9,0,0,1,.9.9V74.63h32.07a.91.91,0,0,1,.91.9A34,34,0,0,1,394.68,109.48Zm-.9-66.07A31.82,31.82,0,0,0,372,52.8a32.74,32.74,0,0,0-4.3,5.35h0a32.1,32.1,0,1,0,59,18.29H394.68a.9.9,0,0,1-.9-.91ZM366.94,57.66h0Z" transform="translate(-3.46 -39.22)"/><path class="cls-2" d="M254.1,178.76a5.06,5.06,0,0,1-3.5-1.39,5.1,5.1,0,1,1,3.5,1.39Zm0-8.48a3.33,3.33,0,0,0-2.27,5.77h0a3.33,3.33,0,0,0,5.59-2.45A3.34,3.34,0,0,0,254.1,170.28Z" transform="translate(-3.46 -39.22)"/><path class="cls-2" d="M224.24,210.88a5.14,5.14,0,1,1,0-10.28,5.05,5.05,0,0,1,3.49,1.38,5.14,5.14,0,0,1-3.49,8.9Zm0-8.48a3.34,3.34,0,1,0,2.27.9h0A3.3,3.3,0,0,0,224.24,202.4Z" transform="translate(-3.46 -39.22)"/><path class="cls-2" d="M183.93,170.71a5.16,5.16,0,0,1-5.13-5.15,5.13,5.13,0,1,1,5.13,5.15Zm0-8.49a3.34,3.34,0,0,0-3.32,3.34A3.24,3.24,0,0,0,181,167h0a3.29,3.29,0,0,0,3,1.86,3.34,3.34,0,0,0,0-6.68Z" transform="translate(-3.46 -39.22)"/><path class="cls-2" d="M29,247.26a5.15,5.15,0,1,1,4.61-7.42,5,5,0,0,1,.53,2.27A5.15,5.15,0,0,1,29,247.26Zm0-8.48a3.34,3.34,0,1,0,3.34,3.33,3.25,3.25,0,0,0-.35-1.47A3.31,3.31,0,0,0,29,238.78Z" transform="translate(-3.46 -39.22)"/><path class="cls-2" d="M408.7,395.18H210.22a.9.9,0,1,1,0-1.8H408.7a.9.9,0,0,1,0,1.8Z" transform="translate(-3.46 -39.22)"/><path class="cls-2" d="M425.67,395.18H415.34a.9.9,0,0,1,0-1.8h10.33a.9.9,0,1,1,0,1.8Z" transform="translate(-3.46 -39.22)"/><path class="cls-2" d="M461.17,262.85a3.61,3.61,0,0,1-2.55-1.05l-6.25-6.26a1.74,1.74,0,0,0-2.4,0l-6.24,6.26a3.61,3.61,0,0,1-5.32-.24,3.71,3.71,0,0,1,.32-5l6.14-6.16a1.71,1.71,0,0,0,0-2.41l-6.24-6.26a3.61,3.61,0,0,1,.24-5.32,3.7,3.7,0,0,1,5,.32l6.14,6.16a1.74,1.74,0,0,0,2.4,0l6.25-6.27a3.61,3.61,0,0,1,2.7-1.05,3.66,3.66,0,0,1,2.62,1.29,3.73,3.73,0,0,1-.32,5L457.47,248a1.71,1.71,0,0,0,0,2.41l6.15,6.16a3.73,3.73,0,0,1,.32,5,3.66,3.66,0,0,1-2.62,1.29Zm-20-25.42a1.7,1.7,0,0,0-1.1.39,1.77,1.77,0,0,0-.65,1.31,1.81,1.81,0,0,0,.53,1.36l6.24,6.26a3.51,3.51,0,0,1,0,4.95L440,257.86a1.9,1.9,0,0,0-.21,2.54,1.8,1.8,0,0,0,2.66.12l6.24-6.25a3.49,3.49,0,0,1,4.95,0l6.24,6.25a1.8,1.8,0,0,0,2.66-.12,1.91,1.91,0,0,0-.21-2.54h0l-6.14-6.16a3.49,3.49,0,0,1,0-4.95l6.14-6.16a1.91,1.91,0,0,0,.21-2.54,1.82,1.82,0,0,0-1.3-.65,1.8,1.8,0,0,0-1.36.53l-6.24,6.26a3.49,3.49,0,0,1-4.95,0L442.55,238A2,2,0,0,0,441.13,237.43Z" transform="translate(-3.46 -39.22)"/><path class="cls-2" d="M21.35,129.14a4.7,4.7,0,1,1,4.69-4.7A4.7,4.7,0,0,1,21.35,129.14Zm0-7.59a2.89,2.89,0,1,0,2.89,2.89A2.9,2.9,0,0,0,21.35,121.55Z" transform="translate(-3.46 -39.22)"/><path class="cls-2" d="M54.16,129.14a4.7,4.7,0,1,1,4.69-4.7A4.7,4.7,0,0,1,54.16,129.14Zm0-7.59a2.89,2.89,0,1,0,2.89,2.89A2.89,2.89,0,0,0,54.16,121.55Z" transform="translate(-3.46 -39.22)"/><path class="cls-2" d="M37.76,129.14a4.7,4.7,0,1,1,4.69-4.7A4.7,4.7,0,0,1,37.76,129.14Zm0-7.59a2.89,2.89,0,1,0,2.89,2.89A2.9,2.9,0,0,0,37.76,121.55Z" transform="translate(-3.46 -39.22)"/><path class="cls-2" d="M254.78,128.37a4.53,4.53,0,1,1,4.52-4.53A4.53,4.53,0,0,1,254.78,128.37Zm0-7.25a2.72,2.72,0,1,0,2.72,2.72A2.72,2.72,0,0,0,254.78,121.12Z" transform="translate(-3.46 -39.22)"/><path class="cls-2" d="M274.32,129.06a.87.87,0,0,1-.64-.27l-8.62-8.64a.88.88,0,0,1,0-1.27.9.9,0,0,1,1.27,0l8.62,8.64a.9.9,0,0,1-.63,1.54Z" transform="translate(-3.46 -39.22)"/><path class="cls-2" d="M265.69,129.06a.86.86,0,0,1-.63-.27.88.88,0,0,1,0-1.27l8.62-8.64a.9.9,0,1,1,1.27,1.27l-8.62,8.64A.89.89,0,0,1,265.69,129.06Z" transform="translate(-3.46 -39.22)"/><path class="cls-2" d="M244.16,128.82h-8.11a.9.9,0,1,1,0-1.8h8.11a.9.9,0,1,1,0,1.8Z" transform="translate(-3.46 -39.22)"/><path class="cls-2" d="M284.73,174.51a5.83,5.83,0,0,1-3.8-1.43.91.91,0,0,1,1.16-1.39,4.28,4.28,0,0,0,5.34.11.9.9,0,1,1,1.12,1.41A6.38,6.38,0,0,1,284.73,174.51Z" transform="translate(-3.46 -39.22)"/><path class="cls-2" d="M291.84,175h-.07c-4.53-.33-5.54-4.37-5.44-6.47a.9.9,0,0,1,1.8.09c0,.44-.06,4.3,3.78,4.58a.91.91,0,0,1-.07,1.81Z" transform="translate(-3.46 -39.22)"/><path class="cls-2" d="M325.63,175.62a.9.9,0,0,1-.39-1.72l6.6-3.1a.9.9,0,0,1,.77,1.63l-6.6,3.1A.85.85,0,0,1,325.63,175.62Z" transform="translate(-3.46 -39.22)"/><path class="cls-2" d="M330.72,177.91a.9.9,0,0,1-.81-.52l-1.8-3.84a.9.9,0,0,1,1.63-.77l1.8,3.84a.9.9,0,0,1-.43,1.2A.92.92,0,0,1,330.72,177.91Z" transform="translate(-3.46 -39.22)"/><path class="cls-2" d="M302.22,202a.91.91,0,0,1-.88-.69,4,4,0,0,0-3.79-3A24.54,24.54,0,0,1,280,190a25.67,25.67,0,0,1-6.56-19.17,75,75,0,0,1,3.4-16.62c-1.21-.77-3.58-2.64-3.11-5.13.61-3.24,5-4.18,6.53-4.41.71-1.77,1.49-3.61,2.32-5.47,2.9-6.47,5.39-10.91,5.42-11a.9.9,0,1,1,1.57.89s-2.48,4.41-5.34,10.79c-.9,2-1.74,4-2.49,5.9a.91.91,0,0,1-.76.57c-1.39.12-5.08.9-5.48,3-.35,1.89,2.8,3.57,2.83,3.59a.91.91,0,0,1,.45,1.07,74,74,0,0,0-3.54,16.89,23.91,23.91,0,0,0,6.1,17.84,22.78,22.78,0,0,0,16.23,7.69,5.86,5.86,0,0,1,5.49,4.41.9.9,0,0,1-.67,1.09A.76.76,0,0,1,302.22,202Z" transform="translate(-3.46 -39.22)"/><path class="cls-2" d="M341.39,200.49a8,8,0,0,1-1.68-.17,14.54,14.54,0,0,1-6.33-3.25c-5.67-4.71-9.26-12.77-9.65-13.67a.92.92,0,0,1,.47-1.19.91.91,0,0,1,1.19.46h0c.37.86,3.8,8.56,9.14,13a12.82,12.82,0,0,0,5.54,2.86,6.67,6.67,0,0,0,5.77-1.57,7.28,7.28,0,0,0,2.3-3.75,26.21,26.21,0,0,0,.64-5.44,50.6,50.6,0,0,1,1.46-11.07,45.36,45.36,0,0,1,1.94-6c3.26-8.12,7.69-23.56.66-35.76-5.42-9.41-16.66-15.4-33.41-17.82l-2.63-.34A.9.9,0,1,1,317,115c.91.11,1.81.22,2.68.35,17.32,2.5,29,8.79,34.71,18.7,7,12.22,3.59,27-.55,37.34a41.32,41.32,0,0,0-1.85,5.74,48.85,48.85,0,0,0-1.42,10.67,27.18,27.18,0,0,1-.69,5.83,9.14,9.14,0,0,1-2.86,4.68A8.53,8.53,0,0,1,341.39,200.49Z" transform="translate(-3.46 -39.22)"/><path class="cls-2" d="M327,184.16a14.3,14.3,0,0,1-2.57-.24l-.09,0-.93-.21a.9.9,0,0,1,.44-1.75c.31.08.6.15.9.2l.11,0a9.82,9.82,0,0,0,7.87-1.67,11.93,11.93,0,0,0,4.43-8.33,7.12,7.12,0,0,0-2.94-6.52,6.8,6.8,0,0,0-6.83-.72l-.06,0h0a6,6,0,0,0-2.52,2.78c-3.57,6.27-8.21,7-11.1,5.78-3.37-1.46-4.92-5.35-3.7-9.26.74-2.4,1.45-5,2.11-7.76a17.88,17.88,0,0,0-8.72-19.79c-2.34-1.29-5-2.59-7.89-4q-2.26-1.08-4.69-2.28a19.77,19.77,0,0,1-2.29-1.32,17.49,17.49,0,0,1-6.83-21,16.65,16.65,0,0,1,9.87-9.49c5.63-2.1,10.84-2,15.5.29,9.46,4.64,13.24,16.56,13.4,17.06a.9.9,0,0,1-1.72.54c0-.12-3.73-11.7-12.48-16-4.2-2.06-8.93-2.13-14.07-.21a14.87,14.87,0,0,0-8.82,8.46,15.69,15.69,0,0,0,6.16,18.84,17.67,17.67,0,0,0,2.08,1.21q2.41,1.18,4.67,2.26c2.88,1.39,5.6,2.7,8,4a19.68,19.68,0,0,1,9.6,21.8c-.66,2.79-1.38,5.44-2.14,7.88-1.06,3.41.55,6.13,2.7,7.07,2.31,1,5.84.21,8.81-5a7.81,7.81,0,0,1,3.31-3.51l.16-.07a8.58,8.58,0,0,1,8.57.93,8.87,8.87,0,0,1,3.68,8.15,13.75,13.75,0,0,1-5.13,9.6A11.13,11.13,0,0,1,327,184.16Zm.24-19.19Zm.2-.09Zm0,0h0Z" transform="translate(-3.46 -39.22)"/><path class="cls-2" d="M299.59,145.41a.89.89,0,0,1-.82-.54h0a7.32,7.32,0,0,0-5.11-3.89.91.91,0,0,1,.33-1.78,9.16,9.16,0,0,1,6.43,4.94.92.92,0,0,1-.83,1.27Z" transform="translate(-3.46 -39.22)"/><path class="cls-2" d="M102.21,293a4.27,4.27,0,0,1-2.12-.6,8.17,8.17,0,0,1-3.53-4.94,8.81,8.81,0,0,1,0-5,4.07,4.07,0,0,1,7-1.94,8.75,8.75,0,0,1,2.58,4.26c1,3.78-.22,7.32-2.89,8.07A3.64,3.64,0,0,1,102.21,293ZM100.43,281a2,2,0,0,0-.49.07,2.65,2.65,0,0,0-1.67,1.9,7,7,0,0,0,0,3.94h0A6.37,6.37,0,0,0,101,290.8a2.3,2.3,0,0,0,1.74.29c1.64-.46,2.38-3.13,1.63-5.84a7,7,0,0,0-2-3.39A3,3,0,0,0,100.43,281Z" transform="translate(-3.46 -39.22)"/><path class="cls-2" d="M114.78,313.91a4.74,4.74,0,0,1-1.36-.21,8.15,8.15,0,0,1-4.5-4.08h0c-1.83-3.46-1.35-7.2,1.11-8.5a4,4,0,0,1,3.13-.22,8.19,8.19,0,0,1,4.5,4.08c1.83,3.47,1.35,7.2-1.1,8.5A3.82,3.82,0,0,1,114.78,313.91Zm-4.27-5.13A6.34,6.34,0,0,0,114,312a2.32,2.32,0,0,0,1.76-.09c1.5-.8,1.66-3.57.35-6.05a6.4,6.4,0,0,0-3.44-3.2,2.32,2.32,0,0,0-1.76.09c-1.5.8-1.67,3.57-.35,6.06Z" transform="translate(-3.46 -39.22)"/><path class="cls-2" d="M58,350.32a12.16,12.16,0,1,1,12.13-12.16A12.16,12.16,0,0,1,58,350.32Zm0-22.51a10.35,10.35,0,1,0,10.33,10.35A10.35,10.35,0,0,0,58,327.81Z" transform="translate(-3.46 -39.22)"/><path class="cls-2" d="M459.05,294.9a8.81,8.81,0,1,1,8.8-8.8A8.8,8.8,0,0,1,459.05,294.9Zm0-15.81a7,7,0,1,0,7,7A7,7,0,0,0,459.05,279.09Z" transform="translate(-3.46 -39.22)"/><path class="cls-2" d="M295.07,211.06a.91.91,0,0,1-.91-.91,1,1,0,0,1,0-.22h0c.12-.54,1.32-5.44,7.54-9.46,7.23-4.68,18.09-6.31,32.27-4.83h.18a.9.9,0,0,1,0,1.8h-.32c-13.79-1.44-24.27.09-31.15,4.54-5.71,3.69-6.72,8.14-6.76,8.33h0A.89.89,0,0,1,295.07,211.06Z" transform="translate(-3.46 -39.22)"/><path class="cls-2" d="M137.71,198.56a.92.92,0,0,1-.58-.21c-.31-.26-7.76-6.59-12-13.27-2.2-3.47-3.13-6.45-2.77-8.86a6,6,0,0,1,1.49-3.2.9.9,0,0,1,1.35,1.19,4.18,4.18,0,0,0-1,2.27c-.3,2,.54,4.54,2.5,7.63,4.07,6.45,11.55,12.8,11.63,12.86a.89.89,0,0,1,.1,1.27A.86.86,0,0,1,137.71,198.56Z" transform="translate(-3.46 -39.22)"/><path class="cls-2" d="M102,194.17a.89.89,0,0,1-.84-.58,35.12,35.12,0,0,1-1.57-18.93c1.54-7.35,5.64-12.43,11.54-14.3,12.49-4,20.07,10.37,20.15,10.52a.9.9,0,0,1-1.6.83c-.28-.54-7-13.12-18-9.63-5.25,1.67-8.91,6.26-10.32,12.95A33.48,33.48,0,0,0,102.82,193a.89.89,0,0,1-.52,1.16A.91.91,0,0,1,102,194.17Z" transform="translate(-3.46 -39.22)"/><path class="cls-2" d="M85.68,203.83a.91.91,0,0,1-.87-.67c-.11-.39-2.54-9.68-.42-17.75,2-7.47,7.29-11.48,15.41-11.6a.91.91,0,1,1,0,1.81c-7.33.1-11.93,3.55-13.69,10.25-2,7.6.39,16.73.41,16.82a.91.91,0,0,1-.64,1.11A.85.85,0,0,1,85.68,203.83Z" transform="translate(-3.46 -39.22)"/><path class="cls-2" d="M92.12,274a.91.91,0,0,1-.83-.55c0-.05-2.21-5.23-5-12.93-3.91-10.91-9-27-11.08-41.51-.19-1.31-.34-2.48-.45-3.57a74.5,74.5,0,0,1-.48-9.68c.24-11.37,3.82-18.41,10.64-20.93a.91.91,0,0,1,1.16.54.9.9,0,0,1-.54,1.15c-6,2.24-9.23,8.73-9.46,19.28a72.72,72.72,0,0,0,.48,9.44c.11,1.08.25,2.23.43,3.51,2.06,14.4,7.12,30.33,11,41.16,2.74,7.66,4.91,12.78,4.93,12.83a.91.91,0,0,1-.48,1.19A.84.84,0,0,1,92.12,274Z" transform="translate(-3.46 -39.22)"/><path class="cls-2" d="M192.66,283.82a32.54,32.54,0,0,1-6-.56c-9.56-1.82-17.86-8.12-24-18.22a88.54,88.54,0,0,1-8.71-19c-3.93-12.22-5.19-25.23-4-40.93a41.52,41.52,0,0,0-3.52-21.09,28.65,28.65,0,0,0-5.6-8.3.9.9,0,0,1,1.22-1.33,30,30,0,0,1,6,8.87,43.25,43.25,0,0,1,3.68,22c-1.21,15.46,0,28.25,3.87,40.24a86.63,86.63,0,0,0,8.54,18.58c5.95,9.8,13.62,15.64,22.8,17.38,9.34,1.78,19.66-1,28.31-7.53,9-6.82,15.52-16.06,22.46-25.84,12-17,24.45-34.47,50.37-38.36a68.29,68.29,0,0,1,6.9-.69,88,88,0,0,1,9.18,0,.9.9,0,0,1-.1,1.8,84.43,84.43,0,0,0-9,0c-2.31.12-4.57.35-6.72.67-25.16,3.78-37.37,21-49.17,37.62-6.71,9.47-13.65,19.25-22.84,26.23A39.62,39.62,0,0,1,192.66,283.82Z" transform="translate(-3.46 -39.22)"/><path class="cls-2" d="M83.37,275.55q-4.53,0-6.47-1.84a4.8,4.8,0,0,1-1.41-2.36c-1.3-5.61,10-11.35,11.28-12a.9.9,0,0,1,.8,1.62c-2.94,1.45-11.15,6.38-10.32,9.95a2.93,2.93,0,0,0,.9,1.46c1.82,1.74,6.74,1.8,13.86.17,15-3.44,39.45-14.26,62.33-27.56a.91.91,0,0,1,1.24.33.9.9,0,0,1-.33,1.23c-23,13.38-47.69,24.28-62.84,27.76A42.18,42.18,0,0,1,83.37,275.55Z" transform="translate(-3.46 -39.22)"/><path class="cls-2" d="M192.23,368.79a111.32,111.32,0,0,1-35.64-5.87c-1.19-.4-2.44-.85-3.84-1.37A120.53,120.53,0,0,1,97.2,319.61a130.15,130.15,0,0,1-14.45-25.25,125.85,125.85,0,0,1-5.68-15.93,72.92,72.92,0,0,1-1.68-7.11.91.91,0,0,1,1.79-.29,69.23,69.23,0,0,0,1.63,6.91,120.76,120.76,0,0,0,5.6,15.7,127.84,127.84,0,0,0,14.24,24.9,118.69,118.69,0,0,0,54.74,41.32c1.38.51,2.61,1,3.77,1.35a110.92,110.92,0,0,0,72.91-.79c1.82-.64,3.65-1.33,5.45-2.06a125.87,125.87,0,0,0,51-38.09,112.5,112.5,0,0,0,14.88-24.33.9.9,0,0,1,1.65.73,114,114,0,0,1-15.12,24.72A127.75,127.75,0,0,1,236.2,360c-1.82.74-3.68,1.45-5.53,2.09A115.55,115.55,0,0,1,192.23,368.79Z" transform="translate(-3.46 -39.22)"/><path class="cls-2" d="M156.87,363a.86.86,0,0,1-.58-.22.9.9,0,0,1-.1-1.27c9.12-10.59,24.65-16.91,41.55-16.91,15.2,0,29.32,5.09,38.74,14a.9.9,0,1,1-1.24,1.31c-9.09-8.56-22.76-13.47-37.5-13.47-16.38,0-31.4,6.08-40.18,16.28A.93.93,0,0,1,156.87,363Z" transform="translate(-3.46 -39.22)"/><path class="cls-2" d="M402,386.89a.89.89,0,0,1-.86-.65.9.9,0,0,1,.61-1.12c16-4.66,26.84-14.18,32.11-28.28,5.62-15.06,4.9-35.65-2.08-59.53a222.54,222.54,0,0,0-25.05-55c-8.57-13.29-19.13-22.61-31.37-27.68a54.18,54.18,0,0,0-19.6-4.17,34.86,34.86,0,0,0-6.86.44.92.92,0,0,1-1.07-.71.91.91,0,0,1,.71-1.06,36.29,36.29,0,0,1,7.25-.47,55.86,55.86,0,0,1,20.26,4.3c12.59,5.22,23.42,14.77,32.2,28.37a224.68,224.68,0,0,1,25.26,55.49c7.1,24.26,7.8,45.24,2,60.67C430,372.14,418.82,382,402.2,386.86A1.07,1.07,0,0,1,402,386.89Z" transform="translate(-3.46 -39.22)"/><path class="cls-2" d="M402,395.37a.91.91,0,0,1-.9-.85l-6.91-112.61a.9.9,0,1,1,1.8-.11l6.91,112.61a.91.91,0,0,1-.84,1Z" transform="translate(-3.46 -39.22)"/><path class="cls-2" d="M228.77,395.37h-.05a.9.9,0,0,1-.85-.95L229.75,362a.9.9,0,0,1,1.8.11l-1.88,32.41A.9.9,0,0,1,228.77,395.37Z" transform="translate(-3.46 -39.22)"/><path class="cls-2" d="M355.72,210.78a.9.9,0,0,1-.9-.9c0-8.34-8.29-10.9-8.64-11a.9.9,0,0,1,.25-1.77h.29a.89.89,0,0,1,.65.28c2.26.86,9.25,4.21,9.25,12.49A.9.9,0,0,1,355.72,210.78Z" transform="translate(-3.46 -39.22)"/><path class="cls-2" d="M125.91,185.5a.9.9,0,0,1-.47-1.67l24.34-14.89a3.3,3.3,0,0,0-.94-6,3.29,3.29,0,0,0-2.49.39l-22.61,13.82a.9.9,0,1,1-.94-1.54l22.61-13.82a5.1,5.1,0,0,1,7,1.7,5.13,5.13,0,0,1-1.7,7l-24.34,14.89A.9.9,0,0,1,125.91,185.5Z" transform="translate(-3.46 -39.22)"/><path class="cls-2" d="M67.36,220.59a5.11,5.11,0,0,1-2.68-9.47L74.74,205a.9.9,0,0,1,.94,1.54l-10.06,6.14a3.32,3.32,0,0,0-1.57,2.84,3.29,3.29,0,0,0,5,2.81l6.16-3.77a.9.9,0,0,1,.94,1.54L70,219.84A5.1,5.1,0,0,1,67.36,220.59Z" transform="translate(-3.46 -39.22)"/><path class="cls-2" d="M98.07,319.92H20.55A17.13,17.13,0,0,1,3.46,302.8V125a17.14,17.14,0,0,1,17.09-17.13h262a.91.91,0,0,1,0,1.81h-262A15.31,15.31,0,0,0,5.27,125V302.8a15.31,15.31,0,0,0,15.28,15.32H98.07a.9.9,0,0,1,0,1.8Z" transform="translate(-3.46 -39.22)"/><path class="cls-2" d="M289.2,321.86a13.86,13.86,0,0,1-2.12-.14.9.9,0,0,1,.29-1.78c.56.09,13.39,1.93,23.92-13.15a.9.9,0,0,1,1.25-.23.91.91,0,0,1,.23,1.26C304,320.38,293.6,321.86,289.2,321.86Z" transform="translate(-3.46 -39.22)"/><path class="cls-2" d="M282.53,139.89H4.37a.9.9,0,1,1,0-1.8H282.53a.9.9,0,0,1,0,1.8Z" transform="translate(-3.46 -39.22)"/><path class="cls-2" d="M264.08,109.64a.91.91,0,0,1-.9-.9V74.38A17.47,17.47,0,0,1,280.6,56.92h86.78a.91.91,0,0,1,0,1.81H280.6A15.65,15.65,0,0,0,265,74.38v34.36A.91.91,0,0,1,264.08,109.64Z" transform="translate(-3.46 -39.22)"/><path class="cls-2" d="M442.33,214.41H375.5a.9.9,0,1,1,0-1.8h66.83A15.67,15.67,0,0,0,458,196.93V73.67A15.67,15.67,0,0,0,442.33,58H425.67a.9.9,0,1,1,0-1.8h16.66a17.49,17.49,0,0,1,17.45,17.48V196.93A17.49,17.49,0,0,1,442.33,214.41Z" transform="translate(-3.46 -39.22)"/><path class="cls-2" d="M402.06,58.73h-7.38a.91.91,0,0,1,0-1.81h7.38a.91.91,0,0,1,0,1.81Z" transform="translate(-3.46 -39.22)"/><path class="cls-2" d="M288.27,211.55a.89.89,0,0,1-.67-.3l-33.5-36.31-29.2,31.41a.93.93,0,0,1-.64.29.89.89,0,0,1-.66-.27l-39.85-39.72-36.07,17.83a.9.9,0,0,1-.8-1.62l36.65-18.11a.91.91,0,0,1,1,.17l39.64,39.52L253.44,173a.9.9,0,0,1,1.32,0l34.17,37a.91.91,0,0,1-.05,1.28A.92.92,0,0,1,288.27,211.55Z" transform="translate(-3.46 -39.22)"/><path class="cls-2" d="M29,243a.91.91,0,0,1-.81-.51.9.9,0,0,1,.41-1.2L75.73,218a.9.9,0,0,1,1.21.41.91.91,0,0,1-.41,1.21l-47.1,23.27A.82.82,0,0,1,29,243Z" transform="translate(-3.46 -39.22)"/><path class="cls-2" d="M78.15,279.34H32.7a4.76,4.76,0,0,1-4.39-3.28,4.71,4.71,0,0,1,1.1-4.54,4.26,4.26,0,0,1,3.13-1.36H76.28a.9.9,0,1,1,0,1.8H32.54a2.52,2.52,0,0,0-1.83.81,2.81,2.81,0,0,0,2,4.77H78.15a.9.9,0,1,1,0,1.8Z" transform="translate(-3.46 -39.22)"/><path class="cls-2" d="M67.82,288.2H28.71a.91.91,0,0,1,0-1.81H67.82a.91.91,0,0,1,0,1.81Z" transform="translate(-3.46 -39.22)"/><path class="cls-2" d="M83.58,294.84H28.71a.91.91,0,0,1,0-1.81H83.58a.91.91,0,0,1,0,1.81Z" transform="translate(-3.46 -39.22)"/><path class="cls-2" d="M433.05,189.33H414.6a.91.91,0,0,1-.9-.91V119.8a.91.91,0,0,1,.9-.9h18.45a.9.9,0,0,1,.9.9v68.62A.9.9,0,0,1,433.05,189.33Zm-17.54-1.81h16.64V120.71H415.51Z" transform="translate(-3.46 -39.22)"/><path class="cls-2" d="M408,188.59H389.52a.9.9,0,0,1-.9-.9V139a.9.9,0,0,1,.9-.9H408a.9.9,0,0,1,.91.9v48.7A.91.91,0,0,1,408,188.59Zm-17.54-1.81h16.64V139.89H390.42Z" transform="translate(-3.46 -39.22)"/><path class="cls-2" d="M382.14,188.59H363.69a.91.91,0,0,1-.9-.9V158.91a.9.9,0,0,1,.9-.9h18.45a.9.9,0,0,1,.9.9v28.78A.9.9,0,0,1,382.14,188.59Zm-17.54-1.81h16.64v-27H364.6Z" transform="translate(-3.46 -39.22)"/><path class="cls-2" d="M408.3,182.88h-.67c-4.92-.13-10.16-1.85-15.57-5.09-1.08-.65-2.14-1.25-3.15-1.78a59,59,0,0,0-7.21-3.27c-6.46-2.38-12.46-3-17.83-2a20.78,20.78,0,0,0-12,6.75.71.71,0,0,1-.12.14.92.92,0,0,1-1.27,0,.87.87,0,0,1,0-1.2A22.78,22.78,0,0,1,363.52,169c5.7-1.13,12-.43,18.8,2.06a59,59,0,0,1,7.44,3.37c1,.54,2.12,1.16,3.22,1.82,5.15,3.09,10.09,4.71,14.7,4.84a20.07,20.07,0,0,0,7-1c12.13-4.06,17.71-18.88,17.76-19a.9.9,0,1,1,1.7.62c-.24.64-5.92,15.78-18.88,20.12A21.75,21.75,0,0,1,408.3,182.88Z" transform="translate(-3.46 -39.22)"/><path class="cls-2" d="M289.14,85.29h-8.06a3.88,3.88,0,0,1-3.88-3.88v-8a3.89,3.89,0,0,1,3.89-3.89h8.05A3.88,3.88,0,0,1,293,73.35V81.4A3.89,3.89,0,0,1,289.14,85.29Zm-8.05-14A2.09,2.09,0,0,0,279,73.36v8a2.08,2.08,0,0,0,2.07,2.08h8.06a2.09,2.09,0,0,0,2.08-2.09V73.35a2.08,2.08,0,0,0-2.08-2.08Z" transform="translate(-3.46 -39.22)"/><path class="cls-2" d="M337.87,75.7H296.55a.91.91,0,0,1,0-1.81h41.32a.91.91,0,0,1,0,1.81Z" transform="translate(-3.46 -39.22)"/><path class="cls-2" d="M308.36,80.86H296.55a.9.9,0,1,1,0-1.8h11.81a.9.9,0,0,1,0,1.8Z" transform="translate(-3.46 -39.22)"/><path class="cls-2" d="M320.9,80.86h-6.64a.9.9,0,0,1,0-1.8h6.64a.9.9,0,0,1,0,1.8Z" transform="translate(-3.46 -39.22)"/></svg>