<svg id="Layer_1" data-name="Layer 1" xmlns="http://www.w3.org/2000/svg" viewBox="0 0 469.69 383.93"><defs><style>.cls-1{fill:#fff;}.cls-2{fill:#fcb01a;}.cls-3{fill:#1a1a1a;}.cls-4{fill:#e0e0e0;}</style></defs><path class="cls-1" d="M434.9,123.59a30.4,30.4,0,0,1,4.51-.33,30.83,30.83,0,1,1-30.76,30.83c0-1.06.05-2.1.15-3.13A30.82,30.82,0,0,1,434.9,123.59Z" transform="translate(-1.34 -10)"/><path class="cls-1" d="M392.66,303.28H355.59a8.06,8.06,0,0,0-8,8v29a8,8,0,0,0,8,8h88.46L452,362.79l.09-51.48a8.06,8.06,0,0,0-8-8Z" transform="translate(-1.34 -10)"/><path class="cls-1" d="M383.67,189.54H183.75l-76.83,3a8.93,8.93,0,0,0-2.57,6.26V348a9,9,0,0,0,9,9h2.84a31,31,0,0,1,8-15,29.9,29.9,0,0,1,20.48-8.48c14.3,0,25.32,10.28,28.24,23.45H383.35a9,9,0,0,0,8.88-7.92l.39-45.73V198.5A9,9,0,0,0,383.67,189.54Z" transform="translate(-1.34 -10)"/><path class="cls-1" d="M392.62,273.29V198.47a8.92,8.92,0,0,0-8.91-8.93H369.32c-3.8-27.79-11.72-61.74-43.86-89.39s-70.1-29-70.1-29L254,68.07s5.93-2.4,1.33-15.18-31-16.46-57.36-8.23-5.47,35.81-5.47,35.81l4,7.58C90.68,121,106.92,192.46,106.92,192.46a5.08,5.08,0,0,0-2.57,4.42V297.94C39.47,254,409.25,254.17,392.62,273.29Z" transform="translate(-1.34 -10)"/><circle class="cls-2" cx="35.05" cy="43.63" r="35.05"/><rect class="cls-3" x="113.73" y="38.63" width="20.03" height="20.03"/><rect class="cls-1" x="100.14" y="25.04" width="20.03" height="20.03"/><rect class="cls-1" x="76.54" y="208.16" width="10.73" height="10.73"/><rect class="cls-1" x="301.86" y="47.93" width="10.73" height="10.73"/><circle class="cls-2" cx="49" cy="131.26" r="3.22"/><circle class="cls-2" cx="65.45" cy="131.26" r="3.22"/><circle class="cls-2" cx="81.9" cy="131.26" r="3.22"/><circle class="cls-2" cx="49" cy="146.28" r="3.22"/><circle class="cls-2" cx="65.45" cy="146.28" r="3.22"/><circle class="cls-2" cx="81.9" cy="146.28" r="3.22"/><circle class="cls-2" cx="49" cy="161.3" r="3.22"/><circle class="cls-2" cx="65.45" cy="161.3" r="3.22"/><circle class="cls-2" cx="81.9" cy="161.3" r="3.22"/><rect class="cls-4" x="214.59" y="229.62" width="60.8" height="53.65" rx="8.83"/><rect class="cls-4" x="307.58" y="229.62" width="60.8" height="53.65" rx="8.83"/><path class="cls-4" d="M174.06,293.26H129.94a7,7,0,0,1-7-7V246.37a6.93,6.93,0,0,1,1.33-4.1l5.88,9.61,6.65-1.3,7,22.11a9.32,9.32,0,0,0-2.35,11.07c3,6.77,9.65,6.77,16.49,4.48,0,0,3.65,6.62,11.63,3.42Z" transform="translate(-1.34 -10)"/><polygon class="cls-3" points="134.38 236.51 129.2 241.14 135.69 240.27 134.38 236.51"/><circle class="cls-2" cx="414.88" cy="241.06" r="5.72"/><circle class="cls-3" cx="157.73" cy="6.8" r="6.8"/><path class="cls-2" d="M241.13,129.14c.94,1.9.67,3.89-.6,4.46s-3.06-.51-4-2.4-.67-3.88.6-4.45S240.19,127.25,241.13,129.14Z" transform="translate(-1.34 -10)"/><path class="cls-2" d="M241.13,151.32c.94,1.89.67,3.88-.6,4.45s-3.06-.5-4-2.39-.67-3.89.6-4.46S240.19,149.43,241.13,151.32Z" transform="translate(-1.34 -10)"/><path class="cls-2" d="M127.72,91a2.92,2.92,0,0,1-.27,3.91L121,101.31a2.73,2.73,0,0,0,0,3.85l6.41,6.43a2.92,2.92,0,0,1,.27,3.91,2.81,2.81,0,0,1-4.16.18l-6.51-6.52a2.72,2.72,0,0,0-3.84,0l-6.51,6.52a2.81,2.81,0,0,1-4.16-.18,2.91,2.91,0,0,1,.28-3.91l6.4-6.43a2.73,2.73,0,0,0,0-3.85l-6.51-6.52a2.83,2.83,0,0,1,.19-4.17,2.91,2.91,0,0,1,3.9.27l6.41,6.43a2.72,2.72,0,0,0,3.84,0l6.51-6.53A2.82,2.82,0,0,1,127.72,91Z" transform="translate(-1.34 -10)"/><path class="cls-2" d="M175.29,356.66c0,.52,0,1,0,1.57a30.36,30.36,0,1,1-60.71,0c0-.52,0-1.05,0-1.57a30.35,30.35,0,0,1,60.63,0Zm-16.07,9.41a5.13,5.13,0,1,0-5.13,5.14A5.14,5.14,0,0,0,159.22,366.07Zm-18.9-15a5.14,5.14,0,1,0-5.14,5.14A5.14,5.14,0,0,0,140.32,351.08Z" transform="translate(-1.34 -10)"/><path class="cls-3" d="M153.59,305.89a4,4,0,1,1-4,4A4,4,0,0,1,153.59,305.89Z" transform="translate(-1.34 -10)"/><path class="cls-3" d="M140,305.89a4,4,0,1,1-4,4A4,4,0,0,1,140,305.89Z" transform="translate(-1.34 -10)"/><path class="cls-3" d="M127.28,305.89a4,4,0,1,1-4,4A4,4,0,0,1,127.28,305.89Z" transform="translate(-1.34 -10)"/><path class="cls-3" d="M312.83,305.89a4,4,0,1,1-4,4A4,4,0,0,1,312.83,305.89Z" transform="translate(-1.34 -10)"/><path class="cls-2" d="M456.75,140.84a2.53,2.53,0,0,1-.16,3l-18.16,23.31a2.47,2.47,0,0,1-1.9,1h-.07a2.5,2.5,0,0,1-1.88-.84l-12.3-14a2.52,2.52,0,0,1,.22-3.54A2.49,2.49,0,0,1,426,150l10.3,11.7,16.34-21A2.5,2.5,0,0,1,456.75,140.84Z" transform="translate(-1.34 -10)"/><path class="cls-2" d="M440,99.91a57.23,57.23,0,0,1-5.09,23.68A30.82,30.82,0,0,0,408.8,151a57.23,57.23,0,0,1-47.51,2c-8.18-23.75-21.31-40.64-35.6-52.66v-.41a57.15,57.15,0,1,1,114.3,0ZM397.77,83.26a4,4,0,0,0-.51-5.62,20.54,20.54,0,0,0-9.65-4.49v-4.9a3.89,3.89,0,0,0-3.88-3.89h-1.67a3.84,3.84,0,0,0-3.75,3.9v5.08l0,.06c-8,1.8-12.74,7.78-12.74,16.5,0,15.1,21.42,16,21.42,22.95,0,3.36-1.66,4.83-5.81,4.83a15.71,15.71,0,0,1-8.46-2.74,3.65,3.65,0,0,0-5.05,1.26l-2.22,3.6a4,4,0,0,0,1.19,5.41,29.3,29.3,0,0,0,11.71,4.18v4.76a3.83,3.83,0,0,0,3.75,3.89h1.67a3.88,3.88,0,0,0,3.88-3.88v-5.3a16.48,16.48,0,0,0,9.75-6.2,18.15,18.15,0,0,0,3.2-10.85c0-15.7-21.41-16-21.41-22.6,0-3.45,1.74-4.49,5.31-4.49a10.47,10.47,0,0,1,6.11,2.08,3.61,3.61,0,0,0,4.85-.72Z" transform="translate(-1.34 -10)"/><path class="cls-2" d="M422.72,321.39a4.74,4.74,0,1,1-4.72,4.73A4.73,4.73,0,0,1,422.72,321.39Z" transform="translate(-1.34 -10)"/><path class="cls-2" d="M399,321.39a4.74,4.74,0,1,1-4.73,4.73A4.72,4.72,0,0,1,399,321.39Z" transform="translate(-1.34 -10)"/><path class="cls-2" d="M392.62,198.5v15.36H191.19c-.19-.42-.39-.84-.59-1.26-1.9-4-4-8.63-5.84-13.4-1.27-3.21-2.44-6.48-3.41-9.66H383.67A9,9,0,0,1,392.62,198.5Zm-26.14,3.42a2.83,2.83,0,1,0-2.83,2.84A2.84,2.84,0,0,0,366.48,201.92Z" transform="translate(-1.34 -10)"/><path class="cls-2" d="M375.22,321.39a4.74,4.74,0,1,1-4.72,4.73A4.73,4.73,0,0,1,375.22,321.39Z" transform="translate(-1.34 -10)"/><path class="cls-2" d="M351.61,270.61a2.71,2.71,0,0,1-2.34,4.06H329a2.71,2.71,0,0,1-2.34-4.06L336.8,253a2.7,2.7,0,0,1,4.68,0Z" transform="translate(-1.34 -10)"/><path class="cls-3" d="M303,26.28a1.79,1.79,0,1,1-1.78,1.78A1.78,1.78,0,0,1,303,26.28Z" transform="translate(-1.34 -10)"/><path class="cls-3" d="M303,33.57a1.78,1.78,0,1,1-1.78,1.78A1.78,1.78,0,0,1,303,33.57Z" transform="translate(-1.34 -10)"/><path class="cls-3" d="M303,40.86a1.78,1.78,0,1,1-1.78,1.78A1.77,1.77,0,0,1,303,40.86Z" transform="translate(-1.34 -10)"/><path class="cls-3" d="M294.67,26.28a1.79,1.79,0,1,1-1.78,1.78A1.78,1.78,0,0,1,294.67,26.28Z" transform="translate(-1.34 -10)"/><path class="cls-3" d="M294.67,33.57a1.78,1.78,0,1,1-1.78,1.78A1.78,1.78,0,0,1,294.67,33.57Z" transform="translate(-1.34 -10)"/><path class="cls-3" d="M294.67,40.86a1.78,1.78,0,1,1-1.78,1.78A1.77,1.77,0,0,1,294.67,40.86Z" transform="translate(-1.34 -10)"/><path class="cls-3" d="M286.34,26.28a1.79,1.79,0,1,1-1.78,1.78A1.78,1.78,0,0,1,286.34,26.28Z" transform="translate(-1.34 -10)"/><path class="cls-3" d="M286.34,33.57a1.78,1.78,0,1,1-1.78,1.78A1.78,1.78,0,0,1,286.34,33.57Z" transform="translate(-1.34 -10)"/><path class="cls-3" d="M286.34,40.86a1.78,1.78,0,1,1-1.78,1.78A1.78,1.78,0,0,1,286.34,40.86Z" transform="translate(-1.34 -10)"/><path class="cls-3" d="M261.22,71.68s29.33,20.81,17.9,48.51a64.63,64.63,0,0,0-4.51,33.52c1,7.3-.44,18.53-7.51,35.83h-4.44C256.58,134.1,261.22,71.68,261.22,71.68Z" transform="translate(-1.34 -10)"/><polygon class="cls-3" points="266.87 355.44 262.74 358.07 256.89 361.78 266.69 377.28 257.82 382.91 248.02 367.42 238.04 373.76 237.39 358.08 236.91 346.52 236.79 343.35 236.63 339.57 243.82 343.35 243.83 343.35 249.87 346.52 266.87 355.44"/><ellipse class="cls-2" cx="245.02" cy="256.43" rx="13.83" ry="13.86"/><path class="cls-3" d="M168.2,47.89l-.36-.3s-6.7-16.39,13.08-22.94,56.3-6.42,67.39,4.42c9,8.85,7.35,24.29,7.35,24.29a8.28,8.28,0,0,0-4.8-4c-4.65-1.49-9.26,2.25-9.23,7.14,0,2.26-.28,5.61-3,6.46-5.06,1.6-16.61-7-20.08-13.44-14.17,3.37-20.9,1.2-24-1.08l-.45.43c-6.53,7.49-6,19.82-1.36,31.26h0s-22.91,3.05-27.48-15.57C163.24,56.46,165.65,51.08,168.2,47.89Z" transform="translate(-1.34 -10)"/><path class="cls-3" d="M246.37,305.89a4,4,0,1,1-4,4A4,4,0,0,1,246.37,305.89Z" transform="translate(-1.34 -10)"/><path class="cls-3" d="M232.79,305.89a4,4,0,1,1-4,4A4,4,0,0,1,232.79,305.89Z" transform="translate(-1.34 -10)"/><path class="cls-3" d="M220.06,305.89a4,4,0,1,1-4,4A4,4,0,0,1,220.06,305.89Z" transform="translate(-1.34 -10)"/><path class="cls-3" d="M218.79,68.31c.77,1.59.63,3.27-.34,3.74s-2.37-.44-3.14-2-.62-3.26.34-3.74S218,66.72,218.79,68.31Z" transform="translate(-1.34 -10)"/><path class="cls-3" d="M216.46,189.54H214c-7.06-17.3-8.51-28.53-7.5-35.83A64.53,64.53,0,0,0,202,120.19a33.24,33.24,0,0,1-.38-25,45.64,45.64,0,0,0,5.15,5.32,32.1,32.1,0,0,0,11.82,6.87S214.3,148.44,216.46,189.54Z" transform="translate(-1.34 -10)"/><path class="cls-3" d="M201.26,78c.76,1.6.62,3.28-.35,3.74s-2.36-.44-3.14-2-.62-3.26.34-3.73S200.48,76.36,201.26,78Z" transform="translate(-1.34 -10)"/><path class="cls-2" d="M192.83,213.61q2.46,5.23,4.72,10.56a111,111,0,0,0-62.12,22.57,59.18,59.18,0,0,0-5.14,4.4,88.89,88.89,0,0,1-5.83-8.47,128.05,128.05,0,0,1-8.62-16.58s34.23-28.34,70.62-27c1.85,4.73,3.9,9.32,5.78,13.27C192.44,212.77,192.64,213.19,192.83,213.61Zm-57.72,22.21c1.91-1,2.23-4.17.71-7s-4.31-4.39-6.22-3.38-2.23,4.18-.71,7.06S133.2,236.84,135.11,235.82Z" transform="translate(-1.34 -10)"/><path class="cls-2" d="M111.27,213.86h-6.92V198.75a9,9,0,0,1,2.57-6.27A108.56,108.56,0,0,0,111.27,213.86Z" transform="translate(-1.34 -10)"/><path class="cls-3" d="M246.37,63.65a.87.87,0,0,1-.76-1.32l3.88-6.55a.88.88,0,1,1,1.51.89l-3.88,6.55A.87.87,0,0,1,246.37,63.65Z" transform="translate(-1.34 -10)"/><path class="cls-3" d="M252.11,62.63a.92.92,0,0,1-.45-.12l-3.8-2.26a.88.88,0,1,1,.89-1.51L252.56,61a.88.88,0,0,1,.3,1.2A.86.86,0,0,1,252.11,62.63Z" transform="translate(-1.34 -10)"/><path class="cls-3" d="M223.83,109a20.12,20.12,0,0,1-5.51-.8,32.56,32.56,0,0,1-12.15-7,45.94,45.94,0,0,1-5.26-5.42,55.74,55.74,0,0,1-5.53-8,56.93,56.93,0,0,1-3.47-7.17c-5.26-13-4.69-25.05,1.51-32.16a.88.88,0,1,1,1.32,1.15c-5.76,6.6-6.21,17.95-1.21,30.35a56.51,56.51,0,0,0,3.37,7,54.09,54.09,0,0,0,5.36,7.74,44.08,44.08,0,0,0,5.06,5.22,30.91,30.91,0,0,0,11.48,6.69,17,17,0,0,0,8.67.31,15.2,15.2,0,0,0,1.92-.57,24.53,24.53,0,0,0,7.22-4.15c4.62-3.87,8-9.64,10.46-17.63a.88.88,0,1,1,1.68.5c-2.52,8.33-6.13,14.37-11,18.47a25.94,25.94,0,0,1-7.73,4.45,19.15,19.15,0,0,1-2.12.63A17.24,17.24,0,0,1,223.83,109Z" transform="translate(-1.34 -10)"/><path class="cls-3" d="M249.36,71.83a.88.88,0,0,1-.29-1.7,13.55,13.55,0,0,0,1.6-.69,11.43,11.43,0,0,0,3-2.21c3.7-3.84,3.26-9.48,1.18-13.36a7.37,7.37,0,0,0-4.3-3.6,5.91,5.91,0,0,0-5.39.9,6.61,6.61,0,0,0-2.69,5.4c0,1.52,0,6.15-3.6,7.3a5.47,5.47,0,0,1-1.64.23c-6.18,0-16.41-8.34-19.48-14.1a.87.87,0,1,1,1.54-.82c3.31,6.19,14.48,14.46,19,13,1.62-.51,2.4-2.35,2.38-5.62a8.41,8.41,0,0,1,3.41-6.82,7.69,7.69,0,0,1,7-1.16,9.18,9.18,0,0,1,5.3,4.44c2.38,4.45,2.85,10.93-1.47,15.41a13,13,0,0,1-3.5,2.55,17.33,17.33,0,0,1-1.81.78A.93.93,0,0,1,249.36,71.83Z" transform="translate(-1.34 -10)"/><path class="cls-3" d="M217.88,94.5a.88.88,0,0,1-.87-.79.87.87,0,0,1,.79-.95,6.43,6.43,0,0,0,5.78-5.59.88.88,0,1,1,1.74.2A8.13,8.13,0,0,1,218,94.5Z" transform="translate(-1.34 -10)"/><path class="cls-3" d="M225.34,87.87a7,7,0,0,1-4.86-2.27.88.88,0,0,1,.06-1.24.87.87,0,0,1,1.23.06c.32.35,3.18,3.26,6.25.58a.88.88,0,0,1,1.24.08.89.89,0,0,1-.09,1.24A5.74,5.74,0,0,1,225.34,87.87Z" transform="translate(-1.34 -10)"/><path class="cls-3" d="M211.51,87.52a5,5,0,0,1-3.95-1.6c-.91-1.15-1-2.72-.35-4.67,1.3-3.74-.84-5.2-.93-5.26a.89.89,0,0,1-.26-1.21.87.87,0,0,1,1.19-.27c.14.09,3.42,2.21,1.65,7.31-.47,1.35-.44,2.37.07,3a3.71,3.71,0,0,0,3.12.92.87.87,0,0,1,.18,1.74Q211.89,87.52,211.51,87.52Z" transform="translate(-1.34 -10)"/><path class="cls-3" d="M210.28,65.51a.88.88,0,0,1-.57-1.54,14,14,0,0,1,8.63-3.41.89.89,0,0,1,.86.89.87.87,0,0,1-.89.86h0a12.34,12.34,0,0,0-7.46,3A.86.86,0,0,1,210.28,65.51Z" transform="translate(-1.34 -10)"/><path class="cls-3" d="M192,78.47h-.15a.87.87,0,0,1-.71-1c.84-5,6.24-6.87,6.47-7a.88.88,0,1,1,.56,1.66c-.09,0-4.64,1.64-5.31,5.58A.87.87,0,0,1,192,78.47Z" transform="translate(-1.34 -10)"/><path class="cls-3" d="M145,389.54a31.31,31.31,0,0,1-31.23-31.31c0-.54,0-1.08.05-1.62a31.23,31.23,0,0,1,61.55-5.74,30.89,30.89,0,0,1,.82,5.75c0,.53.05,1.07.05,1.61A31.28,31.28,0,0,1,145,389.54Zm0-60.86a29.48,29.48,0,0,0-29.44,28c0,.51,0,1,0,1.52A29.56,29.56,0,0,0,145,387.79a29.21,29.21,0,0,0,21.52-9.34,29.51,29.51,0,0,0,8-20.22c0-.51,0-1,0-1.52h0a29.49,29.49,0,0,0-29.45-28Z" transform="translate(-1.34 -10)"/><path class="cls-3" d="M135.18,357.09a6,6,0,1,1,6-6A6,6,0,0,1,135.18,357.09Zm0-10.28a4.27,4.27,0,1,0,4.26,4.27A4.27,4.27,0,0,0,135.18,346.81Z" transform="translate(-1.34 -10)"/><path class="cls-3" d="M154.09,372.08a6,6,0,1,1,6-6A6,6,0,0,1,154.09,372.08Zm0-10.28a4.27,4.27,0,1,0,4.26,4.27A4.27,4.27,0,0,0,154.09,361.8Z" transform="translate(-1.34 -10)"/><path class="cls-3" d="M136.83,374.77a1,1,0,0,1-.41-.09.88.88,0,0,1-.37-1.18l16.3-31.33a.87.87,0,0,1,1.55.81L137.6,374.3A.86.86,0,0,1,136.83,374.77Z" transform="translate(-1.34 -10)"/><path class="cls-3" d="M416.22,257.58a6.45,6.45,0,1,1,6.43-6.44A6.44,6.44,0,0,1,416.22,257.58Zm0-11.14a4.7,4.7,0,1,0,4.69,4.7A4.7,4.7,0,0,0,416.22,246.44Z" transform="translate(-1.34 -10)"/><path class="cls-3" d="M259.17,393.93l-.19,0a.89.89,0,0,1-.55-.39l-9.33-14.75-9.25,5.87a.87.87,0,0,1-.87,0,.85.85,0,0,1-.47-.73l-1.41-34.19a.88.88,0,0,1,1.28-.81l7.11,3.74.09,0,23,12.09a.87.87,0,0,1,.06,1.51l-9.24,5.87L268.77,387a.86.86,0,0,1-.27,1.2l-8.86,5.63A.89.89,0,0,1,259.17,393.93Zm-9.8-17.24a.65.65,0,0,1,.19,0,.88.88,0,0,1,.54.38l9.34,14.75,7.39-4.69-9.33-14.76a.87.87,0,0,1,.27-1.21l8.7-5.52-21.63-11.35-.09,0-5.84-3.07,1.28,31.15,8.71-5.53A.85.85,0,0,1,249.37,376.69Z" transform="translate(-1.34 -10)"/><path class="cls-3" d="M452,363.67a.88.88,0,0,1-.77-.46l-7.69-14H355.59a8.92,8.92,0,0,1-8.91-8.91v-29a8.92,8.92,0,0,1,8.91-8.91h88.46a8.92,8.92,0,0,1,8.91,8.91l-.09,51.48a.9.9,0,0,1-.66.85A.83.83,0,0,1,452,363.67Zm-96.4-59.52a7.17,7.17,0,0,0-7.16,7.16v29a7.17,7.17,0,0,0,7.16,7.16h88.46a.87.87,0,0,1,.77.45l6.3,11.47.09-48.08a7.17,7.17,0,0,0-7.16-7.16Z" transform="translate(-1.34 -10)"/><path class="cls-3" d="M422.72,331.73a5.61,5.61,0,1,1,5.6-5.61A5.6,5.6,0,0,1,422.72,331.73Zm0-9.47a3.86,3.86,0,1,0,3.85,3.86A3.86,3.86,0,0,0,422.72,322.26Z" transform="translate(-1.34 -10)"/><path class="cls-3" d="M375.22,331.73a5.61,5.61,0,1,1,5.6-5.61A5.6,5.6,0,0,1,375.22,331.73Zm0-9.47a3.86,3.86,0,1,0,3.85,3.86A3.86,3.86,0,0,0,375.22,322.26Z" transform="translate(-1.34 -10)"/><path class="cls-3" d="M399,331.73a5.61,5.61,0,1,1,5.59-5.61A5.61,5.61,0,0,1,399,331.73Zm0-9.47a3.86,3.86,0,1,0,3.84,3.86A3.87,3.87,0,0,0,399,322.26Z" transform="translate(-1.34 -10)"/><path class="cls-3" d="M363.65,205.63a3.71,3.71,0,1,1,3.7-3.71A3.71,3.71,0,0,1,363.65,205.63Zm0-5.67a2,2,0,1,0,2,2A2,2,0,0,0,363.65,200Z" transform="translate(-1.34 -10)"/><path class="cls-3" d="M378.92,206.18a.87.87,0,0,1-.61-.26l-6.75-6.76a.88.88,0,0,1,1.24-1.24l6.74,6.76a.88.88,0,0,1,0,1.24A.87.87,0,0,1,378.92,206.18Z" transform="translate(-1.34 -10)"/><path class="cls-3" d="M372.18,206.18a.88.88,0,0,1-.62-1.5l6.75-6.76a.87.87,0,0,1,1.23,0,.88.88,0,0,1,0,1.24l-6.74,6.76A.89.89,0,0,1,372.18,206.18Z" transform="translate(-1.34 -10)"/><path class="cls-3" d="M355.42,206.16H349a.88.88,0,1,1,0-1.75h6.43a.88.88,0,1,1,0,1.75Z" transform="translate(-1.34 -10)"/><path class="cls-3" d="M383.35,357.8H251a.88.88,0,1,1,0-1.75H383.35a8.07,8.07,0,0,0,8-7.15.88.88,0,0,1,1.74.21A9.83,9.83,0,0,1,383.35,357.8Z" transform="translate(-1.34 -10)"/><path class="cls-3" d="M114.36,357.8h-1a9.85,9.85,0,0,1-9.84-9.84V198.75a9.79,9.79,0,0,1,2.82-6.87.87.87,0,0,1,1.25,1.22,8.08,8.08,0,0,0-2.32,5.65V348a8.1,8.1,0,0,0,8.09,8.09h1a.88.88,0,1,1,0,1.75Z" transform="translate(-1.34 -10)"/><path class="cls-3" d="M238.11,357.8h-63a.88.88,0,0,1,0-1.75h63a.88.88,0,1,1,0,1.75Z" transform="translate(-1.34 -10)"/><path class="cls-3" d="M392.62,304.15a.87.87,0,0,1-.87-.87V198.5a8.09,8.09,0,0,0-8.08-8.08H183.75a.88.88,0,1,1,0-1.75H383.67a9.83,9.83,0,0,1,9.82,9.83V303.28A.87.87,0,0,1,392.62,304.15Z" transform="translate(-1.34 -10)"/><path class="cls-3" d="M392.62,214.74H193.05a.88.88,0,1,1,0-1.75H392.62a.88.88,0,0,1,0,1.75Z" transform="translate(-1.34 -10)"/><path class="cls-3" d="M111.5,214.74h-7.15a.88.88,0,1,1,0-1.75h7.15a.88.88,0,1,1,0,1.75Z" transform="translate(-1.34 -10)"/><path class="cls-3" d="M363.89,190.4a.89.89,0,0,1-.85-.64h0a9.16,9.16,0,0,0-9-6.41,6.92,6.92,0,0,0-5.66,2.56,9.25,9.25,0,0,0-1.76,3.76.87.87,0,1,1-1.72-.29,10.68,10.68,0,0,1,2.12-4.57,8.71,8.71,0,0,1,7-3.21,11.07,11.07,0,0,1,10.72,7.69.88.88,0,0,1-.61,1.08Z" transform="translate(-1.34 -10)"/><path class="cls-3" d="M325.63,190.66h-.15a.88.88,0,0,1-.72-1,14.06,14.06,0,0,1,2-4.87l.06-.08a11.2,11.2,0,0,1,9.88-5.2,14.09,14.09,0,0,1,11.7,5.59.88.88,0,1,1-1.4,1.06,12.35,12.35,0,0,0-10.3-4.9,9.45,9.45,0,0,0-8.46,4.47l-.06.08a12.39,12.39,0,0,0-1.66,4.13A.87.87,0,0,1,325.63,190.66Z" transform="translate(-1.34 -10)"/><path class="cls-3" d="M303.24,190.4h-.15a.89.89,0,0,1-.72-1,15.4,15.4,0,0,1,1.81-4.74,12.25,12.25,0,0,1,11.17-6.32,15.35,15.35,0,0,1,12.77,6.1.88.88,0,0,1-1.4,1.06,13.64,13.64,0,0,0-11.37-5.41,10.57,10.57,0,0,0-9.66,5.45,13.6,13.6,0,0,0-1.59,4.14A.88.88,0,0,1,303.24,190.4Z" transform="translate(-1.34 -10)"/><path class="cls-3" d="M280.32,190.4h-.14a.89.89,0,0,1-.73-1c0-.11,1.93-11.06,13-11.06a17.16,17.16,0,0,1,5.84,1,14.81,14.81,0,0,1,6.92,5.13.87.87,0,0,1-1.39,1.06,13.2,13.2,0,0,0-6.12-4.55,15.46,15.46,0,0,0-5.25-.86c-9.58,0-11.19,9.2-11.25,9.59A.88.88,0,0,1,280.32,190.4Z" transform="translate(-1.34 -10)"/><path class="cls-3" d="M63.75,160.11A4.25,4.25,0,1,1,68,155.87,4.24,4.24,0,0,1,63.75,160.11Zm0-6.75a2.5,2.5,0,1,0,2.48,2.51A2.5,2.5,0,0,0,63.75,153.36Z" transform="translate(-1.34 -10)"/><path class="cls-3" d="M47.23,160.11a4.25,4.25,0,1,1,4.24-4.24A4.24,4.24,0,0,1,47.23,160.11Zm0-6.75a2.5,2.5,0,1,0,2.49,2.51A2.51,2.51,0,0,0,47.23,153.36Z" transform="translate(-1.34 -10)"/><path class="cls-3" d="M79.6,160.11a4.25,4.25,0,1,1,4.24-4.24A4.24,4.24,0,0,1,79.6,160.11Zm0-6.75a2.5,2.5,0,1,0,2.49,2.51A2.51,2.51,0,0,0,79.6,153.36Z" transform="translate(-1.34 -10)"/><path class="cls-3" d="M63.75,144.94A4.25,4.25,0,1,1,68,140.7,4.24,4.24,0,0,1,63.75,144.94Zm0-6.74a2.5,2.5,0,1,0,2.48,2.5A2.49,2.49,0,0,0,63.75,138.2Z" transform="translate(-1.34 -10)"/><path class="cls-3" d="M47.23,144.94a4.25,4.25,0,1,1,4.24-4.24A4.24,4.24,0,0,1,47.23,144.94Zm0-6.74a2.5,2.5,0,1,0,2.49,2.5A2.5,2.5,0,0,0,47.23,138.2Z" transform="translate(-1.34 -10)"/><path class="cls-3" d="M79.6,144.94a4.25,4.25,0,1,1,4.24-4.24A4.24,4.24,0,0,1,79.6,144.94Zm0-6.74a2.5,2.5,0,1,0,2.49,2.5A2.5,2.5,0,0,0,79.6,138.2Z" transform="translate(-1.34 -10)"/><path class="cls-3" d="M63.75,175.74A4.25,4.25,0,1,1,68,171.49,4.24,4.24,0,0,1,63.75,175.74Zm0-6.74a2.5,2.5,0,1,0,2.48,2.49A2.49,2.49,0,0,0,63.75,169Z" transform="translate(-1.34 -10)"/><path class="cls-3" d="M47.23,175.74a4.25,4.25,0,1,1,4.24-4.25A4.24,4.24,0,0,1,47.23,175.74Zm0-6.74a2.5,2.5,0,1,0,2.49,2.49A2.5,2.5,0,0,0,47.23,169Z" transform="translate(-1.34 -10)"/><path class="cls-3" d="M79.6,175.74a4.25,4.25,0,1,1,4.24-4.25A4.24,4.24,0,0,1,79.6,175.74Zm0-6.74a2.5,2.5,0,1,0,2.49,2.49A2.5,2.5,0,0,0,79.6,169Z" transform="translate(-1.34 -10)"/><path class="cls-3" d="M125.56,117.39A3.66,3.66,0,0,1,123,116.3l-6.52-6.52a1.87,1.87,0,0,0-2.6,0l-6.51,6.52a3.69,3.69,0,0,1-2.79,1.08,3.6,3.6,0,0,1-2.66-1.32,3.8,3.8,0,0,1,.33-5.09l6.4-6.43a1.85,1.85,0,0,0,0-2.61l-6.51-6.52a3.7,3.7,0,1,1,5.33-5.13l6.41,6.42a1.87,1.87,0,0,0,2.6,0l6.51-6.53a3.69,3.69,0,0,1,5.45.25,3.8,3.8,0,0,1-.32,5.09l-6.41,6.42a1.85,1.85,0,0,0,0,2.61l6.41,6.43a3.8,3.8,0,0,1,.32,5.09,3.64,3.64,0,0,1-2.67,1.32Zm-10.43-9.9a3.56,3.56,0,0,1,2.54,1.05l6.51,6.53a2,2,0,0,0,1.47.57,2,2,0,0,0,1.4-.7,2,2,0,0,0-.22-2.73h0l-6.41-6.42a3.6,3.6,0,0,1,0-5.08l6.41-6.43a2,2,0,0,0,.22-2.73,1.88,1.88,0,0,0-1.4-.7,1.93,1.93,0,0,0-1.47.57l-6.51,6.53a3.56,3.56,0,0,1-2.54,1,3.52,3.52,0,0,1-2.53-1l-6.42-6.43a2,2,0,0,0-2.72-.22,1.92,1.92,0,0,0-.7,1.42,1.94,1.94,0,0,0,.57,1.46l6.51,6.53a3.6,3.6,0,0,1,0,5.08l-6.4,6.42a2.06,2.06,0,0,0-.23,2.74,2,2,0,0,0,1.4.7,2,2,0,0,0,1.47-.57l6.52-6.53A3.52,3.52,0,0,1,115.13,107.49Z" transform="translate(-1.34 -10)"/><path class="cls-3" d="M133.81,237a4.43,4.43,0,0,1-1.32-.21,8,8,0,0,1-4.37-3.95h0c-1.78-3.36-1.31-7,1.07-8.24a3.89,3.89,0,0,1,3-.21,7.92,7.92,0,0,1,4.37,4c1.77,3.36,1.31,7-1.07,8.24A3.7,3.7,0,0,1,133.81,237Zm-4.14-5a6.19,6.19,0,0,0,3.33,3.1,2.26,2.26,0,0,0,1.7-.09c1.46-.77,1.62-3.46.35-5.87a6.2,6.2,0,0,0-3.34-3.1,2.21,2.21,0,0,0-1.7.09c-1.46.77-1.62,3.46-.34,5.87Z" transform="translate(-1.34 -10)"/><path class="cls-3" d="M236.67,134.46a3.3,3.3,0,0,1-1-.15,5.5,5.5,0,0,1-3.05-2.75h0c-1.25-2.36-.89-4.92.82-5.83s4,.23,5.28,2.59a5.9,5.9,0,0,1,.72,3.28,3.1,3.1,0,0,1-1.55,2.54A2.59,2.59,0,0,1,236.67,134.46Zm-2.47-3.72a3.77,3.77,0,0,0,2,1.89,1.12,1.12,0,0,0,.89,0,1.49,1.49,0,0,0,.63-1.18,4.15,4.15,0,0,0-.52-2.28c-.83-1.57-2.21-2.24-2.92-1.87s-.93,1.9-.1,3.47Z" transform="translate(-1.34 -10)"/><path class="cls-3" d="M236.67,157a3.3,3.3,0,0,1-1-.15,5.48,5.48,0,0,1-3.05-2.74h0c-1.25-2.36-.89-4.92.82-5.84s4,.23,5.28,2.59.89,4.92-.83,5.83A2.58,2.58,0,0,1,236.67,157Zm-2.47-3.71a3.85,3.85,0,0,0,2,1.89,1.16,1.16,0,0,0,.89,0c.72-.38.94-1.89.11-3.46s-2.21-2.24-2.92-1.86-.93,1.9-.1,3.47Z" transform="translate(-1.34 -10)"/><path class="cls-3" d="M425,208.9a.87.87,0,0,1-.62-1.49l4.27-4.27a.87.87,0,1,1,1.24,1.23l-4.27,4.28A.86.86,0,0,1,425,208.9Z" transform="translate(-1.34 -10)"/><path class="cls-3" d="M414,220a.87.87,0,0,1-.62-1.49l4.26-4.28a.88.88,0,0,1,1.24,1.24l-4.26,4.28A.86.86,0,0,1,414,220Z" transform="translate(-1.34 -10)"/><path class="cls-3" d="M429.39,220a.87.87,0,0,1-.62-.26l-4.27-4.27a.88.88,0,1,1,1.24-1.24l4.27,4.28a.87.87,0,0,1,0,1.23A.91.91,0,0,1,429.39,220Z" transform="translate(-1.34 -10)"/><path class="cls-3" d="M418.35,209a.88.88,0,0,1-.62-.25l-4.26-4.28a.88.88,0,0,1,1.24-1.24l4.26,4.28a.87.87,0,0,1-.62,1.49Z" transform="translate(-1.34 -10)"/><path class="cls-3" d="M439.41,185.79a31.7,31.7,0,0,1-31.64-31.7c0-1.09.06-2.17.16-3.22a31.6,31.6,0,0,1,26.84-28.15,32.28,32.28,0,0,1,4.64-.34,31.71,31.71,0,0,1,0,63.41Zm0-61.66a30,30,0,0,0-4.38.32h0a29.84,29.84,0,0,0-25.35,26.6,30.34,30.34,0,0,0-.15,3,29.89,29.89,0,1,0,29.89-30Zm-4.51-.54Z" transform="translate(-1.34 -10)"/><path class="cls-3" d="M436.46,169a3.37,3.37,0,0,1-2.53-1.14l-12.31-14a3.41,3.41,0,0,1,.3-4.78,3.37,3.37,0,0,1,4.77.3l9.61,10.91L452,140.14a3.38,3.38,0,0,1,5.48.21,3.42,3.42,0,0,1-.19,4l-18.16,23.31a3.34,3.34,0,0,1-2.56,1.3Zm-12.3-19a1.63,1.63,0,0,0-1.22,2.72l12.3,14a1.62,1.62,0,0,0,1.22.55h.07a1.61,1.61,0,0,0,1.21-.62l18.16-23.32a1.65,1.65,0,0,0,.13-1.93,1.62,1.62,0,0,0-1.33-.75,1.59,1.59,0,0,0-1.33.62l-16.34,21a.86.86,0,0,1-.66.34.84.84,0,0,1-.68-.3l-10.31-11.69a1.59,1.59,0,0,0-1.12-.55Z" transform="translate(-1.34 -10)"/><path class="cls-3" d="M192.25,307.78a6,6,0,0,1-4-1.32c-4.35-3.79-2.49-8.58-.33-14.13,1.66-4.29,3.55-9.15,3.5-15a.86.86,0,0,1,.86-.88.91.91,0,0,1,.89.87c.05,6.18-2,11.42-3.62,15.64-2.35,6.05-3.42,9.33-.15,12.19,1.29,1.12,3.77,1.18,6.31.15,3-1.21,12.78-6.89,14.56-29.23.78-9.77-2.1-20.16-5-29-2.47-7.5-5.32-15.07-8.49-22.52-1.54-3.61-3.12-7.15-4.71-10.54l-.45-.95-.14-.3c-2.21-4.66-4.16-9.15-5.81-13.32-1.34-3.4-2.48-6.64-3.39-9.63-3.46-11.32-3.49-18.85-.09-22.37a.88.88,0,0,1,1.24,0,.87.87,0,0,1,0,1.24c-2.88,3-2.71,10.12.5,20.64.9,2.95,2,6.14,3.35,9.49,1.63,4.15,3.57,8.59,5.76,13.22l.15.3c.15.32.3.64.44,1,1.6,3.4,3.2,7,4.74,10.59,3.19,7.5,6.06,15.12,8.54,22.66,3,9,5.91,19.64,5.11,29.72-1.87,23.33-12.45,29.4-15.65,30.71A11,11,0,0,1,192.25,307.78Z" transform="translate(-1.34 -10)"/><path class="cls-3" d="M205.65,52.21c-6,0-9.52-1.45-11.63-3a7.58,7.58,0,0,1-2.88-3.56.87.87,0,0,1,1.67-.51,6.24,6.24,0,0,0,2.24,2.66c3,2.23,9.57,4.21,23.31.94.82-.19,1.67-.4,2.54-.64a.86.86,0,0,1,1.07.62.87.87,0,0,1-.61,1.07c-.9.24-1.76.46-2.6.65A56.94,56.94,0,0,1,205.65,52.21Z" transform="translate(-1.34 -10)"/><path class="cls-3" d="M255.66,54.33h-.09a.88.88,0,0,1-.78-1c0-.15,1.53-15.12-7.1-23.56-10.32-10.1-46.21-10.94-66.49-4.22-6.16,2-10.28,5.25-12.25,9.54-2.78,6-.32,12.18-.3,12.24A.88.88,0,0,1,167,48a18.54,18.54,0,0,1,.33-13.65c2.18-4.74,6.65-8.26,13.29-10.46,20.92-6.93,57.26-6.14,68.27,4.63,9.24,9,7.68,24.35,7.61,25A.88.88,0,0,1,255.66,54.33Z" transform="translate(-1.34 -10)"/><path class="cls-3" d="M189.33,81.24c-6.77,0-21.35-1.75-25-16.4-2.1-8.52.55-14.16,3.14-17.39a15.86,15.86,0,0,1,4.49-4,.87.87,0,1,1,.82,1.54,14.53,14.53,0,0,0-3.94,3.52c-2.35,2.93-4.74,8.06-2.81,15.88,4.33,17.64,25.61,15,26.52,14.91a.88.88,0,0,1,.23,1.74A30.66,30.66,0,0,1,189.33,81.24Z" transform="translate(-1.34 -10)"/><path class="cls-3" d="M237.17,103.62a.87.87,0,0,1-.87-.83.86.86,0,0,1,.83-.91,20.24,20.24,0,0,0,15.2-10.54c4-7.12,3-15.71,2-20.2-.41-1.85-.81-3-.81-3a.87.87,0,1,1,1.65-.58,28.49,28.49,0,0,1,.87,3.22c1,4.73,2.15,13.81-2.18,21.43-6.11,10.79-16.21,11.4-16.64,11.42Z" transform="translate(-1.34 -10)"/><path class="cls-3" d="M177.94,295.37a10.37,10.37,0,0,1-5-1.22,9.53,9.53,0,0,1-2.78-2.2.87.87,0,1,1,1.31-1.16,8.18,8.18,0,0,0,2.29,1.82c2.33,1.25,5.19,1.34,8.53.27,7.17-2.3,8.82-11.66,9.2-15.61v0c.12-1.22.12-2,.12-2a.88.88,0,0,1,.87-.88h0a.88.88,0,0,1,.87.88s0,.85-.12,2.15v0c-.4,4.28-2.23,14.51-10.4,17.14A16,16,0,0,1,177.94,295.37Z" transform="translate(-1.34 -10)"/><path class="cls-3" d="M165.41,293.42a9.16,9.16,0,0,1-8.25-4.83,1,1,0,0,1-.12-.45.88.88,0,0,1,1.62-.46l.05.08c.49.95,3.29,5.58,10.58,3.24a10.78,10.78,0,0,0,1.07-.42c7.14-3.36,7.24-15.24,7.24-15.36a.87.87,0,0,1,.87-.88h0a.89.89,0,0,1,.88.88c0,.53-.1,13.11-8.25,16.94a9.16,9.16,0,0,1-1.28.5A14.23,14.23,0,0,1,165.41,293.42Zm-6.62-5.28h0Z" transform="translate(-1.34 -10)"/><path class="cls-3" d="M151.33,290.59a11.32,11.32,0,0,1-10.5-6.37c-2.15-4.48-1-9.36,2.73-11.86a.88.88,0,1,1,1,1.46c-3.51,2.33-3.56,6.64-2.12,9.64,1.7,3.56,6.26,6.91,13.51,4.62a8.19,8.19,0,0,0,1.58-.68c6.22-3.5,6.29-14.2,6.29-14.31a.87.87,0,0,1,.88-.88h0a.87.87,0,0,1,.87.88c0,.48-.08,11.84-7.18,15.83a9.94,9.94,0,0,1-1.92.83A16.8,16.8,0,0,1,151.33,290.59Z" transform="translate(-1.34 -10)"/><path class="cls-3" d="M145,278.19a.87.87,0,0,1-.85-.71c-.25-1.27-.55-2.64-.92-4.19A215,215,0,0,0,136,250.58c-.49-1.32-1-2.51-1.34-3.52a.88.88,0,1,1,1.63-.64c.4,1,.85,2.22,1.35,3.54a216.09,216.09,0,0,1,7.3,22.92c.38,1.58.69,3,.93,4.27a.87.87,0,0,1-.69,1Z" transform="translate(-1.34 -10)"/><path class="cls-3" d="M130.29,252h0a.89.89,0,0,1-.64-.32,86.88,86.88,0,0,1-5.9-8.56A130,130,0,0,1,115,226.44a123.79,123.79,0,0,1-4.64-12.58A110.38,110.38,0,0,1,106,192.31a97,97,0,0,1,2-31.8c6.25-26.63,29.84-45.36,48.52-56.39a200.53,200.53,0,0,1,39.33-17.69.88.88,0,1,1,.5,1.68,197.26,197.26,0,0,0-39,17.54c-18.38,10.85-41.57,29.24-47.68,55.26a95.43,95.43,0,0,0-2,31.23,109.26,109.26,0,0,0,4.31,21.21,125.18,125.18,0,0,0,4.58,12.4,127.05,127.05,0,0,0,8.56,16.46c2.34,3.79,4.27,6.42,5.19,7.63.81-.76,2.32-2.09,4.51-3.79a111.26,111.26,0,0,1,62.61-22.75.88.88,0,1,1,.08,1.75A109.48,109.48,0,0,0,136,247.43a59.06,59.06,0,0,0-5.06,4.33A.89.89,0,0,1,130.29,252Z" transform="translate(-1.34 -10)"/><path class="cls-3" d="M187.61,190.4a.88.88,0,0,1-.86-.75A157.77,157.77,0,0,0,182,168.26c-3.46-11.91-7.29-21.31-7.33-21.41a.87.87,0,0,1,1.62-.66c0,.1,3.9,9.58,7.39,21.59a159.63,159.63,0,0,1,4.84,21.62.87.87,0,0,1-.74,1Z" transform="translate(-1.34 -10)"/><path class="cls-3" d="M115.84,227a.87.87,0,0,1-.56-1.55c.34-.29,34.9-28.54,71.21-27.21a.87.87,0,0,1,.84.91.89.89,0,0,1-.91.84c-35.64-1.31-69.69,26.53-70,26.81A.89.89,0,0,1,115.84,227Z" transform="translate(-1.34 -10)"/><path class="cls-3" d="M130.29,252a.87.87,0,0,1-.87-.75.89.89,0,0,1,.76-1l6.48-.87a.88.88,0,1,1,.24,1.74l-6.49.87Z" transform="translate(-1.34 -10)"/><path class="cls-3" d="M216.46,190.4a.87.87,0,0,1-.87-.83c-2.14-40.7,2.06-81.92,2.1-82.33a.87.87,0,1,1,1.74.18c0,.41-4.23,41.5-2.09,82.06a.89.89,0,0,1-.83.92Z" transform="translate(-1.34 -10)"/><path class="cls-3" d="M369,190.4a.87.87,0,0,1-.87-.79,159.07,159.07,0,0,0-7.68-36.35c-7.26-21.06-19.15-38.65-35.34-52.27-24.65-20.73-53-26.81-64-28.47-3.74-.56-5.95-.69-6-.69a.88.88,0,0,1,.1-1.75c.1,0,2.31.14,6.13.71,11.19,1.68,39.92,7.85,64.91,28.86,16.43,13.83,28.5,31.68,35.86,53a160.85,160.85,0,0,1,7.77,36.75.87.87,0,0,1-.79.95Z" transform="translate(-1.34 -10)"/><path class="cls-3" d="M262.66,190.4a.88.88,0,0,1-.87-.78c-6-54.89-1.49-117.4-1.44-118a.87.87,0,1,1,1.74.13c0,.62-4.57,63,1.44,117.71a.88.88,0,0,1-.78,1Z" transform="translate(-1.34 -10)"/><path class="cls-3" d="M298.2,181.12a.88.88,0,0,1-.88-.88v-.13s0-.08,0-.12a97.24,97.24,0,0,0,.22-20.56c-.71-9.26-2.09-16.87-2.1-16.94a.87.87,0,0,1,.7-1,.88.88,0,0,1,1,.7c0,.08,1.41,7.77,2.13,17.13a99.49,99.49,0,0,1-.23,20.87v.07A.87.87,0,0,1,298.2,181.12Z" transform="translate(-1.34 -10)"/><path class="cls-3" d="M298.2,160.24l-.23,0c-5.85-1.65-9.25-10.71-9.39-11.1a.87.87,0,1,1,1.64-.6c0,.08,3.24,8.6,8.22,10a.88.88,0,0,1-.24,1.72Z" transform="translate(-1.34 -10)"/><path class="cls-3" d="M267.1,190.4a.78.78,0,0,1-.33-.07.87.87,0,0,1-.48-1.14c6.11-15,8.62-26.87,7.45-35.38a65.9,65.9,0,0,1,4.57-34c11-26.72-17.31-47.26-17.6-47.46a.88.88,0,0,1-.2-1.22.87.87,0,0,1,1.21-.21c.3.21,29.77,21.54,18.21,49.56a63.91,63.91,0,0,0-4.45,33.07c1.21,8.82-1.34,21-7.57,36.28A.88.88,0,0,1,267.1,190.4Z" transform="translate(-1.34 -10)"/><path class="cls-3" d="M214,190.4a.89.89,0,0,1-.81-.55c-6.23-15.27-8.78-27.47-7.56-36.28a64,64,0,0,0-4.46-33.07,34.06,34.06,0,0,1-.39-25.66.87.87,0,1,1,1.64.61,32.34,32.34,0,0,0,.37,24.38,65.69,65.69,0,0,1,4.57,34c-1.17,8.5,1.34,20.4,7.45,35.38a.86.86,0,0,1-.48,1.14A.75.75,0,0,1,214,190.4Z" transform="translate(-1.34 -10)"/><path class="cls-3" d="M362.71,294.14H316a7.88,7.88,0,0,1-7.9-7.85v-39.7a7.88,7.88,0,0,1,7.9-7.85h46.76a7.88,7.88,0,0,1,7.89,7.85v39.7A7.88,7.88,0,0,1,362.71,294.14ZM316,240.49a6.14,6.14,0,0,0-6.15,6.1v39.7a6.14,6.14,0,0,0,6.15,6.1h46.76a6.14,6.14,0,0,0,6.15-6.1v-39.7a6.14,6.14,0,0,0-6.15-6.1Z" transform="translate(-1.34 -10)"/><path class="cls-3" d="M269.72,294.14H223a7.88,7.88,0,0,1-7.9-7.85v-39.7a7.88,7.88,0,0,1,7.9-7.85h46.76a7.88,7.88,0,0,1,7.89,7.85v39.7A7.88,7.88,0,0,1,269.72,294.14ZM223,240.49a6.14,6.14,0,0,0-6.15,6.1v39.7a6.14,6.14,0,0,0,6.15,6.1h46.76a6.13,6.13,0,0,0,6.14-6.1v-39.7a6.13,6.13,0,0,0-6.14-6.1Z" transform="translate(-1.34 -10)"/><path class="cls-3" d="M173.73,294.14H130.65a7.88,7.88,0,0,1-7.86-7.88V246.37a7.8,7.8,0,0,1,1.28-4.3.87.87,0,0,1,1.21-.25.86.86,0,0,1,.25,1.21,6.08,6.08,0,0,0-1,3.34v39.89a6.13,6.13,0,0,0,6.11,6.13h43.08a.88.88,0,1,1,0,1.75Z" transform="translate(-1.34 -10)"/><path class="cls-3" d="M246.37,281.17a14.74,14.74,0,1,1,14.7-14.74A14.74,14.74,0,0,1,246.37,281.17Zm0-27.72a13,13,0,1,0,12.95,13A13,13,0,0,0,246.37,253.45Z" transform="translate(-1.34 -10)"/><path class="cls-3" d="M349.27,275.54H329a3.58,3.58,0,0,1-3.1-5.37L336,252.59a3.57,3.57,0,0,1,3.09-1.8h0a3.55,3.55,0,0,1,3.1,1.79l10.13,17.59a3.58,3.58,0,0,1-3.1,5.37Zm-10.13-23h0a1.82,1.82,0,0,0-1.58.92h0l-10.13,17.59a1.83,1.83,0,0,0,1.58,2.74h20.26a1.83,1.83,0,0,0,1.58-2.74l-10.13-17.59A1.82,1.82,0,0,0,339.14,252.54Zm-2.34.48h0Z" transform="translate(-1.34 -10)"/><path class="cls-3" d="M220.06,314.71a4.85,4.85,0,1,1,4.84-4.85A4.85,4.85,0,0,1,220.06,314.71Zm0-7.95a3.1,3.1,0,1,0,3.09,3.1A3.09,3.09,0,0,0,220.06,306.76Z" transform="translate(-1.34 -10)"/><path class="cls-3" d="M272.68,314.71a4.85,4.85,0,1,1,4.84-4.85A4.85,4.85,0,0,1,272.68,314.71Zm0-7.95a3.1,3.1,0,1,0,3.09,3.1A3.1,3.1,0,0,0,272.68,306.76Z" transform="translate(-1.34 -10)"/><path class="cls-3" d="M246.37,314.71a4.85,4.85,0,1,1,4.84-4.85A4.85,4.85,0,0,1,246.37,314.71Zm0-7.95a3.1,3.1,0,1,0,3.09,3.1A3.1,3.1,0,0,0,246.37,306.76Z" transform="translate(-1.34 -10)"/><path class="cls-3" d="M232.79,314.71a4.85,4.85,0,1,1,4.84-4.85A4.85,4.85,0,0,1,232.79,314.71Zm0-7.95a3.1,3.1,0,1,0,3.09,3.1A3.09,3.09,0,0,0,232.79,306.76Z" transform="translate(-1.34 -10)"/><path class="cls-3" d="M259.52,314.71a4.85,4.85,0,1,1,4.84-4.85A4.85,4.85,0,0,1,259.52,314.71Zm0-7.95a3.1,3.1,0,1,0,3.09,3.1A3.09,3.09,0,0,0,259.52,306.76Z" transform="translate(-1.34 -10)"/><path class="cls-3" d="M312.83,314.71a4.85,4.85,0,1,1,4.84-4.85A4.85,4.85,0,0,1,312.83,314.71Zm0-7.95a3.1,3.1,0,1,0,3.09,3.1A3.09,3.09,0,0,0,312.83,306.76Z" transform="translate(-1.34 -10)"/><path class="cls-3" d="M339.14,314.71a4.85,4.85,0,1,1,4.84-4.85A4.85,4.85,0,0,1,339.14,314.71Zm0-7.95a3.1,3.1,0,1,0,3.09,3.1A3.09,3.09,0,0,0,339.14,306.76Z" transform="translate(-1.34 -10)"/><path class="cls-3" d="M325.57,314.71a4.85,4.85,0,1,1,4.84-4.85A4.85,4.85,0,0,1,325.57,314.71Zm0-7.95a3.1,3.1,0,1,0,3.09,3.1A3.1,3.1,0,0,0,325.57,306.76Z" transform="translate(-1.34 -10)"/><path class="cls-3" d="M127.28,314.71a4.85,4.85,0,1,1,4.84-4.85A4.85,4.85,0,0,1,127.28,314.71Zm0-7.95a3.1,3.1,0,1,0,3.09,3.1A3.1,3.1,0,0,0,127.28,306.76Z" transform="translate(-1.34 -10)"/><path class="cls-3" d="M179.9,314.71a4.85,4.85,0,1,1,4.84-4.85A4.85,4.85,0,0,1,179.9,314.71Zm0-7.95a3.1,3.1,0,1,0,3.09,3.1A3.09,3.09,0,0,0,179.9,306.76Z" transform="translate(-1.34 -10)"/><path class="cls-3" d="M153.59,314.71a4.85,4.85,0,1,1,4.84-4.85A4.85,4.85,0,0,1,153.59,314.71Zm0-7.95a3.1,3.1,0,1,0,3.09,3.1A3.09,3.09,0,0,0,153.59,306.76Z" transform="translate(-1.34 -10)"/><path class="cls-3" d="M140,314.71a4.85,4.85,0,1,1,4.84-4.85A4.85,4.85,0,0,1,140,314.71Zm0-7.95a3.1,3.1,0,1,0,3.09,3.1A3.1,3.1,0,0,0,140,306.76Z" transform="translate(-1.34 -10)"/><path class="cls-3" d="M166.74,314.71a4.85,4.85,0,1,1,4.84-4.85A4.84,4.84,0,0,1,166.74,314.71Zm0-7.95a3.1,3.1,0,1,0,3.09,3.1A3.1,3.1,0,0,0,166.74,306.76Z" transform="translate(-1.34 -10)"/><path class="cls-3" d="M434.9,124.46a.76.76,0,0,1-.36-.08.87.87,0,0,1-.44-1.15A56.32,56.32,0,1,0,326.56,99.91c0,.12,0,.25,0,.37a.88.88,0,0,1-.84.92.89.89,0,0,1-.91-.84c0-.15,0-.3,0-.45a58,58,0,1,1,110.88,24A.86.86,0,0,1,434.9,124.46Z" transform="translate(-1.34 -10)"/><path class="cls-3" d="M382.84,158.07A57.48,57.48,0,0,1,361,153.79a.88.88,0,1,1,.67-1.62,56.3,56.3,0,0,0,46.78-2,.87.87,0,0,1,1.17.38.88.88,0,0,1-.38,1.18A57.34,57.34,0,0,1,382.84,158.07Z" transform="translate(-1.34 -10)"/><path class="cls-3" d="M383.73,138.92h-1.67a4.7,4.7,0,0,1-4.62-4.77v-4a30.33,30.33,0,0,1-11.31-4.2,4.85,4.85,0,0,1-1.46-6.6l2.21-3.6a4.58,4.58,0,0,1,2.87-2.1,4.44,4.44,0,0,1,3.39.55,15,15,0,0,0,8,2.61c4.13,0,4.93-1.45,4.93-4,0-2.26-3.32-4-7.17-6-6.34-3.31-14.24-7.42-14.24-17,0-8.88,4.65-15.11,12.78-17.2V68.26a4.7,4.7,0,0,1,4.62-4.77h1.67a4.77,4.77,0,0,1,4.76,4.76v4.18A21.35,21.35,0,0,1,397.82,77a4.86,4.86,0,0,1,.62,6.85l-2.35,2.82a4.48,4.48,0,0,1-6,.88,9.59,9.59,0,0,0-5.61-1.92c-3.36,0-4.44.88-4.44,3.61,0,2,3.16,3.58,6.82,5.37,6.16,3,14.6,7.15,14.6,17.23a19.13,19.13,0,0,1-3.38,11.37,17,17,0,0,1-9.57,6.35v4.63A4.76,4.76,0,0,1,383.73,138.92Zm-12.94-23.65a2.72,2.72,0,0,0-.63.08,2.85,2.85,0,0,0-1.79,1.31l-2.21,3.6a3.08,3.08,0,0,0,.91,4.21,28.48,28.48,0,0,0,11.35,4.05.88.88,0,0,1,.77.87v4.76a3,3,0,0,0,2.87,3h1.67a3,3,0,0,0,3-3v-5.3a.86.86,0,0,1,.67-.85,15.67,15.67,0,0,0,9.24-5.86,17.4,17.4,0,0,0,3-10.34c0-9-7.55-12.69-13.62-15.66-4.18-2.05-7.8-3.82-7.8-6.94,0-4.72,3.13-5.36,6.19-5.36a11.19,11.19,0,0,1,6.6,2.24,2.75,2.75,0,0,0,3.68-.57l2.36-2.83a3.1,3.1,0,0,0-.39-4.37A19.55,19.55,0,0,0,387.46,74a.86.86,0,0,1-.72-.86v-4.9a3,3,0,0,0-3-3h-1.67a3,3,0,0,0-2.87,3v5.08a.85.85,0,0,1-.2.55,1.07,1.07,0,0,1-.53.36c-7.66,1.73-12,7.43-12,15.65,0,8.48,7.07,12.16,13.3,15.41,4.35,2.27,8.11,4.22,8.11,7.54,0,3.89-2.12,5.71-6.68,5.71a16.61,16.61,0,0,1-8.92-2.88A2.72,2.72,0,0,0,370.79,115.27Z" transform="translate(-1.34 -10)"/></svg>